%TF.GenerationSoftware,KiCad,Pcbnew,7.0.5*%
%TF.CreationDate,2023-06-14T21:03:38-05:00*%
%TF.ProjectId,MeetupKeebpanel,4d656574-7570-44b6-9565-6270616e656c,rev?*%
%TF.SameCoordinates,Original*%
%TF.FileFunction,Soldermask,Bot*%
%TF.FilePolarity,Negative*%
%FSLAX46Y46*%
G04 Gerber Fmt 4.6, Leading zero omitted, Abs format (unit mm)*
G04 Created by KiCad (PCBNEW 7.0.5) date 2023-06-14 21:03:38*
%MOMM*%
%LPD*%
G01*
G04 APERTURE LIST*
%ADD10C,0.500000*%
%ADD11C,3.200000*%
%ADD12C,1.700000*%
%ADD13C,4.000000*%
%ADD14C,2.200000*%
%ADD15R,1.700000X1.700000*%
%ADD16O,1.700000X1.700000*%
%ADD17C,0.750000*%
%ADD18R,1.900000X3.000000*%
%ADD19O,1.550000X2.200000*%
%ADD20C,2.050000*%
%ADD21C,1.300000*%
%ADD22C,0.650000*%
%ADD23O,2.100000X1.000000*%
%ADD24O,1.800000X1.000000*%
%ADD25C,0.900000*%
%ADD26C,1.000000*%
G04 APERTURE END LIST*
D10*
%TO.C,REF\u002A\u002A*%
X198157968Y-54749851D03*
%TD*%
D11*
%TO.C,REF\u002A\u002A*%
X103625000Y-326000000D03*
%TD*%
D12*
%TO.C,SW6*%
X123415000Y-312000000D03*
D13*
X128495000Y-312000000D03*
D12*
X133575000Y-312000000D03*
D14*
X131035000Y-306920000D03*
X124685000Y-309460000D03*
%TD*%
D10*
%TO.C,REF\u002A\u002A*%
X96125000Y-27000000D03*
%TD*%
D12*
%TO.C,SW6*%
X123415000Y-250500000D03*
D13*
X128495000Y-250500000D03*
D12*
X133575000Y-250500000D03*
D14*
X131035000Y-245420000D03*
X124685000Y-247960000D03*
%TD*%
D10*
%TO.C,REF\u002A\u002A*%
X198156471Y-179749850D03*
%TD*%
D12*
%TO.C,SW10*%
X163555000Y-189000000D03*
D13*
X168635000Y-189000000D03*
D12*
X173715000Y-189000000D03*
D14*
X171175000Y-183920000D03*
X164825000Y-186460000D03*
%TD*%
D10*
%TO.C,REF\u002A\u002A*%
X98625000Y-20500000D03*
%TD*%
%TO.C,REF\u002A\u002A*%
X166125000Y-273200000D03*
%TD*%
D15*
%TO.C,J1*%
X173005000Y-179750000D03*
D16*
X175545000Y-179750000D03*
X178085000Y-179750000D03*
X180625000Y-179750000D03*
X183165000Y-179750000D03*
%TD*%
D10*
%TO.C,REF\u002A\u002A*%
X203875000Y-27000000D03*
%TD*%
%TO.C,REF\u002A\u002A*%
X93125000Y-330500000D03*
%TD*%
D12*
%TO.C,SW7*%
X143485000Y-250500000D03*
D13*
X148565000Y-250500000D03*
D12*
X153645000Y-250500000D03*
D14*
X151105000Y-245420000D03*
X144755000Y-247960000D03*
%TD*%
D10*
%TO.C,REF\u002A\u002A*%
X164124920Y-207276037D03*
%TD*%
%TO.C,REF\u002A\u002A*%
X167124920Y-268774849D03*
%TD*%
D12*
%TO.C,SW13*%
X183625000Y-127500000D03*
D13*
X188705000Y-127500000D03*
D12*
X193785000Y-127500000D03*
D14*
X191245000Y-122420000D03*
X184895000Y-124960000D03*
%TD*%
D10*
%TO.C,REF\u002A\u002A*%
X132875000Y-150200000D03*
%TD*%
D17*
%TO.C,SW1*%
X190125000Y-28500000D03*
X187825000Y-28500000D03*
%TD*%
D18*
%TO.C,SW2*%
X100662500Y-161800000D03*
D19*
X106162500Y-157300000D03*
D20*
X106162500Y-161800000D03*
D18*
X111662500Y-161800000D03*
D21*
X103662500Y-169300000D03*
X108662500Y-169300000D03*
X106162500Y-169300000D03*
X103662500Y-154800000D03*
X108662500Y-154800000D03*
%TD*%
D10*
%TO.C,REF\u002A\u002A*%
X130874921Y-145789206D03*
%TD*%
D12*
%TO.C,SW10*%
X163555000Y-66000000D03*
D13*
X168635000Y-66000000D03*
D12*
X173715000Y-66000000D03*
D14*
X171175000Y-60920000D03*
X164825000Y-63460000D03*
%TD*%
D22*
%TO.C,P1*%
X191937500Y-170140000D03*
X191937500Y-164360000D03*
D23*
X191437500Y-171570000D03*
D24*
X195587500Y-171570000D03*
D23*
X191437500Y-162930000D03*
D24*
X195587500Y-162930000D03*
%TD*%
D10*
%TO.C,REF\u002A\u002A*%
X166124920Y-268775245D03*
%TD*%
%TO.C,REF\u002A\u002A*%
X98825000Y-57750000D03*
%TD*%
%TO.C,REF\u002A\u002A*%
X165124920Y-268775641D03*
%TD*%
%TO.C,REF\u002A\u002A*%
X198157219Y-240249850D03*
%TD*%
D12*
%TO.C,SW7*%
X143485000Y-127500000D03*
D13*
X148565000Y-127500000D03*
D12*
X153645000Y-127500000D03*
D14*
X151105000Y-122420000D03*
X144755000Y-124960000D03*
%TD*%
D17*
%TO.C,SW1*%
X190125000Y-151500000D03*
X187825000Y-151500000D03*
%TD*%
D12*
%TO.C,SW5*%
X103345000Y-250500000D03*
D13*
X108425000Y-250500000D03*
D12*
X113505000Y-250500000D03*
D14*
X110965000Y-245420000D03*
X104615000Y-247960000D03*
%TD*%
D10*
%TO.C,REF\u002A\u002A*%
X131874921Y-330288810D03*
%TD*%
%TO.C,REF\u002A\u002A*%
X95125000Y-330500000D03*
%TD*%
%TO.C,REF\u002A\u002A*%
X132875000Y-27200000D03*
%TD*%
D11*
%TO.C,REF\u002A\u002A*%
X194625000Y-156000000D03*
%TD*%
D10*
%TO.C,REF\u002A\u002A*%
X166124920Y-330275245D03*
%TD*%
%TO.C,REF\u002A\u002A*%
X164125000Y-211700000D03*
%TD*%
D15*
%TO.C,J2*%
X170205000Y-90500000D03*
D16*
X167665000Y-90500000D03*
X165125000Y-90500000D03*
X162585000Y-90500000D03*
X160045000Y-90500000D03*
%TD*%
D15*
%TO.C,J2*%
X170205000Y-275000000D03*
D16*
X167665000Y-275000000D03*
X165125000Y-275000000D03*
X162585000Y-275000000D03*
X160045000Y-275000000D03*
%TD*%
D10*
%TO.C,REF\u002A\u002A*%
X166124920Y-207275245D03*
%TD*%
%TO.C,REF\u002A\u002A*%
X94125000Y-27000000D03*
%TD*%
%TO.C,REF\u002A\u002A*%
X198157968Y-116249850D03*
%TD*%
%TO.C,REF\u002A\u002A*%
X198158717Y-176749850D03*
%TD*%
%TO.C,REF\u002A\u002A*%
X167125000Y-27200000D03*
%TD*%
%TO.C,REF\u002A\u002A*%
X129874921Y-330289602D03*
%TD*%
%TO.C,REF\u002A\u002A*%
X98825000Y-238250000D03*
%TD*%
%TO.C,REF\u002A\u002A*%
X98825000Y-242250000D03*
%TD*%
%TO.C,REF\u002A\u002A*%
X163124920Y-207276433D03*
%TD*%
%TO.C,REF\u002A\u002A*%
X131875000Y-273200000D03*
%TD*%
D15*
%TO.C,J1*%
X173005000Y-302750000D03*
D16*
X175545000Y-302750000D03*
X178085000Y-302750000D03*
X180625000Y-302750000D03*
X183165000Y-302750000D03*
%TD*%
D10*
%TO.C,REF\u002A\u002A*%
X132874921Y-207288414D03*
%TD*%
%TO.C,REF\u002A\u002A*%
X166124920Y-84275245D03*
%TD*%
D18*
%TO.C,SW2*%
X100662500Y-38800000D03*
D19*
X106162500Y-34300000D03*
D20*
X106162500Y-38800000D03*
D18*
X111662500Y-38800000D03*
D21*
X103662500Y-46300000D03*
X108662500Y-46300000D03*
X106162500Y-46300000D03*
X103662500Y-31800000D03*
X108662500Y-31800000D03*
%TD*%
D10*
%TO.C,REF\u002A\u002A*%
X132875000Y-88700000D03*
%TD*%
D11*
%TO.C,REF\u002A\u002A*%
X114125000Y-154000000D03*
%TD*%
D10*
%TO.C,REF\u002A\u002A*%
X198156471Y-302749850D03*
%TD*%
%TO.C,REF\u002A\u002A*%
X167124920Y-84274849D03*
%TD*%
%TO.C,REF\u002A\u002A*%
X198375000Y-333000000D03*
%TD*%
%TO.C,REF\u002A\u002A*%
X198155722Y-242249850D03*
%TD*%
%TO.C,REF\u002A\u002A*%
X132874921Y-330288414D03*
%TD*%
D12*
%TO.C,SW5*%
X103345000Y-189000000D03*
D13*
X108425000Y-189000000D03*
D12*
X113505000Y-189000000D03*
D14*
X110965000Y-183920000D03*
X104615000Y-186460000D03*
%TD*%
D10*
%TO.C,REF\u002A\u002A*%
X98625000Y-335000000D03*
%TD*%
%TO.C,REF\u002A\u002A*%
X98825000Y-119250000D03*
%TD*%
D15*
%TO.C,J2*%
X170205000Y-152000000D03*
D16*
X167665000Y-152000000D03*
X165125000Y-152000000D03*
X162585000Y-152000000D03*
X160045000Y-152000000D03*
%TD*%
D10*
%TO.C,REF\u002A\u002A*%
X165124920Y-145775641D03*
%TD*%
D25*
%TO.C,Power1*%
X150620000Y-28500000D03*
X153620000Y-28500000D03*
%TD*%
D10*
%TO.C,REF\u002A\u002A*%
X98825000Y-179750000D03*
%TD*%
%TO.C,REF\u002A\u002A*%
X98825000Y-301750000D03*
%TD*%
D18*
%TO.C,SW2*%
X100662500Y-223300000D03*
D19*
X106162500Y-218800000D03*
D20*
X106162500Y-223300000D03*
D18*
X111662500Y-223300000D03*
D21*
X103662500Y-230800000D03*
X108662500Y-230800000D03*
X106162500Y-230800000D03*
X103662500Y-216300000D03*
X108662500Y-216300000D03*
%TD*%
D12*
%TO.C,SW7*%
X143485000Y-312000000D03*
D13*
X148565000Y-312000000D03*
D12*
X153645000Y-312000000D03*
D14*
X151105000Y-306920000D03*
X144755000Y-309460000D03*
%TD*%
D10*
%TO.C,REF\u002A\u002A*%
X198375000Y-22500000D03*
%TD*%
%TO.C,REF\u002A\u002A*%
X98625000Y-334000000D03*
%TD*%
%TO.C,REF\u002A\u002A*%
X204875000Y-330500000D03*
%TD*%
D11*
%TO.C,REF\u002A\u002A*%
X193625000Y-141500000D03*
%TD*%
D10*
%TO.C,REF\u002A\u002A*%
X131874921Y-207288810D03*
%TD*%
%TO.C,REF\u002A\u002A*%
X198375000Y-20500000D03*
%TD*%
D11*
%TO.C,REF\u002A\u002A*%
X193625000Y-80000000D03*
%TD*%
D10*
%TO.C,REF\u002A\u002A*%
X198158717Y-299749850D03*
%TD*%
D17*
%TO.C,SW1*%
X190125000Y-90000000D03*
X187825000Y-90000000D03*
%TD*%
D10*
%TO.C,REF\u002A\u002A*%
X131875000Y-211700000D03*
%TD*%
%TO.C,REF\u002A\u002A*%
X167125000Y-88700000D03*
%TD*%
D11*
%TO.C,REF\u002A\u002A*%
X114125000Y-277000000D03*
%TD*%
D25*
%TO.C,Power1*%
X150620000Y-213000000D03*
X153620000Y-213000000D03*
%TD*%
D10*
%TO.C,REF\u002A\u002A*%
X167124920Y-330274849D03*
%TD*%
D17*
%TO.C,SW1*%
X190125000Y-274500000D03*
X187825000Y-274500000D03*
%TD*%
D10*
%TO.C,REF\u002A\u002A*%
X198157219Y-301749850D03*
%TD*%
D11*
%TO.C,REF\u002A\u002A*%
X194625000Y-33000000D03*
%TD*%
D10*
%TO.C,REF\u002A\u002A*%
X95125000Y-27000000D03*
%TD*%
%TO.C,REF\u002A\u002A*%
X203875000Y-330500000D03*
%TD*%
%TO.C,REF\u002A\u002A*%
X198375000Y-334000000D03*
%TD*%
%TO.C,REF\u002A\u002A*%
X133874921Y-207288018D03*
%TD*%
%TO.C,REF\u002A\u002A*%
X165125000Y-150200000D03*
%TD*%
%TO.C,REF\u002A\u002A*%
X166125000Y-88700000D03*
%TD*%
D12*
%TO.C,SW5*%
X103345000Y-66000000D03*
D13*
X108425000Y-66000000D03*
D12*
X113505000Y-66000000D03*
D14*
X110965000Y-60920000D03*
X104615000Y-63460000D03*
%TD*%
D15*
%TO.C,J1*%
X173005000Y-118250000D03*
D16*
X175545000Y-118250000D03*
X178085000Y-118250000D03*
X180625000Y-118250000D03*
X183165000Y-118250000D03*
%TD*%
D15*
%TO.C,J2*%
X170205000Y-213500000D03*
D16*
X167665000Y-213500000D03*
X165125000Y-213500000D03*
X162585000Y-213500000D03*
X160045000Y-213500000D03*
%TD*%
D25*
%TO.C,Power1*%
X150620000Y-151500000D03*
X153620000Y-151500000D03*
%TD*%
D10*
%TO.C,REF\u002A\u002A*%
X96125000Y-330500000D03*
%TD*%
%TO.C,REF\u002A\u002A*%
X198155722Y-119249850D03*
%TD*%
%TO.C,REF\u002A\u002A*%
X98825000Y-55750000D03*
%TD*%
D18*
%TO.C,SW2*%
X100662500Y-284800000D03*
D19*
X106162500Y-280300000D03*
D20*
X106162500Y-284800000D03*
D18*
X111662500Y-284800000D03*
D21*
X103662500Y-292300000D03*
X108662500Y-292300000D03*
X106162500Y-292300000D03*
X103662500Y-277800000D03*
X108662500Y-277800000D03*
%TD*%
D12*
%TO.C,SW13*%
X183625000Y-250500000D03*
D13*
X188705000Y-250500000D03*
D12*
X193785000Y-250500000D03*
D14*
X191245000Y-245420000D03*
X184895000Y-247960000D03*
%TD*%
D11*
%TO.C,REF\u002A\u002A*%
X193625000Y-326000000D03*
%TD*%
D10*
%TO.C,REF\u002A\u002A*%
X198157968Y-300749850D03*
%TD*%
%TO.C,REF\u002A\u002A*%
X98625000Y-336000000D03*
%TD*%
%TO.C,REF\u002A\u002A*%
X198156471Y-118249850D03*
%TD*%
%TO.C,REF\u002A\u002A*%
X165124920Y-207275641D03*
%TD*%
%TO.C,REF\u002A\u002A*%
X131874921Y-84288810D03*
%TD*%
%TO.C,REF\u002A\u002A*%
X133875000Y-273200000D03*
%TD*%
D11*
%TO.C,REF\u002A\u002A*%
X114125000Y-31000000D03*
%TD*%
D10*
%TO.C,REF\u002A\u002A*%
X133874921Y-145788018D03*
%TD*%
%TO.C,REF\u002A\u002A*%
X93125000Y-27000000D03*
%TD*%
%TO.C,REF\u002A\u002A*%
X133875000Y-211700000D03*
%TD*%
%TO.C,REF\u002A\u002A*%
X131875000Y-88700000D03*
%TD*%
%TO.C,REF\u002A\u002A*%
X98825000Y-303750000D03*
%TD*%
%TO.C,REF\u002A\u002A*%
X166125000Y-27200000D03*
%TD*%
%TO.C,REF\u002A\u002A*%
X98825000Y-180750000D03*
%TD*%
D11*
%TO.C,REF\u002A\u002A*%
X103625000Y-80000000D03*
%TD*%
D10*
%TO.C,REF\u002A\u002A*%
X201875000Y-330500000D03*
%TD*%
%TO.C,REF\u002A\u002A*%
X130874921Y-84289206D03*
%TD*%
%TO.C,REF\u002A\u002A*%
X133875000Y-27200000D03*
%TD*%
%TO.C,REF\u002A\u002A*%
X98825000Y-239250000D03*
%TD*%
D12*
%TO.C,SW6*%
X123415000Y-127500000D03*
D13*
X128495000Y-127500000D03*
D12*
X133575000Y-127500000D03*
D14*
X131035000Y-122420000D03*
X124685000Y-124960000D03*
%TD*%
D10*
%TO.C,REF\u002A\u002A*%
X98825000Y-178750000D03*
%TD*%
%TO.C,REF\u002A\u002A*%
X164125000Y-273200000D03*
%TD*%
%TO.C,REF\u002A\u002A*%
X132874921Y-268788414D03*
%TD*%
%TO.C,REF\u002A\u002A*%
X129875000Y-88700000D03*
%TD*%
%TO.C,REF\u002A\u002A*%
X198375000Y-336000000D03*
%TD*%
D12*
%TO.C,SW7*%
X143485000Y-189000000D03*
D13*
X148565000Y-189000000D03*
D12*
X153645000Y-189000000D03*
D14*
X151105000Y-183920000D03*
X144755000Y-186460000D03*
%TD*%
D10*
%TO.C,REF\u002A\u002A*%
X198157968Y-239249850D03*
%TD*%
%TO.C,REF\u002A\u002A*%
X132874921Y-145788414D03*
%TD*%
%TO.C,REF\u002A\u002A*%
X98825000Y-54750000D03*
%TD*%
%TO.C,REF\u002A\u002A*%
X98825000Y-299750000D03*
%TD*%
D11*
%TO.C,REF\u002A\u002A*%
X194625000Y-279000000D03*
%TD*%
D10*
%TO.C,REF\u002A\u002A*%
X98625000Y-21500000D03*
%TD*%
%TO.C,REF\u002A\u002A*%
X164124920Y-145776037D03*
%TD*%
%TO.C,REF\u002A\u002A*%
X202875000Y-330500000D03*
%TD*%
%TO.C,REF\u002A\u002A*%
X129874921Y-145789602D03*
%TD*%
%TO.C,REF\u002A\u002A*%
X98825000Y-300750000D03*
%TD*%
%TO.C,REF\u002A\u002A*%
X164124920Y-330276037D03*
%TD*%
%TO.C,REF\u002A\u002A*%
X198375000Y-21500000D03*
%TD*%
%TO.C,REF\u002A\u002A*%
X98625000Y-24500000D03*
%TD*%
D11*
%TO.C,REF\u002A\u002A*%
X103625000Y-264500000D03*
%TD*%
D10*
%TO.C,REF\u002A\u002A*%
X165125000Y-273200000D03*
%TD*%
%TO.C,REF\u002A\u002A*%
X130875000Y-27200000D03*
%TD*%
%TO.C,REF\u002A\u002A*%
X131875000Y-27200000D03*
%TD*%
%TO.C,REF\u002A\u002A*%
X200875000Y-27000000D03*
%TD*%
%TO.C,REF\u002A\u002A*%
X98625000Y-23500000D03*
%TD*%
%TO.C,REF\u002A\u002A*%
X98825000Y-116250000D03*
%TD*%
%TO.C,REF\u002A\u002A*%
X92125000Y-330500000D03*
%TD*%
D25*
%TO.C,Power1*%
X150620000Y-274500000D03*
X153620000Y-274500000D03*
%TD*%
D10*
%TO.C,REF\u002A\u002A*%
X164124920Y-268776037D03*
%TD*%
%TO.C,REF\u002A\u002A*%
X129875000Y-211700000D03*
%TD*%
%TO.C,REF\u002A\u002A*%
X163124920Y-84276433D03*
%TD*%
D12*
%TO.C,SW10*%
X163555000Y-127500000D03*
D13*
X168635000Y-127500000D03*
D12*
X173715000Y-127500000D03*
D14*
X171175000Y-122420000D03*
X164825000Y-124960000D03*
%TD*%
D11*
%TO.C,REF\u002A\u002A*%
X194625000Y-217500000D03*
%TD*%
D12*
%TO.C,SW6*%
X123415000Y-66000000D03*
D13*
X128495000Y-66000000D03*
D12*
X133575000Y-66000000D03*
D14*
X131035000Y-60920000D03*
X124685000Y-63460000D03*
%TD*%
D10*
%TO.C,REF\u002A\u002A*%
X129875000Y-273200000D03*
%TD*%
%TO.C,REF\u002A\u002A*%
X98625000Y-333000000D03*
%TD*%
%TO.C,REF\u002A\u002A*%
X131874921Y-268788810D03*
%TD*%
%TO.C,REF\u002A\u002A*%
X133875000Y-150200000D03*
%TD*%
D22*
%TO.C,P1*%
X191937500Y-231640000D03*
X191937500Y-225860000D03*
D23*
X191437500Y-233070000D03*
D24*
X195587500Y-233070000D03*
D23*
X191437500Y-224430000D03*
D24*
X195587500Y-224430000D03*
%TD*%
D10*
%TO.C,REF\u002A\u002A*%
X198157219Y-117249850D03*
%TD*%
D17*
%TO.C,SW1*%
X190125000Y-213000000D03*
X187825000Y-213000000D03*
%TD*%
D10*
%TO.C,REF\u002A\u002A*%
X165125000Y-27200000D03*
%TD*%
%TO.C,REF\u002A\u002A*%
X163124920Y-330276433D03*
%TD*%
%TO.C,REF\u002A\u002A*%
X98825000Y-117250000D03*
%TD*%
%TO.C,REF\u002A\u002A*%
X129874921Y-84289602D03*
%TD*%
%TO.C,REF\u002A\u002A*%
X198155722Y-57749850D03*
%TD*%
%TO.C,REF\u002A\u002A*%
X164124920Y-84276037D03*
%TD*%
D11*
%TO.C,REF\u002A\u002A*%
X103625000Y-141500000D03*
%TD*%
D10*
%TO.C,REF\u002A\u002A*%
X163125000Y-27200000D03*
%TD*%
%TO.C,REF\u002A\u002A*%
X98825000Y-177750000D03*
%TD*%
%TO.C,REF\u002A\u002A*%
X98625000Y-337000000D03*
%TD*%
%TO.C,REF\u002A\u002A*%
X130875000Y-150200000D03*
%TD*%
D11*
%TO.C,REF\u002A\u002A*%
X114125000Y-215500000D03*
%TD*%
D10*
%TO.C,REF\u002A\u002A*%
X167125000Y-211700000D03*
%TD*%
%TO.C,REF\u002A\u002A*%
X92125000Y-27000000D03*
%TD*%
D15*
%TO.C,J1*%
X173005000Y-241250000D03*
D16*
X175545000Y-241250000D03*
X178085000Y-241250000D03*
X180625000Y-241250000D03*
X183165000Y-241250000D03*
%TD*%
D10*
%TO.C,REF\u002A\u002A*%
X132875000Y-273200000D03*
%TD*%
%TO.C,REF\u002A\u002A*%
X98825000Y-53750000D03*
%TD*%
%TO.C,REF\u002A\u002A*%
X204875000Y-27000000D03*
%TD*%
%TO.C,REF\u002A\u002A*%
X98825000Y-176750000D03*
%TD*%
%TO.C,REF\u002A\u002A*%
X130874921Y-330289206D03*
%TD*%
D12*
%TO.C,SW5*%
X103345000Y-312000000D03*
D13*
X108425000Y-312000000D03*
D12*
X113505000Y-312000000D03*
D14*
X110965000Y-306920000D03*
X104615000Y-309460000D03*
%TD*%
D10*
%TO.C,REF\u002A\u002A*%
X165125000Y-211700000D03*
%TD*%
%TO.C,REF\u002A\u002A*%
X164125000Y-88700000D03*
%TD*%
D22*
%TO.C,P1*%
X191937500Y-108640000D03*
X191937500Y-102860000D03*
D23*
X191437500Y-110070000D03*
D24*
X195587500Y-110070000D03*
D23*
X191437500Y-101430000D03*
D24*
X195587500Y-101430000D03*
%TD*%
D10*
%TO.C,REF\u002A\u002A*%
X165125000Y-88700000D03*
%TD*%
%TO.C,REF\u002A\u002A*%
X165124920Y-84275641D03*
%TD*%
D12*
%TO.C,SW10*%
X163555000Y-312000000D03*
D13*
X168635000Y-312000000D03*
D12*
X173715000Y-312000000D03*
D14*
X171175000Y-306920000D03*
X164825000Y-309460000D03*
%TD*%
D10*
%TO.C,REF\u002A\u002A*%
X129875000Y-27200000D03*
%TD*%
D11*
%TO.C,REF\u002A\u002A*%
X193625000Y-203000000D03*
%TD*%
D15*
%TO.C,J2*%
X170205000Y-29000000D03*
D16*
X167665000Y-29000000D03*
X165125000Y-29000000D03*
X162585000Y-29000000D03*
X160045000Y-29000000D03*
%TD*%
D22*
%TO.C,P1*%
X191937500Y-47140000D03*
X191937500Y-41360000D03*
D23*
X191437500Y-48570000D03*
D24*
X195587500Y-48570000D03*
D23*
X191437500Y-39930000D03*
D24*
X195587500Y-39930000D03*
%TD*%
D10*
%TO.C,REF\u002A\u002A*%
X198157219Y-55749851D03*
%TD*%
%TO.C,REF\u002A\u002A*%
X202875000Y-27000000D03*
%TD*%
D15*
%TO.C,J1*%
X173005000Y-56750000D03*
D16*
X175545000Y-56750000D03*
X178085000Y-56750000D03*
X180625000Y-56750000D03*
X183165000Y-56750000D03*
%TD*%
D10*
%TO.C,REF\u002A\u002A*%
X163125000Y-150200000D03*
%TD*%
%TO.C,REF\u002A\u002A*%
X130875000Y-273200000D03*
%TD*%
%TO.C,REF\u002A\u002A*%
X198155722Y-303749850D03*
%TD*%
%TO.C,REF\u002A\u002A*%
X166125000Y-211700000D03*
%TD*%
D18*
%TO.C,SW2*%
X100662500Y-100300000D03*
D19*
X106162500Y-95800000D03*
D20*
X106162500Y-100300000D03*
D18*
X111662500Y-100300000D03*
D21*
X103662500Y-107800000D03*
X108662500Y-107800000D03*
X106162500Y-107800000D03*
X103662500Y-93300000D03*
X108662500Y-93300000D03*
%TD*%
D10*
%TO.C,REF\u002A\u002A*%
X167124920Y-145774849D03*
%TD*%
%TO.C,REF\u002A\u002A*%
X167124920Y-207274849D03*
%TD*%
D12*
%TO.C,SW13*%
X183625000Y-66000000D03*
D13*
X188705000Y-66000000D03*
D12*
X193785000Y-66000000D03*
D14*
X191245000Y-60920000D03*
X184895000Y-63460000D03*
%TD*%
D10*
%TO.C,REF\u002A\u002A*%
X166125000Y-150200000D03*
%TD*%
%TO.C,REF\u002A\u002A*%
X163125000Y-273200000D03*
%TD*%
%TO.C,REF\u002A\u002A*%
X98825000Y-240250000D03*
%TD*%
%TO.C,REF\u002A\u002A*%
X198158717Y-53749851D03*
%TD*%
%TO.C,REF\u002A\u002A*%
X98625000Y-22500000D03*
%TD*%
%TO.C,REF\u002A\u002A*%
X129874921Y-207289602D03*
%TD*%
%TO.C,REF\u002A\u002A*%
X163124920Y-145776433D03*
%TD*%
%TO.C,REF\u002A\u002A*%
X132874921Y-84288414D03*
%TD*%
%TO.C,REF\u002A\u002A*%
X198156471Y-56749850D03*
%TD*%
%TO.C,REF\u002A\u002A*%
X198156471Y-241249850D03*
%TD*%
%TO.C,REF\u002A\u002A*%
X129874921Y-268789602D03*
%TD*%
D12*
%TO.C,SW13*%
X183625000Y-189000000D03*
D13*
X188705000Y-189000000D03*
D12*
X193785000Y-189000000D03*
D14*
X191245000Y-183920000D03*
X184895000Y-186460000D03*
%TD*%
D10*
%TO.C,REF\u002A\u002A*%
X98825000Y-56750000D03*
%TD*%
%TO.C,REF\u002A\u002A*%
X198158717Y-238249850D03*
%TD*%
%TO.C,REF\u002A\u002A*%
X133875000Y-88700000D03*
%TD*%
%TO.C,REF\u002A\u002A*%
X201875000Y-27000000D03*
%TD*%
%TO.C,REF\u002A\u002A*%
X198157968Y-177749850D03*
%TD*%
%TO.C,REF\u002A\u002A*%
X131874921Y-145788810D03*
%TD*%
%TO.C,REF\u002A\u002A*%
X132875000Y-211700000D03*
%TD*%
%TO.C,REF\u002A\u002A*%
X133874921Y-268788018D03*
%TD*%
%TO.C,REF\u002A\u002A*%
X130874921Y-207289206D03*
%TD*%
%TO.C,REF\u002A\u002A*%
X167125000Y-150200000D03*
%TD*%
%TO.C,REF\u002A\u002A*%
X167125000Y-273200000D03*
%TD*%
%TO.C,REF\u002A\u002A*%
X130874921Y-268789206D03*
%TD*%
%TO.C,REF\u002A\u002A*%
X198155722Y-180749850D03*
%TD*%
%TO.C,REF\u002A\u002A*%
X163125000Y-88700000D03*
%TD*%
%TO.C,REF\u002A\u002A*%
X200875000Y-330500000D03*
%TD*%
%TO.C,REF\u002A\u002A*%
X129875000Y-150200000D03*
%TD*%
D11*
%TO.C,REF\u002A\u002A*%
X114125000Y-92500000D03*
%TD*%
D12*
%TO.C,SW6*%
X123415000Y-189000000D03*
D13*
X128495000Y-189000000D03*
D12*
X133575000Y-189000000D03*
D14*
X131035000Y-183920000D03*
X124685000Y-186460000D03*
%TD*%
D10*
%TO.C,REF\u002A\u002A*%
X198375000Y-23500000D03*
%TD*%
%TO.C,REF\u002A\u002A*%
X133874921Y-330288018D03*
%TD*%
%TO.C,REF\u002A\u002A*%
X164125000Y-150200000D03*
%TD*%
D12*
%TO.C,SW10*%
X163555000Y-250500000D03*
D13*
X168635000Y-250500000D03*
D12*
X173715000Y-250500000D03*
D14*
X171175000Y-245420000D03*
X164825000Y-247960000D03*
%TD*%
D10*
%TO.C,REF\u002A\u002A*%
X163124920Y-268776433D03*
%TD*%
%TO.C,REF\u002A\u002A*%
X164125000Y-27200000D03*
%TD*%
D11*
%TO.C,REF\u002A\u002A*%
X194625000Y-94500000D03*
%TD*%
D10*
%TO.C,REF\u002A\u002A*%
X163125000Y-211700000D03*
%TD*%
%TO.C,REF\u002A\u002A*%
X198158717Y-115249850D03*
%TD*%
%TO.C,REF\u002A\u002A*%
X98825000Y-118250000D03*
%TD*%
D25*
%TO.C,Power1*%
X150620000Y-90000000D03*
X153620000Y-90000000D03*
%TD*%
D10*
%TO.C,REF\u002A\u002A*%
X198375000Y-24500000D03*
%TD*%
D11*
%TO.C,REF\u002A\u002A*%
X193625000Y-264500000D03*
%TD*%
D12*
%TO.C,SW5*%
X103345000Y-127500000D03*
D13*
X108425000Y-127500000D03*
D12*
X113505000Y-127500000D03*
D14*
X110965000Y-122420000D03*
X104615000Y-124960000D03*
%TD*%
D10*
%TO.C,REF\u002A\u002A*%
X130875000Y-88700000D03*
%TD*%
%TO.C,REF\u002A\u002A*%
X165124920Y-330275641D03*
%TD*%
%TO.C,REF\u002A\u002A*%
X198157219Y-178749850D03*
%TD*%
%TO.C,REF\u002A\u002A*%
X198375000Y-337000000D03*
%TD*%
D12*
%TO.C,SW7*%
X143485000Y-66000000D03*
D13*
X148565000Y-66000000D03*
D12*
X153645000Y-66000000D03*
D14*
X151105000Y-60920000D03*
X144755000Y-63460000D03*
%TD*%
D10*
%TO.C,REF\u002A\u002A*%
X98825000Y-115250000D03*
%TD*%
D11*
%TO.C,REF\u002A\u002A*%
X103625000Y-203000000D03*
%TD*%
D10*
%TO.C,REF\u002A\u002A*%
X98825000Y-241250000D03*
%TD*%
%TO.C,REF\u002A\u002A*%
X94125000Y-330500000D03*
%TD*%
%TO.C,REF\u002A\u002A*%
X198375000Y-335000000D03*
%TD*%
%TO.C,REF\u002A\u002A*%
X133874921Y-84288018D03*
%TD*%
%TO.C,REF\u002A\u002A*%
X166124920Y-145775245D03*
%TD*%
D12*
%TO.C,SW13*%
X183625000Y-312000000D03*
D13*
X188705000Y-312000000D03*
D12*
X193785000Y-312000000D03*
D14*
X191245000Y-306920000D03*
X184895000Y-309460000D03*
%TD*%
D10*
%TO.C,REF\u002A\u002A*%
X130875000Y-211700000D03*
%TD*%
%TO.C,REF\u002A\u002A*%
X98825000Y-302750000D03*
%TD*%
%TO.C,REF\u002A\u002A*%
X131875000Y-150200000D03*
%TD*%
D22*
%TO.C,P1*%
X191937500Y-293140000D03*
X191937500Y-287360000D03*
D23*
X191437500Y-294570000D03*
D24*
X195587500Y-294570000D03*
D23*
X191437500Y-285930000D03*
D24*
X195587500Y-285930000D03*
%TD*%
D26*
%TO.C,REF\u002A\u002A*%
X200375000Y-22500000D03*
%TD*%
%TO.C,REF\u002A\u002A*%
X96625000Y-22500000D03*
%TD*%
%TO.C,REF\u002A\u002A*%
X96625000Y-335000000D03*
%TD*%
M02*
