%TF.GenerationSoftware,KiCad,Pcbnew,7.0.5*%
%TF.CreationDate,2023-06-14T21:03:38-05:00*%
%TF.ProjectId,MeetupKeebpanel,4d656574-7570-44b6-9565-6270616e656c,rev?*%
%TF.SameCoordinates,Original*%
%TF.FileFunction,Profile,NP*%
%FSLAX46Y46*%
G04 Gerber Fmt 4.6, Leading zero omitted, Abs format (unit mm)*
G04 Created by KiCad (PCBNEW 7.0.5) date 2023-06-14 21:03:38*
%MOMM*%
%LPD*%
G01*
G04 APERTURE LIST*
%TA.AperFunction,Profile*%
%ADD10C,0.100000*%
%TD*%
G04 APERTURE END LIST*
D10*
X133375000Y-211500000D02*
X133375000Y-209500000D01*
X103371754Y-27006417D02*
X103119158Y-27025653D01*
X166625000Y-86500000D02*
X166625000Y-84475047D01*
X98936239Y-276263473D02*
X98854303Y-276503184D01*
X99253266Y-152573490D02*
X99135977Y-152798029D01*
X198028235Y-204200996D02*
X198110170Y-203961285D01*
X196784310Y-83088440D02*
X196963440Y-82909310D01*
X103625000Y-269000000D02*
X130375000Y-268989404D01*
X101888473Y-145688760D02*
X102128184Y-145770696D01*
X99671121Y-28939470D02*
X99521182Y-29143658D01*
X99671121Y-328560529D02*
X99831209Y-328756862D01*
X166625000Y-207475047D02*
X193339466Y-207464465D01*
X194132138Y-211557658D02*
X193880841Y-211525653D01*
X98784614Y-215246737D02*
X98727350Y-215493507D01*
X98631417Y-31746754D02*
X98625000Y-32000000D01*
X100768658Y-27896182D02*
X100564470Y-28046121D01*
X196400004Y-267918355D02*
X196596337Y-267758266D01*
X98625000Y-118750000D02*
X98625000Y-118750000D01*
X100001036Y-144444834D02*
X100180165Y-144623963D01*
X102618507Y-207397649D02*
X102867861Y-207442341D01*
X99521182Y-205356341D02*
X99671121Y-205560529D01*
X193375000Y-88500000D02*
X166625000Y-88500000D01*
X102128184Y-150229303D02*
X101888473Y-150311239D01*
X196963440Y-205909310D02*
X197133266Y-205721337D01*
X198272649Y-30993507D02*
X198215385Y-30746737D01*
X198375000Y-32000000D02*
X198368582Y-31746754D01*
X198317341Y-92742861D02*
X198272649Y-92493507D01*
X194381492Y-27102350D02*
X194132138Y-27057658D01*
X197934264Y-204436250D02*
X198028235Y-204200996D01*
X196784310Y-206088440D02*
X196963440Y-205909310D01*
X195346779Y-273405210D02*
X195111526Y-273311239D01*
X198356096Y-57250000D02*
X200375000Y-57250000D01*
X198368582Y-154746754D02*
X198349346Y-154494158D01*
X130375000Y-25000000D02*
X130375000Y-27000000D01*
X198145696Y-30503184D02*
X198063760Y-30263473D01*
X194628262Y-88659614D02*
X194381492Y-88602350D01*
X102371737Y-150159614D02*
X102128184Y-150229303D01*
X100980179Y-206743221D02*
X101198490Y-206871733D01*
X197711209Y-204890982D02*
X197828498Y-204666442D01*
X194836285Y-207235170D02*
X195075996Y-207153235D01*
X166625000Y-88500000D02*
X166625000Y-86500000D01*
X193880841Y-211525653D02*
X193628245Y-211506417D01*
X196435529Y-274046121D02*
X196231341Y-273896182D01*
X103371754Y-207493582D02*
X103625000Y-207500000D01*
X166625000Y-330475047D02*
X193339466Y-330464465D01*
X100368137Y-28206209D02*
X100180165Y-28376036D01*
X101888473Y-330188760D02*
X102128184Y-330270696D01*
X100180165Y-274376036D02*
X100001036Y-274555165D01*
X98682658Y-203257138D02*
X98727350Y-203506492D01*
X130375000Y-145989404D02*
X130375000Y-148000000D01*
X98650653Y-215994158D02*
X98631417Y-216246754D01*
X100180165Y-329123963D02*
X100368137Y-329293790D01*
X193628245Y-88506417D02*
X193375000Y-88500000D01*
X195984293Y-83707697D02*
X196195815Y-83568293D01*
X195311250Y-145559264D02*
X195541442Y-145453498D01*
X96625000Y-118750000D02*
X98625000Y-118750000D01*
X196400004Y-329418355D02*
X196596337Y-329258266D01*
X98727350Y-326506492D02*
X98784614Y-326753262D01*
X197293355Y-267025004D02*
X197443293Y-266820815D01*
X198375000Y-216500000D02*
X198368582Y-216246754D01*
X195111526Y-150311239D02*
X194871815Y-150229303D01*
X99831209Y-28743137D02*
X99671121Y-28939470D01*
X194345961Y-330362121D02*
X194592731Y-330304858D01*
X195111526Y-88811239D02*
X194871815Y-88729303D01*
X98650653Y-80005841D02*
X98682658Y-80257138D01*
X194096606Y-145906812D02*
X194345961Y-145862121D01*
X99253266Y-204926509D02*
X99381778Y-205144820D01*
X99135977Y-91298029D02*
X99030210Y-91528220D01*
X99381778Y-213855179D02*
X99253266Y-214073490D01*
X198272649Y-215493507D02*
X198215385Y-215246737D01*
X195111526Y-27311239D02*
X194871815Y-27229303D01*
X196819834Y-274376036D02*
X196631862Y-274206209D01*
X99671121Y-205560529D02*
X99831209Y-205756862D01*
X103119158Y-273025653D02*
X102867861Y-273057658D01*
X196631862Y-212706209D02*
X196435529Y-212546121D01*
X133375000Y-84488216D02*
X163625000Y-84476235D01*
X195111526Y-273311239D02*
X194871815Y-273229303D01*
X100564470Y-329453878D02*
X100768658Y-329603817D01*
X196631862Y-151206209D02*
X196435529Y-151046121D01*
X98625000Y-264000000D02*
X98631417Y-264253245D01*
X100368137Y-144793790D02*
X100564470Y-144953878D01*
X200375000Y-25000000D02*
X200375000Y-54250000D01*
X98727350Y-92493507D02*
X98682658Y-92742861D01*
X197828498Y-143166442D02*
X197934264Y-142936250D01*
X198110170Y-326961285D02*
X198179858Y-326717731D01*
X98631417Y-277746754D02*
X98625000Y-278000000D01*
X194345961Y-268862121D02*
X194592731Y-268804858D01*
X99253266Y-81926509D02*
X99381778Y-82144820D01*
X98650653Y-141505841D02*
X98682658Y-141757138D01*
X163625000Y-207476235D02*
X163625000Y-209500000D01*
X100001036Y-328944834D02*
X100180165Y-329123963D01*
X166625000Y-145975047D02*
X193339466Y-145964465D01*
X98625000Y-79500000D02*
X98631417Y-79753245D01*
X96625000Y-177250000D02*
X96625000Y-118750000D01*
X195311250Y-207059264D02*
X195541442Y-206953498D01*
X100368137Y-212706209D02*
X100180165Y-212876036D01*
X198281812Y-326221606D02*
X198313815Y-325970308D01*
X198237121Y-141970961D02*
X198281812Y-141721606D01*
X194345961Y-84362121D02*
X194592731Y-84304858D01*
X100980179Y-27756778D02*
X100768658Y-27896182D01*
X194132138Y-273057658D02*
X193880841Y-273025653D01*
X130375000Y-209500000D02*
X130375000Y-211500000D01*
X99671121Y-82560529D02*
X99831209Y-82756862D01*
X197582697Y-328109293D02*
X197711209Y-327890982D01*
X98625000Y-303250000D02*
X98625000Y-325500000D01*
X102618507Y-273102350D02*
X102371737Y-273159614D01*
X196596337Y-267758266D02*
X196784310Y-267588440D01*
X163625000Y-25000000D02*
X163625000Y-27000000D01*
X198145696Y-92003184D02*
X198063760Y-91763473D01*
X163625000Y-86500000D02*
X163625000Y-88500000D01*
X98625000Y-54250000D02*
X96625000Y-54250000D01*
X101198490Y-89128266D02*
X100980179Y-89256778D01*
X98650653Y-277494158D02*
X98631417Y-277746754D01*
X99381778Y-152355179D02*
X99253266Y-152573490D01*
X196596337Y-206258266D02*
X196784310Y-206088440D01*
X130375000Y-211500000D02*
X103625000Y-211500000D01*
X98625000Y-278000000D02*
X98625000Y-300250000D01*
X197746733Y-152573490D02*
X197618221Y-152355179D01*
X99671121Y-213439470D02*
X99521182Y-213643658D01*
X99135977Y-214298029D02*
X99030210Y-214528220D01*
X166625000Y-211500000D02*
X166625000Y-209500000D01*
X197582697Y-266609293D02*
X197711209Y-266390982D01*
X91625000Y-337500000D02*
X91625000Y-337500000D01*
X198356096Y-180250000D02*
X200375000Y-180250000D01*
X197828498Y-327666442D02*
X197934264Y-327436250D01*
X101423029Y-329989022D02*
X101653220Y-330094789D01*
X198110170Y-80961285D02*
X198179858Y-80717731D01*
X102128184Y-84270696D02*
X102371737Y-84340385D01*
X100180165Y-83123963D02*
X100368137Y-83293790D01*
X198215385Y-92246737D02*
X198145696Y-92003184D01*
X197618221Y-275355179D02*
X197478817Y-275143658D01*
X102128184Y-273229303D02*
X101888473Y-273311239D01*
X197934264Y-81436250D02*
X198028235Y-81200996D01*
X194836285Y-330235170D02*
X195075996Y-330153235D01*
X195576970Y-89010977D02*
X195346779Y-88905210D01*
X195765982Y-145336209D02*
X195984293Y-145207697D01*
X193880841Y-88525653D02*
X193628245Y-88506417D01*
X102867861Y-268942341D02*
X103119158Y-268974346D01*
X100768658Y-83603817D02*
X100980179Y-83743221D01*
X197582697Y-82109293D02*
X197711209Y-81890982D01*
X98854303Y-326996815D02*
X98936239Y-327236526D01*
X102371737Y-330340385D02*
X102618507Y-330397649D01*
X98727350Y-215493507D02*
X98682658Y-215742861D01*
X193339466Y-145964465D02*
X193592712Y-145958050D01*
X133375000Y-207488216D02*
X133375000Y-207488216D01*
X100564470Y-83453878D02*
X100768658Y-83603817D01*
X166625000Y-148000000D02*
X166625000Y-145975047D01*
X197478817Y-90643658D02*
X197328878Y-90439470D01*
X99253266Y-266426509D02*
X99381778Y-266644820D01*
X101653220Y-84094789D02*
X101888473Y-84188760D01*
X101888473Y-150311239D02*
X101653220Y-150405210D01*
X99381778Y-29355179D02*
X99253266Y-29573490D01*
X198317341Y-277242861D02*
X198272649Y-276993507D01*
X166625000Y-84475047D02*
X193339466Y-84464465D01*
X195346779Y-27405210D02*
X195111526Y-27311239D01*
X98854303Y-80996815D02*
X98936239Y-81236526D01*
X193339466Y-84464465D02*
X193592712Y-84458050D01*
X197969789Y-276028220D02*
X197864022Y-275798029D01*
X99521182Y-152143658D02*
X99381778Y-152355179D01*
X98682658Y-141757138D02*
X98727350Y-142006492D01*
X194381492Y-211602350D02*
X194132138Y-211557658D01*
X98625000Y-325500000D02*
X98631417Y-325753245D01*
X198368582Y-277746754D02*
X198349346Y-277494158D01*
X194592731Y-145804858D02*
X194836285Y-145735170D01*
X195801509Y-27628266D02*
X195576970Y-27510977D01*
X196019820Y-212256778D02*
X195801509Y-212128266D01*
X99030210Y-214528220D02*
X98936239Y-214763473D01*
X200375000Y-177250000D02*
X198358342Y-177250000D01*
X198358342Y-300250000D02*
X198358342Y-300250000D01*
X98625000Y-177250000D02*
X96625000Y-177250000D01*
X197864022Y-275798029D02*
X197746733Y-275573490D01*
X196963440Y-328909310D02*
X197133266Y-328721337D01*
X200375000Y-180250000D02*
X200375000Y-238750000D01*
X133375000Y-273000000D02*
X133375000Y-271000000D01*
X103625000Y-84500000D02*
X130375000Y-84489404D01*
X100001036Y-82944834D02*
X100180165Y-83123963D01*
X194592731Y-207304858D02*
X194836285Y-207235170D01*
X130375000Y-271000000D02*
X130375000Y-273000000D01*
X197828498Y-204666442D02*
X197934264Y-204436250D01*
X163625000Y-332500000D02*
X133375000Y-332500000D01*
X91625000Y-20000000D02*
X91625000Y-337500000D01*
X98631417Y-154746754D02*
X98625000Y-155000000D01*
X99831209Y-151743137D02*
X99671121Y-151939470D01*
X98784614Y-326753262D02*
X98854303Y-326996815D01*
X200375000Y-115750000D02*
X198358342Y-115750000D01*
X196819834Y-151376036D02*
X196631862Y-151206209D01*
X198313815Y-79970308D02*
X198333050Y-79717712D01*
X100368137Y-89706209D02*
X100180165Y-89876036D01*
X102618507Y-27102350D02*
X102371737Y-27159614D01*
X98682658Y-80257138D02*
X98727350Y-80506492D01*
X195984293Y-329707697D02*
X196195815Y-329568293D01*
X100001036Y-267444834D02*
X100180165Y-267623963D01*
X166625000Y-330475047D02*
X166625000Y-330475047D01*
X99381778Y-205144820D02*
X99521182Y-205356341D01*
X198063760Y-30263473D02*
X197969789Y-30028220D01*
X197711209Y-143390982D02*
X197828498Y-143166442D01*
X99135977Y-143201970D02*
X99253266Y-143426509D01*
X196819834Y-28376036D02*
X196631862Y-28206209D01*
X196631862Y-28206209D02*
X196435529Y-28046121D01*
X198179858Y-265217731D02*
X198237121Y-264970961D01*
X98625000Y-241750000D02*
X98625000Y-264000000D01*
X197478817Y-275143658D02*
X197328878Y-274939470D01*
X198339466Y-325464466D02*
X198356096Y-303250000D01*
X103625000Y-211500000D02*
X103371754Y-211506417D01*
X196998963Y-274555165D02*
X196819834Y-274376036D01*
X194836285Y-268735170D02*
X195075996Y-268653235D01*
X197746733Y-91073490D02*
X197618221Y-90855179D01*
X195984293Y-206707697D02*
X196195815Y-206568293D01*
X100368137Y-151206209D02*
X100180165Y-151376036D01*
X197168790Y-90243137D02*
X196998963Y-90055165D01*
X101198490Y-212128266D02*
X100980179Y-212256778D01*
X163625000Y-330476235D02*
X163625000Y-332500000D01*
X195541442Y-268453498D02*
X195765982Y-268336209D01*
X98625000Y-115750000D02*
X96625000Y-115750000D01*
X196963440Y-144409310D02*
X197133266Y-144221337D01*
X197293355Y-144025004D02*
X197443293Y-143820815D01*
X197168790Y-28743137D02*
X196998963Y-28555165D01*
X133375000Y-148000000D02*
X133375000Y-148000000D01*
X98854303Y-142496815D02*
X98936239Y-142736526D01*
X198349346Y-277494158D02*
X198317341Y-277242861D01*
X102867861Y-84442341D02*
X103119158Y-84474346D01*
X98936239Y-153263473D02*
X98854303Y-153503184D01*
X99671121Y-267060529D02*
X99831209Y-267256862D01*
X197443293Y-143820815D02*
X197582697Y-143609293D01*
X198368582Y-31746754D02*
X198349346Y-31494158D01*
X197443293Y-82320815D02*
X197582697Y-82109293D01*
X194871815Y-273229303D02*
X194628262Y-273159614D01*
X100180165Y-89876036D02*
X100001036Y-90055165D01*
X195075996Y-145653235D02*
X195311250Y-145559264D01*
X101423029Y-150510977D02*
X101198490Y-150628266D01*
X100180165Y-28376036D02*
X100001036Y-28555165D01*
X99831209Y-90243137D02*
X99671121Y-90439470D01*
X197133266Y-82721337D02*
X197293355Y-82525004D01*
X98784614Y-92246737D02*
X98727350Y-92493507D01*
X163625000Y-211500000D02*
X133375000Y-211500000D01*
X98682658Y-92742861D02*
X98650653Y-92994158D01*
X194132138Y-88557658D02*
X193880841Y-88525653D01*
X101423029Y-89010977D02*
X101198490Y-89128266D01*
X197934264Y-142936250D02*
X198028235Y-142700996D01*
X102371737Y-207340385D02*
X102618507Y-207397649D01*
X163625000Y-27000000D02*
X133375000Y-27000000D01*
X101198490Y-145371733D02*
X101423029Y-145489022D01*
X98625000Y-141000000D02*
X98631417Y-141253245D01*
X194132138Y-150057658D02*
X193880841Y-150025653D01*
X98727350Y-276993507D02*
X98682658Y-277242861D01*
X100980179Y-268243221D02*
X101198490Y-268371733D01*
X197293355Y-328525004D02*
X197443293Y-328320815D01*
X198272649Y-153993507D02*
X198215385Y-153746737D01*
X197328878Y-213439470D02*
X197168790Y-213243137D01*
X198237121Y-80470961D02*
X198281812Y-80221606D01*
X99030210Y-204471779D02*
X99135977Y-204701970D01*
X196195815Y-145068293D02*
X196400004Y-144918355D01*
X99253266Y-143426509D02*
X99381778Y-143644820D01*
X98936239Y-214763473D02*
X98854303Y-215003184D01*
X195541442Y-206953498D02*
X195765982Y-206836209D01*
X103371754Y-150006417D02*
X103119158Y-150025653D01*
X99030210Y-276028220D02*
X98936239Y-276263473D01*
X100368137Y-206293790D02*
X100564470Y-206453878D01*
X163625000Y-27000000D02*
X163625000Y-27000000D01*
X196400004Y-144918355D02*
X196596337Y-144758266D01*
X102128184Y-330270696D02*
X102371737Y-330340385D01*
X98625000Y-118750000D02*
X98625000Y-141000000D01*
X99253266Y-275573490D02*
X99135977Y-275798029D01*
X166625000Y-150000000D02*
X166625000Y-148000000D01*
X198356096Y-303250000D02*
X200375000Y-303250000D01*
X98631417Y-325753245D02*
X98650653Y-326005841D01*
X133375000Y-268988216D02*
X133375000Y-268988216D01*
X102867861Y-88557658D02*
X102618507Y-88602350D01*
X197293355Y-82525004D02*
X197443293Y-82320815D01*
X96625000Y-25000000D02*
X130375000Y-25000000D01*
X198272649Y-92493507D02*
X198215385Y-92246737D01*
X198358342Y-177250000D02*
X198358342Y-177250000D01*
X99521182Y-143856341D02*
X99671121Y-144060529D01*
X198313815Y-141470308D02*
X198333050Y-141217712D01*
X196998963Y-151555165D02*
X196819834Y-151376036D01*
X197168790Y-213243137D02*
X196998963Y-213055165D01*
X98854303Y-265496815D02*
X98936239Y-265736526D01*
X98625000Y-303250000D02*
X98625000Y-303250000D01*
X196195815Y-268068293D02*
X196400004Y-267918355D01*
X205375000Y-20000000D02*
X91625000Y-20000000D01*
X98936239Y-327236526D02*
X99030210Y-327471779D01*
X193592712Y-84458050D02*
X193845308Y-84438815D01*
X100180165Y-144623963D02*
X100368137Y-144793790D01*
X101653220Y-211905210D02*
X101423029Y-212010977D01*
X193592712Y-145958050D02*
X193845308Y-145938815D01*
X98625000Y-180250000D02*
X98625000Y-180250000D01*
X197328878Y-90439470D02*
X197168790Y-90243137D01*
X196435529Y-89546121D02*
X196231341Y-89396182D01*
X130375000Y-332500000D02*
X96625000Y-332500000D01*
X103371754Y-84493582D02*
X103625000Y-84500000D01*
X196195815Y-83568293D02*
X196400004Y-83418355D01*
X198281812Y-264721606D02*
X198313815Y-264470308D01*
X198375000Y-278000000D02*
X198368582Y-277746754D01*
X198317341Y-215742861D02*
X198272649Y-215493507D01*
X200375000Y-300250000D02*
X198358342Y-300250000D01*
X166625000Y-27000000D02*
X166625000Y-25000000D01*
X98784614Y-30746737D02*
X98727350Y-30993507D01*
X102128184Y-211729303D02*
X101888473Y-211811239D01*
X133375000Y-145988216D02*
X163625000Y-145976235D01*
X196019820Y-27756778D02*
X195801509Y-27628266D01*
X102618507Y-150102350D02*
X102371737Y-150159614D01*
X198179858Y-142217731D02*
X198237121Y-141970961D01*
X195984293Y-268207697D02*
X196195815Y-268068293D01*
X196998963Y-90055165D02*
X196819834Y-89876036D01*
X193628245Y-273006417D02*
X193375000Y-273000000D01*
X194628262Y-150159614D02*
X194381492Y-150102350D01*
X99135977Y-275798029D02*
X99030210Y-276028220D01*
X195801509Y-150628266D02*
X195576970Y-150510977D01*
X101888473Y-88811239D02*
X101653220Y-88905210D01*
X198358342Y-115750000D02*
X198358342Y-115750000D01*
X102618507Y-268897649D02*
X102867861Y-268942341D01*
X195765982Y-83836209D02*
X195984293Y-83707697D01*
X194592731Y-330304858D02*
X194836285Y-330235170D01*
X133375000Y-86500000D02*
X133375000Y-84488216D01*
X195801509Y-273628266D02*
X195576970Y-273510977D01*
X99381778Y-82144820D02*
X99521182Y-82356341D01*
X198349346Y-215994158D02*
X198317341Y-215742861D01*
X193592712Y-330458050D02*
X193845308Y-330438815D01*
X198368582Y-93246754D02*
X198349346Y-92994158D01*
X98625000Y-202500000D02*
X98631417Y-202753245D01*
X198215385Y-276746737D02*
X198145696Y-276503184D01*
X197864022Y-152798029D02*
X197746733Y-152573490D01*
X196019820Y-89256778D02*
X195801509Y-89128266D01*
X103119158Y-211525653D02*
X102867861Y-211557658D01*
X98727350Y-265006492D02*
X98784614Y-265253262D01*
X98625000Y-32000000D02*
X98625000Y-54250000D01*
X100368137Y-83293790D02*
X100564470Y-83453878D01*
X102128184Y-88729303D02*
X101888473Y-88811239D01*
X197864022Y-29798029D02*
X197746733Y-29573490D01*
X198349346Y-154494158D02*
X198317341Y-154242861D01*
X193845308Y-268938815D02*
X194096606Y-268906812D01*
X101888473Y-207188760D02*
X102128184Y-207270696D01*
X100980179Y-273756778D02*
X100768658Y-273896182D01*
X195984293Y-145207697D02*
X196195815Y-145068293D01*
X98727350Y-153993507D02*
X98682658Y-154242861D01*
X100001036Y-28555165D02*
X99831209Y-28743137D01*
X99253266Y-91073490D02*
X99135977Y-91298029D01*
X96625000Y-54250000D02*
X96625000Y-25000000D01*
X103371754Y-273006417D02*
X103119158Y-273025653D01*
X197328878Y-151939470D02*
X197168790Y-151743137D01*
X198281812Y-141721606D02*
X198313815Y-141470308D01*
X98650653Y-92994158D02*
X98631417Y-93246754D01*
X102867861Y-273057658D02*
X102618507Y-273102350D01*
X101198490Y-329871733D02*
X101423029Y-329989022D01*
X99831209Y-267256862D02*
X100001036Y-267444834D01*
X100768658Y-206603817D02*
X100980179Y-206743221D01*
X99030210Y-265971779D02*
X99135977Y-266201970D01*
X98631417Y-93246754D02*
X98625000Y-93500000D01*
X98625000Y-238750000D02*
X96625000Y-238750000D01*
X103371754Y-268993582D02*
X103625000Y-269000000D01*
X197168790Y-151743137D02*
X196998963Y-151555165D01*
X197443293Y-266820815D02*
X197582697Y-266609293D01*
X197293355Y-205525004D02*
X197443293Y-205320815D01*
X198281812Y-203221606D02*
X198313815Y-202970308D01*
X196231341Y-273896182D02*
X196019820Y-273756778D01*
X194381492Y-88602350D02*
X194132138Y-88557658D01*
X198028235Y-142700996D02*
X198110170Y-142461285D01*
X197618221Y-29355179D02*
X197478817Y-29143658D01*
X100564470Y-89546121D02*
X100368137Y-89706209D01*
X100768658Y-273896182D02*
X100564470Y-274046121D01*
X99521182Y-266856341D02*
X99671121Y-267060529D01*
X166625000Y-25000000D02*
X200375000Y-25000000D01*
X102618507Y-145897649D02*
X102867861Y-145942341D01*
X195801509Y-212128266D02*
X195576970Y-212010977D01*
X98625000Y-241750000D02*
X98625000Y-241750000D01*
X195541442Y-329953498D02*
X195765982Y-329836209D01*
X194096606Y-330406812D02*
X194345961Y-330362121D01*
X102128184Y-145770696D02*
X102371737Y-145840385D01*
X163625000Y-148000000D02*
X163625000Y-150000000D01*
X198215385Y-215246737D02*
X198145696Y-215003184D01*
X98625000Y-57250000D02*
X98625000Y-57250000D01*
X100564470Y-151046121D02*
X100368137Y-151206209D01*
X196998963Y-213055165D02*
X196819834Y-212876036D01*
X198349346Y-31494158D02*
X198317341Y-31242861D01*
X99253266Y-214073490D02*
X99135977Y-214298029D01*
X98784614Y-153746737D02*
X98727350Y-153993507D01*
X101653220Y-145594789D02*
X101888473Y-145688760D01*
X99135977Y-327701970D02*
X99253266Y-327926509D01*
X195541442Y-145453498D02*
X195765982Y-145336209D01*
X195765982Y-268336209D02*
X195984293Y-268207697D01*
X100980179Y-145243221D02*
X101198490Y-145371733D01*
X196019820Y-150756778D02*
X195801509Y-150628266D01*
X96625000Y-241750000D02*
X98625000Y-241750000D01*
X99521182Y-275143658D02*
X99381778Y-275355179D01*
X100001036Y-90055165D02*
X99831209Y-90243137D01*
X197618221Y-213855179D02*
X197478817Y-213643658D01*
X197746733Y-214073490D02*
X197618221Y-213855179D01*
X130375000Y-330489404D02*
X130375000Y-332500000D01*
X163625000Y-84476235D02*
X163625000Y-86500000D01*
X196231341Y-212396182D02*
X196019820Y-212256778D01*
X193375000Y-211500000D02*
X166625000Y-211500000D01*
X196819834Y-212876036D02*
X196631862Y-212706209D01*
X103119158Y-84474346D02*
X103371754Y-84493582D01*
X194628262Y-273159614D02*
X194381492Y-273102350D01*
X101653220Y-27405210D02*
X101423029Y-27510977D01*
X196784310Y-329088440D02*
X196963440Y-328909310D01*
X197582697Y-205109293D02*
X197711209Y-204890982D01*
X193628245Y-211506417D02*
X193375000Y-211500000D01*
X196784310Y-144588440D02*
X196963440Y-144409310D01*
X99253266Y-327926509D02*
X99381778Y-328144820D01*
X198179858Y-203717731D02*
X198237121Y-203470961D01*
X103625000Y-273000000D02*
X103371754Y-273006417D01*
X98936239Y-91763473D02*
X98854303Y-92003184D01*
X99381778Y-275355179D02*
X99253266Y-275573490D01*
X197934264Y-265936250D02*
X198028235Y-265700996D01*
X198339466Y-202464466D02*
X198356096Y-180250000D01*
X130375000Y-150000000D02*
X103625000Y-150000000D01*
X197969789Y-214528220D02*
X197864022Y-214298029D01*
X99521182Y-328356341D02*
X99671121Y-328560529D01*
X99831209Y-328756862D02*
X100001036Y-328944834D01*
X99030210Y-30028220D02*
X98936239Y-30263473D01*
X99381778Y-266644820D02*
X99521182Y-266856341D01*
X98631417Y-141253245D02*
X98650653Y-141505841D01*
X99030210Y-91528220D02*
X98936239Y-91763473D01*
X194345961Y-145862121D02*
X194592731Y-145804858D01*
X101888473Y-27311239D02*
X101653220Y-27405210D01*
X197711209Y-266390982D02*
X197828498Y-266166442D01*
X194345961Y-207362121D02*
X194592731Y-207304858D01*
X101423029Y-83989022D02*
X101653220Y-84094789D01*
X198339466Y-140964466D02*
X198356096Y-118750000D01*
X166625000Y-268975047D02*
X193339466Y-268964465D01*
X100768658Y-212396182D02*
X100564470Y-212546121D01*
X100001036Y-213055165D02*
X99831209Y-213243137D01*
X195541442Y-83953498D02*
X195765982Y-83836209D01*
X197969789Y-153028220D02*
X197864022Y-152798029D01*
X99135977Y-152798029D02*
X99030210Y-153028220D01*
X103625000Y-150000000D02*
X103371754Y-150006417D01*
X99521182Y-213643658D02*
X99381778Y-213855179D01*
X197618221Y-90855179D02*
X197478817Y-90643658D01*
X198237121Y-203470961D02*
X198281812Y-203221606D01*
X198375000Y-93500000D02*
X198368582Y-93246754D01*
X133375000Y-209500000D02*
X133375000Y-207488216D01*
X196231341Y-89396182D02*
X196019820Y-89256778D01*
X99831209Y-274743137D02*
X99671121Y-274939470D01*
X194871815Y-150229303D02*
X194628262Y-150159614D01*
X133375000Y-271000000D02*
X133375000Y-268988216D01*
X91625000Y-337500000D02*
X205375000Y-337500000D01*
X98631417Y-216246754D02*
X98625000Y-216500000D01*
X198358342Y-300250000D02*
X198375000Y-278000000D01*
X100180165Y-206123963D02*
X100368137Y-206293790D01*
X198358342Y-238750000D02*
X198358342Y-238750000D01*
X197746733Y-29573490D02*
X197618221Y-29355179D01*
X198313815Y-202970308D02*
X198333050Y-202717712D01*
X98625000Y-300250000D02*
X96625000Y-300250000D01*
X195346779Y-211905210D02*
X195111526Y-211811239D01*
X198349346Y-92994158D02*
X198317341Y-92742861D01*
X133375000Y-150000000D02*
X133375000Y-148000000D01*
X195765982Y-329836209D02*
X195984293Y-329707697D01*
X102128184Y-27229303D02*
X101888473Y-27311239D01*
X98650653Y-154494158D02*
X98631417Y-154746754D01*
X195075996Y-330153235D02*
X195311250Y-330059264D01*
X196819834Y-89876036D02*
X196631862Y-89706209D01*
X102371737Y-84340385D02*
X102618507Y-84397649D01*
X100980179Y-89256778D02*
X100768658Y-89396182D01*
X102371737Y-27159614D02*
X102128184Y-27229303D01*
X101198490Y-150628266D02*
X100980179Y-150756778D01*
X197133266Y-144221337D02*
X197293355Y-144025004D01*
X196998963Y-28555165D02*
X196819834Y-28376036D01*
X98784614Y-265253262D02*
X98854303Y-265496815D01*
X99831209Y-144256862D02*
X100001036Y-144444834D01*
X198063760Y-214763473D02*
X197969789Y-214528220D01*
X196400004Y-83418355D02*
X196596337Y-83258266D01*
X99030210Y-81471779D02*
X99135977Y-81701970D01*
X99671121Y-144060529D02*
X99831209Y-144256862D01*
X102371737Y-211659614D02*
X102128184Y-211729303D01*
X196195815Y-206568293D02*
X196400004Y-206418355D01*
X194381492Y-273102350D02*
X194132138Y-273057658D01*
X103119158Y-268974346D02*
X103371754Y-268993582D01*
X194836285Y-145735170D02*
X195075996Y-145653235D01*
X193845308Y-145938815D02*
X194096606Y-145906812D01*
X102371737Y-268840385D02*
X102618507Y-268897649D01*
X98854303Y-92003184D02*
X98784614Y-92246737D01*
X100564470Y-274046121D02*
X100368137Y-274206209D01*
X102618507Y-88602350D02*
X102371737Y-88659614D01*
X133375000Y-332500000D02*
X133375000Y-330488216D01*
X198356096Y-241750000D02*
X200375000Y-241750000D01*
X101653220Y-330094789D02*
X101888473Y-330188760D01*
X102867861Y-211557658D02*
X102618507Y-211602350D01*
X100980179Y-212256778D02*
X100768658Y-212396182D01*
X194592731Y-268804858D02*
X194836285Y-268735170D01*
X196231341Y-27896182D02*
X196019820Y-27756778D01*
X194871815Y-88729303D02*
X194628262Y-88659614D01*
X197443293Y-205320815D02*
X197582697Y-205109293D01*
X100564470Y-144953878D02*
X100768658Y-145103817D01*
X98625000Y-216500000D02*
X98625000Y-238750000D01*
X98625000Y-57250000D02*
X98625000Y-79500000D01*
X99671121Y-151939470D02*
X99521182Y-152143658D01*
X195765982Y-206836209D02*
X195984293Y-206707697D01*
X166625000Y-332500000D02*
X166625000Y-330475047D01*
X96625000Y-303250000D02*
X98625000Y-303250000D01*
X98936239Y-81236526D02*
X99030210Y-81471779D01*
X163625000Y-145976235D02*
X163625000Y-148000000D01*
X100368137Y-267793790D02*
X100564470Y-267953878D01*
X198313815Y-264470308D02*
X198333050Y-264217712D01*
X101653220Y-88905210D02*
X101423029Y-89010977D01*
X103371754Y-211506417D02*
X103119158Y-211525653D01*
X198358342Y-54250000D02*
X198358342Y-54250000D01*
X100564470Y-206453878D02*
X100768658Y-206603817D01*
X163625000Y-150000000D02*
X133375000Y-150000000D01*
X99135977Y-266201970D02*
X99253266Y-266426509D01*
X163625000Y-209500000D02*
X163625000Y-211500000D01*
X198281812Y-80221606D02*
X198313815Y-79970308D01*
X130375000Y-148000000D02*
X130375000Y-150000000D01*
X196784310Y-267588440D02*
X196963440Y-267409310D01*
X197133266Y-328721337D02*
X197293355Y-328525004D01*
X198333050Y-141217712D02*
X198339466Y-140964466D01*
X193880841Y-273025653D02*
X193628245Y-273006417D01*
X98854303Y-276503184D02*
X98784614Y-276746737D01*
X103371754Y-145993582D02*
X103625000Y-146000000D01*
X102128184Y-207270696D02*
X102371737Y-207340385D01*
X99521182Y-90643658D02*
X99381778Y-90855179D01*
X98650653Y-31494158D02*
X98631417Y-31746754D01*
X99135977Y-81701970D02*
X99253266Y-81926509D01*
X198313815Y-325970308D02*
X198333050Y-325717712D01*
X98625000Y-155000000D02*
X98625000Y-177250000D01*
X198317341Y-31242861D02*
X198272649Y-30993507D01*
X198333050Y-202717712D02*
X198339466Y-202464466D01*
X133375000Y-27000000D02*
X133375000Y-25000000D01*
X103625000Y-146000000D02*
X130375000Y-145989404D01*
X205375000Y-337500000D02*
X205375000Y-20000000D01*
X163625000Y-268976235D02*
X163625000Y-271000000D01*
X100980179Y-83743221D02*
X101198490Y-83871733D01*
X195346779Y-150405210D02*
X195111526Y-150311239D01*
X100768658Y-89396182D02*
X100564470Y-89546121D01*
X194096606Y-84406812D02*
X194345961Y-84362121D01*
X100180165Y-151376036D02*
X100001036Y-151555165D01*
X197478817Y-213643658D02*
X197328878Y-213439470D01*
X98682658Y-154242861D02*
X98650653Y-154494158D01*
X102867861Y-207442341D02*
X103119158Y-207474346D01*
X166625000Y-273000000D02*
X166625000Y-271000000D01*
X198063760Y-153263473D02*
X197969789Y-153028220D01*
X197828498Y-266166442D02*
X197934264Y-265936250D01*
X102867861Y-150057658D02*
X102618507Y-150102350D01*
X198215385Y-153746737D02*
X198145696Y-153503184D01*
X100768658Y-150896182D02*
X100564470Y-151046121D01*
X197133266Y-205721337D02*
X197293355Y-205525004D01*
X96625000Y-115750000D02*
X96625000Y-57250000D01*
X99671121Y-90439470D02*
X99521182Y-90643658D01*
X195346779Y-88905210D02*
X195111526Y-88811239D01*
X198028235Y-327200996D02*
X198110170Y-326961285D01*
X99135977Y-204701970D02*
X99253266Y-204926509D01*
X195311250Y-268559264D02*
X195541442Y-268453498D01*
X196596337Y-83258266D02*
X196784310Y-83088440D01*
X196400004Y-206418355D02*
X196596337Y-206258266D01*
X197969789Y-91528220D02*
X197864022Y-91298029D01*
X102867861Y-330442341D02*
X103119158Y-330474346D01*
X103625000Y-207500000D02*
X130375000Y-207489404D01*
X200375000Y-54250000D02*
X198358342Y-54250000D01*
X166625000Y-209500000D02*
X166625000Y-207475047D01*
X198333050Y-79717712D02*
X198339466Y-79464466D01*
X198145696Y-276503184D02*
X198063760Y-276263473D01*
X100001036Y-205944834D02*
X100180165Y-206123963D01*
X102128184Y-268770696D02*
X102371737Y-268840385D01*
X133375000Y-330488216D02*
X163625000Y-330476235D01*
X197478817Y-29143658D02*
X197328878Y-28939470D01*
X100564470Y-212546121D02*
X100368137Y-212706209D01*
X99030210Y-327471779D02*
X99135977Y-327701970D01*
X130375000Y-27000000D02*
X103625000Y-27000000D01*
X195311250Y-84059264D02*
X195541442Y-83953498D01*
X101653220Y-150405210D02*
X101423029Y-150510977D01*
X101888473Y-268688760D02*
X102128184Y-268770696D01*
X198358342Y-238750000D02*
X198375000Y-216500000D01*
X193628245Y-27006417D02*
X193375000Y-27000000D01*
X133375000Y-25000000D02*
X163625000Y-25000000D01*
X197133266Y-267221337D02*
X197293355Y-267025004D01*
X200375000Y-241750000D02*
X200375000Y-300250000D01*
X196195815Y-329568293D02*
X196400004Y-329418355D01*
X198317341Y-154242861D02*
X198272649Y-153993507D01*
X133375000Y-88500000D02*
X133375000Y-86500000D01*
X193375000Y-273000000D02*
X166625000Y-273000000D01*
X103119158Y-145974346D02*
X103371754Y-145993582D01*
X99831209Y-213243137D02*
X99671121Y-213439470D01*
X103371754Y-330493582D02*
X103625000Y-330500000D01*
X195075996Y-207153235D02*
X195311250Y-207059264D01*
X98936239Y-30263473D02*
X98854303Y-30503184D01*
X163625000Y-88500000D02*
X133375000Y-88500000D01*
X198179858Y-80717731D02*
X198237121Y-80470961D01*
X98727350Y-80506492D02*
X98784614Y-80753262D01*
X101653220Y-268594789D02*
X101888473Y-268688760D01*
X195576970Y-150510977D02*
X195346779Y-150405210D01*
X198358342Y-177250000D02*
X198375000Y-155000000D01*
X195801509Y-89128266D02*
X195576970Y-89010977D01*
X98650653Y-264505841D02*
X98682658Y-264757138D01*
X193592712Y-207458050D02*
X193845308Y-207438815D01*
X130375000Y-207489404D02*
X130375000Y-209500000D01*
X195075996Y-84153235D02*
X195311250Y-84059264D01*
X100564470Y-28046121D02*
X100368137Y-28206209D01*
X100768658Y-268103817D02*
X100980179Y-268243221D01*
X198145696Y-153503184D02*
X198063760Y-153263473D01*
X194836285Y-84235170D02*
X195075996Y-84153235D01*
X196435529Y-212546121D02*
X196231341Y-212396182D01*
X101888473Y-84188760D02*
X102128184Y-84270696D01*
X96625000Y-300250000D02*
X96625000Y-241750000D01*
X102618507Y-211602350D02*
X102371737Y-211659614D01*
X133375000Y-148000000D02*
X133375000Y-145988216D01*
X103119158Y-207474346D02*
X103371754Y-207493582D01*
X196596337Y-329258266D02*
X196784310Y-329088440D01*
X98727350Y-142006492D02*
X98784614Y-142253262D01*
X197864022Y-214298029D02*
X197746733Y-214073490D01*
X200375000Y-303250000D02*
X200375000Y-332500000D01*
X196435529Y-151046121D02*
X196231341Y-150896182D01*
X194628262Y-27159614D02*
X194381492Y-27102350D01*
X194871815Y-211729303D02*
X194628262Y-211659614D01*
X193375000Y-27000000D02*
X166625000Y-27000000D01*
X197328878Y-274939470D02*
X197168790Y-274743137D01*
X197443293Y-328320815D02*
X197582697Y-328109293D01*
X98936239Y-265736526D02*
X99030210Y-265971779D01*
X197711209Y-81890982D02*
X197828498Y-81666442D01*
X197168790Y-274743137D02*
X196998963Y-274555165D01*
X198339466Y-263964466D02*
X198356096Y-241750000D01*
X98682658Y-264757138D02*
X98727350Y-265006492D01*
X198215385Y-30746737D02*
X198145696Y-30503184D01*
X193845308Y-330438815D02*
X194096606Y-330406812D01*
X193339466Y-207464465D02*
X193592712Y-207458050D01*
X198333050Y-325717712D02*
X198339466Y-325464466D01*
X197582697Y-143609293D02*
X197711209Y-143390982D01*
X197864022Y-91298029D02*
X197746733Y-91073490D01*
X101423029Y-273510977D02*
X101198490Y-273628266D01*
X133375000Y-86500000D02*
X133375000Y-86500000D01*
X198237121Y-264970961D02*
X198281812Y-264721606D01*
X101198490Y-27628266D02*
X100980179Y-27756778D01*
X99831209Y-82756862D02*
X100001036Y-82944834D01*
X193845308Y-207438815D02*
X194096606Y-207406812D01*
X195311250Y-330059264D02*
X195541442Y-329953498D01*
X96625000Y-238750000D02*
X96625000Y-180250000D01*
X99030210Y-153028220D02*
X98936239Y-153263473D01*
X98625000Y-180250000D02*
X98625000Y-202500000D01*
X101198490Y-268371733D02*
X101423029Y-268489022D01*
X99135977Y-29798029D02*
X99030210Y-30028220D01*
X101888473Y-273311239D02*
X101653220Y-273405210D01*
X98631417Y-264253245D02*
X98650653Y-264505841D01*
X100180165Y-267623963D02*
X100368137Y-267793790D01*
X193880841Y-27025653D02*
X193628245Y-27006417D01*
X100980179Y-329743221D02*
X101198490Y-329871733D01*
X103371754Y-27006417D02*
X103371754Y-27006417D01*
X98854303Y-30503184D02*
X98784614Y-30746737D01*
X196596337Y-144758266D02*
X196784310Y-144588440D01*
X196435529Y-28046121D02*
X196231341Y-27896182D01*
X101423029Y-212010977D02*
X101198490Y-212128266D01*
X198272649Y-276993507D02*
X198215385Y-276746737D01*
X99381778Y-90855179D02*
X99253266Y-91073490D01*
X98682658Y-277242861D02*
X98650653Y-277494158D01*
X96625000Y-180250000D02*
X98625000Y-180250000D01*
X98936239Y-204236526D02*
X99030210Y-204471779D01*
X193628245Y-150006417D02*
X193375000Y-150000000D01*
X98682658Y-326257138D02*
X98727350Y-326506492D01*
X197934264Y-327436250D02*
X198028235Y-327200996D01*
X200375000Y-238750000D02*
X198358342Y-238750000D01*
X98854303Y-153503184D02*
X98784614Y-153746737D01*
X99030210Y-142971779D02*
X99135977Y-143201970D01*
X166625000Y-271000000D02*
X166625000Y-268975047D01*
X102371737Y-145840385D02*
X102618507Y-145897649D01*
X198368582Y-216246754D02*
X198349346Y-215994158D01*
X200375000Y-57250000D02*
X200375000Y-115750000D01*
X198110170Y-203961285D02*
X198179858Y-203717731D01*
X100980179Y-150756778D02*
X100768658Y-150896182D01*
X98631417Y-202753245D02*
X98650653Y-203005841D01*
X101653220Y-207094789D02*
X101888473Y-207188760D01*
X98936239Y-142736526D02*
X99030210Y-142971779D01*
X130375000Y-88500000D02*
X103625000Y-88500000D01*
X99671121Y-274939470D02*
X99521182Y-275143658D01*
X195075996Y-268653235D02*
X195311250Y-268559264D01*
X101198490Y-273628266D02*
X100980179Y-273756778D01*
X193339466Y-268964465D02*
X193592712Y-268958050D01*
X198375000Y-155000000D02*
X198368582Y-154746754D01*
X99831209Y-205756862D02*
X100001036Y-205944834D01*
X102371737Y-273159614D02*
X102128184Y-273229303D01*
X198358342Y-54250000D02*
X198375000Y-32000000D01*
X130375000Y-84489404D02*
X130375000Y-86500000D01*
X194096606Y-268906812D02*
X194345961Y-268862121D01*
X193880841Y-150025653D02*
X193628245Y-150006417D01*
X101423029Y-27510977D02*
X101198490Y-27628266D01*
X103625000Y-27000000D02*
X103371754Y-27006417D01*
X194628262Y-211659614D02*
X194381492Y-211602350D01*
X197969789Y-30028220D02*
X197864022Y-29798029D01*
X197478817Y-152143658D02*
X197328878Y-151939470D01*
X198110170Y-142461285D02*
X198179858Y-142217731D01*
X194096606Y-207406812D02*
X194345961Y-207362121D01*
X198237121Y-326470961D02*
X198281812Y-326221606D01*
X101653220Y-273405210D02*
X101423029Y-273510977D01*
X98625000Y-93500000D02*
X98625000Y-115750000D01*
X133375000Y-268988216D02*
X163625000Y-268976235D01*
X163625000Y-273000000D02*
X133375000Y-273000000D01*
X98650653Y-203005841D02*
X98682658Y-203257138D01*
X200375000Y-118750000D02*
X200375000Y-177250000D01*
X103625000Y-330500000D02*
X130375000Y-330489404D01*
X197618221Y-152355179D02*
X197478817Y-152143658D01*
X133375000Y-207488216D02*
X163625000Y-207476235D01*
X197711209Y-327890982D02*
X197828498Y-327666442D01*
X99521182Y-82356341D02*
X99671121Y-82560529D01*
X130375000Y-273000000D02*
X103625000Y-273000000D01*
X102371737Y-88659614D02*
X102128184Y-88729303D01*
X197746733Y-275573490D02*
X197618221Y-275355179D01*
X96625000Y-57250000D02*
X98625000Y-57250000D01*
X100768658Y-329603817D02*
X100980179Y-329743221D01*
X198356096Y-118750000D02*
X200375000Y-118750000D01*
X99381778Y-143644820D02*
X99521182Y-143856341D01*
X197328878Y-28939470D02*
X197168790Y-28743137D01*
X98682658Y-31242861D02*
X98650653Y-31494158D01*
X98784614Y-80753262D02*
X98854303Y-80996815D01*
X103119158Y-150025653D02*
X102867861Y-150057658D01*
X101423029Y-268489022D02*
X101653220Y-268594789D01*
X193375000Y-150000000D02*
X166625000Y-150000000D01*
X103371754Y-88506417D02*
X103119158Y-88525653D01*
X194132138Y-27057658D02*
X193880841Y-27025653D01*
X198179858Y-326717731D02*
X198237121Y-326470961D01*
X100180165Y-212876036D02*
X100001036Y-213055165D01*
X198110170Y-265461285D02*
X198179858Y-265217731D01*
X194871815Y-27229303D02*
X194628262Y-27159614D01*
X198063760Y-276263473D02*
X197969789Y-276028220D01*
X196963440Y-267409310D02*
X197133266Y-267221337D01*
X196963440Y-82909310D02*
X197133266Y-82721337D01*
X196631862Y-89706209D02*
X196435529Y-89546121D01*
X133375000Y-330488216D02*
X133375000Y-330488216D01*
X98854303Y-203996815D02*
X98936239Y-204236526D01*
X99381778Y-328144820D02*
X99521182Y-328356341D01*
X101888473Y-211811239D02*
X101653220Y-211905210D01*
X98784614Y-276746737D02*
X98727350Y-276993507D01*
X99521182Y-29143658D02*
X99381778Y-29355179D01*
X100768658Y-145103817D02*
X100980179Y-145243221D01*
X103119158Y-330474346D02*
X103371754Y-330493582D01*
X99253266Y-29573490D02*
X99135977Y-29798029D01*
X130375000Y-86500000D02*
X130375000Y-88500000D01*
X198333050Y-264217712D02*
X198339466Y-263964466D01*
X196231341Y-150896182D02*
X196019820Y-150756778D01*
X101423029Y-145489022D02*
X101653220Y-145594789D01*
X98784614Y-203753262D02*
X98854303Y-203996815D01*
X98682658Y-215742861D02*
X98650653Y-215994158D01*
X100001036Y-151555165D02*
X99831209Y-151743137D01*
X100001036Y-274555165D02*
X99831209Y-274743137D01*
X98631417Y-79753245D02*
X98650653Y-80005841D01*
X103119158Y-88525653D02*
X102867861Y-88557658D01*
X102867861Y-27057658D02*
X102618507Y-27102350D01*
X198063760Y-91763473D02*
X197969789Y-91528220D01*
X196631862Y-274206209D02*
X196435529Y-274046121D01*
X196019820Y-273756778D02*
X195801509Y-273628266D01*
X102618507Y-330397649D02*
X102867861Y-330442341D01*
X198358342Y-115750000D02*
X198375000Y-93500000D01*
X102867861Y-145942341D02*
X103119158Y-145974346D01*
X198145696Y-215003184D02*
X198063760Y-214763473D01*
X101198490Y-206871733D02*
X101423029Y-206989022D01*
X98727350Y-30993507D02*
X98682658Y-31242861D01*
X195576970Y-212010977D02*
X195346779Y-211905210D01*
X130375000Y-268989404D02*
X130375000Y-271000000D01*
X100368137Y-274206209D02*
X100180165Y-274376036D01*
X194381492Y-150102350D02*
X194132138Y-150057658D01*
X195576970Y-27510977D02*
X195346779Y-27405210D01*
X103119158Y-27025653D02*
X102867861Y-27057658D01*
X193845308Y-84438815D02*
X194096606Y-84406812D01*
X100564470Y-267953878D02*
X100768658Y-268103817D01*
X163625000Y-271000000D02*
X163625000Y-273000000D01*
X200375000Y-332500000D02*
X166625000Y-332500000D01*
X96625000Y-332500000D02*
X96625000Y-303250000D01*
X195111526Y-211811239D02*
X194871815Y-211729303D01*
X100368137Y-329293790D02*
X100564470Y-329453878D01*
X193339466Y-330464465D02*
X193592712Y-330458050D01*
X98727350Y-203506492D02*
X98784614Y-203753262D01*
X101423029Y-206989022D02*
X101653220Y-207094789D01*
X197828498Y-81666442D02*
X197934264Y-81436250D01*
X195576970Y-273510977D02*
X195346779Y-273405210D01*
X98650653Y-326005841D02*
X98682658Y-326257138D01*
X103625000Y-88500000D02*
X103371754Y-88506417D01*
X193592712Y-268958050D02*
X193845308Y-268938815D01*
X98854303Y-215003184D02*
X98784614Y-215246737D01*
X101198490Y-83871733D02*
X101423029Y-83989022D01*
X198028235Y-81200996D02*
X198110170Y-80961285D01*
X194592731Y-84304858D02*
X194836285Y-84235170D01*
X198028235Y-265700996D02*
X198110170Y-265461285D01*
X102618507Y-84397649D02*
X102867861Y-84442341D01*
X198339466Y-79464466D02*
X198356096Y-57250000D01*
X98784614Y-142253262D02*
X98854303Y-142496815D01*
M02*
