%TF.GenerationSoftware,KiCad,Pcbnew,7.0.5*%
%TF.CreationDate,2023-06-14T21:03:38-05:00*%
%TF.ProjectId,MeetupKeebpanel,4d656574-7570-44b6-9565-6270616e656c,rev?*%
%TF.SameCoordinates,Original*%
%TF.FileFunction,Soldermask,Top*%
%TF.FilePolarity,Negative*%
%FSLAX46Y46*%
G04 Gerber Fmt 4.6, Leading zero omitted, Abs format (unit mm)*
G04 Created by KiCad (PCBNEW 7.0.5) date 2023-06-14 21:03:38*
%MOMM*%
%LPD*%
G01*
G04 APERTURE LIST*
G04 Aperture macros list*
%AMRoundRect*
0 Rectangle with rounded corners*
0 $1 Rounding radius*
0 $2 $3 $4 $5 $6 $7 $8 $9 X,Y pos of 4 corners*
0 Add a 4 corners polygon primitive as box body*
4,1,4,$2,$3,$4,$5,$6,$7,$8,$9,$2,$3,0*
0 Add four circle primitives for the rounded corners*
1,1,$1+$1,$2,$3*
1,1,$1+$1,$4,$5*
1,1,$1+$1,$6,$7*
1,1,$1+$1,$8,$9*
0 Add four rect primitives between the rounded corners*
20,1,$1+$1,$2,$3,$4,$5,0*
20,1,$1+$1,$4,$5,$6,$7,0*
20,1,$1+$1,$6,$7,$8,$9,0*
20,1,$1+$1,$8,$9,$2,$3,0*%
G04 Aperture macros list end*
%ADD10C,0.500000*%
%ADD11C,3.200000*%
%ADD12RoundRect,0.250000X-0.300000X-0.300000X0.300000X-0.300000X0.300000X0.300000X-0.300000X0.300000X0*%
%ADD13C,1.700000*%
%ADD14C,4.000000*%
%ADD15C,2.200000*%
%ADD16C,1.000000*%
%ADD17R,1.700000X1.700000*%
%ADD18O,1.700000X1.700000*%
%ADD19RoundRect,0.250000X0.250000X0.475000X-0.250000X0.475000X-0.250000X-0.475000X0.250000X-0.475000X0*%
%ADD20RoundRect,0.250000X-0.250000X-0.475000X0.250000X-0.475000X0.250000X0.475000X-0.250000X0.475000X0*%
%ADD21R,1.450000X0.800000*%
%ADD22C,0.750000*%
%ADD23R,0.900000X1.000000*%
%ADD24R,1.900000X3.000000*%
%ADD25O,1.550000X2.200000*%
%ADD26C,2.050000*%
%ADD27C,1.300000*%
%ADD28C,0.650000*%
%ADD29R,1.400000X0.250000*%
%ADD30O,2.100000X1.000000*%
%ADD31O,1.800000X1.000000*%
%ADD32RoundRect,0.250000X-0.262500X-0.450000X0.262500X-0.450000X0.262500X0.450000X-0.262500X0.450000X0*%
%ADD33RoundRect,0.150000X-0.512500X-0.150000X0.512500X-0.150000X0.512500X0.150000X-0.512500X0.150000X0*%
%ADD34R,0.500000X0.800000*%
%ADD35R,0.400000X0.800000*%
%ADD36R,2.000000X1.000000*%
%ADD37R,1.000000X2.000000*%
%ADD38R,1.000000X1.500000*%
%ADD39R,1.500000X1.000000*%
%ADD40C,0.900000*%
%ADD41R,0.900000X1.250000*%
%ADD42R,0.800000X0.900000*%
%ADD43RoundRect,0.150000X-0.587500X-0.150000X0.587500X-0.150000X0.587500X0.150000X-0.587500X0.150000X0*%
%ADD44RoundRect,0.250000X0.475000X-0.250000X0.475000X0.250000X-0.475000X0.250000X-0.475000X-0.250000X0*%
%ADD45RoundRect,0.250000X-0.475000X0.250000X-0.475000X-0.250000X0.475000X-0.250000X0.475000X0.250000X0*%
%ADD46R,6.000000X5.500000*%
%ADD47C,20.000000*%
%ADD48RoundRect,0.218750X-0.218750X-0.381250X0.218750X-0.381250X0.218750X0.381250X-0.218750X0.381250X0*%
G04 APERTURE END LIST*
D10*
%TO.C,REF\u002A\u002A*%
X198157968Y-54749851D03*
%TD*%
D11*
%TO.C,REF\u002A\u002A*%
X103625000Y-326000000D03*
%TD*%
D12*
%TO.C,D6*%
X146362500Y-177000000D03*
X149162500Y-177000000D03*
%TD*%
D13*
%TO.C,SW6*%
X123415000Y-312000000D03*
D14*
X128495000Y-312000000D03*
D13*
X133575000Y-312000000D03*
D15*
X131035000Y-306920000D03*
X124685000Y-309460000D03*
%TD*%
D10*
%TO.C,REF\u002A\u002A*%
X96125000Y-27000000D03*
%TD*%
D13*
%TO.C,SW6*%
X123415000Y-250500000D03*
D14*
X128495000Y-250500000D03*
D13*
X133575000Y-250500000D03*
D15*
X131035000Y-245420000D03*
X124685000Y-247960000D03*
%TD*%
D10*
%TO.C,REF\u002A\u002A*%
X198156471Y-179749850D03*
%TD*%
D16*
%TO.C,REF\u002A\u002A*%
X96625000Y-22500000D03*
%TD*%
D13*
%TO.C,SW10*%
X163555000Y-189000000D03*
D14*
X168635000Y-189000000D03*
D13*
X173715000Y-189000000D03*
D15*
X171175000Y-183920000D03*
X164825000Y-186460000D03*
%TD*%
D10*
%TO.C,REF\u002A\u002A*%
X98625000Y-20500000D03*
%TD*%
%TO.C,REF\u002A\u002A*%
X166125000Y-273200000D03*
%TD*%
D17*
%TO.C,J1*%
X173005000Y-179750000D03*
D18*
X175545000Y-179750000D03*
X178085000Y-179750000D03*
X180625000Y-179750000D03*
X183165000Y-179750000D03*
%TD*%
D19*
%TO.C,C10*%
X105162500Y-111500000D03*
X103262500Y-111500000D03*
%TD*%
D10*
%TO.C,REF\u002A\u002A*%
X203875000Y-27000000D03*
%TD*%
%TO.C,REF\u002A\u002A*%
X93125000Y-330500000D03*
%TD*%
D13*
%TO.C,SW7*%
X143485000Y-250500000D03*
D14*
X148565000Y-250500000D03*
D13*
X153645000Y-250500000D03*
D15*
X151105000Y-245420000D03*
X144755000Y-247960000D03*
%TD*%
D10*
%TO.C,REF\u002A\u002A*%
X164124920Y-207276037D03*
%TD*%
%TO.C,REF\u002A\u002A*%
X167124920Y-268774849D03*
%TD*%
D20*
%TO.C,C7*%
X157262500Y-106180000D03*
X159162500Y-106180000D03*
%TD*%
D13*
%TO.C,SW13*%
X183625000Y-127500000D03*
D14*
X188705000Y-127500000D03*
D13*
X193785000Y-127500000D03*
D15*
X191245000Y-122420000D03*
X184895000Y-124960000D03*
%TD*%
D10*
%TO.C,REF\u002A\u002A*%
X132875000Y-150200000D03*
%TD*%
D21*
%TO.C,SW1*%
X192350000Y-27500000D03*
D22*
X190125000Y-28500000D03*
X187825000Y-28500000D03*
D21*
X185600000Y-27500000D03*
D23*
X191075000Y-29550000D03*
X186875000Y-29550000D03*
%TD*%
D24*
%TO.C,SW2*%
X100662500Y-161800000D03*
D25*
X106162500Y-157300000D03*
D26*
X106162500Y-161800000D03*
D24*
X111662500Y-161800000D03*
D27*
X103662500Y-169300000D03*
X108662500Y-169300000D03*
X106162500Y-169300000D03*
X103662500Y-154800000D03*
X108662500Y-154800000D03*
%TD*%
D10*
%TO.C,REF\u002A\u002A*%
X130874921Y-145789206D03*
%TD*%
D13*
%TO.C,SW10*%
X163555000Y-66000000D03*
D14*
X168635000Y-66000000D03*
D13*
X173715000Y-66000000D03*
D15*
X171175000Y-60920000D03*
X164825000Y-63460000D03*
%TD*%
D28*
%TO.C,P1*%
X191937500Y-170140000D03*
X191937500Y-164360000D03*
D29*
X190737500Y-170575000D03*
X190737500Y-169775000D03*
X190737500Y-168500000D03*
X190737500Y-167500000D03*
X190737500Y-167000000D03*
X190737500Y-169000000D03*
X190737500Y-164725000D03*
X190737500Y-163925000D03*
X190737500Y-164175000D03*
X190737500Y-164975000D03*
X190737500Y-165500000D03*
X190737500Y-166500000D03*
X190737500Y-168000000D03*
X190737500Y-166000000D03*
X190737500Y-169525000D03*
X190737500Y-170325000D03*
D30*
X191437500Y-171570000D03*
D31*
X195587500Y-171570000D03*
D30*
X191437500Y-162930000D03*
D31*
X195587500Y-162930000D03*
%TD*%
D10*
%TO.C,REF\u002A\u002A*%
X166124920Y-268775245D03*
%TD*%
%TO.C,REF\u002A\u002A*%
X98825000Y-57750000D03*
%TD*%
%TO.C,REF\u002A\u002A*%
X165124920Y-268775641D03*
%TD*%
D20*
%TO.C,C8*%
X157262500Y-294000000D03*
X159162500Y-294000000D03*
%TD*%
D32*
%TO.C,C5*%
X152750000Y-284000000D03*
X154575000Y-284000000D03*
%TD*%
D10*
%TO.C,REF\u002A\u002A*%
X198157219Y-240249850D03*
%TD*%
D13*
%TO.C,SW7*%
X143485000Y-127500000D03*
D14*
X148565000Y-127500000D03*
D13*
X153645000Y-127500000D03*
D15*
X151105000Y-122420000D03*
X144755000Y-124960000D03*
%TD*%
D21*
%TO.C,SW1*%
X192350000Y-150500000D03*
D22*
X190125000Y-151500000D03*
X187825000Y-151500000D03*
D21*
X185600000Y-150500000D03*
D23*
X191075000Y-152550000D03*
X186875000Y-152550000D03*
%TD*%
D13*
%TO.C,SW5*%
X103345000Y-250500000D03*
D14*
X108425000Y-250500000D03*
D13*
X113505000Y-250500000D03*
D15*
X110965000Y-245420000D03*
X104615000Y-247960000D03*
%TD*%
D10*
%TO.C,REF\u002A\u002A*%
X131874921Y-330288810D03*
%TD*%
%TO.C,REF\u002A\u002A*%
X95125000Y-330500000D03*
%TD*%
%TO.C,REF\u002A\u002A*%
X132875000Y-27200000D03*
%TD*%
D11*
%TO.C,REF\u002A\u002A*%
X194625000Y-156000000D03*
%TD*%
D10*
%TO.C,REF\u002A\u002A*%
X166124920Y-330275245D03*
%TD*%
%TO.C,REF\u002A\u002A*%
X164125000Y-211700000D03*
%TD*%
D17*
%TO.C,J2*%
X170205000Y-90500000D03*
D18*
X167665000Y-90500000D03*
X165125000Y-90500000D03*
X162585000Y-90500000D03*
X160045000Y-90500000D03*
%TD*%
D33*
%TO.C,U2*%
X164025000Y-283350000D03*
X164025000Y-284300000D03*
X164025000Y-285250000D03*
X166300000Y-285250000D03*
X166300000Y-283350000D03*
%TD*%
D17*
%TO.C,J2*%
X170205000Y-275000000D03*
D18*
X167665000Y-275000000D03*
X165125000Y-275000000D03*
X162585000Y-275000000D03*
X160045000Y-275000000D03*
%TD*%
D20*
%TO.C,C4*%
X152762500Y-45000000D03*
X154662500Y-45000000D03*
%TD*%
D10*
%TO.C,REF\u002A\u002A*%
X166124920Y-207275245D03*
%TD*%
D19*
%TO.C,C10*%
X105162500Y-173000000D03*
X103262500Y-173000000D03*
%TD*%
D10*
%TO.C,REF\u002A\u002A*%
X94125000Y-27000000D03*
%TD*%
%TO.C,REF\u002A\u002A*%
X198157968Y-116249850D03*
%TD*%
D34*
%TO.C,RN1*%
X192675000Y-53500000D03*
D35*
X193475000Y-53500000D03*
X194275000Y-53500000D03*
D34*
X195075000Y-53500000D03*
X195075000Y-51700000D03*
D35*
X194275000Y-51700000D03*
X193475000Y-51700000D03*
D34*
X192675000Y-51700000D03*
%TD*%
D10*
%TO.C,REF\u002A\u002A*%
X198158717Y-176749850D03*
%TD*%
%TO.C,REF\u002A\u002A*%
X167125000Y-27200000D03*
%TD*%
%TO.C,REF\u002A\u002A*%
X129874921Y-330289602D03*
%TD*%
%TO.C,REF\u002A\u002A*%
X98825000Y-238250000D03*
%TD*%
%TO.C,REF\u002A\u002A*%
X98825000Y-242250000D03*
%TD*%
%TO.C,REF\u002A\u002A*%
X163124920Y-207276433D03*
%TD*%
D16*
%TO.C,REF\u002A\u002A*%
X200375000Y-22500000D03*
%TD*%
D10*
%TO.C,REF\u002A\u002A*%
X131875000Y-273200000D03*
%TD*%
D17*
%TO.C,J1*%
X173005000Y-302750000D03*
D18*
X175545000Y-302750000D03*
X178085000Y-302750000D03*
X180625000Y-302750000D03*
X183165000Y-302750000D03*
%TD*%
D10*
%TO.C,REF\u002A\u002A*%
X132874921Y-207288414D03*
%TD*%
D12*
%TO.C,D4*%
X109862500Y-238500000D03*
X112662500Y-238500000D03*
%TD*%
D10*
%TO.C,REF\u002A\u002A*%
X166124920Y-84275245D03*
%TD*%
D24*
%TO.C,SW2*%
X100662500Y-38800000D03*
D25*
X106162500Y-34300000D03*
D26*
X106162500Y-38800000D03*
D24*
X111662500Y-38800000D03*
D27*
X103662500Y-46300000D03*
X108662500Y-46300000D03*
X106162500Y-46300000D03*
X103662500Y-31800000D03*
X108662500Y-31800000D03*
%TD*%
D10*
%TO.C,REF\u002A\u002A*%
X132875000Y-88700000D03*
%TD*%
D11*
%TO.C,REF\u002A\u002A*%
X114125000Y-154000000D03*
%TD*%
D32*
%TO.C,R2*%
X157450000Y-38000000D03*
X159275000Y-38000000D03*
%TD*%
D10*
%TO.C,REF\u002A\u002A*%
X198156471Y-302749850D03*
%TD*%
%TO.C,REF\u002A\u002A*%
X167124920Y-84274849D03*
%TD*%
%TO.C,REF\u002A\u002A*%
X198375000Y-333000000D03*
%TD*%
%TO.C,REF\u002A\u002A*%
X198155722Y-242249850D03*
%TD*%
%TO.C,REF\u002A\u002A*%
X132874921Y-330288414D03*
%TD*%
D13*
%TO.C,SW5*%
X103345000Y-189000000D03*
D14*
X108425000Y-189000000D03*
D13*
X113505000Y-189000000D03*
D15*
X110965000Y-183920000D03*
X104615000Y-186460000D03*
%TD*%
D19*
%TO.C,C10*%
X105162500Y-234500000D03*
X103262500Y-234500000D03*
%TD*%
D10*
%TO.C,REF\u002A\u002A*%
X98625000Y-335000000D03*
%TD*%
D20*
%TO.C,C4*%
X152762500Y-168000000D03*
X154662500Y-168000000D03*
%TD*%
D36*
%TO.C,U1*%
X171662500Y-35510000D03*
X171662500Y-36780000D03*
X171662500Y-38060000D03*
X171662500Y-39320000D03*
X171662500Y-40590000D03*
X171662500Y-41860000D03*
X171662500Y-43130000D03*
X171662500Y-44400000D03*
X171662500Y-45670000D03*
X171662500Y-46940000D03*
D37*
X173712500Y-49530000D03*
D38*
X174332500Y-47340000D03*
D37*
X174982500Y-49530000D03*
D38*
X175602500Y-47340000D03*
D37*
X176252500Y-49530000D03*
D38*
X176872500Y-47340000D03*
D37*
X177522500Y-49530000D03*
D38*
X178142500Y-47340000D03*
D37*
X178792500Y-49530000D03*
D38*
X179412500Y-47340000D03*
D37*
X180062500Y-49530000D03*
D38*
X180682500Y-47340000D03*
D37*
X181332500Y-49530000D03*
D38*
X181952500Y-47340000D03*
D37*
X182602500Y-49530000D03*
D36*
X184662500Y-46940000D03*
X184662500Y-45670000D03*
D39*
X182652500Y-45040000D03*
D36*
X184662500Y-44400000D03*
D39*
X182652500Y-43770000D03*
D36*
X184662500Y-43130000D03*
D39*
X182652500Y-42500000D03*
D36*
X184662500Y-41860000D03*
D39*
X182652500Y-41230000D03*
D36*
X184662500Y-40590000D03*
D39*
X182652500Y-39960000D03*
D36*
X184662500Y-39320000D03*
D39*
X182652500Y-38690000D03*
D36*
X184662500Y-38050000D03*
D39*
X182652500Y-37420000D03*
D36*
X184662500Y-36780000D03*
D39*
X182652500Y-36150000D03*
D36*
X184662500Y-35510000D03*
%TD*%
D12*
%TO.C,D12*%
X186725000Y-54250000D03*
X189525000Y-54250000D03*
%TD*%
D10*
%TO.C,REF\u002A\u002A*%
X98825000Y-119250000D03*
%TD*%
D17*
%TO.C,J2*%
X170205000Y-152000000D03*
D18*
X167665000Y-152000000D03*
X165125000Y-152000000D03*
X162585000Y-152000000D03*
X160045000Y-152000000D03*
%TD*%
D10*
%TO.C,REF\u002A\u002A*%
X165124920Y-145775641D03*
%TD*%
D40*
%TO.C,Power1*%
X150620000Y-28500000D03*
X153620000Y-28500000D03*
D41*
X149870000Y-30625000D03*
X151370000Y-30625000D03*
X154370000Y-30625000D03*
D42*
X148320000Y-27350000D03*
X148320000Y-29650000D03*
X155920000Y-27350000D03*
X155930000Y-29650000D03*
%TD*%
D19*
%TO.C,C9*%
X109662500Y-50000000D03*
X107762500Y-50000000D03*
%TD*%
D10*
%TO.C,REF\u002A\u002A*%
X98825000Y-179750000D03*
%TD*%
%TO.C,REF\u002A\u002A*%
X98825000Y-301750000D03*
%TD*%
D24*
%TO.C,SW2*%
X100662500Y-223300000D03*
D25*
X106162500Y-218800000D03*
D26*
X106162500Y-223300000D03*
D24*
X111662500Y-223300000D03*
D27*
X103662500Y-230800000D03*
X108662500Y-230800000D03*
X106162500Y-230800000D03*
X103662500Y-216300000D03*
X108662500Y-216300000D03*
%TD*%
D13*
%TO.C,SW7*%
X143485000Y-312000000D03*
D14*
X148565000Y-312000000D03*
D13*
X153645000Y-312000000D03*
D15*
X151105000Y-306920000D03*
X144755000Y-309460000D03*
%TD*%
D10*
%TO.C,REF\u002A\u002A*%
X198375000Y-22500000D03*
%TD*%
%TO.C,REF\u002A\u002A*%
X98625000Y-334000000D03*
%TD*%
%TO.C,REF\u002A\u002A*%
X204875000Y-330500000D03*
%TD*%
D20*
%TO.C,C7*%
X157262500Y-290680000D03*
X159162500Y-290680000D03*
%TD*%
D11*
%TO.C,REF\u002A\u002A*%
X193625000Y-141500000D03*
%TD*%
D10*
%TO.C,REF\u002A\u002A*%
X131874921Y-207288810D03*
%TD*%
%TO.C,REF\u002A\u002A*%
X198375000Y-20500000D03*
%TD*%
D20*
%TO.C,C3*%
X182225000Y-298700000D03*
X184125000Y-298700000D03*
%TD*%
D12*
%TO.C,D4*%
X109862500Y-54000000D03*
X112662500Y-54000000D03*
%TD*%
D11*
%TO.C,REF\u002A\u002A*%
X193625000Y-80000000D03*
%TD*%
D10*
%TO.C,REF\u002A\u002A*%
X198158717Y-299749850D03*
%TD*%
D21*
%TO.C,SW1*%
X192350000Y-89000000D03*
D22*
X190125000Y-90000000D03*
X187825000Y-90000000D03*
D21*
X185600000Y-89000000D03*
D23*
X191075000Y-91050000D03*
X186875000Y-91050000D03*
%TD*%
D10*
%TO.C,REF\u002A\u002A*%
X131875000Y-211700000D03*
%TD*%
%TO.C,REF\u002A\u002A*%
X167125000Y-88700000D03*
%TD*%
D11*
%TO.C,REF\u002A\u002A*%
X114125000Y-277000000D03*
%TD*%
D40*
%TO.C,Power1*%
X150620000Y-213000000D03*
X153620000Y-213000000D03*
D41*
X149870000Y-215125000D03*
X151370000Y-215125000D03*
X154370000Y-215125000D03*
D42*
X148320000Y-211850000D03*
X148320000Y-214150000D03*
X155920000Y-211850000D03*
X155930000Y-214150000D03*
%TD*%
D10*
%TO.C,REF\u002A\u002A*%
X167124920Y-330274849D03*
%TD*%
D21*
%TO.C,SW1*%
X192350000Y-273500000D03*
D22*
X190125000Y-274500000D03*
X187825000Y-274500000D03*
D21*
X185600000Y-273500000D03*
D23*
X191075000Y-275550000D03*
X186875000Y-275550000D03*
%TD*%
D43*
%TO.C,U3*%
X164187500Y-226800000D03*
X164187500Y-228700000D03*
X166062500Y-227750000D03*
%TD*%
D12*
%TO.C,D12*%
X186725000Y-177250000D03*
X189525000Y-177250000D03*
%TD*%
D33*
%TO.C,U2*%
X164025000Y-160350000D03*
X164025000Y-161300000D03*
X164025000Y-162250000D03*
X166300000Y-162250000D03*
X166300000Y-160350000D03*
%TD*%
D10*
%TO.C,REF\u002A\u002A*%
X198157219Y-301749850D03*
%TD*%
D11*
%TO.C,REF\u002A\u002A*%
X194625000Y-33000000D03*
%TD*%
D10*
%TO.C,REF\u002A\u002A*%
X95125000Y-27000000D03*
%TD*%
D12*
%TO.C,D5*%
X125862500Y-300000000D03*
X128662500Y-300000000D03*
%TD*%
D32*
%TO.C,C6*%
X152750000Y-103000000D03*
X154575000Y-103000000D03*
%TD*%
D10*
%TO.C,REF\u002A\u002A*%
X203875000Y-330500000D03*
%TD*%
D44*
%TO.C,C1*%
X188625000Y-225950000D03*
X188625000Y-224050000D03*
%TD*%
D34*
%TO.C,RN1*%
X192675000Y-238000000D03*
D35*
X193475000Y-238000000D03*
X194275000Y-238000000D03*
D34*
X195075000Y-238000000D03*
X195075000Y-236200000D03*
D35*
X194275000Y-236200000D03*
X193475000Y-236200000D03*
D34*
X192675000Y-236200000D03*
%TD*%
D10*
%TO.C,REF\u002A\u002A*%
X198375000Y-334000000D03*
%TD*%
%TO.C,REF\u002A\u002A*%
X133874921Y-207288018D03*
%TD*%
%TO.C,REF\u002A\u002A*%
X165125000Y-150200000D03*
%TD*%
D43*
%TO.C,U3*%
X164187500Y-165300000D03*
X164187500Y-167200000D03*
X166062500Y-166250000D03*
%TD*%
D12*
%TO.C,D6*%
X146362500Y-54000000D03*
X149162500Y-54000000D03*
%TD*%
%TO.C,D5*%
X125862500Y-177000000D03*
X128662500Y-177000000D03*
%TD*%
D20*
%TO.C,C4*%
X152762500Y-106500000D03*
X154662500Y-106500000D03*
%TD*%
D12*
%TO.C,D6*%
X146362500Y-300000000D03*
X149162500Y-300000000D03*
%TD*%
D10*
%TO.C,REF\u002A\u002A*%
X166125000Y-88700000D03*
%TD*%
D13*
%TO.C,SW5*%
X103345000Y-66000000D03*
D14*
X108425000Y-66000000D03*
D13*
X113505000Y-66000000D03*
D15*
X110965000Y-60920000D03*
X104615000Y-63460000D03*
%TD*%
D17*
%TO.C,J1*%
X173005000Y-118250000D03*
D18*
X175545000Y-118250000D03*
X178085000Y-118250000D03*
X180625000Y-118250000D03*
X183165000Y-118250000D03*
%TD*%
D32*
%TO.C,C5*%
X152750000Y-161000000D03*
X154575000Y-161000000D03*
%TD*%
%TO.C,C6*%
X152750000Y-164500000D03*
X154575000Y-164500000D03*
%TD*%
D12*
%TO.C,D12*%
X186725000Y-115750000D03*
X189525000Y-115750000D03*
%TD*%
D17*
%TO.C,J2*%
X170205000Y-213500000D03*
D18*
X167665000Y-213500000D03*
X165125000Y-213500000D03*
X162585000Y-213500000D03*
X160045000Y-213500000D03*
%TD*%
D40*
%TO.C,Power1*%
X150620000Y-151500000D03*
X153620000Y-151500000D03*
D41*
X149870000Y-153625000D03*
X151370000Y-153625000D03*
X154370000Y-153625000D03*
D42*
X148320000Y-150350000D03*
X148320000Y-152650000D03*
X155920000Y-150350000D03*
X155930000Y-152650000D03*
%TD*%
D10*
%TO.C,REF\u002A\u002A*%
X96125000Y-330500000D03*
%TD*%
%TO.C,REF\u002A\u002A*%
X198155722Y-119249850D03*
%TD*%
%TO.C,REF\u002A\u002A*%
X98825000Y-55750000D03*
%TD*%
D24*
%TO.C,SW2*%
X100662500Y-284800000D03*
D25*
X106162500Y-280300000D03*
D26*
X106162500Y-284800000D03*
D24*
X111662500Y-284800000D03*
D27*
X103662500Y-292300000D03*
X108662500Y-292300000D03*
X106162500Y-292300000D03*
X103662500Y-277800000D03*
X108662500Y-277800000D03*
%TD*%
D13*
%TO.C,SW13*%
X183625000Y-250500000D03*
D14*
X188705000Y-250500000D03*
D13*
X193785000Y-250500000D03*
D15*
X191245000Y-245420000D03*
X184895000Y-247960000D03*
%TD*%
D11*
%TO.C,REF\u002A\u002A*%
X193625000Y-326000000D03*
%TD*%
D45*
%TO.C,C2*%
X188625000Y-107550000D03*
X188625000Y-109450000D03*
%TD*%
D10*
%TO.C,REF\u002A\u002A*%
X198157968Y-300749850D03*
%TD*%
D32*
%TO.C,R2*%
X157450000Y-222500000D03*
X159275000Y-222500000D03*
%TD*%
D10*
%TO.C,REF\u002A\u002A*%
X98625000Y-336000000D03*
%TD*%
%TO.C,REF\u002A\u002A*%
X198156471Y-118249850D03*
%TD*%
D20*
%TO.C,C7*%
X157262500Y-229180000D03*
X159162500Y-229180000D03*
%TD*%
D44*
%TO.C,C1*%
X188625000Y-287450000D03*
X188625000Y-285550000D03*
%TD*%
D10*
%TO.C,REF\u002A\u002A*%
X165124920Y-207275641D03*
%TD*%
D32*
%TO.C,R3*%
X157450000Y-41500000D03*
X159275000Y-41500000D03*
%TD*%
D10*
%TO.C,REF\u002A\u002A*%
X131874921Y-84288810D03*
%TD*%
D12*
%TO.C,D5*%
X125862500Y-54000000D03*
X128662500Y-54000000D03*
%TD*%
D10*
%TO.C,REF\u002A\u002A*%
X133875000Y-273200000D03*
%TD*%
D11*
%TO.C,REF\u002A\u002A*%
X114125000Y-31000000D03*
%TD*%
D10*
%TO.C,REF\u002A\u002A*%
X133874921Y-145788018D03*
%TD*%
%TO.C,REF\u002A\u002A*%
X93125000Y-27000000D03*
%TD*%
%TO.C,REF\u002A\u002A*%
X133875000Y-211700000D03*
%TD*%
%TO.C,REF\u002A\u002A*%
X131875000Y-88700000D03*
%TD*%
D19*
%TO.C,C9*%
X109662500Y-296000000D03*
X107762500Y-296000000D03*
%TD*%
D10*
%TO.C,REF\u002A\u002A*%
X98825000Y-303750000D03*
%TD*%
D12*
%TO.C,D4*%
X109862500Y-177000000D03*
X112662500Y-177000000D03*
%TD*%
D32*
%TO.C,C6*%
X152750000Y-287500000D03*
X154575000Y-287500000D03*
%TD*%
D10*
%TO.C,REF\u002A\u002A*%
X166125000Y-27200000D03*
%TD*%
%TO.C,REF\u002A\u002A*%
X98825000Y-180750000D03*
%TD*%
D43*
%TO.C,U3*%
X164187500Y-288300000D03*
X164187500Y-290200000D03*
X166062500Y-289250000D03*
%TD*%
D11*
%TO.C,REF\u002A\u002A*%
X103625000Y-80000000D03*
%TD*%
D32*
%TO.C,C5*%
X152750000Y-38000000D03*
X154575000Y-38000000D03*
%TD*%
D10*
%TO.C,REF\u002A\u002A*%
X201875000Y-330500000D03*
%TD*%
%TO.C,REF\u002A\u002A*%
X130874921Y-84289206D03*
%TD*%
%TO.C,REF\u002A\u002A*%
X133875000Y-27200000D03*
%TD*%
D32*
%TO.C,R3*%
X157450000Y-226000000D03*
X159275000Y-226000000D03*
%TD*%
D46*
%TO.C,BT1*%
X147975000Y-99125000D03*
X117375000Y-99125000D03*
D47*
X132675000Y-99125000D03*
%TD*%
D10*
%TO.C,REF\u002A\u002A*%
X98825000Y-239250000D03*
%TD*%
D12*
%TO.C,D4*%
X109862500Y-115500000D03*
X112662500Y-115500000D03*
%TD*%
D13*
%TO.C,SW6*%
X123415000Y-127500000D03*
D14*
X128495000Y-127500000D03*
D13*
X133575000Y-127500000D03*
D15*
X131035000Y-122420000D03*
X124685000Y-124960000D03*
%TD*%
D10*
%TO.C,REF\u002A\u002A*%
X98825000Y-178750000D03*
%TD*%
%TO.C,REF\u002A\u002A*%
X164125000Y-273200000D03*
%TD*%
%TO.C,REF\u002A\u002A*%
X132874921Y-268788414D03*
%TD*%
D32*
%TO.C,C5*%
X152750000Y-99500000D03*
X154575000Y-99500000D03*
%TD*%
D10*
%TO.C,REF\u002A\u002A*%
X129875000Y-88700000D03*
%TD*%
D36*
%TO.C,U1*%
X171662500Y-281510000D03*
X171662500Y-282780000D03*
X171662500Y-284060000D03*
X171662500Y-285320000D03*
X171662500Y-286590000D03*
X171662500Y-287860000D03*
X171662500Y-289130000D03*
X171662500Y-290400000D03*
X171662500Y-291670000D03*
X171662500Y-292940000D03*
D37*
X173712500Y-295530000D03*
D38*
X174332500Y-293340000D03*
D37*
X174982500Y-295530000D03*
D38*
X175602500Y-293340000D03*
D37*
X176252500Y-295530000D03*
D38*
X176872500Y-293340000D03*
D37*
X177522500Y-295530000D03*
D38*
X178142500Y-293340000D03*
D37*
X178792500Y-295530000D03*
D38*
X179412500Y-293340000D03*
D37*
X180062500Y-295530000D03*
D38*
X180682500Y-293340000D03*
D37*
X181332500Y-295530000D03*
D38*
X181952500Y-293340000D03*
D37*
X182602500Y-295530000D03*
D36*
X184662500Y-292940000D03*
X184662500Y-291670000D03*
D39*
X182652500Y-291040000D03*
D36*
X184662500Y-290400000D03*
D39*
X182652500Y-289770000D03*
D36*
X184662500Y-289130000D03*
D39*
X182652500Y-288500000D03*
D36*
X184662500Y-287860000D03*
D39*
X182652500Y-287230000D03*
D36*
X184662500Y-286590000D03*
D39*
X182652500Y-285960000D03*
D36*
X184662500Y-285320000D03*
D39*
X182652500Y-284690000D03*
D36*
X184662500Y-284050000D03*
D39*
X182652500Y-283420000D03*
D36*
X184662500Y-282780000D03*
D39*
X182652500Y-282150000D03*
D36*
X184662500Y-281510000D03*
%TD*%
D10*
%TO.C,REF\u002A\u002A*%
X198375000Y-336000000D03*
%TD*%
D13*
%TO.C,SW7*%
X143485000Y-189000000D03*
D14*
X148565000Y-189000000D03*
D13*
X153645000Y-189000000D03*
D15*
X151105000Y-183920000D03*
X144755000Y-186460000D03*
%TD*%
D19*
%TO.C,C10*%
X105162500Y-296000000D03*
X103262500Y-296000000D03*
%TD*%
D10*
%TO.C,REF\u002A\u002A*%
X198157968Y-239249850D03*
%TD*%
%TO.C,REF\u002A\u002A*%
X132874921Y-145788414D03*
%TD*%
%TO.C,REF\u002A\u002A*%
X98825000Y-54750000D03*
%TD*%
%TO.C,REF\u002A\u002A*%
X98825000Y-299750000D03*
%TD*%
D19*
%TO.C,C10*%
X105162500Y-50000000D03*
X103262500Y-50000000D03*
%TD*%
D11*
%TO.C,REF\u002A\u002A*%
X194625000Y-279000000D03*
%TD*%
D10*
%TO.C,REF\u002A\u002A*%
X98625000Y-21500000D03*
%TD*%
%TO.C,REF\u002A\u002A*%
X164124920Y-145776037D03*
%TD*%
D20*
%TO.C,C3*%
X182225000Y-114200000D03*
X184125000Y-114200000D03*
%TD*%
D10*
%TO.C,REF\u002A\u002A*%
X202875000Y-330500000D03*
%TD*%
%TO.C,REF\u002A\u002A*%
X129874921Y-145789602D03*
%TD*%
%TO.C,REF\u002A\u002A*%
X98825000Y-300750000D03*
%TD*%
%TO.C,REF\u002A\u002A*%
X164124920Y-330276037D03*
%TD*%
D46*
%TO.C,BT1*%
X147975000Y-37625000D03*
X117375000Y-37625000D03*
D47*
X132675000Y-37625000D03*
%TD*%
D10*
%TO.C,REF\u002A\u002A*%
X198375000Y-21500000D03*
%TD*%
%TO.C,REF\u002A\u002A*%
X98625000Y-24500000D03*
%TD*%
D11*
%TO.C,REF\u002A\u002A*%
X103625000Y-264500000D03*
%TD*%
D10*
%TO.C,REF\u002A\u002A*%
X165125000Y-273200000D03*
%TD*%
%TO.C,REF\u002A\u002A*%
X130875000Y-27200000D03*
%TD*%
D12*
%TO.C,D5*%
X125862500Y-115500000D03*
X128662500Y-115500000D03*
%TD*%
D10*
%TO.C,REF\u002A\u002A*%
X131875000Y-27200000D03*
%TD*%
D44*
%TO.C,C1*%
X188625000Y-102950000D03*
X188625000Y-101050000D03*
%TD*%
D10*
%TO.C,REF\u002A\u002A*%
X200875000Y-27000000D03*
%TD*%
%TO.C,REF\u002A\u002A*%
X98625000Y-23500000D03*
%TD*%
%TO.C,REF\u002A\u002A*%
X98825000Y-116250000D03*
%TD*%
%TO.C,REF\u002A\u002A*%
X92125000Y-330500000D03*
%TD*%
D40*
%TO.C,Power1*%
X150620000Y-274500000D03*
X153620000Y-274500000D03*
D41*
X149870000Y-276625000D03*
X151370000Y-276625000D03*
X154370000Y-276625000D03*
D42*
X148320000Y-273350000D03*
X148320000Y-275650000D03*
X155920000Y-273350000D03*
X155930000Y-275650000D03*
%TD*%
D10*
%TO.C,REF\u002A\u002A*%
X164124920Y-268776037D03*
%TD*%
D32*
%TO.C,C6*%
X152750000Y-226000000D03*
X154575000Y-226000000D03*
%TD*%
D10*
%TO.C,REF\u002A\u002A*%
X129875000Y-211700000D03*
%TD*%
%TO.C,REF\u002A\u002A*%
X163124920Y-84276433D03*
%TD*%
D32*
%TO.C,C6*%
X152750000Y-41500000D03*
X154575000Y-41500000D03*
%TD*%
D13*
%TO.C,SW10*%
X163555000Y-127500000D03*
D14*
X168635000Y-127500000D03*
D13*
X173715000Y-127500000D03*
D15*
X171175000Y-122420000D03*
X164825000Y-124960000D03*
%TD*%
D11*
%TO.C,REF\u002A\u002A*%
X194625000Y-217500000D03*
%TD*%
D13*
%TO.C,SW6*%
X123415000Y-66000000D03*
D14*
X128495000Y-66000000D03*
D13*
X133575000Y-66000000D03*
D15*
X131035000Y-60920000D03*
X124685000Y-63460000D03*
%TD*%
D10*
%TO.C,REF\u002A\u002A*%
X129875000Y-273200000D03*
%TD*%
%TO.C,REF\u002A\u002A*%
X98625000Y-333000000D03*
%TD*%
%TO.C,REF\u002A\u002A*%
X131874921Y-268788810D03*
%TD*%
%TO.C,REF\u002A\u002A*%
X133875000Y-150200000D03*
%TD*%
D28*
%TO.C,P1*%
X191937500Y-231640000D03*
X191937500Y-225860000D03*
D29*
X190737500Y-232075000D03*
X190737500Y-231275000D03*
X190737500Y-230000000D03*
X190737500Y-229000000D03*
X190737500Y-228500000D03*
X190737500Y-230500000D03*
X190737500Y-226225000D03*
X190737500Y-225425000D03*
X190737500Y-225675000D03*
X190737500Y-226475000D03*
X190737500Y-227000000D03*
X190737500Y-228000000D03*
X190737500Y-229500000D03*
X190737500Y-227500000D03*
X190737500Y-231025000D03*
X190737500Y-231825000D03*
D30*
X191437500Y-233070000D03*
D31*
X195587500Y-233070000D03*
D30*
X191437500Y-224430000D03*
D31*
X195587500Y-224430000D03*
%TD*%
D10*
%TO.C,REF\u002A\u002A*%
X198157219Y-117249850D03*
%TD*%
D45*
%TO.C,C2*%
X188625000Y-292050000D03*
X188625000Y-293950000D03*
%TD*%
D21*
%TO.C,SW1*%
X192350000Y-212000000D03*
D22*
X190125000Y-213000000D03*
X187825000Y-213000000D03*
D21*
X185600000Y-212000000D03*
D23*
X191075000Y-214050000D03*
X186875000Y-214050000D03*
%TD*%
D10*
%TO.C,REF\u002A\u002A*%
X165125000Y-27200000D03*
%TD*%
%TO.C,REF\u002A\u002A*%
X163124920Y-330276433D03*
%TD*%
D48*
%TO.C,L1*%
X163812500Y-232500000D03*
X165937500Y-232500000D03*
%TD*%
D12*
%TO.C,D4*%
X109862500Y-300000000D03*
X112662500Y-300000000D03*
%TD*%
D10*
%TO.C,REF\u002A\u002A*%
X98825000Y-117250000D03*
%TD*%
D33*
%TO.C,U2*%
X164025000Y-221850000D03*
X164025000Y-222800000D03*
X164025000Y-223750000D03*
X166300000Y-223750000D03*
X166300000Y-221850000D03*
%TD*%
D10*
%TO.C,REF\u002A\u002A*%
X129874921Y-84289602D03*
%TD*%
D48*
%TO.C,L1*%
X163812500Y-48000000D03*
X165937500Y-48000000D03*
%TD*%
D10*
%TO.C,REF\u002A\u002A*%
X198155722Y-57749850D03*
%TD*%
%TO.C,REF\u002A\u002A*%
X164124920Y-84276037D03*
%TD*%
D11*
%TO.C,REF\u002A\u002A*%
X103625000Y-141500000D03*
%TD*%
D10*
%TO.C,REF\u002A\u002A*%
X163125000Y-27200000D03*
%TD*%
D32*
%TO.C,R2*%
X157450000Y-161000000D03*
X159275000Y-161000000D03*
%TD*%
D10*
%TO.C,REF\u002A\u002A*%
X98825000Y-177750000D03*
%TD*%
D12*
%TO.C,D6*%
X146362500Y-115500000D03*
X149162500Y-115500000D03*
%TD*%
D10*
%TO.C,REF\u002A\u002A*%
X98625000Y-337000000D03*
%TD*%
D20*
%TO.C,C3*%
X182225000Y-175700000D03*
X184125000Y-175700000D03*
%TD*%
D10*
%TO.C,REF\u002A\u002A*%
X130875000Y-150200000D03*
%TD*%
D11*
%TO.C,REF\u002A\u002A*%
X114125000Y-215500000D03*
%TD*%
D10*
%TO.C,REF\u002A\u002A*%
X167125000Y-211700000D03*
%TD*%
%TO.C,REF\u002A\u002A*%
X92125000Y-27000000D03*
%TD*%
D32*
%TO.C,R3*%
X157450000Y-164500000D03*
X159275000Y-164500000D03*
%TD*%
D17*
%TO.C,J1*%
X173005000Y-241250000D03*
D18*
X175545000Y-241250000D03*
X178085000Y-241250000D03*
X180625000Y-241250000D03*
X183165000Y-241250000D03*
%TD*%
D45*
%TO.C,C2*%
X188625000Y-169050000D03*
X188625000Y-170950000D03*
%TD*%
D10*
%TO.C,REF\u002A\u002A*%
X132875000Y-273200000D03*
%TD*%
%TO.C,REF\u002A\u002A*%
X98825000Y-53750000D03*
%TD*%
D33*
%TO.C,U2*%
X164025000Y-37350000D03*
X164025000Y-38300000D03*
X164025000Y-39250000D03*
X166300000Y-39250000D03*
X166300000Y-37350000D03*
%TD*%
D19*
%TO.C,C9*%
X109662500Y-173000000D03*
X107762500Y-173000000D03*
%TD*%
D32*
%TO.C,R3*%
X157450000Y-103000000D03*
X159275000Y-103000000D03*
%TD*%
D10*
%TO.C,REF\u002A\u002A*%
X204875000Y-27000000D03*
%TD*%
%TO.C,REF\u002A\u002A*%
X98825000Y-176750000D03*
%TD*%
%TO.C,REF\u002A\u002A*%
X130874921Y-330289206D03*
%TD*%
D33*
%TO.C,U2*%
X164025000Y-98850000D03*
X164025000Y-99800000D03*
X164025000Y-100750000D03*
X166300000Y-100750000D03*
X166300000Y-98850000D03*
%TD*%
D13*
%TO.C,SW5*%
X103345000Y-312000000D03*
D14*
X108425000Y-312000000D03*
D13*
X113505000Y-312000000D03*
D15*
X110965000Y-306920000D03*
X104615000Y-309460000D03*
%TD*%
D10*
%TO.C,REF\u002A\u002A*%
X165125000Y-211700000D03*
%TD*%
D12*
%TO.C,D12*%
X186725000Y-238750000D03*
X189525000Y-238750000D03*
%TD*%
D10*
%TO.C,REF\u002A\u002A*%
X164125000Y-88700000D03*
%TD*%
D28*
%TO.C,P1*%
X191937500Y-108640000D03*
X191937500Y-102860000D03*
D29*
X190737500Y-109075000D03*
X190737500Y-108275000D03*
X190737500Y-107000000D03*
X190737500Y-106000000D03*
X190737500Y-105500000D03*
X190737500Y-107500000D03*
X190737500Y-103225000D03*
X190737500Y-102425000D03*
X190737500Y-102675000D03*
X190737500Y-103475000D03*
X190737500Y-104000000D03*
X190737500Y-105000000D03*
X190737500Y-106500000D03*
X190737500Y-104500000D03*
X190737500Y-108025000D03*
X190737500Y-108825000D03*
D30*
X191437500Y-110070000D03*
D31*
X195587500Y-110070000D03*
D30*
X191437500Y-101430000D03*
D31*
X195587500Y-101430000D03*
%TD*%
D10*
%TO.C,REF\u002A\u002A*%
X165125000Y-88700000D03*
%TD*%
%TO.C,REF\u002A\u002A*%
X165124920Y-84275641D03*
%TD*%
D13*
%TO.C,SW10*%
X163555000Y-312000000D03*
D14*
X168635000Y-312000000D03*
D13*
X173715000Y-312000000D03*
D15*
X171175000Y-306920000D03*
X164825000Y-309460000D03*
%TD*%
D10*
%TO.C,REF\u002A\u002A*%
X129875000Y-27200000D03*
%TD*%
D32*
%TO.C,C5*%
X152750000Y-222500000D03*
X154575000Y-222500000D03*
%TD*%
D12*
%TO.C,D5*%
X125862500Y-238500000D03*
X128662500Y-238500000D03*
%TD*%
D11*
%TO.C,REF\u002A\u002A*%
X193625000Y-203000000D03*
%TD*%
D12*
%TO.C,D9*%
X161725000Y-178000000D03*
X164525000Y-178000000D03*
%TD*%
D20*
%TO.C,C8*%
X157262500Y-48000000D03*
X159162500Y-48000000D03*
%TD*%
%TO.C,C3*%
X182225000Y-237200000D03*
X184125000Y-237200000D03*
%TD*%
D17*
%TO.C,J2*%
X170205000Y-29000000D03*
D18*
X167665000Y-29000000D03*
X165125000Y-29000000D03*
X162585000Y-29000000D03*
X160045000Y-29000000D03*
%TD*%
D28*
%TO.C,P1*%
X191937500Y-47140000D03*
X191937500Y-41360000D03*
D29*
X190737500Y-47575000D03*
X190737500Y-46775000D03*
X190737500Y-45500000D03*
X190737500Y-44500000D03*
X190737500Y-44000000D03*
X190737500Y-46000000D03*
X190737500Y-41725000D03*
X190737500Y-40925000D03*
X190737500Y-41175000D03*
X190737500Y-41975000D03*
X190737500Y-42500000D03*
X190737500Y-43500000D03*
X190737500Y-45000000D03*
X190737500Y-43000000D03*
X190737500Y-46525000D03*
X190737500Y-47325000D03*
D30*
X191437500Y-48570000D03*
D31*
X195587500Y-48570000D03*
D30*
X191437500Y-39930000D03*
D31*
X195587500Y-39930000D03*
%TD*%
D10*
%TO.C,REF\u002A\u002A*%
X198157219Y-55749851D03*
%TD*%
D45*
%TO.C,C2*%
X188625000Y-46050000D03*
X188625000Y-47950000D03*
%TD*%
D10*
%TO.C,REF\u002A\u002A*%
X202875000Y-27000000D03*
%TD*%
D17*
%TO.C,J1*%
X173005000Y-56750000D03*
D18*
X175545000Y-56750000D03*
X178085000Y-56750000D03*
X180625000Y-56750000D03*
X183165000Y-56750000D03*
%TD*%
D12*
%TO.C,D9*%
X161725000Y-301000000D03*
X164525000Y-301000000D03*
%TD*%
%TO.C,D12*%
X186725000Y-300250000D03*
X189525000Y-300250000D03*
%TD*%
D10*
%TO.C,REF\u002A\u002A*%
X163125000Y-150200000D03*
%TD*%
%TO.C,REF\u002A\u002A*%
X130875000Y-273200000D03*
%TD*%
D34*
%TO.C,RN1*%
X192675000Y-299500000D03*
D35*
X193475000Y-299500000D03*
X194275000Y-299500000D03*
D34*
X195075000Y-299500000D03*
X195075000Y-297700000D03*
D35*
X194275000Y-297700000D03*
X193475000Y-297700000D03*
D34*
X192675000Y-297700000D03*
%TD*%
D10*
%TO.C,REF\u002A\u002A*%
X198155722Y-303749850D03*
%TD*%
D34*
%TO.C,RN1*%
X192675000Y-115000000D03*
D35*
X193475000Y-115000000D03*
X194275000Y-115000000D03*
D34*
X195075000Y-115000000D03*
X195075000Y-113200000D03*
D35*
X194275000Y-113200000D03*
X193475000Y-113200000D03*
D34*
X192675000Y-113200000D03*
%TD*%
D10*
%TO.C,REF\u002A\u002A*%
X166125000Y-211700000D03*
%TD*%
D24*
%TO.C,SW2*%
X100662500Y-100300000D03*
D25*
X106162500Y-95800000D03*
D26*
X106162500Y-100300000D03*
D24*
X111662500Y-100300000D03*
D27*
X103662500Y-107800000D03*
X108662500Y-107800000D03*
X106162500Y-107800000D03*
X103662500Y-93300000D03*
X108662500Y-93300000D03*
%TD*%
D44*
%TO.C,C1*%
X188625000Y-164450000D03*
X188625000Y-162550000D03*
%TD*%
D10*
%TO.C,REF\u002A\u002A*%
X167124920Y-145774849D03*
%TD*%
%TO.C,REF\u002A\u002A*%
X167124920Y-207274849D03*
%TD*%
D13*
%TO.C,SW13*%
X183625000Y-66000000D03*
D14*
X188705000Y-66000000D03*
D13*
X193785000Y-66000000D03*
D15*
X191245000Y-60920000D03*
X184895000Y-63460000D03*
%TD*%
D46*
%TO.C,BT1*%
X147975000Y-222125000D03*
X117375000Y-222125000D03*
D47*
X132675000Y-222125000D03*
%TD*%
D10*
%TO.C,REF\u002A\u002A*%
X166125000Y-150200000D03*
%TD*%
D48*
%TO.C,L1*%
X163812500Y-171000000D03*
X165937500Y-171000000D03*
%TD*%
D32*
%TO.C,R2*%
X157450000Y-284000000D03*
X159275000Y-284000000D03*
%TD*%
D46*
%TO.C,BT1*%
X147975000Y-160625000D03*
X117375000Y-160625000D03*
D47*
X132675000Y-160625000D03*
%TD*%
D45*
%TO.C,C2*%
X188625000Y-230550000D03*
X188625000Y-232450000D03*
%TD*%
D10*
%TO.C,REF\u002A\u002A*%
X163125000Y-273200000D03*
%TD*%
%TO.C,REF\u002A\u002A*%
X98825000Y-240250000D03*
%TD*%
D20*
%TO.C,C3*%
X182225000Y-52700000D03*
X184125000Y-52700000D03*
%TD*%
D10*
%TO.C,REF\u002A\u002A*%
X198158717Y-53749851D03*
%TD*%
%TO.C,REF\u002A\u002A*%
X98625000Y-22500000D03*
%TD*%
D36*
%TO.C,U1*%
X171662500Y-97010000D03*
X171662500Y-98280000D03*
X171662500Y-99560000D03*
X171662500Y-100820000D03*
X171662500Y-102090000D03*
X171662500Y-103360000D03*
X171662500Y-104630000D03*
X171662500Y-105900000D03*
X171662500Y-107170000D03*
X171662500Y-108440000D03*
D37*
X173712500Y-111030000D03*
D38*
X174332500Y-108840000D03*
D37*
X174982500Y-111030000D03*
D38*
X175602500Y-108840000D03*
D37*
X176252500Y-111030000D03*
D38*
X176872500Y-108840000D03*
D37*
X177522500Y-111030000D03*
D38*
X178142500Y-108840000D03*
D37*
X178792500Y-111030000D03*
D38*
X179412500Y-108840000D03*
D37*
X180062500Y-111030000D03*
D38*
X180682500Y-108840000D03*
D37*
X181332500Y-111030000D03*
D38*
X181952500Y-108840000D03*
D37*
X182602500Y-111030000D03*
D36*
X184662500Y-108440000D03*
X184662500Y-107170000D03*
D39*
X182652500Y-106540000D03*
D36*
X184662500Y-105900000D03*
D39*
X182652500Y-105270000D03*
D36*
X184662500Y-104630000D03*
D39*
X182652500Y-104000000D03*
D36*
X184662500Y-103360000D03*
D39*
X182652500Y-102730000D03*
D36*
X184662500Y-102090000D03*
D39*
X182652500Y-101460000D03*
D36*
X184662500Y-100820000D03*
D39*
X182652500Y-100190000D03*
D36*
X184662500Y-99550000D03*
D39*
X182652500Y-98920000D03*
D36*
X184662500Y-98280000D03*
D39*
X182652500Y-97650000D03*
D36*
X184662500Y-97010000D03*
%TD*%
D10*
%TO.C,REF\u002A\u002A*%
X129874921Y-207289602D03*
%TD*%
%TO.C,REF\u002A\u002A*%
X163124920Y-145776433D03*
%TD*%
%TO.C,REF\u002A\u002A*%
X132874921Y-84288414D03*
%TD*%
%TO.C,REF\u002A\u002A*%
X198156471Y-56749850D03*
%TD*%
%TO.C,REF\u002A\u002A*%
X198156471Y-241249850D03*
%TD*%
%TO.C,REF\u002A\u002A*%
X129874921Y-268789602D03*
%TD*%
D32*
%TO.C,R3*%
X157450000Y-287500000D03*
X159275000Y-287500000D03*
%TD*%
D13*
%TO.C,SW13*%
X183625000Y-189000000D03*
D14*
X188705000Y-189000000D03*
D13*
X193785000Y-189000000D03*
D15*
X191245000Y-183920000D03*
X184895000Y-186460000D03*
%TD*%
D10*
%TO.C,REF\u002A\u002A*%
X98825000Y-56750000D03*
%TD*%
%TO.C,REF\u002A\u002A*%
X198158717Y-238249850D03*
%TD*%
%TO.C,REF\u002A\u002A*%
X133875000Y-88700000D03*
%TD*%
D44*
%TO.C,C1*%
X188625000Y-41450000D03*
X188625000Y-39550000D03*
%TD*%
D10*
%TO.C,REF\u002A\u002A*%
X201875000Y-27000000D03*
%TD*%
%TO.C,REF\u002A\u002A*%
X198157968Y-177749850D03*
%TD*%
D32*
%TO.C,R2*%
X157450000Y-99500000D03*
X159275000Y-99500000D03*
%TD*%
D10*
%TO.C,REF\u002A\u002A*%
X131874921Y-145788810D03*
%TD*%
%TO.C,REF\u002A\u002A*%
X132875000Y-211700000D03*
%TD*%
%TO.C,REF\u002A\u002A*%
X133874921Y-268788018D03*
%TD*%
%TO.C,REF\u002A\u002A*%
X130874921Y-207289206D03*
%TD*%
%TO.C,REF\u002A\u002A*%
X167125000Y-150200000D03*
%TD*%
%TO.C,REF\u002A\u002A*%
X167125000Y-273200000D03*
%TD*%
%TO.C,REF\u002A\u002A*%
X130874921Y-268789206D03*
%TD*%
D48*
%TO.C,L1*%
X163812500Y-109500000D03*
X165937500Y-109500000D03*
%TD*%
D10*
%TO.C,REF\u002A\u002A*%
X198155722Y-180749850D03*
%TD*%
%TO.C,REF\u002A\u002A*%
X163125000Y-88700000D03*
%TD*%
D12*
%TO.C,D9*%
X161725000Y-116500000D03*
X164525000Y-116500000D03*
%TD*%
D10*
%TO.C,REF\u002A\u002A*%
X200875000Y-330500000D03*
%TD*%
%TO.C,REF\u002A\u002A*%
X129875000Y-150200000D03*
%TD*%
D11*
%TO.C,REF\u002A\u002A*%
X114125000Y-92500000D03*
%TD*%
D13*
%TO.C,SW6*%
X123415000Y-189000000D03*
D14*
X128495000Y-189000000D03*
D13*
X133575000Y-189000000D03*
D15*
X131035000Y-183920000D03*
X124685000Y-186460000D03*
%TD*%
D10*
%TO.C,REF\u002A\u002A*%
X198375000Y-23500000D03*
%TD*%
%TO.C,REF\u002A\u002A*%
X133874921Y-330288018D03*
%TD*%
%TO.C,REF\u002A\u002A*%
X164125000Y-150200000D03*
%TD*%
D36*
%TO.C,U1*%
X171662500Y-158510000D03*
X171662500Y-159780000D03*
X171662500Y-161060000D03*
X171662500Y-162320000D03*
X171662500Y-163590000D03*
X171662500Y-164860000D03*
X171662500Y-166130000D03*
X171662500Y-167400000D03*
X171662500Y-168670000D03*
X171662500Y-169940000D03*
D37*
X173712500Y-172530000D03*
D38*
X174332500Y-170340000D03*
D37*
X174982500Y-172530000D03*
D38*
X175602500Y-170340000D03*
D37*
X176252500Y-172530000D03*
D38*
X176872500Y-170340000D03*
D37*
X177522500Y-172530000D03*
D38*
X178142500Y-170340000D03*
D37*
X178792500Y-172530000D03*
D38*
X179412500Y-170340000D03*
D37*
X180062500Y-172530000D03*
D38*
X180682500Y-170340000D03*
D37*
X181332500Y-172530000D03*
D38*
X181952500Y-170340000D03*
D37*
X182602500Y-172530000D03*
D36*
X184662500Y-169940000D03*
X184662500Y-168670000D03*
D39*
X182652500Y-168040000D03*
D36*
X184662500Y-167400000D03*
D39*
X182652500Y-166770000D03*
D36*
X184662500Y-166130000D03*
D39*
X182652500Y-165500000D03*
D36*
X184662500Y-164860000D03*
D39*
X182652500Y-164230000D03*
D36*
X184662500Y-163590000D03*
D39*
X182652500Y-162960000D03*
D36*
X184662500Y-162320000D03*
D39*
X182652500Y-161690000D03*
D36*
X184662500Y-161050000D03*
D39*
X182652500Y-160420000D03*
D36*
X184662500Y-159780000D03*
D39*
X182652500Y-159150000D03*
D36*
X184662500Y-158510000D03*
%TD*%
D19*
%TO.C,C9*%
X109662500Y-111500000D03*
X107762500Y-111500000D03*
%TD*%
D13*
%TO.C,SW10*%
X163555000Y-250500000D03*
D14*
X168635000Y-250500000D03*
D13*
X173715000Y-250500000D03*
D15*
X171175000Y-245420000D03*
X164825000Y-247960000D03*
%TD*%
D10*
%TO.C,REF\u002A\u002A*%
X163124920Y-268776433D03*
%TD*%
D20*
%TO.C,C7*%
X157262500Y-44680000D03*
X159162500Y-44680000D03*
%TD*%
%TO.C,C4*%
X152762500Y-229500000D03*
X154662500Y-229500000D03*
%TD*%
D10*
%TO.C,REF\u002A\u002A*%
X164125000Y-27200000D03*
%TD*%
D11*
%TO.C,REF\u002A\u002A*%
X194625000Y-94500000D03*
%TD*%
D20*
%TO.C,C7*%
X157262500Y-167680000D03*
X159162500Y-167680000D03*
%TD*%
D10*
%TO.C,REF\u002A\u002A*%
X163125000Y-211700000D03*
%TD*%
D12*
%TO.C,D6*%
X146362500Y-238500000D03*
X149162500Y-238500000D03*
%TD*%
%TO.C,D9*%
X161725000Y-239500000D03*
X164525000Y-239500000D03*
%TD*%
D46*
%TO.C,BT1*%
X147975000Y-283625000D03*
X117375000Y-283625000D03*
D47*
X132675000Y-283625000D03*
%TD*%
D10*
%TO.C,REF\u002A\u002A*%
X198158717Y-115249850D03*
%TD*%
%TO.C,REF\u002A\u002A*%
X98825000Y-118250000D03*
%TD*%
D36*
%TO.C,U1*%
X171662500Y-220010000D03*
X171662500Y-221280000D03*
X171662500Y-222560000D03*
X171662500Y-223820000D03*
X171662500Y-225090000D03*
X171662500Y-226360000D03*
X171662500Y-227630000D03*
X171662500Y-228900000D03*
X171662500Y-230170000D03*
X171662500Y-231440000D03*
D37*
X173712500Y-234030000D03*
D38*
X174332500Y-231840000D03*
D37*
X174982500Y-234030000D03*
D38*
X175602500Y-231840000D03*
D37*
X176252500Y-234030000D03*
D38*
X176872500Y-231840000D03*
D37*
X177522500Y-234030000D03*
D38*
X178142500Y-231840000D03*
D37*
X178792500Y-234030000D03*
D38*
X179412500Y-231840000D03*
D37*
X180062500Y-234030000D03*
D38*
X180682500Y-231840000D03*
D37*
X181332500Y-234030000D03*
D38*
X181952500Y-231840000D03*
D37*
X182602500Y-234030000D03*
D36*
X184662500Y-231440000D03*
X184662500Y-230170000D03*
D39*
X182652500Y-229540000D03*
D36*
X184662500Y-228900000D03*
D39*
X182652500Y-228270000D03*
D36*
X184662500Y-227630000D03*
D39*
X182652500Y-227000000D03*
D36*
X184662500Y-226360000D03*
D39*
X182652500Y-225730000D03*
D36*
X184662500Y-225090000D03*
D39*
X182652500Y-224460000D03*
D36*
X184662500Y-223820000D03*
D39*
X182652500Y-223190000D03*
D36*
X184662500Y-222550000D03*
D39*
X182652500Y-221920000D03*
D36*
X184662500Y-221280000D03*
D39*
X182652500Y-220650000D03*
D36*
X184662500Y-220010000D03*
%TD*%
D40*
%TO.C,Power1*%
X150620000Y-90000000D03*
X153620000Y-90000000D03*
D41*
X149870000Y-92125000D03*
X151370000Y-92125000D03*
X154370000Y-92125000D03*
D42*
X148320000Y-88850000D03*
X148320000Y-91150000D03*
X155920000Y-88850000D03*
X155930000Y-91150000D03*
%TD*%
D10*
%TO.C,REF\u002A\u002A*%
X198375000Y-24500000D03*
%TD*%
D43*
%TO.C,U3*%
X164187500Y-42300000D03*
X164187500Y-44200000D03*
X166062500Y-43250000D03*
%TD*%
D12*
%TO.C,D9*%
X161725000Y-55000000D03*
X164525000Y-55000000D03*
%TD*%
D11*
%TO.C,REF\u002A\u002A*%
X193625000Y-264500000D03*
%TD*%
D13*
%TO.C,SW5*%
X103345000Y-127500000D03*
D14*
X108425000Y-127500000D03*
D13*
X113505000Y-127500000D03*
D15*
X110965000Y-122420000D03*
X104615000Y-124960000D03*
%TD*%
D10*
%TO.C,REF\u002A\u002A*%
X130875000Y-88700000D03*
%TD*%
%TO.C,REF\u002A\u002A*%
X165124920Y-330275641D03*
%TD*%
%TO.C,REF\u002A\u002A*%
X198157219Y-178749850D03*
%TD*%
%TO.C,REF\u002A\u002A*%
X198375000Y-337000000D03*
%TD*%
D43*
%TO.C,U3*%
X164187500Y-103800000D03*
X164187500Y-105700000D03*
X166062500Y-104750000D03*
%TD*%
D13*
%TO.C,SW7*%
X143485000Y-66000000D03*
D14*
X148565000Y-66000000D03*
D13*
X153645000Y-66000000D03*
D15*
X151105000Y-60920000D03*
X144755000Y-63460000D03*
%TD*%
D10*
%TO.C,REF\u002A\u002A*%
X98825000Y-115250000D03*
%TD*%
D48*
%TO.C,L1*%
X163812500Y-294000000D03*
X165937500Y-294000000D03*
%TD*%
D11*
%TO.C,REF\u002A\u002A*%
X103625000Y-203000000D03*
%TD*%
D20*
%TO.C,C8*%
X157262500Y-232500000D03*
X159162500Y-232500000D03*
%TD*%
%TO.C,C8*%
X157262500Y-109500000D03*
X159162500Y-109500000D03*
%TD*%
D10*
%TO.C,REF\u002A\u002A*%
X98825000Y-241250000D03*
%TD*%
%TO.C,REF\u002A\u002A*%
X94125000Y-330500000D03*
%TD*%
D19*
%TO.C,C9*%
X109662500Y-234500000D03*
X107762500Y-234500000D03*
%TD*%
D10*
%TO.C,REF\u002A\u002A*%
X198375000Y-335000000D03*
%TD*%
%TO.C,REF\u002A\u002A*%
X133874921Y-84288018D03*
%TD*%
D16*
%TO.C,REF\u002A\u002A*%
X96625000Y-335000000D03*
%TD*%
D10*
%TO.C,REF\u002A\u002A*%
X166124920Y-145775245D03*
%TD*%
D13*
%TO.C,SW13*%
X183625000Y-312000000D03*
D14*
X188705000Y-312000000D03*
D13*
X193785000Y-312000000D03*
D15*
X191245000Y-306920000D03*
X184895000Y-309460000D03*
%TD*%
D10*
%TO.C,REF\u002A\u002A*%
X130875000Y-211700000D03*
%TD*%
D20*
%TO.C,C4*%
X152762500Y-291000000D03*
X154662500Y-291000000D03*
%TD*%
D10*
%TO.C,REF\u002A\u002A*%
X98825000Y-302750000D03*
%TD*%
D20*
%TO.C,C8*%
X157262500Y-171000000D03*
X159162500Y-171000000D03*
%TD*%
D10*
%TO.C,REF\u002A\u002A*%
X131875000Y-150200000D03*
%TD*%
D34*
%TO.C,RN1*%
X192675000Y-176500000D03*
D35*
X193475000Y-176500000D03*
X194275000Y-176500000D03*
D34*
X195075000Y-176500000D03*
X195075000Y-174700000D03*
D35*
X194275000Y-174700000D03*
X193475000Y-174700000D03*
D34*
X192675000Y-174700000D03*
%TD*%
D28*
%TO.C,P1*%
X191937500Y-293140000D03*
X191937500Y-287360000D03*
D29*
X190737500Y-293575000D03*
X190737500Y-292775000D03*
X190737500Y-291500000D03*
X190737500Y-290500000D03*
X190737500Y-290000000D03*
X190737500Y-292000000D03*
X190737500Y-287725000D03*
X190737500Y-286925000D03*
X190737500Y-287175000D03*
X190737500Y-287975000D03*
X190737500Y-288500000D03*
X190737500Y-289500000D03*
X190737500Y-291000000D03*
X190737500Y-289000000D03*
X190737500Y-292525000D03*
X190737500Y-293325000D03*
D30*
X191437500Y-294570000D03*
D31*
X195587500Y-294570000D03*
D30*
X191437500Y-285930000D03*
D31*
X195587500Y-285930000D03*
%TD*%
M02*
