M48
; DRILL file {KiCad 7.0.5} date Wed 14 Jun 2023 09:03:40 PM CDT
; FORMAT={-:-/ absolute / inch / decimal}
; #@! TF.CreationDate,2023-06-14T21:03:40-05:00
; #@! TF.GenerationSoftware,Kicad,Pcbnew,7.0.5
; #@! TF.FileFunction,Plated,1,2,PTH
FMAT,2
INCH
; #@! TA.AperFunction,Plated,PTH,ViaDrill
T1C0.0157
; #@! TA.AperFunction,Plated,PTH,ComponentDrill
T2C0.0236
; #@! TA.AperFunction,Plated,PTH,ComponentDrill
T3C0.0394
; #@! TA.AperFunction,Plated,PTH,ComponentDrill
T4C0.0591
%
G90
G05
T1
X4.3947Y-2.0472
X4.3947Y-4.4685
X4.3947Y-6.8898
X4.3947Y-9.311
X4.3947Y-11.7323
X4.7195Y-1.8307
X4.7195Y-4.252
X4.7195Y-6.6732
X4.7195Y-9.0945
X4.7195Y-11.5157
X4.749Y-1.6732
X4.749Y-4.0945
X4.749Y-6.5157
X4.749Y-8.937
X4.749Y-11.3583
X5.0049Y-2.0472
X5.0049Y-4.4685
X5.0049Y-6.8898
X5.0049Y-9.311
X5.0049Y-11.7323
X5.7628Y-1.6634
X5.7628Y-4.0846
X5.7628Y-6.5059
X5.7628Y-8.9272
X5.7628Y-11.3484
X5.7923Y-2.0472
X5.7923Y-4.4685
X5.7923Y-6.8898
X5.7923Y-9.311
X5.7923Y-11.7323
X5.8415Y-1.8012
X5.8415Y-4.2224
X5.8415Y-6.6437
X5.8415Y-9.065
X5.8415Y-11.4862
X6.0285Y-1.437
X6.0285Y-3.8583
X6.0285Y-6.2795
X6.0285Y-8.7008
X6.0285Y-11.122
X6.0778Y-1.8996
X6.0778Y-4.3209
X6.0778Y-6.7421
X6.0778Y-9.1634
X6.0778Y-11.5846
X6.1323Y-1.7518
X6.1323Y-4.173
X6.1323Y-6.5943
X6.1323Y-9.0156
X6.1323Y-11.4368
X6.1368Y-1.565
X6.1368Y-3.9862
X6.1368Y-6.4075
X6.1368Y-8.8287
X6.1368Y-11.25
X6.1467Y-1.2992
X6.1467Y-3.7205
X6.1467Y-6.1417
X6.1467Y-8.563
X6.1467Y-10.9843
X6.3435Y-1.6929
X6.3435Y-4.1142
X6.3435Y-6.5354
X6.3435Y-8.9567
X6.3435Y-11.378
X6.3533Y-1.5748
X6.3533Y-1.9094
X6.3533Y-3.9961
X6.3533Y-4.3307
X6.3533Y-6.4173
X6.3533Y-6.752
X6.3533Y-8.8386
X6.3533Y-9.1732
X6.3533Y-11.2598
X6.3533Y-11.5945
X6.3829Y-1.7913
X6.3829Y-4.2126
X6.3829Y-6.6339
X6.3829Y-9.0551
X6.3829Y-11.4764
X6.4026Y-2.0472
X6.4026Y-4.4685
X6.4026Y-6.8898
X6.4026Y-9.311
X6.4026Y-11.7323
X6.4616Y-1.8012
X6.4616Y-4.2224
X6.4616Y-6.6437
X6.4616Y-9.065
X6.4616Y-11.4862
X6.5305Y-1.6043
X6.5305Y-4.0256
X6.5305Y-6.4469
X6.5305Y-8.8681
X6.5305Y-11.2894
X6.5315Y-1.8406
X6.5315Y-4.2618
X6.5315Y-6.6831
X6.5315Y-9.1043
X6.5315Y-11.5256
X6.56Y-2.185
X6.56Y-4.6063
X6.56Y-7.0276
X6.56Y-9.4488
X6.56Y-11.8701
X6.5699Y-1.7913
X6.5699Y-4.2126
X6.5699Y-6.6339
X6.5699Y-9.0551
X6.5699Y-11.4764
X6.5797Y-2.1368
X6.5797Y-4.5581
X6.5797Y-6.9794
X6.5797Y-9.4006
X6.5797Y-11.8219
X6.5989Y-1.968
X6.5989Y-4.3893
X6.5989Y-6.8105
X6.5989Y-9.2318
X6.5989Y-11.6531
X6.6411Y-2.1057
X6.6411Y-4.5269
X6.6411Y-6.9482
X6.6411Y-9.3695
X6.6411Y-11.7907
X6.6585Y-1.6535
X6.6585Y-4.0748
X6.6585Y-6.4961
X6.6585Y-8.9173
X6.6585Y-11.3386
X6.6919Y-2.0817
X6.6919Y-4.5029
X6.6919Y-6.9242
X6.6919Y-9.3455
X6.6919Y-11.7667
X6.8159Y-1.1112
X6.8159Y-3.5325
X6.8159Y-5.9537
X6.8159Y-8.375
X6.8159Y-10.7962
X6.8397Y-2.1358
X6.8397Y-4.5571
X6.8397Y-6.9783
X6.8397Y-9.3996
X6.8397Y-11.8209
X6.8553Y-1.811
X6.8553Y-4.2323
X6.8553Y-6.6535
X6.8553Y-9.0748
X6.8553Y-11.4961
X6.875Y-2.0571
X6.875Y-4.4783
X6.875Y-6.8996
X6.875Y-9.3209
X6.875Y-11.7421
X6.8947Y-1.6929
X6.8947Y-4.1142
X6.8947Y-6.5354
X6.8947Y-8.9567
X6.8947Y-11.378
X6.9144Y-1.811
X6.9144Y-4.2323
X6.9144Y-6.6535
X6.9144Y-9.0748
X6.9144Y-11.4961
X6.9341Y-1.6732
X6.9341Y-4.0945
X6.9341Y-6.5157
X6.9341Y-8.937
X6.9341Y-11.3583
X6.9729Y-1.8115
X6.9729Y-4.2328
X6.9729Y-6.654
X6.9729Y-9.0753
X6.9729Y-11.4965
X6.9734Y-1.5945
X6.9734Y-4.0157
X6.9734Y-6.437
X6.9734Y-8.8583
X6.9734Y-11.2795
X7.003Y-1.4764
X7.003Y-3.8976
X7.003Y-6.3189
X7.003Y-8.7402
X7.003Y-11.1614
X7.0423Y-1.7618
X7.0423Y-1.811
X7.0423Y-4.1831
X7.0423Y-4.2323
X7.0423Y-6.6043
X7.0423Y-6.6535
X7.0423Y-9.0256
X7.0423Y-9.0748
X7.0423Y-11.4469
X7.0423Y-11.4961
X7.0817Y-2.0177
X7.0817Y-2.1161
X7.0817Y-4.439
X7.0817Y-4.5374
X7.0817Y-6.8602
X7.0817Y-6.9587
X7.0817Y-9.2815
X7.0817Y-9.3799
X7.0817Y-11.7028
X7.0817Y-11.8012
X7.0871Y-1.8056
X7.0871Y-4.2269
X7.0871Y-6.6481
X7.0871Y-9.0694
X7.0871Y-11.4907
X7.0915Y-1.5157
X7.0915Y-1.5748
X7.0915Y-1.6929
X7.0915Y-3.937
X7.0915Y-3.9961
X7.0915Y-4.1142
X7.0915Y-6.3583
X7.0915Y-6.4173
X7.0915Y-6.5354
X7.0915Y-8.7795
X7.0915Y-8.8386
X7.0915Y-8.9567
X7.0915Y-11.2008
X7.0915Y-11.2598
X7.0915Y-11.378
X7.1112Y-1.6142
X7.1112Y-4.0354
X7.1112Y-6.4567
X7.1112Y-8.878
X7.1112Y-11.2992
X7.2702Y-1.8898
X7.2702Y-4.311
X7.2702Y-6.7323
X7.2702Y-9.1535
X7.2702Y-11.5748
X7.3474Y-2.2047
X7.3474Y-4.626
X7.3474Y-7.0472
X7.3474Y-9.4685
X7.3474Y-11.8898
X7.5049Y-1.437
X7.5049Y-3.8583
X7.5049Y-6.2795
X7.5049Y-8.7008
X7.5049Y-11.122
X7.5935Y-1.8406
X7.5935Y-4.2618
X7.5935Y-6.6831
X7.5935Y-9.1043
X7.5935Y-11.5256
X7.6329Y-1.6339
X7.6329Y-4.0551
X7.6329Y-6.4764
X7.6329Y-8.8976
X7.6329Y-11.3189
T3
X4.0812Y-1.252
X4.0812Y-1.8228
X4.0812Y-3.6732
X4.0812Y-4.2441
X4.0812Y-6.0945
X4.0812Y-6.6654
X4.0812Y-8.5157
X4.0812Y-9.0866
X4.0812Y-10.937
X4.0812Y-11.5079
X4.1796Y-1.8228
X4.1796Y-4.2441
X4.1796Y-6.6654
X4.1796Y-9.0866
X4.1796Y-11.5079
X4.2781Y-1.252
X4.2781Y-1.8228
X4.2781Y-3.6732
X4.2781Y-4.2441
X4.2781Y-6.0945
X4.2781Y-6.6654
X4.2781Y-8.5157
X4.2781Y-9.0866
X4.2781Y-10.937
X4.2781Y-11.5079
X6.301Y-1.1417
X6.301Y-3.563
X6.301Y-5.9843
X6.301Y-8.4055
X6.301Y-10.8268
X6.401Y-1.1417
X6.401Y-3.563
X6.401Y-5.9843
X6.401Y-8.4055
X6.401Y-10.8268
X6.501Y-1.1417
X6.501Y-3.563
X6.501Y-5.9843
X6.501Y-8.4055
X6.501Y-10.8268
X6.601Y-1.1417
X6.601Y-3.563
X6.601Y-5.9843
X6.601Y-8.4055
X6.601Y-10.8268
X6.701Y-1.1417
X6.701Y-3.563
X6.701Y-5.9843
X6.701Y-8.4055
X6.701Y-10.8268
X6.8112Y-2.2343
X6.8112Y-4.6555
X6.8112Y-7.0768
X6.8112Y-9.498
X6.8112Y-11.9193
X6.9112Y-2.2343
X6.9112Y-4.6555
X6.9112Y-7.0768
X6.9112Y-9.498
X6.9112Y-11.9193
X7.0112Y-2.2343
X7.0112Y-4.6555
X7.0112Y-7.0768
X7.0112Y-9.498
X7.0112Y-11.9193
X7.1112Y-2.2343
X7.1112Y-4.6555
X7.1112Y-7.0768
X7.1112Y-9.498
X7.1112Y-11.9193
X7.2112Y-2.2343
X7.2112Y-4.6555
X7.2112Y-7.0768
X7.2112Y-9.498
X7.2112Y-11.9193
T4
X4.1187Y-2.4984
X4.1187Y-4.9197
X4.1187Y-7.3409
X4.1187Y-9.7622
X4.1187Y-12.1835
X4.3687Y-2.3984
X4.3687Y-4.8197
X4.3687Y-7.2409
X4.3687Y-9.6622
X4.3687Y-12.0835
X4.9089Y-2.4984
X4.9089Y-4.9197
X4.9089Y-7.3409
X4.9089Y-9.7622
X4.9089Y-12.1835
X5.1589Y-2.3984
X5.1589Y-4.8197
X5.1589Y-7.2409
X5.1589Y-9.6622
X5.1589Y-12.0835
X5.699Y-2.4984
X5.699Y-4.9197
X5.699Y-7.3409
X5.699Y-9.7622
X5.699Y-12.1835
X5.949Y-2.3984
X5.949Y-4.8197
X5.949Y-7.2409
X5.949Y-9.6622
X5.949Y-12.0835
X6.4892Y-2.4984
X6.4892Y-4.9197
X6.4892Y-7.3409
X6.4892Y-9.7622
X6.4892Y-12.1835
X6.7392Y-2.3984
X6.7392Y-4.8197
X6.7392Y-7.2409
X6.7392Y-9.6622
X6.7392Y-12.0835
X7.2793Y-2.4984
X7.2793Y-4.9197
X7.2793Y-7.3409
X7.2793Y-9.7622
X7.2793Y-12.1835
X7.5293Y-2.3984
X7.5293Y-4.8197
X7.5293Y-7.2409
X7.5293Y-9.6622
X7.5293Y-12.0835
T2
G00X7.5153Y-1.572
M15
G01X7.5586Y-1.572
M16
G05
G00X7.5153Y-1.9122
M15
G01X7.5586Y-1.9122
M16
G05
G00X7.5153Y-3.9933
M15
G01X7.5586Y-3.9933
M16
G05
G00X7.5153Y-4.3335
M15
G01X7.5586Y-4.3335
M16
G05
G00X7.5153Y-6.4146
M15
G01X7.5586Y-6.4146
M16
G05
G00X7.5153Y-6.7547
M15
G01X7.5586Y-6.7547
M16
G05
G00X7.5153Y-8.8358
M15
G01X7.5586Y-8.8358
M16
G05
G00X7.5153Y-9.176
M15
G01X7.5586Y-9.176
M16
G05
G00X7.5153Y-11.2571
M15
G01X7.5586Y-11.2571
M16
G05
G00X7.5153Y-11.5972
M15
G01X7.5586Y-11.5972
M16
G05
G00X7.6845Y-1.572
M15
G01X7.716Y-1.572
M16
G05
G00X7.6845Y-1.9122
M15
G01X7.716Y-1.9122
M16
G05
G00X7.6845Y-3.9933
M15
G01X7.716Y-3.9933
M16
G05
G00X7.6845Y-4.3335
M15
G01X7.716Y-4.3335
M16
G05
G00X7.6845Y-6.4146
M15
G01X7.716Y-6.4146
M16
G05
G00X7.6845Y-6.7547
M15
G01X7.716Y-6.7547
M16
G05
G00X7.6845Y-8.8358
M15
G01X7.716Y-8.8358
M16
G05
G00X7.6845Y-9.176
M15
G01X7.716Y-9.176
M16
G05
G00X7.6845Y-11.2571
M15
G01X7.716Y-11.2571
M16
G05
G00X7.6845Y-11.5972
M15
G01X7.716Y-11.5972
M16
G05
T4
G00X3.9631Y-1.5059
M15
G01X3.9631Y-1.5492
M16
G05
G00X3.9631Y-3.9272
M15
G01X3.9631Y-3.9705
M16
G05
G00X3.9631Y-6.3484
M15
G01X3.9631Y-6.3917
M16
G05
G00X3.9631Y-8.7697
M15
G01X3.9631Y-8.813
M16
G05
G00X3.9631Y-11.1909
M15
G01X3.9631Y-11.2343
M16
G05
G00X4.3962Y-1.5059
M15
G01X4.3962Y-1.5492
M16
G05
G00X4.3962Y-3.9272
M15
G01X4.3962Y-3.9705
M16
G05
G00X4.3962Y-6.3484
M15
G01X4.3962Y-6.3917
M16
G05
G00X4.3962Y-8.7697
M15
G01X4.3962Y-8.813
M16
G05
G00X4.3962Y-11.1909
M15
G01X4.3962Y-11.2343
M16
G05
T0
M30
