M48
; DRILL file {KiCad 7.0.5} date Wed 14 Jun 2023 09:03:40 PM CDT
; FORMAT={-:-/ absolute / inch / decimal}
; #@! TF.CreationDate,2023-06-14T21:03:40-05:00
; #@! TF.GenerationSoftware,Kicad,Pcbnew,7.0.5
; #@! TF.FileFunction,NonPlated,1,2,NPTH
FMAT,2
INCH
; #@! TA.AperFunction,NonPlated,NPTH,ComponentDrill
T1C0.0197
; #@! TA.AperFunction,NonPlated,NPTH,ComponentDrill
T2C0.0256
; #@! TA.AperFunction,NonPlated,NPTH,ComponentDrill
T3C0.0295
; #@! TA.AperFunction,NonPlated,NPTH,ComponentDrill
T4C0.0354
; #@! TA.AperFunction,NonPlated,NPTH,ComponentDrill
T5C0.0610
; #@! TA.AperFunction,NonPlated,NPTH,ComponentDrill
T6C0.0669
; #@! TA.AperFunction,NonPlated,NPTH,ComponentDrill
T7C0.0807
; #@! TA.AperFunction,NonPlated,NPTH,ComponentDrill
T8C0.1260
; #@! TA.AperFunction,NonPlated,NPTH,ComponentDrill
T9C0.1575
%
G90
G05
T1
X3.627Y-1.063
X3.627Y-13.0118
X3.6663Y-1.063
X3.6663Y-13.0118
X3.7057Y-1.063
X3.7057Y-13.0118
X3.7451Y-1.063
X3.7451Y-13.0118
X3.7844Y-1.063
X3.7844Y-13.0118
X3.8829Y-0.8071
X3.8829Y-0.8465
X3.8829Y-0.8858
X3.8829Y-0.9252
X3.8829Y-0.9646
X3.8829Y-13.1102
X3.8829Y-13.1496
X3.8829Y-13.189
X3.8829Y-13.2283
X3.8829Y-13.2677
X3.8907Y-2.1161
X3.8907Y-2.1555
X3.8907Y-2.1949
X3.8907Y-2.2343
X3.8907Y-2.2736
X3.8907Y-4.5374
X3.8907Y-4.5768
X3.8907Y-4.6161
X3.8907Y-4.6555
X3.8907Y-4.6949
X3.8907Y-6.9587
X3.8907Y-6.998
X3.8907Y-7.0374
X3.8907Y-7.0768
X3.8907Y-7.1161
X3.8907Y-9.3799
X3.8907Y-9.4193
X3.8907Y-9.4587
X3.8907Y-9.498
X3.8907Y-9.5374
X3.8907Y-11.8012
X3.8907Y-11.8406
X3.8907Y-11.8799
X3.8907Y-11.9193
X3.8907Y-11.9587
X5.1132Y-3.3185
X5.1132Y-5.7397
X5.1132Y-8.161
X5.1132Y-10.5823
X5.1132Y-13.0035
X5.1132Y-1.0709
X5.1132Y-3.4921
X5.1132Y-5.9134
X5.1132Y-8.3346
X5.1132Y-10.7559
X5.1526Y-3.3185
X5.1526Y-5.7397
X5.1526Y-8.161
X5.1526Y-10.5823
X5.1526Y-13.0035
X5.1526Y-1.0709
X5.1526Y-3.4921
X5.1526Y-5.9134
X5.1526Y-8.3346
X5.1526Y-10.7559
X5.1919Y-3.3185
X5.1919Y-5.7397
X5.1919Y-8.161
X5.1919Y-10.5822
X5.1919Y-13.0035
X5.1919Y-1.0709
X5.1919Y-3.4921
X5.1919Y-5.9134
X5.1919Y-8.3346
X5.1919Y-10.7559
X5.2313Y-3.3184
X5.2313Y-5.7397
X5.2313Y-8.161
X5.2313Y-10.5822
X5.2313Y-13.0035
X5.2313Y-1.0709
X5.2313Y-3.4921
X5.2313Y-5.9134
X5.2313Y-8.3346
X5.2313Y-10.7559
X5.2707Y-3.3184
X5.2707Y-5.7397
X5.2707Y-8.1609
X5.2707Y-10.5822
X5.2707Y-13.0035
X5.2707Y-1.0709
X5.2707Y-3.4921
X5.2707Y-5.9134
X5.2707Y-8.3346
X5.2707Y-10.7559
X6.4222Y-3.318
X6.4222Y-5.7392
X6.4222Y-8.1605
X6.4222Y-10.5817
X6.4222Y-13.003
X6.4222Y-1.0709
X6.4222Y-3.4921
X6.4222Y-5.9134
X6.4222Y-8.3346
X6.4222Y-10.7559
X6.4616Y-3.318
X6.4616Y-5.7392
X6.4616Y-8.1605
X6.4616Y-10.5817
X6.4616Y-13.003
X6.4616Y-1.0709
X6.4616Y-3.4921
X6.4616Y-5.9134
X6.4616Y-8.3346
X6.4616Y-10.7559
X6.501Y-3.3179
X6.501Y-5.7392
X6.501Y-8.1605
X6.501Y-10.5817
X6.501Y-13.003
X6.501Y-1.0709
X6.501Y-3.4921
X6.501Y-5.9134
X6.501Y-8.3346
X6.501Y-10.7559
X6.5404Y-3.3179
X6.5404Y-5.7392
X6.5404Y-8.1604
X6.5404Y-10.5817
X6.5404Y-13.003
X6.5404Y-1.0709
X6.5404Y-3.4921
X6.5404Y-5.9134
X6.5404Y-8.3346
X6.5404Y-10.7559
X6.5797Y-3.3179
X6.5797Y-5.7392
X6.5797Y-8.1604
X6.5797Y-10.5817
X6.5797Y-13.0029
X6.5797Y-1.0709
X6.5797Y-3.4921
X6.5797Y-5.9134
X6.5797Y-8.3346
X6.5797Y-10.7559
X7.8014Y-2.2736
X7.8014Y-4.6949
X7.8014Y-7.1161
X7.8014Y-9.5374
X7.8014Y-11.9587
X7.8014Y-2.2342
X7.8014Y-4.6555
X7.8014Y-7.0768
X7.8014Y-9.498
X7.8014Y-11.9193
X7.8015Y-2.1949
X7.8015Y-4.6161
X7.8015Y-7.0374
X7.8015Y-9.4587
X7.8015Y-11.8799
X7.8015Y-2.1555
X7.8015Y-4.5768
X7.8015Y-6.998
X7.8015Y-9.4193
X7.8015Y-11.8405
X7.8015Y-2.1161
X7.8015Y-4.5374
X7.8015Y-6.9587
X7.8015Y-9.3799
X7.8015Y-11.8012
X7.81Y-0.8071
X7.81Y-0.8465
X7.81Y-0.8858
X7.81Y-0.9252
X7.81Y-0.9646
X7.81Y-13.1102
X7.81Y-13.1496
X7.81Y-13.189
X7.81Y-13.2283
X7.81Y-13.2677
X7.9085Y-1.063
X7.9085Y-13.0118
X7.9478Y-1.063
X7.9478Y-13.0118
X7.9872Y-1.063
X7.9872Y-13.0118
X8.0266Y-1.063
X8.0266Y-13.0118
X8.0659Y-1.063
X8.0659Y-13.0118
T2
X7.5566Y-1.6283
X7.5566Y-1.8559
X7.5566Y-4.0496
X7.5566Y-4.2772
X7.5566Y-6.4709
X7.5566Y-6.6984
X7.5566Y-8.8921
X7.5566Y-9.1197
X7.5566Y-11.3134
X7.5566Y-11.5409
T3
X7.3947Y-1.122
X7.3947Y-3.5433
X7.3947Y-5.9646
X7.3947Y-8.3858
X7.3947Y-10.8071
X7.4852Y-1.122
X7.4852Y-3.5433
X7.4852Y-5.9646
X7.4852Y-8.3858
X7.4852Y-10.8071
T4
X5.9299Y-1.122
X5.9299Y-3.5433
X5.9299Y-5.9646
X5.9299Y-8.3858
X5.9299Y-10.8071
X6.048Y-1.122
X6.048Y-3.5433
X6.048Y-5.9646
X6.048Y-8.3858
X6.048Y-10.8071
T6
X4.0687Y-2.5984
X4.0687Y-5.0197
X4.0687Y-7.4409
X4.0687Y-9.8622
X4.0687Y-12.2835
X4.4687Y-2.5984
X4.4687Y-5.0197
X4.4687Y-7.4409
X4.4687Y-9.8622
X4.4687Y-12.2835
X4.8589Y-2.5984
X4.8589Y-5.0197
X4.8589Y-7.4409
X4.8589Y-9.8622
X4.8589Y-12.2835
X5.2589Y-2.5984
X5.2589Y-5.0197
X5.2589Y-7.4409
X5.2589Y-9.8622
X5.2589Y-12.2835
X5.649Y-2.5984
X5.649Y-5.0197
X5.649Y-7.4409
X5.649Y-9.8622
X5.649Y-12.2835
X6.049Y-2.5984
X6.049Y-5.0197
X6.049Y-7.4409
X6.049Y-9.8622
X6.049Y-12.2835
X6.4392Y-2.5984
X6.4392Y-5.0197
X6.4392Y-7.4409
X6.4392Y-9.8622
X6.4392Y-12.2835
X6.8392Y-2.5984
X6.8392Y-5.0197
X6.8392Y-7.4409
X6.8392Y-9.8622
X6.8392Y-12.2835
X7.2293Y-2.5984
X7.2293Y-5.0197
X7.2293Y-7.4409
X7.2293Y-9.8622
X7.2293Y-12.2835
X7.6293Y-2.5984
X7.6293Y-5.0197
X7.6293Y-7.4409
X7.6293Y-9.8622
X7.6293Y-12.2835
T7
X4.1796Y-1.5276
X4.1796Y-3.9488
X4.1796Y-6.3701
X4.1796Y-8.7913
X4.1796Y-11.2126
T8
X4.0797Y-3.1496
X4.0797Y-5.5709
X4.0797Y-7.9921
X4.0797Y-10.4134
X4.0797Y-12.8346
X4.4931Y-1.2205
X4.4931Y-3.6417
X4.4931Y-6.063
X4.4931Y-8.4843
X4.4931Y-10.9055
X7.623Y-3.1496
X7.623Y-5.5709
X7.623Y-7.9921
X7.623Y-10.4134
X7.623Y-12.8346
X7.6624Y-1.2992
X7.6624Y-3.7205
X7.6624Y-6.1417
X7.6624Y-8.563
X7.6624Y-10.9843
T9
X4.2687Y-2.5984
X4.2687Y-5.0197
X4.2687Y-7.4409
X4.2687Y-9.8622
X4.2687Y-12.2835
X5.0589Y-2.5984
X5.0589Y-5.0197
X5.0589Y-7.4409
X5.0589Y-9.8622
X5.0589Y-12.2835
X5.849Y-2.5984
X5.849Y-5.0197
X5.849Y-7.4409
X5.849Y-9.8622
X5.849Y-12.2835
X6.6392Y-2.5984
X6.6392Y-5.0197
X6.6392Y-7.4409
X6.6392Y-9.8622
X6.6392Y-12.2835
X7.4293Y-2.5984
X7.4293Y-5.0197
X7.4293Y-7.4409
X7.4293Y-9.8622
X7.4293Y-12.2835
T5
G00X4.1796Y-1.3376
M15
G01X4.1796Y-1.3632
M16
G05
G00X4.1796Y-3.7589
M15
G01X4.1796Y-3.7844
M16
G05
G00X4.1796Y-6.1801
M15
G01X4.1796Y-6.2057
M16
G05
G00X4.1796Y-8.6014
M15
G01X4.1796Y-8.627
M16
G05
G00X4.1796Y-11.0226
M15
G01X4.1796Y-11.0482
M16
G05
T0
M30
