M48
; DRILL file {KiCad (5.99.0-9526-g5c17ff0595)} date Mon Jul  5 19:36:58 2021
; FORMAT={-:-/ absolute / inch / decimal}
; #@! TF.CreationDate,2021-07-05T19:36:58-05:00
; #@! TF.GenerationSoftware,Kicad,Pcbnew,(5.99.0-9526-g5c17ff0595)
; #@! TF.FileFunction,NonPlated,1,2,NPTH
FMAT,2
INCH
T1C0.0256
T2C0.0354
T3C0.0610
T4C0.0669
T5C0.0807
T6C0.0941
T7C0.1201
T8C0.1358
T9C0.1575
%
G90
G05
T1
X6.0909Y-1.3853
X6.3185Y-1.3853
T2
X2.3622Y-1.8307
X2.3622Y-1.9488
T4
X2.6071Y-3.0344
X2.6071Y-3.7982
X2.6071Y-4.562
X2.6071Y-5.3257
X2.6071Y-6.0895
X2.6071Y-6.8533
X3.0071Y-3.0344
X3.0071Y-3.7982
X3.0071Y-4.562
X3.0071Y-5.3257
X3.0071Y-6.0895
X3.0071Y-6.8533
X3.3669Y-6.8535
X3.3709Y-4.562
X3.3709Y-5.3257
X3.3709Y-6.0895
X3.7669Y-6.8535
X3.7709Y-4.562
X3.7709Y-5.3257
X3.7709Y-6.0895
X4.1346Y-4.562
X4.1346Y-5.3257
X4.1346Y-6.0895
X4.1346Y-6.8543
X4.5346Y-4.562
X4.5346Y-5.3257
X4.5346Y-6.0895
X4.5346Y-6.8543
X4.8984Y-3.0344
X4.8984Y-3.7982
X4.8984Y-4.562
X4.8984Y-5.3257
X4.8984Y-6.0895
X4.8984Y-6.8533
X5.2984Y-3.0344
X5.2984Y-3.7982
X5.2984Y-4.562
X5.2984Y-5.3257
X5.2984Y-6.0895
X5.2984Y-6.8533
X5.6606Y-6.4675
X5.6622Y-3.0344
X5.6622Y-3.7982
X5.6622Y-4.563
X5.6622Y-5.3268
X6.0606Y-6.4675
X6.0622Y-3.0344
X6.0622Y-3.7982
X6.0622Y-4.563
X6.0622Y-5.3268
T5
X2.6319Y-2.3465
T6
X5.7492Y-1.2992
T7
X5.585Y-5.999
X5.585Y-6.936
T8
X3.248Y-1.2992
X5.4213Y-1.9291
T9
X2.8071Y-3.0344
X2.8071Y-3.7982
X2.8071Y-4.562
X2.8071Y-5.3257
X2.8071Y-6.0895
X2.8071Y-6.8533
X3.5669Y-6.8535
X3.5709Y-4.562
X3.5709Y-5.3257
X3.5709Y-6.0895
X4.3346Y-4.562
X4.3346Y-5.3257
X4.3346Y-6.0895
X4.3346Y-6.8543
X5.0984Y-3.0344
X5.0984Y-3.7982
X5.0984Y-4.562
X5.0984Y-5.3257
X5.0984Y-6.0895
X5.0984Y-6.8533
X5.8606Y-6.4675
X5.8622Y-3.0344
X5.8622Y-3.7982
X5.8622Y-4.563
X5.8622Y-5.3268
X6.185Y-5.999
X6.185Y-6.936
T3
G00X2.4419Y-2.3465
M15
G01X2.4675Y-2.3465
M16
G05
T0
M30
