M48
; DRILL file {KiCad (5.99.0-9526-g5c17ff0595)} date Mon Jul  5 19:36:58 2021
; FORMAT={-:-/ absolute / inch / decimal}
; #@! TF.CreationDate,2021-07-05T19:36:58-05:00
; #@! TF.GenerationSoftware,Kicad,Pcbnew,(5.99.0-9526-g5c17ff0595)
; #@! TF.FileFunction,Plated,1,2,PTH
FMAT,2
INCH
T1C0.0157
T2C0.0236
T3C0.0394
T4C0.0591
T5C0.1661
T6C0.2362
%
G90
G05
T1
X2.5433Y-1.6535
X2.6063Y-5.5197
X2.6063Y-5.5984
X2.6142Y-3.9764
X2.7008Y-4.1417
X2.7008Y-4.6929
X2.7874Y-5.9528
X2.8661Y-3.1339
X2.8701Y-1.3819
X2.8898Y-5.7323
X2.937Y-4.622
X2.939Y-2.7421
X2.9488Y-5.8228
X2.9685Y-3.1339
X3.0Y-4.0394
X3.0197Y-7.1575
X3.0236Y-3.2441
X3.0236Y-3.937
X3.0295Y-6.2913
X3.0394Y-2.3228
X3.0551Y-6.3543
X3.0669Y-4.8228
X3.0669Y-5.586
X3.0709Y-4.252
X3.0768Y-4.7382
X3.0906Y-5.8642
X3.126Y-3.0394
X3.126Y-7.0866
X3.1339Y-5.5433
X3.1417Y-6.0
X3.1811Y-4.252
X3.2047Y-4.6693
X3.252Y-6.2677
X3.2835Y-4.8504
X3.3465Y-7.1181
X3.3543Y-5.5984
X3.3701Y-5.5039
X3.3858Y-7.0472
X3.5748Y-1.7795
X3.748Y-4.7638
X3.748Y-6.3228
X3.7638Y-2.2904
X3.7638Y-4.685
X3.7874Y-2.4331
X3.8019Y-2.0563
X3.8031Y-2.2756
X3.8031Y-5.5512
X3.874Y-7.0945
X3.8898Y-5.6772
X3.8939Y-6.2614
X3.9291Y-1.9291
X3.9685Y-5.8898
X3.9764Y-2.4331
X4.0106Y-2.1784
X4.0551Y-6.2677
X4.0709Y-4.874
X4.1102Y-4.6772
X4.1102Y-7.1181
X4.126Y-5.5984
X4.126Y-7.0472
X4.1417Y-5.5118
X4.3543Y-2.3622
X4.378Y-2.6772
X4.378Y-2.9921
X4.4803Y-2.4016
X4.5039Y-2.4567
X4.5039Y-6.3228
X4.5118Y-4.7717
X4.5276Y-4.6929
X4.5591Y-2.0709
X4.5669Y-1.9213
X4.5748Y-6.2598
X4.5827Y-2.3937
X4.5945Y-2.9291
X4.6083Y-2.7067
X4.6378Y-5.6929
X4.6693Y-5.9291
X4.6772Y-7.0787
X4.7323Y-2.6693
X4.7638Y-4.6772
X4.7717Y-5.5433
X4.7874Y-3.9055
X4.811Y-6.252
X4.8268Y-3.126
X4.8504Y-3.2047
X4.8558Y-2.8775
X4.8583Y-4.8583
X4.8661Y-5.5748
X4.8819Y-7.0866
X4.8898Y-3.9685
X4.8976Y-3.9213
X4.9199Y-5.5039
X4.9528Y-6.9921
X4.9685Y-2.5039
X4.9921Y-4.6614
X5.0551Y-2.3858
X5.063Y-2.063
X5.0709Y-2.1811
X5.0748Y-2.7736
X5.1142Y-2.7539
X5.2047Y-6.1969
X5.2779Y-6.2227
X5.2835Y-3.2441
X5.2913Y-4.6929
X5.2913Y-4.7717
X5.2913Y-7.0236
X5.2992Y-5.5354
X5.3504Y-6.5354
X5.3858Y-6.6535
X5.4173Y-5.5276
X5.4409Y-3.2126
X5.4409Y-4.0866
X5.4783Y-6.5098
X5.4803Y-2.4724
X5.5354Y-4.8583
X5.5394Y-2.751
X5.5591Y-3.2992
X5.5591Y-3.9134
X5.5669Y-4.6772
X5.5748Y-6.7165
X5.5768Y-2.7933
X5.5984Y-2.1654
X5.6142Y-5.5039
X5.6142Y-5.5748
X5.626Y-1.3031
X5.6339Y-6.6811
X5.6437Y-6.1594
X5.6535Y-3.9606
X5.6535Y-4.1969
X5.6929Y-6.8189
X5.7303Y-2.6614
X5.7402Y-2.1102
X5.7559Y-4.9469
X5.8266Y-2.4641
X5.8268Y-2.5433
X5.8273Y-2.5034
X5.8287Y-2.687
X5.8302Y-2.343
X5.874Y-2.6909
X5.8898Y-4.9134
X5.9252Y-2.689
X5.9291Y-1.998
X5.9383Y-2.3199
X5.9449Y-2.436
X5.946Y-2.3955
X5.9528Y-2.2205
X5.9528Y-3.5197
X5.9843Y-2.3228
X5.9921Y-2.2283
X5.9921Y-2.9921
X6.0079Y-2.0315
X6.0157Y-4.8346
X6.0236Y-2.7087
X6.0315Y-2.5354
X6.0394Y-2.2283
X6.0394Y-6.6378
X6.0551Y-4.7087
X6.0709Y-2.0236
X6.0709Y-2.7244
X6.0789Y-2.2285
X6.0866Y-2.5354
X6.1024Y-2.7764
X6.1102Y-2.8819
X6.1181Y-2.0236
X6.122Y-1.3701
X6.122Y-1.7303
X6.1969Y-4.7874
X6.2126Y-4.0768
X6.2421Y-3.6949
X6.2736Y-1.3504
X6.3425Y-1.4961
T3
X2.3563Y-2.248
X2.3563Y-2.4449
X2.9272Y-2.248
X2.9272Y-2.3465
X2.9272Y-2.4449
X3.8122Y-4.063
X3.9122Y-4.063
X4.0122Y-4.063
X4.1122Y-4.063
X4.9183Y-2.126
X5.0183Y-2.126
X5.1183Y-2.126
X5.2183Y-2.126
X5.3183Y-2.126
X6.3465Y-3.1992
X6.3465Y-3.2992
X6.3465Y-3.3992
X6.3465Y-3.4992
X6.3465Y-3.5992
T4
X2.6571Y-2.9344
X2.6571Y-3.6982
X2.6571Y-4.462
X2.6571Y-5.2257
X2.6571Y-5.9895
X2.6571Y-6.7533
X2.9071Y-2.8344
X2.9071Y-3.5982
X2.9071Y-4.362
X2.9071Y-5.1257
X2.9071Y-5.8895
X2.9071Y-6.6533
X3.4169Y-6.7535
X3.4209Y-4.462
X3.4209Y-5.2257
X3.4209Y-5.9895
X3.6669Y-6.6535
X3.6709Y-4.362
X3.6709Y-5.1257
X3.6709Y-5.8895
X4.1846Y-4.462
X4.1846Y-5.2257
X4.1846Y-5.9895
X4.1846Y-6.7543
X4.4346Y-4.362
X4.4346Y-5.1257
X4.4346Y-5.8895
X4.4346Y-6.6543
X4.9484Y-2.9344
X4.9484Y-3.6982
X4.9484Y-4.462
X4.9484Y-5.2257
X4.9484Y-5.9895
X4.9484Y-6.7533
X5.1984Y-2.8344
X5.1984Y-3.5982
X5.1984Y-4.362
X5.1984Y-5.1257
X5.1984Y-5.8895
X5.1984Y-6.6533
X5.7106Y-6.3675
X5.7122Y-2.9344
X5.7122Y-3.6982
X5.7122Y-4.463
X5.7122Y-5.2268
X5.9606Y-6.2675
X5.9622Y-2.8344
X5.9622Y-3.5982
X5.9622Y-4.363
X5.9622Y-5.1268
T5
X2.4173Y-4.9449
X2.4173Y-7.248
X6.2717Y-4.9449
X6.2717Y-7.248
T6
X4.3456Y-0.9016
T2
G00X6.0346Y-1.2259
M15
G01X6.0346Y-1.2574
M16
G05
G00X6.0346Y-1.3834
M15
G01X6.0346Y-1.4267
M16
G05
G00X6.3748Y-1.2259
M15
G01X6.3748Y-1.2574
M16
G05
G00X6.3748Y-1.3834
M15
G01X6.3748Y-1.4267
M16
G05
T4
G00X2.6102Y-2.1299
M15
G01X2.6535Y-2.1299
M16
G05
G00X2.6102Y-2.563
M15
G01X2.6535Y-2.563
M16
G05
T0
M30
