%TF.GenerationSoftware,KiCad,Pcbnew,(5.99.0-9526-g5c17ff0595)*%
%TF.CreationDate,2021-07-05T19:36:55-05:00*%
%TF.ProjectId,Cafebabe,43616665-6261-4626-952e-6b696361645f,rev?*%
%TF.SameCoordinates,Original*%
%TF.FileFunction,Profile,NP*%
%FSLAX46Y46*%
G04 Gerber Fmt 4.6, Leading zero omitted, Abs format (unit mm)*
G04 Created by KiCad (PCBNEW (5.99.0-9526-g5c17ff0595)) date 2021-07-05 19:36:55*
%MOMM*%
%LPD*%
G01*
G04 APERTURE LIST*
%TA.AperFunction,Profile*%
%ADD10C,0.100000*%
%TD*%
%TA.AperFunction,Profile*%
%ADD11C,0.120000*%
%TD*%
G04 APERTURE END LIST*
D10*
X107450848Y-15758490D02*
X107921020Y-15624976D01*
X119859728Y-22274705D02*
X119993242Y-22744877D01*
X100339856Y-28340521D02*
X100412854Y-28120041D01*
X101090404Y-21814339D02*
X101267809Y-21364401D01*
X114692705Y-16290082D02*
X115119918Y-16508888D01*
X120701923Y-28535034D02*
X120812865Y-28705694D01*
X104857529Y-17005176D02*
X105259527Y-16747460D01*
X162944365Y-31200000D02*
X162944365Y-186344365D01*
X104469072Y-17281414D02*
X104857529Y-17005176D01*
X100934634Y-22274705D02*
X101090404Y-21814339D01*
X99807796Y-29020830D02*
X99981695Y-28885863D01*
X101685031Y-20498301D02*
X101923603Y-20083384D01*
X120377778Y-27394039D02*
X120467146Y-27897262D01*
X120942576Y-28850926D02*
X121092510Y-28968051D01*
X116325290Y-17281414D02*
X116699583Y-17575550D01*
X115534835Y-16747460D02*
X115936833Y-17005176D01*
X99981695Y-28885863D02*
X100126714Y-28725867D01*
X119328136Y-20925514D02*
X119526553Y-21364401D01*
X102181319Y-19681386D02*
X102457557Y-19292929D01*
X120305172Y-25221038D02*
X120307795Y-26296708D01*
X100540344Y-24208004D02*
X100603352Y-23712149D01*
X118336805Y-19292929D02*
X118613043Y-19681386D01*
X100489190Y-25221040D02*
X100489190Y-25221038D01*
X103735272Y-17886963D02*
X104094779Y-17575550D01*
X111906070Y-15427209D02*
X112393987Y-15514342D01*
X100526797Y-27376584D02*
X100539588Y-26836944D01*
X116699583Y-17575550D02*
X117059090Y-17886963D01*
X106101657Y-16290082D02*
X106540544Y-16091666D01*
X103391174Y-18215030D02*
X103735272Y-17886963D01*
X120292280Y-24711174D02*
X120305172Y-25221038D01*
X117731255Y-18559129D02*
X118042668Y-18918636D01*
X120328543Y-26853379D02*
X120377778Y-27394039D01*
X100245288Y-28543274D02*
X100339856Y-28340521D01*
X101923603Y-20083384D02*
X102181319Y-19681386D01*
X105259527Y-16747460D02*
X105674444Y-16508888D01*
X120608293Y-28341623D02*
X120701923Y-28535034D01*
X100801120Y-22744877D02*
X100934634Y-22274705D01*
X113343514Y-15758490D02*
X113803880Y-15914261D01*
X104094779Y-17575550D02*
X104469072Y-17281414D01*
X110907045Y-15325939D02*
X111410215Y-15364200D01*
X106540544Y-16091666D02*
X106990482Y-15914261D01*
X117403189Y-18215030D02*
X117731255Y-18559129D01*
X120307795Y-26296708D02*
X120328543Y-26853379D01*
X100412854Y-28120041D02*
X100466718Y-27884268D01*
X57900000Y-186500000D02*
X57955635Y-31200000D01*
X100603352Y-23712149D02*
X100690485Y-23224232D01*
X101267809Y-21364401D02*
X101466226Y-20925514D01*
X111410215Y-15364200D02*
X111906070Y-15427209D01*
X120191010Y-23712149D02*
X120254018Y-24208004D01*
X100539588Y-26836944D02*
X100524586Y-26284823D01*
X117059090Y-17886963D02*
X117403189Y-18215030D01*
X102457557Y-19292929D02*
X102751694Y-18918636D01*
X109384147Y-15364200D02*
X109887317Y-15325939D01*
X162944365Y-31200000D02*
G75*
G03*
X160744365Y-29000000I-2200000J0D01*
G01*
X160744365Y-188544365D02*
X60100000Y-188700000D01*
X109887317Y-15325939D02*
X110397181Y-15313047D01*
X112873342Y-15624976D02*
X113343514Y-15758490D01*
X118042668Y-18918636D02*
X118336805Y-19292929D01*
X120530519Y-28128139D02*
X120608293Y-28341623D01*
X119993242Y-22744877D02*
X120103877Y-23224232D01*
X110397181Y-15313047D02*
X110907045Y-15325939D01*
X60155635Y-29000000D02*
X99807796Y-29020830D01*
X100126714Y-28725867D02*
X100245288Y-28543274D01*
X103063107Y-18559129D02*
X103391174Y-18215030D01*
X57955635Y-31200000D02*
G75*
G02*
X60155635Y-29000000I2200000J0D01*
G01*
X120103877Y-23224232D02*
X120191010Y-23712149D01*
X101466226Y-20925514D02*
X101685031Y-20498301D01*
X119526553Y-21364401D02*
X119703958Y-21814339D01*
X112393987Y-15514342D02*
X112873342Y-15624976D01*
X120467146Y-27897262D02*
X120530519Y-28128139D01*
X121092510Y-28968051D02*
X160744365Y-29000000D01*
X100501288Y-25739696D02*
X100489190Y-25221040D01*
X100489190Y-25221038D02*
X100489190Y-25221038D01*
X108400375Y-15514342D02*
X108888292Y-15427209D01*
X118870759Y-20083384D02*
X119109331Y-20498301D01*
X115119918Y-16508888D02*
X115534835Y-16747460D01*
X107921020Y-15624976D02*
X108400375Y-15514342D01*
X120254018Y-24208004D02*
X120292280Y-24711174D01*
X114253818Y-16091666D02*
X114692705Y-16290082D01*
X57900000Y-186500000D02*
G75*
G03*
X60100000Y-188700000I2200000J0D01*
G01*
X100466718Y-27884268D02*
X100503887Y-27635638D01*
X108888292Y-15427209D02*
X109384147Y-15364200D01*
X119109331Y-20498301D02*
X119328136Y-20925514D01*
X113803880Y-15914261D02*
X114253818Y-16091666D01*
X106990482Y-15914261D02*
X107450848Y-15758490D01*
X105674444Y-16508888D02*
X106101657Y-16290082D01*
X115936833Y-17005176D02*
X116325290Y-17281414D01*
X100502082Y-24711174D02*
X100540344Y-24208004D01*
X100524586Y-26284823D02*
X100501288Y-25739696D01*
X100489190Y-25221038D02*
X100502082Y-24711174D01*
X160744365Y-188544365D02*
G75*
G03*
X162944365Y-186344365I0J2200000D01*
G01*
X100503887Y-27635638D02*
X100526797Y-27376584D01*
X118613043Y-19681386D02*
X118870759Y-20083384D01*
X102751694Y-18918636D02*
X103063107Y-18559129D01*
X100690485Y-23224232D02*
X100801120Y-22744877D01*
X120812865Y-28705694D02*
X120942576Y-28850926D01*
X119703958Y-21814339D02*
X119859728Y-22274705D01*
D11*
%TO.C,D21*%
X88800000Y-119200000D02*
X92600000Y-119200000D01*
X92600000Y-119200000D02*
X92600000Y-122800000D01*
X92600000Y-122800000D02*
X88800000Y-122800000D01*
X88800000Y-122800000D02*
X88800000Y-119200000D01*
%TO.C,D22*%
X88800000Y-158000000D02*
X92600000Y-158000000D01*
X92600000Y-158000000D02*
X92600000Y-161600000D01*
X92600000Y-161600000D02*
X88800000Y-161600000D01*
X88800000Y-161600000D02*
X88800000Y-158000000D01*
%TO.C,D10*%
X112000000Y-181000000D02*
X108200000Y-181000000D01*
X108200000Y-181000000D02*
X108200000Y-177400000D01*
X108200000Y-177400000D02*
X112000000Y-177400000D01*
X112000000Y-177400000D02*
X112000000Y-181000000D01*
%TO.C,D13*%
X92500000Y-181000000D02*
X88700000Y-181000000D01*
X88700000Y-181000000D02*
X88700000Y-177400000D01*
X88700000Y-177400000D02*
X92500000Y-177400000D01*
X92500000Y-177400000D02*
X92500000Y-181000000D01*
%TO.C,D7*%
X131400000Y-181000000D02*
X127600000Y-181000000D01*
X127600000Y-181000000D02*
X127600000Y-177400000D01*
X127600000Y-177400000D02*
X131400000Y-177400000D01*
X131400000Y-177400000D02*
X131400000Y-181000000D01*
%TO.C,D19*%
X69400000Y-119200000D02*
X73200000Y-119200000D01*
X73200000Y-119200000D02*
X73200000Y-122800000D01*
X73200000Y-122800000D02*
X69400000Y-122800000D01*
X69400000Y-122800000D02*
X69400000Y-119200000D01*
%TO.C,D24*%
X108200000Y-158000000D02*
X112000000Y-158000000D01*
X112000000Y-158000000D02*
X112000000Y-161600000D01*
X112000000Y-161600000D02*
X108200000Y-161600000D01*
X108200000Y-161600000D02*
X108200000Y-158000000D01*
%TO.C,D16*%
X73200000Y-181000000D02*
X69400000Y-181000000D01*
X69400000Y-181000000D02*
X69400000Y-177400000D01*
X69400000Y-177400000D02*
X73200000Y-177400000D01*
X73200000Y-177400000D02*
X73200000Y-181000000D01*
%TO.C,D2*%
X73200000Y-84000000D02*
X69400000Y-84000000D01*
X69400000Y-84000000D02*
X69400000Y-80400000D01*
X69400000Y-80400000D02*
X73200000Y-80400000D01*
X73200000Y-80400000D02*
X73200000Y-84000000D01*
%TO.C,D26*%
X127600000Y-158000000D02*
X131400000Y-158000000D01*
X131400000Y-158000000D02*
X131400000Y-161600000D01*
X131400000Y-161600000D02*
X127600000Y-161600000D01*
X127600000Y-161600000D02*
X127600000Y-158000000D01*
%TO.C,D12*%
X112000000Y-142200000D02*
X108200000Y-142200000D01*
X108200000Y-142200000D02*
X108200000Y-138600000D01*
X108200000Y-138600000D02*
X112000000Y-138600000D01*
X112000000Y-138600000D02*
X112000000Y-142200000D01*
%TO.C,D25*%
X127600000Y-119200000D02*
X131400000Y-119200000D01*
X131400000Y-119200000D02*
X131400000Y-122800000D01*
X131400000Y-122800000D02*
X127600000Y-122800000D01*
X127600000Y-122800000D02*
X127600000Y-119200000D01*
%TO.C,D20*%
X69400000Y-158000000D02*
X73200000Y-158000000D01*
X73200000Y-158000000D02*
X73200000Y-161600000D01*
X73200000Y-161600000D02*
X69400000Y-161600000D01*
X69400000Y-161600000D02*
X69400000Y-158000000D01*
%TO.C,D15*%
X92600000Y-142200000D02*
X88800000Y-142200000D01*
X88800000Y-142200000D02*
X88800000Y-138600000D01*
X88800000Y-138600000D02*
X92600000Y-138600000D01*
X92600000Y-138600000D02*
X92600000Y-142200000D01*
%TO.C,D5*%
X131400000Y-84000000D02*
X127600000Y-84000000D01*
X127600000Y-84000000D02*
X127600000Y-80400000D01*
X127600000Y-80400000D02*
X131400000Y-80400000D01*
X131400000Y-80400000D02*
X131400000Y-84000000D01*
%TO.C,D14*%
X127600000Y-99800000D02*
X131400000Y-99800000D01*
X131400000Y-99800000D02*
X131400000Y-103400000D01*
X131400000Y-103400000D02*
X127600000Y-103400000D01*
X127600000Y-103400000D02*
X127600000Y-99800000D01*
%TO.C,D6*%
X150800000Y-142300000D02*
X147000000Y-142300000D01*
X147000000Y-142300000D02*
X147000000Y-138700000D01*
X147000000Y-138700000D02*
X150800000Y-138700000D01*
X150800000Y-138700000D02*
X150800000Y-142300000D01*
%TO.C,D8*%
X150800000Y-84000000D02*
X147000000Y-84000000D01*
X147000000Y-84000000D02*
X147000000Y-80400000D01*
X147000000Y-80400000D02*
X150800000Y-80400000D01*
X150800000Y-80400000D02*
X150800000Y-84000000D01*
%TO.C,D9*%
X131400000Y-142200000D02*
X127600000Y-142200000D01*
X127600000Y-142200000D02*
X127600000Y-138600000D01*
X127600000Y-138600000D02*
X131400000Y-138600000D01*
X131400000Y-138600000D02*
X131400000Y-142200000D01*
%TO.C,D4*%
X150700000Y-171200000D02*
X146900000Y-171200000D01*
X146900000Y-171200000D02*
X146900000Y-167600000D01*
X146900000Y-167600000D02*
X150700000Y-167600000D01*
X150700000Y-167600000D02*
X150700000Y-171200000D01*
%TO.C,D18*%
X73200000Y-142200000D02*
X69400000Y-142200000D01*
X69400000Y-142200000D02*
X69400000Y-138600000D01*
X69400000Y-138600000D02*
X73200000Y-138600000D01*
X73200000Y-138600000D02*
X73200000Y-142200000D01*
%TO.C,D11*%
X147000000Y-99800000D02*
X150800000Y-99800000D01*
X150800000Y-99800000D02*
X150800000Y-103400000D01*
X150800000Y-103400000D02*
X147000000Y-103400000D01*
X147000000Y-103400000D02*
X147000000Y-99800000D01*
%TO.C,D3*%
X147000000Y-119200000D02*
X150800000Y-119200000D01*
X150800000Y-119200000D02*
X150800000Y-122800000D01*
X150800000Y-122800000D02*
X147000000Y-122800000D01*
X147000000Y-122800000D02*
X147000000Y-119200000D01*
%TO.C,D17*%
X69400000Y-99800000D02*
X73200000Y-99800000D01*
X73200000Y-99800000D02*
X73200000Y-103400000D01*
X73200000Y-103400000D02*
X69400000Y-103400000D01*
X69400000Y-103400000D02*
X69400000Y-99800000D01*
%TO.C,D23*%
X108200000Y-119200000D02*
X112000000Y-119200000D01*
X112000000Y-119200000D02*
X112000000Y-122800000D01*
X112000000Y-122800000D02*
X108200000Y-122800000D01*
X108200000Y-122800000D02*
X108200000Y-119200000D01*
%TD*%
M02*
