<?xml version="1.0" encoding="UTF-8" standalone="no"?>
<!-- Created with Inkscape (http://www.inkscape.org/) -->

<svg
   width="183.63493mm"
   height="36.904789mm"
   viewBox="0 0 183.63493 36.904789"
   version="1.1"
   id="svg6351"
   inkscape:version="1.1 (c4e8f9ed74, 2021-05-24)"
   sodipodi:docname="cafebabeLogo.svg"
   xmlns:inkscape="http://www.inkscape.org/namespaces/inkscape"
   xmlns:sodipodi="http://sodipodi.sourceforge.net/DTD/sodipodi-0.dtd"
   xmlns="http://www.w3.org/2000/svg"
   xmlns:svg="http://www.w3.org/2000/svg">
  <sodipodi:namedview
     id="namedview6353"
     pagecolor="#ffffff"
     bordercolor="#666666"
     borderopacity="1.0"
     inkscape:pageshadow="2"
     inkscape:pageopacity="0.0"
     inkscape:pagecheckerboard="0"
     inkscape:document-units="mm"
     showgrid="false"
     fit-margin-top="0"
     fit-margin-left="0"
     fit-margin-right="0"
     fit-margin-bottom="0"
     inkscape:zoom="0.75455247"
     inkscape:cx="310.1176"
     inkscape:cy="251.14224"
     inkscape:window-width="1920"
     inkscape:window-height="1021"
     inkscape:window-x="1920"
     inkscape:window-y="0"
     inkscape:window-maximized="1"
     inkscape:current-layer="layer1" />
  <defs
     id="defs6348" />
  <g
     inkscape:label="Layer 1"
     inkscape:groupmode="layer"
     id="layer1"
     transform="translate(-15.38124,-81.893377)">
    <g
       id="g18"
       transform="matrix(0.35277777,0,0,-0.35277777,195.09823,96.320577)">
      <path
         d="m 0,0 h -27.641 v -11.41 h 27.562 l -4.7,-14.167 -0.079,-0.095 h -20.313 v 4.564 h -10.993 v 8.366 h -3.504 V 14.356 H 0 Z m -3.266,-52.103 h -39.669 v 35.463 h 3.505 v -8.366 h 10.993 v -4.659 h -2.469 v -8.082 h 27.64 z m -51.816,8.603 c -3.425,-4.086 -7.527,-6.131 -12.307,-6.131 h -6.293 v 9.698 h -7.965 v 4.659 h 14.178 c 1.487,0 2.775,0.632 3.864,1.901 1.088,1.267 1.632,2.804 1.632,4.611 0,1.807 -0.544,3.343 -1.632,4.611 -1.089,1.268 -2.377,1.902 -3.864,1.902 h -17.524 v -21.583 h 8.125 v -8.367 h -20.153 v 62.561 h 8.205 V -7.892 h 20.232 c 0.903,0 1.674,0.381 2.311,1.141 0.636,0.76 0.956,1.678 0.956,2.757 0,1.077 -0.32,1.997 -0.956,2.758 -0.637,0.76 -1.408,1.14 -2.311,1.14 h -13.143 v -3.898 h -3.824 V 14.26 h 16.967 c 2.761,0 5.324,-0.823 7.688,-2.471 2.362,-1.648 4.221,-3.867 5.575,-6.656 1.354,-2.79 2.031,-5.833 2.031,-9.127 0,-3.423 -0.744,-6.593 -2.23,-9.508 3.716,-4.121 5.577,-9.191 5.577,-15.212 0,-5.769 -1.713,-10.696 -5.139,-14.786 m -74.04,9.367 1.752,4.468 h 8.444 l -5.258,13.786 -3.186,-7.987 h -13.143 l 16.329,42.31 20.233,-52.577 z m 14.179,-18.256 -1.753,4.564 h -21.587 l -1.752,-4.564 h -13.223 l 9.479,24.625 h 13.143 l -3.983,-10.363 h 27.402 l 3.266,-8.557 z m -46.639,8.889 c -3.425,-4.086 -7.527,-6.131 -12.307,-6.131 h -6.292 v 9.698 h -7.966 v 4.659 h 14.179 c 1.486,0 2.774,0.632 3.863,1.901 1.088,1.267 1.633,2.804 1.633,4.611 0,1.807 -0.545,3.343 -1.633,4.611 -1.089,1.268 -2.377,1.902 -3.863,1.902 h -17.525 v -21.583 h 8.125 v -8.367 h -20.153 v 62.561 h 8.205 V -7.892 h 20.233 c 0.902,0 1.673,0.381 2.31,1.141 0.637,0.76 0.956,1.678 0.956,2.757 0,1.077 -0.319,1.997 -0.956,2.758 -0.637,0.76 -1.408,1.14 -2.31,1.14 h -13.144 v -3.898 h -3.823 V 14.26 h 16.967 c 2.76,0 5.323,-0.823 7.687,-2.471 2.362,-1.648 4.222,-3.867 5.576,-6.656 1.354,-2.79 2.03,-5.833 2.03,-9.127 0,-3.423 -0.744,-6.593 -2.23,-9.508 3.717,-4.121 5.577,-9.191 5.577,-15.212 0,-5.769 -1.713,-10.696 -5.139,-14.786 M -212.123,0 h -27.641 v -11.41 h 27.561 l -4.699,-14.167 -0.08,-0.095 h -20.312 v 4.564 h -10.993 v 8.366 h -3.505 v 27.098 h 39.669 z m -3.266,-52.103 h -39.669 v 35.463 h 3.505 v -8.366 h 10.993 v -4.659 h -2.47 v -8.082 h 27.641 z m -44.926,51.912 h -27.8 v -14.928 h -4.222 V 9.602 h -7.806 v 4.374 h 0.318 v 0.095 h 39.51 z m -13.781,-33.278 h -17.285 v -18.73 h -12.028 V 5.608 h 7.806 v -24.625 l 26.287,-0.094 z m -61.175,-0.664 1.752,4.468 h 8.443 l -5.257,13.786 -3.186,-7.987 h -13.143 l 16.329,42.31 20.233,-52.577 z m 14.178,-18.256 -1.752,4.564 h -21.587 l -1.752,-4.564 h -13.223 l 9.478,24.625 h 13.144 l -3.983,-10.363 h 27.402 l 3.266,-8.557 z m -59.821,-0.38 c -1.7,0 -3.385,0.175 -5.058,0.522 -1.673,0.35 -3.306,0.857 -4.899,1.523 -1.593,0.664 -3.134,1.488 -4.62,2.472 -1.487,0.981 -2.907,2.139 -4.261,3.469 -1.355,1.332 -2.589,2.789 -3.705,4.374 -4.249,5.957 -6.559,12.867 -6.93,20.727 h 3.107 c 0.159,-2.916 0.637,-5.737 1.434,-8.462 1.008,-3.423 2.469,-6.528 4.381,-9.318 l 1.035,-1.521 7.17,6.941 0.557,-0.666 c 3.292,-3.612 7.195,-5.419 11.709,-5.419 3.984,0 7.568,1.488 10.754,4.47 l 7.647,-11.41 c -5.311,-5.135 -11.418,-7.702 -18.321,-7.702 m -42.971,0.643 -9.246,15.478 -9.246,-15.478 h -11.108 l 14.77,24.795 -13.749,23.147 h 5.283 l 23.116,-38.77 h 5.824 l 5.463,-9.172 z m -17.471,47.942 8.225,-13.831 8.225,13.831 h 11.108 l -13.81,-23.147 8.166,-13.689 h -3.783 l -21.915,36.836 z m 41.723,9.317 c 4.939,5.768 10.86,8.779 17.763,9.033 7.328,0.253 13.674,-2.631 19.038,-8.652 0.584,-0.634 1.142,-1.301 1.673,-1.996 l -8.922,-9.509 c -2.921,3.929 -6.559,5.895 -10.913,5.895 -4.089,0 -7.567,-1.728 -10.435,-5.182 -2.867,-3.456 -4.301,-7.591 -4.301,-12.407 0,-3.423 0.769,-6.561 2.31,-9.413 l -6.532,-6.275 c -1.169,2.027 -2.098,4.214 -2.788,6.56 -0.903,2.915 -1.354,5.958 -1.354,9.128 v 1.997 h -3.584 c 0.424,8.112 3.106,15.054 8.045,20.821 m -59.111,-32.611 h -5.815 v 18.73 h -6.133 v 2.662 c 0,1.013 -0.399,2.028 -1.195,3.043 -0.797,1.014 -1.926,1.854 -3.386,2.52 -1.46,0.666 -3.04,0.998 -4.739,0.998 -1.7,0 -3.28,-0.332 -4.74,-0.998 -1.46,-0.666 -2.588,-1.506 -3.385,-2.52 -0.797,-1.015 -1.195,-2.03 -1.195,-3.043 v -21.392 h -5.735 v 18.73 h -6.293 v 2.662 c 0,5.832 2.057,10.759 6.173,14.785 4.115,4.024 9.173,6.037 15.175,6.037 3.929,0 7.527,-0.919 10.794,-2.757 3.265,-1.838 5.826,-4.342 7.686,-7.512 1.858,-3.17 2.788,-6.688 2.788,-10.553 z m 0,-5.325 c 0,-5.833 -2.058,-10.76 -6.173,-14.783 -4.116,-4.027 -9.161,-6.038 -15.135,-6.038 -5.974,0 -11.02,2.011 -15.135,6.038 -4.116,4.023 -6.173,8.95 -6.173,14.783 v 21.393 h 4.062 v -18.73 h 7.966 v -2.663 c 0,-1.585 0.903,-3.059 2.708,-4.421 1.806,-1.362 3.996,-2.044 6.572,-2.044 2.575,0 4.779,0.682 6.612,2.044 1.832,1.362 2.748,2.836 2.748,4.421 v 21.393 h 3.983 v -18.73 h 7.965 z M 11.106,-3.336 H 8.074 V 22.43 H -47.742 V 7.958 c -0.106,0.233 -0.203,0.47 -0.315,0.7 -1.958,4.032 -4.723,7.313 -8.221,9.752 -3.733,2.605 -7.873,3.924 -12.306,3.924 h -25.04 v -3.898 h -11.471 V -8.681 l -19.078,49.577 -23.383,-60.586 h -1.767 l -0.149,-0.389 c -0.753,2.791 -1.885,5.404 -3.403,7.825 0.771,2.638 1.16,5.401 1.16,8.26 0,4.512 -0.956,8.768 -2.842,12.653 -1.958,4.032 -4.723,7.313 -8.221,9.751 -3.733,2.605 -7.873,3.924 -12.305,3.924 h -25.041 v -3.898 h -3.925 v 3.994 h -55.817 v -0.285 h -39.959 l -8.073,-0.096 h -0.319 v -8.367 h -3.266 V -8.06 l -18.839,48.956 -23.383,-60.586 h -1.767 l -5.257,-13.657 -8.093,12.074 -6.935,-6.49 c -1.692,-1.584 -3.307,-2.29 -5.236,-2.29 -0.88,0 -1.936,0.111 -3.115,0.705 l 0.711,0.683 -2.919,5.404 c -0.902,1.669 -1.34,3.492 -1.34,5.576 0,2.94 0.776,5.245 2.44,7.25 1.653,1.992 3.006,2.266 4.223,2.266 1.283,0 2.709,-0.32 4.434,-2.64 l 5.76,-7.747 20.21,21.54 -4.156,5.437 c -0.671,0.878 -1.378,1.723 -2.102,2.513 -6.906,7.728 -15.648,11.633 -25.32,11.3 -9.218,-0.34 -17.157,-4.327 -23.599,-11.85 -1.746,-2.04 -3.244,-4.215 -4.538,-6.494 h -19.194 l -3.633,-6.11 -3.634,6.11 h -15.626 c -0.582,1.608 -1.3,3.167 -2.177,4.662 -2.584,4.405 -6.181,7.925 -10.691,10.464 -4.476,2.518 -9.44,3.794 -14.753,3.794 -8.155,0 -15.161,-2.806 -20.821,-8.339 -5.046,-4.937 -7.893,-10.917 -8.485,-17.807 h -0.116 v -29.467 c 0,-8.059 2.895,-14.974 8.601,-20.555 5.657,-5.534 12.648,-8.34 20.782,-8.34 4.834,0 9.256,1.016 13.243,2.984 l -0.884,-1.486 h 29.896 l 4.665,7.808 4.664,-7.808 h 29.895 l -4.52,7.567 c 1.024,-0.853 2.073,-1.645 3.144,-2.352 1.894,-1.254 3.9,-2.327 5.963,-3.189 2.059,-0.861 4.202,-1.526 6.368,-1.976 2.206,-0.459 4.462,-0.692 6.703,-0.692 3.56,0 6.963,0.528 10.204,1.563 l -0.456,-1.184 h 30.53 l 1.753,4.565 h 10.489 l 3.001,-7.818 13.91,7.218 v -3.774 h 28.176 v 18.73 h 15.033 l 5.142,15.447 v -34.082 h 51.538 v -0.095 h 36.3 v 2.566 h 1.405 c 3.937,0 7.641,0.95 11.004,2.783 l -2.133,-5.54 h 30.532 l 1.752,4.565 h 10.489 l 3.003,-7.818 14.147,7.342 v -3.898 h 36.301 v 2.566 h 1.405 c 6.174,0 11.78,2.328 16.381,6.758 v -9.229 H 4.809 v 30.504 h -2.49 z"
         style="fill:#020202;fill-opacity:1;fill-rule:nonzero;stroke:none"
         id="path20" />
    </g>
  </g>
</svg>
