<svg x="0" y="0" width="1911" height="545" version="1.1" xmlns="http://www.w3.org/2000/svg" xmlns:xlink="http://www.w3.org/1999/xlink"><g fill="none" stroke="none" stroke-width="1" stroke-linecap="butt" stroke-linejoin="miter" stroke-miterlimit="10" stroke-dasharray="" stroke-dashoffset="0" font-family="sans-serif" font-weight="normal" font-size="12" text-anchor="start" mix-blend-mode="normal"/><g id="1 cm. Tick Group" fill="none" stroke="none" stroke-width="none" stroke-linecap="butt" stroke-linejoin="miter" stroke-miterlimit="10" stroke-dasharray="" stroke-dashoffset="0" font-family="none" font-weight="none" font-size="none" text-anchor="none" mix-blend-mode="normal"><line x1="0" y1="0" x2="0" y2="14.17323" id="1 cm. Tick no. 0" stroke="#000000" stroke-width="1" font-family="sans-serif" font-weight="normal" font-size="12" text-anchor="start"/><text x="4" y="15.17323" id="1 cm. label no. 0" fill="#000000" stroke-width="1" font-family="monospace" font-weight="bold" font-size="7" text-anchor="start">0</text><line x1="28.34646" y1="0" x2="28.34646" y2="14.17323" id="1 cm. Tick no. 1" stroke="#000000" stroke-width="1" font-family="sans-serif" font-weight="normal" font-size="12" text-anchor="start"/><text x="32.34646" y="15.17323" id="1 cm. label no. 1" fill="#000000" stroke-width="1" font-family="monospace" font-weight="bold" font-size="7" text-anchor="start">1</text><line x1="56.69291" y1="0" x2="56.69291" y2="14.17323" id="1 cm. Tick no. 2" stroke="#000000" stroke-width="1" font-family="sans-serif" font-weight="normal" font-size="12" text-anchor="start"/><text x="60.69291" y="15.17323" id="1 cm. label no. 2" fill="#000000" stroke-width="1" font-family="monospace" font-weight="bold" font-size="7" text-anchor="start">2</text><line x1="85.03937" y1="0" x2="85.03937" y2="14.17323" id="1 cm. Tick no. 3" stroke="#000000" stroke-width="1" font-family="sans-serif" font-weight="normal" font-size="12" text-anchor="start"/><text x="89.03937" y="15.17323" id="1 cm. label no. 3" fill="#000000" stroke-width="1" font-family="monospace" font-weight="bold" font-size="7" text-anchor="start">3</text><line x1="113.38583" y1="0" x2="113.38583" y2="14.17323" id="1 cm. Tick no. 4" stroke="#000000" stroke-width="1" font-family="sans-serif" font-weight="normal" font-size="12" text-anchor="start"/><text x="117.38583" y="15.17323" id="1 cm. label no. 4" fill="#000000" stroke-width="1" font-family="monospace" font-weight="bold" font-size="7" text-anchor="start">4</text><line x1="141.73228" y1="0" x2="141.73228" y2="14.17323" id="1 cm. Tick no. 5" stroke="#000000" stroke-width="1" font-family="sans-serif" font-weight="normal" font-size="12" text-anchor="start"/><text x="145.73228" y="15.17323" id="1 cm. label no. 5" fill="#000000" stroke-width="1" font-family="monospace" font-weight="bold" font-size="7" text-anchor="start">5</text><line x1="170.07874" y1="0" x2="170.07874" y2="14.17323" id="1 cm. Tick no. 6" stroke="#000000" stroke-width="1" font-family="sans-serif" font-weight="normal" font-size="12" text-anchor="start"/><text x="174.07874" y="15.17323" id="1 cm. label no. 6" fill="#000000" stroke-width="1" font-family="monospace" font-weight="bold" font-size="7" text-anchor="start">6</text><line x1="198.4252" y1="0" x2="198.4252" y2="14.17323" id="1 cm. Tick no. 7" stroke="#000000" stroke-width="1" font-family="sans-serif" font-weight="normal" font-size="12" text-anchor="start"/><text x="202.4252" y="15.17323" id="1 cm. label no. 7" fill="#000000" stroke-width="1" font-family="monospace" font-weight="bold" font-size="7" text-anchor="start">7</text><line x1="226.77165" y1="0" x2="226.77165" y2="14.17323" id="1 cm. Tick no. 8" stroke="#000000" stroke-width="1" font-family="sans-serif" font-weight="normal" font-size="12" text-anchor="start"/><text x="230.77165" y="15.17323" id="1 cm. label no. 8" fill="#000000" stroke-width="1" font-family="monospace" font-weight="bold" font-size="7" text-anchor="start">8</text><line x1="255.11811" y1="0" x2="255.11811" y2="14.17323" id="1 cm. Tick no. 9" stroke="#000000" stroke-width="1" font-family="sans-serif" font-weight="normal" font-size="12" text-anchor="start"/><text x="259.11811" y="15.17323" id="1 cm. label no. 9" fill="#000000" stroke-width="1" font-family="monospace" font-weight="bold" font-size="7" text-anchor="start">9</text><line x1="283.46457" y1="0" x2="283.46457" y2="14.17323" id="1 cm. Tick no. 10" stroke="#000000" stroke-width="1" font-family="sans-serif" font-weight="normal" font-size="12" text-anchor="start"/><text x="287.46457" y="15.17323" id="1 cm. label no. 10" fill="#000000" stroke-width="1" font-family="monospace" font-weight="bold" font-size="7" text-anchor="start">10</text><line x1="311.81102" y1="0" x2="311.81102" y2="14.17323" id="1 cm. Tick no. 11" stroke="#000000" stroke-width="1" font-family="sans-serif" font-weight="normal" font-size="12" text-anchor="start"/><text x="315.81102" y="15.17323" id="1 cm. label no. 11" fill="#000000" stroke-width="1" font-family="monospace" font-weight="bold" font-size="7" text-anchor="start">11</text><line x1="340.15748" y1="0" x2="340.15748" y2="14.17323" id="1 cm. Tick no. 12" stroke="#000000" stroke-width="1" font-family="sans-serif" font-weight="normal" font-size="12" text-anchor="start"/><text x="344.15748" y="15.17323" id="1 cm. label no. 12" fill="#000000" stroke-width="1" font-family="monospace" font-weight="bold" font-size="7" text-anchor="start">12</text><line x1="368.50394" y1="0" x2="368.50394" y2="14.17323" id="1 cm. Tick no. 13" stroke="#000000" stroke-width="1" font-family="sans-serif" font-weight="normal" font-size="12" text-anchor="start"/><text x="372.50394" y="15.17323" id="1 cm. label no. 13" fill="#000000" stroke-width="1" font-family="monospace" font-weight="bold" font-size="7" text-anchor="start">13</text><line x1="396.85039" y1="0" x2="396.85039" y2="14.17323" id="1 cm. Tick no. 14" stroke="#000000" stroke-width="1" font-family="sans-serif" font-weight="normal" font-size="12" text-anchor="start"/><text x="400.85039" y="15.17323" id="1 cm. label no. 14" fill="#000000" stroke-width="1" font-family="monospace" font-weight="bold" font-size="7" text-anchor="start">14</text><line x1="425.19685" y1="0" x2="425.19685" y2="14.17323" id="1 cm. Tick no. 15" stroke="#000000" stroke-width="1" font-family="sans-serif" font-weight="normal" font-size="12" text-anchor="start"/><text x="429.19685" y="15.17323" id="1 cm. label no. 15" fill="#000000" stroke-width="1" font-family="monospace" font-weight="bold" font-size="7" text-anchor="start">15</text><line x1="453.54331" y1="0" x2="453.54331" y2="14.17323" id="1 cm. Tick no. 16" stroke="#000000" stroke-width="1" font-family="sans-serif" font-weight="normal" font-size="12" text-anchor="start"/><text x="457.54331" y="15.17323" id="1 cm. label no. 16" fill="#000000" stroke-width="1" font-family="monospace" font-weight="bold" font-size="7" text-anchor="start">16</text><line x1="481.88976" y1="0" x2="481.88976" y2="14.17323" id="1 cm. Tick no. 17" stroke="#000000" stroke-width="1" font-family="sans-serif" font-weight="normal" font-size="12" text-anchor="start"/><text x="485.88976" y="15.17323" id="1 cm. label no. 17" fill="#000000" stroke-width="1" font-family="monospace" font-weight="bold" font-size="7" text-anchor="start">17</text><line x1="510.23622" y1="0" x2="510.23622" y2="14.17323" id="1 cm. Tick no. 18" stroke="#000000" stroke-width="1" font-family="sans-serif" font-weight="normal" font-size="12" text-anchor="start"/><text x="514.23622" y="15.17323" id="1 cm. label no. 18" fill="#000000" stroke-width="1" font-family="monospace" font-weight="bold" font-size="7" text-anchor="start">18</text><line x1="538.58268" y1="0" x2="538.58268" y2="14.17323" id="1 cm. Tick no. 19" stroke="#000000" stroke-width="1" font-family="sans-serif" font-weight="normal" font-size="12" text-anchor="start"/><text x="542.58268" y="15.17323" id="1 cm. label no. 19" fill="#000000" stroke-width="1" font-family="monospace" font-weight="bold" font-size="7" text-anchor="start">19</text><line x1="566.92913" y1="0" x2="566.92913" y2="14.17323" id="1 cm. Tick no. 20" stroke="#000000" stroke-width="1" font-family="sans-serif" font-weight="normal" font-size="12" text-anchor="start"/><text x="562.92913" y="15.17323" id="1 cm. label no. 20" fill="#000000" stroke-width="1" font-family="monospace" font-weight="bold" font-size="7" text-anchor="end">20</text></g><g id="1/10th cm. Tick Group" fill="none" stroke="#000000" stroke-width="1" stroke-linecap="butt" stroke-linejoin="miter" stroke-miterlimit="10" stroke-dasharray="" stroke-dashoffset="0" font-family="sans-serif" font-weight="normal" font-size="12" text-anchor="start" mix-blend-mode="normal"><line x1="2.83465" y1="0" x2="2.83465" y2="7.08661" id="1/10th cm. Tick no. 1"/><line x1="5.66929" y1="0" x2="5.66929" y2="7.08661" id="1/10th cm. Tick no. 2"/><line x1="8.50394" y1="0" x2="8.50394" y2="7.08661" id="1/10th cm. Tick no. 3"/><line x1="11.33858" y1="0" x2="11.33858" y2="7.08661" id="1/10th cm. Tick no. 4"/><line x1="14.17323" y1="0" x2="14.17323" y2="7.08661" id="1/10th cm. Tick no. 5"/><line x1="17.00787" y1="0" x2="17.00787" y2="7.08661" id="1/10th cm. Tick no. 6"/><line x1="19.84252" y1="0" x2="19.84252" y2="7.08661" id="1/10th cm. Tick no. 7"/><line x1="22.67717" y1="0" x2="22.67717" y2="7.08661" id="1/10th cm. Tick no. 8"/><line x1="25.51181" y1="0" x2="25.51181" y2="7.08661" id="1/10th cm. Tick no. 9"/><line x1="31.1811" y1="0" x2="31.1811" y2="7.08661" id="1/10th cm. Tick no. 11"/><line x1="34.01575" y1="0" x2="34.01575" y2="7.08661" id="1/10th cm. Tick no. 12"/><line x1="36.85039" y1="0" x2="36.85039" y2="7.08661" id="1/10th cm. Tick no. 13"/><line x1="39.68504" y1="0" x2="39.68504" y2="7.08661" id="1/10th cm. Tick no. 14"/><line x1="42.51969" y1="0" x2="42.51969" y2="7.08661" id="1/10th cm. Tick no. 15"/><line x1="45.35433" y1="0" x2="45.35433" y2="7.08661" id="1/10th cm. Tick no. 16"/><line x1="48.18898" y1="0" x2="48.18898" y2="7.08661" id="1/10th cm. Tick no. 17"/><line x1="51.02362" y1="0" x2="51.02362" y2="7.08661" id="1/10th cm. Tick no. 18"/><line x1="53.85827" y1="0" x2="53.85827" y2="7.08661" id="1/10th cm. Tick no. 19"/><line x1="59.52756" y1="0" x2="59.52756" y2="7.08661" id="1/10th cm. Tick no. 21"/><line x1="62.3622" y1="0" x2="62.3622" y2="7.08661" id="1/10th cm. Tick no. 22"/><line x1="65.19685" y1="0" x2="65.19685" y2="7.08661" id="1/10th cm. Tick no. 23"/><line x1="68.0315" y1="0" x2="68.0315" y2="7.08661" id="1/10th cm. Tick no. 24"/><line x1="70.86614" y1="0" x2="70.86614" y2="7.08661" id="1/10th cm. Tick no. 25"/><line x1="73.70079" y1="0" x2="73.70079" y2="7.08661" id="1/10th cm. Tick no. 26"/><line x1="76.53543" y1="0" x2="76.53543" y2="7.08661" id="1/10th cm. Tick no. 27"/><line x1="79.37008" y1="0" x2="79.37008" y2="7.08661" id="1/10th cm. Tick no. 28"/><line x1="82.20472" y1="0" x2="82.20472" y2="7.08661" id="1/10th cm. Tick no. 29"/><line x1="87.87402" y1="0" x2="87.87402" y2="7.08661" id="1/10th cm. Tick no. 31"/><line x1="90.70866" y1="0" x2="90.70866" y2="7.08661" id="1/10th cm. Tick no. 32"/><line x1="93.54331" y1="0" x2="93.54331" y2="7.08661" id="1/10th cm. Tick no. 33"/><line x1="96.37795" y1="0" x2="96.37795" y2="7.08661" id="1/10th cm. Tick no. 34"/><line x1="99.2126" y1="0" x2="99.2126" y2="7.08661" id="1/10th cm. Tick no. 35"/><line x1="102.04724" y1="0" x2="102.04724" y2="7.08661" id="1/10th cm. Tick no. 36"/><line x1="104.88189" y1="0" x2="104.88189" y2="7.08661" id="1/10th cm. Tick no. 37"/><line x1="107.71654" y1="0" x2="107.71654" y2="7.08661" id="1/10th cm. Tick no. 38"/><line x1="110.55118" y1="0" x2="110.55118" y2="7.08661" id="1/10th cm. Tick no. 39"/><line x1="116.22047" y1="0" x2="116.22047" y2="7.08661" id="1/10th cm. Tick no. 41"/><line x1="119.05512" y1="0" x2="119.05512" y2="7.08661" id="1/10th cm. Tick no. 42"/><line x1="121.88976" y1="0" x2="121.88976" y2="7.08661" id="1/10th cm. Tick no. 43"/><line x1="124.72441" y1="0" x2="124.72441" y2="7.08661" id="1/10th cm. Tick no. 44"/><line x1="127.55906" y1="0" x2="127.55906" y2="7.08661" id="1/10th cm. Tick no. 45"/><line x1="130.3937" y1="0" x2="130.3937" y2="7.08661" id="1/10th cm. Tick no. 46"/><line x1="133.22835" y1="0" x2="133.22835" y2="7.08661" id="1/10th cm. Tick no. 47"/><line x1="136.06299" y1="0" x2="136.06299" y2="7.08661" id="1/10th cm. Tick no. 48"/><line x1="138.89764" y1="0" x2="138.89764" y2="7.08661" id="1/10th cm. Tick no. 49"/><line x1="144.56693" y1="0" x2="144.56693" y2="7.08661" id="1/10th cm. Tick no. 51"/><line x1="147.40157" y1="0" x2="147.40157" y2="7.08661" id="1/10th cm. Tick no. 52"/><line x1="150.23622" y1="0" x2="150.23622" y2="7.08661" id="1/10th cm. Tick no. 53"/><line x1="153.07087" y1="0" x2="153.07087" y2="7.08661" id="1/10th cm. Tick no. 54"/><line x1="155.90551" y1="0" x2="155.90551" y2="7.08661" id="1/10th cm. Tick no. 55"/><line x1="158.74016" y1="0" x2="158.74016" y2="7.08661" id="1/10th cm. Tick no. 56"/><line x1="161.5748" y1="0" x2="161.5748" y2="7.08661" id="1/10th cm. Tick no. 57"/><line x1="164.40945" y1="0" x2="164.40945" y2="7.08661" id="1/10th cm. Tick no. 58"/><line x1="167.24409" y1="0" x2="167.24409" y2="7.08661" id="1/10th cm. Tick no. 59"/><line x1="172.91339" y1="0" x2="172.91339" y2="7.08661" id="1/10th cm. Tick no. 61"/><line x1="175.74803" y1="0" x2="175.74803" y2="7.08661" id="1/10th cm. Tick no. 62"/><line x1="178.58268" y1="0" x2="178.58268" y2="7.08661" id="1/10th cm. Tick no. 63"/><line x1="181.41732" y1="0" x2="181.41732" y2="7.08661" id="1/10th cm. Tick no. 64"/><line x1="184.25197" y1="0" x2="184.25197" y2="7.08661" id="1/10th cm. Tick no. 65"/><line x1="187.08661" y1="0" x2="187.08661" y2="7.08661" id="1/10th cm. Tick no. 66"/><line x1="189.92126" y1="0" x2="189.92126" y2="7.08661" id="1/10th cm. Tick no. 67"/><line x1="192.75591" y1="0" x2="192.75591" y2="7.08661" id="1/10th cm. Tick no. 68"/><line x1="195.59055" y1="0" x2="195.59055" y2="7.08661" id="1/10th cm. Tick no. 69"/><line x1="201.25984" y1="0" x2="201.25984" y2="7.08661" id="1/10th cm. Tick no. 71"/><line x1="204.09449" y1="0" x2="204.09449" y2="7.08661" id="1/10th cm. Tick no. 72"/><line x1="206.92913" y1="0" x2="206.92913" y2="7.08661" id="1/10th cm. Tick no. 73"/><line x1="209.76378" y1="0" x2="209.76378" y2="7.08661" id="1/10th cm. Tick no. 74"/><line x1="212.59843" y1="0" x2="212.59843" y2="7.08661" id="1/10th cm. Tick no. 75"/><line x1="215.43307" y1="0" x2="215.43307" y2="7.08661" id="1/10th cm. Tick no. 76"/><line x1="218.26772" y1="0" x2="218.26772" y2="7.08661" id="1/10th cm. Tick no. 77"/><line x1="221.10236" y1="0" x2="221.10236" y2="7.08661" id="1/10th cm. Tick no. 78"/><line x1="223.93701" y1="0" x2="223.93701" y2="7.08661" id="1/10th cm. Tick no. 79"/><line x1="229.6063" y1="0" x2="229.6063" y2="7.08661" id="1/10th cm. Tick no. 81"/><line x1="232.44094" y1="0" x2="232.44094" y2="7.08661" id="1/10th cm. Tick no. 82"/><line x1="235.27559" y1="0" x2="235.27559" y2="7.08661" id="1/10th cm. Tick no. 83"/><line x1="238.11024" y1="0" x2="238.11024" y2="7.08661" id="1/10th cm. Tick no. 84"/><line x1="240.94488" y1="0" x2="240.94488" y2="7.08661" id="1/10th cm. Tick no. 85"/><line x1="243.77953" y1="0" x2="243.77953" y2="7.08661" id="1/10th cm. Tick no. 86"/><line x1="246.61417" y1="0" x2="246.61417" y2="7.08661" id="1/10th cm. Tick no. 87"/><line x1="249.44882" y1="0" x2="249.44882" y2="7.08661" id="1/10th cm. Tick no. 88"/><line x1="252.28346" y1="0" x2="252.28346" y2="7.08661" id="1/10th cm. Tick no. 89"/><line x1="257.95276" y1="0" x2="257.95276" y2="7.08661" id="1/10th cm. Tick no. 91"/><line x1="260.7874" y1="0" x2="260.7874" y2="7.08661" id="1/10th cm. Tick no. 92"/><line x1="263.62205" y1="0" x2="263.62205" y2="7.08661" id="1/10th cm. Tick no. 93"/><line x1="266.45669" y1="0" x2="266.45669" y2="7.08661" id="1/10th cm. Tick no. 94"/><line x1="269.29134" y1="0" x2="269.29134" y2="7.08661" id="1/10th cm. Tick no. 95"/><line x1="272.12598" y1="0" x2="272.12598" y2="7.08661" id="1/10th cm. Tick no. 96"/><line x1="274.96063" y1="0" x2="274.96063" y2="7.08661" id="1/10th cm. Tick no. 97"/><line x1="277.79528" y1="0" x2="277.79528" y2="7.08661" id="1/10th cm. Tick no. 98"/><line x1="280.62992" y1="0" x2="280.62992" y2="7.08661" id="1/10th cm. Tick no. 99"/><line x1="286.29921" y1="0" x2="286.29921" y2="7.08661" id="1/10th cm. Tick no. 101"/><line x1="289.13386" y1="0" x2="289.13386" y2="7.08661" id="1/10th cm. Tick no. 102"/><line x1="291.9685" y1="0" x2="291.9685" y2="7.08661" id="1/10th cm. Tick no. 103"/><line x1="294.80315" y1="0" x2="294.80315" y2="7.08661" id="1/10th cm. Tick no. 104"/><line x1="297.6378" y1="0" x2="297.6378" y2="7.08661" id="1/10th cm. Tick no. 105"/><line x1="300.47244" y1="0" x2="300.47244" y2="7.08661" id="1/10th cm. Tick no. 106"/><line x1="303.30709" y1="0" x2="303.30709" y2="7.08661" id="1/10th cm. Tick no. 107"/><line x1="306.14173" y1="0" x2="306.14173" y2="7.08661" id="1/10th cm. Tick no. 108"/><line x1="308.97638" y1="0" x2="308.97638" y2="7.08661" id="1/10th cm. Tick no. 109"/><line x1="314.64567" y1="0" x2="314.64567" y2="7.08661" id="1/10th cm. Tick no. 111"/><line x1="317.48031" y1="0" x2="317.48031" y2="7.08661" id="1/10th cm. Tick no. 112"/><line x1="320.31496" y1="0" x2="320.31496" y2="7.08661" id="1/10th cm. Tick no. 113"/><line x1="323.14961" y1="0" x2="323.14961" y2="7.08661" id="1/10th cm. Tick no. 114"/><line x1="325.98425" y1="0" x2="325.98425" y2="7.08661" id="1/10th cm. Tick no. 115"/><line x1="328.8189" y1="0" x2="328.8189" y2="7.08661" id="1/10th cm. Tick no. 116"/><line x1="331.65354" y1="0" x2="331.65354" y2="7.08661" id="1/10th cm. Tick no. 117"/><line x1="334.48819" y1="0" x2="334.48819" y2="7.08661" id="1/10th cm. Tick no. 118"/><line x1="337.32283" y1="0" x2="337.32283" y2="7.08661" id="1/10th cm. Tick no. 119"/><line x1="342.99213" y1="0" x2="342.99213" y2="7.08661" id="1/10th cm. Tick no. 121"/><line x1="345.82677" y1="0" x2="345.82677" y2="7.08661" id="1/10th cm. Tick no. 122"/><line x1="348.66142" y1="0" x2="348.66142" y2="7.08661" id="1/10th cm. Tick no. 123"/><line x1="351.49606" y1="0" x2="351.49606" y2="7.08661" id="1/10th cm. Tick no. 124"/><line x1="354.33071" y1="0" x2="354.33071" y2="7.08661" id="1/10th cm. Tick no. 125"/><line x1="357.16535" y1="0" x2="357.16535" y2="7.08661" id="1/10th cm. Tick no. 126"/><line x1="360" y1="0" x2="360" y2="7.08661" id="1/10th cm. Tick no. 127"/><line x1="362.83465" y1="0" x2="362.83465" y2="7.08661" id="1/10th cm. Tick no. 128"/><line x1="365.66929" y1="0" x2="365.66929" y2="7.08661" id="1/10th cm. Tick no. 129"/><line x1="371.33858" y1="0" x2="371.33858" y2="7.08661" id="1/10th cm. Tick no. 131"/><line x1="374.17323" y1="0" x2="374.17323" y2="7.08661" id="1/10th cm. Tick no. 132"/><line x1="377.00787" y1="0" x2="377.00787" y2="7.08661" id="1/10th cm. Tick no. 133"/><line x1="379.84252" y1="0" x2="379.84252" y2="7.08661" id="1/10th cm. Tick no. 134"/><line x1="382.67717" y1="0" x2="382.67717" y2="7.08661" id="1/10th cm. Tick no. 135"/><line x1="385.51181" y1="0" x2="385.51181" y2="7.08661" id="1/10th cm. Tick no. 136"/><line x1="388.34646" y1="0" x2="388.34646" y2="7.08661" id="1/10th cm. Tick no. 137"/><line x1="391.1811" y1="0" x2="391.1811" y2="7.08661" id="1/10th cm. Tick no. 138"/><line x1="394.01575" y1="0" x2="394.01575" y2="7.08661" id="1/10th cm. Tick no. 139"/><line x1="399.68504" y1="0" x2="399.68504" y2="7.08661" id="1/10th cm. Tick no. 141"/><line x1="402.51969" y1="0" x2="402.51969" y2="7.08661" id="1/10th cm. Tick no. 142"/><line x1="405.35433" y1="0" x2="405.35433" y2="7.08661" id="1/10th cm. Tick no. 143"/><line x1="408.18898" y1="0" x2="408.18898" y2="7.08661" id="1/10th cm. Tick no. 144"/><line x1="411.02362" y1="0" x2="411.02362" y2="7.08661" id="1/10th cm. Tick no. 145"/><line x1="413.85827" y1="0" x2="413.85827" y2="7.08661" id="1/10th cm. Tick no. 146"/><line x1="416.69291" y1="0" x2="416.69291" y2="7.08661" id="1/10th cm. Tick no. 147"/><line x1="419.52756" y1="0" x2="419.52756" y2="7.08661" id="1/10th cm. Tick no. 148"/><line x1="422.3622" y1="0" x2="422.3622" y2="7.08661" id="1/10th cm. Tick no. 149"/><line x1="428.0315" y1="0" x2="428.0315" y2="7.08661" id="1/10th cm. Tick no. 151"/><line x1="430.86614" y1="0" x2="430.86614" y2="7.08661" id="1/10th cm. Tick no. 152"/><line x1="433.70079" y1="0" x2="433.70079" y2="7.08661" id="1/10th cm. Tick no. 153"/><line x1="436.53543" y1="0" x2="436.53543" y2="7.08661" id="1/10th cm. Tick no. 154"/><line x1="439.37008" y1="0" x2="439.37008" y2="7.08661" id="1/10th cm. Tick no. 155"/><line x1="442.20472" y1="0" x2="442.20472" y2="7.08661" id="1/10th cm. Tick no. 156"/><line x1="445.03937" y1="0" x2="445.03937" y2="7.08661" id="1/10th cm. Tick no. 157"/><line x1="447.87402" y1="0" x2="447.87402" y2="7.08661" id="1/10th cm. Tick no. 158"/><line x1="450.70866" y1="0" x2="450.70866" y2="7.08661" id="1/10th cm. Tick no. 159"/><line x1="456.37795" y1="0" x2="456.37795" y2="7.08661" id="1/10th cm. Tick no. 161"/><line x1="459.2126" y1="0" x2="459.2126" y2="7.08661" id="1/10th cm. Tick no. 162"/><line x1="462.04724" y1="0" x2="462.04724" y2="7.08661" id="1/10th cm. Tick no. 163"/><line x1="464.88189" y1="0" x2="464.88189" y2="7.08661" id="1/10th cm. Tick no. 164"/><line x1="467.71654" y1="0" x2="467.71654" y2="7.08661" id="1/10th cm. Tick no. 165"/><line x1="470.55118" y1="0" x2="470.55118" y2="7.08661" id="1/10th cm. Tick no. 166"/><line x1="473.38583" y1="0" x2="473.38583" y2="7.08661" id="1/10th cm. Tick no. 167"/><line x1="476.22047" y1="0" x2="476.22047" y2="7.08661" id="1/10th cm. Tick no. 168"/><line x1="479.05512" y1="0" x2="479.05512" y2="7.08661" id="1/10th cm. Tick no. 169"/><line x1="484.72441" y1="0" x2="484.72441" y2="7.08661" id="1/10th cm. Tick no. 171"/><line x1="487.55906" y1="0" x2="487.55906" y2="7.08661" id="1/10th cm. Tick no. 172"/><line x1="490.3937" y1="0" x2="490.3937" y2="7.08661" id="1/10th cm. Tick no. 173"/><line x1="493.22835" y1="0" x2="493.22835" y2="7.08661" id="1/10th cm. Tick no. 174"/><line x1="496.06299" y1="0" x2="496.06299" y2="7.08661" id="1/10th cm. Tick no. 175"/><line x1="498.89764" y1="0" x2="498.89764" y2="7.08661" id="1/10th cm. Tick no. 176"/><line x1="501.73228" y1="0" x2="501.73228" y2="7.08661" id="1/10th cm. Tick no. 177"/><line x1="504.56693" y1="0" x2="504.56693" y2="7.08661" id="1/10th cm. Tick no. 178"/><line x1="507.40157" y1="0" x2="507.40157" y2="7.08661" id="1/10th cm. Tick no. 179"/><line x1="513.07087" y1="0" x2="513.07087" y2="7.08661" id="1/10th cm. Tick no. 181"/><line x1="515.90551" y1="0" x2="515.90551" y2="7.08661" id="1/10th cm. Tick no. 182"/><line x1="518.74016" y1="0" x2="518.74016" y2="7.08661" id="1/10th cm. Tick no. 183"/><line x1="521.5748" y1="0" x2="521.5748" y2="7.08661" id="1/10th cm. Tick no. 184"/><line x1="524.40945" y1="0" x2="524.40945" y2="7.08661" id="1/10th cm. Tick no. 185"/><line x1="527.24409" y1="0" x2="527.24409" y2="7.08661" id="1/10th cm. Tick no. 186"/><line x1="530.07874" y1="0" x2="530.07874" y2="7.08661" id="1/10th cm. Tick no. 187"/><line x1="532.91339" y1="0" x2="532.91339" y2="7.08661" id="1/10th cm. Tick no. 188"/><line x1="535.74803" y1="0" x2="535.74803" y2="7.08661" id="1/10th cm. Tick no. 189"/><line x1="541.41732" y1="0" x2="541.41732" y2="7.08661" id="1/10th cm. Tick no. 191"/><line x1="544.25197" y1="0" x2="544.25197" y2="7.08661" id="1/10th cm. Tick no. 192"/><line x1="547.08661" y1="0" x2="547.08661" y2="7.08661" id="1/10th cm. Tick no. 193"/><line x1="549.92126" y1="0" x2="549.92126" y2="7.08661" id="1/10th cm. Tick no. 194"/><line x1="552.75591" y1="0" x2="552.75591" y2="7.08661" id="1/10th cm. Tick no. 195"/><line x1="555.59055" y1="0" x2="555.59055" y2="7.08661" id="1/10th cm. Tick no. 196"/><line x1="558.4252" y1="0" x2="558.4252" y2="7.08661" id="1/10th cm. Tick no. 197"/><line x1="561.25984" y1="0" x2="561.25984" y2="7.08661" id="1/10th cm. Tick no. 198"/><line x1="564.09449" y1="0" x2="564.09449" y2="7.08661" id="1/10th cm. Tick no. 199"/></g></svg>