<?xml version="1.0" encoding="UTF-8" standalone="no"?>
<!-- Created with Inkscape (http://www.inkscape.org/) -->

<svg
   width="25.0mm"
   height="25.0mm"
   viewBox="0 0 25.0 25.0"
   version="1.1"
   id="svg12949"
   sodipodi:docname="Gazzew.svg"
   inkscape:version="1.1 (c4e8f9ed74, 2021-05-24)"
   xmlns:inkscape="http://www.inkscape.org/namespaces/inkscape"
   xmlns:sodipodi="http://sodipodi.sourceforge.net/DTD/sodipodi-0.dtd"
   xmlns="http://www.w3.org/2000/svg"
   xmlns:svg="http://www.w3.org/2000/svg">
  <sodipodi:namedview
     id="namedview12951"
     pagecolor="#ffffff"
     bordercolor="#666666"
     borderopacity="1.0"
     inkscape:pageshadow="2"
     inkscape:pageopacity="0.0"
     inkscape:pagecheckerboard="0"
     inkscape:document-units="mm"
     showgrid="false"
     inkscape:zoom="4.2683933"
     inkscape:cx="22.725178"
     inkscape:cy="78.366723"
     inkscape:window-width="1920"
     inkscape:window-height="1021"
     inkscape:window-x="1920"
     inkscape:window-y="0"
     inkscape:window-maximized="1"
     inkscape:current-layer="g13032" />
  <defs
     id="defs12946" />
  <g
     inkscape:label="[fixed] BG"
     inkscape:groupmode="layer"
     sodipodi:insensitive="true"
     id="g13018">
    <rect
       x="0"
       y="0"
       width="25.0"
       height="25.0"
       style="fill:#FFFFFF;fill-opacity:1;stroke:none"
       id="rect13016" />
  </g>
  <g
     inkscape:label="Edge.Cuts"
     inkscape:groupmode="layer"
     id="g13020" />
  <g
     inkscape:label="B.Cu"
     inkscape:groupmode="layer"
     id="g13022" />
  <g
     inkscape:label="B.Mask"
     inkscape:groupmode="layer"
     id="g13024" />
  <g
     inkscape:label="B.SilkS"
     inkscape:groupmode="layer"
     id="g13026" />
  <g
     inkscape:label="F.Cu"
     inkscape:groupmode="layer"
     id="g13028" />
  <g
     inkscape:label="F.Mask"
     inkscape:groupmode="layer"
     id="g13030" />
  <g
     inkscape:label="F.SilkS"
     inkscape:groupmode="layer"
     id="g13032">
    <g
       id="g31146"
       transform="matrix(0.72400601,0,0,0.76363351,6.5756058,5.265592)">
      <path
         style="fill:#000000;stroke-width:0.00667507"
         d="m 12.622215,16.468013 c -0.165498,-0.0072 -0.310059,-0.01669 -0.427897,-0.02805 -0.05835,-0.0057 -0.133143,-0.01255 -0.166208,-0.01539 -0.03306,-0.003 -0.09513,-0.0099 -0.137917,-0.01584 -0.04279,-0.0059 -0.0969,-0.01301 -0.120235,-0.01579 -0.02334,-0.003 -0.07267,-0.0097 -0.109627,-0.01538 -0.03696,-0.0057 -0.08469,-0.01286 -0.10609,-0.01599 -0.02139,-0.003 -0.06277,-0.01019 -0.09194,-0.01563 -0.02918,-0.0054 -0.07055,-0.01246 -0.09195,-0.01554 -0.02139,-0.003 -0.04367,-0.007 -0.04951,-0.0088 -0.0058,-0.0015 -0.03607,-0.008 -0.06719,-0.01377 -0.06564,-0.01231 -0.193922,-0.03879 -0.229862,-0.04741 -0.01361,-0.003 -0.06295,-0.01462 -0.109627,-0.02527 -0.09004,-0.02047 -0.0922,-0.02103 -0.190961,-0.04685 -0.155504,-0.0407 -0.352805,-0.09687 -0.443811,-0.126339 -0.02626,-0.0085 -0.07082,-0.0228 -0.09902,-0.03178 -0.0282,-0.009 -0.07037,-0.02295 -0.09371,-0.03102 -0.05644,-0.01957 -0.2226327,-0.07836 -0.2404711,-0.08508 -0.069727,-0.02628 -0.068826,-0.02592 -0.1944982,-0.07556 -0.1647808,-0.06506 -0.4747238,-0.202008 -0.5941048,-0.262515 -0.013613,-0.0069 -0.043849,-0.02199 -0.06719,-0.03349 -0.094876,-0.04685 -0.1074544,-0.05334 -0.1428265,-0.0735 -0.020266,-0.01155 -0.038612,-0.02098 -0.040766,-0.02098 -0.011835,0 -0.3284409,-0.181723 -0.4874289,-0.279774 C 7.5147615,14.672045 6.795583,14.031453 6.2384897,13.314765 6.1284094,13.173149 5.9243888,12.891141 5.9243888,12.8806 c 0,-0.002 -0.010667,-0.01836 -0.023707,-0.03652 -0.01304,-0.01816 -0.03425,-0.04993 -0.047134,-0.07057 -0.012884,-0.02068 -0.031382,-0.05033 -0.041109,-0.06591 -0.00973,-0.01558 -0.024019,-0.03828 -0.031762,-0.05038 -0.068163,-0.106771 -0.2217037,-0.382469 -0.294711,-0.529185 -0.055701,-0.11194 -0.05531,-0.111139 -0.084826,-0.173245 -0.00755,-0.01588 -0.073564,-0.163924 -0.095516,-0.214197 -0.00908,-0.02078 -0.024747,-0.05835 -0.034823,-0.08347 -0.010076,-0.02512 -0.026126,-0.06481 -0.035671,-0.08819 -0.033081,-0.08107 -0.096137,-0.256805 -0.1418359,-0.395316 -0.029022,-0.08797 -0.029623,-0.0899 -0.05263,-0.170097 -0.011932,-0.04156 -0.024701,-0.08552 -0.02838,-0.09765 -0.00971,-0.03202 -0.039423,-0.146277 -0.053238,-0.204741 -0.00655,-0.02774 -0.013507,-0.05465 -0.015464,-0.05985 -0.00197,-0.0052 -0.00639,-0.02502 -0.00984,-0.04408 -0.00344,-0.01906 -0.011304,-0.05591 -0.017439,-0.0819 -0.00614,-0.02598 -0.013998,-0.06284 -0.017471,-0.0819 -0.00348,-0.01906 -0.011423,-0.06016 -0.017664,-0.09135 -0.00624,-0.03117 -0.0143,-0.07654 -0.017915,-0.100794 -0.00362,-0.02426 -0.011505,-0.07245 -0.01754,-0.107099 -0.00603,-0.03465 -0.01397,-0.08993 -0.017645,-0.122845 -0.00367,-0.03294 -0.011666,-0.1009558 -0.017764,-0.1511938 -0.051323,-0.422767 -0.051235,-1.037702 2.14e-4,-1.467858 0.00601,-0.05023 0.013897,-0.116863 0.017526,-0.148047 0.00362,-0.03117 0.011743,-0.08647 0.018034,-0.122845 0.00628,-0.03636 0.014149,-0.08457 0.017476,-0.107099 0.00335,-0.0225 0.011203,-0.06646 0.017503,-0.09765 0.00631,-0.03117 0.014089,-0.07229 0.017302,-0.09135 0.00623,-0.03697 0.028646,-0.13851 0.046582,-0.211041 0.00599,-0.02426 0.013929,-0.05685 0.017627,-0.07245 0.01019,-0.04297 0.039652,-0.154078 0.056792,-0.214192 0.0084,-0.02946 0.017906,-0.06348 0.021132,-0.0756 0.01364,-0.05131 0.058672,-0.193551 0.077782,-0.245695 0.00316,-0.0087 0.011162,-0.03278 0.017751,-0.05355 0.00659,-0.02078 0.019102,-0.05623 0.027803,-0.07875 0.0087,-0.0225 0.021343,-0.05654 0.028087,-0.0756 0.00675,-0.01906 0.01491,-0.0403 0.018145,-0.04726 0.00325,-0.0069 0.00751,-0.01825 0.00951,-0.02521 0.00486,-0.0169 0.05223,-0.135317 0.060478,-0.151193 0.00362,-0.0069 0.018364,-0.04096 0.032811,-0.0756 0.014447,-0.03465 0.030323,-0.0715 0.035281,-0.0819 0.00496,-0.01039 0.02724,-0.05859 0.049517,-0.107099 0.022278,-0.04852 0.046885,-0.100956 0.054681,-0.116545 0.0078,-0.01558 0.019844,-0.03969 0.026768,-0.05355 0.00693,-0.01387 0.027199,-0.05283 0.04505,-0.0866 0.017851,-0.03379 0.032458,-0.06517 0.032458,-0.06977 0,-0.0096 -0.2602085,-0.177144 -0.331318,-0.213371 -0.025888,-0.01321 -0.051844,-0.02683 -0.057679,-0.03031 -0.00583,-0.0035 -0.015382,-0.0083 -0.021219,-0.01065 -0.00583,-0.0025 -0.027167,-0.01366 -0.047401,-0.02517 -0.020234,-0.01145 -0.038213,-0.02088 -0.03995,-0.02088 -0.00307,0 -0.1743058,-0.08836 -0.1955551,-0.100911 -0.00583,-0.0035 -0.015382,-0.0082 -0.021219,-0.01044 -0.00583,-0.0025 -0.027381,-0.01362 -0.047878,-0.02517 -0.0205,-0.01155 -0.038951,-0.02098 -0.041013,-0.02098 -0.00206,0 -0.02291,-0.01135 -0.046335,-0.02521 -0.023427,-0.01387 -0.043629,-0.02521 -0.044898,-0.02521 -0.00129,0 -0.1084583,-0.05914 -0.2382028,-0.131419 -0.2623836,-0.146177 -0.6026685,-0.346898 -0.6758857,-0.398679 -0.026232,-0.01856 -0.056266,-0.03939 -0.066737,-0.04635 -0.010475,-0.0069 -0.057042,-0.0402 -0.103485,-0.07388 -0.074148,-0.0538 -0.089884,-0.06877 -0.1290912,-0.122845 -0.024555,-0.03384 -0.064302,-0.0885 -0.088326,-0.121417 -0.05384,-0.07378 -0.061899,-0.08788 -0.077414,-0.135449 -0.013352,-0.04096 -0.037828,-0.1154 -0.064193,-0.195295 -0.030021,-0.09098 -0.033563,-0.139644 -0.026149,-0.3595 l 0.00681,-0.202013 0.020417,-0.03202 c 0.041512,-0.06516 0.1144985,-0.136337 0.1615808,-0.15759 0.02965,-0.01336 0.045219,-0.01603 0.092573,-0.01584 l 0.056933,2.37e-4 0.2047625,0.09279 c 0.1126191,0.05103 0.2731888,0.124045 0.3568234,0.162245 0.2486341,0.113559 0.2732607,0.124297 0.2850834,0.124297 0.00621,0 0.018612,0.0025 0.027551,0.0058 0.00893,0.003 0.035341,0.01059 0.058682,0.01639 0.02334,0.0058 0.050393,0.01286 0.060118,0.01569 0.00972,0.003 0.036779,0.0099 0.060118,0.01573 0.02334,0.0058 0.050392,0.01291 0.060118,0.01573 0.00972,0.003 0.036779,0.0099 0.060118,0.01579 0.02334,0.0058 0.067898,0.01745 0.099017,0.02577 0.031121,0.0083 0.067721,0.01791 0.081336,0.02134 0.013613,0.0035 0.099548,0.0091 0.1909621,0.01266 0.2538927,0.0098 0.559791,0.02068 0.5834957,0.02068 0.025563,1.5e-5 0.184414,-0.01039 0.3677788,-0.02406 0.07391,-0.0055 0.1741647,-0.01246 0.2227892,-0.01539 0.048625,-0.003 0.137166,-0.0089 0.1967583,-0.01311 0.1028568,-0.0074 0.3718018,-0.0025 0.6063061,0.0108 l 0.06397,0.0035 0.056857,-0.04963 c 0.097126,-0.08477 0.3018062,-0.2578 0.3315044,-0.280238 0.015556,-0.01175 0.033063,-0.02547 0.038901,-0.03041 0.023514,-0.02002 0.2469901,-0.188421 0.2890088,-0.2178 0.024747,-0.0173 0.058537,-0.04141 0.075083,-0.05352 0.016545,-0.0121 0.053258,-0.03763 0.081579,-0.05669 0.028321,-0.01906 0.061371,-0.04196 0.073443,-0.05092 0.024903,-0.01846 0.3420874,-0.219973 0.3462391,-0.219973 0.00147,0 0.033971,-0.01876 0.072186,-0.04166 0.1553846,-0.09319 0.4096449,-0.229692 0.5830893,-0.313041 0.021394,-0.01029 0.059587,-0.02875 0.084872,-0.041 0.094763,-0.046 0.3678018,-0.165403 0.4774055,-0.208797 0.015563,-0.0062 0.03944,-0.01563 0.053059,-0.02103 0.013619,-0.0054 0.04067,-0.01594 0.060104,-0.02335 0.019434,-0.0074 0.045685,-0.01755 0.058333,-0.0225 0.020382,-0.008 0.034393,-0.01326 0.090191,-0.03404 0.00776,-0.003 0.036423,-0.01301 0.063654,-0.02244 0.027231,-0.0095 0.059052,-0.02068 0.070728,-0.02487 0.01167,-0.004 0.03236,-0.01125 0.04598,-0.01563 0.01362,-0.0045 0.03431,-0.0116 0.04598,-0.01609 0.01167,-0.0045 0.03554,-0.0124 0.05304,-0.0177 0.01751,-0.0053 0.06843,-0.02148 0.113163,-0.03591 0.04474,-0.01447 0.09088,-0.0285 0.102553,-0.03117 0.01167,-0.0025 0.03872,-0.01054 0.06012,-0.01745 0.02139,-0.0069 0.06754,-0.02038 0.102553,-0.02991 0.03501,-0.0095 0.07162,-0.01962 0.08134,-0.02235 0.0097,-0.0025 0.03678,-0.0098 0.06012,-0.01563 0.02334,-0.0058 0.05039,-0.01291 0.06012,-0.01573 0.01842,-0.0054 0.08458,-0.02179 0.127308,-0.03162 0.01361,-0.003 0.04226,-0.01 0.06365,-0.01518 0.04819,-0.01175 0.14959,-0.03414 0.187426,-0.04135 0.01556,-0.003 0.04898,-0.0099 0.07426,-0.01533 0.02528,-0.0054 0.06188,-0.01256 0.08133,-0.01573 0.01945,-0.003 0.05923,-0.01044 0.08841,-0.01609 0.02917,-0.0057 0.06896,-0.01281 0.08841,-0.01588 0.01945,-0.003 0.06241,-0.01014 0.09548,-0.01573 0.03306,-0.0056 0.07921,-0.01271 0.102553,-0.01584 0.02334,-0.003 0.07426,-0.01019 0.113163,-0.01573 0.0389,-0.0055 0.09301,-0.01251 0.120237,-0.01554 0.02723,-0.003 0.09088,-0.01019 0.141453,-0.01594 0.05057,-0.0057 0.12218,-0.01266 0.159134,-0.01533 0.03696,-0.0025 0.111748,-0.0082 0.166208,-0.0121 0.05446,-0.004 0.132436,-0.01 0.173281,-0.01342 0.04084,-0.0035 0.128369,-0.0063 0.194498,-0.0063 0.06613,-5e-5 0.123976,-0.002 0.128549,-0.0051 0.009,-0.0051 0.03053,-0.05508 0.04512,-0.104617 0.01743,-0.05921 0.177761,-0.258909 0.298995,-0.372418 0.0074,-0.0069 0.05091,-0.05371 0.09668,-0.103947 0.09247,-0.10149 0.333327,-0.31692805 0.417295,-0.37325405 0.02917,-0.01957 0.0801,-0.05442 0.113163,-0.07744 0.05391,-0.03752 0.106127,-0.06589 0.121371,-0.06589 0.0031,0 0.02394,-0.0074 0.04641,-0.01649 0.02247,-0.0091 0.052,-0.02063 0.06561,-0.02562 0.01361,-0.0051 0.03112,-0.0116 0.0389,-0.01468 0.02569,-0.01009 0.267937,-0.08038 0.311199,-0.0903 0.107509,-0.02466 0.196684,-0.04201 0.261688,-0.05104 0.0389,-0.0054 0.08823,-0.01256 0.109627,-0.01588 0.066,-0.01034 0.09183,-0.01104 0.203281,-0.0057 0.117251,0.0057 0.199537,0.01539 0.210117,0.02476 0.0037,0.003 0.01253,0.006 0.01964,0.006 0.02062,0 0.193426,0.05164 0.288376,0.08617 0.105692,0.03843 0.228682,0.121367 0.324297,0.218642 0.0699,0.07112 0.172907,0.203253 0.194623,0.24966305 0.0073,0.01554 0.01593,0.03394 0.01924,0.04085 0.05501,0.115264 0.0656,0.176013 0.06592,0.377991 2.67e-4,0.164312 -0.0065,0.206708 -0.04601,0.289789 -0.0033,0.0069 -0.01272,0.0282 -0.02093,0.04726 -0.01465,0.03399 -0.09819,0.144532 -0.124282,0.164464 -0.0127,0.0097 -0.03957,0.01851 -0.121909,0.03989 -0.0818,0.02124 -0.330943,0.0075 -0.403702,-0.02229 -0.119016,-0.04872 -0.118564,-0.04842 -0.182507,-0.113877 -0.07804,-0.07987 -0.07872,-0.08069 -0.112973,-0.137466 -0.01568,-0.02598 -0.03498,-0.05717 -0.04289,-0.0693 -0.01657,-0.02537 -0.03116,-0.07264 -0.04844,-0.156899 -0.01269,-0.06186 -0.01287,-0.05883 0.0113,-0.186443 0.0033,-0.0173 0.01389,-0.05276 0.02356,-0.07874 0.01684,-0.04524 0.02341,-0.06056 0.04488,-0.1049 0.01522,-0.03142 0.01245,-0.04549 -0.0098,-0.04988 -0.0107,-0.002 -0.03377,-0.0076 -0.05128,-0.01221 -0.01751,-0.0045 -0.04933,-0.0117 -0.07073,-0.01573 -0.02139,-0.004 -0.05041,-0.0099 -0.06448,-0.01311 -0.03351,-0.0076 -0.200671,-0.0074 -0.22854,1.45e-4 -0.01194,0.003 -0.04559,0.01054 -0.07476,0.01619 -0.07806,0.01508 -0.189594,0.04993 -0.241203,0.0753 -0.02488,0.01221 -0.06137,0.02941 -0.08109,0.03823 -0.0442,0.01967 -0.180268,0.125291 -0.226793,0.176029 -0.01892,0.02062 -0.07419,0.07394 -0.12282,0.118456 -0.08435,0.07722 -0.10412,0.09961 -0.131975,0.149505 -0.0067,0.0121 -0.02426,0.03959 -0.03886,0.06106 -0.04032,0.05924 -0.06391,0.103134 -0.06014,0.11189 0.0036,0.0084 0.03912,0.01332 0.163777,0.02265 0.04279,0.003 0.115992,0.01029 0.162671,0.01579 0.04668,0.0054 0.108743,0.01241 0.137918,0.01539 0.02917,0.003 0.08328,0.01009 0.120235,0.01569 0.03695,0.0056 0.08788,0.01261 0.113162,0.01554 0.02528,0.003 0.08098,0.01135 0.123772,0.01872 0.04279,0.0074 0.0953,0.01639 0.1167,0.02007 0.04539,0.0078 0.13215,0.02446 0.261689,0.05029 0.01751,0.0035 0.08752,0.01917 0.155598,0.0348 0.06807,0.01563 0.131729,0.02986 0.141454,0.03162 0.0097,0.0015 0.04315,0.0097 0.07426,0.01785 0.03112,0.0081 0.07567,0.01947 0.09902,0.02527 0.02334,0.0059 0.05039,0.01291 0.06012,0.01569 0.0097,0.003 0.04633,0.01296 0.08134,0.02254 0.03501,0.0096 0.07002,0.01957 0.0778,0.02219 0.0078,0.0025 0.03165,0.0097 0.05304,0.01563 0.02139,0.006 0.04526,0.01306 0.05304,0.01579 0.0078,0.0025 0.04438,0.01407 0.08134,0.02521 0.03696,0.01114 0.07021,0.02275 0.07391,0.02572 0.0037,0.003 0.01165,0.0054 0.01768,0.0054 0.006,-1.5e-5 0.03084,0.0071 0.05512,0.01584 0.02429,0.0087 0.06566,0.02325 0.09195,0.03223 0.02628,0.009 0.05416,0.01872 0.06194,0.02154 0.196912,0.07192 0.268521,0.09853 0.303773,0.112879 0.02353,0.0096 0.0587,0.0238 0.07815,0.03168 0.160073,0.06448 0.477969,0.207091 0.5425,0.243374 0.01461,0.0082 0.02808,0.01492 0.02993,0.01492 0.0018,0 0.03101,0.01417 0.06481,0.03152 0.0338,0.0173 0.06234,0.03153 0.06342,0.03153 0.0011,0 0.02762,0.01417 0.05898,0.03152 0.03136,0.0173 0.05879,0.03152 0.06097,0.03152 0.0021,0 0.01257,0.0054 0.02311,0.01185 0.01581,0.0098 0.15589,0.08815 0.198395,0.110982 0.01473,0.0079 0.158744,0.09407 0.252201,0.150887 0.08313,0.05054 0.347326,0.226237 0.419148,0.278745 0.0275,0.02013 0.07158,0.05214 0.09796,0.07121 0.02638,0.01906 0.06271,0.046 0.08073,0.05984 0.01802,0.01387 0.05311,0.0408 0.07797,0.05984 0.19117,0.146535 0.402508,0.327541 0.626003,0.536156 l 0.09858,0.09202 0.102553,0.004 c 0.06937,0.0025 0.139172,5.05e-4 0.215717,-0.0057 0.06224,-0.0053 0.148172,-0.01206 0.190962,-0.01508 0.161182,-0.01135 0.241242,-0.01886 0.265225,-0.02491 0.02318,-0.0058 0.108092,-0.02401 0.22279,-0.04771 0.02723,-0.0056 0.05905,-0.01266 0.07073,-0.01558 0.01167,-0.003 0.04509,-0.01018 0.07426,-0.01604 0.0828,-0.01669 0.113481,-0.02728 0.307661,-0.106307 0.01167,-0.0045 0.03236,-0.01291 0.04598,-0.01816 0.14026,-0.05404 0.193807,-0.07951 0.289645,-0.137778 0.05888,-0.03581 0.112488,-0.06794 0.119121,-0.07142 0.0067,-0.0035 0.08271,-0.04811 0.169065,-0.09923 0.08635,-0.05109 0.161147,-0.09298 0.166208,-0.09311 0.0051,-1.22e-4 0.04004,-0.02209 0.07774,-0.04882 0.03769,-0.02673 0.11249,-0.07953 0.166208,-0.117322 0.05372,-0.03778 0.114413,-0.08613 0.134881,-0.107411 0.02047,-0.02128 0.06854,-0.06709 0.106832,-0.101799 0.08216,-0.07447 0.115303,-0.08832 0.197969,-0.08272 0.08115,0.0055 0.13962,0.04559 0.184795,0.126637 0.01186,0.02128 0.03428,0.05857 0.04979,0.08282 0.04648,0.07264 0.08558,0.153988 0.106009,0.220492 0.0032,0.01039 0.0092,0.0288 0.01346,0.0409 0.0045,0.01281 0.0077,0.07663 0.0077,0.152642 0,0.133744 -10e-4,0.140466 -0.0321,0.203354 -0.0051,0.01039 -0.01615,0.03309 -0.02448,0.05038 -0.02314,0.04807 -0.03206,0.06614 -0.0522,0.105692 -0.01019,0.02002 -0.01853,0.03848 -0.01853,0.041 0,0.0054 -0.0616,0.06905 -0.123081,0.127193 -0.121641,0.115052 -0.14983,0.139049 -0.196863,0.167585 -0.02812,0.01705 -0.100503,0.06231 -0.160868,0.100563 -0.06037,0.03823 -0.17068,0.105712 -0.245145,0.149913 l -0.135388,0.08037 -0.03435,0.05164 c -0.01889,0.02839 -0.04231,0.06344 -0.05204,0.07786 -0.0097,0.01443 -0.02975,0.04489 -0.0445,0.06768 -0.03604,0.05571 -0.182002,0.2487 -0.271576,0.359057 -0.01093,0.01347 -0.0792,0.09373 -0.151694,0.178358 -0.132619,0.154806 -0.140338,0.162195 -0.321019,0.307438 -0.03449,0.02774 -0.07973,0.06457 -0.100557,0.0819 l -0.03786,0.03152 0.03127,0.0567 c 0.01719,0.03117 0.03772,0.06945 0.04562,0.08504 0.05829,0.115198 0.08269,0.164504 0.09389,0.189787 0.0071,0.01604 0.0191,0.04156 0.02666,0.0567 0.0075,0.01518 0.02703,0.05733 0.04325,0.09371 0.01622,0.03636 0.03227,0.07182 0.03566,0.07875 0.0034,0.0069 0.01171,0.02678 0.01849,0.04408 0.0068,0.01735 0.01498,0.03419 0.01824,0.03748 0.0033,0.0035 0.0059,0.01195 0.0059,0.01921 0,0.0072 0.0027,0.01594 0.0061,0.01921 0.0064,0.0063 0.05522,0.12518 0.06449,0.157181 0.0031,0.01039 0.01178,0.0345 0.01948,0.05355 0.02245,0.05553 0.07116,0.191356 0.08699,0.242543 0.0032,0.01039 0.01099,0.0345 0.01728,0.05355 0.0063,0.01906 0.01613,0.05023 0.02185,0.0693 0.0057,0.01906 0.01491,0.04882 0.02041,0.06616 0.01997,0.06291 0.06987,0.245805 0.08852,0.324438 0.0037,0.01558 0.01138,0.04675 0.01707,0.0693 0.0098,0.03883 0.03946,0.176941 0.0541,0.251994 0.0037,0.01906 0.01021,0.05165 0.01443,0.07244 0.0042,0.02078 0.01037,0.05623 0.01366,0.07875 0.0033,0.0225 0.0113,0.07355 0.0178,0.113398 0.0065,0.03985 0.01445,0.09513 0.01766,0.122845 0.0032,0.02774 0.011,0.09292 0.01733,0.144895 0.05177,0.425808 0.05191,1.024634 3.62e-4,1.467858 -0.02134,0.1834218 -0.02461,0.2085038 -0.03543,0.2708908 -0.006,0.03465 -0.01389,0.08284 -0.01749,0.1071 -0.0036,0.02426 -0.01172,0.06961 -0.01802,0.100794 -0.0063,0.03117 -0.01403,0.07229 -0.01718,0.09135 -0.006,0.03596 -0.02816,0.136911 -0.0457,0.207894 -0.0056,0.02254 -0.01375,0.05796 -0.01819,0.07875 -0.0045,0.02078 -0.0107,0.0463 -0.01395,0.0567 -0.0033,0.01039 -0.01131,0.04015 -0.01793,0.06615 -0.01506,0.05911 -0.02135,0.08197 -0.03514,0.12757 -0.006,0.01992 -0.01587,0.05253 -0.0219,0.07245 -0.006,0.01992 -0.01388,0.04615 -0.01746,0.05827 -0.03525,0.11941 -0.124945,0.371112 -0.184069,0.516587 -0.01619,0.03984 -0.03117,0.07812 -0.03328,0.08505 -0.0021,0.0069 -0.006,0.01543 -0.0087,0.01891 -0.0027,0.0035 -0.0104,0.02047 -0.01721,0.03783 -0.0068,0.01735 -0.01515,0.03717 -0.01854,0.04408 -0.0034,0.0069 -0.01943,0.04237 -0.03566,0.07875 -0.01622,0.03636 -0.0355,0.07818 -0.04282,0.09289 -0.0073,0.01473 -0.02484,0.05156 -0.03892,0.0819 -0.01408,0.03031 -0.03668,0.07642 -0.05022,0.102403 -0.01354,0.02598 -0.03415,0.06568 -0.04579,0.0882 -0.05455,0.10552 -0.175531,0.317665 -0.238922,0.418939 -0.01302,0.02078 -0.02899,0.0463 -0.03549,0.0567 -0.0065,0.01039 -0.02238,0.03591 -0.03526,0.0567 -0.02152,0.0347 -0.0542,0.08353 -0.07617,0.113762 -0.0049,0.0067 -0.0111,0.01649 -0.0138,0.02169 -0.01128,0.02173 -0.161451,0.231694 -0.238785,0.33389 -0.195799,0.258747 -0.415962,0.511926 -0.657398,0.755982 -0.117123,0.118391 -0.159817,0.15825 -0.364461,0.340275 -0.341507,0.303761 -0.662316,0.545138 -1.045491,0.786631 -0.128084,0.08073 -0.331302,0.202356 -0.338091,0.202356 -0.0022,0 -0.0141,0.0068 -0.02649,0.01498 -0.02556,0.01699 -0.278299,0.152732 -0.316031,0.169704 -0.01361,0.0061 -0.0343,0.01619 -0.04598,0.02244 -0.09118,0.04852 -0.398537,0.190221 -0.519933,0.239713 -0.02913,0.01185 -0.08251,0.03384 -0.118646,0.04882 -0.03613,0.01498 -0.06736,0.02724 -0.0694,0.02724 -0.002,0 -0.02181,0.0074 -0.04393,0.01634 -0.02213,0.009 -0.05702,0.02315 -0.07756,0.03153 -0.02053,0.0083 -0.04047,0.01513 -0.04431,0.01513 -0.0038,0 -0.0125,0.0025 -0.01925,0.006 -0.01399,0.0068 -0.0405,0.01665 -0.111298,0.04131 -0.02723,0.0095 -0.06383,0.02235 -0.08134,0.02854 -0.01751,0.0062 -0.05252,0.01755 -0.0778,0.02521 -0.02528,0.0077 -0.049,0.01639 -0.05269,0.01942 -0.0037,0.003 -0.01158,0.0055 -0.01753,0.0055 -0.006,0 -0.03236,0.0071 -0.0587,0.01573 -0.07648,0.02517 -0.139663,0.04474 -0.19288,0.05975 -0.08529,0.02411 -0.161841,0.04519 -0.18389,0.05065 -0.01167,0.003 -0.03872,0.0099 -0.06012,0.01563 -0.02139,0.0057 -0.05004,0.01276 -0.06365,0.01569 -0.01361,0.003 -0.04226,0.01 -0.06365,0.01573 -0.02139,0.0057 -0.05004,0.01276 -0.06365,0.01563 -0.01361,0.003 -0.0518,0.0113 -0.08487,0.01876 -0.07321,0.01654 -0.183154,0.03959 -0.254616,0.05339 -0.02917,0.0057 -0.06737,0.01306 -0.08487,0.0165 -0.06272,0.01236 -0.181063,0.03278 -0.219253,0.03793 -0.02139,0.003 -0.06754,0.0098 -0.102555,0.01543 -0.03501,0.0056 -0.08434,0.01261 -0.109625,0.01558 -0.02528,0.003 -0.07939,0.01 -0.120236,0.01558 -0.04084,0.0056 -0.102908,0.01281 -0.137917,0.01609 -0.03501,0.003 -0.109803,0.01029 -0.166208,0.01563 -0.323708,0.03076 -0.8702,0.04322 -1.223573,0.02784 z m 0.887621,-0.197857 c 0.223333,-0.01301 0.417059,-0.02935 0.558742,-0.04715 0.127787,-0.01604 0.161551,-0.02053 0.244006,-0.03213 0.301096,-0.04237 0.747327,-0.132119 0.986639,-0.198406 0.03112,-0.0086 0.06613,-0.01816 0.0778,-0.02124 0.08359,-0.02194 0.392767,-0.113883 0.424359,-0.126209 0.0078,-0.003 0.04916,-0.01725 0.09195,-0.03162 0.04279,-0.01437 0.08783,-0.03016 0.100086,-0.0351 0.01226,-0.0051 0.02433,-0.009 0.02684,-0.009 0.0071,0 0.295982,-0.110766 0.382309,-0.146616 0.106508,-0.04423 0.410228,-0.181384 0.488015,-0.220381 0.06031,-0.03021 0.126144,-0.06389 0.254616,-0.130162 0.07432,-0.03833 0.311523,-0.172821 0.379717,-0.215283 0.01045,-0.0065 0.04387,-0.02698 0.07426,-0.04555 0.182114,-0.111023 0.453369,-0.295545 0.58873,-0.40049 0.02501,-0.01936 0.05737,-0.04378 0.07193,-0.0542 0.186394,-0.133533 0.579361,-0.477222 0.781467,-0.683477 0.01522,-0.01554 0.03768,-0.03818 0.04992,-0.05038 0.108197,-0.1078 0.406025,-0.445569 0.497913,-0.564692 0.065,-0.08427 0.226008,-0.299564 0.226008,-0.302217 0,-0.002 0.009,-0.01533 0.01997,-0.0298 0.04144,-0.05464 0.165191,-0.240606 0.208257,-0.312975 0.01546,-0.02598 0.03063,-0.05008 0.03371,-0.05355 0.008,-0.009 0.220021,-0.385042 0.2362,-0.41894 0.0074,-0.01558 0.02571,-0.05167 0.04059,-0.08019 0.01489,-0.0285 0.02707,-0.05325 0.02707,-0.05497 0,-0.0015 0.0099,-0.02235 0.02205,-0.04579 0.02715,-0.05255 0.09306,-0.195809 0.120361,-0.261602 0.01114,-0.02683 0.03008,-0.07222 0.04209,-0.100795 0.08055,-0.191758 0.1958,-0.52686 0.253035,-0.735716 0.119135,-0.434725 0.182122,-0.802574 0.221642,-1.2944018 0.01227,-0.152752 0.01218,-0.724208 -1.6e-4,-0.875674 -0.04265,-0.523925 -0.104767,-0.876204 -0.237384,-1.346077 -0.08499,-0.301143 -0.221979,-0.669738 -0.356833,-0.960159 -0.06674,-0.143739 -0.191644,-0.386938 -0.198721,-0.386938 -0.0024,0 -0.01534,0.0066 -0.02888,0.01478 -0.01354,0.0081 -0.03895,0.02189 -0.05645,0.03056 -0.02645,0.01311 -0.346105,0.180764 -0.351945,0.184572 -0.001,5.04e-4 0.01729,0.03702 0.04067,0.08074 0.02338,0.04373 0.04252,0.08084 0.04252,0.08244 0,0.0015 0.0092,0.02083 0.02054,0.04272 0.02445,0.04741 0.04031,0.08017 0.05738,0.118558 0.0069,0.01558 0.02109,0.0468 0.03145,0.0693 0.238789,0.518815 0.410496,1.129897 0.495102,1.76201 0.06056,0.452478 0.0595,1.060161 -0.0027,1.520194 -0.04917,0.3639348 -0.117937,0.6795628 -0.220586,1.0125048 -0.07387,0.239612 -0.222987,0.624548 -0.306954,0.792396 -0.0052,0.01039 -0.02608,0.05291 -0.0464,0.0945 -0.06021,0.123223 -0.06821,0.138445 -0.152164,0.289795 -0.12549,0.226227 -0.226129,0.389071 -0.34205,0.553485 -0.04199,0.05956 -0.24203,0.328252 -0.265669,0.356854 -0.0078,0.0094 -0.02049,0.02532 -0.02826,0.03531 -0.02968,0.03828 -0.187628,0.224052 -0.241102,0.283536 -0.255872,0.284641 -0.639997,0.639784 -0.9366,0.86594 -0.184012,0.140305 -0.349588,0.257542 -0.490405,0.347236 -0.04728,0.03011 -0.111414,0.07165 -0.142534,0.09232 -0.06671,0.04428 -0.286544,0.173331 -0.34484,0.202417 -0.02912,0.01453 -0.03947,0.0174 -0.03634,0.01019 0.003,-0.0069 -0.01113,-0.02527 -0.04416,-0.05756 -0.15066,-0.147195 -0.184128,-0.185698 -0.328266,-0.377674 -0.09816,-0.130737 -0.166615,-0.214767 -0.282257,-0.346488 -0.145016,-0.165181 -0.244427,-0.287688 -0.357844,-0.440985 -0.144252,-0.194982 -0.178135,-0.23473 -0.253605,-0.297506 -0.07884,-0.06558 -0.134145,-0.101113 -0.201441,-0.129417 -0.05631,-0.0237 -0.06086,-0.02456 -0.08841,-0.01735 -0.01597,0.004 -0.04655,0.01639 -0.06795,0.02709 -0.07787,0.03899 -0.353377,0.206346 -0.442529,0.268789 -0.320229,0.22428 -0.443397,0.301446 -0.653736,0.409558 -0.269035,0.138288 -0.463982,0.207314 -0.657758,0.232894 -0.174279,0.023 -0.422937,0.0094 -0.627866,-0.0343 -0.172234,-0.03672 -0.352859,-0.103917 -0.475199,-0.17675 -0.149303,-0.08889 -0.317573,-0.228239 -0.433076,-0.358654 -0.08085,-0.09128 -0.131459,-0.13386 -0.22515,-0.189414 -0.07964,-0.04721 -0.13982,-0.0717 -0.176622,-0.0718 -0.121057,-3.63e-4 -0.295659,0.111708 -0.409654,0.262943 -0.06669,0.08848 -0.09237,0.145207 -0.163216,0.360515 -0.09125,0.277337 -0.182431,0.461375 -0.350455,0.707357 -0.02316,0.03389 -0.04826,0.07075 -0.05581,0.0819 -0.02178,0.03223 -0.138879,0.188637 -0.155284,0.207444 -0.0082,0.0094 -0.04036,0.04857 -0.07147,0.08705 -0.03112,0.03848 -0.07249,0.08857 -0.09194,0.111296 -0.01945,0.02275 -0.04173,0.04918 -0.04951,0.05883 -0.0078,0.0096 -0.03911,0.04635 -0.06963,0.08164 -0.03634,0.04201 -0.05433,0.06806 -0.05213,0.07553 0.0049,0.01695 -0.0014,0.01488 -0.2248024,-0.07253 C 9.8226514,15.200621 9.4958464,15.052724 9.3475302,14.978942 9.0644377,14.838108 8.7554865,14.661413 8.5447812,14.519842 8.1712636,14.268872 7.9663036,14.111393 7.6746693,13.851294 7.2921175,13.510116 7.0088846,13.200318 6.7067609,12.792611 c -0.043648,-0.0589 -0.085573,-0.116237 -0.093164,-0.127414 -0.00759,-0.0112 -0.041595,-0.06119 -0.07557,-0.111154 C 6.3222032,12.23668 6.1045514,11.833961 5.9502571,11.466501 5.8941531,11.332884 5.7838355,11.030999 5.7499713,10.918418 5.6115375,10.458183 5.5344055,10.052599 5.4953806,9.5797042 c -0.014506,-0.175771 -0.016541,-0.682387 -0.00344,-0.856776 0.032472,-0.432254 0.1010891,-0.830217 0.2107305,-1.222164 0.029164,-0.104249 0.075414,-0.255519 0.094384,-0.308693 0.036348,-0.101873 0.09999,-0.275037 0.1134535,-0.308687 0.035625,-0.08905 0.072385,-0.177754 0.080929,-0.195295 0.00506,-0.01039 0.025704,-0.05576 0.045869,-0.100799 0.020165,-0.04504 0.049223,-0.105698 0.064571,-0.134788 0.033316,-0.06315 0.045045,-0.04539 -0.1059625,-0.160248 -0.059994,-0.04564 -0.1451738,-0.11077 -0.1892883,-0.144774 -0.075158,-0.05793 -0.094451,-0.06709 -0.094451,-0.04484 0,0.0051 -0.00321,0.01407 -0.00708,0.02013 -0.00872,0.01347 -0.040724,0.07773 -0.08231,0.165281 -0.017283,0.03636 -0.034328,0.07182 -0.037879,0.07875 -0.078907,0.153933 -0.2551336,0.607258 -0.3208198,0.825274 -0.00626,0.02078 -0.017654,0.05765 -0.025311,0.0819 -0.012307,0.03898 -0.053658,0.188597 -0.081833,0.296089 -0.017429,0.06649 -0.072851,0.325301 -0.084316,0.393736 -0.0061,0.03636 -0.014268,0.08316 -0.018163,0.103948 -0.031153,0.166279 -0.061906,0.450748 -0.078326,0.72448 -0.012339,0.205684 -0.00504,0.667023 0.013911,0.878826 0.028871,0.322754 0.060894,0.5323878 0.1318423,0.8630748 0.04126,0.192309 0.1244377,0.48567 0.1964869,0.692978 0.1376911,0.396188 0.2974607,0.748911 0.5036545,1.111918 0.084099,0.148057 0.2064056,0.349339 0.2469085,0.40634 0.00862,0.0121 0.027854,0.04045 0.04275,0.063 0.1398166,0.21143 0.4180793,0.569347 0.5755053,0.740252 0.00639,0.0069 0.022763,0.02537 0.03638,0.04096 0.013613,0.01558 0.030053,0.03399 0.036532,0.0409 0.00648,0.0069 0.047097,0.05048 0.090267,0.09677 0.3162961,0.33911 0.7749472,0.736327 1.1539747,0.999397 0.1059194,0.07352 0.200833,0.138328 0.2539991,0.173446 0.1823939,0.120464 0.5620889,0.340679 0.7355581,0.4266 0.017503,0.0087 0.041375,0.02073 0.053045,0.02683 0.024114,0.01256 0.064034,0.03228 0.155599,0.07692 0.1134175,0.05528 0.4315698,0.194543 0.5375233,0.235274 0.011668,0.0045 0.04031,0.01573 0.063654,0.02506 0.039001,0.01554 0.1350408,0.05116 0.2404713,0.08922 0.195264,0.07049 0.433498,0.142812 0.753239,0.228682 0.06159,0.01654 0.395755,0.09151 0.449115,0.10076 0.02334,0.004 0.0679,0.01271 0.09902,0.01921 0.03112,0.0065 0.08363,0.01614 0.116699,0.02143 0.03306,0.0052 0.114224,0.01816 0.180354,0.02869 0.251065,0.0399 0.595844,0.07518 0.919447,0.0941 0.152884,0.0089 0.778654,0.0072 0.947739,-0.0025 z m -2.94801,-2.272307 c -0.0023,-0.0051 -0.0039,-0.0035 -0.0042,0.004 -3.05e-4,0.0066 0.0014,0.01039 0.0037,0.0083 0.0023,-0.002 0.0026,-0.0075 5.5e-4,-0.01206 z m 2.9763,-0.266333 c 0.09422,-0.01614 0.184716,-0.04625 0.314734,-0.104718 0.168391,-0.07574 0.291601,-0.142323 0.459724,-0.248444 0.02528,-0.01594 0.05393,-0.03374 0.06365,-0.03949 0.02685,-0.01594 0.203469,-0.139191 0.278248,-0.194175 0.0084,-0.0062 0.01167,-0.01447 0.0092,-0.0233 -0.0035,-0.01266 -0.0174,-0.138526 -0.05398,-0.489382 -0.04101,-0.393419 -0.06368,-0.74241 -0.06362,-0.979621 8.1e-5,-0.342237 0.03201,-0.806926 0.07378,-1.074116 0.06639,-0.424755 0.131757,-0.7426418 0.196258,-0.9544238 0.04695,-0.154175 0.144569,-0.424234 0.182169,-0.503988 0.0033,-0.0069 0.03223,-0.07213 0.06436,-0.144894 0.03213,-0.07276 0.06278,-0.140094 0.0681,-0.149621 0.0053,-0.0095 0.0067,-0.01735 0.0031,-0.01735 -0.0036,0 -0.04081,0.02058 -0.08265,0.0457 -0.126063,0.07569 -0.153135,0.09033 -0.393202,0.212599 -0.133462,0.06797 -0.276797,0.135696 -0.339488,0.160399 -0.05967,0.0235 -0.128616,0.05091 -0.1532,0.06088 -0.02458,0.01 -0.04584,0.0181 -0.04725,0.0181 -0.0014,0 -0.02266,0.0083 -0.04725,0.01836 -0.105068,0.04312 -0.171022,0.06338 -0.267487,0.08211 -0.356249,0.06914 -0.32812,0.06576 -0.507315,0.06101 -0.229319,-0.0061 -0.317244,-0.01528 -0.55005,-0.0575 -0.02723,-0.0051 -0.0702,-0.01206 -0.09548,-0.01579 -0.09955,-0.01468 -0.201983,-0.04146 -0.300589,-0.07849 -0.01167,-0.0045 -0.05304,-0.01851 -0.09194,-0.03138 -0.0389,-0.01286 -0.07709,-0.02602 -0.08487,-0.0292 -0.0078,-0.003 -0.03165,-0.01135 -0.05304,-0.01806 -0.09437,-0.02976 -0.139291,-0.04696 -0.272298,-0.10436 -0.262762,-0.113374 -0.360221,-0.154277 -0.367559,-0.154277 -0.0031,0 -0.0024,0.0035 0.0015,0.0079 0.008,0.009 0.07207,0.142277 0.111359,0.231517 0.07137,0.162129 0.142195,0.349611 0.193953,0.513434 0.01204,0.03813 0.0249,0.07781 0.02859,0.0882 0.04077,0.115108 0.12402,0.4630748 0.173323,0.7244748 0.123268,0.653558 0.159069,0.962292 0.159258,1.373363 1.33e-4,0.296745 -0.02063,0.572499 -0.07027,0.932928 -0.0076,0.05513 -0.01594,0.121856 -0.01855,0.148279 l -0.0048,0.04801 0.04156,0.02713 c 0.115331,0.07523 0.170414,0.124762 0.300858,0.270554 0.02946,0.03294 0.06924,0.07261 0.08841,0.0882 0.155253,0.126234 0.248206,0.182565 0.378089,0.229117 0.08171,0.0293 0.242403,0.06459 0.331568,0.07285 0.04084,0.0035 0.08381,0.008 0.09548,0.0094 0.04074,0.0051 0.191412,-0.0025 0.247544,-0.01195 z m 0.07073,-2.921019 c -0.132006,-0.01614 -0.271645,-0.04741 -0.429064,-0.0961 -0.159863,-0.04948 -0.354776,-0.120429 -0.416121,-0.151507 -0.05379,-0.02724 -0.108669,-0.07261 -0.127879,-0.105687 -0.01807,-0.03112 -0.01831,-0.08939 -4.59e-4,-0.115224 0.0182,-0.02638 0.08587,-0.08611 0.164415,-0.145162 0.03657,-0.02749 0.07286,-0.05516 0.08064,-0.06148 0.02262,-0.01836 0.08604,-0.05455 0.113701,-0.06485 0.01479,-0.0055 0.04072,-0.0087 0.06195,-0.0076 l 0.03653,0.002 0.0062,0.02617 c 0.0063,0.02668 0.0052,0.03142 -0.03211,0.140144 -0.0314,0.09148 0.013,0.140089 0.167392,0.183266 0.03501,0.0098 0.100255,0.02391 0.144989,0.03132 0.04474,0.0074 0.09566,0.01609 0.113163,0.01927 0.106965,0.01936 0.350478,0.04822 0.427897,0.05073 0.05847,0.002 0.06568,3.38e-4 0.09156,-0.01992 l 0.02486,-0.01942 -0.0043,-0.04549 c -0.0036,-0.03793 -0.0019,-0.05044 0.01035,-0.07505 0.01143,-0.02299 0.01832,-0.02956 0.03117,-0.02956 0.01897,0 0.08373,0.02869 0.131758,0.0584 0.01809,0.0112 0.04082,0.02406 0.05052,0.02865 0.0317,0.01493 0.06463,0.04005 0.07892,0.06016 0.01135,0.01599 0.01333,0.02698 0.01041,0.05781 -0.0039,0.0413 -0.02505,0.07913 -0.08004,0.14321 -0.04087,0.04761 -0.07296,0.06995 -0.147161,0.102343 -0.05253,0.02295 -0.07698,0.0295 -0.1399,0.03748 -0.100369,0.01271 -0.24653,0.01125 -0.369333,-0.0035 z m 1.46758,2.073462 c 0,-0.0035 -0.0031,-0.0063 -0.0071,-0.0063 -0.0039,0 -0.0071,0.003 -0.0071,0.0063 0,0.0035 0.0031,0.0063 0.0071,0.0063 0.0039,0 0.0071,-0.003 0.0071,-0.0063 z m -3.361518,-0.829914 c -0.0016,-0.0096 -0.003,-0.003 -0.0031,0.01407 -8e-5,0.0173 0.0013,0.02517 0.003,0.0174 0.0017,-0.0078 0.0017,-0.02194 1.08e-4,-0.03153 z m -0.0071,-0.418949 c -0.0017,-0.0078 -0.0031,-0.003 -0.0032,0.01095 -8e-5,0.01387 0.0013,0.02028 0.0031,0.01428 0.0018,-0.006 0.0018,-0.01735 1.33e-4,-0.02521 z m 1.777311,-2.5565948 c 0.03696,-0.007 0.12052,-0.0226 0.185701,-0.03465 0.06518,-0.01206 0.1352,-0.02865 0.155599,-0.03687 0.0204,-0.0083 0.07846,-0.03127 0.129033,-0.05112 0.05057,-0.01987 0.111041,-0.04388 0.134381,-0.05336 0.02334,-0.0095 0.05994,-0.02386 0.08134,-0.03193 0.02139,-0.0081 0.05322,-0.02158 0.07073,-0.03006 0.04166,-0.02013 0.182127,-0.09068 0.240471,-0.120782 0.02528,-0.01306 0.05711,-0.02935 0.07073,-0.03621 0.109376,-0.05527 0.178184,-0.09282 0.25108,-0.137043 0.286077,-0.173537 0.367274,-0.220078 0.495087,-0.283767 0.01556,-0.0078 0.07038,-0.03551 0.121823,-0.06163 0.09698,-0.04927 0.254521,-0.120797 0.334364,-0.15178 0.02528,-0.0098 0.08857,-0.03591 0.140642,-0.05796 0.05207,-0.02204 0.09683,-0.04015 0.09946,-0.04015 0.0026,0 0.0182,-0.0057 0.0346,-0.01281 0.0164,-0.0071 0.09895,-0.03565 0.18345,-0.0636 0.0845,-0.02794 0.195012,-0.06448 0.245581,-0.08123 0.132581,-0.04393 0.271325,-0.08386 0.601178,-0.173118 0.147028,-0.03979 0.247662,-0.06729 0.314734,-0.08601 0.03696,-0.01034 0.07356,-0.02032 0.08134,-0.02229 0.0078,-0.002 0.06029,-0.01624 0.116699,-0.03183 0.0564,-0.01554 0.112103,-0.03046 0.123772,-0.03319 0.114601,-0.02632 0.261334,-0.07423 0.42436,-0.13848 0.01556,-0.0062 0.06012,-0.023 0.09902,-0.03752 0.0389,-0.01452 0.08664,-0.03313 0.10609,-0.04141 0.03634,-0.01543 0.09273,-0.05799 0.08546,-0.06446 -0.0074,-0.0065 -0.07737,-0.02764 -0.124358,-0.03742 -0.02528,-0.0053 -0.05234,-0.01206 -0.06012,-0.01503 -0.0078,-0.003 -0.04597,-0.01291 -0.08487,-0.02214 -0.250373,-0.05929 -0.337546,-0.08441 -0.44539,-0.128327 -0.190983,-0.07777 -0.204251,-0.08325 -0.300777,-0.124226 -0.163354,-0.06934 -0.458956,-0.214652 -0.548133,-0.26945 -0.202372,-0.124358 -0.492239,-0.299564 -0.495604,-0.299564 -0.0015,0 -0.06876,0.03591 -0.149585,0.07985 -0.275605,0.149767 -0.312586,0.168161 -0.415712,0.206769 -0.136494,0.0511 -0.273107,0.09479 -0.374852,0.119874 -0.0389,0.0096 -0.113693,0.02804 -0.166208,0.04105 -0.164672,0.0407 -0.15561,0.03979 -0.349665,0.0347 -0.09749,-0.0025 -0.201119,-0.0069 -0.230294,-0.0096 -0.132918,-0.01221 -0.393728,-0.1061 -0.553777,-0.199334 -0.10202,-0.05944 -0.207956,-0.148108 -0.307713,-0.257572 -0.05,-0.05488 -0.129723,-0.180719 -0.119976,-0.189404 0.0025,-0.002 0.0244,0.0097 0.04862,0.02653 0.124762,0.08663 0.167178,0.113413 0.238102,0.150352 0.0067,0.0035 0.03132,0.0174 0.05466,0.03087 0.02334,0.01347 0.107683,0.05346 0.187426,0.08888 0.119475,0.05306 0.170506,0.07164 0.289981,0.105545 0.137009,0.03889 0.151606,0.04171 0.265224,0.05121 0.06613,0.0055 0.168655,0.01286 0.227835,0.01629 l 0.107599,0.0062 0.151802,-0.03419 c 0.08349,-0.01881 0.157606,-0.03697 0.1647,-0.0404 0.0071,-0.0035 0.06382,-0.0238 0.126059,-0.04529 0.136346,-0.04715 0.351799,-0.141269 0.438505,-0.191527 0.09994,-0.05793 0.15684,-0.08953 0.167977,-0.09329 0.0068,-0.0025 0.01233,-0.0064 0.01227,-0.0091 -8e-5,-0.0025 -0.03691,-0.029 -0.08188,-0.05848 -0.04498,-0.02946 -0.116626,-0.07685 -0.159215,-0.105344 l -0.07744,-0.05179 -0.07231,0.05195 c -0.209222,0.150307 -0.312496,0.199618 -0.503243,0.240283 -0.178658,0.03808 -0.313134,0.03828 -0.488515,5.04e-4 -0.04939,-0.01059 -0.220722,-0.05658 -0.247544,-0.06643 -0.0078,-0.003 -0.03165,-0.01009 -0.05304,-0.01603 -0.02139,-0.006 -0.04526,-0.01311 -0.05304,-0.01584 -0.0078,-0.0025 -0.03165,-0.0096 -0.05304,-0.01533 -0.02139,-0.0057 -0.04526,-0.01291 -0.05304,-0.01599 -0.0078,-0.003 -0.03764,-0.01276 -0.06636,-0.02148 -0.0601,-0.01825 -0.06843,-0.02254 -0.161644,-0.08261 -0.03797,-0.02446 -0.115196,-0.06889 -0.171601,-0.09869 -0.106537,-0.05629 -0.175988,-0.106262 -0.315918,-0.227316 -0.08538,-0.07386 -0.107859,-0.10943 -0.09358,-0.148063 0.0096,-0.02592 0.113637,-0.212579 0.137624,-0.246854 0.0085,-0.0121 0.03399,-0.05038 0.05668,-0.08505 0.116261,-0.177557 0.248444,-0.3332 0.405926,-0.477969 l 0.0745,-0.06848 0.121662,-0.05279 c 0.06691,-0.02905 0.123688,-0.05279 0.126164,-0.05279 0.0025,0 0.02411,-0.008 0.04808,-0.01785 0.05373,-0.02199 0.130589,-0.04549 0.209787,-0.06407 0.03306,-0.0078 0.08081,-0.01917 0.106091,-0.02537 0.122358,-0.03001 0.139421,-0.03223 0.192849,-0.02532 0.105367,0.01362 0.144139,0.01902 0.1812,0.02532 0.02095,0.0035 0.04904,0.0065 0.06241,0.0065 h 0.02431 l -0.07816,-0.07411 c -0.09178,-0.08703 -0.08882,-0.08336 -0.244777,-0.303877 -0.03798,-0.05371 -0.08692,-0.122562 -0.108753,-0.153015 -0.02183,-0.03046 -0.05111,-0.07156 -0.06507,-0.09135 -0.02812,-0.03984 -0.169322,-0.255751 -0.261608,-0.399976 -0.0481,-0.07516 -0.0784,-0.112792 -0.157256,-0.195294 -0.171867,-0.179806 -0.202055,-0.208676 -0.250702,-0.239749 -0.02623,-0.01674 -0.08727,-0.05592 -0.135652,-0.08704 -0.13926,-0.08958 -0.111374,-0.07911 -0.368224,-0.138303 -0.06029,-0.01387 -0.125322,-0.02935 -0.144505,-0.03435 -0.05785,-0.01508 -0.05619,-0.01659 -0.05077,0.04741 0.0026,0.03107 0.0095,0.06829 0.01516,0.08269 0.01454,0.03672 0.01302,0.05234 -0.0072,0.07375 -0.02843,0.03011 -0.107219,0.04231 -0.150049,0.0233 -0.04435,-0.01972 -0.05693,-0.03611 -0.06333,-0.08262 -0.01,-0.07246 -0.0052,-0.207192 0.0111,-0.311114 0.0084,-0.05371 0.0182,-0.117493 0.02176,-0.141748 0.01673,-0.113927 0.02929,-0.173612 0.04508,-0.214193 0.01724,-0.04433 0.07748,-0.184365 0.08941,-0.207893 0.0035,-0.0069 0.01578,-0.03672 0.02726,-0.06615 0.04435,-0.113761 0.104375,-0.226529 0.206257,-0.387437 0.05604,-0.08851 0.06593,-0.100089 0.156149,-0.182696 0.05297,-0.04852 0.102334,-0.09516 0.10969,-0.103659 0.02302,-0.02663 0.131667,-0.122557 0.176046,-0.155466 0.06401,-0.04746 0.06517,-0.04811 0.215716,-0.12066105 0.05648,-0.02724 0.209659,-0.07361 0.314734,-0.09532 0.05306,-0.01095 0.08674,-0.01317 0.202389,-0.01311 0.123259,5e-6 0.147717,0.002 0.219253,0.01619 0.10057,0.02017 0.306809,0.07547 0.335134,0.08984 0.02892,0.01468 0.05587,0.06352 0.04943,0.08962 -0.0027,0.01084 -0.02565,0.04711 -0.05105,0.08057 -0.05732,0.07552 -0.08776,0.141304 -0.107139,0.231528 -0.01445,0.06729 -0.01458,0.07181 -0.0034,0.125961 0.0063,0.03092 0.01789,0.06751 0.02564,0.08136 0.0379,0.06777 0.07764,0.117851 0.13254,0.167066 0.06725,0.06028 0.08924,0.06948 0.194499,0.08131 0.123928,0.01392 0.203468,0.0035 0.235933,-0.03132 0.02881,-0.03076 0.05328,-0.07336 0.07586,-0.132018 l 0.02062,-0.05354 -3.71e-4,-0.154347 c -4.26e-4,-0.176129 -0.0048,-0.203294 -0.04681,-0.2922 -0.07668,-0.162205 -0.275103,-0.3550182 -0.422144,-0.4102052 -0.06559,-0.02461 -0.156153,-0.05222 -0.255629,-0.07791 -0.114413,-0.02956 -0.250238,-0.03646 -0.383689,-0.01957 -0.05543,0.007 -0.151712,0.02284 -0.213952,0.03515 -0.188166,0.03722 -0.522372,0.142253 -0.592461,0.186177 -0.15495,0.09711 -0.387706,0.2925792 -0.520121,0.4368132 -0.06138,0.06686 -0.182716,0.191472 -0.199352,0.204742 -0.01172,0.0093 -0.0564,0.06439 -0.102526,0.126309 -0.04735,0.06356 -0.05568,0.07972 -0.08862,0.171943 -0.02,0.05599 -0.04378,0.115961 -0.05285,0.133286 -0.09102,0.173879 -0.129302,0.296376 -0.162437,0.519733 -0.03656,0.246466 -0.06058,0.390645 -0.06874,0.41264 -0.01175,0.03168 -0.04344,0.0472 -0.09622,0.04726 -0.06959,2e-5 -0.11096,-0.02809 -0.110154,-0.07489 2.14e-4,-0.01251 0.0056,-0.04827 0.01204,-0.07945 0.01429,-0.06954 0.01432,-0.06615 -6.87e-4,-0.06612 -0.0157,2.5e-5 -0.232281,0.04685 -0.25776,0.05575 -0.0342,0.0119 -0.312527,0.15941 -0.345031,0.182837 -0.01742,0.01255 -0.111406,0.09376 -0.208856,0.180462 -0.189449,0.168544 -0.180224,0.158149 -0.332359,0.374405 -0.0982,0.139589 -0.158104,0.224416 -0.181553,0.257083 -0.01428,0.01987 -0.04072,0.05741 -0.05877,0.0834 -0.01805,0.02598 -0.05944,0.08552 -0.09198,0.132295 -0.03254,0.04675 -0.08346,0.120485 -0.113149,0.163793 -0.05432,0.07923 -0.155881,0.224074 -0.247674,0.353218 -0.06557,0.09226 -0.08287,0.119294 -0.07624,0.119163 0.01365,-2.67e-4 0.110325,-0.02532 0.168182,-0.04358 0.14055,-0.04438 0.14773,-0.04579 0.314734,-0.06074 0.161108,-0.01443 0.213236,-0.01357 0.338285,0.0057 0.101911,0.01564 0.313193,0.06002 0.34917,0.07332 0.0089,0.0035 0.04811,0.01639 0.087,0.02905 0.0389,0.01266 0.07987,0.02724 0.09105,0.03238 0.02823,0.01296 0.179302,0.121367 0.210278,0.150872 0.04328,0.0412 0.245313,0.271432 0.441905,0.503529 0.124501,0.146983 0.132463,0.158048 0.141548,0.196722 0.01416,0.06029 0.0012,0.08296 -0.07608,0.132891 -0.33274,0.215061 -0.421145,0.269777 -0.554082,0.342974 -0.03873,0.02133 -0.175698,0.08274 -0.272298,0.122098 -0.02139,0.0087 -0.06535,0.02688 -0.09767,0.0403 -0.03232,0.01347 -0.05998,0.02446 -0.06147,0.02446 -0.0015,0 -0.03013,0.01135 -0.06365,0.02521 -0.03352,0.01387 -0.06213,0.02522 -0.06358,0.02522 -0.0014,0 -0.02274,0.0083 -0.04732,0.0184 -0.04743,0.01952 -0.165101,0.05297 -0.23566,0.06698 -0.06158,0.01221 -0.348728,0.02395 -0.484478,0.01977 -0.102844,-0.003 -0.242835,-0.01755 -0.339488,-0.0349 -0.154697,-0.02779 -0.317011,-0.0812 -0.413751,-0.136201 -0.07955,-0.04524 -0.1700945,-0.128291 -0.2263256,-0.207631 -0.00729,-0.01034 -0.013181,-0.0074 -0.233398,0.119173 -0.048444,0.02784 -0.1302146,0.07284 -0.1718711,0.09458 -0.089418,0.0467 -0.2630989,0.145122 -0.2630989,0.149116 0,0.003 0.00494,0.0052 0.0109,0.0052 0.0218,0 0.2195263,0.06466 0.2925544,0.09567 0.1727762,0.07337 0.2102083,0.08881 0.2269982,0.09364 0.00972,0.003 0.060464,0.01951 0.1127609,0.03712 0.084701,0.02854 0.2366431,0.06655 0.3681821,0.09216 0.02528,0.0051 0.05067,0.01054 0.0564,0.01246 0.01916,0.0065 0.370522,0.05384 0.44222,0.0596 0.108769,0.0087 0.24085,0.0075 0.289528,-0.003 0.02359,-0.0051 0.08668,-0.0178 0.140199,-0.02845 0.05352,-0.01069 0.110811,-0.02472 0.127308,-0.03117 0.0165,-0.0065 0.04909,-0.01902 0.07243,-0.02789 0.216434,-0.08207 0.330633,-0.133935 0.447184,-0.203097 0.08086,-0.04796 0.119954,-0.07673 0.194772,-0.14322 0.05148,-0.04574 0.125182,-0.119325 0.163779,-0.163496 0.0386,-0.04418 0.07273,-0.08031 0.07585,-0.08031 0.0031,0 0.0042,0.0078 0.0023,0.01735 -0.0018,0.0095 -0.0064,0.04423 -0.01027,0.07718 -0.01766,0.152037 -0.08312,0.252781 -0.256902,0.395361 -0.07427,0.06094 -0.182386,0.121811 -0.34277,0.192995 -0.136895,0.06076 -0.158722,0.06828 -0.327039,0.112687 -0.182549,0.04816 -0.218337,0.055 -0.355777,0.06794 -0.150553,0.01417 -0.418314,-0.01483 -0.761705,-0.08245 -0.01361,-0.0025 -0.04067,-0.0078 -0.06012,-0.01144 -0.09346,-0.01735 -0.2862799,-0.07172 -0.3996058,-0.112617 C 9.3961785,6.5626322 9.334922,6.5415142 9.1885006,6.4963042 9.1184836,6.4746642 9.0436758,6.4506642 9.0222662,6.4429442 l -0.038928,-0.01407 -0.098991,0.05303 c -0.054445,0.02916 -0.1133128,0.06026 -0.1308172,0.0691 -0.045924,0.0232 -0.564034,0.25507 -0.5976417,0.267467 -0.045723,0.01684 -0.2079125,0.07556 -0.3713151,0.134364 -0.083634,0.03011 -0.1616106,0.0584 -0.1732804,0.06289 -0.058754,0.0226 -0.077415,0.02824 -0.093045,0.02824 -0.040257,0 -0.2711983,0.161851 -0.2711983,0.190065 0,0.01452 0.026758,0.03268 0.090067,0.06104 0.050419,0.02259 0.064411,0.02608 0.1041884,0.02608 0.048216,0 0.1189876,0.0045 0.392777,0.02583 0.1751654,0.01351 0.2951894,0.02688 0.6188588,0.06877 0.1089196,0.01407 0.2187227,0.02809 0.2440077,0.03112 0.2036847,0.02436 0.3574002,0.04625 0.3960696,0.05639 0.04277,0.01119 0.2047472,0.05799 0.489666,0.14144 0.1056057,0.03091 0.2413024,0.07982 0.482827,0.173955 0.04279,0.01669 0.09849,0.03798 0.123771,0.04731 0.04457,0.0165 0.175931,0.06733 0.240214,0.09299 0.01736,0.0069 0.04383,0.01952 0.05881,0.02794 0.01498,0.0084 0.03738,0.02047 0.04977,0.02678 0.0403,0.02047 0.212978,0.115094 0.23226,0.127243 0.01032,0.0065 0.02089,0.0118 0.02348,0.0118 0.0026,0 0.01806,0.0078 0.03439,0.01735 0.01632,0.0095 0.036,0.02073 0.04371,0.02487 0.0077,0.004 0.04406,0.02401 0.08078,0.04408 0.03671,0.02013 0.0772,0.04226 0.08998,0.04918 0.05826,0.03157 0.237247,0.133527 0.409085,0.232975 0.100558,0.0582 0.161275,0.08946 0.229862,0.118371 0.07267,0.03061 0.286293,0.122759 0.360706,0.155567 0.05939,0.02617 0.149588,0.06144 0.194499,0.07604 0.01945,0.0063 0.05605,0.01846 0.08134,0.02698 0.268048,0.09042 0.337138,0.111729 0.389363,0.120091 0.03286,0.0052 0.129771,0.02124 0.21535,0.0355 0.119106,0.01987 0.182969,0.02709 0.272298,0.03082 0.190904,0.008 0.219005,0.0074 0.289979,-0.0061 z m 5.134762,-2.311668 c 0,-0.0035 -0.003,-0.0063 -0.0067,-0.0063 -0.0037,0 -0.0086,0.003 -0.01103,0.0063 -0.0024,0.0035 5.95e-4,0.0063 0.0067,0.0063 0.006,0 0.01103,-0.003 0.01103,-0.0063 z M 7.5652543,6.6252922 c 0.017508,-0.006 0.041375,-0.01473 0.053045,-0.01927 0.01167,-0.0045 0.043496,-0.01588 0.070727,-0.02517 0.027231,-0.0093 0.059105,-0.02073 0.070833,-0.02532 0.01173,-0.0045 0.030218,-0.0114 0.041091,-0.01508 0.018218,-0.0062 0.02072,-0.01932 0.00367,-0.01932 -0.00404,0 -0.015781,-0.0053 -0.026103,-0.0118 -0.010327,-0.0065 -0.049009,-0.02739 -0.085964,-0.04645 -0.036953,-0.01906 -0.1276621,-0.06661 -0.2015712,-0.105656 -0.1221491,-0.06454 -0.3245018,-0.156117 -0.6719043,-0.304073 -0.070019,-0.0298 -0.1798225,-0.07161 -0.2440072,-0.09285 -0.064184,-0.02124 -0.1230646,-0.04111 -0.1308443,-0.04418 -0.047904,-0.01881 -0.3127259,-0.103755 -0.3796662,-0.121755 -0.044033,-0.01185 -0.091993,-0.02613 -0.1065806,-0.03178 -0.033274,-0.01286 -0.034071,-0.009 -0.00179,0.0088 0.013599,0.0075 0.040299,0.02542 0.059333,0.0399 0.019033,0.01447 0.110549,0.08287 0.2033677,0.152046 0.092819,0.06917 0.1703525,0.127284 0.1722971,0.129145 0.00859,0.0082 0.1314944,0.10151 0.1693679,0.128574 0.04455,0.03183 0.2781445,0.207172 0.297429,0.223256 0.013727,0.01145 0.1833758,0.08939 0.1945603,0.08939 0.00133,0 0.025751,0.0096 0.054234,0.02133 0.028486,0.01176 0.080438,0.03313 0.1154475,0.04756 0.045402,0.01872 0.082921,0.02895 0.1308447,0.03576 0.036953,0.0052 0.078329,0.0117 0.091945,0.01443 0.024701,0.0051 0.030424,0.0035 0.1202353,-0.02754 z m 10.4275937,-0.03419 c 0.03442,-0.01422 0.06401,-0.02587 0.06576,-0.02587 0.0017,0 0.03297,-0.01246 0.06938,-0.02774 0.03642,-0.01528 0.07262,-0.02956 0.08045,-0.03177 0.0078,-0.002 0.03685,-0.01382 0.06448,-0.02583 0.02763,-0.01195 0.05156,-0.02179 0.05317,-0.02179 0.0016,0 0.03036,-0.01135 0.06389,-0.02521 0.03352,-0.01387 0.06231,-0.02521 0.06397,-0.02521 0.0016,0 0.03683,-0.01417 0.07817,-0.03153 0.04134,-0.0173 0.07628,-0.03152 0.07763,-0.03152 0.0014,0 0.03312,-0.01276 0.07058,-0.02835 0.03747,-0.01558 0.0694,-0.02835 0.07097,-0.02835 0.0016,0 0.02595,-0.0095 0.05416,-0.02103 0.02822,-0.0116 0.07199,-0.0292 0.09728,-0.03913 0.0482,-0.01896 0.100792,-0.04302 0.211473,-0.09661 0.03656,-0.0177 0.06766,-0.03217 0.0691,-0.03217 0.0014,0 0.01449,-0.0066 0.029,-0.01473 0.01451,-0.0081 0.05662,-0.02854 0.09357,-0.04539 0.03696,-0.01684 0.08469,-0.03959 0.10609,-0.05048 0.02139,-0.01089 0.06755,-0.03339 0.102553,-0.04998 0.100385,-0.04756 0.212445,-0.105021 0.403143,-0.206799 0.133675,-0.07135 0.19382,-0.107598 0.246502,-0.148571 0.214239,-0.166623 0.254601,-0.201554 0.31791,-0.275149 0.107509,-0.124979 0.1751,-0.204524 0.210438,-0.247667 0.08083,-0.09867 0.212693,-0.272904 0.209021,-0.276172 -0.0012,-9.82e-4 -0.03479,0.01074 -0.07473,0.02617 -0.03994,0.01543 -0.0818,0.02986 -0.09301,0.03208 -0.01371,0.0025 -0.04068,0.0237 -0.08231,0.06422 -0.03406,0.03313 -0.08445,0.08181 -0.111993,0.108178 -0.02754,0.02638 -0.08081,0.07813 -0.118375,0.115017 -0.09257,0.0909 -0.117173,0.109611 -0.263656,0.20052 -0.06965,0.04322 -0.242802,0.152415 -0.384787,0.242643 -0.141984,0.09023 -0.275858,0.174435 -0.297498,0.18713 -0.0547,0.03208 -0.512759,0.235295 -0.651943,0.289219 -0.0631,0.02446 -0.127522,0.04953 -0.143153,0.05578 -0.01563,0.0062 -0.06662,0.02617 -0.113296,0.04433 -0.04668,0.01816 -0.102378,0.04005 -0.123773,0.04867 -0.06727,0.02703 -0.384508,0.145096 -0.498623,0.185585 -0.0389,0.01382 -0.08028,0.029 -0.09195,0.03374 -0.01167,0.0045 -0.05941,0.02265 -0.10609,0.03979 -0.04668,0.01714 -0.0976,0.03606 -0.113163,0.04207 l -0.02829,0.01095 0.01768,0.0068 c 0.0097,0.0035 0.04315,0.01705 0.07426,0.02971 0.03112,0.01261 0.07727,0.03112 0.102554,0.04111 0.02528,0.01 0.06015,0.02451 0.07749,0.03228 0.02687,0.012 0.03313,0.01281 0.04244,0.0055 0.006,-0.0045 0.03909,-0.02023 0.0735,-0.03445 z M 8.2875161,6.3406612 c 0.1220675,-0.05422 0.2681504,-0.123122 0.3246293,-0.153111 0.05648,-0.03001 0.1089938,-0.05694 0.1166993,-0.05989 0.00966,-0.0035 -0.019061,-0.0087 -0.09263,-0.01619 -0.1261061,-0.01286 -0.1165014,-0.01044 -0.2275645,-0.05725 -0.048325,-0.02038 -0.08927,-0.03702 -0.090989,-0.03702 -0.00174,0 -0.039872,-0.01614 -0.084784,-0.03591 -0.084056,-0.03697 -0.093465,-0.04413 -0.1596326,-0.121578 -0.013325,-0.01558 -0.054299,-0.06348 -0.091058,-0.106413 C 7.858219,5.6084992 7.8399067,5.5857432 7.826993,5.5604702 7.784834,5.4779502 7.6884974,5.2835662 7.6537149,5.2108292 c -0.022369,-0.04675 -0.047966,-0.09793 -0.056884,-0.113691 l -0.016216,-0.02865 -0.1615121,-0.01755 -0.1615121,-0.01755 -0.4172881,0.0025 c -0.3046346,0.002 -0.4535656,0.0055 -0.5516687,0.01301 -0.073909,0.0057 -0.1773473,0.01311 -0.2298618,0.01649 -0.052515,0.0035 -0.1543611,0.01034 -0.2263256,0.01543 -0.2272149,0.01599 -0.2689898,0.01705 -0.4102154,0.01009 -0.075854,-0.0035 -0.1983885,-0.0095 -0.2722975,-0.01281 -0.07391,-0.0035 -0.1566598,-0.0086 -0.1838898,-0.0117 -0.049282,-0.0057 -0.1777098,-0.02996 -0.1878954,-0.03556 -0.00293,-0.0015 -0.031716,-0.0074 -0.063944,-0.01286 -0.03223,-0.0054 -0.067363,-0.01392 -0.078076,-0.01887 -0.0211,-0.0097 -0.041476,-0.0118 -0.041279,-0.004 8.02e-5,0.0025 0.021549,0.01594 0.04774,0.02965 0.02619,0.01372 0.1017228,0.05463 0.1678526,0.09096 0.2074572,0.113948 0.2436715,0.133214 0.4224845,0.224804 0.065491,0.03354 0.1118915,0.04948 0.3024646,0.103705 0.099195,0.02824 0.1978584,0.05663 0.2192528,0.06309 0.021393,0.0065 0.1105105,0.03198 0.1980348,0.05665 0.2423807,0.06839 0.4520903,0.13392 0.6330046,0.197802 0.02334,0.0082 0.066306,0.02259 0.095481,0.03193 0.029173,0.0093 0.066537,0.02235 0.083027,0.0289 0.016491,0.0066 0.031496,0.012 0.033347,0.012 0.00183,0 0.072699,0.03016 0.1574438,0.06698 0.258714,0.112471 0.4563766,0.197605 0.4587922,0.197605 0.00893,0 0.6240492,0.326931 0.6292648,0.334445 0.0022,0.003 0.00816,0.0057 0.01326,0.0057 0.0051,0 0.1091456,-0.04438 0.2312126,-0.09859 z m -3.144653,-1.236972 c -0.00892,-0.0035 -0.010222,-0.0054 -0.00353,-0.0054 0.00583,0 0.016976,0.0025 0.024751,0.0054 0.00892,0.0035 0.010222,0.0054 0.00353,0.0054 -0.00583,0 -0.016976,-0.0025 -0.024756,-0.0054 z m 12.3279249,1.249958 c 0.05432,-0.01936 0.108313,-0.03889 0.119983,-0.04333 0.01167,-0.0045 0.03872,-0.01437 0.06012,-0.02204 0.09582,-0.03424 0.302567,-0.109157 0.321806,-0.116571 0.01167,-0.0045 0.05463,-0.02022 0.09548,-0.03495 0.07315,-0.02632 0.195732,-0.07238 0.25108,-0.09429 0.01556,-0.0062 0.06648,-0.02602 0.113163,-0.04413 0.04668,-0.0181 0.115781,-0.04539 0.153559,-0.06062 0.03778,-0.01523 0.07031,-0.02769 0.0723,-0.02769 0.002,0 0.02041,-0.0069 0.04094,-0.01523 0.02053,-0.0084 0.06437,-0.02577 0.09744,-0.03874 0.120982,-0.04731 0.541895,-0.238078 0.586792,-0.265944 0.03914,-0.02431 0.191601,-0.121301 0.319061,-0.203011 0.01892,-0.0121 0.04792,-0.03057 0.06445,-0.04096 0.01653,-0.01039 0.08182,-0.0515 0.145091,-0.09135 0.06327,-0.03985 0.148972,-0.09371 0.190445,-0.119698 0.05328,-0.03339 0.09397,-0.06573 0.138709,-0.110245 0.03482,-0.03465 0.07467,-0.07222 0.08855,-0.08347 0.01389,-0.01125 0.02392,-0.02158 0.0223,-0.02295 -0.0016,-0.0015 -0.02363,0.002 -0.04892,0.0075 -0.06433,0.01397 -0.808648,0.0178 -1.407463,0.0072 -0.350548,-0.0062 -0.541472,-0.0063 -0.869939,-5.04e-4 -0.3883,0.0068 -0.435309,0.0088 -0.608249,0.02607 -0.103085,0.01029 -0.192723,0.01881 -0.199195,0.01887 -0.01037,9.6e-5 -0.01213,0.01236 -0.01478,0.102495 l -0.0031,0.102368 -0.04014,0.0882 c -0.07028,0.154427 -0.08023,0.1705 -0.159786,0.258293 -0.06385,0.07045 -0.282283,0.254208 -0.353587,0.297446 -0.02162,0.01311 -0.05523,0.03445 -0.07468,0.04746 -0.01945,0.01296 -0.03957,0.02361 -0.04472,0.02361 -0.02724,7e-5 0.01248,0.02824 0.18264,0.129613 0.172022,0.102454 0.311691,0.187613 0.386874,0.235885 0.04776,0.03067 0.244791,0.125876 0.260527,0.125896 0.0079,0 0.05884,-0.01584 0.113163,-0.0352 z m -6.11458,-0.25621 c 0.08819,-0.01917 0.13664,-0.03485 0.258153,-0.08347 0.01167,-0.0045 0.03714,-0.01468 0.05659,-0.02224 0.131637,-0.05112 0.466758,-0.20686 0.531375,-0.246941 0.196469,-0.121871 0.299343,-0.189191 0.296149,-0.193797 -0.0077,-0.0111 -0.07841,-0.01861 -0.236955,-0.02521 -0.102574,-0.004 -0.182456,-0.01069 -0.208644,-0.01669 -0.02335,-0.0054 -0.0663,-0.01503 -0.09548,-0.02143 -0.02917,-0.0064 -0.07745,-0.01705 -0.107279,-0.02361 -0.04738,-0.01044 -0.08985,-0.02401 -0.172091,-0.05498 -0.01167,-0.0045 -0.03555,-0.01231 -0.05304,-0.0176 -0.01751,-0.0052 -0.06683,-0.02254 -0.109626,-0.03838 -0.04279,-0.01584 -0.08098,-0.0288 -0.08487,-0.02885 -0.0039,-10e-6 -0.01621,0.02466 -0.02738,0.05481 -0.02642,0.07133 -0.05575,0.109998 -0.104392,0.137657 -0.07759,0.04413 -0.283174,0.06446 -0.472116,0.04675 -0.107689,-0.01009 -0.164826,-0.03187 -0.215442,-0.082 -0.03106,-0.03076 -0.08951,-0.123646 -0.08951,-0.142232 0,-0.0098 -0.01489,-0.01165 -0.02511,-0.003 -0.0037,0.003 -0.04491,0.02017 -0.09159,0.03793 -0.06705,0.02552 -0.101953,0.04383 -0.166207,0.0873 l -0.08134,0.05501 -0.03419,0.063 c -0.01881,0.03465 -0.04762,0.08761 -0.06403,0.117695 l -0.02984,0.05469 0.04074,0.0524 c 0.0224,0.0288 0.06017,0.07813 0.08391,0.109586 l 0.04317,0.05719 0.103894,0.04443 c 0.05714,0.02446 0.11275,0.04761 0.123572,0.05144 0.02243,0.008 0.160053,0.02694 0.305666,0.04211 0.05446,0.0057 0.100608,0.0117 0.102554,0.01336 0.002,0.0015 0.09743,0.002 0.212181,2.57e-4 l 0.208643,-0.003 0.102554,-0.02229 z m 3.817991,-0.03642 c 0.156013,-0.03263 0.191118,-0.04302 0.250008,-0.07381 0.05653,-0.02955 0.165822,-0.09888 0.221578,-0.140511 0.02334,-0.0174 0.05835,-0.04317 0.0778,-0.05726 0.05245,-0.03793 0.139484,-0.11292 0.156131,-0.134511 0.008,-0.01039 0.03317,-0.05858 0.0559,-0.107093 0.05495,-0.117242 0.0787,-0.231649 0.05124,-0.246769 -0.01034,-0.0057 -0.272989,-0.01372 -0.482529,-0.01477 l -0.176816,-9.82e-4 -0.0077,0.03354 c -0.02032,0.08868 -0.05876,0.152808 -0.112033,0.186888 -0.01899,0.01215 -0.05693,0.02608 -0.100393,0.03682 -0.06778,0.01674 -0.07524,0.0173 -0.25022,0.01725 -0.179903,-2.5e-5 -0.180471,-7.6e-5 -0.226882,-0.0171 -0.02559,-0.0094 -0.05025,-0.01705 -0.05479,-0.01705 -0.02273,0 -0.111083,-0.09278 -0.124487,-0.130723 -0.006,-0.01684 -0.005,-0.0168 -0.07761,-0.004 -0.16196,0.02799 -0.194723,0.03636 -0.304124,0.07778 -0.231441,0.08763 -0.251874,0.09502 -0.262331,0.09502 -0.02438,0 -0.0065,0.02058 0.06535,0.07536 0.07578,0.05774 0.134466,0.09103 0.394302,0.223628 0.115833,0.05912 0.127598,0.06353 0.321305,0.120828 0.26083,0.07714 0.317587,0.08887 0.434218,0.08977 0.06864,5.04e-4 0.105614,-0.0025 0.152062,-0.01216 z M 8.9362619,5.9360992 c 0.010323,-0.0065 0.066514,-0.03349 0.1248635,-0.06 0.058349,-0.02653 0.1210781,-0.0555 0.139396,-0.06437 l 0.033304,-0.01614 -0.1111051,-0.114937 c -0.061109,-0.06321 -0.131383,-0.136331 -0.1561663,-0.162487 -0.048703,-0.0514 -0.029563,-0.04019 -0.3474735,-0.203293 -0.1253294,-0.0643 -0.143122,-0.07107 -0.2652253,-0.100946 -0.01945,-0.0045 -0.097426,-0.02451 -0.1732804,-0.04393 -0.1256369,-0.03213 -0.3366949,-0.0709 -0.345122,-0.0634 -0.00188,0.0015 -1.072e-4,0.0067 0.00399,0.0111 0.00407,0.0045 0.019043,0.03309 0.033247,0.06368 0.02231,0.04807 0.1089247,0.221149 0.1438986,0.287536 0.01113,0.02113 0.039079,0.05528 0.1779627,0.217496 0.08237,0.09621 0.093472,0.106323 0.1373341,0.12513 0.2697019,0.115663 0.2417924,0.105969 0.3225807,0.112062 0.040843,0.003 0.1102077,0.008 0.1541403,0.01099 0.043931,0.003 0.08186,0.0072 0.084283,0.0093 0.00795,0.0071 0.024298,0.004 0.043391,-0.0078 z m 7.4234421,-0.163056 c 0.186046,-0.112581 0.257101,-0.16466 0.410439,-0.300815 0.08313,-0.07382 0.122831,-0.127223 0.166256,-0.223644 0.01951,-0.04333 0.03934,-0.08442 0.04408,-0.09135 0.01139,-0.01669 0.01715,-0.154346 0.0064,-0.154346 -0.0042,0 -0.08973,0.02098 -0.189957,0.0466 -0.139139,0.03556 -0.208893,0.05719 -0.294936,0.09145 -0.06198,0.02466 -0.114155,0.0462 -0.115939,0.04776 -0.0018,0.0015 4.09e-4,0.0068 0.0049,0.0116 0.01489,0.01599 0.03634,0.08139 0.03634,0.110821 0,0.01599 -0.0096,0.07958 -0.02124,0.141318 -0.0214,0.113096 -0.03275,0.14599 -0.08588,0.249044 -0.01499,0.02905 -0.02725,0.05655 -0.02725,0.06107 0,0.0072 0.02577,0.02784 0.03479,0.02784 0.0018,0 0.01624,-0.0078 0.03198,-0.01735 z m -6.8669847,-0.0681 0.036556,-0.02244 -0.013619,-0.03586 c -0.016135,-0.04246 -0.014293,-0.08072 0.00922,-0.191618 0.013149,-0.06202 0.014152,-0.0755 0.00627,-0.08399 -0.00517,-0.0055 -0.054172,-0.04055 -0.1088616,-0.07776 -0.054689,-0.03722 -0.1424014,-0.09698 -0.1949166,-0.132831 -0.102823,-0.07019 -0.1062482,-0.07196 -0.3076607,-0.15824 -0.2425181,-0.103891 -0.296607,-0.126471 -0.3324158,-0.138752 -0.01945,-0.0066 -0.041728,-0.01483 -0.049508,-0.01816 -0.081972,-0.03485 -0.4245354,-0.145334 -0.5198416,-0.167661 -0.064185,-0.01503 -0.1342042,-0.03168 -0.1555992,-0.03702 -0.1408667,-0.035 -0.2607858,-0.06066 -0.3218068,-0.06887 -0.1156825,-0.01558 -0.4042442,-0.04973 -0.6153223,-0.07284 -0.2471487,-0.02709 -0.3975391,-0.04519 -0.4455789,-0.05365 -0.3741715,-0.06607 -0.3525915,-0.0644 -0.6107602,-0.04736 l -0.2179309,0.01437 -0.3070672,-0.01347 c -0.5257418,-0.02305 -0.4868305,-0.01841 -0.7561818,-0.09008 -0.091414,-0.02431 -0.1725734,-0.04559 -0.1803536,-0.0473 -0.00778,-0.0015 -0.038017,-0.0097 -0.067191,-0.01776 -0.029173,-0.008 -0.072141,-0.01957 -0.095481,-0.02562 -0.038012,-0.0098 -0.5772932,-0.247375 -0.5937516,-0.261521 -0.00371,-0.003 -0.00886,-0.0057 -0.011468,-0.0057 -0.00261,0 -0.00688,0.03899 -0.00949,0.08662 -0.00463,0.08464 -0.00422,0.08814 0.017347,0.152773 0.012152,0.03636 0.026873,0.08174 0.032724,0.100795 0.011189,0.03646 0.027547,0.06357 0.091237,0.151174 0.049135,0.06759 0.090697,0.105595 0.1242742,0.11365 0.014286,0.0035 0.044583,0.01351 0.067319,0.02245 0.0697,0.02734 0.090018,0.0352 0.1120688,0.04353 0.06012,0.02269 0.1315471,0.05038 0.1662077,0.06434 0.021393,0.0086 0.054805,0.02128 0.074245,0.02814 0.019441,0.0069 0.038534,0.01458 0.042438,0.01715 0.01184,0.0078 0.067732,0.02487 0.1237894,0.03767 0.029174,0.0066 0.1357955,0.03087 0.2369346,0.05377 0.1011391,0.0229 0.195029,0.04443 0.2086438,0.04781 0.013613,0.0035 0.1520628,0.01191 0.3076619,0.01887 0.1555986,0.0069 0.2908631,0.01392 0.3005883,0.01538 0.016179,0.0025 0.2716387,-0.01246 0.4880145,-0.02854 0.3835526,-0.0285 0.4942083,-0.03193 0.9371297,-0.02925 0.3488929,0.002 0.4283003,0.004 0.4844781,0.01306 0.06787,0.01064 0.2817625,0.03914 0.431433,0.05747 0.1508628,0.01851 0.2078823,0.03016 0.4518199,0.09218 0.217569,0.05533 0.2499661,0.06529 0.307661,0.09454 0.035469,0.01795 0.074034,0.03748 0.085704,0.04338 0.060832,0.03061 0.1635616,0.08384 0.169744,0.08797 0.00701,0.0045 0.065896,0.03384 0.1200089,0.05941 0.027931,0.01321 0.073187,0.04993 0.1134707,0.09209 0.011621,0.01215 0.054454,0.05753 0.095171,0.100799 0.040717,0.04327 0.075737,0.0801 0.077814,0.08183 0.00204,0.0015 0.027458,0.02865 0.056397,0.05984 0.058646,0.0632 0.093405,0.09765 0.098519,0.09765 0.00188,0 0.019849,-0.01009 0.039957,-0.02245 z m 0.6877957,-0.435705 c 0.0305,-0.02028 0.0823,-0.04579 0.127308,-0.06273 0.04174,-0.01573 0.08544,-0.03223 0.09711,-0.03672 0.1428,-0.0548 0.147702,-0.05592 0.339489,-0.07835 0.25446,-0.02976 0.247287,-0.0298 0.449115,0.0025 0.02917,0.0045 0.07691,0.0117 0.10609,0.01563 0.113804,0.01528 0.146266,0.02068 0.180353,0.03011 0.01945,0.0054 0.03855,0.01185 0.04244,0.01443 0.0039,0.0025 0.0198,0.0082 0.03536,0.01251 0.01556,0.0045 0.03783,0.01165 0.04951,0.01629 0.03211,0.01276 0.184451,0.06493 0.240472,0.08236 0.02723,0.0085 0.100431,0.02668 0.162671,0.0405 0.09395,0.02083 0.132372,0.02613 0.226326,0.03097 0.06224,0.003 0.133054,0.0078 0.157366,0.01014 0.02432,0.0025 0.0442,0.0025 0.0442,-9.6e-5 0,-0.0025 -0.04377,-0.05421 -0.09725,-0.115124 -0.05349,-0.06091 -0.128508,-0.146519 -0.166716,-0.190241 -0.08497,-0.09723 -0.105198,-0.116218 -0.181612,-0.170461 -0.07146,-0.05072 -0.07318,-0.05157 -0.161096,-0.07972 -0.172166,-0.05512 -0.438127,-0.1014 -0.542636,-0.09442 -0.204444,0.01367 -0.263164,0.02265 -0.389509,0.0598 -0.05807,0.01705 -0.133635,0.03823 -0.167927,0.04706 -0.06118,0.01573 -0.144577,0.05197 -0.2704,0.11755 -0.03482,0.01816 -0.06928,0.03757 -0.07657,0.04317 -0.01107,0.0085 -0.07727,0.07658 -0.135117,0.138989 -0.0079,0.0085 -0.02738,0.02835 -0.04335,0.04408 -0.103188,0.101843 -0.2078882,0.220774 -0.2078882,0.236147 0,0.003 0.09298,-0.05509 0.1822592,-0.114382 z m 3.821593,0.02017 c 0.119458,-0.046 0.128114,-0.04826 0.296333,-0.07792 0.260766,-0.046 0.284715,-0.04948 0.498623,-0.073 0.10892,-0.01195 0.228271,-0.02542 0.265226,-0.02986 0.04868,-0.0059 0.17375,-0.0079 0.453923,-0.0073 l 0.386734,9.81e-4 -0.01635,-0.02284 c -0.009,-0.01256 -0.03402,-0.05117 -0.05561,-0.08582 -0.02199,-0.03531 -0.05269,-0.07426 -0.0698,-0.08859 -0.07395,-0.06196 -0.224772,-0.166556 -0.240177,-0.166556 -0.0031,0 -0.0267,-0.0086 -0.05234,-0.01902 -0.119305,-0.04867 -0.125754,-0.05029 -0.322087,-0.08138 -0.130989,-0.02073 -0.157247,-0.02154 -0.250512,-0.0076 -0.07707,0.0115 -0.124694,0.0234 -0.335952,0.08393 -0.170834,0.04897 -0.273088,0.112461 -0.400127,0.248519 -0.09548,0.102263 -0.211342,0.24806 -0.263374,0.33143 -0.02173,0.0348 -0.02541,0.04262 -0.02006,0.04262 0.0014,0 0.05786,-0.02128 0.125539,-0.04736 z m -4.4121028,-0.0172 c 0.013424,-0.02164 0.038194,-0.0629 0.055042,-0.09166 0.016856,-0.02875 0.041493,-0.06357 0.054752,-0.07738 l 0.024112,-0.02506 -0.025389,-0.02134 c -0.083129,-0.06983 -0.3988066,-0.259528 -0.4711914,-0.283142 -0.029174,-0.0095 -0.061005,-0.02028 -0.07073,-0.02391 -0.00972,-0.0035 -0.033594,-0.01175 -0.053043,-0.0181 -0.064492,-0.02098 -0.1479593,-0.04847 -0.1909627,-0.06288 -0.1523006,-0.05101 -0.2519436,-0.07989 -0.3465612,-0.100436 -0.076674,-0.01665 -0.1480128,-0.03208 -0.2333978,-0.05048 -0.035011,-0.0075 -0.079568,-0.0177 -0.099018,-0.02254 -0.1417112,-0.03535 -0.2421864,-0.05214 -0.4880145,-0.08146 -0.07002,-0.0084 -0.1734577,-0.02073 -0.2298619,-0.02743 -0.1287237,-0.01538 -0.1710531,-0.0176 -0.6047138,-0.03198 -0.2115323,-0.007 -0.370686,-0.0096 -0.39607,-0.0066 -0.02334,0.003 -0.061532,0.0055 -0.084872,0.0061 -0.07612,0.0015 -0.074556,0.0095 0.00435,0.02149 0.1014351,0.01543 0.1757537,0.02451 0.4695149,0.05734 0.1400389,0.01563 0.297583,0.03405 0.3500976,0.0409 0.052514,0.0069 0.1558585,0.01967 0.2296534,0.0285 0.1126691,0.01347 0.1769285,0.02613 0.4009594,0.07895 0.1467331,0.0346 0.3027794,0.07533 0.3467697,0.09049 0.255282,0.08799 0.4310253,0.152072 0.5117691,0.18661 0.088201,0.03772 0.1515303,0.06468 0.3303961,0.140628 0.085209,0.03616 0.093641,0.04116 0.2456728,0.145374 0.048624,0.03334 0.1175215,0.08045 0.1531034,0.104703 0.035584,0.02426 0.068598,0.04827 0.073363,0.0534 0.013784,0.01477 0.018407,0.01165 0.044259,-0.03006 z m 6.7888528,-0.28692 c 0.02081,-0.0097 0.06331,-0.02728 0.09443,-0.03909 0.03112,-0.0118 0.05977,-0.0235 0.06365,-0.02592 0.0068,-0.004 0.141465,-0.0404 0.222789,-0.05973 0.02139,-0.0051 0.06436,-0.01609 0.09548,-0.02446 0.05865,-0.01573 0.144596,-0.02854 0.272298,-0.04055 0.04084,-0.004 0.145874,-0.01417 0.233398,-0.02305 0.307986,-0.03107 0.741113,-0.03606 2.179131,-0.02497 l 0.62668,0.0051 0.07705,-0.01381 c 0.04238,-0.0076 0.09615,-0.0177 0.119488,-0.02244 0.02334,-0.0045 0.06312,-0.01176 0.08841,-0.01563 0.02529,-0.004 0.06666,-0.01105 0.09194,-0.01599 0.02528,-0.0051 0.0694,-0.01336 0.09803,-0.01872 0.0712,-0.01342 0.417134,-0.156743 0.496076,-0.205569 0.02528,-0.01563 0.115992,-0.07053 0.201571,-0.121972 0.08558,-0.05145 0.168959,-0.102247 0.185286,-0.112884 0.01633,-0.01065 0.04497,-0.02869 0.06365,-0.04015 0.01868,-0.01145 0.05943,-0.03667 0.09055,-0.05599 0.08749,-0.05438 0.226708,-0.187144 0.253077,-0.241337 0.0076,-0.01558 0.02353,-0.04675 0.03542,-0.0693 0.02027,-0.03838 0.02154,-0.04509 0.02022,-0.107094 -0.0015,-0.0692 -0.0059,-0.100799 -0.01413,-0.100799 -0.0069,0 -0.158105,0.103226 -0.312265,0.213174 -0.08622,0.06149 -0.320873,0.200464 -0.447577,0.265077 -0.01641,0.0084 -0.06961,0.03833 -0.118238,0.0666 -0.100675,0.05852 -0.10544,0.06064 -0.391392,0.173365 -0.228476,0.09007 -0.225897,0.08935 -0.616463,0.17257 -0.144134,0.03072 -0.15853,0.03253 -0.459724,0.05793 -0.214094,0.01806 -0.399257,0.02118 -0.548132,0.0092 -0.04474,-0.0035 -0.157721,-0.0083 -0.251081,-0.01039 -0.163762,-0.0035 -0.34245,0.003 -0.756775,0.02905 -0.05446,0.0035 -0.199273,0.009 -0.321807,0.01251 -0.234529,0.0066 -0.360408,0.01271 -0.587033,0.02835 -0.134986,0.0093 -0.17809,0.01347 -0.335951,0.03233 -0.04279,0.0051 -0.110631,0.01321 -0.150759,0.018 -0.04013,0.0045 -0.105374,0.0177 -0.14499,0.02865 -0.152558,0.04226 -0.330184,0.09524 -0.330184,0.0985 0,0.002 0.02019,0.03501 0.04489,0.07361 0.02468,0.03858 0.05232,0.08224 0.06142,0.09696 0.0091,0.01473 0.0204,0.02678 0.02512,0.02678 0.0047,0 0.02562,-0.0079 0.04644,-0.0176 z m -0.149577,-0.255384 c 0.276426,-0.08199 0.367293,-0.104753 0.466797,-0.116974 0.312915,-0.03843 0.580809,-0.05861 0.92652,-0.0698 0.114754,-0.0035 0.291394,-0.01095 0.392534,-0.01609 0.101139,-0.0051 0.218899,-0.0111 0.261689,-0.01321 0.09309,-0.0045 0.115894,-0.01195 0.05624,-0.01801 -0.06517,-0.0066 -0.178346,-0.02199 -0.233059,-0.03162 -0.133358,-0.02345 -0.277164,-0.03621 -0.643614,-0.05697 -0.09336,-0.0053 -0.199979,-0.01195 -0.236934,-0.01477 -0.05469,-0.004 -0.113236,-0.0015 -0.314734,0.01573 -0.136149,0.0115 -0.266639,0.0241 -0.28998,0.02794 -0.07034,0.01165 -0.322845,0.06859 -0.360706,0.08132 -0.05711,0.01921 -0.223174,0.09071 -0.221129,0.0952 0.001,0.0025 0.02119,0.01836 0.04478,0.03576 0.02812,0.02073 0.05005,0.04383 0.06365,0.06702 0.01141,0.01947 0.02393,0.03419 0.02782,0.03273 0.0039,-0.0015 0.03095,-0.0097 0.06012,-0.01836 z m 2.595672,-0.558089 c 0,-0.01695 -0.399866,-0.356566 -0.597641,-0.507599 -0.171021,-0.130607 -0.466423,-0.333553 -0.629469,-0.432456 -0.04279,-0.02598 -0.10326,-0.06266 -0.13438,-0.08157 -0.05751,-0.03495 -0.174842,-0.10152 -0.289979,-0.164554 -0.197533,-0.108153 -0.626545,-0.311825 -0.813358,-0.386146 -0.413508,-0.164504 -0.728599,-0.268411 -1.142238,-0.37666 -0.278359,-0.07285 -0.66761,-0.147205 -1.014929,-0.193872 -0.09808,-0.01317 -0.326687,-0.03757 -0.438505,-0.04685 -0.06613,-0.0054 -0.132171,-0.0116 -0.146759,-0.01366 -0.01757,-0.0025 -0.02652,-0.0015 -0.02652,0.0035 0,0.004 -0.02591,0.0688 -0.05757,0.144123 -0.0721,0.171519 -0.07419,0.176759 -0.07997,0.200938 -0.0045,0.01861 -0.0033,0.02017 0.01865,0.02436 0.01287,0.0025 0.08865,0.01998 0.168395,0.03889 0.27404,0.06498 0.428219,0.09595 0.590568,0.118583 0.299474,0.04176 0.595304,0.101304 0.905302,0.182217 0.125483,0.03273 0.355428,0.100033 0.390066,0.11413 0.01225,0.0051 0.02568,0.0091 0.02982,0.0091 0.0042,0 0.01798,0.004 0.03076,0.0091 0.01277,0.0051 0.05028,0.01791 0.08334,0.02869 0.03306,0.0108 0.07015,0.0237 0.0824,0.02869 0.01226,0.0051 0.0244,0.0091 0.02697,0.0091 0.0026,0 0.02208,0.0071 0.04334,0.01573 0.02126,0.0087 0.04118,0.01573 0.04427,0.01573 0.0031,0 0.02532,0.0085 0.04942,0.01891 0.02409,0.01039 0.0464,0.01891 0.04956,0.01891 0.0031,0 0.02142,0.0071 0.04055,0.01573 0.01914,0.0086 0.03709,0.01573 0.0399,0.01573 0.0028,1e-5 0.03623,0.01306 0.07426,0.029 0.03804,0.01594 0.08985,0.03763 0.115129,0.04816 0.08556,0.03571 0.250758,0.109889 0.31029,0.139297 0.03257,0.01609 0.05996,0.02925 0.06087,0.02925 9.41e-4,0 0.02932,0.01417 0.06312,0.03153 0.0338,0.01735 0.06312,0.03152 0.06517,0.03152 0.002,0 0.01758,0.0085 0.03455,0.01891 0.01696,0.01039 0.03242,0.01891 0.03435,0.01891 0.002,0 0.02944,0.01417 0.06113,0.03152 0.03169,0.01735 0.05901,0.03153 0.06072,0.03153 0.0067,0 0.346997,0.198663 0.410081,0.23939 0.02415,0.01558 0.0813,0.05245 0.127005,0.0819 0.0457,0.02946 0.101401,0.0663 0.12377,0.0819 0.02237,0.01558 0.0672,0.04675 0.09962,0.0693 0.03243,0.02254 0.107225,0.07671 0.166228,0.120408 0.106709,0.07904 0.107536,0.07949 0.155799,0.08619 0.02668,0.0035 0.108992,0.01554 0.182901,0.02623 0.398087,0.05771 0.516794,0.07324 0.620628,0.08122 0.0068,5.04e-4 0.01237,-0.0015 0.01237,-0.0051 z M 8.0723673,4.0626452 c 0.00614,-0.0086 0.088944,-0.07328 0.1266659,-0.09902 0.012857,-0.0088 0.076935,-0.05423 0.1423931,-0.100997 0.1344539,-0.09608 0.1318834,-0.09432 0.2414084,-0.165245 0.1189142,-0.07701 0.1276726,-0.08245 0.2661105,-0.165352 0.1019428,-0.06104 0.2684982,-0.154396 0.3486862,-0.195436 0.00674,-0.0035 0.037708,-0.01932 0.068747,-0.03525 0.1523166,-0.0782 0.2014834,-0.100886 0.209315,-0.09657 0.00486,0.0025 0.00658,0.002 0.004,-0.0015 -0.0058,-0.0084 0.2613898,-0.130113 0.2752372,-0.125382 0.0058,0.002 0.00873,9.81e-4 0.00643,-0.0025 -0.00227,-0.0035 0.00627,-0.01014 0.019081,-0.01513 0.012804,-0.0051 0.069421,-0.02805 0.1258254,-0.05122 0.056405,-0.0232 0.120058,-0.04862 0.141453,-0.05657 0.129366,-0.04796 0.174598,-0.06426 0.247544,-0.08932 0.325769,-0.1119 0.609109,-0.190841 0.968956,-0.269969 0.186523,-0.041 0.58588,-0.107618 0.736182,-0.122784 0.05312,-0.0054 0.07692,-0.01145 0.12281,-0.03152 0.04342,-0.01896 0.106395,-0.03591 0.265563,-0.07133 0.114754,-0.02557 0.22026,-0.04837 0.234456,-0.05069 0.03055,-0.0051 0.03801,-0.0121 0.04402,-0.04191 0.008,-0.03944 0.0822,-0.258646 0.09659,-0.285165 0.0077,-0.01412 0.01393,-0.02814 0.01393,-0.03117 0,-0.003 -0.02944,-0.004 -0.06543,-0.002 -0.03598,0.002 -0.119528,0.0065 -0.185657,0.0099 -0.590807,0.03102 -1.215613,0.128291 -1.785851,0.278059 -0.357976,0.09402 -0.7696122,0.230578 -1.0527789,0.349252 -0.036376,0.01524 -0.067572,0.02774 -0.069319,0.02774 -0.00556,0 -0.3007903,0.130829 -0.3631596,0.160949 -0.1815435,0.08769 -0.2426634,0.118492 -0.3713148,0.18715 -0.4813716,0.256896 -0.9548081,0.575322 -1.3614808,0.915705 -0.025292,0.02118 -0.064282,0.05375 -0.08665,0.07242 -0.022369,0.01866 -0.040669,0.03566 -0.040669,0.03772 0,0.002 0.029439,0.0056 0.065422,0.0078 0.035982,0.002 0.1465809,0.01407 0.2457755,0.02648 0.099194,0.0124 0.2105888,0.02632 0.2475435,0.03091 0.088725,0.01104 0.1113261,0.01144 0.1181156,0.002 z"
         id="path13326" />
      <text
         xml:space="preserve"
         style="font-style:normal;font-weight:normal;font-size:2.84023px;line-height:1.25;font-family:sans-serif;fill:#000000;fill-opacity:1;stroke:none;stroke-width:0.0710059"
         x="4.2808499"
         y="22.931374"
         id="text19339"
         transform="scale(1.2041179,0.83048347)"><tspan
           sodipodi:role="line"
           id="tspan19337"
           style="stroke-width:0.0710059"
           x="4.2808499"
           y="22.931374">GZZW</tspan></text>
      <text
         xml:space="preserve"
         style="font-style:normal;font-variant:normal;font-weight:normal;font-stretch:normal;font-size:2.28408px;line-height:1.25;font-family:'Nirmala UI';-inkscape-font-specification:'Nirmala UI, Normal';font-variant-ligatures:normal;font-variant-caps:normal;font-variant-numeric:normal;font-variant-east-asian:normal;fill:#000000;fill-opacity:1;stroke:none;stroke-width:0.0571021"
         x="1.6731104"
         y="23.298048"
         id="text25315"
         transform="scale(1.0470246,0.95508738)"><tspan
           sodipodi:role="line"
           id="tspan25313"
           style="font-style:normal;font-variant:normal;font-weight:normal;font-stretch:normal;font-size:2.28408px;font-family:'Nirmala UI';-inkscape-font-specification:'Nirmala UI, Normal';font-variant-ligatures:normal;font-variant-caps:normal;font-variant-numeric:normal;font-variant-east-asian:normal;stroke-width:0.0571021"
           x="1.6731104"
           y="23.298048">WWW.GAZZEW.COM</tspan></text>
    </g>
  </g>
  <g
     inkscape:label="Dwgs.User"
     inkscape:groupmode="layer"
     id="g13034" />
  <g
     inkscape:label="Drill"
     inkscape:groupmode="layer"
     id="g13036" />
</svg>
