G04 #@! TF.GenerationSoftware,KiCad,Pcbnew,5.1.5*
G04 #@! TF.CreationDate,2020-06-22T22:24:33-05:00*
G04 #@! TF.ProjectId,TwitterKeyboard,54776974-7465-4724-9b65-79626f617264,rev?*
G04 #@! TF.SameCoordinates,Original*
G04 #@! TF.FileFunction,Legend,Bot*
G04 #@! TF.FilePolarity,Positive*
%FSLAX46Y46*%
G04 Gerber Fmt 4.6, Leading zero omitted, Abs format (unit mm)*
G04 Created by KiCad (PCBNEW 5.1.5) date 2020-06-22 22:24:33*
%MOMM*%
%LPD*%
G04 APERTURE LIST*
%ADD10C,0.120000*%
%ADD11C,0.150000*%
G04 APERTURE END LIST*
D10*
X157278249Y-43928249D02*
G75*
G02X157950000Y-43650000I671751J-671751D01*
G01*
X138321751Y-43928249D02*
G75*
G03X137650000Y-43650000I-671751J-671751D01*
G01*
X134950000Y-46350000D02*
G75*
G02X137650000Y-43650000I2700000J0D01*
G01*
X160650000Y-46350000D02*
G75*
G03X157950000Y-43650000I-2700000J0D01*
G01*
X160650000Y-50500000D02*
X160650000Y-46300000D01*
X134950000Y-50500000D02*
X134950000Y-46300000D01*
X160650000Y-60000000D02*
X160650000Y-56700000D01*
X151750000Y-65850000D02*
X160650000Y-60000000D01*
X151750000Y-66650000D02*
X151750000Y-65850000D01*
X143850000Y-66650000D02*
X151750000Y-66650000D01*
X143850000Y-66650000D02*
X143850000Y-65850000D01*
X143850000Y-65850000D02*
X134950000Y-60000000D01*
X134950000Y-60000000D02*
X134950000Y-56700000D01*
D11*
X148585714Y-67928571D02*
X148442857Y-67976190D01*
X148395238Y-68023809D01*
X148347619Y-68119047D01*
X148347619Y-68261904D01*
X148395238Y-68357142D01*
X148442857Y-68404761D01*
X148538095Y-68452380D01*
X148919047Y-68452380D01*
X148919047Y-67452380D01*
X148585714Y-67452380D01*
X148490476Y-67500000D01*
X148442857Y-67547619D01*
X148395238Y-67642857D01*
X148395238Y-67738095D01*
X148442857Y-67833333D01*
X148490476Y-67880952D01*
X148585714Y-67928571D01*
X148919047Y-67928571D01*
X148061904Y-67452380D02*
X147490476Y-67452380D01*
X147776190Y-68452380D02*
X147776190Y-67452380D01*
X146633333Y-68452380D02*
X147204761Y-68452380D01*
X146919047Y-68452380D02*
X146919047Y-67452380D01*
X147014285Y-67595238D01*
X147109523Y-67690476D01*
X147204761Y-67738095D01*
M02*
