G04 #@! TF.GenerationSoftware,KiCad,Pcbnew,5.1.5*
G04 #@! TF.CreationDate,2020-06-22T22:24:33-05:00*
G04 #@! TF.ProjectId,TwitterKeyboard,54776974-7465-4724-9b65-79626f617264,rev?*
G04 #@! TF.SameCoordinates,Original*
G04 #@! TF.FileFunction,Legend,Top*
G04 #@! TF.FilePolarity,Positive*
%FSLAX46Y46*%
G04 Gerber Fmt 4.6, Leading zero omitted, Abs format (unit mm)*
G04 Created by KiCad (PCBNEW 5.1.5) date 2020-06-22 22:24:33*
%MOMM*%
%LPD*%
G04 APERTURE LIST*
%ADD10C,0.150000*%
%ADD11C,0.300000*%
%ADD12C,0.250000*%
%ADD13C,0.120000*%
%ADD14C,0.050000*%
%ADD15C,0.100000*%
%ADD16C,0.127000*%
%ADD17C,0.200000*%
G04 APERTURE END LIST*
D10*
X89033333Y-65332142D02*
X88985714Y-65379761D01*
X88842857Y-65427380D01*
X88747619Y-65427380D01*
X88604761Y-65379761D01*
X88509523Y-65284523D01*
X88461904Y-65189285D01*
X88414285Y-64998809D01*
X88414285Y-64855952D01*
X88461904Y-64665476D01*
X88509523Y-64570238D01*
X88604761Y-64475000D01*
X88747619Y-64427380D01*
X88842857Y-64427380D01*
X88985714Y-64475000D01*
X89033333Y-64522619D01*
X89461904Y-65427380D02*
X89461904Y-64427380D01*
X89890476Y-65427380D02*
X89890476Y-64903571D01*
X89842857Y-64808333D01*
X89747619Y-64760714D01*
X89604761Y-64760714D01*
X89509523Y-64808333D01*
X89461904Y-64855952D01*
X90795238Y-65427380D02*
X90795238Y-64903571D01*
X90747619Y-64808333D01*
X90652380Y-64760714D01*
X90461904Y-64760714D01*
X90366666Y-64808333D01*
X90795238Y-65379761D02*
X90700000Y-65427380D01*
X90461904Y-65427380D01*
X90366666Y-65379761D01*
X90319047Y-65284523D01*
X90319047Y-65189285D01*
X90366666Y-65094047D01*
X90461904Y-65046428D01*
X90700000Y-65046428D01*
X90795238Y-64998809D01*
X91271428Y-65427380D02*
X91271428Y-64760714D01*
X91271428Y-64951190D02*
X91319047Y-64855952D01*
X91366666Y-64808333D01*
X91461904Y-64760714D01*
X91557142Y-64760714D01*
X92319047Y-64760714D02*
X92319047Y-65570238D01*
X92271428Y-65665476D01*
X92223809Y-65713095D01*
X92128571Y-65760714D01*
X91985714Y-65760714D01*
X91890476Y-65713095D01*
X92319047Y-65379761D02*
X92223809Y-65427380D01*
X92033333Y-65427380D01*
X91938095Y-65379761D01*
X91890476Y-65332142D01*
X91842857Y-65236904D01*
X91842857Y-64951190D01*
X91890476Y-64855952D01*
X91938095Y-64808333D01*
X92033333Y-64760714D01*
X92223809Y-64760714D01*
X92319047Y-64808333D01*
X93176190Y-65379761D02*
X93080952Y-65427380D01*
X92890476Y-65427380D01*
X92795238Y-65379761D01*
X92747619Y-65284523D01*
X92747619Y-64903571D01*
X92795238Y-64808333D01*
X92890476Y-64760714D01*
X93080952Y-64760714D01*
X93176190Y-64808333D01*
X93223809Y-64903571D01*
X93223809Y-64998809D01*
X92747619Y-65094047D01*
X89033333Y-67029761D02*
X89176190Y-67077380D01*
X89414285Y-67077380D01*
X89509523Y-67029761D01*
X89557142Y-66982142D01*
X89604761Y-66886904D01*
X89604761Y-66791666D01*
X89557142Y-66696428D01*
X89509523Y-66648809D01*
X89414285Y-66601190D01*
X89223809Y-66553571D01*
X89128571Y-66505952D01*
X89080952Y-66458333D01*
X89033333Y-66363095D01*
X89033333Y-66267857D01*
X89080952Y-66172619D01*
X89128571Y-66125000D01*
X89223809Y-66077380D01*
X89461904Y-66077380D01*
X89604761Y-66125000D01*
X89890476Y-66410714D02*
X90271428Y-66410714D01*
X90033333Y-66077380D02*
X90033333Y-66934523D01*
X90080952Y-67029761D01*
X90176190Y-67077380D01*
X90271428Y-67077380D01*
X91033333Y-67077380D02*
X91033333Y-66553571D01*
X90985714Y-66458333D01*
X90890476Y-66410714D01*
X90700000Y-66410714D01*
X90604761Y-66458333D01*
X91033333Y-67029761D02*
X90938095Y-67077380D01*
X90700000Y-67077380D01*
X90604761Y-67029761D01*
X90557142Y-66934523D01*
X90557142Y-66839285D01*
X90604761Y-66744047D01*
X90700000Y-66696428D01*
X90938095Y-66696428D01*
X91033333Y-66648809D01*
X91366666Y-66410714D02*
X91747619Y-66410714D01*
X91509523Y-66077380D02*
X91509523Y-66934523D01*
X91557142Y-67029761D01*
X91652380Y-67077380D01*
X91747619Y-67077380D01*
X92509523Y-66410714D02*
X92509523Y-67077380D01*
X92080952Y-66410714D02*
X92080952Y-66934523D01*
X92128571Y-67029761D01*
X92223809Y-67077380D01*
X92366666Y-67077380D01*
X92461904Y-67029761D01*
X92509523Y-66982142D01*
X92938095Y-67029761D02*
X93033333Y-67077380D01*
X93223809Y-67077380D01*
X93319047Y-67029761D01*
X93366666Y-66934523D01*
X93366666Y-66886904D01*
X93319047Y-66791666D01*
X93223809Y-66744047D01*
X93080952Y-66744047D01*
X92985714Y-66696428D01*
X92938095Y-66601190D01*
X92938095Y-66553571D01*
X92985714Y-66458333D01*
X93080952Y-66410714D01*
X93223809Y-66410714D01*
X93319047Y-66458333D01*
D11*
X91138095Y-53160714D02*
X92661904Y-53160714D01*
X91900000Y-53884523D02*
X91900000Y-52436904D01*
X91138095Y-56310714D02*
X92661904Y-56310714D01*
D10*
X165890476Y-107552380D02*
X166223809Y-108552380D01*
X166557142Y-107552380D01*
X167414285Y-108552380D02*
X166842857Y-108552380D01*
X167128571Y-108552380D02*
X167128571Y-107552380D01*
X167033333Y-107695238D01*
X166938095Y-107790476D01*
X166842857Y-107838095D01*
D12*
X142185714Y-97664285D02*
X142114285Y-97592857D01*
X141971428Y-97521428D01*
X141828571Y-97521428D01*
X141685714Y-97592857D01*
X141614285Y-97664285D01*
X141542857Y-97807142D01*
X141542857Y-97950000D01*
X141614285Y-98092857D01*
X141685714Y-98164285D01*
X141828571Y-98235714D01*
X141971428Y-98235714D01*
X142114285Y-98164285D01*
X142185714Y-98092857D01*
X142185714Y-97521428D02*
X142185714Y-98092857D01*
X142257142Y-98164285D01*
X142328571Y-98164285D01*
X142471428Y-98092857D01*
X142542857Y-97950000D01*
X142542857Y-97592857D01*
X142400000Y-97378571D01*
X142185714Y-97235714D01*
X141900000Y-97164285D01*
X141614285Y-97235714D01*
X141400000Y-97378571D01*
X141257142Y-97592857D01*
X141185714Y-97878571D01*
X141257142Y-98164285D01*
X141400000Y-98378571D01*
X141614285Y-98521428D01*
X141900000Y-98592857D01*
X142185714Y-98521428D01*
X142400000Y-98378571D01*
X144042857Y-98378571D02*
X143542857Y-97664285D01*
X143185714Y-98378571D02*
X143185714Y-96878571D01*
X143757142Y-96878571D01*
X143900000Y-96950000D01*
X143971428Y-97021428D01*
X144042857Y-97164285D01*
X144042857Y-97378571D01*
X143971428Y-97521428D01*
X143900000Y-97592857D01*
X143757142Y-97664285D01*
X143185714Y-97664285D01*
X144685714Y-98378571D02*
X144685714Y-96878571D01*
X145185714Y-97950000D01*
X145685714Y-96878571D01*
X145685714Y-98378571D01*
X146328571Y-97950000D02*
X147042857Y-97950000D01*
X146185714Y-98378571D02*
X146685714Y-96878571D01*
X147185714Y-98378571D01*
X147328571Y-98521428D02*
X148471428Y-98521428D01*
X148828571Y-97592857D02*
X149328571Y-97592857D01*
X149542857Y-98378571D02*
X148828571Y-98378571D01*
X148828571Y-96878571D01*
X149542857Y-96878571D01*
X150400000Y-98378571D02*
X150257142Y-98307142D01*
X150185714Y-98164285D01*
X150185714Y-96878571D01*
X151542857Y-98307142D02*
X151400000Y-98378571D01*
X151114285Y-98378571D01*
X150971428Y-98307142D01*
X150900000Y-98164285D01*
X150900000Y-97592857D01*
X150971428Y-97450000D01*
X151114285Y-97378571D01*
X151400000Y-97378571D01*
X151542857Y-97450000D01*
X151614285Y-97592857D01*
X151614285Y-97735714D01*
X150900000Y-97878571D01*
X152900000Y-98307142D02*
X152757142Y-98378571D01*
X152471428Y-98378571D01*
X152328571Y-98307142D01*
X152257142Y-98235714D01*
X152185714Y-98092857D01*
X152185714Y-97664285D01*
X152257142Y-97521428D01*
X152328571Y-97450000D01*
X152471428Y-97378571D01*
X152757142Y-97378571D01*
X152900000Y-97450000D01*
X153328571Y-97378571D02*
X153900000Y-97378571D01*
X153542857Y-96878571D02*
X153542857Y-98164285D01*
X153614285Y-98307142D01*
X153757142Y-98378571D01*
X153900000Y-98378571D01*
X154400000Y-98378571D02*
X154400000Y-97378571D01*
X154400000Y-97664285D02*
X154471428Y-97521428D01*
X154542857Y-97450000D01*
X154685714Y-97378571D01*
X154828571Y-97378571D01*
X155542857Y-98378571D02*
X155400000Y-98307142D01*
X155328571Y-98235714D01*
X155257142Y-98092857D01*
X155257142Y-97664285D01*
X155328571Y-97521428D01*
X155400000Y-97450000D01*
X155542857Y-97378571D01*
X155757142Y-97378571D01*
X155900000Y-97450000D01*
X155971428Y-97521428D01*
X156042857Y-97664285D01*
X156042857Y-98092857D01*
X155971428Y-98235714D01*
X155900000Y-98307142D01*
X155757142Y-98378571D01*
X155542857Y-98378571D01*
X156685714Y-97378571D02*
X156685714Y-98378571D01*
X156685714Y-97521428D02*
X156757142Y-97450000D01*
X156900000Y-97378571D01*
X157114285Y-97378571D01*
X157257142Y-97450000D01*
X157328571Y-97592857D01*
X157328571Y-98378571D01*
X158042857Y-98378571D02*
X158042857Y-97378571D01*
X158042857Y-96878571D02*
X157971428Y-96950000D01*
X158042857Y-97021428D01*
X158114285Y-96950000D01*
X158042857Y-96878571D01*
X158042857Y-97021428D01*
X159400000Y-98307142D02*
X159257142Y-98378571D01*
X158971428Y-98378571D01*
X158828571Y-98307142D01*
X158757142Y-98235714D01*
X158685714Y-98092857D01*
X158685714Y-97664285D01*
X158757142Y-97521428D01*
X158828571Y-97450000D01*
X158971428Y-97378571D01*
X159257142Y-97378571D01*
X159400000Y-97450000D01*
X159971428Y-98307142D02*
X160114285Y-98378571D01*
X160400000Y-98378571D01*
X160542857Y-98307142D01*
X160614285Y-98164285D01*
X160614285Y-98092857D01*
X160542857Y-97950000D01*
X160400000Y-97878571D01*
X160185714Y-97878571D01*
X160042857Y-97807142D01*
X159971428Y-97664285D01*
X159971428Y-97592857D01*
X160042857Y-97450000D01*
X160185714Y-97378571D01*
X160400000Y-97378571D01*
X160542857Y-97450000D01*
D11*
X140680952Y-93330952D02*
X141823809Y-93330952D01*
X141252380Y-95830952D02*
X141252380Y-93330952D01*
X142490476Y-95830952D02*
X142490476Y-93330952D01*
X143347619Y-95830952D02*
X143347619Y-94521428D01*
X143252380Y-94283333D01*
X143061904Y-94164285D01*
X142776190Y-94164285D01*
X142585714Y-94283333D01*
X142490476Y-94402380D01*
X145061904Y-95711904D02*
X144871428Y-95830952D01*
X144490476Y-95830952D01*
X144300000Y-95711904D01*
X144204761Y-95473809D01*
X144204761Y-94521428D01*
X144300000Y-94283333D01*
X144490476Y-94164285D01*
X144871428Y-94164285D01*
X145061904Y-94283333D01*
X145157142Y-94521428D01*
X145157142Y-94759523D01*
X144204761Y-94997619D01*
X147252380Y-93330952D02*
X148395238Y-93330952D01*
X147823809Y-95830952D02*
X147823809Y-93330952D01*
X148871428Y-94164285D02*
X149252380Y-95830952D01*
X149633333Y-94640476D01*
X150014285Y-95830952D01*
X150395238Y-94164285D01*
X151157142Y-95830952D02*
X151157142Y-94164285D01*
X151157142Y-93330952D02*
X151061904Y-93450000D01*
X151157142Y-93569047D01*
X151252380Y-93450000D01*
X151157142Y-93330952D01*
X151157142Y-93569047D01*
X151823809Y-94164285D02*
X152585714Y-94164285D01*
X152109523Y-93330952D02*
X152109523Y-95473809D01*
X152204761Y-95711904D01*
X152395238Y-95830952D01*
X152585714Y-95830952D01*
X152966666Y-94164285D02*
X153728571Y-94164285D01*
X153252380Y-93330952D02*
X153252380Y-95473809D01*
X153347619Y-95711904D01*
X153538095Y-95830952D01*
X153728571Y-95830952D01*
X155157142Y-95711904D02*
X154966666Y-95830952D01*
X154585714Y-95830952D01*
X154395238Y-95711904D01*
X154300000Y-95473809D01*
X154300000Y-94521428D01*
X154395238Y-94283333D01*
X154585714Y-94164285D01*
X154966666Y-94164285D01*
X155157142Y-94283333D01*
X155252380Y-94521428D01*
X155252380Y-94759523D01*
X154300000Y-94997619D01*
X156109523Y-95830952D02*
X156109523Y-94164285D01*
X156109523Y-94640476D02*
X156204761Y-94402380D01*
X156300000Y-94283333D01*
X156490476Y-94164285D01*
X156680952Y-94164285D01*
X158871428Y-95830952D02*
X158871428Y-93330952D01*
X160014285Y-95830952D02*
X159157142Y-94402380D01*
X160014285Y-93330952D02*
X158871428Y-94759523D01*
X161633333Y-95711904D02*
X161442857Y-95830952D01*
X161061904Y-95830952D01*
X160871428Y-95711904D01*
X160776190Y-95473809D01*
X160776190Y-94521428D01*
X160871428Y-94283333D01*
X161061904Y-94164285D01*
X161442857Y-94164285D01*
X161633333Y-94283333D01*
X161728571Y-94521428D01*
X161728571Y-94759523D01*
X160776190Y-94997619D01*
X162395238Y-94164285D02*
X162871428Y-95830952D01*
X163347619Y-94164285D02*
X162871428Y-95830952D01*
X162680952Y-96426190D01*
X162585714Y-96545238D01*
X162395238Y-96664285D01*
X164109523Y-95830952D02*
X164109523Y-93330952D01*
X164109523Y-94283333D02*
X164300000Y-94164285D01*
X164680952Y-94164285D01*
X164871428Y-94283333D01*
X164966666Y-94402380D01*
X165061904Y-94640476D01*
X165061904Y-95354761D01*
X164966666Y-95592857D01*
X164871428Y-95711904D01*
X164680952Y-95830952D01*
X164300000Y-95830952D01*
X164109523Y-95711904D01*
X166204761Y-95830952D02*
X166014285Y-95711904D01*
X165919047Y-95592857D01*
X165823809Y-95354761D01*
X165823809Y-94640476D01*
X165919047Y-94402380D01*
X166014285Y-94283333D01*
X166204761Y-94164285D01*
X166490476Y-94164285D01*
X166680952Y-94283333D01*
X166776190Y-94402380D01*
X166871428Y-94640476D01*
X166871428Y-95354761D01*
X166776190Y-95592857D01*
X166680952Y-95711904D01*
X166490476Y-95830952D01*
X166204761Y-95830952D01*
X168585714Y-95830952D02*
X168585714Y-94521428D01*
X168490476Y-94283333D01*
X168300000Y-94164285D01*
X167919047Y-94164285D01*
X167728571Y-94283333D01*
X168585714Y-95711904D02*
X168395238Y-95830952D01*
X167919047Y-95830952D01*
X167728571Y-95711904D01*
X167633333Y-95473809D01*
X167633333Y-95235714D01*
X167728571Y-94997619D01*
X167919047Y-94878571D01*
X168395238Y-94878571D01*
X168585714Y-94759523D01*
X169538095Y-95830952D02*
X169538095Y-94164285D01*
X169538095Y-94640476D02*
X169633333Y-94402380D01*
X169728571Y-94283333D01*
X169919047Y-94164285D01*
X170109523Y-94164285D01*
X171633333Y-95830952D02*
X171633333Y-93330952D01*
X171633333Y-95711904D02*
X171442857Y-95830952D01*
X171061904Y-95830952D01*
X170871428Y-95711904D01*
X170776190Y-95592857D01*
X170680952Y-95354761D01*
X170680952Y-94640476D01*
X170776190Y-94402380D01*
X170871428Y-94283333D01*
X171061904Y-94164285D01*
X171442857Y-94164285D01*
X171633333Y-94283333D01*
D13*
X114710000Y-48696078D02*
X114710000Y-48178922D01*
X113290000Y-48696078D02*
X113290000Y-48178922D01*
X101103922Y-78190000D02*
X101621078Y-78190000D01*
X101103922Y-79610000D02*
X101621078Y-79610000D01*
X96441422Y-78090000D02*
X96958578Y-78090000D01*
X96441422Y-79510000D02*
X96958578Y-79510000D01*
X96503922Y-71710000D02*
X97021078Y-71710000D01*
X96503922Y-70290000D02*
X97021078Y-70290000D01*
X102740000Y-70837500D02*
X102740000Y-73522500D01*
X102740000Y-73522500D02*
X104660000Y-73522500D01*
X104660000Y-73522500D02*
X104660000Y-70837500D01*
X119660000Y-73522500D02*
X119660000Y-70837500D01*
X117740000Y-73522500D02*
X119660000Y-73522500D01*
X117740000Y-70837500D02*
X117740000Y-73522500D01*
X132740000Y-70837500D02*
X132740000Y-73522500D01*
X132740000Y-73522500D02*
X134660000Y-73522500D01*
X134660000Y-73522500D02*
X134660000Y-70837500D01*
X149560000Y-73522500D02*
X149560000Y-70837500D01*
X147640000Y-73522500D02*
X149560000Y-73522500D01*
X147640000Y-70837500D02*
X147640000Y-73522500D01*
X109740000Y-85737500D02*
X109740000Y-88422500D01*
X109740000Y-88422500D02*
X111660000Y-88422500D01*
X111660000Y-88422500D02*
X111660000Y-85737500D01*
X124740000Y-85737500D02*
X124740000Y-88422500D01*
X124740000Y-88422500D02*
X126660000Y-88422500D01*
X126660000Y-88422500D02*
X126660000Y-85737500D01*
X139740000Y-85762500D02*
X139740000Y-88447500D01*
X139740000Y-88447500D02*
X141660000Y-88447500D01*
X141660000Y-88447500D02*
X141660000Y-85762500D01*
X156660000Y-88485000D02*
X156660000Y-85800000D01*
X154740000Y-88485000D02*
X156660000Y-88485000D01*
X154740000Y-85800000D02*
X154740000Y-88485000D01*
X126660000Y-103422500D02*
X126660000Y-100737500D01*
X124740000Y-103422500D02*
X126660000Y-103422500D01*
X124740000Y-100737500D02*
X124740000Y-103422500D01*
X92000000Y-62340000D02*
X89315000Y-62340000D01*
X89315000Y-62340000D02*
X89315000Y-64260000D01*
X89315000Y-64260000D02*
X92000000Y-64260000D01*
X139470000Y-108830000D02*
X139470000Y-106170000D01*
X131790000Y-108830000D02*
X139470000Y-108830000D01*
X131790000Y-106170000D02*
X139470000Y-106170000D01*
X131790000Y-108830000D02*
X131790000Y-106170000D01*
X130520000Y-108830000D02*
X129190000Y-108830000D01*
X129190000Y-108830000D02*
X129190000Y-107500000D01*
D14*
X116520000Y-105550000D02*
X152020000Y-105550000D01*
X152020000Y-105550000D02*
X152020000Y-139050000D01*
X116520000Y-105550000D02*
X116520000Y-139050000D01*
X116520000Y-139050000D02*
X152020000Y-139050000D01*
D13*
X87970000Y-51930000D02*
X89300000Y-51930000D01*
X87970000Y-53260000D02*
X87970000Y-51930000D01*
X87970000Y-54530000D02*
X90630000Y-54530000D01*
X90630000Y-54530000D02*
X90630000Y-57130000D01*
X87970000Y-54530000D02*
X87970000Y-57130000D01*
X87970000Y-57130000D02*
X90630000Y-57130000D01*
X91503922Y-77990000D02*
X92021078Y-77990000D01*
X91503922Y-79410000D02*
X92021078Y-79410000D01*
X96503922Y-75710000D02*
X97021078Y-75710000D01*
X96503922Y-74290000D02*
X97021078Y-74290000D01*
X138250000Y-45080000D02*
X137450000Y-45080000D01*
X138250000Y-48520000D02*
X137450000Y-48520000D01*
X150600000Y-45980000D02*
X151400000Y-45980000D01*
X150600000Y-49420000D02*
X151400000Y-49420000D01*
X120400000Y-45120000D02*
X121400000Y-45120000D01*
X120400000Y-48480000D02*
X121400000Y-48480000D01*
X115800000Y-59900000D02*
G75*
G02X116300000Y-60400000I0J-500000D01*
G01*
X116300000Y-73400000D02*
G75*
G02X115800000Y-73900000I-500000J0D01*
G01*
X102800000Y-73900000D02*
G75*
G02X102300000Y-73400000I0J500000D01*
G01*
X102300000Y-60400000D02*
G75*
G02X102800000Y-59900000I500000J0D01*
G01*
X102300000Y-73400000D02*
X102300000Y-60400000D01*
X116300000Y-60400000D02*
X116300000Y-73400000D01*
X102800000Y-73900000D02*
X115800000Y-73900000D01*
X102800000Y-59900000D02*
X115800000Y-59900000D01*
D15*
G36*
X110800000Y-62970000D02*
G01*
X107800000Y-62970000D01*
X107800000Y-60970000D01*
X110800000Y-60970000D01*
X110800000Y-62970000D01*
G37*
X110800000Y-62970000D02*
X107800000Y-62970000D01*
X107800000Y-60970000D01*
X110800000Y-60970000D01*
X110800000Y-62970000D01*
G36*
X125800000Y-62970000D02*
G01*
X122800000Y-62970000D01*
X122800000Y-60970000D01*
X125800000Y-60970000D01*
X125800000Y-62970000D01*
G37*
X125800000Y-62970000D02*
X122800000Y-62970000D01*
X122800000Y-60970000D01*
X125800000Y-60970000D01*
X125800000Y-62970000D01*
D13*
X117800000Y-59900000D02*
X130800000Y-59900000D01*
X117800000Y-73900000D02*
X130800000Y-73900000D01*
X131300000Y-60400000D02*
X131300000Y-73400000D01*
X117300000Y-73400000D02*
X117300000Y-60400000D01*
X117300000Y-60400000D02*
G75*
G02X117800000Y-59900000I500000J0D01*
G01*
X117800000Y-73900000D02*
G75*
G02X117300000Y-73400000I0J500000D01*
G01*
X131300000Y-73400000D02*
G75*
G02X130800000Y-73900000I-500000J0D01*
G01*
X130800000Y-59900000D02*
G75*
G02X131300000Y-60400000I0J-500000D01*
G01*
D15*
G36*
X140800000Y-62970000D02*
G01*
X137800000Y-62970000D01*
X137800000Y-60970000D01*
X140800000Y-60970000D01*
X140800000Y-62970000D01*
G37*
X140800000Y-62970000D02*
X137800000Y-62970000D01*
X137800000Y-60970000D01*
X140800000Y-60970000D01*
X140800000Y-62970000D01*
D13*
X132800000Y-59900000D02*
X145800000Y-59900000D01*
X132800000Y-73900000D02*
X145800000Y-73900000D01*
X146300000Y-60400000D02*
X146300000Y-73400000D01*
X132300000Y-73400000D02*
X132300000Y-60400000D01*
X132300000Y-60400000D02*
G75*
G02X132800000Y-59900000I500000J0D01*
G01*
X132800000Y-73900000D02*
G75*
G02X132300000Y-73400000I0J500000D01*
G01*
X146300000Y-73400000D02*
G75*
G02X145800000Y-73900000I-500000J0D01*
G01*
X145800000Y-59900000D02*
G75*
G02X146300000Y-60400000I0J-500000D01*
G01*
X160800000Y-59900000D02*
G75*
G02X161300000Y-60400000I0J-500000D01*
G01*
X161300000Y-73400000D02*
G75*
G02X160800000Y-73900000I-500000J0D01*
G01*
X147800000Y-73900000D02*
G75*
G02X147300000Y-73400000I0J500000D01*
G01*
X147300000Y-60400000D02*
G75*
G02X147800000Y-59900000I500000J0D01*
G01*
X147300000Y-73400000D02*
X147300000Y-60400000D01*
X161300000Y-60400000D02*
X161300000Y-73400000D01*
X147800000Y-73900000D02*
X160800000Y-73900000D01*
X147800000Y-59900000D02*
X160800000Y-59900000D01*
D15*
G36*
X155800000Y-62970000D02*
G01*
X152800000Y-62970000D01*
X152800000Y-60970000D01*
X155800000Y-60970000D01*
X155800000Y-62970000D01*
G37*
X155800000Y-62970000D02*
X152800000Y-62970000D01*
X152800000Y-60970000D01*
X155800000Y-60970000D01*
X155800000Y-62970000D01*
D13*
X122800000Y-74900000D02*
G75*
G02X123300000Y-75400000I0J-500000D01*
G01*
X123300000Y-88400000D02*
G75*
G02X122800000Y-88900000I-500000J0D01*
G01*
X109800000Y-88900000D02*
G75*
G02X109300000Y-88400000I0J500000D01*
G01*
X109300000Y-75400000D02*
G75*
G02X109800000Y-74900000I500000J0D01*
G01*
X109300000Y-88400000D02*
X109300000Y-75400000D01*
X123300000Y-75400000D02*
X123300000Y-88400000D01*
X109800000Y-88900000D02*
X122800000Y-88900000D01*
X109800000Y-74900000D02*
X122800000Y-74900000D01*
D15*
G36*
X117800000Y-77970000D02*
G01*
X114800000Y-77970000D01*
X114800000Y-75970000D01*
X117800000Y-75970000D01*
X117800000Y-77970000D01*
G37*
X117800000Y-77970000D02*
X114800000Y-77970000D01*
X114800000Y-75970000D01*
X117800000Y-75970000D01*
X117800000Y-77970000D01*
G36*
X132800000Y-77970000D02*
G01*
X129800000Y-77970000D01*
X129800000Y-75970000D01*
X132800000Y-75970000D01*
X132800000Y-77970000D01*
G37*
X132800000Y-77970000D02*
X129800000Y-77970000D01*
X129800000Y-75970000D01*
X132800000Y-75970000D01*
X132800000Y-77970000D01*
D13*
X124800000Y-74900000D02*
X137800000Y-74900000D01*
X124800000Y-88900000D02*
X137800000Y-88900000D01*
X138300000Y-75400000D02*
X138300000Y-88400000D01*
X124300000Y-88400000D02*
X124300000Y-75400000D01*
X124300000Y-75400000D02*
G75*
G02X124800000Y-74900000I500000J0D01*
G01*
X124800000Y-88900000D02*
G75*
G02X124300000Y-88400000I0J500000D01*
G01*
X138300000Y-88400000D02*
G75*
G02X137800000Y-88900000I-500000J0D01*
G01*
X137800000Y-74900000D02*
G75*
G02X138300000Y-75400000I0J-500000D01*
G01*
X152800000Y-74900000D02*
G75*
G02X153300000Y-75400000I0J-500000D01*
G01*
X153300000Y-88400000D02*
G75*
G02X152800000Y-88900000I-500000J0D01*
G01*
X139800000Y-88900000D02*
G75*
G02X139300000Y-88400000I0J500000D01*
G01*
X139300000Y-75400000D02*
G75*
G02X139800000Y-74900000I500000J0D01*
G01*
X139300000Y-88400000D02*
X139300000Y-75400000D01*
X153300000Y-75400000D02*
X153300000Y-88400000D01*
X139800000Y-88900000D02*
X152800000Y-88900000D01*
X139800000Y-74900000D02*
X152800000Y-74900000D01*
D15*
G36*
X147800000Y-77970000D02*
G01*
X144800000Y-77970000D01*
X144800000Y-75970000D01*
X147800000Y-75970000D01*
X147800000Y-77970000D01*
G37*
X147800000Y-77970000D02*
X144800000Y-77970000D01*
X144800000Y-75970000D01*
X147800000Y-75970000D01*
X147800000Y-77970000D01*
G36*
X162800000Y-77970000D02*
G01*
X159800000Y-77970000D01*
X159800000Y-75970000D01*
X162800000Y-75970000D01*
X162800000Y-77970000D01*
G37*
X162800000Y-77970000D02*
X159800000Y-77970000D01*
X159800000Y-75970000D01*
X162800000Y-75970000D01*
X162800000Y-77970000D01*
D13*
X154800000Y-74900000D02*
X167800000Y-74900000D01*
X154800000Y-88900000D02*
X167800000Y-88900000D01*
X168300000Y-75400000D02*
X168300000Y-88400000D01*
X154300000Y-88400000D02*
X154300000Y-75400000D01*
X154300000Y-75400000D02*
G75*
G02X154800000Y-74900000I500000J0D01*
G01*
X154800000Y-88900000D02*
G75*
G02X154300000Y-88400000I0J500000D01*
G01*
X168300000Y-88400000D02*
G75*
G02X167800000Y-88900000I-500000J0D01*
G01*
X167800000Y-74900000D02*
G75*
G02X168300000Y-75400000I0J-500000D01*
G01*
D15*
G36*
X132800000Y-92970000D02*
G01*
X129800000Y-92970000D01*
X129800000Y-90970000D01*
X132800000Y-90970000D01*
X132800000Y-92970000D01*
G37*
X132800000Y-92970000D02*
X129800000Y-92970000D01*
X129800000Y-90970000D01*
X132800000Y-90970000D01*
X132800000Y-92970000D01*
D13*
X124800000Y-89900000D02*
X137800000Y-89900000D01*
X124800000Y-103900000D02*
X137800000Y-103900000D01*
X138300000Y-90400000D02*
X138300000Y-103400000D01*
X124300000Y-103400000D02*
X124300000Y-90400000D01*
X124300000Y-90400000D02*
G75*
G02X124800000Y-89900000I500000J0D01*
G01*
X124800000Y-103900000D02*
G75*
G02X124300000Y-103400000I0J500000D01*
G01*
X138300000Y-103400000D02*
G75*
G02X137800000Y-103900000I-500000J0D01*
G01*
X137800000Y-89900000D02*
G75*
G02X138300000Y-90400000I0J-500000D01*
G01*
D16*
X111300000Y-45700000D02*
X111300000Y-55900000D01*
X111300000Y-45700000D02*
X101000000Y-45700000D01*
X101000000Y-55900000D02*
X111300000Y-55900000D01*
D17*
X101050000Y-56300000D02*
G75*
G03X101050000Y-56300000I-100000J0D01*
G01*
D13*
X89700000Y-76060000D02*
X91500000Y-76060000D01*
X91500000Y-72840000D02*
X89050000Y-72840000D01*
X100610000Y-88210000D02*
X100610000Y-86950000D01*
X100610000Y-81390000D02*
X100610000Y-82650000D01*
X96850000Y-88210000D02*
X100610000Y-88210000D01*
X94600000Y-81390000D02*
X100610000Y-81390000D01*
D15*
X103330000Y-41431000D02*
X103330000Y-42320000D01*
X102060000Y-41431000D02*
X102060000Y-42320000D01*
X103330000Y-41431000D02*
G75*
G03X102060000Y-41431000I-635000J0D01*
G01*
D10*
X112707142Y-48604166D02*
X112754761Y-48651785D01*
X112802380Y-48794642D01*
X112802380Y-48889880D01*
X112754761Y-49032738D01*
X112659523Y-49127976D01*
X112564285Y-49175595D01*
X112373809Y-49223214D01*
X112230952Y-49223214D01*
X112040476Y-49175595D01*
X111945238Y-49127976D01*
X111850000Y-49032738D01*
X111802380Y-48889880D01*
X111802380Y-48794642D01*
X111850000Y-48651785D01*
X111897619Y-48604166D01*
X112802380Y-47651785D02*
X112802380Y-48223214D01*
X112802380Y-47937500D02*
X111802380Y-47937500D01*
X111945238Y-48032738D01*
X112040476Y-48127976D01*
X112088095Y-48223214D01*
X101195833Y-77607142D02*
X101148214Y-77654761D01*
X101005357Y-77702380D01*
X100910119Y-77702380D01*
X100767261Y-77654761D01*
X100672023Y-77559523D01*
X100624404Y-77464285D01*
X100576785Y-77273809D01*
X100576785Y-77130952D01*
X100624404Y-76940476D01*
X100672023Y-76845238D01*
X100767261Y-76750000D01*
X100910119Y-76702380D01*
X101005357Y-76702380D01*
X101148214Y-76750000D01*
X101195833Y-76797619D01*
X101576785Y-76797619D02*
X101624404Y-76750000D01*
X101719642Y-76702380D01*
X101957738Y-76702380D01*
X102052976Y-76750000D01*
X102100595Y-76797619D01*
X102148214Y-76892857D01*
X102148214Y-76988095D01*
X102100595Y-77130952D01*
X101529166Y-77702380D01*
X102148214Y-77702380D01*
X96533333Y-77507142D02*
X96485714Y-77554761D01*
X96342857Y-77602380D01*
X96247619Y-77602380D01*
X96104761Y-77554761D01*
X96009523Y-77459523D01*
X95961904Y-77364285D01*
X95914285Y-77173809D01*
X95914285Y-77030952D01*
X95961904Y-76840476D01*
X96009523Y-76745238D01*
X96104761Y-76650000D01*
X96247619Y-76602380D01*
X96342857Y-76602380D01*
X96485714Y-76650000D01*
X96533333Y-76697619D01*
X96866666Y-76602380D02*
X97485714Y-76602380D01*
X97152380Y-76983333D01*
X97295238Y-76983333D01*
X97390476Y-77030952D01*
X97438095Y-77078571D01*
X97485714Y-77173809D01*
X97485714Y-77411904D01*
X97438095Y-77507142D01*
X97390476Y-77554761D01*
X97295238Y-77602380D01*
X97009523Y-77602380D01*
X96914285Y-77554761D01*
X96866666Y-77507142D01*
X96595833Y-69707142D02*
X96548214Y-69754761D01*
X96405357Y-69802380D01*
X96310119Y-69802380D01*
X96167261Y-69754761D01*
X96072023Y-69659523D01*
X96024404Y-69564285D01*
X95976785Y-69373809D01*
X95976785Y-69230952D01*
X96024404Y-69040476D01*
X96072023Y-68945238D01*
X96167261Y-68850000D01*
X96310119Y-68802380D01*
X96405357Y-68802380D01*
X96548214Y-68850000D01*
X96595833Y-68897619D01*
X97452976Y-69135714D02*
X97452976Y-69802380D01*
X97214880Y-68754761D02*
X96976785Y-69469047D01*
X97595833Y-69469047D01*
X156061904Y-52152380D02*
X156061904Y-51152380D01*
X156300000Y-51152380D01*
X156442857Y-51200000D01*
X156538095Y-51295238D01*
X156585714Y-51390476D01*
X156633333Y-51580952D01*
X156633333Y-51723809D01*
X156585714Y-51914285D01*
X156538095Y-52009523D01*
X156442857Y-52104761D01*
X156300000Y-52152380D01*
X156061904Y-52152380D01*
X157585714Y-52152380D02*
X157014285Y-52152380D01*
X157300000Y-52152380D02*
X157300000Y-51152380D01*
X157204761Y-51295238D01*
X157109523Y-51390476D01*
X157014285Y-51438095D01*
X102502380Y-72575595D02*
X101502380Y-72575595D01*
X101502380Y-72337500D01*
X101550000Y-72194642D01*
X101645238Y-72099404D01*
X101740476Y-72051785D01*
X101930952Y-72004166D01*
X102073809Y-72004166D01*
X102264285Y-72051785D01*
X102359523Y-72099404D01*
X102454761Y-72194642D01*
X102502380Y-72337500D01*
X102502380Y-72575595D01*
X101835714Y-71147023D02*
X102502380Y-71147023D01*
X101454761Y-71385119D02*
X102169047Y-71623214D01*
X102169047Y-71004166D01*
X117502380Y-72575595D02*
X116502380Y-72575595D01*
X116502380Y-72337500D01*
X116550000Y-72194642D01*
X116645238Y-72099404D01*
X116740476Y-72051785D01*
X116930952Y-72004166D01*
X117073809Y-72004166D01*
X117264285Y-72051785D01*
X117359523Y-72099404D01*
X117454761Y-72194642D01*
X117502380Y-72337500D01*
X117502380Y-72575595D01*
X116502380Y-71099404D02*
X116502380Y-71575595D01*
X116978571Y-71623214D01*
X116930952Y-71575595D01*
X116883333Y-71480357D01*
X116883333Y-71242261D01*
X116930952Y-71147023D01*
X116978571Y-71099404D01*
X117073809Y-71051785D01*
X117311904Y-71051785D01*
X117407142Y-71099404D01*
X117454761Y-71147023D01*
X117502380Y-71242261D01*
X117502380Y-71480357D01*
X117454761Y-71575595D01*
X117407142Y-71623214D01*
X132502380Y-72575595D02*
X131502380Y-72575595D01*
X131502380Y-72337500D01*
X131550000Y-72194642D01*
X131645238Y-72099404D01*
X131740476Y-72051785D01*
X131930952Y-72004166D01*
X132073809Y-72004166D01*
X132264285Y-72051785D01*
X132359523Y-72099404D01*
X132454761Y-72194642D01*
X132502380Y-72337500D01*
X132502380Y-72575595D01*
X131502380Y-71147023D02*
X131502380Y-71337500D01*
X131550000Y-71432738D01*
X131597619Y-71480357D01*
X131740476Y-71575595D01*
X131930952Y-71623214D01*
X132311904Y-71623214D01*
X132407142Y-71575595D01*
X132454761Y-71527976D01*
X132502380Y-71432738D01*
X132502380Y-71242261D01*
X132454761Y-71147023D01*
X132407142Y-71099404D01*
X132311904Y-71051785D01*
X132073809Y-71051785D01*
X131978571Y-71099404D01*
X131930952Y-71147023D01*
X131883333Y-71242261D01*
X131883333Y-71432738D01*
X131930952Y-71527976D01*
X131978571Y-71575595D01*
X132073809Y-71623214D01*
X147402380Y-72575595D02*
X146402380Y-72575595D01*
X146402380Y-72337500D01*
X146450000Y-72194642D01*
X146545238Y-72099404D01*
X146640476Y-72051785D01*
X146830952Y-72004166D01*
X146973809Y-72004166D01*
X147164285Y-72051785D01*
X147259523Y-72099404D01*
X147354761Y-72194642D01*
X147402380Y-72337500D01*
X147402380Y-72575595D01*
X146402380Y-71670833D02*
X146402380Y-71004166D01*
X147402380Y-71432738D01*
X109502380Y-87475595D02*
X108502380Y-87475595D01*
X108502380Y-87237500D01*
X108550000Y-87094642D01*
X108645238Y-86999404D01*
X108740476Y-86951785D01*
X108930952Y-86904166D01*
X109073809Y-86904166D01*
X109264285Y-86951785D01*
X109359523Y-86999404D01*
X109454761Y-87094642D01*
X109502380Y-87237500D01*
X109502380Y-87475595D01*
X108930952Y-86332738D02*
X108883333Y-86427976D01*
X108835714Y-86475595D01*
X108740476Y-86523214D01*
X108692857Y-86523214D01*
X108597619Y-86475595D01*
X108550000Y-86427976D01*
X108502380Y-86332738D01*
X108502380Y-86142261D01*
X108550000Y-86047023D01*
X108597619Y-85999404D01*
X108692857Y-85951785D01*
X108740476Y-85951785D01*
X108835714Y-85999404D01*
X108883333Y-86047023D01*
X108930952Y-86142261D01*
X108930952Y-86332738D01*
X108978571Y-86427976D01*
X109026190Y-86475595D01*
X109121428Y-86523214D01*
X109311904Y-86523214D01*
X109407142Y-86475595D01*
X109454761Y-86427976D01*
X109502380Y-86332738D01*
X109502380Y-86142261D01*
X109454761Y-86047023D01*
X109407142Y-85999404D01*
X109311904Y-85951785D01*
X109121428Y-85951785D01*
X109026190Y-85999404D01*
X108978571Y-86047023D01*
X108930952Y-86142261D01*
X124502380Y-87475595D02*
X123502380Y-87475595D01*
X123502380Y-87237500D01*
X123550000Y-87094642D01*
X123645238Y-86999404D01*
X123740476Y-86951785D01*
X123930952Y-86904166D01*
X124073809Y-86904166D01*
X124264285Y-86951785D01*
X124359523Y-86999404D01*
X124454761Y-87094642D01*
X124502380Y-87237500D01*
X124502380Y-87475595D01*
X124502380Y-86427976D02*
X124502380Y-86237500D01*
X124454761Y-86142261D01*
X124407142Y-86094642D01*
X124264285Y-85999404D01*
X124073809Y-85951785D01*
X123692857Y-85951785D01*
X123597619Y-85999404D01*
X123550000Y-86047023D01*
X123502380Y-86142261D01*
X123502380Y-86332738D01*
X123550000Y-86427976D01*
X123597619Y-86475595D01*
X123692857Y-86523214D01*
X123930952Y-86523214D01*
X124026190Y-86475595D01*
X124073809Y-86427976D01*
X124121428Y-86332738D01*
X124121428Y-86142261D01*
X124073809Y-86047023D01*
X124026190Y-85999404D01*
X123930952Y-85951785D01*
X139502380Y-87976785D02*
X138502380Y-87976785D01*
X138502380Y-87738690D01*
X138550000Y-87595833D01*
X138645238Y-87500595D01*
X138740476Y-87452976D01*
X138930952Y-87405357D01*
X139073809Y-87405357D01*
X139264285Y-87452976D01*
X139359523Y-87500595D01*
X139454761Y-87595833D01*
X139502380Y-87738690D01*
X139502380Y-87976785D01*
X139502380Y-86452976D02*
X139502380Y-87024404D01*
X139502380Y-86738690D02*
X138502380Y-86738690D01*
X138645238Y-86833928D01*
X138740476Y-86929166D01*
X138788095Y-87024404D01*
X138502380Y-85833928D02*
X138502380Y-85738690D01*
X138550000Y-85643452D01*
X138597619Y-85595833D01*
X138692857Y-85548214D01*
X138883333Y-85500595D01*
X139121428Y-85500595D01*
X139311904Y-85548214D01*
X139407142Y-85595833D01*
X139454761Y-85643452D01*
X139502380Y-85738690D01*
X139502380Y-85833928D01*
X139454761Y-85929166D01*
X139407142Y-85976785D01*
X139311904Y-86024404D01*
X139121428Y-86072023D01*
X138883333Y-86072023D01*
X138692857Y-86024404D01*
X138597619Y-85976785D01*
X138550000Y-85929166D01*
X138502380Y-85833928D01*
X154502380Y-88014285D02*
X153502380Y-88014285D01*
X153502380Y-87776190D01*
X153550000Y-87633333D01*
X153645238Y-87538095D01*
X153740476Y-87490476D01*
X153930952Y-87442857D01*
X154073809Y-87442857D01*
X154264285Y-87490476D01*
X154359523Y-87538095D01*
X154454761Y-87633333D01*
X154502380Y-87776190D01*
X154502380Y-88014285D01*
X154502380Y-86490476D02*
X154502380Y-87061904D01*
X154502380Y-86776190D02*
X153502380Y-86776190D01*
X153645238Y-86871428D01*
X153740476Y-86966666D01*
X153788095Y-87061904D01*
X154502380Y-85538095D02*
X154502380Y-86109523D01*
X154502380Y-85823809D02*
X153502380Y-85823809D01*
X153645238Y-85919047D01*
X153740476Y-86014285D01*
X153788095Y-86109523D01*
X124502380Y-102951785D02*
X123502380Y-102951785D01*
X123502380Y-102713690D01*
X123550000Y-102570833D01*
X123645238Y-102475595D01*
X123740476Y-102427976D01*
X123930952Y-102380357D01*
X124073809Y-102380357D01*
X124264285Y-102427976D01*
X124359523Y-102475595D01*
X124454761Y-102570833D01*
X124502380Y-102713690D01*
X124502380Y-102951785D01*
X124502380Y-101427976D02*
X124502380Y-101999404D01*
X124502380Y-101713690D02*
X123502380Y-101713690D01*
X123645238Y-101808928D01*
X123740476Y-101904166D01*
X123788095Y-101999404D01*
X123597619Y-101047023D02*
X123550000Y-100999404D01*
X123502380Y-100904166D01*
X123502380Y-100666071D01*
X123550000Y-100570833D01*
X123597619Y-100523214D01*
X123692857Y-100475595D01*
X123788095Y-100475595D01*
X123930952Y-100523214D01*
X124502380Y-101094642D01*
X124502380Y-100475595D01*
X89785714Y-62102380D02*
X89785714Y-61102380D01*
X90023809Y-61102380D01*
X90166666Y-61150000D01*
X90261904Y-61245238D01*
X90309523Y-61340476D01*
X90357142Y-61530952D01*
X90357142Y-61673809D01*
X90309523Y-61864285D01*
X90261904Y-61959523D01*
X90166666Y-62054761D01*
X90023809Y-62102380D01*
X89785714Y-62102380D01*
X91309523Y-62102380D02*
X90738095Y-62102380D01*
X91023809Y-62102380D02*
X91023809Y-61102380D01*
X90928571Y-61245238D01*
X90833333Y-61340476D01*
X90738095Y-61388095D01*
X91642857Y-61102380D02*
X92261904Y-61102380D01*
X91928571Y-61483333D01*
X92071428Y-61483333D01*
X92166666Y-61530952D01*
X92214285Y-61578571D01*
X92261904Y-61673809D01*
X92261904Y-61911904D01*
X92214285Y-62007142D01*
X92166666Y-62054761D01*
X92071428Y-62102380D01*
X91785714Y-62102380D01*
X91690476Y-62054761D01*
X91642857Y-62007142D01*
X122677380Y-43133333D02*
X123391666Y-43133333D01*
X123534523Y-43180952D01*
X123629761Y-43276190D01*
X123677380Y-43419047D01*
X123677380Y-43514285D01*
X123677380Y-42133333D02*
X123677380Y-42704761D01*
X123677380Y-42419047D02*
X122677380Y-42419047D01*
X122820238Y-42514285D01*
X122915476Y-42609523D01*
X122963095Y-42704761D01*
X127642380Y-107833333D02*
X128356666Y-107833333D01*
X128499523Y-107880952D01*
X128594761Y-107976190D01*
X128642380Y-108119047D01*
X128642380Y-108214285D01*
X127737619Y-107404761D02*
X127690000Y-107357142D01*
X127642380Y-107261904D01*
X127642380Y-107023809D01*
X127690000Y-106928571D01*
X127737619Y-106880952D01*
X127832857Y-106833333D01*
X127928095Y-106833333D01*
X128070952Y-106880952D01*
X128642380Y-107452380D01*
X128642380Y-106833333D01*
X88966666Y-50382380D02*
X88966666Y-51096666D01*
X88919047Y-51239523D01*
X88823809Y-51334761D01*
X88680952Y-51382380D01*
X88585714Y-51382380D01*
X89871428Y-50715714D02*
X89871428Y-51382380D01*
X89633333Y-50334761D02*
X89395238Y-51049047D01*
X90014285Y-51049047D01*
X92485714Y-102352380D02*
X92771428Y-103114285D01*
X93057142Y-102352380D01*
X92771428Y-101876190D02*
X92771428Y-101114285D01*
X93152380Y-100638095D02*
X92152380Y-100638095D01*
X92152380Y-100257142D01*
X92200000Y-100161904D01*
X92247619Y-100114285D01*
X92342857Y-100066666D01*
X92485714Y-100066666D01*
X92580952Y-100114285D01*
X92628571Y-100161904D01*
X92676190Y-100257142D01*
X92676190Y-100638095D01*
X93152380Y-99495238D02*
X93104761Y-99590476D01*
X93057142Y-99638095D01*
X92961904Y-99685714D01*
X92676190Y-99685714D01*
X92580952Y-99638095D01*
X92533333Y-99590476D01*
X92485714Y-99495238D01*
X92485714Y-99352380D01*
X92533333Y-99257142D01*
X92580952Y-99209523D01*
X92676190Y-99161904D01*
X92961904Y-99161904D01*
X93057142Y-99209523D01*
X93104761Y-99257142D01*
X93152380Y-99352380D01*
X93152380Y-99495238D01*
X92485714Y-98828571D02*
X93152380Y-98638095D01*
X92676190Y-98447619D01*
X93152380Y-98257142D01*
X92485714Y-98066666D01*
X93104761Y-97304761D02*
X93152380Y-97400000D01*
X93152380Y-97590476D01*
X93104761Y-97685714D01*
X93009523Y-97733333D01*
X92628571Y-97733333D01*
X92533333Y-97685714D01*
X92485714Y-97590476D01*
X92485714Y-97400000D01*
X92533333Y-97304761D01*
X92628571Y-97257142D01*
X92723809Y-97257142D01*
X92819047Y-97733333D01*
X93152380Y-96828571D02*
X92485714Y-96828571D01*
X92676190Y-96828571D02*
X92580952Y-96780952D01*
X92533333Y-96733333D01*
X92485714Y-96638095D01*
X92485714Y-96542857D01*
X91595833Y-77502380D02*
X91262500Y-77026190D01*
X91024404Y-77502380D02*
X91024404Y-76502380D01*
X91405357Y-76502380D01*
X91500595Y-76550000D01*
X91548214Y-76597619D01*
X91595833Y-76692857D01*
X91595833Y-76835714D01*
X91548214Y-76930952D01*
X91500595Y-76978571D01*
X91405357Y-77026190D01*
X91024404Y-77026190D01*
X92548214Y-77502380D02*
X91976785Y-77502380D01*
X92262500Y-77502380D02*
X92262500Y-76502380D01*
X92167261Y-76645238D01*
X92072023Y-76740476D01*
X91976785Y-76788095D01*
X96595833Y-73802380D02*
X96262500Y-73326190D01*
X96024404Y-73802380D02*
X96024404Y-72802380D01*
X96405357Y-72802380D01*
X96500595Y-72850000D01*
X96548214Y-72897619D01*
X96595833Y-72992857D01*
X96595833Y-73135714D01*
X96548214Y-73230952D01*
X96500595Y-73278571D01*
X96405357Y-73326190D01*
X96024404Y-73326190D01*
X96976785Y-72897619D02*
X97024404Y-72850000D01*
X97119642Y-72802380D01*
X97357738Y-72802380D01*
X97452976Y-72850000D01*
X97500595Y-72897619D01*
X97548214Y-72992857D01*
X97548214Y-73088095D01*
X97500595Y-73230952D01*
X96929166Y-73802380D01*
X97548214Y-73802380D01*
X137159523Y-44652380D02*
X136826190Y-44176190D01*
X136588095Y-44652380D02*
X136588095Y-43652380D01*
X136969047Y-43652380D01*
X137064285Y-43700000D01*
X137111904Y-43747619D01*
X137159523Y-43842857D01*
X137159523Y-43985714D01*
X137111904Y-44080952D01*
X137064285Y-44128571D01*
X136969047Y-44176190D01*
X136588095Y-44176190D01*
X137588095Y-44652380D02*
X137588095Y-43652380D01*
X138159523Y-44652380D01*
X138159523Y-43652380D01*
X139159523Y-44652380D02*
X138588095Y-44652380D01*
X138873809Y-44652380D02*
X138873809Y-43652380D01*
X138778571Y-43795238D01*
X138683333Y-43890476D01*
X138588095Y-43938095D01*
X150309523Y-50752380D02*
X149976190Y-50276190D01*
X149738095Y-50752380D02*
X149738095Y-49752380D01*
X150119047Y-49752380D01*
X150214285Y-49800000D01*
X150261904Y-49847619D01*
X150309523Y-49942857D01*
X150309523Y-50085714D01*
X150261904Y-50180952D01*
X150214285Y-50228571D01*
X150119047Y-50276190D01*
X149738095Y-50276190D01*
X150738095Y-50752380D02*
X150738095Y-49752380D01*
X151309523Y-50752380D01*
X151309523Y-49752380D01*
X151738095Y-49847619D02*
X151785714Y-49800000D01*
X151880952Y-49752380D01*
X152119047Y-49752380D01*
X152214285Y-49800000D01*
X152261904Y-49847619D01*
X152309523Y-49942857D01*
X152309523Y-50038095D01*
X152261904Y-50180952D01*
X151690476Y-50752380D01*
X152309523Y-50752380D01*
X120209523Y-50052380D02*
X119876190Y-49576190D01*
X119638095Y-50052380D02*
X119638095Y-49052380D01*
X120019047Y-49052380D01*
X120114285Y-49100000D01*
X120161904Y-49147619D01*
X120209523Y-49242857D01*
X120209523Y-49385714D01*
X120161904Y-49480952D01*
X120114285Y-49528571D01*
X120019047Y-49576190D01*
X119638095Y-49576190D01*
X120638095Y-50052380D02*
X120638095Y-49052380D01*
X121209523Y-50052380D01*
X121209523Y-49052380D01*
X121590476Y-49052380D02*
X122209523Y-49052380D01*
X121876190Y-49433333D01*
X122019047Y-49433333D01*
X122114285Y-49480952D01*
X122161904Y-49528571D01*
X122209523Y-49623809D01*
X122209523Y-49861904D01*
X122161904Y-49957142D01*
X122114285Y-50004761D01*
X122019047Y-50052380D01*
X121733333Y-50052380D01*
X121638095Y-50004761D01*
X121590476Y-49957142D01*
X100002380Y-64011904D02*
X99002380Y-64011904D01*
X99002380Y-63630952D01*
X99050000Y-63535714D01*
X99097619Y-63488095D01*
X99192857Y-63440476D01*
X99335714Y-63440476D01*
X99430952Y-63488095D01*
X99478571Y-63535714D01*
X99526190Y-63630952D01*
X99526190Y-64011904D01*
X100002380Y-62583333D02*
X99478571Y-62583333D01*
X99383333Y-62630952D01*
X99335714Y-62726190D01*
X99335714Y-62916666D01*
X99383333Y-63011904D01*
X99954761Y-62583333D02*
X100002380Y-62678571D01*
X100002380Y-62916666D01*
X99954761Y-63011904D01*
X99859523Y-63059523D01*
X99764285Y-63059523D01*
X99669047Y-63011904D01*
X99621428Y-62916666D01*
X99621428Y-62678571D01*
X99573809Y-62583333D01*
X100002380Y-62107142D02*
X99335714Y-62107142D01*
X99002380Y-62107142D02*
X99050000Y-62154761D01*
X99097619Y-62107142D01*
X99050000Y-62059523D01*
X99002380Y-62107142D01*
X99097619Y-62107142D01*
X100002380Y-61630952D02*
X99335714Y-61630952D01*
X99526190Y-61630952D02*
X99430952Y-61583333D01*
X99383333Y-61535714D01*
X99335714Y-61440476D01*
X99335714Y-61345238D01*
X103466666Y-75304761D02*
X103609523Y-75352380D01*
X103847619Y-75352380D01*
X103942857Y-75304761D01*
X103990476Y-75257142D01*
X104038095Y-75161904D01*
X104038095Y-75066666D01*
X103990476Y-74971428D01*
X103942857Y-74923809D01*
X103847619Y-74876190D01*
X103657142Y-74828571D01*
X103561904Y-74780952D01*
X103514285Y-74733333D01*
X103466666Y-74638095D01*
X103466666Y-74542857D01*
X103514285Y-74447619D01*
X103561904Y-74400000D01*
X103657142Y-74352380D01*
X103895238Y-74352380D01*
X104038095Y-74400000D01*
X104371428Y-74352380D02*
X104609523Y-75352380D01*
X104800000Y-74638095D01*
X104990476Y-75352380D01*
X105228571Y-74352380D01*
X105561904Y-74447619D02*
X105609523Y-74400000D01*
X105704761Y-74352380D01*
X105942857Y-74352380D01*
X106038095Y-74400000D01*
X106085714Y-74447619D01*
X106133333Y-74542857D01*
X106133333Y-74638095D01*
X106085714Y-74780952D01*
X105514285Y-75352380D01*
X106133333Y-75352380D01*
X118466666Y-75304761D02*
X118609523Y-75352380D01*
X118847619Y-75352380D01*
X118942857Y-75304761D01*
X118990476Y-75257142D01*
X119038095Y-75161904D01*
X119038095Y-75066666D01*
X118990476Y-74971428D01*
X118942857Y-74923809D01*
X118847619Y-74876190D01*
X118657142Y-74828571D01*
X118561904Y-74780952D01*
X118514285Y-74733333D01*
X118466666Y-74638095D01*
X118466666Y-74542857D01*
X118514285Y-74447619D01*
X118561904Y-74400000D01*
X118657142Y-74352380D01*
X118895238Y-74352380D01*
X119038095Y-74400000D01*
X119371428Y-74352380D02*
X119609523Y-75352380D01*
X119800000Y-74638095D01*
X119990476Y-75352380D01*
X120228571Y-74352380D01*
X120514285Y-74352380D02*
X121133333Y-74352380D01*
X120800000Y-74733333D01*
X120942857Y-74733333D01*
X121038095Y-74780952D01*
X121085714Y-74828571D01*
X121133333Y-74923809D01*
X121133333Y-75161904D01*
X121085714Y-75257142D01*
X121038095Y-75304761D01*
X120942857Y-75352380D01*
X120657142Y-75352380D01*
X120561904Y-75304761D01*
X120514285Y-75257142D01*
X133466666Y-75304761D02*
X133609523Y-75352380D01*
X133847619Y-75352380D01*
X133942857Y-75304761D01*
X133990476Y-75257142D01*
X134038095Y-75161904D01*
X134038095Y-75066666D01*
X133990476Y-74971428D01*
X133942857Y-74923809D01*
X133847619Y-74876190D01*
X133657142Y-74828571D01*
X133561904Y-74780952D01*
X133514285Y-74733333D01*
X133466666Y-74638095D01*
X133466666Y-74542857D01*
X133514285Y-74447619D01*
X133561904Y-74400000D01*
X133657142Y-74352380D01*
X133895238Y-74352380D01*
X134038095Y-74400000D01*
X134371428Y-74352380D02*
X134609523Y-75352380D01*
X134800000Y-74638095D01*
X134990476Y-75352380D01*
X135228571Y-74352380D01*
X136038095Y-74685714D02*
X136038095Y-75352380D01*
X135800000Y-74304761D02*
X135561904Y-75019047D01*
X136180952Y-75019047D01*
X148466666Y-75304761D02*
X148609523Y-75352380D01*
X148847619Y-75352380D01*
X148942857Y-75304761D01*
X148990476Y-75257142D01*
X149038095Y-75161904D01*
X149038095Y-75066666D01*
X148990476Y-74971428D01*
X148942857Y-74923809D01*
X148847619Y-74876190D01*
X148657142Y-74828571D01*
X148561904Y-74780952D01*
X148514285Y-74733333D01*
X148466666Y-74638095D01*
X148466666Y-74542857D01*
X148514285Y-74447619D01*
X148561904Y-74400000D01*
X148657142Y-74352380D01*
X148895238Y-74352380D01*
X149038095Y-74400000D01*
X149371428Y-74352380D02*
X149609523Y-75352380D01*
X149800000Y-74638095D01*
X149990476Y-75352380D01*
X150228571Y-74352380D01*
X151085714Y-74352380D02*
X150609523Y-74352380D01*
X150561904Y-74828571D01*
X150609523Y-74780952D01*
X150704761Y-74733333D01*
X150942857Y-74733333D01*
X151038095Y-74780952D01*
X151085714Y-74828571D01*
X151133333Y-74923809D01*
X151133333Y-75161904D01*
X151085714Y-75257142D01*
X151038095Y-75304761D01*
X150942857Y-75352380D01*
X150704761Y-75352380D01*
X150609523Y-75304761D01*
X150561904Y-75257142D01*
X110466666Y-90304761D02*
X110609523Y-90352380D01*
X110847619Y-90352380D01*
X110942857Y-90304761D01*
X110990476Y-90257142D01*
X111038095Y-90161904D01*
X111038095Y-90066666D01*
X110990476Y-89971428D01*
X110942857Y-89923809D01*
X110847619Y-89876190D01*
X110657142Y-89828571D01*
X110561904Y-89780952D01*
X110514285Y-89733333D01*
X110466666Y-89638095D01*
X110466666Y-89542857D01*
X110514285Y-89447619D01*
X110561904Y-89400000D01*
X110657142Y-89352380D01*
X110895238Y-89352380D01*
X111038095Y-89400000D01*
X111371428Y-89352380D02*
X111609523Y-90352380D01*
X111800000Y-89638095D01*
X111990476Y-90352380D01*
X112228571Y-89352380D01*
X113038095Y-89352380D02*
X112847619Y-89352380D01*
X112752380Y-89400000D01*
X112704761Y-89447619D01*
X112609523Y-89590476D01*
X112561904Y-89780952D01*
X112561904Y-90161904D01*
X112609523Y-90257142D01*
X112657142Y-90304761D01*
X112752380Y-90352380D01*
X112942857Y-90352380D01*
X113038095Y-90304761D01*
X113085714Y-90257142D01*
X113133333Y-90161904D01*
X113133333Y-89923809D01*
X113085714Y-89828571D01*
X113038095Y-89780952D01*
X112942857Y-89733333D01*
X112752380Y-89733333D01*
X112657142Y-89780952D01*
X112609523Y-89828571D01*
X112561904Y-89923809D01*
X125466666Y-90304761D02*
X125609523Y-90352380D01*
X125847619Y-90352380D01*
X125942857Y-90304761D01*
X125990476Y-90257142D01*
X126038095Y-90161904D01*
X126038095Y-90066666D01*
X125990476Y-89971428D01*
X125942857Y-89923809D01*
X125847619Y-89876190D01*
X125657142Y-89828571D01*
X125561904Y-89780952D01*
X125514285Y-89733333D01*
X125466666Y-89638095D01*
X125466666Y-89542857D01*
X125514285Y-89447619D01*
X125561904Y-89400000D01*
X125657142Y-89352380D01*
X125895238Y-89352380D01*
X126038095Y-89400000D01*
X126371428Y-89352380D02*
X126609523Y-90352380D01*
X126800000Y-89638095D01*
X126990476Y-90352380D01*
X127228571Y-89352380D01*
X127514285Y-89352380D02*
X128180952Y-89352380D01*
X127752380Y-90352380D01*
X140466666Y-90304761D02*
X140609523Y-90352380D01*
X140847619Y-90352380D01*
X140942857Y-90304761D01*
X140990476Y-90257142D01*
X141038095Y-90161904D01*
X141038095Y-90066666D01*
X140990476Y-89971428D01*
X140942857Y-89923809D01*
X140847619Y-89876190D01*
X140657142Y-89828571D01*
X140561904Y-89780952D01*
X140514285Y-89733333D01*
X140466666Y-89638095D01*
X140466666Y-89542857D01*
X140514285Y-89447619D01*
X140561904Y-89400000D01*
X140657142Y-89352380D01*
X140895238Y-89352380D01*
X141038095Y-89400000D01*
X141371428Y-89352380D02*
X141609523Y-90352380D01*
X141800000Y-89638095D01*
X141990476Y-90352380D01*
X142228571Y-89352380D01*
X142752380Y-89780952D02*
X142657142Y-89733333D01*
X142609523Y-89685714D01*
X142561904Y-89590476D01*
X142561904Y-89542857D01*
X142609523Y-89447619D01*
X142657142Y-89400000D01*
X142752380Y-89352380D01*
X142942857Y-89352380D01*
X143038095Y-89400000D01*
X143085714Y-89447619D01*
X143133333Y-89542857D01*
X143133333Y-89590476D01*
X143085714Y-89685714D01*
X143038095Y-89733333D01*
X142942857Y-89780952D01*
X142752380Y-89780952D01*
X142657142Y-89828571D01*
X142609523Y-89876190D01*
X142561904Y-89971428D01*
X142561904Y-90161904D01*
X142609523Y-90257142D01*
X142657142Y-90304761D01*
X142752380Y-90352380D01*
X142942857Y-90352380D01*
X143038095Y-90304761D01*
X143085714Y-90257142D01*
X143133333Y-90161904D01*
X143133333Y-89971428D01*
X143085714Y-89876190D01*
X143038095Y-89828571D01*
X142942857Y-89780952D01*
X155466666Y-90304761D02*
X155609523Y-90352380D01*
X155847619Y-90352380D01*
X155942857Y-90304761D01*
X155990476Y-90257142D01*
X156038095Y-90161904D01*
X156038095Y-90066666D01*
X155990476Y-89971428D01*
X155942857Y-89923809D01*
X155847619Y-89876190D01*
X155657142Y-89828571D01*
X155561904Y-89780952D01*
X155514285Y-89733333D01*
X155466666Y-89638095D01*
X155466666Y-89542857D01*
X155514285Y-89447619D01*
X155561904Y-89400000D01*
X155657142Y-89352380D01*
X155895238Y-89352380D01*
X156038095Y-89400000D01*
X156371428Y-89352380D02*
X156609523Y-90352380D01*
X156800000Y-89638095D01*
X156990476Y-90352380D01*
X157228571Y-89352380D01*
X157657142Y-90352380D02*
X157847619Y-90352380D01*
X157942857Y-90304761D01*
X157990476Y-90257142D01*
X158085714Y-90114285D01*
X158133333Y-89923809D01*
X158133333Y-89542857D01*
X158085714Y-89447619D01*
X158038095Y-89400000D01*
X157942857Y-89352380D01*
X157752380Y-89352380D01*
X157657142Y-89400000D01*
X157609523Y-89447619D01*
X157561904Y-89542857D01*
X157561904Y-89780952D01*
X157609523Y-89876190D01*
X157657142Y-89923809D01*
X157752380Y-89971428D01*
X157942857Y-89971428D01*
X158038095Y-89923809D01*
X158085714Y-89876190D01*
X158133333Y-89780952D01*
X124990476Y-105304761D02*
X125133333Y-105352380D01*
X125371428Y-105352380D01*
X125466666Y-105304761D01*
X125514285Y-105257142D01*
X125561904Y-105161904D01*
X125561904Y-105066666D01*
X125514285Y-104971428D01*
X125466666Y-104923809D01*
X125371428Y-104876190D01*
X125180952Y-104828571D01*
X125085714Y-104780952D01*
X125038095Y-104733333D01*
X124990476Y-104638095D01*
X124990476Y-104542857D01*
X125038095Y-104447619D01*
X125085714Y-104400000D01*
X125180952Y-104352380D01*
X125419047Y-104352380D01*
X125561904Y-104400000D01*
X125895238Y-104352380D02*
X126133333Y-105352380D01*
X126323809Y-104638095D01*
X126514285Y-105352380D01*
X126752380Y-104352380D01*
X127657142Y-105352380D02*
X127085714Y-105352380D01*
X127371428Y-105352380D02*
X127371428Y-104352380D01*
X127276190Y-104495238D01*
X127180952Y-104590476D01*
X127085714Y-104638095D01*
X128276190Y-104352380D02*
X128371428Y-104352380D01*
X128466666Y-104400000D01*
X128514285Y-104447619D01*
X128561904Y-104542857D01*
X128609523Y-104733333D01*
X128609523Y-104971428D01*
X128561904Y-105161904D01*
X128514285Y-105257142D01*
X128466666Y-105304761D01*
X128371428Y-105352380D01*
X128276190Y-105352380D01*
X128180952Y-105304761D01*
X128133333Y-105257142D01*
X128085714Y-105161904D01*
X128038095Y-104971428D01*
X128038095Y-104733333D01*
X128085714Y-104542857D01*
X128133333Y-104447619D01*
X128180952Y-104400000D01*
X128276190Y-104352380D01*
D14*
X97802872Y-44340204D02*
X97802872Y-45153152D01*
X97850692Y-45248793D01*
X97898513Y-45296614D01*
X97994154Y-45344434D01*
X98185436Y-45344434D01*
X98281077Y-45296614D01*
X98328897Y-45248793D01*
X98376718Y-45153152D01*
X98376718Y-44340204D01*
X99380948Y-45344434D02*
X98807102Y-45344434D01*
X99094025Y-45344434D02*
X99094025Y-44340204D01*
X98998384Y-44483665D01*
X98902743Y-44579306D01*
X98807102Y-44627127D01*
X93967815Y-57121148D02*
X94111298Y-57168976D01*
X94159126Y-57216803D01*
X94206953Y-57312459D01*
X94206953Y-57455941D01*
X94159126Y-57551597D01*
X94111298Y-57599424D01*
X94015643Y-57647252D01*
X93633022Y-57647252D01*
X93633022Y-56642872D01*
X93967815Y-56642872D01*
X94063470Y-56690700D01*
X94111298Y-56738527D01*
X94159126Y-56834182D01*
X94159126Y-56929838D01*
X94111298Y-57025493D01*
X94063470Y-57073320D01*
X93967815Y-57121148D01*
X93633022Y-57121148D01*
X94637402Y-57647252D02*
X94637402Y-56642872D01*
X94972195Y-57360286D01*
X95306989Y-56642872D01*
X95306989Y-57647252D01*
X95785265Y-57647252D02*
X95785265Y-56642872D01*
X96024403Y-56642872D01*
X96167886Y-56690700D01*
X96263541Y-56786355D01*
X96311369Y-56882010D01*
X96359196Y-57073320D01*
X96359196Y-57216803D01*
X96311369Y-57408114D01*
X96263541Y-57503769D01*
X96167886Y-57599424D01*
X96024403Y-57647252D01*
X95785265Y-57647252D01*
X96789645Y-57264631D02*
X97554887Y-57264631D01*
X97937508Y-56642872D02*
X98559267Y-56642872D01*
X98224473Y-57025493D01*
X98367956Y-57025493D01*
X98463611Y-57073320D01*
X98511439Y-57121148D01*
X98559267Y-57216803D01*
X98559267Y-57455941D01*
X98511439Y-57551597D01*
X98463611Y-57599424D01*
X98367956Y-57647252D01*
X98080990Y-57647252D01*
X97985335Y-57599424D01*
X97937508Y-57551597D01*
X99420164Y-56977665D02*
X99420164Y-57647252D01*
X99181026Y-56595044D02*
X98941888Y-57312459D01*
X99563647Y-57312459D01*
X100137578Y-56642872D02*
X100233233Y-56642872D01*
X100328889Y-56690700D01*
X100376716Y-56738527D01*
X100424544Y-56834182D01*
X100472371Y-57025493D01*
X100472371Y-57264631D01*
X100424544Y-57455941D01*
X100376716Y-57551597D01*
X100328889Y-57599424D01*
X100233233Y-57647252D01*
X100137578Y-57647252D01*
X100041923Y-57599424D01*
X99994095Y-57551597D01*
X99946268Y-57455941D01*
X99898440Y-57264631D01*
X99898440Y-57025493D01*
X99946268Y-56834182D01*
X99994095Y-56738527D01*
X100041923Y-56690700D01*
X100137578Y-56642872D01*
X100902820Y-57264631D02*
X101668062Y-57264631D01*
X102098510Y-57360286D02*
X102576787Y-57360286D01*
X102002855Y-57647252D02*
X102337649Y-56642872D01*
X102672442Y-57647252D01*
X103007235Y-57264631D02*
X103772477Y-57264631D01*
X104824685Y-57647252D02*
X104489891Y-57168976D01*
X104250753Y-57647252D02*
X104250753Y-56642872D01*
X104633374Y-56642872D01*
X104729030Y-56690700D01*
X104776857Y-56738527D01*
X104824685Y-56834182D01*
X104824685Y-56977665D01*
X104776857Y-57073320D01*
X104729030Y-57121148D01*
X104633374Y-57168976D01*
X104250753Y-57168976D01*
D10*
X89838095Y-71002380D02*
X89838095Y-71811904D01*
X89885714Y-71907142D01*
X89933333Y-71954761D01*
X90028571Y-72002380D01*
X90219047Y-72002380D01*
X90314285Y-71954761D01*
X90361904Y-71907142D01*
X90409523Y-71811904D01*
X90409523Y-71002380D01*
X90838095Y-71097619D02*
X90885714Y-71050000D01*
X90980952Y-71002380D01*
X91219047Y-71002380D01*
X91314285Y-71050000D01*
X91361904Y-71097619D01*
X91409523Y-71192857D01*
X91409523Y-71288095D01*
X91361904Y-71430952D01*
X90790476Y-72002380D01*
X91409523Y-72002380D01*
X97938095Y-79752380D02*
X97938095Y-80561904D01*
X97985714Y-80657142D01*
X98033333Y-80704761D01*
X98128571Y-80752380D01*
X98319047Y-80752380D01*
X98414285Y-80704761D01*
X98461904Y-80657142D01*
X98509523Y-80561904D01*
X98509523Y-79752380D01*
X98890476Y-79752380D02*
X99509523Y-79752380D01*
X99176190Y-80133333D01*
X99319047Y-80133333D01*
X99414285Y-80180952D01*
X99461904Y-80228571D01*
X99509523Y-80323809D01*
X99509523Y-80561904D01*
X99461904Y-80657142D01*
X99414285Y-80704761D01*
X99319047Y-80752380D01*
X99033333Y-80752380D01*
X98938095Y-80704761D01*
X98890476Y-80657142D01*
X104266666Y-43804380D02*
X104266666Y-44518666D01*
X104219047Y-44661523D01*
X104123809Y-44756761D01*
X103980952Y-44804380D01*
X103885714Y-44804380D01*
X104647619Y-43804380D02*
X105266666Y-43804380D01*
X104933333Y-44185333D01*
X105076190Y-44185333D01*
X105171428Y-44232952D01*
X105219047Y-44280571D01*
X105266666Y-44375809D01*
X105266666Y-44613904D01*
X105219047Y-44709142D01*
X105171428Y-44756761D01*
X105076190Y-44804380D01*
X104790476Y-44804380D01*
X104695238Y-44756761D01*
X104647619Y-44709142D01*
M02*
