M48
; DRILL file {KiCad 5.1.5} date Mon 22 Jun 2020 10:24:36 PM CDT
; FORMAT={-:-/ absolute / inch / decimal}
; #@! TF.CreationDate,2020-06-22T22:24:36-05:00
; #@! TF.GenerationSoftware,Kicad,Pcbnew,5.1.5
; #@! TF.FileFunction,NonPlated,1,2,NPTH
FMAT,2
INCH
T1C0.0256
T2C0.0276
T3C0.0354
T4C0.0630
T5C0.1260
T6C0.1969
%
G90
G05
T1
X4.9571Y-1.8504
X5.1846Y-1.8504
T2
X4.0181Y-1.6911
X4.0681Y-1.6911
X4.1181Y-1.6911
X4.1681Y-1.6911
X4.2181Y-1.6911
T3
X3.5039Y-3.8701
X3.5039Y-3.9882
T4
X5.2874Y-2.4311
X5.878Y-2.4311
X6.1535Y-3.0217
X5.563Y-3.0217
X4.3819Y-3.0217
X4.9724Y-3.0217
X4.9724Y-3.6122
X4.1063Y-2.4311
X4.6969Y-2.4311
T5
X3.5669Y-4.2244
X3.5669Y-1.7402
X6.7835Y-1.7402
X6.7835Y-4.2205
T6
X6.3504Y-3.2244
X5.7598Y-3.2244
X4.5787Y-3.2244
X5.1693Y-3.2244
X5.1693Y-3.815
X4.3031Y-2.6339
X4.8937Y-2.6339
X5.4843Y-2.6339
X6.0748Y-2.6339
T0
M30
