M48
; DRILL file {KiCad 5.1.5} date Mon 22 Jun 2020 10:24:36 PM CDT
; FORMAT={-:-/ absolute / inch / decimal}
; #@! TF.CreationDate,2020-06-22T22:24:36-05:00
; #@! TF.GenerationSoftware,Kicad,Pcbnew,5.1.5
; #@! TF.FileFunction,Plated,1,2,PTH
FMAT,2
INCH
T1C0.0157
T2C0.0236
T3C0.0394
T4C0.0472
%
G90
G05
T1
X3.4744Y-2.8839
X3.4803Y-2.815
X3.4843Y-2.6772
X3.5138Y-3.248
X3.6772Y-2.8031
X3.7165Y-2.7913
X3.7165Y-2.9173
X3.7992Y-1.6929
X3.8268Y-2.8622
X3.9173Y-2.7756
X3.9606Y-2.3268
X3.9764Y-2.2343
X3.9961Y-2.9331
X4.0039Y-2.2992
X4.0157Y-3.0433
X4.0433Y-1.937
X4.0472Y-2.0591
X4.0984Y-1.7441
X4.126Y-1.9803
X4.126Y-2.0276
X4.1535Y-2.0571
X4.1654Y-1.7756
X4.1929Y-2.0079
X4.2087Y-2.9173
X4.2913Y-2.2441
X4.2992Y-1.748
X4.3012Y-1.6634
X4.3307Y-2.3228
X4.3937Y-1.9252
X4.4094Y-1.9882
X4.5079Y-1.6732
X4.5512Y-1.8622
X4.5709Y-3.5236
X4.6654Y-2.0079
X4.7126Y-2.9252
X4.9173Y-3.5236
X4.9409Y-1.9724
X5.0118Y-1.8386
X5.0989Y-1.8327
X5.1496Y-1.9724
X5.2441Y-2.9252
X5.4606Y-3.5197
X5.8228Y-2.9213
T3
X3.5157Y-2.0969
X3.5157Y-2.1969
X5.1386Y-4.2323
X5.2386Y-4.2323
X5.3386Y-4.2323
X5.4386Y-4.2323
T4
X5.7598Y-3.4567
X5.9567Y-3.374
X4.5787Y-3.4567
X4.7756Y-3.374
X5.1693Y-3.4567
X5.3661Y-3.374
X5.1693Y-4.0472
X5.3661Y-3.9646
X4.3031Y-2.8661
X4.5Y-2.7835
X4.8937Y-2.8661
X5.0906Y-2.7835
X5.4843Y-2.8661
X5.6811Y-2.7835
X6.0748Y-2.8661
X6.2717Y-2.7835
X6.3504Y-3.4567
X6.5472Y-3.374
T2
G00X4.9008Y-1.7224
M15
G01X4.9008Y-1.6909
M16
G05
G00X4.9008Y-1.8917
M15
G01X4.9008Y-1.8484
M16
G05
G00X5.2409Y-1.7224
M15
G01X5.2409Y-1.6909
M16
G05
G00X5.2409Y-1.8917
M15
G01X5.2409Y-1.8484
M16
G05
T0
M30
