<?xml version="1.0" encoding="UTF-8" standalone="no"?>
<!-- Created with Inkscape (http://www.inkscape.org/) -->

<svg
   width="80.0mm"
   height="80.0mm"
   viewBox="0 0 80.0 80.0"
   version="1.1"
   id="svg830"
   sodipodi:docname="BerryPadKbd.svg"
   inkscape:version="1.1.2 (0a00cf5339, 2022-02-04, custom)"
   xmlns:inkscape="http://www.inkscape.org/namespaces/inkscape"
   xmlns:sodipodi="http://sodipodi.sourceforge.net/DTD/sodipodi-0.dtd"
   xmlns="http://www.w3.org/2000/svg"
   xmlns:svg="http://www.w3.org/2000/svg">
  <sodipodi:namedview
     id="namedview832"
     pagecolor="#ffffff"
     bordercolor="#666666"
     borderopacity="1.0"
     inkscape:pageshadow="2"
     inkscape:pageopacity="0.0"
     inkscape:pagecheckerboard="0"
     inkscape:document-units="mm"
     showgrid="false"
     inkscape:zoom="1.9874254"
     inkscape:cx="84.783057"
     inkscape:cy="109.68965"
     inkscape:window-width="1920"
     inkscape:window-height="1045"
     inkscape:window-x="3840"
     inkscape:window-y="0"
     inkscape:window-maximized="1"
     inkscape:current-layer="g916"
     borderlayer="true" />
  <defs
     id="defs827" />
  <g
     inkscape:label="[fixed] BG"
     inkscape:groupmode="layer"
     sodipodi:insensitive="true"
     id="g908">
    <rect
       x="0"
       y="0"
       width="80.0"
       height="80.0"
       style="fill:#FFFFFF;fill-opacity:1;stroke:none"
       id="rect906" />
  </g>
  <g
     inkscape:label="Edge.Cuts"
     inkscape:groupmode="layer"
     id="g910" />
  <g
     inkscape:label="B.Cu"
     inkscape:groupmode="layer"
     id="g912" />
  <g
     inkscape:label="B.Mask"
     inkscape:groupmode="layer"
     id="g914" />
  <g
     inkscape:label="B.SilkS"
     inkscape:groupmode="layer"
     id="g916"
     style="display:inline">
    <path
       style="display:inline;fill:#000000;stroke-width:0.0989178"
       d="m 55.989893,70.19047 c 0.0373,-0.03731 0.26966,-0.0574 0.51632,-0.04463 0.47119,0.02439 0.85923,-0.155514 1.47131,-0.682139 0.16614,-0.142947 0.72495,-0.427362 1.24179,-0.632036 0.51685,-0.204673 0.99537,-0.417988 1.06337,-0.474034 0.0866,-0.07138 0.12365,-0.463996 0.12365,-1.31093 0,-1.027672 0.026,-1.23181 0.17311,-1.360868 0.12099,-0.106129 1.18426,-0.289885 3.53188,-0.61039 2.16467,-0.29553 3.48344,-0.519546 3.70942,-0.630112 0.20812,-0.101823 0.41978,-0.312825 0.52073,-0.519105 0.154,-0.314699 0.35674,-1.472942 0.52354,-2.990935 l 0.0625,-0.568779 h 0.44353 c 0.41052,0 0.49711,-0.0497 1.16343,-0.667695 0.54523,-0.505703 0.73562,-0.75169 0.78473,-1.013906 0.0357,-0.190418 0.0653,-3.935454 0.0659,-8.322304 0.001,-7.892441 0.003,-7.976634 0.19893,-8.027827 0.19329,-0.05055 0.19783,-0.134925 0.19783,-3.671503 0,-3.553822 -0.004,-3.619767 -0.19783,-3.619767 -0.17586,0 -0.19784,-0.06595 -0.19784,-0.593508 v -0.593508 h -21.76195 -21.76196 v -0.587899 c 0,-0.495383 -0.0346,-0.612132 -0.21985,-0.741885 -0.12091,-0.08469 -0.34348,-0.153986 -0.49459,-0.153986 h -0.27474 v -1.429656 c 0,-2.298329 -0.0455,-2.261603 2.88566,-2.329228 2.1188,-0.04888 2.14684,-0.05234 2.40815,-0.296754 0.55366,-0.517852 0.54235,-0.404907 0.54235,-5.418522 v -4.637003 l 0.2473,-0.608597 0.24729,-0.608598 V 11.997583 6.950801 h -2.96754 -2.96754 v 4.983581 4.983581 l 0.2473,0.657003 c 0.23694,0.629495 0.24729,0.750026 0.24729,2.878838 v 2.221836 l -0.28845,0.323043 -0.28845,0.323045 -2.85219,0.04946 c -3.25374,0.05642 -3.36162,0.08042 -3.6986,0.822634 -0.17423,0.383739 -0.18805,0.696247 -0.19007,4.296371 l -0.002,3.882533 h -0.3242 c -0.17831,0 -0.42313,0.06929 -0.54405,0.153985 -0.18525,0.129753 -0.21985,0.246502 -0.21985,0.741885 v 0.587899 h -5.58886 -5.58887 v 0.593508 c 0,0.527563 -0.022,0.593508 -0.19783,0.593508 -0.19427,0 -0.19784,0.06594 -0.19784,3.659966 0,3.59402 0.004,3.659965 0.19784,3.659965 0.19627,0 0.19783,0.06595 0.19783,8.336494 v 8.336494 l 0.67018,0.665043 c 0.6148,0.610089 0.70471,0.665043 1.0881,0.665043 0.22985,0 0.41873,0.03338 0.41973,0.07419 0.0128,0.524478 0.35646,2.328603 0.56628,2.972863 0.2503,0.768586 0.30032,0.846085 0.66732,1.03375 0.30012,0.15347 1.45667,0.353883 4.74913,0.822955 2.39381,0.341041 5.0827,0.692321 5.97532,0.780615 l 1.62293,0.160541 1.47281,1.034264 1.4728,1.034262 h 12.73303 12.73299 l 0.98547,0.98918 0.98547,0.989182 h 0.80144 c 0.4408,0 0.83198,-0.03053 0.86929,-0.06785 z m -2.45836,-1.317007 -0.98547,-0.98918 h -12.69986 -12.69987 l -1.3978,-0.972251 c -0.76879,-0.53474 -1.44593,-1.000105 -1.50474,-1.034144 -0.0588,-0.03404 -0.81553,-0.1325 -1.6816,-0.2188 -3.03156,-0.302075 -10.37389,-1.391716 -10.70811,-1.589144 -0.41255,-0.243702 -0.74892,-1.243703 -0.96785,-2.877318 l -0.16372,-1.221782 h -0.45371 c -0.42383,0 -0.49457,-0.04051 -1.0746,-0.615379 l -0.6209,-0.615381 v -8.188321 -8.188322 h 0.54405 0.54405 V 38.703476 35.04351 h -0.54405 -0.54405 v -0.395671 -0.395673 l 5.41576,0.0031 c 4.6053,0.0027 5.4445,0.02488 5.60777,0.148377 0.28636,0.216588 7.73766,0.216588 8.02401,0 0.16744,-0.126646 2.9551,-0.145636 21.78086,-0.14838 l 21.58885,-0.0031 v 0.395672 0.395672 h -0.54404 -0.54405 v 3.659966 3.659965 h 0.54405 0.54404 v 7.901075 c 0,4.345591 -0.0298,8.029049 -0.0663,8.185463 -0.0395,0.169282 -0.32234,0.52375 -0.69888,0.87576 -0.56779,0.530804 -0.6851,0.596655 -1.14544,0.642969 l -0.51286,0.0516 -0.0703,0.544047 c -0.26865,2.078339 -0.39089,2.825509 -0.49879,3.048702 -0.24274,0.502099 -0.54675,0.580655 -4.13303,1.067958 -2.85883,0.38846 -3.4446,0.495126 -3.62885,0.660807 -0.20163,0.181308 -0.22199,0.300059 -0.2473,1.442701 l -0.0276,1.24513 -1.02447,0.420935 c -0.56346,0.231514 -1.17612,0.55408 -1.36146,0.716812 -0.53871,0.472993 -0.87671,0.615374 -1.15734,0.48751 -0.18666,-0.08505 -0.30161,-0.07508 -0.52411,0.04544 -0.15675,0.08491 -0.53066,0.156159 -0.83091,0.158338 l -0.54591,0.004 z m -40.1087,-5.032144 c 0.70025,-0.700248 0.39412,-1.87054 -0.53489,-2.044824 -0.4854,-0.09106 -0.82441,0.01045 -1.16193,0.348002 -0.22922,0.229207 -0.28409,0.370623 -0.28409,0.732165 0,0.865466 0.38034,1.248736 1.23917,1.248736 0.37208,0 0.51078,-0.05312 0.74174,-0.284079 z m -0.2993,-0.05002 c 0,-0.02055 0.0779,-0.09844 0.17311,-0.173109 0.15689,-0.123038 0.16038,-0.119542 0.0373,0.03735 -0.12923,0.164773 -0.21046,0.217173 -0.21046,0.135759 z m -1.04313,-0.304371 c -0.38455,-0.384545 -0.26058,-0.966759 0.26583,-1.248486 0.43927,-0.235091 1.17802,0.414397 1.02385,0.90014 -0.0853,0.268775 -0.52617,0.591145 -0.80843,0.591145 -0.13115,0 -0.34771,-0.109259 -0.48125,-0.242799 z m -0.34172,-1.08048 c 0,-0.02055 0.0779,-0.09844 0.17311,-0.173107 0.15689,-0.123041 0.16038,-0.119544 0.0373,0.03734 -0.12923,0.164773 -0.21046,0.217174 -0.21046,0.135761 z m 55.79735,1.330889 c 0.236,-0.23599 0.28915,-0.373012 0.28915,-0.745363 0,-0.563647 -0.20935,-0.899662 -0.65141,-1.045555 -0.43772,-0.144461 -0.85264,-0.04887 -1.17136,0.269843 -0.20471,0.204716 -0.25451,0.350127 -0.25451,0.743222 0,0.408261 0.0476,0.536305 0.28915,0.777853 0.23674,0.236742 0.37257,0.289146 0.74949,0.289146 0.37692,0 0.51275,-0.05241 0.74949,-0.289146 z m -0.30436,-0.04495 c 0,-0.02052 0.0779,-0.09844 0.17311,-0.173106 0.15689,-0.123042 0.16039,-0.119542 0.0373,0.03734 -0.12923,0.164773 -0.21046,0.217174 -0.21046,0.13576 z m -1.10071,-0.13576 c -0.12305,-0.156888 -0.11955,-0.160388 0.0373,-0.03734 0.16477,0.129224 0.21717,0.210452 0.13576,0.210452 -0.0205,0 -0.0984,-0.0779 -0.17311,-0.173106 z m 0.27325,-0.130828 c -0.31322,-0.246373 -0.33886,-0.607016 -0.0628,-0.883081 0.38904,-0.389043 1.0881,-0.107681 1.0881,0.43795 0,0.240997 -0.40464,0.650147 -0.64297,0.650147 -0.0669,0 -0.23898,-0.09225 -0.38233,-0.205016 z m -8.76758,6.00705 c 0,-0.01876 0.10015,-0.118925 0.22256,-0.222565 l 0.22257,-0.188439 -0.18844,0.222566 c -0.17709,0.209157 -0.25669,0.267597 -0.25669,0.188438 z m 2.57186,-3.758882 c 0,-0.01878 0.10016,-0.118925 0.22257,-0.222565 l 0.22256,-0.188439 -0.18843,0.222566 c -0.17709,0.209157 -0.2567,0.267597 -0.2567,0.188438 z m 7.61669,-1.486989 c 0,-0.02055 0.0779,-0.09844 0.17311,-0.173107 0.15688,-0.123041 0.16038,-0.119544 0.0373,0.03734 -0.12923,0.164773 -0.21046,0.217174 -0.21046,0.135761 z m -58.8562,-4.66126 c -0.35049,-0.353633 -0.615,-0.642969 -0.5878,-0.642969 0.0272,0 0.33623,0.289336 0.68671,0.642969 0.35049,0.353631 0.615,0.642964 0.5878,0.642964 -0.0272,0 -0.33623,-0.289333 -0.68671,-0.642964 z m 60.83456,0.515939 c 0,-0.01545 0.25595,-0.27141 0.56878,-0.568778 l 0.56877,-0.540671 -0.54066,0.568778 c -0.5023,0.528415 -0.59689,0.614093 -0.59689,0.540671 z M 70.520693,41.9985 c 0.0952,-0.02488 0.25101,-0.02488 0.34622,0 0.0952,0.02488 0.0173,0.04524 -0.17311,0.04524 -0.19042,0 -0.26831,-0.02036 -0.17311,-0.04524 z m -61.87508,0.0033 c 0.067,-0.02709 0.20051,-0.02875 0.29675,-0.0037 0.0962,0.02508 0.0414,0.04725 -0.12176,0.04927 -0.16322,0.002 -0.24196,-0.0185 -0.17499,-0.0456 z m 61.57851,-4.905742 c 0.0164,-0.88408 0.0298,-0.160741 0.0298,1.607418 0,1.768158 -0.0134,2.491497 -0.0298,1.607417 -0.0164,-0.884079 -0.0164,-2.330756 0,-3.214835 z m 0.37076,1.557959 c 0,-2.951054 0.004,-3.016999 0.19784,-3.016999 0.19351,0 0.19783,0.06594 0.19783,3.016999 0,2.951052 -0.004,3.016999 -0.19783,3.016999 -0.19351,0 -0.19784,-0.06595 -0.19784,-3.016999 z m -62.02158,0 c 0,-2.615831 0.0197,-3.016999 0.14838,-3.016999 0.12865,0 0.14838,0.401168 0.14838,3.016999 0,2.615831 -0.0197,3.016999 -0.14838,3.016999 -0.12865,0 -0.14838,-0.401168 -0.14838,-3.016999 z m 61.88689,-3.264293 c 0.0351,-0.09155 0.18548,-0.148378 0.39257,-0.148378 0.45501,0 0.42731,0.176305 -0.0353,0.224695 -0.20402,0.02134 -0.38067,0.04628 -0.39257,0.05543 -0.0119,0.0091 0.004,-0.05014 0.0353,-0.131747 z m -62.08472,-0.04946 c 0,-0.0544 0.15579,-0.09892 0.34621,-0.09892 0.19042,0 0.34621,0.04452 0.34621,0.09892 0,0.05441 -0.15579,0.09891 -0.34621,0.09891 -0.19042,0 -0.34621,-0.04451 -0.34621,-0.09891 z m 13.37866,-1.16215 c 1.02009,-0.01608 2.68933,-0.01608 3.70942,0 1.02009,0.01608 0.18547,0.02923 -1.85471,0.02923 -2.04019,0 -2.87481,-0.01316 -1.85471,-0.02923 z m 5.02143,-0.643103 c 0.002,-0.494461 0.10402,-0.766615 0.28716,-0.766615 0.27422,0 0.40392,0.212804 0.40392,0.662752 0,0.420165 -0.004,0.425346 -0.34621,0.425346 -0.32493,0 -0.34613,-0.01976 -0.34487,-0.321483 z m -5.93643,-0.766615 h 2.76971 2.7697 v 0.54405 0.544048 h -2.7697 -2.76971 c 0,-0.362699 0,-0.725399 0,-1.088098 z m -1.08809,0.662752 c 0,-0.477412 0.13001,-0.662752 0.46491,-0.662752 0.37639,0.276364 0.22751,0.554553 0.22751,1.088098 h -0.34621 c -0.342,0 -0.34621,-0.0052 -0.34621,-0.425346 z m 6.85668,-0.780217 c 0.0316,-0.07891 0.055,-0.05547 0.0598,0.05976 0.004,0.104276 -0.0191,0.1627 -0.0519,0.12983 -0.0329,-0.03287 -0.0364,-0.118187 -0.008,-0.189592 z m -5.76843,-4.06182 c 7e-5,-3.404013 0.0175,-3.818348 0.1731,-4.129826 0.32558,-0.651739 0.53059,-0.6921 3.51635,-0.692272 2.93309,-2.24e-4 3.07197,-0.02536 3.43649,-0.623194 0.17765,-0.291344 0.19312,-0.511054 0.19346,-2.746146 3.7e-4,-2.357651 -0.007,-2.448116 -0.24692,-3.060483 l -0.2473,-0.63102 V 12.026321 7.346473 h 2.57187 2.57187 v 4.696346 4.696346 l -0.24729,0.657002 -0.2473,0.657003 v 4.591087 c 0,5.04102 -0.009,5.123173 -0.5808,5.418965 -0.24128,0.124768 -0.66726,0.154947 -2.18717,0.154947 -2.09165,0 -2.35234,0.05469 -2.80079,0.587647 -0.26684,0.317122 -0.2674,0.321226 -0.2674,1.942351 v 1.624557 h -2.81916 -2.81917 l 2.3e-4,-3.783613 z m 10.22137,-11.021113 c 0.0363,-0.03627 0.0659,-0.347861 0.0659,-0.692426 0,-0.490926 -0.0321,-0.62648 -0.14838,-0.62648 -0.1121,0 -0.14837,0.1209 -0.14837,0.49459 0,0.628825 -0.17703,0.649711 -0.21715,0.02562 -0.0227,-0.353365 -0.0728,-0.477073 -0.20326,-0.501843 -0.14894,-0.02828 -0.1731,0.04821 -0.1731,0.548105 0,0.319981 0.0533,0.634302 0.1187,0.69968 0.12695,0.12695 0.59633,0.162044 0.70561,0.05275 z m -0.10278,-0.947964 c 0.0236,-0.122411 0.0429,-0.02226 0.0429,0.222566 0,0.244822 -0.0193,0.344976 -0.0429,0.222565 -0.0236,-0.122411 -0.0236,-0.322719 0,-0.445131 z m -0.82046,0.816073 c 0,-0.108809 -0.0445,-0.197835 -0.0989,-0.197835 -0.0544,0 -0.0989,-0.06677 -0.0989,-0.148377 0,-0.08161 0.0445,-0.148378 0.0989,-0.148378 0.16546,0 0.11049,-0.354539 -0.082,-0.528717 -0.31054,-0.281035 -0.41261,-0.199182 -0.41261,0.330882 0,0.373691 -0.0363,0.49459 -0.14838,0.49459 -0.0824,0 -0.14837,0.08792 -0.14837,0.197835 0,0.168527 0.066,0.197837 0.44513,0.197837 0.37918,0 0.44513,-0.02931 0.44513,-0.197837 z m 1.38486,-1.632146 c 0,-0.224069 0.0469,-0.346213 0.13304,-0.346213 0.0732,0 0.2012,-0.0779 0.2845,-0.173107 0.12928,-0.147776 0.14962,-0.600089 0.13898,-3.091187 -0.007,-1.604945 -0.0485,-2.973722 -0.0925,-3.041728 -0.044,-0.068 -0.16374,-0.123648 -0.26606,-0.123648 -0.14356,0 -0.19303,-0.08467 -0.21672,-0.370942 l -0.0307,-0.370942 h -1.28594 -1.28593 l -0.0293,0.251624 c -0.0264,0.226691 -0.0646,0.247506 -0.38535,0.210062 l -0.35601,-0.04156 0.0784,0.531823 c 0.0431,0.292503 0.0767,1.733676 0.0747,3.202609 -0.003,2.272121 0.0191,2.696624 0.1492,2.843891 0.0841,0.09521 0.21277,0.173107 0.28595,0.173107 0.0861,0 0.13304,0.122145 0.13304,0.346213 v 0.346213 h 1.33539 1.33539 z m -1.85803,0.174722 c 0.2566,-0.02031 0.70173,-0.02051 0.98918,-4.48e-4 0.28745,0.02004 0.0775,0.03665 -0.46655,0.03692 -0.54405,2.23e-4 -0.77923,-0.01614 -0.52263,-0.03644 z m -0.41709,-0.323099 c 0,-0.10881 0.0599,-0.197836 0.13305,-0.197836 0.0732,0 0.20302,-0.0779 0.28854,-0.173107 0.12685,-0.141216 0.15268,-0.417668 0.14021,-1.500665 -0.0107,-0.927031 0.0191,-1.339035 0.0988,-1.365597 0.0628,-0.02092 0.13494,0.04232 0.1604,0.140543 0.0366,0.141098 0.0487,0.131866 0.0578,-0.04399 0.008,-0.153173 -0.0444,-0.222566 -0.16783,-0.222566 -0.1658,0 -0.17802,-0.109918 -0.16221,-1.45904 0.0179,-1.531487 -0.0358,-1.805254 -0.35439,-1.805254 -0.12841,0 -0.19436,-0.06713 -0.19436,-0.197836 0,-0.183952 0.066,-0.197835 0.93972,-0.197835 0.8625,0 0.93973,0.01569 0.93973,0.190956 0,0.122717 -0.0795,0.202252 -0.22257,0.222565 -0.2183,0.031 -0.22309,0.06051 -0.24987,1.540109 -0.022,1.216344 -0.0542,1.508499 -0.16623,1.508499 -0.0764,0 -0.15821,-0.100155 -0.18179,-0.222565 -0.0367,-0.190827 -0.0448,-0.183775 -0.0563,0.04946 -0.0114,0.230838 0.0277,0.274269 0.25856,0.286846 l 0.27202,0.01482 -0.27202,0.0412 c -0.20589,0.03119 -0.26924,0.09372 -0.26055,0.257204 0.009,0.167328 0.0217,0.176992 0.0567,0.04289 0.0249,-0.09521 0.10755,-0.173106 0.18372,-0.173106 0.11119,0 0.14387,0.287443 0.16585,1.459041 0.0264,1.405647 0.0355,1.462612 0.24994,1.556684 0.12241,0.05371 0.22256,0.176116 0.22256,0.272025 0,0.154323 -0.10808,0.174379 -0.93972,0.174379 -0.87377,0 -0.93972,-0.01388 -0.93972,-0.197835 z m 0.87879,-3.734155 c -0.009,-0.208497 -0.023,-0.225823 -0.0609,-0.07419 -0.0272,0.10881 -0.0999,0.230539 -0.16163,0.27051 -0.0712,0.04612 -0.0489,0.07322 0.0609,0.07419 0.12601,0.0011 0.16998,-0.07249 0.16163,-0.27051 z m 0.74867,-2.570599 c 0.0513,-0.133804 0.80158,-0.177067 0.87967,-0.05073 0.0252,0.04081 -0.1502,0.05857 -0.38983,0.0395 -0.41601,-0.03313 -0.43569,-0.02262 -0.43569,0.232526 0,0.254645 0.0202,0.265584 0.42955,0.232526 l 0.42956,-0.03469 v 2.47295 2.47295 l -0.42956,-0.03469 c -0.38972,-0.03147 -0.4317,-0.01312 -0.45268,0.197836 -0.0127,0.127889 -0.0357,-1.035526 -0.051,-2.585368 -0.0153,-1.549842 -0.006,-2.874107 0.02,-2.942811 z m 0.67239,5.146847 c -0.12241,-0.02358 -0.32272,-0.02358 -0.44513,0 -0.12242,0.02358 -0.0223,0.04287 0.22256,0.04287 0.24482,0 0.34498,-0.01929 0.22257,-0.04287 z m 0,-0.197837 c -0.12241,-0.02358 -0.32272,-0.02358 -0.44513,0 -0.12242,0.02358 -0.0223,0.04287 0.22256,0.04287 0.24482,0 0.34498,-0.01929 0.22257,-0.04287 z m 0,-0.197836 c -0.12241,-0.02358 -0.32272,-0.02358 -0.44513,0 -0.12242,0.02358 -0.0223,0.04287 0.22256,0.04287 0.24482,0 0.34498,-0.01929 0.22257,-0.04287 z m 0,-0.197835 c -0.12241,-0.02358 -0.32272,-0.02358 -0.44513,0 -0.12242,0.02358 -0.0223,0.04287 0.22256,0.04287 0.24482,0 0.34498,-0.01929 0.22257,-0.04287 z m 0,-0.197836 c -0.12241,-0.02358 -0.32272,-0.02358 -0.44513,0 -0.12242,0.02358 -0.0223,0.04287 0.22256,0.04287 0.24482,0 0.34498,-0.01929 0.22257,-0.04287 z m 0,-0.197836 c -0.12241,-0.02358 -0.32272,-0.02358 -0.44513,0 -0.12242,0.02358 -0.0223,0.04287 0.22256,0.04287 0.24482,0 0.34498,-0.01929 0.22257,-0.04287 z m 0,-0.197837 c -0.12241,-0.02358 -0.32272,-0.02358 -0.44513,0 -0.12242,0.02358 -0.0223,0.04287 0.22256,0.04287 0.24482,0 0.34498,-0.01929 0.22257,-0.04287 z m 0,-0.197836 c -0.12241,-0.02358 -0.32272,-0.02358 -0.44513,0 -0.12242,0.02358 -0.0223,0.04287 0.22256,0.04287 0.24482,0 0.34498,-0.01929 0.22257,-0.04287 z m 0,-0.197836 c -0.12241,-0.02358 -0.32272,-0.02358 -0.44513,0 -0.12242,0.02358 -0.0223,0.04287 0.22256,0.04287 0.24482,0 0.34498,-0.01929 0.22257,-0.04287 z m 0,-0.197835 c -0.12241,-0.02358 -0.32272,-0.02358 -0.44513,0 -0.12242,0.02358 -0.0223,0.04287 0.22256,0.04287 0.24482,0 0.34498,-0.01929 0.22257,-0.04287 z m 0,-0.197837 c -0.12241,-0.02358 -0.32272,-0.02358 -0.44513,0 -0.12242,0.02358 -0.0223,0.04287 0.22256,0.04287 0.24482,0 0.34498,-0.01929 0.22257,-0.04287 z m 0,-0.197836 c -0.12241,-0.02358 -0.32272,-0.02358 -0.44513,0 -0.12242,0.02358 -0.0223,0.04287 0.22256,0.04287 0.24482,0 0.34498,-0.01929 0.22257,-0.04287 z m 0,-0.197835 c -0.12241,-0.02358 -0.32272,-0.02358 -0.44513,0 -0.12242,0.02358 -0.0223,0.04287 0.22256,0.04287 0.24482,0 0.34498,-0.01929 0.22257,-0.04287 z m 0,-0.197836 c -0.12241,-0.02358 -0.32272,-0.02358 -0.44513,0 -0.12242,0.02358 -0.0223,0.04287 0.22256,0.04287 0.24482,0 0.34498,-0.01929 0.22257,-0.04287 z m 0,-0.197836 c -0.12241,-0.02358 -0.32272,-0.02358 -0.44513,0 -0.12242,0.02358 -0.0223,0.04287 0.22256,0.04287 0.24482,0 0.34498,-0.01929 0.22257,-0.04287 z m 0,-0.197837 c -0.12241,-0.02358 -0.32272,-0.02358 -0.44513,0 -0.12242,0.02358 -0.0223,0.04287 0.22256,0.04287 0.24482,0 0.34498,-0.01929 0.22257,-0.04287 z m 0,-0.197835 c -0.12241,-0.02358 -0.32272,-0.02358 -0.44513,0 -0.12242,0.02358 -0.0223,0.04287 0.22256,0.04287 0.24482,0 0.34498,-0.01929 0.22257,-0.04287 z m 0,-0.197836 c -0.12241,-0.02358 -0.32272,-0.02358 -0.44513,0 -0.12242,0.02358 -0.0223,0.04287 0.22256,0.04287 0.24482,0 0.34498,-0.01929 0.22257,-0.04287 z m 0,-0.197836 c -0.12241,-0.02358 -0.32272,-0.02358 -0.44513,0 -0.12242,0.02358 -0.0223,0.04287 0.22256,0.04287 0.24482,0 0.34498,-0.01929 0.22257,-0.04287 z m 0,-0.197837 c -0.12241,-0.02358 -0.32272,-0.02358 -0.44513,0 -0.12242,0.02358 -0.0223,0.04287 0.22256,0.04287 0.24482,0 0.34498,-0.01929 0.22257,-0.04287 z m 0,-0.197835 c -0.12241,-0.02358 -0.32272,-0.02358 -0.44513,0 -0.12242,0.02358 -0.0223,0.04287 0.22256,0.04287 0.24482,0 0.34498,-0.01929 0.22257,-0.04287 z m 0,-0.197836 c -0.12241,-0.02358 -0.32272,-0.02358 -0.44513,0 -0.12242,0.02358 -0.0223,0.04287 0.22256,0.04287 0.24482,0 0.34498,-0.01929 0.22257,-0.04287 z m 0,-0.197836 c -0.12241,-0.02358 -0.32272,-0.02358 -0.44513,0 -0.12242,0.02358 -0.0223,0.04287 0.22256,0.04287 0.24482,0 0.34498,-0.01929 0.22257,-0.04287 z m 0,-0.197836 c -0.12241,-0.02358 -0.32272,-0.02358 -0.44513,0 -0.12242,0.02358 -0.0223,0.04287 0.22256,0.04287 0.24482,0 0.34498,-0.01929 0.22257,-0.04287 z m -0.51932,4.91679 c 0,-0.0544 0.13354,-0.09891 0.29675,-0.09891 0.16322,0 0.29676,0.04452 0.29676,0.09891 0,0.05441 -0.13354,0.09892 -0.29676,0.09892 -0.16321,0 -0.29675,-0.04452 -0.29675,-0.09892 z m -2.27512,0 c 0,-0.0544 0.13354,-0.09891 0.29676,-0.09891 0.16321,0 0.29675,0.04452 0.29675,0.09891 0,0.05441 -0.13354,0.09892 -0.29675,0.09892 -0.16322,0 -0.29676,-0.04452 -0.29676,-0.09892 z m -0.18352,-1.582686 c -0.0182,-1.812551 -0.0181,-1.782371 -0.008,-2.077409 0.008,-0.224918 0.046,-0.246454 0.42147,-0.236732 0.38749,0.01006 0.39164,0.0074 0.0669,-0.04239 l -0.34621,-0.05309 0.39567,-0.07301 0.39567,-0.07302 -0.45342,0.01663 c -0.24938,0.0091 -0.45342,-0.02789 -0.45342,-0.0823 0,-0.0544 0.18179,-0.09416 0.40397,-0.08835 0.38845,0.01016 0.39067,0.0085 0.0577,-0.04252 l -0.34622,-0.05309 0.39567,-0.07302 0.39568,-0.07301 -0.45343,0.01663 c -0.24938,0.0091 -0.45342,-0.02789 -0.45342,-0.0823 0,-0.0544 0.18179,-0.09416 0.40397,-0.08835 0.38845,0.01016 0.39067,0.0085 0.0577,-0.04252 l -0.34622,-0.05309 0.39567,-0.07302 0.39568,-0.07301 -0.45343,0.01663 c -0.24938,0.0091 -0.45339,-0.02789 -0.45337,-0.0823 3e-5,-0.0544 0.20817,-0.09892 0.46253,-0.09892 h 0.46249 v 2.472954 2.472949 h -0.46462 -0.46462 z m 0.70284,1.216124 c -0.12241,-0.02358 -0.32272,-0.02358 -0.44513,0 -0.12241,0.02358 -0.0223,0.04287 0.22257,0.04287 0.24482,0 0.34497,-0.01929 0.22256,-0.04287 z m 0,-0.197837 c -0.12241,-0.02358 -0.32272,-0.02358 -0.44513,0 -0.12241,0.02358 -0.0223,0.04287 0.22257,0.04287 0.24482,0 0.34497,-0.01929 0.22256,-0.04287 z m 0,-0.197836 c -0.12241,-0.02358 -0.32272,-0.02358 -0.44513,0 -0.12241,0.02358 -0.0223,0.04287 0.22257,0.04287 0.24482,0 0.34497,-0.01929 0.22256,-0.04287 z m 0,-0.197835 c -0.12241,-0.02358 -0.32272,-0.02358 -0.44513,0 -0.12241,0.02358 -0.0223,0.04287 0.22257,0.04287 0.24482,0 0.34497,-0.01929 0.22256,-0.04287 z m 0,-0.197836 c -0.12241,-0.02358 -0.32272,-0.02358 -0.44513,0 -0.12241,0.02358 -0.0223,0.04287 0.22257,0.04287 0.24482,0 0.34497,-0.01929 0.22256,-0.04287 z m 0,-0.197836 c -0.12241,-0.02358 -0.32272,-0.02358 -0.44513,0 -0.12241,0.02358 -0.0223,0.04287 0.22257,0.04287 0.24482,0 0.34497,-0.01929 0.22256,-0.04287 z m 0,-0.197837 c -0.12241,-0.02358 -0.32272,-0.02358 -0.44513,0 -0.12241,0.02358 -0.0223,0.04287 0.22257,0.04287 0.24482,0 0.34497,-0.01929 0.22256,-0.04287 z m 0,-0.197836 c -0.12241,-0.02358 -0.32272,-0.02358 -0.44513,0 -0.12241,0.02358 -0.0223,0.04287 0.22257,0.04287 0.24482,0 0.34497,-0.01929 0.22256,-0.04287 z m 0,-0.197836 c -0.12241,-0.02358 -0.32272,-0.02358 -0.44513,0 -0.12241,0.02358 -0.0223,0.04287 0.22257,0.04287 0.24482,0 0.34497,-0.01929 0.22256,-0.04287 z m 0,-0.197835 c -0.12241,-0.02358 -0.32272,-0.02358 -0.44513,0 -0.12241,0.02358 -0.0223,0.04287 0.22257,0.04287 0.24482,0 0.34497,-0.01929 0.22256,-0.04287 z m 0,-0.197837 c -0.12241,-0.02358 -0.32272,-0.02358 -0.44513,0 -0.12241,0.02358 -0.0223,0.04287 0.22257,0.04287 0.24482,0 0.34497,-0.01929 0.22256,-0.04287 z m 0,-0.197836 c -0.12241,-0.02358 -0.32272,-0.02358 -0.44513,0 -0.12241,0.02358 -0.0223,0.04287 0.22257,0.04287 0.24482,0 0.34497,-0.01929 0.22256,-0.04287 z m 0,-0.197835 c -0.12241,-0.02358 -0.32272,-0.02358 -0.44513,0 -0.12241,0.02358 -0.0223,0.04287 0.22257,0.04287 0.24482,0 0.34497,-0.01929 0.22256,-0.04287 z m 0,-0.197836 c -0.12241,-0.02358 -0.32272,-0.02358 -0.44513,0 -0.12241,0.02358 -0.0223,0.04287 0.22257,0.04287 0.24482,0 0.34497,-0.01929 0.22256,-0.04287 z m -0.22256,-0.22003 -0.44513,-0.06917 0.42113,-0.05276 0.42114,-0.05276 -0.42114,0.0098 c -0.5625,0.01296 -0.54175,0.203932 0.024,0.220851 l 0.44513,0.01331 -0.44513,-0.06917 z m 0.22256,-0.373478 c -0.12241,-0.02358 -0.32272,-0.02358 -0.44513,0 -0.12241,0.02358 -0.0223,0.04287 0.22257,0.04287 0.24482,0 0.34497,-0.01929 0.22256,-0.04287 z m 0,-0.197836 c -0.12241,-0.02358 -0.32272,-0.02358 -0.44513,0 -0.12241,0.02358 -0.0223,0.04287 0.22257,0.04287 0.24482,0 0.34497,-0.01929 0.22256,-0.04287 z m 1.7558,-1.562338 c 0,-0.09892 0.0989,-0.148376 0.29675,-0.148376 0.19784,0 0.29676,0.04946 0.29676,0.148376 0,0.09892 -0.0989,0.148378 -0.29676,0.148378 -0.19783,0 -0.29675,-0.04946 -0.29675,-0.148378 z m -2.27512,0 c 0,-0.09892 0.0989,-0.148376 0.29676,-0.148376 0.19783,0 0.29675,0.04946 0.29675,0.148376 0,0.09892 -0.0989,0.148378 -0.29675,0.148378 -0.19784,0 -0.29676,-0.04946 -0.29676,-0.148378 z m -0.16486,-0.297795 c 0,-0.10589 0.75731,-0.07489 0.87707,0.0359 0.0381,0.03523 -0.14368,0.06406 -0.40391,0.06406 -0.26024,0 -0.47316,-0.04498 -0.47316,-0.09996 z m -0.23081,-0.246254 c 0,-0.0544 0.0471,-0.09892 0.10476,-0.09892 0.0576,0 0.0773,0.04452 0.0436,0.09892 -0.0336,0.0544 -0.0808,0.09892 -0.10476,0.09892 -0.024,0 -0.0436,-0.04452 -0.0436,-0.09892 z m -0.89026,14.305761 c 0,-0.02054 0.0779,-0.09844 0.17311,-0.173106 0.15688,-0.123041 0.16038,-0.119542 0.0373,0.03734 -0.12923,0.164773 -0.21046,0.217172 -0.21046,0.135758 z"
       id="path2091"
       sodipodi:nodetypes="ssssssssssscsssccssscccssscsssscccccccccsscccssccssscccssssscsscsssscccccccsssccccssssscssccccccccccccssccccccccccsssscssssscsssscccsscsssssssssssssssssssssssssssssssssssssssssssscsssscsssssssssssssscsssssscccccssssssssssssssssscsssssscssccssscccccccccsccssccscccccssccccccccccssssscccccsssscsssssssssssssssssssscsscssscccsscccsssccccccccccssssscssssssscsssscccssssssccscscscscsscccsssccssssssssssssssssssssssssssssssssssssssssssssssssssssssssssssssssssssssssssssssssssssssssssssssssssssssssssccccccccsscccccsssccccssccccccsssssssssssssssssssssssssssssssssssssssssssssssssssssssscccccscccssssssssssssssssssssssssssscsccc" />
  </g>
  <g
     inkscape:label="F.Cu"
     inkscape:groupmode="layer"
     id="g918" />
  <g
     inkscape:label="F.Mask"
     inkscape:groupmode="layer"
     id="g920" />
  <g
     inkscape:label="F.SilkS"
     inkscape:groupmode="layer"
     id="g922"
     style="display:inline">
    <path
       style="display:inline;fill:#000000;stroke-width:0.0989178"
       d="m 55.989895,70.19047 c 0.03731,-0.03731 0.269657,-0.0574 0.516317,-0.04463 0.471188,0.02439 0.859227,-0.155514 1.471309,-0.682139 0.166142,-0.142947 0.72495,-0.427362 1.241797,-0.632036 0.516846,-0.204673 0.995362,-0.417988 1.063367,-0.474034 0.08661,-0.07138 0.123648,-0.463996 0.123648,-1.31093 0,-1.027672 0.02597,-1.23181 0.173107,-1.360868 0.120993,-0.106129 1.184262,-0.289885 3.531882,-0.61039 2.164667,-0.29553 3.483438,-0.519546 3.709425,-0.630112 0.208119,-0.101823 0.41978,-0.312825 0.520724,-0.519105 0.154002,-0.314699 0.356746,-1.472942 0.523546,-2.990935 l 0.0625,-0.568779 h 0.443529 c 0.41052,0 0.497106,-0.0497 1.163426,-0.667695 0.545236,-0.505703 0.735625,-0.75169 0.784735,-1.013906 0.03567,-0.190418 0.06533,-3.935454 0.06593,-8.322304 0.001,-7.892441 0.0031,-7.976634 0.198925,-8.027827 0.193289,-0.05055 0.197836,-0.134925 0.197836,-3.671503 0,-3.553822 -0.0036,-3.619767 -0.197836,-3.619767 -0.175855,0 -0.197836,-0.06595 -0.197836,-0.593508 V 33.856494 H 49.624273 c -2.870431,0.0559 2.358694,1e-6 -41.4466683,1e-6 v 0.593508 c 0,0.527563 -0.02198,0.593508 -0.197835,0.593508 -0.194271,0 -0.197837,0.06594 -0.197837,3.659966 0,3.59402 0.0036,3.659965 0.197837,3.659965 0.19627,0 0.197835,0.06595 0.197835,8.336494 v 8.336494 l 0.67018,0.665043 c 0.614797,0.610089 0.7047123,0.665043 1.0880963,0.665043 0.229857,0 0.418735,0.03338 0.419734,0.07419 0.01281,0.524478 0.356462,2.328603 0.566276,2.972863 0.2503,0.768586 0.300327,0.846085 0.667321,1.03375 0.300117,0.15347 1.456676,0.353883 4.749128,0.822955 2.393814,0.341041 5.082708,0.692321 5.975322,0.780615 l 1.62293,0.160541 1.472807,1.034264 1.472807,1.034262 h 12.733026 12.732996 l 0.985469,0.98918 0.985468,0.989182 h 0.801443 c 0.440794,0 0.831973,-0.03053 0.869287,-0.06785 z m -2.458362,-1.317007 -0.985469,-0.98918 H 39.846202 27.146338 l -1.397806,-0.972251 c -0.768793,-0.53474 -1.445924,-1.000105 -1.504735,-1.034144 -0.05881,-0.03404 -0.815532,-0.1325 -1.681604,-0.2188 -3.031563,-0.302075 -10.37389,-1.391716 -10.708107,-1.589144 -0.412557,-0.243702 -0.748927,-1.243703 -0.967848,-2.877318 l -0.163727,-1.221782 h -0.453705 c -0.423835,0 -0.494576,-0.04051 -1.0746013,-0.615379 L 8.5733067,58.740084 V 50.551763 42.363441 H 9.1173537 9.661403 V 38.703476 35.04351 H 9.1173537 8.5733067 v -0.395671 -0.395673 c 16.1519563,0.314816 31.8169503,0.0048 40.8284003,0.0031 l 21.588851,-0.0031 v 0.395672 0.395672 H 70.446509 69.90246 v 3.659966 3.659965 h 0.544049 0.544049 v 7.901075 c 0,4.345591 -0.02984,8.029049 -0.06631,8.185463 -0.03947,0.169282 -0.322343,0.52375 -0.698883,0.87576 -0.567791,0.530804 -0.685104,0.596655 -1.14544,0.642969 l -0.512863,0.0516 -0.07032,0.544047 c -0.268649,2.078339 -0.390891,2.825509 -0.498791,3.048702 -0.242735,0.502099 -0.546745,0.580655 -4.133032,1.067958 -2.858825,0.38846 -3.444595,0.495126 -3.628847,0.660807 -0.201633,0.181308 -0.221988,0.300059 -0.247295,1.442701 l -0.02758,1.24513 -1.024472,0.420935 c -0.56346,0.231514 -1.176117,0.55408 -1.361458,0.716812 -0.538713,0.472993 -0.876715,0.615374 -1.157342,0.48751 -0.186665,-0.08505 -0.30161,-0.07508 -0.52411,0.04544 -0.156755,0.08491 -0.530666,0.156159 -0.830914,0.158338 l -0.545904,0.004 z M 13.422831,63.841319 c 0.700248,-0.700248 0.394118,-1.87054 -0.534889,-2.044824 -0.485401,-0.09106 -0.824404,0.01045 -1.161933,0.348002 -0.229211,0.229207 -0.284082,0.370623 -0.284082,0.732165 0,0.865466 0.380337,1.248736 1.239171,1.248736 0.372077,0 0.510775,-0.05312 0.741733,-0.284079 z m -0.299296,-0.05002 c 0,-0.02055 0.0779,-0.09844 0.173106,-0.173109 0.156889,-0.123038 0.160387,-0.119542 0.03734,0.03735 -0.129224,0.164773 -0.210453,0.217173 -0.210453,0.135759 z M 12.0804,63.486928 c -0.384547,-0.384545 -0.260578,-0.966759 0.265837,-1.248486 0.439271,-0.235091 1.178012,0.414397 1.023843,0.90014 -0.08531,0.268775 -0.526171,0.591145 -0.80843,0.591145 -0.131148,0 -0.34771,-0.109259 -0.48125,-0.242799 z m -0.341717,-1.08048 c 0,-0.02055 0.0779,-0.09844 0.173106,-0.173107 0.156891,-0.123041 0.160388,-0.119544 0.03734,0.03734 -0.129221,0.164773 -0.210452,0.217174 -0.210452,0.135761 z m 55.797354,1.330889 c 0.235992,-0.23599 0.289145,-0.373012 0.289145,-0.745363 0,-0.563647 -0.209346,-0.899662 -0.651411,-1.045555 -0.437715,-0.144461 -0.85264,-0.04887 -1.171358,0.269843 -0.204714,0.204716 -0.254508,0.350127 -0.254508,0.743222 0,0.408261 0.04759,0.536305 0.289144,0.777853 0.236741,0.236742 0.372579,0.289146 0.749494,0.289146 0.376917,0 0.512754,-0.05241 0.749494,-0.289146 z m -0.304362,-0.04495 c 0,-0.02052 0.0779,-0.09844 0.173106,-0.173106 0.15689,-0.123042 0.160389,-0.119542 0.03734,0.03734 -0.129223,0.164773 -0.210453,0.217174 -0.210453,0.13576 z m -1.100715,-0.13576 c -0.123042,-0.156888 -0.119543,-0.160388 0.03734,-0.03734 0.164773,0.129224 0.217173,0.210452 0.135759,0.210452 -0.02054,0 -0.09844,-0.0779 -0.173105,-0.173106 z m 0.273251,-0.130828 c -0.313216,-0.246373 -0.338862,-0.607016 -0.0628,-0.883081 0.389044,-0.389043 1.088098,-0.107681 1.088098,0.43795 0,0.240997 -0.404635,0.650147 -0.642968,0.650147 -0.06694,0 -0.238982,-0.09225 -0.382332,-0.205016 z m -8.767582,6.00705 c 0,-0.01876 0.100155,-0.118925 0.222566,-0.222565 l 0.222566,-0.188439 -0.188439,0.222566 c -0.177085,0.209157 -0.256693,0.267597 -0.256693,0.188438 z m 2.571868,-3.758882 c 0,-0.01878 0.100155,-0.118925 0.222566,-0.222565 l 0.222565,-0.188439 -0.188438,0.222566 c -0.177085,0.209157 -0.256693,0.267597 -0.256693,0.188438 z m 7.616685,-1.486989 c 0,-0.02055 0.0779,-0.09844 0.173107,-0.173107 0.156889,-0.123041 0.160388,-0.119544 0.03734,0.03734 -0.129224,0.164773 -0.210454,0.217174 -0.210454,0.135761 z M 8.9689787,59.525718 c -0.350489,-0.353633 -0.614996,-0.642969 -0.587795,-0.642969 0.02719,0 0.336225,0.289336 0.686713,0.642969 0.350489,0.353631 0.6149933,0.642964 0.5877923,0.642964 -0.0272,0 -0.3362223,-0.289333 -0.6867103,-0.642964 z m 60.8345633,0.515939 c 0,-0.01545 0.255951,-0.27141 0.568778,-0.568778 l 0.568778,-0.540671 -0.540669,0.568778 c -0.5023,0.528415 -0.596887,0.614093 -0.596887,0.540671 z M 70.520698,41.9985 c 0.09521,-0.02488 0.251004,-0.02488 0.346212,0 0.09521,0.02488 0.01731,0.04524 -0.173107,0.04524 -0.190417,0 -0.268314,-0.02036 -0.173105,-0.04524 z M 8.6456127,42.0018 c 0.06697,-0.02709 0.200509,-0.02875 0.296753,-0.0037 0.09624,0.02508 0.04145,0.04725 -0.121766,0.04927 -0.163213,0.002 -0.241957,-0.0185 -0.174987,-0.0456 z M 70.224121,37.096058 c 0.0164,-0.88408 0.02981,-0.160741 0.02981,1.607418 0,1.768158 -0.01341,2.491497 -0.02981,1.607417 -0.0164,-0.884079 -0.0164,-2.330756 0,-3.214835 z m 0.370765,1.557959 c 0,-2.951054 0.0044,-3.016999 0.197836,-3.016999 0.193512,0 0.197836,0.06594 0.197836,3.016999 0,2.951052 -0.0044,3.016999 -0.197836,3.016999 -0.193512,0 -0.197836,-0.06595 -0.197836,-3.016999 z m -62.0215793,0 c 0,-2.615831 0.01974,-3.016999 0.148375,-3.016999 0.128649,0 0.148378,0.401168 0.148378,3.016999 0,2.615831 -0.01974,3.016999 -0.148378,3.016999 -0.128647,0 -0.148375,-0.401168 -0.148375,-3.016999 z M 70.460197,35.389724 c 0.03513,-0.09155 0.18548,-0.148378 0.392567,-0.148378 0.455012,0 0.427305,0.176305 -0.03531,0.224695 -0.204019,0.02134 -0.380674,0.04628 -0.392567,0.05543 -0.0119,0.0091 0.004,-0.05014 0.03531,-0.131747 z M 8.3754697,35.340264 c 0,-0.0544 0.155797,-0.09892 0.346212,-0.09892 0.190418,0 0.346215,0.04452 0.346215,0.09892 0,0.05441 -0.155797,0.09891 -0.346215,0.09891 -0.190415,0 -0.346212,-0.04451 -0.346212,-0.09891 z"
       id="path1012"
       sodipodi:nodetypes="ssssssssssscsssccssscccssssscsscsssscccccccsssccccssssscsscccccccccccccccccccccsssscssssscsssscccsscsssssssssssssssssssssssssssssssssssssssssssscsssscsssssssssssssscsssssscccccssssssssssssssssscssssss" />
  </g>
  <g
     inkscape:label="Dwgs.User"
     inkscape:groupmode="layer"
     id="g924" />
  <g
     inkscape:label="Drill"
     inkscape:groupmode="layer"
     id="g926" />
</svg>
