%TF.GenerationSoftware,KiCad,Pcbnew,(5.99.0-9526-g5c17ff0595)*%
%TF.CreationDate,2021-07-07T23:04:22-05:00*%
%TF.ProjectId,Cafebabe Backplate,43616665-6261-4626-9520-4261636b706c,rev?*%
%TF.SameCoordinates,Original*%
%TF.FileFunction,Legend,Bot*%
%TF.FilePolarity,Positive*%
%FSLAX46Y46*%
G04 Gerber Fmt 4.6, Leading zero omitted, Abs format (unit mm)*
G04 Created by KiCad (PCBNEW (5.99.0-9526-g5c17ff0595)) date 2021-07-07 23:04:22*
%MOMM*%
%LPD*%
G01*
G04 APERTURE LIST*
%ADD10C,0.150000*%
G04 APERTURE END LIST*
D10*
X144470674Y-58456388D02*
X144470674Y-56956388D01*
X144470674Y-57670674D02*
X143613531Y-57670674D01*
X143613531Y-58456388D02*
X143613531Y-56956388D01*
X142256388Y-58456388D02*
X142256388Y-57670674D01*
X142327817Y-57527817D01*
X142470674Y-57456388D01*
X142756388Y-57456388D01*
X142899245Y-57527817D01*
X142256388Y-58384959D02*
X142399245Y-58456388D01*
X142756388Y-58456388D01*
X142899245Y-58384959D01*
X142970674Y-58242102D01*
X142970674Y-58099245D01*
X142899245Y-57956388D01*
X142756388Y-57884959D01*
X142399245Y-57884959D01*
X142256388Y-57813531D01*
X141684959Y-57456388D02*
X141327817Y-58456388D01*
X140970674Y-57456388D01*
X139827817Y-58384959D02*
X139970674Y-58456388D01*
X140256388Y-58456388D01*
X140399245Y-58384959D01*
X140470674Y-58242102D01*
X140470674Y-57670674D01*
X140399245Y-57527817D01*
X140256388Y-57456388D01*
X139970674Y-57456388D01*
X139827817Y-57527817D01*
X139756388Y-57670674D01*
X139756388Y-57813531D01*
X140470674Y-57956388D01*
X138184959Y-57456388D02*
X137613531Y-57456388D01*
X137970674Y-58456388D02*
X137970674Y-57170674D01*
X137899245Y-57027817D01*
X137756388Y-56956388D01*
X137613531Y-56956388D01*
X136470674Y-57456388D02*
X136470674Y-58456388D01*
X137113531Y-57456388D02*
X137113531Y-58242102D01*
X137042102Y-58384959D01*
X136899245Y-58456388D01*
X136684959Y-58456388D01*
X136542102Y-58384959D01*
X136470674Y-58313531D01*
X135756388Y-57456388D02*
X135756388Y-58456388D01*
X135756388Y-57599245D02*
X135684959Y-57527817D01*
X135542102Y-57456388D01*
X135327817Y-57456388D01*
X135184959Y-57527817D01*
X135113531Y-57670674D01*
X135113531Y-58456388D01*
X133470674Y-57456388D02*
X132899245Y-57456388D01*
X133256388Y-56956388D02*
X133256388Y-58242102D01*
X133184959Y-58384959D01*
X133042102Y-58456388D01*
X132899245Y-58456388D01*
X131756388Y-58456388D02*
X131756388Y-57670674D01*
X131827817Y-57527817D01*
X131970674Y-57456388D01*
X132256388Y-57456388D01*
X132399245Y-57527817D01*
X131756388Y-58384959D02*
X131899245Y-58456388D01*
X132256388Y-58456388D01*
X132399245Y-58384959D01*
X132470674Y-58242102D01*
X132470674Y-58099245D01*
X132399245Y-57956388D01*
X132256388Y-57884959D01*
X131899245Y-57884959D01*
X131756388Y-57813531D01*
X131042102Y-58456388D02*
X131042102Y-56956388D01*
X130899245Y-57884959D02*
X130470674Y-58456388D01*
X130470674Y-57456388D02*
X131042102Y-58027817D01*
X129827817Y-58456388D02*
X129827817Y-57456388D01*
X129827817Y-56956388D02*
X129899245Y-57027817D01*
X129827817Y-57099245D01*
X129756388Y-57027817D01*
X129827817Y-56956388D01*
X129827817Y-57099245D01*
X129113531Y-57456388D02*
X129113531Y-58456388D01*
X129113531Y-57599245D02*
X129042102Y-57527817D01*
X128899245Y-57456388D01*
X128684959Y-57456388D01*
X128542102Y-57527817D01*
X128470674Y-57670674D01*
X128470674Y-58456388D01*
X127113531Y-57456388D02*
X127113531Y-58670674D01*
X127184959Y-58813531D01*
X127256388Y-58884959D01*
X127399245Y-58956388D01*
X127613531Y-58956388D01*
X127756388Y-58884959D01*
X127113531Y-58384959D02*
X127256388Y-58456388D01*
X127542102Y-58456388D01*
X127684959Y-58384959D01*
X127756388Y-58313531D01*
X127827817Y-58170674D01*
X127827817Y-57742102D01*
X127756388Y-57599245D01*
X127684959Y-57527817D01*
X127542102Y-57456388D01*
X127256388Y-57456388D01*
X127113531Y-57527817D01*
X125256388Y-58456388D02*
X125256388Y-57456388D01*
X125256388Y-56956388D02*
X125327817Y-57027817D01*
X125256388Y-57099245D01*
X125184959Y-57027817D01*
X125256388Y-56956388D01*
X125256388Y-57099245D01*
X124756388Y-57456388D02*
X124184959Y-57456388D01*
X124542102Y-56956388D02*
X124542102Y-58242102D01*
X124470674Y-58384959D01*
X124327817Y-58456388D01*
X124184959Y-58456388D01*
X121899245Y-58456388D02*
X121899245Y-57670674D01*
X121970674Y-57527817D01*
X122113531Y-57456388D01*
X122399245Y-57456388D01*
X122542102Y-57527817D01*
X121899245Y-58384959D02*
X122042102Y-58456388D01*
X122399245Y-58456388D01*
X122542102Y-58384959D01*
X122613531Y-58242102D01*
X122613531Y-58099245D01*
X122542102Y-57956388D01*
X122399245Y-57884959D01*
X122042102Y-57884959D01*
X121899245Y-57813531D01*
X121184959Y-57456388D02*
X121184959Y-58956388D01*
X121184959Y-57527817D02*
X121042102Y-57456388D01*
X120756388Y-57456388D01*
X120613531Y-57527817D01*
X120542102Y-57599245D01*
X120470674Y-57742102D01*
X120470674Y-58170674D01*
X120542102Y-58313531D01*
X120613531Y-58384959D01*
X120756388Y-58456388D01*
X121042102Y-58456388D01*
X121184959Y-58384959D01*
X119184959Y-58456388D02*
X119184959Y-57670674D01*
X119256388Y-57527817D01*
X119399245Y-57456388D01*
X119684959Y-57456388D01*
X119827817Y-57527817D01*
X119184959Y-58384959D02*
X119327817Y-58456388D01*
X119684959Y-58456388D01*
X119827817Y-58384959D01*
X119899245Y-58242102D01*
X119899245Y-58099245D01*
X119827817Y-57956388D01*
X119684959Y-57884959D01*
X119327817Y-57884959D01*
X119184959Y-57813531D01*
X118470674Y-58456388D02*
X118470674Y-57456388D01*
X118470674Y-57742102D02*
X118399245Y-57599245D01*
X118327817Y-57527817D01*
X118184959Y-57456388D01*
X118042102Y-57456388D01*
X117756388Y-57456388D02*
X117184959Y-57456388D01*
X117542102Y-56956388D02*
X117542102Y-58242102D01*
X117470674Y-58384959D01*
X117327817Y-58456388D01*
X117184959Y-58456388D01*
X116684959Y-58313531D02*
X116613531Y-58384959D01*
X116684959Y-58456388D01*
X116756388Y-58384959D01*
X116684959Y-58313531D01*
X116684959Y-58456388D01*
X116684959Y-57884959D02*
X116756388Y-57027817D01*
X116684959Y-56956388D01*
X116613531Y-57027817D01*
X116684959Y-57884959D01*
X116684959Y-56956388D01*
X135496864Y-140830197D02*
X135496864Y-141544483D01*
X135544483Y-141687340D01*
X135639721Y-141782578D01*
X135782578Y-141830197D01*
X135877817Y-141830197D01*
X134544483Y-141830197D02*
X135020674Y-141830197D01*
X135020674Y-140830197D01*
X133639721Y-141734959D02*
X133687340Y-141782578D01*
X133830197Y-141830197D01*
X133925436Y-141830197D01*
X134068293Y-141782578D01*
X134163531Y-141687340D01*
X134211150Y-141592102D01*
X134258769Y-141401626D01*
X134258769Y-141258769D01*
X134211150Y-141068293D01*
X134163531Y-140973055D01*
X134068293Y-140877817D01*
X133925436Y-140830197D01*
X133830197Y-140830197D01*
X133687340Y-140877817D01*
X133639721Y-140925436D01*
X132925436Y-140830197D02*
X132925436Y-141544483D01*
X132973055Y-141687340D01*
X133068293Y-141782578D01*
X133211150Y-141830197D01*
X133306388Y-141830197D01*
X131973055Y-141830197D02*
X132449245Y-141830197D01*
X132449245Y-140830197D01*
X131068293Y-141734959D02*
X131115912Y-141782578D01*
X131258769Y-141830197D01*
X131354007Y-141830197D01*
X131496864Y-141782578D01*
X131592102Y-141687340D01*
X131639721Y-141592102D01*
X131687340Y-141401626D01*
X131687340Y-141258769D01*
X131639721Y-141068293D01*
X131592102Y-140973055D01*
X131496864Y-140877817D01*
X131354007Y-140830197D01*
X131258769Y-140830197D01*
X131115912Y-140877817D01*
X131068293Y-140925436D01*
X130354007Y-140830197D02*
X130354007Y-141544483D01*
X130401626Y-141687340D01*
X130496864Y-141782578D01*
X130639721Y-141830197D01*
X130734959Y-141830197D01*
X129401626Y-141830197D02*
X129877817Y-141830197D01*
X129877817Y-140830197D01*
X128496864Y-141734959D02*
X128544483Y-141782578D01*
X128687340Y-141830197D01*
X128782578Y-141830197D01*
X128925436Y-141782578D01*
X129020674Y-141687340D01*
X129068293Y-141592102D01*
X129115912Y-141401626D01*
X129115912Y-141258769D01*
X129068293Y-141068293D01*
X129020674Y-140973055D01*
X128925436Y-140877817D01*
X128782578Y-140830197D01*
X128687340Y-140830197D01*
X128544483Y-140877817D01*
X128496864Y-140925436D01*
X127782578Y-140830197D02*
X127782578Y-141544483D01*
X127830197Y-141687340D01*
X127925436Y-141782578D01*
X128068293Y-141830197D01*
X128163531Y-141830197D01*
X126830197Y-141830197D02*
X127306388Y-141830197D01*
X127306388Y-140830197D01*
X125925436Y-141734959D02*
X125973055Y-141782578D01*
X126115912Y-141830197D01*
X126211150Y-141830197D01*
X126354007Y-141782578D01*
X126449245Y-141687340D01*
X126496864Y-141592102D01*
X126544483Y-141401626D01*
X126544483Y-141258769D01*
X126496864Y-141068293D01*
X126449245Y-140973055D01*
X126354007Y-140877817D01*
X126211150Y-140830197D01*
X126115912Y-140830197D01*
X125973055Y-140877817D01*
X125925436Y-140925436D01*
X168215911Y-61782578D02*
X168215911Y-59782578D01*
X167358768Y-61782578D02*
X167358768Y-60734959D01*
X167454006Y-60544483D01*
X167644482Y-60449245D01*
X167930196Y-60449245D01*
X168120673Y-60544483D01*
X168215911Y-60639721D01*
X166692101Y-60449245D02*
X165930196Y-60449245D01*
X166406387Y-59782578D02*
X166406387Y-61496864D01*
X166311149Y-61687340D01*
X166120673Y-61782578D01*
X165930196Y-61782578D01*
X165549244Y-60449245D02*
X164787339Y-60449245D01*
X165263530Y-59782578D02*
X165263530Y-61496864D01*
X165168292Y-61687340D01*
X164977816Y-61782578D01*
X164787339Y-61782578D01*
X164120673Y-60449245D02*
X164120673Y-62449245D01*
X164120673Y-60544483D02*
X163930196Y-60449245D01*
X163549244Y-60449245D01*
X163358768Y-60544483D01*
X163263530Y-60639721D01*
X163168292Y-60830197D01*
X163168292Y-61401626D01*
X163263530Y-61592102D01*
X163358768Y-61687340D01*
X163549244Y-61782578D01*
X163930196Y-61782578D01*
X164120673Y-61687340D01*
X162406387Y-61687340D02*
X162215911Y-61782578D01*
X161834958Y-61782578D01*
X161644482Y-61687340D01*
X161549244Y-61496864D01*
X161549244Y-61401626D01*
X161644482Y-61211150D01*
X161834958Y-61115912D01*
X162120673Y-61115912D01*
X162311149Y-61020674D01*
X162406387Y-60830197D01*
X162406387Y-60734959D01*
X162311149Y-60544483D01*
X162120673Y-60449245D01*
X161834958Y-60449245D01*
X161644482Y-60544483D01*
X160692101Y-61592102D02*
X160596863Y-61687340D01*
X160692101Y-61782578D01*
X160787339Y-61687340D01*
X160692101Y-61592102D01*
X160692101Y-61782578D01*
X160692101Y-60544483D02*
X160596863Y-60639721D01*
X160692101Y-60734959D01*
X160787339Y-60639721D01*
X160692101Y-60544483D01*
X160692101Y-60734959D01*
X158311149Y-59687340D02*
X160025435Y-62258769D01*
X156215911Y-59687340D02*
X157930196Y-62258769D01*
X154692101Y-60449245D02*
X154692101Y-62068293D01*
X154787339Y-62258769D01*
X154882577Y-62354007D01*
X155073054Y-62449245D01*
X155358768Y-62449245D01*
X155549244Y-62354007D01*
X154692101Y-61687340D02*
X154882577Y-61782578D01*
X155263530Y-61782578D01*
X155454006Y-61687340D01*
X155549244Y-61592102D01*
X155644482Y-61401626D01*
X155644482Y-60830197D01*
X155549244Y-60639721D01*
X155454006Y-60544483D01*
X155263530Y-60449245D01*
X154882577Y-60449245D01*
X154692101Y-60544483D01*
X153739720Y-61782578D02*
X153739720Y-60449245D01*
X153739720Y-59782578D02*
X153834958Y-59877817D01*
X153739720Y-59973055D01*
X153644482Y-59877817D01*
X153739720Y-59782578D01*
X153739720Y-59973055D01*
X153073054Y-60449245D02*
X152311149Y-60449245D01*
X152787339Y-59782578D02*
X152787339Y-61496864D01*
X152692101Y-61687340D01*
X152501625Y-61782578D01*
X152311149Y-61782578D01*
X151644482Y-61782578D02*
X151644482Y-59782578D01*
X150787339Y-61782578D02*
X150787339Y-60734959D01*
X150882577Y-60544483D01*
X151073054Y-60449245D01*
X151358768Y-60449245D01*
X151549244Y-60544483D01*
X151644482Y-60639721D01*
X148977816Y-60449245D02*
X148977816Y-61782578D01*
X149834958Y-60449245D02*
X149834958Y-61496864D01*
X149739720Y-61687340D01*
X149549244Y-61782578D01*
X149263530Y-61782578D01*
X149073054Y-61687340D01*
X148977816Y-61592102D01*
X148025435Y-61782578D02*
X148025435Y-59782578D01*
X148025435Y-60544483D02*
X147834958Y-60449245D01*
X147454006Y-60449245D01*
X147263530Y-60544483D01*
X147168292Y-60639721D01*
X147073054Y-60830197D01*
X147073054Y-61401626D01*
X147168292Y-61592102D01*
X147263530Y-61687340D01*
X147454006Y-61782578D01*
X147834958Y-61782578D01*
X148025435Y-61687340D01*
X146215911Y-61592102D02*
X146120673Y-61687340D01*
X146215911Y-61782578D01*
X146311149Y-61687340D01*
X146215911Y-61592102D01*
X146215911Y-61782578D01*
X144406387Y-61687340D02*
X144596863Y-61782578D01*
X144977816Y-61782578D01*
X145168292Y-61687340D01*
X145263530Y-61592102D01*
X145358768Y-61401626D01*
X145358768Y-60830197D01*
X145263530Y-60639721D01*
X145168292Y-60544483D01*
X144977816Y-60449245D01*
X144596863Y-60449245D01*
X144406387Y-60544483D01*
X143263530Y-61782578D02*
X143454006Y-61687340D01*
X143549244Y-61592102D01*
X143644482Y-61401626D01*
X143644482Y-60830197D01*
X143549244Y-60639721D01*
X143454006Y-60544483D01*
X143263530Y-60449245D01*
X142977816Y-60449245D01*
X142787339Y-60544483D01*
X142692101Y-60639721D01*
X142596863Y-60830197D01*
X142596863Y-61401626D01*
X142692101Y-61592102D01*
X142787339Y-61687340D01*
X142977816Y-61782578D01*
X143263530Y-61782578D01*
X141739720Y-61782578D02*
X141739720Y-60449245D01*
X141739720Y-60639721D02*
X141644482Y-60544483D01*
X141454006Y-60449245D01*
X141168292Y-60449245D01*
X140977816Y-60544483D01*
X140882577Y-60734959D01*
X140882577Y-61782578D01*
X140882577Y-60734959D02*
X140787339Y-60544483D01*
X140596863Y-60449245D01*
X140311149Y-60449245D01*
X140120673Y-60544483D01*
X140025435Y-60734959D01*
X140025435Y-61782578D01*
X137644482Y-59687340D02*
X139358768Y-62258769D01*
X137168292Y-60449245D02*
X136787339Y-61782578D01*
X136406387Y-60830197D01*
X136025435Y-61782578D01*
X135644482Y-60449245D01*
X134882577Y-61782578D02*
X134882577Y-60449245D01*
X134882577Y-60830197D02*
X134787339Y-60639721D01*
X134692101Y-60544483D01*
X134501625Y-60449245D01*
X134311149Y-60449245D01*
X133644482Y-61782578D02*
X133644482Y-60449245D01*
X133644482Y-59782578D02*
X133739720Y-59877817D01*
X133644482Y-59973055D01*
X133549244Y-59877817D01*
X133644482Y-59782578D01*
X133644482Y-59973055D01*
X131834958Y-61687340D02*
X132025435Y-61782578D01*
X132406387Y-61782578D01*
X132596863Y-61687340D01*
X132692101Y-61592102D01*
X132787339Y-61401626D01*
X132787339Y-60830197D01*
X132692101Y-60639721D01*
X132596863Y-60544483D01*
X132406387Y-60449245D01*
X132025435Y-60449245D01*
X131834958Y-60544483D01*
X130977816Y-61782578D02*
X130977816Y-59782578D01*
X130787339Y-61020674D02*
X130215911Y-61782578D01*
X130215911Y-60449245D02*
X130977816Y-61211150D01*
X128596863Y-61687340D02*
X128787339Y-61782578D01*
X129168292Y-61782578D01*
X129358768Y-61687340D01*
X129454006Y-61496864D01*
X129454006Y-60734959D01*
X129358768Y-60544483D01*
X129168292Y-60449245D01*
X128787339Y-60449245D01*
X128596863Y-60544483D01*
X128501625Y-60734959D01*
X128501625Y-60925436D01*
X129454006Y-61115912D01*
X127644482Y-61782578D02*
X127644482Y-60449245D01*
X127644482Y-60830197D02*
X127549244Y-60639721D01*
X127454006Y-60544483D01*
X127263530Y-60449245D01*
X127073054Y-60449245D01*
X126692101Y-60449245D02*
X125930196Y-60449245D01*
X126406387Y-59782578D02*
X126406387Y-61496864D01*
X126311149Y-61687340D01*
X126120673Y-61782578D01*
X125930196Y-61782578D01*
X123834958Y-59687340D02*
X125549244Y-62258769D01*
X123168292Y-61782578D02*
X123168292Y-59782578D01*
X122501625Y-61211150D01*
X121834958Y-59782578D01*
X121834958Y-61782578D01*
X120120673Y-61687340D02*
X120311149Y-61782578D01*
X120692101Y-61782578D01*
X120882577Y-61687340D01*
X120977816Y-61496864D01*
X120977816Y-60734959D01*
X120882577Y-60544483D01*
X120692101Y-60449245D01*
X120311149Y-60449245D01*
X120120673Y-60544483D01*
X120025435Y-60734959D01*
X120025435Y-60925436D01*
X120977816Y-61115912D01*
X118311149Y-61687340D02*
X118501625Y-61782578D01*
X118882577Y-61782578D01*
X119073054Y-61687340D01*
X119168292Y-61592102D01*
X119263530Y-61401626D01*
X119263530Y-60830197D01*
X119168292Y-60639721D01*
X119073054Y-60544483D01*
X118882577Y-60449245D01*
X118501625Y-60449245D01*
X118311149Y-60544483D01*
X117454006Y-61782578D02*
X117454006Y-59782578D01*
X116596863Y-61782578D02*
X116596863Y-60734959D01*
X116692101Y-60544483D01*
X116882577Y-60449245D01*
X117168292Y-60449245D01*
X117358768Y-60544483D01*
X117454006Y-60639721D01*
X114787339Y-61782578D02*
X114787339Y-60734959D01*
X114882577Y-60544483D01*
X115073054Y-60449245D01*
X115454006Y-60449245D01*
X115644482Y-60544483D01*
X114787339Y-61687340D02*
X114977816Y-61782578D01*
X115454006Y-61782578D01*
X115644482Y-61687340D01*
X115739720Y-61496864D01*
X115739720Y-61306388D01*
X115644482Y-61115912D01*
X115454006Y-61020674D01*
X114977816Y-61020674D01*
X114787339Y-60925436D01*
X113834958Y-60449245D02*
X113834958Y-61782578D01*
X113834958Y-60639721D02*
X113739720Y-60544483D01*
X113549244Y-60449245D01*
X113263530Y-60449245D01*
X113073054Y-60544483D01*
X112977816Y-60734959D01*
X112977816Y-61782578D01*
X112025435Y-61782578D02*
X112025435Y-60449245D01*
X112025435Y-59782578D02*
X112120673Y-59877817D01*
X112025435Y-59973055D01*
X111930196Y-59877817D01*
X112025435Y-59782578D01*
X112025435Y-59973055D01*
X110215911Y-61687340D02*
X110406387Y-61782578D01*
X110787339Y-61782578D01*
X110977816Y-61687340D01*
X111073054Y-61592102D01*
X111168292Y-61401626D01*
X111168292Y-60830197D01*
X111073054Y-60639721D01*
X110977816Y-60544483D01*
X110787339Y-60449245D01*
X110406387Y-60449245D01*
X110215911Y-60544483D01*
X108501625Y-61782578D02*
X108501625Y-60734959D01*
X108596863Y-60544483D01*
X108787339Y-60449245D01*
X109168292Y-60449245D01*
X109358768Y-60544483D01*
X108501625Y-61687340D02*
X108692101Y-61782578D01*
X109168292Y-61782578D01*
X109358768Y-61687340D01*
X109454006Y-61496864D01*
X109454006Y-61306388D01*
X109358768Y-61115912D01*
X109168292Y-61020674D01*
X108692101Y-61020674D01*
X108501625Y-60925436D01*
X107263530Y-61782578D02*
X107454006Y-61687340D01*
X107549244Y-61496864D01*
X107549244Y-59782578D01*
X106501625Y-61782578D02*
X106501625Y-59782578D01*
X105358768Y-61782578D02*
X106215911Y-60639721D01*
X105358768Y-59782578D02*
X106501625Y-60925436D01*
X103739720Y-61687340D02*
X103930196Y-61782578D01*
X104311149Y-61782578D01*
X104501625Y-61687340D01*
X104596863Y-61496864D01*
X104596863Y-60734959D01*
X104501625Y-60544483D01*
X104311149Y-60449245D01*
X103930196Y-60449245D01*
X103739720Y-60544483D01*
X103644482Y-60734959D01*
X103644482Y-60925436D01*
X104596863Y-61115912D01*
X102977816Y-60449245D02*
X102501625Y-61782578D01*
X102025435Y-60449245D02*
X102501625Y-61782578D01*
X102692101Y-62258769D01*
X102787339Y-62354007D01*
X102977816Y-62449245D01*
X101263530Y-61782578D02*
X101263530Y-59782578D01*
X101263530Y-60544483D02*
X101073054Y-60449245D01*
X100692101Y-60449245D01*
X100501625Y-60544483D01*
X100406387Y-60639721D01*
X100311149Y-60830197D01*
X100311149Y-61401626D01*
X100406387Y-61592102D01*
X100501625Y-61687340D01*
X100692101Y-61782578D01*
X101073054Y-61782578D01*
X101263530Y-61687340D01*
X99168292Y-61782578D02*
X99358768Y-61687340D01*
X99454006Y-61592102D01*
X99549244Y-61401626D01*
X99549244Y-60830197D01*
X99454006Y-60639721D01*
X99358768Y-60544483D01*
X99168292Y-60449245D01*
X98882577Y-60449245D01*
X98692101Y-60544483D01*
X98596863Y-60639721D01*
X98501625Y-60830197D01*
X98501625Y-61401626D01*
X98596863Y-61592102D01*
X98692101Y-61687340D01*
X98882577Y-61782578D01*
X99168292Y-61782578D01*
X96787339Y-61782578D02*
X96787339Y-60734959D01*
X96882577Y-60544483D01*
X97073054Y-60449245D01*
X97454006Y-60449245D01*
X97644482Y-60544483D01*
X96787339Y-61687340D02*
X96977816Y-61782578D01*
X97454006Y-61782578D01*
X97644482Y-61687340D01*
X97739720Y-61496864D01*
X97739720Y-61306388D01*
X97644482Y-61115912D01*
X97454006Y-61020674D01*
X96977816Y-61020674D01*
X96787339Y-60925436D01*
X95834958Y-61782578D02*
X95834958Y-60449245D01*
X95834958Y-60830197D02*
X95739720Y-60639721D01*
X95644482Y-60544483D01*
X95454006Y-60449245D01*
X95263530Y-60449245D01*
X93739720Y-61782578D02*
X93739720Y-59782578D01*
X93739720Y-61687340D02*
X93930196Y-61782578D01*
X94311149Y-61782578D01*
X94501625Y-61687340D01*
X94596863Y-61592102D01*
X94692101Y-61401626D01*
X94692101Y-60830197D01*
X94596863Y-60639721D01*
X94501625Y-60544483D01*
X94311149Y-60449245D01*
X93930196Y-60449245D01*
X93739720Y-60544483D01*
M02*
