<?xml version="1.0" standalone="no"?>
 <!DOCTYPE svg PUBLIC "-//W3C//DTD SVG 1.1//EN" 
 "http://www.w3.org/Graphics/SVG/1.1/DTD/svg11.dtd"> 
<svg
  xmlns:svg="http://www.w3.org/2000/svg"
  xmlns="http://www.w3.org/2000/svg"
  xmlns:xlink="http://www.w3.org/1999/xlink"
  version="1.1"
  width="16.362680cm" height="16.134080cm" viewBox="0 0 163626800 161340800">
<title>SVG Picture created as Cafebabe Frontplate-Edge_Cuts.svg date 2021/07/07 20:55:32 </title>
  <desc>Picture generated by PCBNEW </desc>
<g style="fill:#000000; fill-opacity:1.000000;stroke:#000000; stroke-opacity:1.000000;
stroke-linecap:round; stroke-linejoin:round;"
 transform="translate(0 0) scale(1 1)">
</g>
<g style="fill:#000000; fill-opacity:0.0; 
stroke:#000000; stroke-width:0.000000; stroke-opacity:1; 
stroke-linecap:round; stroke-linejoin:round;">
</g>
<g style="fill:#000000; fill-opacity:0.0; 
stroke:#000000; stroke-width:100000.000000; stroke-opacity:1; 
stroke-linecap:round; stroke-linejoin:round;">
<path d="M98150001 95349999
L98150001 81350000
" />
</g>
<g style="fill:#000000; fill-opacity:0.0; 
stroke:#000000; stroke-width:150000.000000; stroke-opacity:1; 
stroke-linecap:round; stroke-linejoin:round;">
<path d="M161196616 161004877
L60494127 161126416
" />
</g>
<g style="fill:#000000; fill-opacity:0.0; 
stroke:#000000; stroke-width:100000.000000; stroke-opacity:1; 
stroke-linecap:round; stroke-linejoin:round;">
<path d="M64750002 153550001
L78750002 153550001
" />
<path d="M78750002 95349999
L78750002 81350000
" />
<path d="M78750002 134150001
L78750002 120150001
" />
<path d="M122900000 42525001
L122900000 56525001
" />
<path d="M98150001 100749999
L84150002 100749999
" />
<path d="M156349998 75950000
L156349998 61950000
" />
<path d="M136949998 61950000
L122950000 61950000
" />
<path d="M122900000 56525001
L136899998 56525001
" />
<path d="M64750002 120150001
L64750002 134150001
" />
<path d="M78750002 61950000
L64750002 61950000
" />
<path d="M122950000 120150001
L136949998 120150001
" />
<path d="M117550000 153575001
L117550000 139575001
" />
</g>
<g style="fill:#000000; fill-opacity:0.0; 
stroke:#000000; stroke-width:150000.000000; stroke-opacity:1; 
stroke-linecap:round; stroke-linejoin:round;">
<path d="M58295123.483615 158896615.990570 A2275431.000000 2275431.000000 0.0 0 0 60494127.366830 161126415.615077" />
</g>
<g style="fill:#000000; fill-opacity:0.0; 
stroke:#000000; stroke-width:100000.000000; stroke-opacity:1; 
stroke-linecap:round; stroke-linejoin:round;">
<path d="M156299998 129750001
L142299998 129750001
" />
<path d="M78750002 120150001
L64750002 120150001
" />
<path d="M64750002 134150001
L78750002 134150001
" />
<path d="M78750002 75950000
L78750002 61950000
" />
<path d="M117550000 100749999
L103550001 100749999
" />
<path d="M98050001 139550001
L84050002 139550001
" />
</g>
<g style="fill:#000000; fill-opacity:0.0; 
stroke:#000000; stroke-width:150000.000000; stroke-opacity:1; 
stroke-linecap:round; stroke-linejoin:round;">
<path d="M161205873 38453462
L60605638 38475001
" />
</g>
<g style="fill:#000000; fill-opacity:0.0; 
stroke:#000000; stroke-width:100000.000000; stroke-opacity:1; 
stroke-linecap:round; stroke-linejoin:round;">
<path d="M78750002 100749999
L64750002 100749999
" />
<path d="M136949998 95349999
L136949998 81350000
" />
<path d="M98150001 120150001
L84150002 120150001
" />
<path d="M103550001 81350000
L103550001 95349999
" />
<path d="M117550000 81350000
L103550001 81350000
" />
<path d="M83027162 71375000
L83027162 49375001
" />
<path d="M122950000 81350000
L122950000 95349999
" />
<path d="M136949998 75950000
L136949998 61950000
" />
<path d="M98150001 134150001
L98150001 120150001
" />
<path d="M156349998 114775001
L156349998 100774999
" />
<path d="M136949998 114750001
L136949998 100749999
" />
</g>
<g style="fill:#000000; fill-opacity:0.0; 
stroke:#000000; stroke-width:150000.000000; stroke-opacity:1; 
stroke-linecap:round; stroke-linejoin:round;">
<path d="M60605638.009430 38475001.483615 A2275431.000000 2275431.000000 0.0 0 0 58375838.384923 40674005.366830" />
</g>
<g style="fill:#000000; fill-opacity:0.0; 
stroke:#000000; stroke-width:100000.000000; stroke-opacity:1; 
stroke-linecap:round; stroke-linejoin:round;">
<path d="M117550000 95349999
L117550000 81350000
" />
<path d="M142349998 56525001
L156349998 56525001
" />
</g>
<g style="fill:#000000; fill-opacity:0.0; 
stroke:#000000; stroke-width:150000.000000; stroke-opacity:1; 
stroke-linecap:round; stroke-linejoin:round;">
<path d="M163404877 40683262
L163426416 158805873
" />
</g>
<g style="fill:#000000; fill-opacity:0.0; 
stroke:#000000; stroke-width:100000.000000; stroke-opacity:1; 
stroke-linecap:round; stroke-linejoin:round;">
<path d="M136949998 153550001
L136949998 139550001
" />
<path d="M117550000 120150001
L103550001 120150001
" />
<path d="M142299998 143750001
L156299998 143750001
" />
<path d="M156349998 61950000
L142349998 61950000
" />
<path d="M122950000 95349999
L136949998 95349999
" />
<path d="M136899998 56525001
L136899998 42525001
" />
<path d="M103550001 120150001
L103550001 134150001
" />
<path d="M103550001 153575001
L117550000 153575001
" />
<path d="M117550000 134150001
L117550000 120150001
" />
<path d="M103550001 114750001
L117550000 114750001
" />
<path d="M142349998 100774999
L142349998 114775001
" />
<path d="M142349998 75950000
L156349998 75950000
" />
<path d="M142299998 129750001
L142299998 143750001
" />
<path d="M136949998 81350000
L122950000 81350000
" />
<path d="M142349998 81375000
L142349998 95374999
" />
<path d="M84150002 120150001
L84150002 134150001
" />
<path d="M64750002 56525001
L78750002 56525001
" />
<path d="M122950000 134150001
L136949998 134150001
" />
<path d="M98050001 153550001
L98050001 139550001
" />
<path d="M156349998 56525001
L156349998 42525001
" />
<path d="M84150002 134150001
L98150001 134150001
" />
<path d="M136949998 100749999
L122950000 100749999
" />
</g>
<g style="fill:#000000; fill-opacity:0.0; 
stroke:#000000; stroke-width:150000.000000; stroke-opacity:1; 
stroke-linecap:round; stroke-linejoin:round;">
<path d="M163404876.516385 40683262.009430 A2275431.000000 2275431.000000 0.0 0 0 161205872.633170 38453462.384923" />
</g>
<g style="fill:#000000; fill-opacity:0.0; 
stroke:#000000; stroke-width:100000.000000; stroke-opacity:1; 
stroke-linecap:round; stroke-linejoin:round;">
<path d="M122950000 153550001
L136949998 153550001
" />
<path d="M156349998 95374999
L156349998 81375000
" />
<path d="M136899998 42525001
L122900000 42525001
" />
<path d="M122950000 100749999
L122950000 114750001
" />
<path d="M122950000 114750001
L136949998 114750001
" />
<path d="M98150001 81350000
L84150002 81350000
" />
<path d="M64750002 81350000
L64750002 95349999
" />
</g>
<g style="fill:#000000; fill-opacity:0.0; 
stroke:#000000; stroke-width:150000.000000; stroke-opacity:1; 
stroke-linecap:round; stroke-linejoin:round;">
<path d="M161196615.990570 161004876.516385 A2275431.000000 2275431.000000 0.0 0 0 163426415.615077 158805872.633170" />
</g>
<g style="fill:#000000; fill-opacity:0.0; 
stroke:#000000; stroke-width:100000.000000; stroke-opacity:1; 
stroke-linecap:round; stroke-linejoin:round;">
<path d="M118527160 71375000
L83027162 71375000
" />
<path d="M78750002 56525001
L78750002 42525001
" />
<path d="M84150002 95349999
L98150001 95349999
" />
<path d="M118527160 49375001
L118527160 71375000
" />
<path d="M84150002 81350000
L84150002 95349999
" />
<path d="M78750002 114750001
L78750002 100749999
" />
<path d="M117550000 114750001
L117550000 100749999
" />
<path d="M64750002 100749999
L64750002 114750001
" />
<path d="M64750002 42525001
L64750002 56525001
" />
<path d="M156349998 42525001
L142349998 42525001
" />
<path d="M122950000 75950000
L136949998 75950000
" />
<path d="M64750002 75950000
L78750002 75950000
" />
<path d="M142349998 95374999
L156349998 95374999
" />
<path d="M84050002 153550001
L98050001 153550001
" />
<path d="M103550001 95349999
L117550000 95349999
" />
<path d="M64750002 95349999
L78750002 95349999
" />
<path d="M78750002 139550001
L64750002 139550001
" />
<path d="M142349998 42525001
L142349998 56525001
" />
<path d="M84150002 114750001
L98150001 114750001
" />
</g>
<g style="fill:#000000; fill-opacity:0.0; 
stroke:#000000; stroke-width:150000.000000; stroke-opacity:1; 
stroke-linecap:round; stroke-linejoin:round;">
<path d="M58295123 158896616
L58375838 40674005
" />
</g>
<g style="fill:#000000; fill-opacity:0.0; 
stroke:#000000; stroke-width:100000.000000; stroke-opacity:1; 
stroke-linecap:round; stroke-linejoin:round;">
<path d="M103550001 100749999
L103550001 114750001
" />
<path d="M122950000 139550001
L122950000 153550001
" />
<path d="M156299998 143750001
L156299998 129750001
" />
<path d="M84150002 100749999
L84150002 114750001
" />
<path d="M142349998 61950000
L142349998 75950000
" />
<path d="M156349998 81375000
L142349998 81375000
" />
<path d="M156349998 100774999
L142349998 100774999
" />
<path d="M64750002 114750001
L78750002 114750001
" />
<path d="M103550001 139575001
L103550001 153575001
" />
<path d="M78750002 81350000
L64750002 81350000
" />
<path d="M84050002 139550001
L84050002 153550001
" />
<path d="M122950000 120150001
L122950000 134150001
" />
<path d="M64750002 139550001
L64750002 153550001
" />
<path d="M136949998 134150001
L136949998 120150001
" />
<path d="M78750002 153550001
L78750002 139550001
" />
<path d="M83027162 49375001
L118527160 49375001
" />
<path d="M122950000 61950000
L122950000 75950000
" />
<path d="M142349998 114775001
L156349998 114775001
" />
<path d="M98150001 114750001
L98150001 100749999
" />
<path d="M136949998 139550001
L122950000 139550001
" />
<path d="M64750002 61950000
L64750002 75950000
" />
<path d="M78750002 42525001
L64750002 42525001
" />
<path d="M103550001 134150001
L117550000 134150001
" />
<path d="M117550000 139575001
L103550001 139575001
" />
<g >
</g>
<g >
</g>
<g >
</g>
<g >
</g>
<g >
</g>
<g >
</g>
<g >
</g>
<g >
</g>
<g >
</g>
<g >
</g>
</g> 
</svg>
