%TF.GenerationSoftware,KiCad,Pcbnew,(5.99.0-9526-g5c17ff0595)*%
%TF.CreationDate,2021-07-07T22:41:37-05:00*%
%TF.ProjectId,Cafebabe Frontplate,43616665-6261-4626-9520-46726f6e7470,rev?*%
%TF.SameCoordinates,Original*%
%TF.FileFunction,Profile,NP*%
%FSLAX46Y46*%
G04 Gerber Fmt 4.6, Leading zero omitted, Abs format (unit mm)*
G04 Created by KiCad (PCBNEW (5.99.0-9526-g5c17ff0595)) date 2021-07-07 22:41:37*
%MOMM*%
%LPD*%
G01*
G04 APERTURE LIST*
%TA.AperFunction,Profile*%
%ADD10C,0.100000*%
%TD*%
%TA.AperFunction,Profile*%
%ADD11C,0.150000*%
%TD*%
G04 APERTURE END LIST*
D10*
X97900001Y-95099999D02*
X97900001Y-81100000D01*
D11*
X160946616Y-160754877D02*
X60244127Y-160876416D01*
D10*
X64500002Y-153300001D02*
X78500002Y-153300001D01*
X78500002Y-95099999D02*
X78500002Y-81100000D01*
X78500002Y-133900001D02*
X78500002Y-119900001D01*
X122650000Y-42275001D02*
X122650000Y-56275001D01*
X97900001Y-100499999D02*
X83900002Y-100499999D01*
X156099998Y-75700000D02*
X156099998Y-61700000D01*
X136699998Y-61700000D02*
X122700000Y-61700000D01*
X122650000Y-56275001D02*
X136649998Y-56275001D01*
X64500002Y-119900001D02*
X64500002Y-133900001D01*
X78500002Y-61700000D02*
X64500002Y-61700000D01*
X122700000Y-119900001D02*
X136699998Y-119900001D01*
X117300000Y-153325001D02*
X117300000Y-139325001D01*
D11*
X60244127Y-160876416D02*
G75*
G02*
X58045123Y-158646616I75995J2274162D01*
G01*
D10*
X156049998Y-129500001D02*
X142049998Y-129500001D01*
X78500002Y-119900001D02*
X64500002Y-119900001D01*
X64500002Y-133900001D02*
X78500002Y-133900001D01*
X78500002Y-75700000D02*
X78500002Y-61700000D01*
X117300000Y-100499999D02*
X103300001Y-100499999D01*
X97800001Y-139300001D02*
X83800002Y-139300001D01*
D11*
X160955873Y-38203462D02*
X60355638Y-38225001D01*
D10*
X78500002Y-100499999D02*
X64500002Y-100499999D01*
X136699998Y-95099999D02*
X136699998Y-81100000D01*
X97900001Y-119900001D02*
X83900002Y-119900001D01*
X103300001Y-81100000D02*
X103300001Y-95099999D01*
X117300000Y-81100000D02*
X103300001Y-81100000D01*
X82777162Y-71125000D02*
X82777162Y-49125001D01*
X122700000Y-81100000D02*
X122700000Y-95099999D01*
X136699998Y-75700000D02*
X136699998Y-61700000D01*
X97900001Y-133900001D02*
X97900001Y-119900001D01*
X156099998Y-114525001D02*
X156099998Y-100524999D01*
X136699998Y-114500001D02*
X136699998Y-100499999D01*
D11*
X58125838Y-40424005D02*
G75*
G02*
X60355638Y-38225001I2274162J-75995D01*
G01*
D10*
X117300000Y-95099999D02*
X117300000Y-81100000D01*
X142099998Y-56275001D02*
X156099998Y-56275001D01*
D11*
X163154877Y-40433262D02*
X163176416Y-158555873D01*
D10*
X136699998Y-153300001D02*
X136699998Y-139300001D01*
X117300000Y-119900001D02*
X103300001Y-119900001D01*
X142049998Y-143500001D02*
X156049998Y-143500001D01*
X156099998Y-61700000D02*
X142099998Y-61700000D01*
X122700000Y-95099999D02*
X136699998Y-95099999D01*
X136649998Y-56275001D02*
X136649998Y-42275001D01*
X103300001Y-119900001D02*
X103300001Y-133900001D01*
X103300001Y-153325001D02*
X117300000Y-153325001D01*
X117300000Y-133900001D02*
X117300000Y-119900001D01*
X103300001Y-114500001D02*
X117300000Y-114500001D01*
X142099998Y-100524999D02*
X142099998Y-114525001D01*
X142099998Y-75700000D02*
X156099998Y-75700000D01*
X142049998Y-129500001D02*
X142049998Y-143500001D01*
X136699998Y-81100000D02*
X122700000Y-81100000D01*
X142099998Y-81125000D02*
X142099998Y-95124999D01*
X83900002Y-119900001D02*
X83900002Y-133900001D01*
X64500002Y-56275001D02*
X78500002Y-56275001D01*
X122700000Y-133900001D02*
X136699998Y-133900001D01*
X97800001Y-153300001D02*
X97800001Y-139300001D01*
X156099998Y-56275001D02*
X156099998Y-42275001D01*
X83900002Y-133900001D02*
X97900001Y-133900001D01*
X136699998Y-100499999D02*
X122700000Y-100499999D01*
D11*
X160955873Y-38203462D02*
G75*
G02*
X163154877Y-40433262I-75995J-2274162D01*
G01*
D10*
X122700000Y-153300001D02*
X136699998Y-153300001D01*
X156099998Y-95124999D02*
X156099998Y-81125000D01*
X136649998Y-42275001D02*
X122650000Y-42275001D01*
X122700000Y-100499999D02*
X122700000Y-114500001D01*
X122700000Y-114500001D02*
X136699998Y-114500001D01*
X97900001Y-81100000D02*
X83900002Y-81100000D01*
X64500002Y-81100000D02*
X64500002Y-95099999D01*
D11*
X163176416Y-158555873D02*
G75*
G02*
X160946616Y-160754877I-2274162J75995D01*
G01*
D10*
X118277160Y-71125000D02*
X82777162Y-71125000D01*
X78500002Y-56275001D02*
X78500002Y-42275001D01*
X83900002Y-95099999D02*
X97900001Y-95099999D01*
X118277160Y-49125001D02*
X118277160Y-71125000D01*
X83900002Y-81100000D02*
X83900002Y-95099999D01*
X78500002Y-114500001D02*
X78500002Y-100499999D01*
X117300000Y-114500001D02*
X117300000Y-100499999D01*
X64500002Y-100499999D02*
X64500002Y-114500001D01*
X64500002Y-42275001D02*
X64500002Y-56275001D01*
X156099998Y-42275001D02*
X142099998Y-42275001D01*
X122700000Y-75700000D02*
X136699998Y-75700000D01*
X64500002Y-75700000D02*
X78500002Y-75700000D01*
X142099998Y-95124999D02*
X156099998Y-95124999D01*
X83800002Y-153300001D02*
X97800001Y-153300001D01*
X103300001Y-95099999D02*
X117300000Y-95099999D01*
X64500002Y-95099999D02*
X78500002Y-95099999D01*
X78500002Y-139300001D02*
X64500002Y-139300001D01*
X142099998Y-42275001D02*
X142099998Y-56275001D01*
X83900002Y-114500001D02*
X97900001Y-114500001D01*
D11*
X58045123Y-158646616D02*
X58125838Y-40424005D01*
D10*
X103300001Y-100499999D02*
X103300001Y-114500001D01*
X122700000Y-139300001D02*
X122700000Y-153300001D01*
X156049998Y-143500001D02*
X156049998Y-129500001D01*
X83900002Y-100499999D02*
X83900002Y-114500001D01*
X142099998Y-61700000D02*
X142099998Y-75700000D01*
X156099998Y-81125000D02*
X142099998Y-81125000D01*
X156099998Y-100524999D02*
X142099998Y-100524999D01*
X64500002Y-114500001D02*
X78500002Y-114500001D01*
X103300001Y-139325001D02*
X103300001Y-153325001D01*
X78500002Y-81100000D02*
X64500002Y-81100000D01*
X83800002Y-139300001D02*
X83800002Y-153300001D01*
X122700000Y-119900001D02*
X122700000Y-133900001D01*
X64500002Y-139300001D02*
X64500002Y-153300001D01*
X136699998Y-133900001D02*
X136699998Y-119900001D01*
X78500002Y-153300001D02*
X78500002Y-139300001D01*
X82777162Y-49125001D02*
X118277160Y-49125001D01*
X122700000Y-61700000D02*
X122700000Y-75700000D01*
X142099998Y-114525001D02*
X156099998Y-114525001D01*
X97900001Y-114500001D02*
X97900001Y-100499999D01*
X136699998Y-139300001D02*
X122700000Y-139300001D01*
X64500002Y-61700000D02*
X64500002Y-75700000D01*
X78500002Y-42275001D02*
X64500002Y-42275001D01*
X103300001Y-133900001D02*
X117300000Y-133900001D01*
X117300000Y-139325001D02*
X103300001Y-139325001D01*
M02*
