%TF.GenerationSoftware,KiCad,Pcbnew,(5.99.0-9526-g5c17ff0595)*%
%TF.CreationDate,2021-07-07T22:41:37-05:00*%
%TF.ProjectId,Cafebabe Frontplate,43616665-6261-4626-9520-46726f6e7470,rev?*%
%TF.SameCoordinates,Original*%
%TF.FileFunction,Copper,L2,Bot*%
%TF.FilePolarity,Positive*%
%FSLAX46Y46*%
G04 Gerber Fmt 4.6, Leading zero omitted, Abs format (unit mm)*
G04 Created by KiCad (PCBNEW (5.99.0-9526-g5c17ff0595)) date 2021-07-07 22:41:37*
%MOMM*%
%LPD*%
G01*
G04 APERTURE LIST*
%TA.AperFunction,ViaPad*%
%ADD10C,0.600000*%
%TD*%
G04 APERTURE END LIST*
D10*
%TO.N,*%
X158600000Y-45700000D03*
X80300000Y-47700000D03*
X139600000Y-46000000D03*
%TD*%
%TA.AperFunction,NonConductor*%
G36*
X161942121Y-40020002D02*
G01*
X161988614Y-40073658D01*
X162000000Y-40126000D01*
X162000000Y-159796053D01*
X161979998Y-159864174D01*
X161949292Y-159897083D01*
X161939035Y-159904727D01*
X161931891Y-159909677D01*
X161822560Y-159979980D01*
X161754412Y-160000000D01*
X60126000Y-160000000D01*
X60057879Y-159979998D01*
X60011386Y-159926342D01*
X60000000Y-159874000D01*
X60000000Y-139369623D01*
X63991748Y-139369623D01*
X63991986Y-139370455D01*
X63992002Y-139370693D01*
X63992002Y-153327623D01*
X63992000Y-153328393D01*
X63991748Y-153369623D01*
X63994214Y-153378251D01*
X63994214Y-153378252D01*
X63999861Y-153398014D01*
X64003438Y-153414771D01*
X64005801Y-153431265D01*
X64007622Y-153443983D01*
X64011337Y-153452153D01*
X64011338Y-153452157D01*
X64018226Y-153467306D01*
X64024675Y-153484834D01*
X64029250Y-153500843D01*
X64029253Y-153500850D01*
X64031718Y-153509475D01*
X64047474Y-153534446D01*
X64055607Y-153549520D01*
X64067824Y-153576390D01*
X64082326Y-153593221D01*
X64084552Y-153595804D01*
X64095656Y-153610811D01*
X64109333Y-153632487D01*
X64121346Y-153643096D01*
X64131455Y-153652024D01*
X64143502Y-153664220D01*
X64156907Y-153679778D01*
X64156911Y-153679781D01*
X64162768Y-153686579D01*
X64170297Y-153691459D01*
X64170298Y-153691460D01*
X64184273Y-153700518D01*
X64199147Y-153711808D01*
X64218353Y-153728770D01*
X64245079Y-153741318D01*
X64260050Y-153749634D01*
X64284823Y-153765691D01*
X64293427Y-153768264D01*
X64293429Y-153768265D01*
X64309379Y-153773035D01*
X64326824Y-153779697D01*
X64341889Y-153786770D01*
X64341891Y-153786770D01*
X64350015Y-153790585D01*
X64358879Y-153791965D01*
X64358888Y-153791968D01*
X64379182Y-153795128D01*
X64395893Y-153798909D01*
X64415574Y-153804794D01*
X64415577Y-153804794D01*
X64424176Y-153807366D01*
X64433148Y-153807421D01*
X64433149Y-153807421D01*
X64457000Y-153807567D01*
X64459840Y-153807685D01*
X64461867Y-153808001D01*
X64527624Y-153808001D01*
X64528394Y-153808003D01*
X64569624Y-153808255D01*
X64570456Y-153808017D01*
X64570694Y-153808001D01*
X78527624Y-153808001D01*
X78528394Y-153808003D01*
X78569624Y-153808255D01*
X78578253Y-153805789D01*
X78598015Y-153800142D01*
X78614772Y-153796565D01*
X78635099Y-153793654D01*
X78635102Y-153793653D01*
X78643984Y-153792381D01*
X78652154Y-153788666D01*
X78652158Y-153788665D01*
X78667307Y-153781777D01*
X78684835Y-153775328D01*
X78700844Y-153770753D01*
X78700851Y-153770750D01*
X78709476Y-153768285D01*
X78734447Y-153752529D01*
X78749521Y-153744396D01*
X78776391Y-153732179D01*
X78795805Y-153715451D01*
X78810812Y-153704347D01*
X78832488Y-153690670D01*
X78852028Y-153668545D01*
X78864221Y-153656501D01*
X78879779Y-153643096D01*
X78879782Y-153643092D01*
X78886580Y-153637235D01*
X78900519Y-153615730D01*
X78911809Y-153600856D01*
X78922828Y-153588379D01*
X78928771Y-153581650D01*
X78941319Y-153554924D01*
X78949635Y-153539953D01*
X78965692Y-153515180D01*
X78968266Y-153506574D01*
X78973036Y-153490624D01*
X78979698Y-153473179D01*
X78986771Y-153458114D01*
X78986771Y-153458112D01*
X78990586Y-153449988D01*
X78991966Y-153441124D01*
X78991969Y-153441115D01*
X78995129Y-153420821D01*
X78998910Y-153404110D01*
X79004795Y-153384429D01*
X79004795Y-153384426D01*
X79007367Y-153375827D01*
X79007470Y-153359062D01*
X79007568Y-153343003D01*
X79007686Y-153340163D01*
X79008002Y-153338136D01*
X79008002Y-153272379D01*
X79008004Y-153271609D01*
X79008241Y-153232818D01*
X79008256Y-153230379D01*
X79008018Y-153229547D01*
X79008002Y-153229309D01*
X79008002Y-139369623D01*
X83291748Y-139369623D01*
X83291986Y-139370455D01*
X83292002Y-139370693D01*
X83292002Y-153327623D01*
X83292000Y-153328393D01*
X83291748Y-153369623D01*
X83294214Y-153378251D01*
X83294214Y-153378252D01*
X83299861Y-153398014D01*
X83303438Y-153414771D01*
X83305801Y-153431265D01*
X83307622Y-153443983D01*
X83311337Y-153452153D01*
X83311338Y-153452157D01*
X83318226Y-153467306D01*
X83324675Y-153484834D01*
X83329250Y-153500843D01*
X83329253Y-153500850D01*
X83331718Y-153509475D01*
X83347474Y-153534446D01*
X83355607Y-153549520D01*
X83367824Y-153576390D01*
X83382326Y-153593221D01*
X83384552Y-153595804D01*
X83395656Y-153610811D01*
X83409333Y-153632487D01*
X83421346Y-153643096D01*
X83431455Y-153652024D01*
X83443502Y-153664220D01*
X83456907Y-153679778D01*
X83456911Y-153679781D01*
X83462768Y-153686579D01*
X83470297Y-153691459D01*
X83470298Y-153691460D01*
X83484273Y-153700518D01*
X83499147Y-153711808D01*
X83518353Y-153728770D01*
X83545079Y-153741318D01*
X83560050Y-153749634D01*
X83584823Y-153765691D01*
X83593427Y-153768264D01*
X83593429Y-153768265D01*
X83609379Y-153773035D01*
X83626824Y-153779697D01*
X83641889Y-153786770D01*
X83641891Y-153786770D01*
X83650015Y-153790585D01*
X83658879Y-153791965D01*
X83658888Y-153791968D01*
X83679182Y-153795128D01*
X83695893Y-153798909D01*
X83715574Y-153804794D01*
X83715577Y-153804794D01*
X83724176Y-153807366D01*
X83733148Y-153807421D01*
X83733149Y-153807421D01*
X83757000Y-153807567D01*
X83759840Y-153807685D01*
X83761867Y-153808001D01*
X83827624Y-153808001D01*
X83828394Y-153808003D01*
X83869624Y-153808255D01*
X83870456Y-153808017D01*
X83870694Y-153808001D01*
X97827623Y-153808001D01*
X97828393Y-153808003D01*
X97869623Y-153808255D01*
X97878252Y-153805789D01*
X97898014Y-153800142D01*
X97914771Y-153796565D01*
X97935098Y-153793654D01*
X97935101Y-153793653D01*
X97943983Y-153792381D01*
X97952153Y-153788666D01*
X97952157Y-153788665D01*
X97967306Y-153781777D01*
X97984834Y-153775328D01*
X98000843Y-153770753D01*
X98000850Y-153770750D01*
X98009475Y-153768285D01*
X98034446Y-153752529D01*
X98049520Y-153744396D01*
X98076390Y-153732179D01*
X98095804Y-153715451D01*
X98110811Y-153704347D01*
X98132487Y-153690670D01*
X98152027Y-153668545D01*
X98164220Y-153656501D01*
X98179778Y-153643096D01*
X98179781Y-153643092D01*
X98186579Y-153637235D01*
X98200518Y-153615730D01*
X98211808Y-153600856D01*
X98222827Y-153588379D01*
X98228770Y-153581650D01*
X98241318Y-153554924D01*
X98249634Y-153539953D01*
X98265691Y-153515180D01*
X98268265Y-153506574D01*
X98273035Y-153490624D01*
X98279697Y-153473179D01*
X98286770Y-153458114D01*
X98286770Y-153458112D01*
X98290585Y-153449988D01*
X98291965Y-153441124D01*
X98291968Y-153441115D01*
X98295128Y-153420821D01*
X98298909Y-153404110D01*
X98304794Y-153384429D01*
X98304794Y-153384426D01*
X98307366Y-153375827D01*
X98307469Y-153359062D01*
X98307567Y-153343003D01*
X98307685Y-153340163D01*
X98308001Y-153338136D01*
X98308001Y-153272379D01*
X98308003Y-153271609D01*
X98308240Y-153232818D01*
X98308255Y-153230379D01*
X98308017Y-153229547D01*
X98308001Y-153229309D01*
X98308001Y-139394623D01*
X102791747Y-139394623D01*
X102791985Y-139395455D01*
X102792001Y-139395693D01*
X102792001Y-153352623D01*
X102791999Y-153353393D01*
X102791747Y-153394623D01*
X102794213Y-153403251D01*
X102794213Y-153403252D01*
X102799860Y-153423014D01*
X102803437Y-153439771D01*
X102804901Y-153449988D01*
X102807621Y-153468983D01*
X102811336Y-153477153D01*
X102811337Y-153477157D01*
X102818225Y-153492306D01*
X102824674Y-153509834D01*
X102829249Y-153525843D01*
X102829252Y-153525850D01*
X102831717Y-153534475D01*
X102847473Y-153559446D01*
X102855606Y-153574520D01*
X102867823Y-153601390D01*
X102880179Y-153615730D01*
X102884551Y-153620804D01*
X102895655Y-153635811D01*
X102909332Y-153657487D01*
X102921345Y-153668096D01*
X102931454Y-153677024D01*
X102943501Y-153689220D01*
X102956906Y-153704778D01*
X102956910Y-153704781D01*
X102962767Y-153711579D01*
X102970296Y-153716459D01*
X102970297Y-153716460D01*
X102984272Y-153725518D01*
X102999146Y-153736808D01*
X103018352Y-153753770D01*
X103045078Y-153766318D01*
X103060049Y-153774634D01*
X103084822Y-153790691D01*
X103093426Y-153793264D01*
X103093428Y-153793265D01*
X103109378Y-153798035D01*
X103126823Y-153804697D01*
X103141888Y-153811770D01*
X103141890Y-153811770D01*
X103150014Y-153815585D01*
X103158878Y-153816965D01*
X103158887Y-153816968D01*
X103179181Y-153820128D01*
X103195892Y-153823909D01*
X103215573Y-153829794D01*
X103215576Y-153829794D01*
X103224175Y-153832366D01*
X103233147Y-153832421D01*
X103233148Y-153832421D01*
X103256999Y-153832567D01*
X103259839Y-153832685D01*
X103261866Y-153833001D01*
X103327623Y-153833001D01*
X103328393Y-153833003D01*
X103369623Y-153833255D01*
X103370455Y-153833017D01*
X103370693Y-153833001D01*
X117327622Y-153833001D01*
X117328392Y-153833003D01*
X117369622Y-153833255D01*
X117378251Y-153830789D01*
X117398013Y-153825142D01*
X117414770Y-153821565D01*
X117435097Y-153818654D01*
X117435100Y-153818653D01*
X117443982Y-153817381D01*
X117452152Y-153813666D01*
X117452156Y-153813665D01*
X117467305Y-153806777D01*
X117484833Y-153800328D01*
X117500842Y-153795753D01*
X117500849Y-153795750D01*
X117509474Y-153793285D01*
X117534445Y-153777529D01*
X117549519Y-153769396D01*
X117576389Y-153757179D01*
X117595803Y-153740451D01*
X117610810Y-153729347D01*
X117632486Y-153715670D01*
X117652026Y-153693545D01*
X117664219Y-153681501D01*
X117679777Y-153668096D01*
X117679780Y-153668092D01*
X117686578Y-153662235D01*
X117693197Y-153652024D01*
X117700517Y-153640730D01*
X117711807Y-153625856D01*
X117722826Y-153613379D01*
X117728769Y-153606650D01*
X117741317Y-153579924D01*
X117749633Y-153564953D01*
X117765690Y-153540180D01*
X117768264Y-153531574D01*
X117773034Y-153515624D01*
X117779696Y-153498179D01*
X117786769Y-153483114D01*
X117786769Y-153483112D01*
X117790584Y-153474988D01*
X117791964Y-153466124D01*
X117791967Y-153466115D01*
X117795127Y-153445821D01*
X117798908Y-153429110D01*
X117804793Y-153409429D01*
X117804793Y-153409426D01*
X117807365Y-153400827D01*
X117807566Y-153368003D01*
X117807684Y-153365163D01*
X117808000Y-153363136D01*
X117808000Y-153297379D01*
X117808002Y-153296609D01*
X117808239Y-153257818D01*
X117808254Y-153255379D01*
X117808016Y-153254547D01*
X117808000Y-153254309D01*
X117808000Y-139369623D01*
X122191746Y-139369623D01*
X122191984Y-139370455D01*
X122192000Y-139370693D01*
X122192000Y-153327623D01*
X122191998Y-153328393D01*
X122191746Y-153369623D01*
X122194212Y-153378251D01*
X122194212Y-153378252D01*
X122199859Y-153398014D01*
X122203436Y-153414771D01*
X122205799Y-153431265D01*
X122207620Y-153443983D01*
X122211335Y-153452153D01*
X122211336Y-153452157D01*
X122218224Y-153467306D01*
X122224673Y-153484834D01*
X122229248Y-153500843D01*
X122229251Y-153500850D01*
X122231716Y-153509475D01*
X122247472Y-153534446D01*
X122255605Y-153549520D01*
X122267822Y-153576390D01*
X122282324Y-153593221D01*
X122284550Y-153595804D01*
X122295654Y-153610811D01*
X122309331Y-153632487D01*
X122321344Y-153643096D01*
X122331453Y-153652024D01*
X122343500Y-153664220D01*
X122356905Y-153679778D01*
X122356909Y-153679781D01*
X122362766Y-153686579D01*
X122370295Y-153691459D01*
X122370296Y-153691460D01*
X122384271Y-153700518D01*
X122399145Y-153711808D01*
X122418351Y-153728770D01*
X122445077Y-153741318D01*
X122460048Y-153749634D01*
X122484821Y-153765691D01*
X122493425Y-153768264D01*
X122493427Y-153768265D01*
X122509377Y-153773035D01*
X122526822Y-153779697D01*
X122541887Y-153786770D01*
X122541889Y-153786770D01*
X122550013Y-153790585D01*
X122558877Y-153791965D01*
X122558886Y-153791968D01*
X122579180Y-153795128D01*
X122595891Y-153798909D01*
X122615572Y-153804794D01*
X122615575Y-153804794D01*
X122624174Y-153807366D01*
X122633146Y-153807421D01*
X122633147Y-153807421D01*
X122656998Y-153807567D01*
X122659838Y-153807685D01*
X122661865Y-153808001D01*
X122727622Y-153808001D01*
X122728392Y-153808003D01*
X122769622Y-153808255D01*
X122770454Y-153808017D01*
X122770692Y-153808001D01*
X136727620Y-153808001D01*
X136728390Y-153808003D01*
X136769620Y-153808255D01*
X136778249Y-153805789D01*
X136798011Y-153800142D01*
X136814768Y-153796565D01*
X136835095Y-153793654D01*
X136835098Y-153793653D01*
X136843980Y-153792381D01*
X136852150Y-153788666D01*
X136852154Y-153788665D01*
X136867303Y-153781777D01*
X136884831Y-153775328D01*
X136900840Y-153770753D01*
X136900847Y-153770750D01*
X136909472Y-153768285D01*
X136934443Y-153752529D01*
X136949517Y-153744396D01*
X136976387Y-153732179D01*
X136995801Y-153715451D01*
X137010808Y-153704347D01*
X137032484Y-153690670D01*
X137052024Y-153668545D01*
X137064217Y-153656501D01*
X137079775Y-153643096D01*
X137079778Y-153643092D01*
X137086576Y-153637235D01*
X137100515Y-153615730D01*
X137111805Y-153600856D01*
X137122824Y-153588379D01*
X137128767Y-153581650D01*
X137141315Y-153554924D01*
X137149631Y-153539953D01*
X137165688Y-153515180D01*
X137168262Y-153506574D01*
X137173032Y-153490624D01*
X137179694Y-153473179D01*
X137186767Y-153458114D01*
X137186767Y-153458112D01*
X137190582Y-153449988D01*
X137191962Y-153441124D01*
X137191965Y-153441115D01*
X137195125Y-153420821D01*
X137198906Y-153404110D01*
X137204791Y-153384429D01*
X137204791Y-153384426D01*
X137207363Y-153375827D01*
X137207466Y-153359062D01*
X137207564Y-153343003D01*
X137207682Y-153340163D01*
X137207998Y-153338136D01*
X137207998Y-153272379D01*
X137208000Y-153271609D01*
X137208237Y-153232818D01*
X137208252Y-153230379D01*
X137208014Y-153229547D01*
X137207998Y-153229309D01*
X137207998Y-139272379D01*
X137208000Y-139271609D01*
X137208044Y-139264350D01*
X137208252Y-139230379D01*
X137202494Y-139210231D01*
X137200139Y-139201988D01*
X137196562Y-139185231D01*
X137193651Y-139164904D01*
X137193650Y-139164901D01*
X137192378Y-139156019D01*
X137188663Y-139147849D01*
X137188662Y-139147845D01*
X137181774Y-139132696D01*
X137175325Y-139115168D01*
X137170750Y-139099159D01*
X137170747Y-139099152D01*
X137168282Y-139090527D01*
X137152526Y-139065556D01*
X137144393Y-139050482D01*
X137132176Y-139023612D01*
X137115448Y-139004198D01*
X137104344Y-138989191D01*
X137090667Y-138967515D01*
X137068542Y-138947975D01*
X137056498Y-138935782D01*
X137043093Y-138920224D01*
X137043089Y-138920221D01*
X137037232Y-138913423D01*
X137015727Y-138899484D01*
X137000853Y-138888194D01*
X136988376Y-138877175D01*
X136981647Y-138871232D01*
X136954921Y-138858684D01*
X136939950Y-138850368D01*
X136915177Y-138834311D01*
X136906573Y-138831738D01*
X136906571Y-138831737D01*
X136890621Y-138826967D01*
X136873176Y-138820305D01*
X136858111Y-138813232D01*
X136858109Y-138813232D01*
X136849985Y-138809417D01*
X136841121Y-138808037D01*
X136841112Y-138808034D01*
X136820818Y-138804874D01*
X136804107Y-138801093D01*
X136784426Y-138795208D01*
X136784423Y-138795208D01*
X136775824Y-138792636D01*
X136766852Y-138792581D01*
X136766851Y-138792581D01*
X136743000Y-138792435D01*
X136740160Y-138792317D01*
X136738133Y-138792001D01*
X136672376Y-138792001D01*
X136671606Y-138791999D01*
X136671050Y-138791996D01*
X136630376Y-138791747D01*
X136629544Y-138791985D01*
X136629306Y-138792001D01*
X122672378Y-138792001D01*
X122671608Y-138791999D01*
X122671352Y-138791997D01*
X122630378Y-138791747D01*
X122621750Y-138794213D01*
X122621749Y-138794213D01*
X122601987Y-138799860D01*
X122585230Y-138803437D01*
X122564903Y-138806348D01*
X122564900Y-138806349D01*
X122556018Y-138807621D01*
X122547848Y-138811336D01*
X122547844Y-138811337D01*
X122532695Y-138818225D01*
X122515167Y-138824674D01*
X122499158Y-138829249D01*
X122499151Y-138829252D01*
X122490526Y-138831717D01*
X122465555Y-138847473D01*
X122450481Y-138855606D01*
X122423611Y-138867823D01*
X122409435Y-138880038D01*
X122404197Y-138884551D01*
X122389190Y-138895655D01*
X122367514Y-138909332D01*
X122349665Y-138929543D01*
X122347977Y-138931454D01*
X122335781Y-138943501D01*
X122320223Y-138956906D01*
X122320220Y-138956910D01*
X122313422Y-138962767D01*
X122308542Y-138970296D01*
X122308541Y-138970297D01*
X122299483Y-138984272D01*
X122288193Y-138999146D01*
X122271231Y-139018352D01*
X122258683Y-139045078D01*
X122250367Y-139060049D01*
X122234310Y-139084822D01*
X122231737Y-139093426D01*
X122231736Y-139093428D01*
X122226966Y-139109378D01*
X122220304Y-139126823D01*
X122209416Y-139150014D01*
X122208036Y-139158878D01*
X122208033Y-139158887D01*
X122204873Y-139179181D01*
X122201092Y-139195892D01*
X122195207Y-139215573D01*
X122192635Y-139224175D01*
X122192580Y-139233147D01*
X122192580Y-139233148D01*
X122192434Y-139256999D01*
X122192316Y-139259839D01*
X122192000Y-139261866D01*
X122192000Y-139327623D01*
X122191998Y-139328393D01*
X122191746Y-139369623D01*
X117808000Y-139369623D01*
X117808000Y-139297379D01*
X117808002Y-139296609D01*
X117808037Y-139290940D01*
X117808254Y-139255379D01*
X117801901Y-139233148D01*
X117800141Y-139226988D01*
X117796564Y-139210231D01*
X117793653Y-139189904D01*
X117793652Y-139189901D01*
X117792380Y-139181019D01*
X117788665Y-139172849D01*
X117788664Y-139172845D01*
X117781776Y-139157696D01*
X117775327Y-139140168D01*
X117770752Y-139124159D01*
X117770749Y-139124152D01*
X117768284Y-139115527D01*
X117752528Y-139090556D01*
X117744395Y-139075482D01*
X117732178Y-139048612D01*
X117715450Y-139029198D01*
X117704346Y-139014191D01*
X117690669Y-138992515D01*
X117668544Y-138972975D01*
X117656500Y-138960782D01*
X117643095Y-138945224D01*
X117643091Y-138945221D01*
X117637234Y-138938423D01*
X117626483Y-138931454D01*
X117615729Y-138924484D01*
X117600855Y-138913194D01*
X117596482Y-138909332D01*
X117581649Y-138896232D01*
X117554923Y-138883684D01*
X117539952Y-138875368D01*
X117515179Y-138859311D01*
X117506575Y-138856738D01*
X117506573Y-138856737D01*
X117490623Y-138851967D01*
X117473178Y-138845305D01*
X117458113Y-138838232D01*
X117458111Y-138838232D01*
X117449987Y-138834417D01*
X117441123Y-138833037D01*
X117441114Y-138833034D01*
X117420820Y-138829874D01*
X117404109Y-138826093D01*
X117384428Y-138820208D01*
X117384425Y-138820208D01*
X117375826Y-138817636D01*
X117366854Y-138817581D01*
X117366853Y-138817581D01*
X117343002Y-138817435D01*
X117340162Y-138817317D01*
X117338135Y-138817001D01*
X117272378Y-138817001D01*
X117271608Y-138816999D01*
X117271052Y-138816996D01*
X117230378Y-138816747D01*
X117229546Y-138816985D01*
X117229308Y-138817001D01*
X103272379Y-138817001D01*
X103271609Y-138816999D01*
X103271353Y-138816997D01*
X103230379Y-138816747D01*
X103221751Y-138819213D01*
X103221750Y-138819213D01*
X103201988Y-138824860D01*
X103185231Y-138828437D01*
X103164904Y-138831348D01*
X103164901Y-138831349D01*
X103156019Y-138832621D01*
X103147849Y-138836336D01*
X103147845Y-138836337D01*
X103132696Y-138843225D01*
X103115168Y-138849674D01*
X103099159Y-138854249D01*
X103099152Y-138854252D01*
X103090527Y-138856717D01*
X103065556Y-138872473D01*
X103050482Y-138880606D01*
X103023612Y-138892823D01*
X103010010Y-138904543D01*
X103004198Y-138909551D01*
X102989191Y-138920655D01*
X102967515Y-138934332D01*
X102961573Y-138941060D01*
X102947978Y-138956454D01*
X102935782Y-138968501D01*
X102920224Y-138981906D01*
X102920221Y-138981910D01*
X102913423Y-138987767D01*
X102908543Y-138995296D01*
X102908542Y-138995297D01*
X102899484Y-139009272D01*
X102888194Y-139024146D01*
X102871232Y-139043352D01*
X102858684Y-139070078D01*
X102850368Y-139085049D01*
X102834311Y-139109822D01*
X102831738Y-139118426D01*
X102831737Y-139118428D01*
X102826967Y-139134378D01*
X102820305Y-139151823D01*
X102813232Y-139166888D01*
X102809417Y-139175014D01*
X102808037Y-139183878D01*
X102808034Y-139183887D01*
X102804874Y-139204181D01*
X102801093Y-139220892D01*
X102795574Y-139239350D01*
X102792636Y-139249175D01*
X102792581Y-139258147D01*
X102792581Y-139258148D01*
X102792435Y-139281999D01*
X102792317Y-139284839D01*
X102792001Y-139286866D01*
X102792001Y-139352623D01*
X102791999Y-139353393D01*
X102791747Y-139394623D01*
X98308001Y-139394623D01*
X98308001Y-139272379D01*
X98308003Y-139271609D01*
X98308047Y-139264350D01*
X98308255Y-139230379D01*
X98302497Y-139210231D01*
X98300142Y-139201988D01*
X98296565Y-139185231D01*
X98293654Y-139164904D01*
X98293653Y-139164901D01*
X98292381Y-139156019D01*
X98288666Y-139147849D01*
X98288665Y-139147845D01*
X98281777Y-139132696D01*
X98275328Y-139115168D01*
X98270753Y-139099159D01*
X98270750Y-139099152D01*
X98268285Y-139090527D01*
X98252529Y-139065556D01*
X98244396Y-139050482D01*
X98232179Y-139023612D01*
X98215451Y-139004198D01*
X98204347Y-138989191D01*
X98190670Y-138967515D01*
X98168545Y-138947975D01*
X98156501Y-138935782D01*
X98143096Y-138920224D01*
X98143092Y-138920221D01*
X98137235Y-138913423D01*
X98115730Y-138899484D01*
X98100856Y-138888194D01*
X98088379Y-138877175D01*
X98081650Y-138871232D01*
X98054924Y-138858684D01*
X98039953Y-138850368D01*
X98015180Y-138834311D01*
X98006576Y-138831738D01*
X98006574Y-138831737D01*
X97990624Y-138826967D01*
X97973179Y-138820305D01*
X97958114Y-138813232D01*
X97958112Y-138813232D01*
X97949988Y-138809417D01*
X97941124Y-138808037D01*
X97941115Y-138808034D01*
X97920821Y-138804874D01*
X97904110Y-138801093D01*
X97884429Y-138795208D01*
X97884426Y-138795208D01*
X97875827Y-138792636D01*
X97866855Y-138792581D01*
X97866854Y-138792581D01*
X97843003Y-138792435D01*
X97840163Y-138792317D01*
X97838136Y-138792001D01*
X97772379Y-138792001D01*
X97771609Y-138791999D01*
X97771053Y-138791996D01*
X97730379Y-138791747D01*
X97729547Y-138791985D01*
X97729309Y-138792001D01*
X83772380Y-138792001D01*
X83771610Y-138791999D01*
X83771354Y-138791997D01*
X83730380Y-138791747D01*
X83721752Y-138794213D01*
X83721751Y-138794213D01*
X83701989Y-138799860D01*
X83685232Y-138803437D01*
X83664905Y-138806348D01*
X83664902Y-138806349D01*
X83656020Y-138807621D01*
X83647850Y-138811336D01*
X83647846Y-138811337D01*
X83632697Y-138818225D01*
X83615169Y-138824674D01*
X83599160Y-138829249D01*
X83599153Y-138829252D01*
X83590528Y-138831717D01*
X83565557Y-138847473D01*
X83550483Y-138855606D01*
X83523613Y-138867823D01*
X83509437Y-138880038D01*
X83504199Y-138884551D01*
X83489192Y-138895655D01*
X83467516Y-138909332D01*
X83449667Y-138929543D01*
X83447979Y-138931454D01*
X83435783Y-138943501D01*
X83420225Y-138956906D01*
X83420222Y-138956910D01*
X83413424Y-138962767D01*
X83408544Y-138970296D01*
X83408543Y-138970297D01*
X83399485Y-138984272D01*
X83388195Y-138999146D01*
X83371233Y-139018352D01*
X83358685Y-139045078D01*
X83350369Y-139060049D01*
X83334312Y-139084822D01*
X83331739Y-139093426D01*
X83331738Y-139093428D01*
X83326968Y-139109378D01*
X83320306Y-139126823D01*
X83309418Y-139150014D01*
X83308038Y-139158878D01*
X83308035Y-139158887D01*
X83304875Y-139179181D01*
X83301094Y-139195892D01*
X83295209Y-139215573D01*
X83292637Y-139224175D01*
X83292582Y-139233147D01*
X83292582Y-139233148D01*
X83292436Y-139256999D01*
X83292318Y-139259839D01*
X83292002Y-139261866D01*
X83292002Y-139327623D01*
X83292000Y-139328393D01*
X83291748Y-139369623D01*
X79008002Y-139369623D01*
X79008002Y-139272379D01*
X79008004Y-139271609D01*
X79008048Y-139264350D01*
X79008256Y-139230379D01*
X79002498Y-139210231D01*
X79000143Y-139201988D01*
X78996566Y-139185231D01*
X78993655Y-139164904D01*
X78993654Y-139164901D01*
X78992382Y-139156019D01*
X78988667Y-139147849D01*
X78988666Y-139147845D01*
X78981778Y-139132696D01*
X78975329Y-139115168D01*
X78970754Y-139099159D01*
X78970751Y-139099152D01*
X78968286Y-139090527D01*
X78952530Y-139065556D01*
X78944397Y-139050482D01*
X78932180Y-139023612D01*
X78915452Y-139004198D01*
X78904348Y-138989191D01*
X78890671Y-138967515D01*
X78868546Y-138947975D01*
X78856502Y-138935782D01*
X78843097Y-138920224D01*
X78843093Y-138920221D01*
X78837236Y-138913423D01*
X78815731Y-138899484D01*
X78800857Y-138888194D01*
X78788380Y-138877175D01*
X78781651Y-138871232D01*
X78754925Y-138858684D01*
X78739954Y-138850368D01*
X78715181Y-138834311D01*
X78706577Y-138831738D01*
X78706575Y-138831737D01*
X78690625Y-138826967D01*
X78673180Y-138820305D01*
X78658115Y-138813232D01*
X78658113Y-138813232D01*
X78649989Y-138809417D01*
X78641125Y-138808037D01*
X78641116Y-138808034D01*
X78620822Y-138804874D01*
X78604111Y-138801093D01*
X78584430Y-138795208D01*
X78584427Y-138795208D01*
X78575828Y-138792636D01*
X78566856Y-138792581D01*
X78566855Y-138792581D01*
X78543004Y-138792435D01*
X78540164Y-138792317D01*
X78538137Y-138792001D01*
X78472380Y-138792001D01*
X78471610Y-138791999D01*
X78471054Y-138791996D01*
X78430380Y-138791747D01*
X78429548Y-138791985D01*
X78429310Y-138792001D01*
X64472380Y-138792001D01*
X64471610Y-138791999D01*
X64471354Y-138791997D01*
X64430380Y-138791747D01*
X64421752Y-138794213D01*
X64421751Y-138794213D01*
X64401989Y-138799860D01*
X64385232Y-138803437D01*
X64364905Y-138806348D01*
X64364902Y-138806349D01*
X64356020Y-138807621D01*
X64347850Y-138811336D01*
X64347846Y-138811337D01*
X64332697Y-138818225D01*
X64315169Y-138824674D01*
X64299160Y-138829249D01*
X64299153Y-138829252D01*
X64290528Y-138831717D01*
X64265557Y-138847473D01*
X64250483Y-138855606D01*
X64223613Y-138867823D01*
X64209437Y-138880038D01*
X64204199Y-138884551D01*
X64189192Y-138895655D01*
X64167516Y-138909332D01*
X64149667Y-138929543D01*
X64147979Y-138931454D01*
X64135783Y-138943501D01*
X64120225Y-138956906D01*
X64120222Y-138956910D01*
X64113424Y-138962767D01*
X64108544Y-138970296D01*
X64108543Y-138970297D01*
X64099485Y-138984272D01*
X64088195Y-138999146D01*
X64071233Y-139018352D01*
X64058685Y-139045078D01*
X64050369Y-139060049D01*
X64034312Y-139084822D01*
X64031739Y-139093426D01*
X64031738Y-139093428D01*
X64026968Y-139109378D01*
X64020306Y-139126823D01*
X64009418Y-139150014D01*
X64008038Y-139158878D01*
X64008035Y-139158887D01*
X64004875Y-139179181D01*
X64001094Y-139195892D01*
X63995209Y-139215573D01*
X63992637Y-139224175D01*
X63992582Y-139233147D01*
X63992582Y-139233148D01*
X63992436Y-139256999D01*
X63992318Y-139259839D01*
X63992002Y-139261866D01*
X63992002Y-139327623D01*
X63992000Y-139328393D01*
X63991748Y-139369623D01*
X60000000Y-139369623D01*
X60000000Y-119969623D01*
X63991748Y-119969623D01*
X63991986Y-119970455D01*
X63992002Y-119970693D01*
X63992002Y-133927623D01*
X63992000Y-133928393D01*
X63991748Y-133969623D01*
X63994214Y-133978251D01*
X63994214Y-133978252D01*
X63999861Y-133998014D01*
X64003438Y-134014771D01*
X64004305Y-134020821D01*
X64007622Y-134043983D01*
X64011337Y-134052153D01*
X64011338Y-134052157D01*
X64018226Y-134067306D01*
X64024675Y-134084834D01*
X64029250Y-134100843D01*
X64029253Y-134100850D01*
X64031718Y-134109475D01*
X64047474Y-134134446D01*
X64055607Y-134149520D01*
X64067824Y-134176390D01*
X64084552Y-134195804D01*
X64095656Y-134210811D01*
X64109333Y-134232487D01*
X64121346Y-134243096D01*
X64131455Y-134252024D01*
X64143502Y-134264220D01*
X64156907Y-134279778D01*
X64156911Y-134279781D01*
X64162768Y-134286579D01*
X64170297Y-134291459D01*
X64170298Y-134291460D01*
X64184273Y-134300518D01*
X64199147Y-134311808D01*
X64218353Y-134328770D01*
X64245079Y-134341318D01*
X64260050Y-134349634D01*
X64284823Y-134365691D01*
X64293427Y-134368264D01*
X64293429Y-134368265D01*
X64309379Y-134373035D01*
X64326824Y-134379697D01*
X64341889Y-134386770D01*
X64341891Y-134386770D01*
X64350015Y-134390585D01*
X64358879Y-134391965D01*
X64358888Y-134391968D01*
X64379182Y-134395128D01*
X64395893Y-134398909D01*
X64415574Y-134404794D01*
X64415577Y-134404794D01*
X64424176Y-134407366D01*
X64433148Y-134407421D01*
X64433149Y-134407421D01*
X64457000Y-134407567D01*
X64459840Y-134407685D01*
X64461867Y-134408001D01*
X64527624Y-134408001D01*
X64528394Y-134408003D01*
X64569624Y-134408255D01*
X64570456Y-134408017D01*
X64570694Y-134408001D01*
X78527624Y-134408001D01*
X78528394Y-134408003D01*
X78569624Y-134408255D01*
X78578253Y-134405789D01*
X78598015Y-134400142D01*
X78614772Y-134396565D01*
X78635099Y-134393654D01*
X78635102Y-134393653D01*
X78643984Y-134392381D01*
X78652154Y-134388666D01*
X78652158Y-134388665D01*
X78667307Y-134381777D01*
X78684835Y-134375328D01*
X78700844Y-134370753D01*
X78700851Y-134370750D01*
X78709476Y-134368285D01*
X78734447Y-134352529D01*
X78749521Y-134344396D01*
X78776391Y-134332179D01*
X78795805Y-134315451D01*
X78810812Y-134304347D01*
X78832488Y-134290670D01*
X78852028Y-134268545D01*
X78864221Y-134256501D01*
X78879779Y-134243096D01*
X78879782Y-134243092D01*
X78886580Y-134237235D01*
X78900519Y-134215730D01*
X78911809Y-134200856D01*
X78922828Y-134188379D01*
X78928771Y-134181650D01*
X78941319Y-134154924D01*
X78949635Y-134139953D01*
X78965692Y-134115180D01*
X78968266Y-134106574D01*
X78973036Y-134090624D01*
X78979698Y-134073179D01*
X78986771Y-134058114D01*
X78986771Y-134058112D01*
X78990586Y-134049988D01*
X78991966Y-134041124D01*
X78991969Y-134041115D01*
X78995129Y-134020821D01*
X78998910Y-134004110D01*
X79004795Y-133984429D01*
X79004795Y-133984426D01*
X79007367Y-133975827D01*
X79007568Y-133943003D01*
X79007686Y-133940163D01*
X79008002Y-133938136D01*
X79008002Y-133872379D01*
X79008004Y-133871609D01*
X79008241Y-133832818D01*
X79008256Y-133830379D01*
X79008018Y-133829547D01*
X79008002Y-133829309D01*
X79008002Y-119969623D01*
X83391748Y-119969623D01*
X83391986Y-119970455D01*
X83392002Y-119970693D01*
X83392002Y-133927623D01*
X83392000Y-133928393D01*
X83391748Y-133969623D01*
X83394214Y-133978251D01*
X83394214Y-133978252D01*
X83399861Y-133998014D01*
X83403438Y-134014771D01*
X83404305Y-134020821D01*
X83407622Y-134043983D01*
X83411337Y-134052153D01*
X83411338Y-134052157D01*
X83418226Y-134067306D01*
X83424675Y-134084834D01*
X83429250Y-134100843D01*
X83429253Y-134100850D01*
X83431718Y-134109475D01*
X83447474Y-134134446D01*
X83455607Y-134149520D01*
X83467824Y-134176390D01*
X83484552Y-134195804D01*
X83495656Y-134210811D01*
X83509333Y-134232487D01*
X83521346Y-134243096D01*
X83531455Y-134252024D01*
X83543502Y-134264220D01*
X83556907Y-134279778D01*
X83556911Y-134279781D01*
X83562768Y-134286579D01*
X83570297Y-134291459D01*
X83570298Y-134291460D01*
X83584273Y-134300518D01*
X83599147Y-134311808D01*
X83618353Y-134328770D01*
X83645079Y-134341318D01*
X83660050Y-134349634D01*
X83684823Y-134365691D01*
X83693427Y-134368264D01*
X83693429Y-134368265D01*
X83709379Y-134373035D01*
X83726824Y-134379697D01*
X83741889Y-134386770D01*
X83741891Y-134386770D01*
X83750015Y-134390585D01*
X83758879Y-134391965D01*
X83758888Y-134391968D01*
X83779182Y-134395128D01*
X83795893Y-134398909D01*
X83815574Y-134404794D01*
X83815577Y-134404794D01*
X83824176Y-134407366D01*
X83833148Y-134407421D01*
X83833149Y-134407421D01*
X83857000Y-134407567D01*
X83859840Y-134407685D01*
X83861867Y-134408001D01*
X83927624Y-134408001D01*
X83928394Y-134408003D01*
X83969624Y-134408255D01*
X83970456Y-134408017D01*
X83970694Y-134408001D01*
X97927623Y-134408001D01*
X97928393Y-134408003D01*
X97969623Y-134408255D01*
X97978252Y-134405789D01*
X97998014Y-134400142D01*
X98014771Y-134396565D01*
X98035098Y-134393654D01*
X98035101Y-134393653D01*
X98043983Y-134392381D01*
X98052153Y-134388666D01*
X98052157Y-134388665D01*
X98067306Y-134381777D01*
X98084834Y-134375328D01*
X98100843Y-134370753D01*
X98100850Y-134370750D01*
X98109475Y-134368285D01*
X98134446Y-134352529D01*
X98149520Y-134344396D01*
X98176390Y-134332179D01*
X98195804Y-134315451D01*
X98210811Y-134304347D01*
X98232487Y-134290670D01*
X98252027Y-134268545D01*
X98264220Y-134256501D01*
X98279778Y-134243096D01*
X98279781Y-134243092D01*
X98286579Y-134237235D01*
X98300518Y-134215730D01*
X98311808Y-134200856D01*
X98322827Y-134188379D01*
X98328770Y-134181650D01*
X98341318Y-134154924D01*
X98349634Y-134139953D01*
X98365691Y-134115180D01*
X98368265Y-134106574D01*
X98373035Y-134090624D01*
X98379697Y-134073179D01*
X98386770Y-134058114D01*
X98386770Y-134058112D01*
X98390585Y-134049988D01*
X98391965Y-134041124D01*
X98391968Y-134041115D01*
X98395128Y-134020821D01*
X98398909Y-134004110D01*
X98404794Y-133984429D01*
X98404794Y-133984426D01*
X98407366Y-133975827D01*
X98407567Y-133943003D01*
X98407685Y-133940163D01*
X98408001Y-133938136D01*
X98408001Y-133872379D01*
X98408003Y-133871609D01*
X98408240Y-133832818D01*
X98408255Y-133830379D01*
X98408017Y-133829547D01*
X98408001Y-133829309D01*
X98408001Y-119969623D01*
X102791747Y-119969623D01*
X102791985Y-119970455D01*
X102792001Y-119970693D01*
X102792001Y-133927623D01*
X102791999Y-133928393D01*
X102791747Y-133969623D01*
X102794213Y-133978251D01*
X102794213Y-133978252D01*
X102799860Y-133998014D01*
X102803437Y-134014771D01*
X102804304Y-134020821D01*
X102807621Y-134043983D01*
X102811336Y-134052153D01*
X102811337Y-134052157D01*
X102818225Y-134067306D01*
X102824674Y-134084834D01*
X102829249Y-134100843D01*
X102829252Y-134100850D01*
X102831717Y-134109475D01*
X102847473Y-134134446D01*
X102855606Y-134149520D01*
X102867823Y-134176390D01*
X102884551Y-134195804D01*
X102895655Y-134210811D01*
X102909332Y-134232487D01*
X102921345Y-134243096D01*
X102931454Y-134252024D01*
X102943501Y-134264220D01*
X102956906Y-134279778D01*
X102956910Y-134279781D01*
X102962767Y-134286579D01*
X102970296Y-134291459D01*
X102970297Y-134291460D01*
X102984272Y-134300518D01*
X102999146Y-134311808D01*
X103018352Y-134328770D01*
X103045078Y-134341318D01*
X103060049Y-134349634D01*
X103084822Y-134365691D01*
X103093426Y-134368264D01*
X103093428Y-134368265D01*
X103109378Y-134373035D01*
X103126823Y-134379697D01*
X103141888Y-134386770D01*
X103141890Y-134386770D01*
X103150014Y-134390585D01*
X103158878Y-134391965D01*
X103158887Y-134391968D01*
X103179181Y-134395128D01*
X103195892Y-134398909D01*
X103215573Y-134404794D01*
X103215576Y-134404794D01*
X103224175Y-134407366D01*
X103233147Y-134407421D01*
X103233148Y-134407421D01*
X103256999Y-134407567D01*
X103259839Y-134407685D01*
X103261866Y-134408001D01*
X103327623Y-134408001D01*
X103328393Y-134408003D01*
X103369623Y-134408255D01*
X103370455Y-134408017D01*
X103370693Y-134408001D01*
X117327622Y-134408001D01*
X117328392Y-134408003D01*
X117369622Y-134408255D01*
X117378251Y-134405789D01*
X117398013Y-134400142D01*
X117414770Y-134396565D01*
X117435097Y-134393654D01*
X117435100Y-134393653D01*
X117443982Y-134392381D01*
X117452152Y-134388666D01*
X117452156Y-134388665D01*
X117467305Y-134381777D01*
X117484833Y-134375328D01*
X117500842Y-134370753D01*
X117500849Y-134370750D01*
X117509474Y-134368285D01*
X117534445Y-134352529D01*
X117549519Y-134344396D01*
X117576389Y-134332179D01*
X117595803Y-134315451D01*
X117610810Y-134304347D01*
X117632486Y-134290670D01*
X117652026Y-134268545D01*
X117664219Y-134256501D01*
X117679777Y-134243096D01*
X117679780Y-134243092D01*
X117686578Y-134237235D01*
X117700517Y-134215730D01*
X117711807Y-134200856D01*
X117722826Y-134188379D01*
X117728769Y-134181650D01*
X117741317Y-134154924D01*
X117749633Y-134139953D01*
X117765690Y-134115180D01*
X117768264Y-134106574D01*
X117773034Y-134090624D01*
X117779696Y-134073179D01*
X117786769Y-134058114D01*
X117786769Y-134058112D01*
X117790584Y-134049988D01*
X117791964Y-134041124D01*
X117791967Y-134041115D01*
X117795127Y-134020821D01*
X117798908Y-134004110D01*
X117804793Y-133984429D01*
X117804793Y-133984426D01*
X117807365Y-133975827D01*
X117807566Y-133943003D01*
X117807684Y-133940163D01*
X117808000Y-133938136D01*
X117808000Y-133872379D01*
X117808002Y-133871609D01*
X117808239Y-133832818D01*
X117808254Y-133830379D01*
X117808016Y-133829547D01*
X117808000Y-133829309D01*
X117808000Y-119969623D01*
X122191746Y-119969623D01*
X122191984Y-119970455D01*
X122192000Y-119970693D01*
X122192000Y-133927623D01*
X122191998Y-133928393D01*
X122191746Y-133969623D01*
X122194212Y-133978251D01*
X122194212Y-133978252D01*
X122199859Y-133998014D01*
X122203436Y-134014771D01*
X122204303Y-134020821D01*
X122207620Y-134043983D01*
X122211335Y-134052153D01*
X122211336Y-134052157D01*
X122218224Y-134067306D01*
X122224673Y-134084834D01*
X122229248Y-134100843D01*
X122229251Y-134100850D01*
X122231716Y-134109475D01*
X122247472Y-134134446D01*
X122255605Y-134149520D01*
X122267822Y-134176390D01*
X122284550Y-134195804D01*
X122295654Y-134210811D01*
X122309331Y-134232487D01*
X122321344Y-134243096D01*
X122331453Y-134252024D01*
X122343500Y-134264220D01*
X122356905Y-134279778D01*
X122356909Y-134279781D01*
X122362766Y-134286579D01*
X122370295Y-134291459D01*
X122370296Y-134291460D01*
X122384271Y-134300518D01*
X122399145Y-134311808D01*
X122418351Y-134328770D01*
X122445077Y-134341318D01*
X122460048Y-134349634D01*
X122484821Y-134365691D01*
X122493425Y-134368264D01*
X122493427Y-134368265D01*
X122509377Y-134373035D01*
X122526822Y-134379697D01*
X122541887Y-134386770D01*
X122541889Y-134386770D01*
X122550013Y-134390585D01*
X122558877Y-134391965D01*
X122558886Y-134391968D01*
X122579180Y-134395128D01*
X122595891Y-134398909D01*
X122615572Y-134404794D01*
X122615575Y-134404794D01*
X122624174Y-134407366D01*
X122633146Y-134407421D01*
X122633147Y-134407421D01*
X122656998Y-134407567D01*
X122659838Y-134407685D01*
X122661865Y-134408001D01*
X122727622Y-134408001D01*
X122728392Y-134408003D01*
X122769622Y-134408255D01*
X122770454Y-134408017D01*
X122770692Y-134408001D01*
X136727620Y-134408001D01*
X136728390Y-134408003D01*
X136769620Y-134408255D01*
X136778249Y-134405789D01*
X136798011Y-134400142D01*
X136814768Y-134396565D01*
X136835095Y-134393654D01*
X136835098Y-134393653D01*
X136843980Y-134392381D01*
X136852150Y-134388666D01*
X136852154Y-134388665D01*
X136867303Y-134381777D01*
X136884831Y-134375328D01*
X136900840Y-134370753D01*
X136900847Y-134370750D01*
X136909472Y-134368285D01*
X136934443Y-134352529D01*
X136949517Y-134344396D01*
X136976387Y-134332179D01*
X136995801Y-134315451D01*
X137010808Y-134304347D01*
X137032484Y-134290670D01*
X137052024Y-134268545D01*
X137064217Y-134256501D01*
X137079775Y-134243096D01*
X137079778Y-134243092D01*
X137086576Y-134237235D01*
X137100515Y-134215730D01*
X137111805Y-134200856D01*
X137122824Y-134188379D01*
X137128767Y-134181650D01*
X137141315Y-134154924D01*
X137149631Y-134139953D01*
X137165688Y-134115180D01*
X137168262Y-134106574D01*
X137173032Y-134090624D01*
X137179694Y-134073179D01*
X137186767Y-134058114D01*
X137186767Y-134058112D01*
X137190582Y-134049988D01*
X137191962Y-134041124D01*
X137191965Y-134041115D01*
X137195125Y-134020821D01*
X137198906Y-134004110D01*
X137204791Y-133984429D01*
X137204791Y-133984426D01*
X137207363Y-133975827D01*
X137207564Y-133943003D01*
X137207682Y-133940163D01*
X137207998Y-133938136D01*
X137207998Y-133872379D01*
X137208000Y-133871609D01*
X137208237Y-133832818D01*
X137208252Y-133830379D01*
X137208014Y-133829547D01*
X137207998Y-133829309D01*
X137207998Y-129569623D01*
X141541744Y-129569623D01*
X141541982Y-129570455D01*
X141541998Y-129570693D01*
X141541998Y-143527623D01*
X141541996Y-143528393D01*
X141541744Y-143569623D01*
X141544210Y-143578251D01*
X141544210Y-143578252D01*
X141549857Y-143598014D01*
X141553434Y-143614771D01*
X141554301Y-143620821D01*
X141557618Y-143643983D01*
X141561333Y-143652153D01*
X141561334Y-143652157D01*
X141568222Y-143667306D01*
X141574671Y-143684834D01*
X141579246Y-143700843D01*
X141579249Y-143700850D01*
X141581714Y-143709475D01*
X141597470Y-143734446D01*
X141605603Y-143749520D01*
X141617820Y-143776390D01*
X141634548Y-143795804D01*
X141645652Y-143810811D01*
X141659329Y-143832487D01*
X141671342Y-143843096D01*
X141681451Y-143852024D01*
X141693498Y-143864220D01*
X141706903Y-143879778D01*
X141706907Y-143879781D01*
X141712764Y-143886579D01*
X141720293Y-143891459D01*
X141720294Y-143891460D01*
X141734269Y-143900518D01*
X141749143Y-143911808D01*
X141768349Y-143928770D01*
X141795075Y-143941318D01*
X141810046Y-143949634D01*
X141834819Y-143965691D01*
X141843423Y-143968264D01*
X141843425Y-143968265D01*
X141859375Y-143973035D01*
X141876820Y-143979697D01*
X141891885Y-143986770D01*
X141891887Y-143986770D01*
X141900011Y-143990585D01*
X141908875Y-143991965D01*
X141908884Y-143991968D01*
X141929178Y-143995128D01*
X141945889Y-143998909D01*
X141965570Y-144004794D01*
X141965573Y-144004794D01*
X141974172Y-144007366D01*
X141983144Y-144007421D01*
X141983145Y-144007421D01*
X142006996Y-144007567D01*
X142009836Y-144007685D01*
X142011863Y-144008001D01*
X142077620Y-144008001D01*
X142078390Y-144008003D01*
X142119620Y-144008255D01*
X142120452Y-144008017D01*
X142120690Y-144008001D01*
X156077620Y-144008001D01*
X156078390Y-144008003D01*
X156119620Y-144008255D01*
X156128249Y-144005789D01*
X156148011Y-144000142D01*
X156164768Y-143996565D01*
X156185095Y-143993654D01*
X156185098Y-143993653D01*
X156193980Y-143992381D01*
X156202150Y-143988666D01*
X156202154Y-143988665D01*
X156217303Y-143981777D01*
X156234831Y-143975328D01*
X156250840Y-143970753D01*
X156250847Y-143970750D01*
X156259472Y-143968285D01*
X156284443Y-143952529D01*
X156299517Y-143944396D01*
X156326387Y-143932179D01*
X156345801Y-143915451D01*
X156360808Y-143904347D01*
X156382484Y-143890670D01*
X156402024Y-143868545D01*
X156414217Y-143856501D01*
X156429775Y-143843096D01*
X156429778Y-143843092D01*
X156436576Y-143837235D01*
X156450515Y-143815730D01*
X156461805Y-143800856D01*
X156472824Y-143788379D01*
X156478767Y-143781650D01*
X156491315Y-143754924D01*
X156499631Y-143739953D01*
X156515688Y-143715180D01*
X156518262Y-143706574D01*
X156523032Y-143690624D01*
X156529694Y-143673179D01*
X156536767Y-143658114D01*
X156536767Y-143658112D01*
X156540582Y-143649988D01*
X156541962Y-143641124D01*
X156541965Y-143641115D01*
X156545125Y-143620821D01*
X156548906Y-143604110D01*
X156554791Y-143584429D01*
X156554791Y-143584426D01*
X156557363Y-143575827D01*
X156557564Y-143543003D01*
X156557682Y-143540163D01*
X156557998Y-143538136D01*
X156557998Y-143472379D01*
X156558000Y-143471609D01*
X156558237Y-143432818D01*
X156558252Y-143430379D01*
X156558014Y-143429547D01*
X156557998Y-143429309D01*
X156557998Y-129472379D01*
X156558000Y-129471609D01*
X156558035Y-129465940D01*
X156558252Y-129430379D01*
X156554021Y-129415573D01*
X156550139Y-129401988D01*
X156546562Y-129385231D01*
X156543651Y-129364904D01*
X156543650Y-129364901D01*
X156542378Y-129356019D01*
X156538663Y-129347849D01*
X156538662Y-129347845D01*
X156531774Y-129332696D01*
X156525325Y-129315168D01*
X156520750Y-129299159D01*
X156520747Y-129299152D01*
X156518282Y-129290527D01*
X156502526Y-129265556D01*
X156494393Y-129250482D01*
X156482176Y-129223612D01*
X156465448Y-129204198D01*
X156454344Y-129189191D01*
X156440667Y-129167515D01*
X156418542Y-129147975D01*
X156406498Y-129135782D01*
X156393093Y-129120224D01*
X156393089Y-129120221D01*
X156387232Y-129113423D01*
X156365727Y-129099484D01*
X156350853Y-129088194D01*
X156338376Y-129077175D01*
X156331647Y-129071232D01*
X156304921Y-129058684D01*
X156289950Y-129050368D01*
X156265177Y-129034311D01*
X156256573Y-129031738D01*
X156256571Y-129031737D01*
X156240621Y-129026967D01*
X156223176Y-129020305D01*
X156208111Y-129013232D01*
X156208109Y-129013232D01*
X156199985Y-129009417D01*
X156191121Y-129008037D01*
X156191112Y-129008034D01*
X156170818Y-129004874D01*
X156154107Y-129001093D01*
X156134426Y-128995208D01*
X156134423Y-128995208D01*
X156125824Y-128992636D01*
X156116852Y-128992581D01*
X156116851Y-128992581D01*
X156093000Y-128992435D01*
X156090160Y-128992317D01*
X156088133Y-128992001D01*
X156022376Y-128992001D01*
X156021606Y-128991999D01*
X156021050Y-128991996D01*
X155980376Y-128991747D01*
X155979544Y-128991985D01*
X155979306Y-128992001D01*
X142022376Y-128992001D01*
X142021606Y-128991999D01*
X142021350Y-128991997D01*
X141980376Y-128991747D01*
X141971748Y-128994213D01*
X141971747Y-128994213D01*
X141951985Y-128999860D01*
X141935228Y-129003437D01*
X141914901Y-129006348D01*
X141914898Y-129006349D01*
X141906016Y-129007621D01*
X141897846Y-129011336D01*
X141897842Y-129011337D01*
X141882693Y-129018225D01*
X141865165Y-129024674D01*
X141849156Y-129029249D01*
X141849149Y-129029252D01*
X141840524Y-129031717D01*
X141815553Y-129047473D01*
X141800479Y-129055606D01*
X141773609Y-129067823D01*
X141754195Y-129084551D01*
X141739188Y-129095655D01*
X141717512Y-129109332D01*
X141711570Y-129116060D01*
X141697975Y-129131454D01*
X141685779Y-129143501D01*
X141670221Y-129156906D01*
X141670218Y-129156910D01*
X141663420Y-129162767D01*
X141658540Y-129170296D01*
X141658539Y-129170297D01*
X141649481Y-129184272D01*
X141638191Y-129199146D01*
X141621229Y-129218352D01*
X141608681Y-129245078D01*
X141600365Y-129260049D01*
X141584308Y-129284822D01*
X141581735Y-129293426D01*
X141581734Y-129293428D01*
X141576964Y-129309378D01*
X141570302Y-129326823D01*
X141559414Y-129350014D01*
X141558034Y-129358878D01*
X141558031Y-129358887D01*
X141554871Y-129379181D01*
X141551090Y-129395892D01*
X141545205Y-129415573D01*
X141542633Y-129424175D01*
X141542578Y-129433147D01*
X141542578Y-129433148D01*
X141542432Y-129456999D01*
X141542314Y-129459839D01*
X141541998Y-129461866D01*
X141541998Y-129527623D01*
X141541996Y-129528393D01*
X141541744Y-129569623D01*
X137207998Y-129569623D01*
X137207998Y-119872379D01*
X137208000Y-119871609D01*
X137208035Y-119865940D01*
X137208252Y-119830379D01*
X137204021Y-119815573D01*
X137200139Y-119801988D01*
X137196562Y-119785231D01*
X137193651Y-119764904D01*
X137193650Y-119764901D01*
X137192378Y-119756019D01*
X137188663Y-119747849D01*
X137188662Y-119747845D01*
X137181774Y-119732696D01*
X137175325Y-119715168D01*
X137170750Y-119699159D01*
X137170747Y-119699152D01*
X137168282Y-119690527D01*
X137152526Y-119665556D01*
X137144393Y-119650482D01*
X137132176Y-119623612D01*
X137115448Y-119604198D01*
X137104344Y-119589191D01*
X137090667Y-119567515D01*
X137068542Y-119547975D01*
X137056498Y-119535782D01*
X137043093Y-119520224D01*
X137043089Y-119520221D01*
X137037232Y-119513423D01*
X137015727Y-119499484D01*
X137000853Y-119488194D01*
X136988376Y-119477175D01*
X136981647Y-119471232D01*
X136954921Y-119458684D01*
X136939950Y-119450368D01*
X136915177Y-119434311D01*
X136906573Y-119431738D01*
X136906571Y-119431737D01*
X136890621Y-119426967D01*
X136873176Y-119420305D01*
X136858111Y-119413232D01*
X136858109Y-119413232D01*
X136849985Y-119409417D01*
X136841121Y-119408037D01*
X136841112Y-119408034D01*
X136820818Y-119404874D01*
X136804107Y-119401093D01*
X136784426Y-119395208D01*
X136784423Y-119395208D01*
X136775824Y-119392636D01*
X136766852Y-119392581D01*
X136766851Y-119392581D01*
X136743000Y-119392435D01*
X136740160Y-119392317D01*
X136738133Y-119392001D01*
X136672376Y-119392001D01*
X136671606Y-119391999D01*
X136671050Y-119391996D01*
X136630376Y-119391747D01*
X136629544Y-119391985D01*
X136629306Y-119392001D01*
X122672378Y-119392001D01*
X122671608Y-119391999D01*
X122671352Y-119391997D01*
X122630378Y-119391747D01*
X122621750Y-119394213D01*
X122621749Y-119394213D01*
X122601987Y-119399860D01*
X122585230Y-119403437D01*
X122564903Y-119406348D01*
X122564900Y-119406349D01*
X122556018Y-119407621D01*
X122547848Y-119411336D01*
X122547844Y-119411337D01*
X122532695Y-119418225D01*
X122515167Y-119424674D01*
X122499158Y-119429249D01*
X122499151Y-119429252D01*
X122490526Y-119431717D01*
X122465555Y-119447473D01*
X122450481Y-119455606D01*
X122423611Y-119467823D01*
X122404197Y-119484551D01*
X122389190Y-119495655D01*
X122367514Y-119509332D01*
X122361572Y-119516060D01*
X122347977Y-119531454D01*
X122335781Y-119543501D01*
X122320223Y-119556906D01*
X122320220Y-119556910D01*
X122313422Y-119562767D01*
X122308542Y-119570296D01*
X122308541Y-119570297D01*
X122299483Y-119584272D01*
X122288193Y-119599146D01*
X122271231Y-119618352D01*
X122258683Y-119645078D01*
X122250367Y-119660049D01*
X122234310Y-119684822D01*
X122231737Y-119693426D01*
X122231736Y-119693428D01*
X122226966Y-119709378D01*
X122220304Y-119726823D01*
X122209416Y-119750014D01*
X122208036Y-119758878D01*
X122208033Y-119758887D01*
X122204873Y-119779181D01*
X122201092Y-119795892D01*
X122195207Y-119815573D01*
X122192635Y-119824175D01*
X122192580Y-119833147D01*
X122192580Y-119833148D01*
X122192434Y-119856999D01*
X122192316Y-119859839D01*
X122192000Y-119861866D01*
X122192000Y-119927623D01*
X122191998Y-119928393D01*
X122191746Y-119969623D01*
X117808000Y-119969623D01*
X117808000Y-119872379D01*
X117808002Y-119871609D01*
X117808037Y-119865940D01*
X117808254Y-119830379D01*
X117804023Y-119815573D01*
X117800141Y-119801988D01*
X117796564Y-119785231D01*
X117793653Y-119764904D01*
X117793652Y-119764901D01*
X117792380Y-119756019D01*
X117788665Y-119747849D01*
X117788664Y-119747845D01*
X117781776Y-119732696D01*
X117775327Y-119715168D01*
X117770752Y-119699159D01*
X117770749Y-119699152D01*
X117768284Y-119690527D01*
X117752528Y-119665556D01*
X117744395Y-119650482D01*
X117732178Y-119623612D01*
X117715450Y-119604198D01*
X117704346Y-119589191D01*
X117690669Y-119567515D01*
X117668544Y-119547975D01*
X117656500Y-119535782D01*
X117643095Y-119520224D01*
X117643091Y-119520221D01*
X117637234Y-119513423D01*
X117615729Y-119499484D01*
X117600855Y-119488194D01*
X117588378Y-119477175D01*
X117581649Y-119471232D01*
X117554923Y-119458684D01*
X117539952Y-119450368D01*
X117515179Y-119434311D01*
X117506575Y-119431738D01*
X117506573Y-119431737D01*
X117490623Y-119426967D01*
X117473178Y-119420305D01*
X117458113Y-119413232D01*
X117458111Y-119413232D01*
X117449987Y-119409417D01*
X117441123Y-119408037D01*
X117441114Y-119408034D01*
X117420820Y-119404874D01*
X117404109Y-119401093D01*
X117384428Y-119395208D01*
X117384425Y-119395208D01*
X117375826Y-119392636D01*
X117366854Y-119392581D01*
X117366853Y-119392581D01*
X117343002Y-119392435D01*
X117340162Y-119392317D01*
X117338135Y-119392001D01*
X117272378Y-119392001D01*
X117271608Y-119391999D01*
X117271052Y-119391996D01*
X117230378Y-119391747D01*
X117229546Y-119391985D01*
X117229308Y-119392001D01*
X103272379Y-119392001D01*
X103271609Y-119391999D01*
X103271353Y-119391997D01*
X103230379Y-119391747D01*
X103221751Y-119394213D01*
X103221750Y-119394213D01*
X103201988Y-119399860D01*
X103185231Y-119403437D01*
X103164904Y-119406348D01*
X103164901Y-119406349D01*
X103156019Y-119407621D01*
X103147849Y-119411336D01*
X103147845Y-119411337D01*
X103132696Y-119418225D01*
X103115168Y-119424674D01*
X103099159Y-119429249D01*
X103099152Y-119429252D01*
X103090527Y-119431717D01*
X103065556Y-119447473D01*
X103050482Y-119455606D01*
X103023612Y-119467823D01*
X103004198Y-119484551D01*
X102989191Y-119495655D01*
X102967515Y-119509332D01*
X102961573Y-119516060D01*
X102947978Y-119531454D01*
X102935782Y-119543501D01*
X102920224Y-119556906D01*
X102920221Y-119556910D01*
X102913423Y-119562767D01*
X102908543Y-119570296D01*
X102908542Y-119570297D01*
X102899484Y-119584272D01*
X102888194Y-119599146D01*
X102871232Y-119618352D01*
X102858684Y-119645078D01*
X102850368Y-119660049D01*
X102834311Y-119684822D01*
X102831738Y-119693426D01*
X102831737Y-119693428D01*
X102826967Y-119709378D01*
X102820305Y-119726823D01*
X102809417Y-119750014D01*
X102808037Y-119758878D01*
X102808034Y-119758887D01*
X102804874Y-119779181D01*
X102801093Y-119795892D01*
X102795208Y-119815573D01*
X102792636Y-119824175D01*
X102792581Y-119833147D01*
X102792581Y-119833148D01*
X102792435Y-119856999D01*
X102792317Y-119859839D01*
X102792001Y-119861866D01*
X102792001Y-119927623D01*
X102791999Y-119928393D01*
X102791747Y-119969623D01*
X98408001Y-119969623D01*
X98408001Y-119872379D01*
X98408003Y-119871609D01*
X98408038Y-119865940D01*
X98408255Y-119830379D01*
X98404024Y-119815573D01*
X98400142Y-119801988D01*
X98396565Y-119785231D01*
X98393654Y-119764904D01*
X98393653Y-119764901D01*
X98392381Y-119756019D01*
X98388666Y-119747849D01*
X98388665Y-119747845D01*
X98381777Y-119732696D01*
X98375328Y-119715168D01*
X98370753Y-119699159D01*
X98370750Y-119699152D01*
X98368285Y-119690527D01*
X98352529Y-119665556D01*
X98344396Y-119650482D01*
X98332179Y-119623612D01*
X98315451Y-119604198D01*
X98304347Y-119589191D01*
X98290670Y-119567515D01*
X98268545Y-119547975D01*
X98256501Y-119535782D01*
X98243096Y-119520224D01*
X98243092Y-119520221D01*
X98237235Y-119513423D01*
X98215730Y-119499484D01*
X98200856Y-119488194D01*
X98188379Y-119477175D01*
X98181650Y-119471232D01*
X98154924Y-119458684D01*
X98139953Y-119450368D01*
X98115180Y-119434311D01*
X98106576Y-119431738D01*
X98106574Y-119431737D01*
X98090624Y-119426967D01*
X98073179Y-119420305D01*
X98058114Y-119413232D01*
X98058112Y-119413232D01*
X98049988Y-119409417D01*
X98041124Y-119408037D01*
X98041115Y-119408034D01*
X98020821Y-119404874D01*
X98004110Y-119401093D01*
X97984429Y-119395208D01*
X97984426Y-119395208D01*
X97975827Y-119392636D01*
X97966855Y-119392581D01*
X97966854Y-119392581D01*
X97943003Y-119392435D01*
X97940163Y-119392317D01*
X97938136Y-119392001D01*
X97872379Y-119392001D01*
X97871609Y-119391999D01*
X97871053Y-119391996D01*
X97830379Y-119391747D01*
X97829547Y-119391985D01*
X97829309Y-119392001D01*
X83872380Y-119392001D01*
X83871610Y-119391999D01*
X83871354Y-119391997D01*
X83830380Y-119391747D01*
X83821752Y-119394213D01*
X83821751Y-119394213D01*
X83801989Y-119399860D01*
X83785232Y-119403437D01*
X83764905Y-119406348D01*
X83764902Y-119406349D01*
X83756020Y-119407621D01*
X83747850Y-119411336D01*
X83747846Y-119411337D01*
X83732697Y-119418225D01*
X83715169Y-119424674D01*
X83699160Y-119429249D01*
X83699153Y-119429252D01*
X83690528Y-119431717D01*
X83665557Y-119447473D01*
X83650483Y-119455606D01*
X83623613Y-119467823D01*
X83604199Y-119484551D01*
X83589192Y-119495655D01*
X83567516Y-119509332D01*
X83561574Y-119516060D01*
X83547979Y-119531454D01*
X83535783Y-119543501D01*
X83520225Y-119556906D01*
X83520222Y-119556910D01*
X83513424Y-119562767D01*
X83508544Y-119570296D01*
X83508543Y-119570297D01*
X83499485Y-119584272D01*
X83488195Y-119599146D01*
X83471233Y-119618352D01*
X83458685Y-119645078D01*
X83450369Y-119660049D01*
X83434312Y-119684822D01*
X83431739Y-119693426D01*
X83431738Y-119693428D01*
X83426968Y-119709378D01*
X83420306Y-119726823D01*
X83409418Y-119750014D01*
X83408038Y-119758878D01*
X83408035Y-119758887D01*
X83404875Y-119779181D01*
X83401094Y-119795892D01*
X83395209Y-119815573D01*
X83392637Y-119824175D01*
X83392582Y-119833147D01*
X83392582Y-119833148D01*
X83392436Y-119856999D01*
X83392318Y-119859839D01*
X83392002Y-119861866D01*
X83392002Y-119927623D01*
X83392000Y-119928393D01*
X83391748Y-119969623D01*
X79008002Y-119969623D01*
X79008002Y-119872379D01*
X79008004Y-119871609D01*
X79008039Y-119865940D01*
X79008256Y-119830379D01*
X79004025Y-119815573D01*
X79000143Y-119801988D01*
X78996566Y-119785231D01*
X78993655Y-119764904D01*
X78993654Y-119764901D01*
X78992382Y-119756019D01*
X78988667Y-119747849D01*
X78988666Y-119747845D01*
X78981778Y-119732696D01*
X78975329Y-119715168D01*
X78970754Y-119699159D01*
X78970751Y-119699152D01*
X78968286Y-119690527D01*
X78952530Y-119665556D01*
X78944397Y-119650482D01*
X78932180Y-119623612D01*
X78915452Y-119604198D01*
X78904348Y-119589191D01*
X78890671Y-119567515D01*
X78868546Y-119547975D01*
X78856502Y-119535782D01*
X78843097Y-119520224D01*
X78843093Y-119520221D01*
X78837236Y-119513423D01*
X78815731Y-119499484D01*
X78800857Y-119488194D01*
X78788380Y-119477175D01*
X78781651Y-119471232D01*
X78754925Y-119458684D01*
X78739954Y-119450368D01*
X78715181Y-119434311D01*
X78706577Y-119431738D01*
X78706575Y-119431737D01*
X78690625Y-119426967D01*
X78673180Y-119420305D01*
X78658115Y-119413232D01*
X78658113Y-119413232D01*
X78649989Y-119409417D01*
X78641125Y-119408037D01*
X78641116Y-119408034D01*
X78620822Y-119404874D01*
X78604111Y-119401093D01*
X78584430Y-119395208D01*
X78584427Y-119395208D01*
X78575828Y-119392636D01*
X78566856Y-119392581D01*
X78566855Y-119392581D01*
X78543004Y-119392435D01*
X78540164Y-119392317D01*
X78538137Y-119392001D01*
X78472380Y-119392001D01*
X78471610Y-119391999D01*
X78471054Y-119391996D01*
X78430380Y-119391747D01*
X78429548Y-119391985D01*
X78429310Y-119392001D01*
X64472380Y-119392001D01*
X64471610Y-119391999D01*
X64471354Y-119391997D01*
X64430380Y-119391747D01*
X64421752Y-119394213D01*
X64421751Y-119394213D01*
X64401989Y-119399860D01*
X64385232Y-119403437D01*
X64364905Y-119406348D01*
X64364902Y-119406349D01*
X64356020Y-119407621D01*
X64347850Y-119411336D01*
X64347846Y-119411337D01*
X64332697Y-119418225D01*
X64315169Y-119424674D01*
X64299160Y-119429249D01*
X64299153Y-119429252D01*
X64290528Y-119431717D01*
X64265557Y-119447473D01*
X64250483Y-119455606D01*
X64223613Y-119467823D01*
X64204199Y-119484551D01*
X64189192Y-119495655D01*
X64167516Y-119509332D01*
X64161574Y-119516060D01*
X64147979Y-119531454D01*
X64135783Y-119543501D01*
X64120225Y-119556906D01*
X64120222Y-119556910D01*
X64113424Y-119562767D01*
X64108544Y-119570296D01*
X64108543Y-119570297D01*
X64099485Y-119584272D01*
X64088195Y-119599146D01*
X64071233Y-119618352D01*
X64058685Y-119645078D01*
X64050369Y-119660049D01*
X64034312Y-119684822D01*
X64031739Y-119693426D01*
X64031738Y-119693428D01*
X64026968Y-119709378D01*
X64020306Y-119726823D01*
X64009418Y-119750014D01*
X64008038Y-119758878D01*
X64008035Y-119758887D01*
X64004875Y-119779181D01*
X64001094Y-119795892D01*
X63995209Y-119815573D01*
X63992637Y-119824175D01*
X63992582Y-119833147D01*
X63992582Y-119833148D01*
X63992436Y-119856999D01*
X63992318Y-119859839D01*
X63992002Y-119861866D01*
X63992002Y-119927623D01*
X63992000Y-119928393D01*
X63991748Y-119969623D01*
X60000000Y-119969623D01*
X60000000Y-100569621D01*
X63991748Y-100569621D01*
X63991986Y-100570453D01*
X63992002Y-100570691D01*
X63992002Y-114527623D01*
X63992000Y-114528393D01*
X63991748Y-114569623D01*
X63994214Y-114578251D01*
X63994214Y-114578252D01*
X63999861Y-114598014D01*
X64003438Y-114614771D01*
X64005801Y-114631265D01*
X64007622Y-114643983D01*
X64011337Y-114652153D01*
X64011338Y-114652157D01*
X64018226Y-114667306D01*
X64024675Y-114684834D01*
X64029250Y-114700843D01*
X64029253Y-114700850D01*
X64031718Y-114709475D01*
X64047474Y-114734446D01*
X64055607Y-114749520D01*
X64067824Y-114776390D01*
X64082326Y-114793221D01*
X64084552Y-114795804D01*
X64095656Y-114810811D01*
X64109333Y-114832487D01*
X64121346Y-114843096D01*
X64131455Y-114852024D01*
X64143502Y-114864220D01*
X64156907Y-114879778D01*
X64156911Y-114879781D01*
X64162768Y-114886579D01*
X64170297Y-114891459D01*
X64170298Y-114891460D01*
X64184273Y-114900518D01*
X64199147Y-114911808D01*
X64218353Y-114928770D01*
X64245079Y-114941318D01*
X64260050Y-114949634D01*
X64284823Y-114965691D01*
X64293427Y-114968264D01*
X64293429Y-114968265D01*
X64309379Y-114973035D01*
X64326824Y-114979697D01*
X64341889Y-114986770D01*
X64341891Y-114986770D01*
X64350015Y-114990585D01*
X64358879Y-114991965D01*
X64358888Y-114991968D01*
X64379182Y-114995128D01*
X64395893Y-114998909D01*
X64415574Y-115004794D01*
X64415577Y-115004794D01*
X64424176Y-115007366D01*
X64433148Y-115007421D01*
X64433149Y-115007421D01*
X64457000Y-115007567D01*
X64459840Y-115007685D01*
X64461867Y-115008001D01*
X64527624Y-115008001D01*
X64528394Y-115008003D01*
X64569624Y-115008255D01*
X64570456Y-115008017D01*
X64570694Y-115008001D01*
X78527624Y-115008001D01*
X78528394Y-115008003D01*
X78569624Y-115008255D01*
X78578253Y-115005789D01*
X78598015Y-115000142D01*
X78614772Y-114996565D01*
X78635099Y-114993654D01*
X78635102Y-114993653D01*
X78643984Y-114992381D01*
X78652154Y-114988666D01*
X78652158Y-114988665D01*
X78667307Y-114981777D01*
X78684835Y-114975328D01*
X78700844Y-114970753D01*
X78700851Y-114970750D01*
X78709476Y-114968285D01*
X78734447Y-114952529D01*
X78749521Y-114944396D01*
X78776391Y-114932179D01*
X78795805Y-114915451D01*
X78810812Y-114904347D01*
X78832488Y-114890670D01*
X78852028Y-114868545D01*
X78864221Y-114856501D01*
X78879779Y-114843096D01*
X78879782Y-114843092D01*
X78886580Y-114837235D01*
X78900519Y-114815730D01*
X78911809Y-114800856D01*
X78922828Y-114788379D01*
X78928771Y-114781650D01*
X78941319Y-114754924D01*
X78949635Y-114739953D01*
X78965692Y-114715180D01*
X78968266Y-114706574D01*
X78973036Y-114690624D01*
X78979698Y-114673179D01*
X78986771Y-114658114D01*
X78986771Y-114658112D01*
X78990586Y-114649988D01*
X78991966Y-114641124D01*
X78991969Y-114641115D01*
X78995129Y-114620821D01*
X78998910Y-114604110D01*
X79004795Y-114584429D01*
X79004795Y-114584426D01*
X79007367Y-114575827D01*
X79007470Y-114559062D01*
X79007568Y-114543003D01*
X79007686Y-114540163D01*
X79008002Y-114538136D01*
X79008002Y-114472379D01*
X79008004Y-114471609D01*
X79008241Y-114432818D01*
X79008256Y-114430379D01*
X79008018Y-114429547D01*
X79008002Y-114429309D01*
X79008002Y-100569621D01*
X83391748Y-100569621D01*
X83391986Y-100570453D01*
X83392002Y-100570691D01*
X83392002Y-114527623D01*
X83392000Y-114528393D01*
X83391748Y-114569623D01*
X83394214Y-114578251D01*
X83394214Y-114578252D01*
X83399861Y-114598014D01*
X83403438Y-114614771D01*
X83405801Y-114631265D01*
X83407622Y-114643983D01*
X83411337Y-114652153D01*
X83411338Y-114652157D01*
X83418226Y-114667306D01*
X83424675Y-114684834D01*
X83429250Y-114700843D01*
X83429253Y-114700850D01*
X83431718Y-114709475D01*
X83447474Y-114734446D01*
X83455607Y-114749520D01*
X83467824Y-114776390D01*
X83482326Y-114793221D01*
X83484552Y-114795804D01*
X83495656Y-114810811D01*
X83509333Y-114832487D01*
X83521346Y-114843096D01*
X83531455Y-114852024D01*
X83543502Y-114864220D01*
X83556907Y-114879778D01*
X83556911Y-114879781D01*
X83562768Y-114886579D01*
X83570297Y-114891459D01*
X83570298Y-114891460D01*
X83584273Y-114900518D01*
X83599147Y-114911808D01*
X83618353Y-114928770D01*
X83645079Y-114941318D01*
X83660050Y-114949634D01*
X83684823Y-114965691D01*
X83693427Y-114968264D01*
X83693429Y-114968265D01*
X83709379Y-114973035D01*
X83726824Y-114979697D01*
X83741889Y-114986770D01*
X83741891Y-114986770D01*
X83750015Y-114990585D01*
X83758879Y-114991965D01*
X83758888Y-114991968D01*
X83779182Y-114995128D01*
X83795893Y-114998909D01*
X83815574Y-115004794D01*
X83815577Y-115004794D01*
X83824176Y-115007366D01*
X83833148Y-115007421D01*
X83833149Y-115007421D01*
X83857000Y-115007567D01*
X83859840Y-115007685D01*
X83861867Y-115008001D01*
X83927624Y-115008001D01*
X83928394Y-115008003D01*
X83969624Y-115008255D01*
X83970456Y-115008017D01*
X83970694Y-115008001D01*
X97927623Y-115008001D01*
X97928393Y-115008003D01*
X97969623Y-115008255D01*
X97978252Y-115005789D01*
X97998014Y-115000142D01*
X98014771Y-114996565D01*
X98035098Y-114993654D01*
X98035101Y-114993653D01*
X98043983Y-114992381D01*
X98052153Y-114988666D01*
X98052157Y-114988665D01*
X98067306Y-114981777D01*
X98084834Y-114975328D01*
X98100843Y-114970753D01*
X98100850Y-114970750D01*
X98109475Y-114968285D01*
X98134446Y-114952529D01*
X98149520Y-114944396D01*
X98176390Y-114932179D01*
X98195804Y-114915451D01*
X98210811Y-114904347D01*
X98232487Y-114890670D01*
X98252027Y-114868545D01*
X98264220Y-114856501D01*
X98279778Y-114843096D01*
X98279781Y-114843092D01*
X98286579Y-114837235D01*
X98300518Y-114815730D01*
X98311808Y-114800856D01*
X98322827Y-114788379D01*
X98328770Y-114781650D01*
X98341318Y-114754924D01*
X98349634Y-114739953D01*
X98365691Y-114715180D01*
X98368265Y-114706574D01*
X98373035Y-114690624D01*
X98379697Y-114673179D01*
X98386770Y-114658114D01*
X98386770Y-114658112D01*
X98390585Y-114649988D01*
X98391965Y-114641124D01*
X98391968Y-114641115D01*
X98395128Y-114620821D01*
X98398909Y-114604110D01*
X98404794Y-114584429D01*
X98404794Y-114584426D01*
X98407366Y-114575827D01*
X98407469Y-114559062D01*
X98407567Y-114543003D01*
X98407685Y-114540163D01*
X98408001Y-114538136D01*
X98408001Y-114472379D01*
X98408003Y-114471609D01*
X98408240Y-114432818D01*
X98408255Y-114430379D01*
X98408017Y-114429547D01*
X98408001Y-114429309D01*
X98408001Y-100569621D01*
X102791747Y-100569621D01*
X102791985Y-100570453D01*
X102792001Y-100570691D01*
X102792001Y-114527623D01*
X102791999Y-114528393D01*
X102791747Y-114569623D01*
X102794213Y-114578251D01*
X102794213Y-114578252D01*
X102799860Y-114598014D01*
X102803437Y-114614771D01*
X102805800Y-114631265D01*
X102807621Y-114643983D01*
X102811336Y-114652153D01*
X102811337Y-114652157D01*
X102818225Y-114667306D01*
X102824674Y-114684834D01*
X102829249Y-114700843D01*
X102829252Y-114700850D01*
X102831717Y-114709475D01*
X102847473Y-114734446D01*
X102855606Y-114749520D01*
X102867823Y-114776390D01*
X102882325Y-114793221D01*
X102884551Y-114795804D01*
X102895655Y-114810811D01*
X102909332Y-114832487D01*
X102921345Y-114843096D01*
X102931454Y-114852024D01*
X102943501Y-114864220D01*
X102956906Y-114879778D01*
X102956910Y-114879781D01*
X102962767Y-114886579D01*
X102970296Y-114891459D01*
X102970297Y-114891460D01*
X102984272Y-114900518D01*
X102999146Y-114911808D01*
X103018352Y-114928770D01*
X103045078Y-114941318D01*
X103060049Y-114949634D01*
X103084822Y-114965691D01*
X103093426Y-114968264D01*
X103093428Y-114968265D01*
X103109378Y-114973035D01*
X103126823Y-114979697D01*
X103141888Y-114986770D01*
X103141890Y-114986770D01*
X103150014Y-114990585D01*
X103158878Y-114991965D01*
X103158887Y-114991968D01*
X103179181Y-114995128D01*
X103195892Y-114998909D01*
X103215573Y-115004794D01*
X103215576Y-115004794D01*
X103224175Y-115007366D01*
X103233147Y-115007421D01*
X103233148Y-115007421D01*
X103256999Y-115007567D01*
X103259839Y-115007685D01*
X103261866Y-115008001D01*
X103327623Y-115008001D01*
X103328393Y-115008003D01*
X103369623Y-115008255D01*
X103370455Y-115008017D01*
X103370693Y-115008001D01*
X117327622Y-115008001D01*
X117328392Y-115008003D01*
X117369622Y-115008255D01*
X117378251Y-115005789D01*
X117398013Y-115000142D01*
X117414770Y-114996565D01*
X117435097Y-114993654D01*
X117435100Y-114993653D01*
X117443982Y-114992381D01*
X117452152Y-114988666D01*
X117452156Y-114988665D01*
X117467305Y-114981777D01*
X117484833Y-114975328D01*
X117500842Y-114970753D01*
X117500849Y-114970750D01*
X117509474Y-114968285D01*
X117534445Y-114952529D01*
X117549519Y-114944396D01*
X117576389Y-114932179D01*
X117595803Y-114915451D01*
X117610810Y-114904347D01*
X117632486Y-114890670D01*
X117652026Y-114868545D01*
X117664219Y-114856501D01*
X117679777Y-114843096D01*
X117679780Y-114843092D01*
X117686578Y-114837235D01*
X117700517Y-114815730D01*
X117711807Y-114800856D01*
X117722826Y-114788379D01*
X117728769Y-114781650D01*
X117741317Y-114754924D01*
X117749633Y-114739953D01*
X117765690Y-114715180D01*
X117768264Y-114706574D01*
X117773034Y-114690624D01*
X117779696Y-114673179D01*
X117786769Y-114658114D01*
X117786769Y-114658112D01*
X117790584Y-114649988D01*
X117791964Y-114641124D01*
X117791967Y-114641115D01*
X117795127Y-114620821D01*
X117798908Y-114604110D01*
X117804793Y-114584429D01*
X117804793Y-114584426D01*
X117807365Y-114575827D01*
X117807468Y-114559062D01*
X117807566Y-114543003D01*
X117807684Y-114540163D01*
X117808000Y-114538136D01*
X117808000Y-114472379D01*
X117808002Y-114471609D01*
X117808239Y-114432818D01*
X117808254Y-114430379D01*
X117808016Y-114429547D01*
X117808000Y-114429309D01*
X117808000Y-100569621D01*
X122191746Y-100569621D01*
X122191984Y-100570453D01*
X122192000Y-100570691D01*
X122192000Y-114527623D01*
X122191998Y-114528393D01*
X122191746Y-114569623D01*
X122194212Y-114578251D01*
X122194212Y-114578252D01*
X122199859Y-114598014D01*
X122203436Y-114614771D01*
X122205799Y-114631265D01*
X122207620Y-114643983D01*
X122211335Y-114652153D01*
X122211336Y-114652157D01*
X122218224Y-114667306D01*
X122224673Y-114684834D01*
X122229248Y-114700843D01*
X122229251Y-114700850D01*
X122231716Y-114709475D01*
X122247472Y-114734446D01*
X122255605Y-114749520D01*
X122267822Y-114776390D01*
X122282324Y-114793221D01*
X122284550Y-114795804D01*
X122295654Y-114810811D01*
X122309331Y-114832487D01*
X122321344Y-114843096D01*
X122331453Y-114852024D01*
X122343500Y-114864220D01*
X122356905Y-114879778D01*
X122356909Y-114879781D01*
X122362766Y-114886579D01*
X122370295Y-114891459D01*
X122370296Y-114891460D01*
X122384271Y-114900518D01*
X122399145Y-114911808D01*
X122418351Y-114928770D01*
X122445077Y-114941318D01*
X122460048Y-114949634D01*
X122484821Y-114965691D01*
X122493425Y-114968264D01*
X122493427Y-114968265D01*
X122509377Y-114973035D01*
X122526822Y-114979697D01*
X122541887Y-114986770D01*
X122541889Y-114986770D01*
X122550013Y-114990585D01*
X122558877Y-114991965D01*
X122558886Y-114991968D01*
X122579180Y-114995128D01*
X122595891Y-114998909D01*
X122615572Y-115004794D01*
X122615575Y-115004794D01*
X122624174Y-115007366D01*
X122633146Y-115007421D01*
X122633147Y-115007421D01*
X122656998Y-115007567D01*
X122659838Y-115007685D01*
X122661865Y-115008001D01*
X122727622Y-115008001D01*
X122728392Y-115008003D01*
X122769622Y-115008255D01*
X122770454Y-115008017D01*
X122770692Y-115008001D01*
X136727620Y-115008001D01*
X136728390Y-115008003D01*
X136769620Y-115008255D01*
X136778249Y-115005789D01*
X136798011Y-115000142D01*
X136814768Y-114996565D01*
X136835095Y-114993654D01*
X136835098Y-114993653D01*
X136843980Y-114992381D01*
X136852150Y-114988666D01*
X136852154Y-114988665D01*
X136867303Y-114981777D01*
X136884831Y-114975328D01*
X136900840Y-114970753D01*
X136900847Y-114970750D01*
X136909472Y-114968285D01*
X136934443Y-114952529D01*
X136949517Y-114944396D01*
X136976387Y-114932179D01*
X136995801Y-114915451D01*
X137010808Y-114904347D01*
X137032484Y-114890670D01*
X137052024Y-114868545D01*
X137064217Y-114856501D01*
X137079775Y-114843096D01*
X137079778Y-114843092D01*
X137086576Y-114837235D01*
X137100515Y-114815730D01*
X137111805Y-114800856D01*
X137122824Y-114788379D01*
X137128767Y-114781650D01*
X137141315Y-114754924D01*
X137149631Y-114739953D01*
X137165688Y-114715180D01*
X137168262Y-114706574D01*
X137173032Y-114690624D01*
X137179694Y-114673179D01*
X137186767Y-114658114D01*
X137186767Y-114658112D01*
X137190582Y-114649988D01*
X137191962Y-114641124D01*
X137191965Y-114641115D01*
X137195125Y-114620821D01*
X137198906Y-114604110D01*
X137204791Y-114584429D01*
X137204791Y-114584426D01*
X137207363Y-114575827D01*
X137207466Y-114559062D01*
X137207564Y-114543003D01*
X137207682Y-114540163D01*
X137207998Y-114538136D01*
X137207998Y-114472379D01*
X137208000Y-114471609D01*
X137208237Y-114432818D01*
X137208252Y-114430379D01*
X137208014Y-114429547D01*
X137207998Y-114429309D01*
X137207998Y-100594621D01*
X141591744Y-100594621D01*
X141591982Y-100595453D01*
X141591998Y-100595691D01*
X141591998Y-114552623D01*
X141591996Y-114553393D01*
X141591744Y-114594623D01*
X141594210Y-114603251D01*
X141594210Y-114603252D01*
X141599857Y-114623014D01*
X141603434Y-114639771D01*
X141604898Y-114649988D01*
X141607618Y-114668983D01*
X141611333Y-114677153D01*
X141611334Y-114677157D01*
X141618222Y-114692306D01*
X141624671Y-114709834D01*
X141629246Y-114725843D01*
X141629249Y-114725850D01*
X141631714Y-114734475D01*
X141647470Y-114759446D01*
X141655603Y-114774520D01*
X141667820Y-114801390D01*
X141680176Y-114815730D01*
X141684548Y-114820804D01*
X141695652Y-114835811D01*
X141709329Y-114857487D01*
X141721342Y-114868096D01*
X141731451Y-114877024D01*
X141743498Y-114889220D01*
X141756903Y-114904778D01*
X141756907Y-114904781D01*
X141762764Y-114911579D01*
X141770293Y-114916459D01*
X141770294Y-114916460D01*
X141784269Y-114925518D01*
X141799143Y-114936808D01*
X141818349Y-114953770D01*
X141845075Y-114966318D01*
X141860046Y-114974634D01*
X141884819Y-114990691D01*
X141893423Y-114993264D01*
X141893425Y-114993265D01*
X141909375Y-114998035D01*
X141926820Y-115004697D01*
X141941885Y-115011770D01*
X141941887Y-115011770D01*
X141950011Y-115015585D01*
X141958875Y-115016965D01*
X141958884Y-115016968D01*
X141979178Y-115020128D01*
X141995889Y-115023909D01*
X142015570Y-115029794D01*
X142015573Y-115029794D01*
X142024172Y-115032366D01*
X142033144Y-115032421D01*
X142033145Y-115032421D01*
X142056996Y-115032567D01*
X142059836Y-115032685D01*
X142061863Y-115033001D01*
X142127620Y-115033001D01*
X142128390Y-115033003D01*
X142169620Y-115033255D01*
X142170452Y-115033017D01*
X142170690Y-115033001D01*
X156127620Y-115033001D01*
X156128390Y-115033003D01*
X156169620Y-115033255D01*
X156178249Y-115030789D01*
X156198011Y-115025142D01*
X156214768Y-115021565D01*
X156235095Y-115018654D01*
X156235098Y-115018653D01*
X156243980Y-115017381D01*
X156252150Y-115013666D01*
X156252154Y-115013665D01*
X156267303Y-115006777D01*
X156284831Y-115000328D01*
X156300840Y-114995753D01*
X156300847Y-114995750D01*
X156309472Y-114993285D01*
X156334443Y-114977529D01*
X156349517Y-114969396D01*
X156376387Y-114957179D01*
X156395801Y-114940451D01*
X156410808Y-114929347D01*
X156432484Y-114915670D01*
X156452024Y-114893545D01*
X156464217Y-114881501D01*
X156479775Y-114868096D01*
X156479778Y-114868092D01*
X156486576Y-114862235D01*
X156493195Y-114852024D01*
X156500515Y-114840730D01*
X156511805Y-114825856D01*
X156522824Y-114813379D01*
X156528767Y-114806650D01*
X156541315Y-114779924D01*
X156549631Y-114764953D01*
X156565688Y-114740180D01*
X156568262Y-114731574D01*
X156573032Y-114715624D01*
X156579694Y-114698179D01*
X156586767Y-114683114D01*
X156586767Y-114683112D01*
X156590582Y-114674988D01*
X156591962Y-114666124D01*
X156591965Y-114666115D01*
X156595125Y-114645821D01*
X156598906Y-114629110D01*
X156604791Y-114609429D01*
X156604791Y-114609426D01*
X156607363Y-114600827D01*
X156607564Y-114568003D01*
X156607682Y-114565163D01*
X156607998Y-114563136D01*
X156607998Y-114497379D01*
X156608000Y-114496609D01*
X156608237Y-114457818D01*
X156608252Y-114455379D01*
X156608014Y-114454547D01*
X156607998Y-114454309D01*
X156607998Y-100497377D01*
X156608000Y-100496607D01*
X156608035Y-100490938D01*
X156608252Y-100455377D01*
X156601899Y-100433146D01*
X156600139Y-100426986D01*
X156596562Y-100410229D01*
X156593651Y-100389902D01*
X156593650Y-100389899D01*
X156592378Y-100381017D01*
X156588663Y-100372847D01*
X156588662Y-100372843D01*
X156581774Y-100357694D01*
X156575325Y-100340166D01*
X156570750Y-100324157D01*
X156570747Y-100324150D01*
X156568282Y-100315525D01*
X156552526Y-100290554D01*
X156544393Y-100275480D01*
X156532176Y-100248610D01*
X156515448Y-100229196D01*
X156504344Y-100214189D01*
X156490667Y-100192513D01*
X156468542Y-100172973D01*
X156456498Y-100160780D01*
X156443093Y-100145222D01*
X156443089Y-100145219D01*
X156437232Y-100138421D01*
X156426481Y-100131452D01*
X156415727Y-100124482D01*
X156400853Y-100113192D01*
X156396480Y-100109330D01*
X156381647Y-100096230D01*
X156354921Y-100083682D01*
X156339950Y-100075366D01*
X156315177Y-100059309D01*
X156306573Y-100056736D01*
X156306571Y-100056735D01*
X156290621Y-100051965D01*
X156273176Y-100045303D01*
X156258111Y-100038230D01*
X156258109Y-100038230D01*
X156249985Y-100034415D01*
X156241121Y-100033035D01*
X156241112Y-100033032D01*
X156220818Y-100029872D01*
X156204107Y-100026091D01*
X156184426Y-100020206D01*
X156184423Y-100020206D01*
X156175824Y-100017634D01*
X156166852Y-100017579D01*
X156166851Y-100017579D01*
X156143000Y-100017433D01*
X156140160Y-100017315D01*
X156138133Y-100016999D01*
X156072376Y-100016999D01*
X156071606Y-100016997D01*
X156071050Y-100016994D01*
X156030376Y-100016745D01*
X156029544Y-100016983D01*
X156029306Y-100016999D01*
X142072376Y-100016999D01*
X142071606Y-100016997D01*
X142071350Y-100016995D01*
X142030376Y-100016745D01*
X142021748Y-100019211D01*
X142021747Y-100019211D01*
X142001985Y-100024858D01*
X141985228Y-100028435D01*
X141964901Y-100031346D01*
X141964898Y-100031347D01*
X141956016Y-100032619D01*
X141947846Y-100036334D01*
X141947842Y-100036335D01*
X141932693Y-100043223D01*
X141915165Y-100049672D01*
X141899156Y-100054247D01*
X141899149Y-100054250D01*
X141890524Y-100056715D01*
X141865553Y-100072471D01*
X141850479Y-100080604D01*
X141823609Y-100092821D01*
X141810007Y-100104541D01*
X141804195Y-100109549D01*
X141789188Y-100120653D01*
X141767512Y-100134330D01*
X141761570Y-100141058D01*
X141747975Y-100156452D01*
X141735779Y-100168499D01*
X141720221Y-100181904D01*
X141720218Y-100181908D01*
X141713420Y-100187765D01*
X141708540Y-100195294D01*
X141708539Y-100195295D01*
X141699481Y-100209270D01*
X141688191Y-100224144D01*
X141671229Y-100243350D01*
X141658681Y-100270076D01*
X141650365Y-100285047D01*
X141634308Y-100309820D01*
X141631735Y-100318424D01*
X141631734Y-100318426D01*
X141626964Y-100334376D01*
X141620302Y-100351821D01*
X141613229Y-100366886D01*
X141609414Y-100375012D01*
X141608034Y-100383876D01*
X141608031Y-100383885D01*
X141604871Y-100404179D01*
X141601090Y-100420890D01*
X141595571Y-100439348D01*
X141592633Y-100449173D01*
X141592578Y-100458145D01*
X141592578Y-100458146D01*
X141592432Y-100481997D01*
X141592314Y-100484837D01*
X141591998Y-100486864D01*
X141591998Y-100552621D01*
X141591996Y-100553391D01*
X141591744Y-100594621D01*
X137207998Y-100594621D01*
X137207998Y-100472377D01*
X137208000Y-100471607D01*
X137208044Y-100464348D01*
X137208252Y-100430377D01*
X137202494Y-100410229D01*
X137200139Y-100401986D01*
X137196562Y-100385229D01*
X137193651Y-100364902D01*
X137193650Y-100364899D01*
X137192378Y-100356017D01*
X137188663Y-100347847D01*
X137188662Y-100347843D01*
X137181774Y-100332694D01*
X137175325Y-100315166D01*
X137170750Y-100299157D01*
X137170747Y-100299150D01*
X137168282Y-100290525D01*
X137152526Y-100265554D01*
X137144393Y-100250480D01*
X137132176Y-100223610D01*
X137115448Y-100204196D01*
X137104344Y-100189189D01*
X137090667Y-100167513D01*
X137068542Y-100147973D01*
X137056498Y-100135780D01*
X137043093Y-100120222D01*
X137043089Y-100120219D01*
X137037232Y-100113421D01*
X137015727Y-100099482D01*
X137000853Y-100088192D01*
X136988376Y-100077173D01*
X136981647Y-100071230D01*
X136954921Y-100058682D01*
X136939950Y-100050366D01*
X136915177Y-100034309D01*
X136906573Y-100031736D01*
X136906571Y-100031735D01*
X136890621Y-100026965D01*
X136873176Y-100020303D01*
X136858111Y-100013230D01*
X136858109Y-100013230D01*
X136849985Y-100009415D01*
X136841121Y-100008035D01*
X136841112Y-100008032D01*
X136820818Y-100004872D01*
X136804107Y-100001091D01*
X136784426Y-99995206D01*
X136784423Y-99995206D01*
X136775824Y-99992634D01*
X136766852Y-99992579D01*
X136766851Y-99992579D01*
X136743000Y-99992433D01*
X136740160Y-99992315D01*
X136738133Y-99991999D01*
X136672376Y-99991999D01*
X136671606Y-99991997D01*
X136671050Y-99991994D01*
X136630376Y-99991745D01*
X136629544Y-99991983D01*
X136629306Y-99991999D01*
X122672378Y-99991999D01*
X122671608Y-99991997D01*
X122671352Y-99991995D01*
X122630378Y-99991745D01*
X122621750Y-99994211D01*
X122621749Y-99994211D01*
X122601987Y-99999858D01*
X122585230Y-100003435D01*
X122564903Y-100006346D01*
X122564900Y-100006347D01*
X122556018Y-100007619D01*
X122547848Y-100011334D01*
X122547844Y-100011335D01*
X122532695Y-100018223D01*
X122515167Y-100024672D01*
X122499158Y-100029247D01*
X122499151Y-100029250D01*
X122490526Y-100031715D01*
X122465555Y-100047471D01*
X122450481Y-100055604D01*
X122423611Y-100067821D01*
X122409435Y-100080036D01*
X122404197Y-100084549D01*
X122389190Y-100095653D01*
X122367514Y-100109330D01*
X122349665Y-100129541D01*
X122347977Y-100131452D01*
X122335781Y-100143499D01*
X122320223Y-100156904D01*
X122320220Y-100156908D01*
X122313422Y-100162765D01*
X122308542Y-100170294D01*
X122308541Y-100170295D01*
X122299483Y-100184270D01*
X122288193Y-100199144D01*
X122271231Y-100218350D01*
X122258683Y-100245076D01*
X122250367Y-100260047D01*
X122234310Y-100284820D01*
X122231737Y-100293424D01*
X122231736Y-100293426D01*
X122226966Y-100309376D01*
X122220304Y-100326821D01*
X122209416Y-100350012D01*
X122208036Y-100358876D01*
X122208033Y-100358885D01*
X122204873Y-100379179D01*
X122201092Y-100395890D01*
X122195207Y-100415571D01*
X122192635Y-100424173D01*
X122192580Y-100433145D01*
X122192580Y-100433146D01*
X122192434Y-100456997D01*
X122192316Y-100459837D01*
X122192000Y-100461864D01*
X122192000Y-100527621D01*
X122191998Y-100528391D01*
X122191746Y-100569621D01*
X117808000Y-100569621D01*
X117808000Y-100472377D01*
X117808002Y-100471607D01*
X117808046Y-100464348D01*
X117808254Y-100430377D01*
X117802496Y-100410229D01*
X117800141Y-100401986D01*
X117796564Y-100385229D01*
X117793653Y-100364902D01*
X117793652Y-100364899D01*
X117792380Y-100356017D01*
X117788665Y-100347847D01*
X117788664Y-100347843D01*
X117781776Y-100332694D01*
X117775327Y-100315166D01*
X117770752Y-100299157D01*
X117770749Y-100299150D01*
X117768284Y-100290525D01*
X117752528Y-100265554D01*
X117744395Y-100250480D01*
X117732178Y-100223610D01*
X117715450Y-100204196D01*
X117704346Y-100189189D01*
X117690669Y-100167513D01*
X117668544Y-100147973D01*
X117656500Y-100135780D01*
X117643095Y-100120222D01*
X117643091Y-100120219D01*
X117637234Y-100113421D01*
X117615729Y-100099482D01*
X117600855Y-100088192D01*
X117588378Y-100077173D01*
X117581649Y-100071230D01*
X117554923Y-100058682D01*
X117539952Y-100050366D01*
X117515179Y-100034309D01*
X117506575Y-100031736D01*
X117506573Y-100031735D01*
X117490623Y-100026965D01*
X117473178Y-100020303D01*
X117458113Y-100013230D01*
X117458111Y-100013230D01*
X117449987Y-100009415D01*
X117441123Y-100008035D01*
X117441114Y-100008032D01*
X117420820Y-100004872D01*
X117404109Y-100001091D01*
X117384428Y-99995206D01*
X117384425Y-99995206D01*
X117375826Y-99992634D01*
X117366854Y-99992579D01*
X117366853Y-99992579D01*
X117343002Y-99992433D01*
X117340162Y-99992315D01*
X117338135Y-99991999D01*
X117272378Y-99991999D01*
X117271608Y-99991997D01*
X117271052Y-99991994D01*
X117230378Y-99991745D01*
X117229546Y-99991983D01*
X117229308Y-99991999D01*
X103272379Y-99991999D01*
X103271609Y-99991997D01*
X103271353Y-99991995D01*
X103230379Y-99991745D01*
X103221751Y-99994211D01*
X103221750Y-99994211D01*
X103201988Y-99999858D01*
X103185231Y-100003435D01*
X103164904Y-100006346D01*
X103164901Y-100006347D01*
X103156019Y-100007619D01*
X103147849Y-100011334D01*
X103147845Y-100011335D01*
X103132696Y-100018223D01*
X103115168Y-100024672D01*
X103099159Y-100029247D01*
X103099152Y-100029250D01*
X103090527Y-100031715D01*
X103065556Y-100047471D01*
X103050482Y-100055604D01*
X103023612Y-100067821D01*
X103009436Y-100080036D01*
X103004198Y-100084549D01*
X102989191Y-100095653D01*
X102967515Y-100109330D01*
X102949666Y-100129541D01*
X102947978Y-100131452D01*
X102935782Y-100143499D01*
X102920224Y-100156904D01*
X102920221Y-100156908D01*
X102913423Y-100162765D01*
X102908543Y-100170294D01*
X102908542Y-100170295D01*
X102899484Y-100184270D01*
X102888194Y-100199144D01*
X102871232Y-100218350D01*
X102858684Y-100245076D01*
X102850368Y-100260047D01*
X102834311Y-100284820D01*
X102831738Y-100293424D01*
X102831737Y-100293426D01*
X102826967Y-100309376D01*
X102820305Y-100326821D01*
X102809417Y-100350012D01*
X102808037Y-100358876D01*
X102808034Y-100358885D01*
X102804874Y-100379179D01*
X102801093Y-100395890D01*
X102795208Y-100415571D01*
X102792636Y-100424173D01*
X102792581Y-100433145D01*
X102792581Y-100433146D01*
X102792435Y-100456997D01*
X102792317Y-100459837D01*
X102792001Y-100461864D01*
X102792001Y-100527621D01*
X102791999Y-100528391D01*
X102791747Y-100569621D01*
X98408001Y-100569621D01*
X98408001Y-100472377D01*
X98408003Y-100471607D01*
X98408047Y-100464348D01*
X98408255Y-100430377D01*
X98402497Y-100410229D01*
X98400142Y-100401986D01*
X98396565Y-100385229D01*
X98393654Y-100364902D01*
X98393653Y-100364899D01*
X98392381Y-100356017D01*
X98388666Y-100347847D01*
X98388665Y-100347843D01*
X98381777Y-100332694D01*
X98375328Y-100315166D01*
X98370753Y-100299157D01*
X98370750Y-100299150D01*
X98368285Y-100290525D01*
X98352529Y-100265554D01*
X98344396Y-100250480D01*
X98332179Y-100223610D01*
X98315451Y-100204196D01*
X98304347Y-100189189D01*
X98290670Y-100167513D01*
X98268545Y-100147973D01*
X98256501Y-100135780D01*
X98243096Y-100120222D01*
X98243092Y-100120219D01*
X98237235Y-100113421D01*
X98215730Y-100099482D01*
X98200856Y-100088192D01*
X98188379Y-100077173D01*
X98181650Y-100071230D01*
X98154924Y-100058682D01*
X98139953Y-100050366D01*
X98115180Y-100034309D01*
X98106576Y-100031736D01*
X98106574Y-100031735D01*
X98090624Y-100026965D01*
X98073179Y-100020303D01*
X98058114Y-100013230D01*
X98058112Y-100013230D01*
X98049988Y-100009415D01*
X98041124Y-100008035D01*
X98041115Y-100008032D01*
X98020821Y-100004872D01*
X98004110Y-100001091D01*
X97984429Y-99995206D01*
X97984426Y-99995206D01*
X97975827Y-99992634D01*
X97966855Y-99992579D01*
X97966854Y-99992579D01*
X97943003Y-99992433D01*
X97940163Y-99992315D01*
X97938136Y-99991999D01*
X97872379Y-99991999D01*
X97871609Y-99991997D01*
X97871053Y-99991994D01*
X97830379Y-99991745D01*
X97829547Y-99991983D01*
X97829309Y-99991999D01*
X83872380Y-99991999D01*
X83871610Y-99991997D01*
X83871354Y-99991995D01*
X83830380Y-99991745D01*
X83821752Y-99994211D01*
X83821751Y-99994211D01*
X83801989Y-99999858D01*
X83785232Y-100003435D01*
X83764905Y-100006346D01*
X83764902Y-100006347D01*
X83756020Y-100007619D01*
X83747850Y-100011334D01*
X83747846Y-100011335D01*
X83732697Y-100018223D01*
X83715169Y-100024672D01*
X83699160Y-100029247D01*
X83699153Y-100029250D01*
X83690528Y-100031715D01*
X83665557Y-100047471D01*
X83650483Y-100055604D01*
X83623613Y-100067821D01*
X83609437Y-100080036D01*
X83604199Y-100084549D01*
X83589192Y-100095653D01*
X83567516Y-100109330D01*
X83549667Y-100129541D01*
X83547979Y-100131452D01*
X83535783Y-100143499D01*
X83520225Y-100156904D01*
X83520222Y-100156908D01*
X83513424Y-100162765D01*
X83508544Y-100170294D01*
X83508543Y-100170295D01*
X83499485Y-100184270D01*
X83488195Y-100199144D01*
X83471233Y-100218350D01*
X83458685Y-100245076D01*
X83450369Y-100260047D01*
X83434312Y-100284820D01*
X83431739Y-100293424D01*
X83431738Y-100293426D01*
X83426968Y-100309376D01*
X83420306Y-100326821D01*
X83409418Y-100350012D01*
X83408038Y-100358876D01*
X83408035Y-100358885D01*
X83404875Y-100379179D01*
X83401094Y-100395890D01*
X83395209Y-100415571D01*
X83392637Y-100424173D01*
X83392582Y-100433145D01*
X83392582Y-100433146D01*
X83392436Y-100456997D01*
X83392318Y-100459837D01*
X83392002Y-100461864D01*
X83392002Y-100527621D01*
X83392000Y-100528391D01*
X83391748Y-100569621D01*
X79008002Y-100569621D01*
X79008002Y-100472377D01*
X79008004Y-100471607D01*
X79008048Y-100464348D01*
X79008256Y-100430377D01*
X79002498Y-100410229D01*
X79000143Y-100401986D01*
X78996566Y-100385229D01*
X78993655Y-100364902D01*
X78993654Y-100364899D01*
X78992382Y-100356017D01*
X78988667Y-100347847D01*
X78988666Y-100347843D01*
X78981778Y-100332694D01*
X78975329Y-100315166D01*
X78970754Y-100299157D01*
X78970751Y-100299150D01*
X78968286Y-100290525D01*
X78952530Y-100265554D01*
X78944397Y-100250480D01*
X78932180Y-100223610D01*
X78915452Y-100204196D01*
X78904348Y-100189189D01*
X78890671Y-100167513D01*
X78868546Y-100147973D01*
X78856502Y-100135780D01*
X78843097Y-100120222D01*
X78843093Y-100120219D01*
X78837236Y-100113421D01*
X78815731Y-100099482D01*
X78800857Y-100088192D01*
X78788380Y-100077173D01*
X78781651Y-100071230D01*
X78754925Y-100058682D01*
X78739954Y-100050366D01*
X78715181Y-100034309D01*
X78706577Y-100031736D01*
X78706575Y-100031735D01*
X78690625Y-100026965D01*
X78673180Y-100020303D01*
X78658115Y-100013230D01*
X78658113Y-100013230D01*
X78649989Y-100009415D01*
X78641125Y-100008035D01*
X78641116Y-100008032D01*
X78620822Y-100004872D01*
X78604111Y-100001091D01*
X78584430Y-99995206D01*
X78584427Y-99995206D01*
X78575828Y-99992634D01*
X78566856Y-99992579D01*
X78566855Y-99992579D01*
X78543004Y-99992433D01*
X78540164Y-99992315D01*
X78538137Y-99991999D01*
X78472380Y-99991999D01*
X78471610Y-99991997D01*
X78471054Y-99991994D01*
X78430380Y-99991745D01*
X78429548Y-99991983D01*
X78429310Y-99991999D01*
X64472380Y-99991999D01*
X64471610Y-99991997D01*
X64471354Y-99991995D01*
X64430380Y-99991745D01*
X64421752Y-99994211D01*
X64421751Y-99994211D01*
X64401989Y-99999858D01*
X64385232Y-100003435D01*
X64364905Y-100006346D01*
X64364902Y-100006347D01*
X64356020Y-100007619D01*
X64347850Y-100011334D01*
X64347846Y-100011335D01*
X64332697Y-100018223D01*
X64315169Y-100024672D01*
X64299160Y-100029247D01*
X64299153Y-100029250D01*
X64290528Y-100031715D01*
X64265557Y-100047471D01*
X64250483Y-100055604D01*
X64223613Y-100067821D01*
X64209437Y-100080036D01*
X64204199Y-100084549D01*
X64189192Y-100095653D01*
X64167516Y-100109330D01*
X64149667Y-100129541D01*
X64147979Y-100131452D01*
X64135783Y-100143499D01*
X64120225Y-100156904D01*
X64120222Y-100156908D01*
X64113424Y-100162765D01*
X64108544Y-100170294D01*
X64108543Y-100170295D01*
X64099485Y-100184270D01*
X64088195Y-100199144D01*
X64071233Y-100218350D01*
X64058685Y-100245076D01*
X64050369Y-100260047D01*
X64034312Y-100284820D01*
X64031739Y-100293424D01*
X64031738Y-100293426D01*
X64026968Y-100309376D01*
X64020306Y-100326821D01*
X64009418Y-100350012D01*
X64008038Y-100358876D01*
X64008035Y-100358885D01*
X64004875Y-100379179D01*
X64001094Y-100395890D01*
X63995209Y-100415571D01*
X63992637Y-100424173D01*
X63992582Y-100433145D01*
X63992582Y-100433146D01*
X63992436Y-100456997D01*
X63992318Y-100459837D01*
X63992002Y-100461864D01*
X63992002Y-100527621D01*
X63992000Y-100528391D01*
X63991748Y-100569621D01*
X60000000Y-100569621D01*
X60000000Y-81169622D01*
X63991748Y-81169622D01*
X63991986Y-81170454D01*
X63992002Y-81170692D01*
X63992002Y-95127621D01*
X63992000Y-95128391D01*
X63991748Y-95169621D01*
X63994214Y-95178249D01*
X63994214Y-95178250D01*
X63999861Y-95198012D01*
X64003438Y-95214769D01*
X64005801Y-95231263D01*
X64007622Y-95243981D01*
X64011337Y-95252151D01*
X64011338Y-95252155D01*
X64018226Y-95267304D01*
X64024675Y-95284832D01*
X64029250Y-95300841D01*
X64029253Y-95300848D01*
X64031718Y-95309473D01*
X64047474Y-95334444D01*
X64055607Y-95349518D01*
X64067824Y-95376388D01*
X64082326Y-95393219D01*
X64084552Y-95395802D01*
X64095656Y-95410809D01*
X64109333Y-95432485D01*
X64121346Y-95443094D01*
X64131455Y-95452022D01*
X64143502Y-95464218D01*
X64156907Y-95479776D01*
X64156911Y-95479779D01*
X64162768Y-95486577D01*
X64170297Y-95491457D01*
X64170298Y-95491458D01*
X64184273Y-95500516D01*
X64199147Y-95511806D01*
X64218353Y-95528768D01*
X64245079Y-95541316D01*
X64260050Y-95549632D01*
X64284823Y-95565689D01*
X64293427Y-95568262D01*
X64293429Y-95568263D01*
X64309379Y-95573033D01*
X64326824Y-95579695D01*
X64341889Y-95586768D01*
X64341891Y-95586768D01*
X64350015Y-95590583D01*
X64358879Y-95591963D01*
X64358888Y-95591966D01*
X64379182Y-95595126D01*
X64395893Y-95598907D01*
X64415574Y-95604792D01*
X64415577Y-95604792D01*
X64424176Y-95607364D01*
X64433148Y-95607419D01*
X64433149Y-95607419D01*
X64457000Y-95607565D01*
X64459840Y-95607683D01*
X64461867Y-95607999D01*
X64527624Y-95607999D01*
X64528394Y-95608001D01*
X64569624Y-95608253D01*
X64570456Y-95608015D01*
X64570694Y-95607999D01*
X78527624Y-95607999D01*
X78528394Y-95608001D01*
X78569624Y-95608253D01*
X78578253Y-95605787D01*
X78598015Y-95600140D01*
X78614772Y-95596563D01*
X78635099Y-95593652D01*
X78635102Y-95593651D01*
X78643984Y-95592379D01*
X78652154Y-95588664D01*
X78652158Y-95588663D01*
X78667307Y-95581775D01*
X78684835Y-95575326D01*
X78700844Y-95570751D01*
X78700851Y-95570748D01*
X78709476Y-95568283D01*
X78734447Y-95552527D01*
X78749521Y-95544394D01*
X78776391Y-95532177D01*
X78795805Y-95515449D01*
X78810812Y-95504345D01*
X78832488Y-95490668D01*
X78852028Y-95468543D01*
X78864221Y-95456499D01*
X78879779Y-95443094D01*
X78879782Y-95443090D01*
X78886580Y-95437233D01*
X78900519Y-95415728D01*
X78911809Y-95400854D01*
X78922828Y-95388377D01*
X78928771Y-95381648D01*
X78941319Y-95354922D01*
X78949635Y-95339951D01*
X78965692Y-95315178D01*
X78968266Y-95306572D01*
X78973036Y-95290622D01*
X78979698Y-95273177D01*
X78986771Y-95258112D01*
X78986771Y-95258110D01*
X78990586Y-95249986D01*
X78991966Y-95241122D01*
X78991969Y-95241113D01*
X78995129Y-95220819D01*
X78998910Y-95204108D01*
X79004795Y-95184427D01*
X79004795Y-95184424D01*
X79007367Y-95175825D01*
X79007470Y-95159060D01*
X79007568Y-95143001D01*
X79007686Y-95140161D01*
X79008002Y-95138134D01*
X79008002Y-95072377D01*
X79008004Y-95071607D01*
X79008241Y-95032816D01*
X79008256Y-95030377D01*
X79008018Y-95029545D01*
X79008002Y-95029307D01*
X79008002Y-81169622D01*
X83391748Y-81169622D01*
X83391986Y-81170454D01*
X83392002Y-81170692D01*
X83392002Y-95127621D01*
X83392000Y-95128391D01*
X83391748Y-95169621D01*
X83394214Y-95178249D01*
X83394214Y-95178250D01*
X83399861Y-95198012D01*
X83403438Y-95214769D01*
X83405801Y-95231263D01*
X83407622Y-95243981D01*
X83411337Y-95252151D01*
X83411338Y-95252155D01*
X83418226Y-95267304D01*
X83424675Y-95284832D01*
X83429250Y-95300841D01*
X83429253Y-95300848D01*
X83431718Y-95309473D01*
X83447474Y-95334444D01*
X83455607Y-95349518D01*
X83467824Y-95376388D01*
X83482326Y-95393219D01*
X83484552Y-95395802D01*
X83495656Y-95410809D01*
X83509333Y-95432485D01*
X83521346Y-95443094D01*
X83531455Y-95452022D01*
X83543502Y-95464218D01*
X83556907Y-95479776D01*
X83556911Y-95479779D01*
X83562768Y-95486577D01*
X83570297Y-95491457D01*
X83570298Y-95491458D01*
X83584273Y-95500516D01*
X83599147Y-95511806D01*
X83618353Y-95528768D01*
X83645079Y-95541316D01*
X83660050Y-95549632D01*
X83684823Y-95565689D01*
X83693427Y-95568262D01*
X83693429Y-95568263D01*
X83709379Y-95573033D01*
X83726824Y-95579695D01*
X83741889Y-95586768D01*
X83741891Y-95586768D01*
X83750015Y-95590583D01*
X83758879Y-95591963D01*
X83758888Y-95591966D01*
X83779182Y-95595126D01*
X83795893Y-95598907D01*
X83815574Y-95604792D01*
X83815577Y-95604792D01*
X83824176Y-95607364D01*
X83833148Y-95607419D01*
X83833149Y-95607419D01*
X83857000Y-95607565D01*
X83859840Y-95607683D01*
X83861867Y-95607999D01*
X83927624Y-95607999D01*
X83928394Y-95608001D01*
X83969624Y-95608253D01*
X83970456Y-95608015D01*
X83970694Y-95607999D01*
X97927623Y-95607999D01*
X97928393Y-95608001D01*
X97969623Y-95608253D01*
X97978252Y-95605787D01*
X97998014Y-95600140D01*
X98014771Y-95596563D01*
X98035098Y-95593652D01*
X98035101Y-95593651D01*
X98043983Y-95592379D01*
X98052153Y-95588664D01*
X98052157Y-95588663D01*
X98067306Y-95581775D01*
X98084834Y-95575326D01*
X98100843Y-95570751D01*
X98100850Y-95570748D01*
X98109475Y-95568283D01*
X98134446Y-95552527D01*
X98149520Y-95544394D01*
X98176390Y-95532177D01*
X98195804Y-95515449D01*
X98210811Y-95504345D01*
X98232487Y-95490668D01*
X98252027Y-95468543D01*
X98264220Y-95456499D01*
X98279778Y-95443094D01*
X98279781Y-95443090D01*
X98286579Y-95437233D01*
X98300518Y-95415728D01*
X98311808Y-95400854D01*
X98322827Y-95388377D01*
X98328770Y-95381648D01*
X98341318Y-95354922D01*
X98349634Y-95339951D01*
X98365691Y-95315178D01*
X98368265Y-95306572D01*
X98373035Y-95290622D01*
X98379697Y-95273177D01*
X98386770Y-95258112D01*
X98386770Y-95258110D01*
X98390585Y-95249986D01*
X98391965Y-95241122D01*
X98391968Y-95241113D01*
X98395128Y-95220819D01*
X98398909Y-95204108D01*
X98404794Y-95184427D01*
X98404794Y-95184424D01*
X98407366Y-95175825D01*
X98407469Y-95159060D01*
X98407567Y-95143001D01*
X98407685Y-95140161D01*
X98408001Y-95138134D01*
X98408001Y-95072377D01*
X98408003Y-95071607D01*
X98408240Y-95032816D01*
X98408255Y-95030377D01*
X98408017Y-95029545D01*
X98408001Y-95029307D01*
X98408001Y-81169622D01*
X102791747Y-81169622D01*
X102791985Y-81170454D01*
X102792001Y-81170692D01*
X102792001Y-95127621D01*
X102791999Y-95128391D01*
X102791747Y-95169621D01*
X102794213Y-95178249D01*
X102794213Y-95178250D01*
X102799860Y-95198012D01*
X102803437Y-95214769D01*
X102805800Y-95231263D01*
X102807621Y-95243981D01*
X102811336Y-95252151D01*
X102811337Y-95252155D01*
X102818225Y-95267304D01*
X102824674Y-95284832D01*
X102829249Y-95300841D01*
X102829252Y-95300848D01*
X102831717Y-95309473D01*
X102847473Y-95334444D01*
X102855606Y-95349518D01*
X102867823Y-95376388D01*
X102882325Y-95393219D01*
X102884551Y-95395802D01*
X102895655Y-95410809D01*
X102909332Y-95432485D01*
X102921345Y-95443094D01*
X102931454Y-95452022D01*
X102943501Y-95464218D01*
X102956906Y-95479776D01*
X102956910Y-95479779D01*
X102962767Y-95486577D01*
X102970296Y-95491457D01*
X102970297Y-95491458D01*
X102984272Y-95500516D01*
X102999146Y-95511806D01*
X103018352Y-95528768D01*
X103045078Y-95541316D01*
X103060049Y-95549632D01*
X103084822Y-95565689D01*
X103093426Y-95568262D01*
X103093428Y-95568263D01*
X103109378Y-95573033D01*
X103126823Y-95579695D01*
X103141888Y-95586768D01*
X103141890Y-95586768D01*
X103150014Y-95590583D01*
X103158878Y-95591963D01*
X103158887Y-95591966D01*
X103179181Y-95595126D01*
X103195892Y-95598907D01*
X103215573Y-95604792D01*
X103215576Y-95604792D01*
X103224175Y-95607364D01*
X103233147Y-95607419D01*
X103233148Y-95607419D01*
X103256999Y-95607565D01*
X103259839Y-95607683D01*
X103261866Y-95607999D01*
X103327623Y-95607999D01*
X103328393Y-95608001D01*
X103369623Y-95608253D01*
X103370455Y-95608015D01*
X103370693Y-95607999D01*
X117327622Y-95607999D01*
X117328392Y-95608001D01*
X117369622Y-95608253D01*
X117378251Y-95605787D01*
X117398013Y-95600140D01*
X117414770Y-95596563D01*
X117435097Y-95593652D01*
X117435100Y-95593651D01*
X117443982Y-95592379D01*
X117452152Y-95588664D01*
X117452156Y-95588663D01*
X117467305Y-95581775D01*
X117484833Y-95575326D01*
X117500842Y-95570751D01*
X117500849Y-95570748D01*
X117509474Y-95568283D01*
X117534445Y-95552527D01*
X117549519Y-95544394D01*
X117576389Y-95532177D01*
X117595803Y-95515449D01*
X117610810Y-95504345D01*
X117632486Y-95490668D01*
X117652026Y-95468543D01*
X117664219Y-95456499D01*
X117679777Y-95443094D01*
X117679780Y-95443090D01*
X117686578Y-95437233D01*
X117700517Y-95415728D01*
X117711807Y-95400854D01*
X117722826Y-95388377D01*
X117728769Y-95381648D01*
X117741317Y-95354922D01*
X117749633Y-95339951D01*
X117765690Y-95315178D01*
X117768264Y-95306572D01*
X117773034Y-95290622D01*
X117779696Y-95273177D01*
X117786769Y-95258112D01*
X117786769Y-95258110D01*
X117790584Y-95249986D01*
X117791964Y-95241122D01*
X117791967Y-95241113D01*
X117795127Y-95220819D01*
X117798908Y-95204108D01*
X117804793Y-95184427D01*
X117804793Y-95184424D01*
X117807365Y-95175825D01*
X117807468Y-95159060D01*
X117807566Y-95143001D01*
X117807684Y-95140161D01*
X117808000Y-95138134D01*
X117808000Y-95072377D01*
X117808002Y-95071607D01*
X117808239Y-95032816D01*
X117808254Y-95030377D01*
X117808016Y-95029545D01*
X117808000Y-95029307D01*
X117808000Y-81169622D01*
X122191746Y-81169622D01*
X122191984Y-81170454D01*
X122192000Y-81170692D01*
X122192000Y-95127621D01*
X122191998Y-95128391D01*
X122191746Y-95169621D01*
X122194212Y-95178249D01*
X122194212Y-95178250D01*
X122199859Y-95198012D01*
X122203436Y-95214769D01*
X122205799Y-95231263D01*
X122207620Y-95243981D01*
X122211335Y-95252151D01*
X122211336Y-95252155D01*
X122218224Y-95267304D01*
X122224673Y-95284832D01*
X122229248Y-95300841D01*
X122229251Y-95300848D01*
X122231716Y-95309473D01*
X122247472Y-95334444D01*
X122255605Y-95349518D01*
X122267822Y-95376388D01*
X122282324Y-95393219D01*
X122284550Y-95395802D01*
X122295654Y-95410809D01*
X122309331Y-95432485D01*
X122321344Y-95443094D01*
X122331453Y-95452022D01*
X122343500Y-95464218D01*
X122356905Y-95479776D01*
X122356909Y-95479779D01*
X122362766Y-95486577D01*
X122370295Y-95491457D01*
X122370296Y-95491458D01*
X122384271Y-95500516D01*
X122399145Y-95511806D01*
X122418351Y-95528768D01*
X122445077Y-95541316D01*
X122460048Y-95549632D01*
X122484821Y-95565689D01*
X122493425Y-95568262D01*
X122493427Y-95568263D01*
X122509377Y-95573033D01*
X122526822Y-95579695D01*
X122541887Y-95586768D01*
X122541889Y-95586768D01*
X122550013Y-95590583D01*
X122558877Y-95591963D01*
X122558886Y-95591966D01*
X122579180Y-95595126D01*
X122595891Y-95598907D01*
X122615572Y-95604792D01*
X122615575Y-95604792D01*
X122624174Y-95607364D01*
X122633146Y-95607419D01*
X122633147Y-95607419D01*
X122656998Y-95607565D01*
X122659838Y-95607683D01*
X122661865Y-95607999D01*
X122727622Y-95607999D01*
X122728392Y-95608001D01*
X122769622Y-95608253D01*
X122770454Y-95608015D01*
X122770692Y-95607999D01*
X136727620Y-95607999D01*
X136728390Y-95608001D01*
X136769620Y-95608253D01*
X136778249Y-95605787D01*
X136798011Y-95600140D01*
X136814768Y-95596563D01*
X136835095Y-95593652D01*
X136835098Y-95593651D01*
X136843980Y-95592379D01*
X136852150Y-95588664D01*
X136852154Y-95588663D01*
X136867303Y-95581775D01*
X136884831Y-95575326D01*
X136900840Y-95570751D01*
X136900847Y-95570748D01*
X136909472Y-95568283D01*
X136934443Y-95552527D01*
X136949517Y-95544394D01*
X136976387Y-95532177D01*
X136995801Y-95515449D01*
X137010808Y-95504345D01*
X137032484Y-95490668D01*
X137052024Y-95468543D01*
X137064217Y-95456499D01*
X137079775Y-95443094D01*
X137079778Y-95443090D01*
X137086576Y-95437233D01*
X137100515Y-95415728D01*
X137111805Y-95400854D01*
X137122824Y-95388377D01*
X137128767Y-95381648D01*
X137141315Y-95354922D01*
X137149631Y-95339951D01*
X137165688Y-95315178D01*
X137168262Y-95306572D01*
X137173032Y-95290622D01*
X137179694Y-95273177D01*
X137186767Y-95258112D01*
X137186767Y-95258110D01*
X137190582Y-95249986D01*
X137191962Y-95241122D01*
X137191965Y-95241113D01*
X137195125Y-95220819D01*
X137198906Y-95204108D01*
X137204791Y-95184427D01*
X137204791Y-95184424D01*
X137207363Y-95175825D01*
X137207466Y-95159060D01*
X137207564Y-95143001D01*
X137207682Y-95140161D01*
X137207998Y-95138134D01*
X137207998Y-95072377D01*
X137208000Y-95071607D01*
X137208237Y-95032816D01*
X137208252Y-95030377D01*
X137208014Y-95029545D01*
X137207998Y-95029307D01*
X137207998Y-81194622D01*
X141591744Y-81194622D01*
X141591982Y-81195454D01*
X141591998Y-81195692D01*
X141591998Y-95152621D01*
X141591996Y-95153391D01*
X141591744Y-95194621D01*
X141594210Y-95203249D01*
X141594210Y-95203250D01*
X141599857Y-95223012D01*
X141603434Y-95239769D01*
X141604898Y-95249986D01*
X141607618Y-95268981D01*
X141611333Y-95277151D01*
X141611334Y-95277155D01*
X141618222Y-95292304D01*
X141624671Y-95309832D01*
X141629246Y-95325841D01*
X141629249Y-95325848D01*
X141631714Y-95334473D01*
X141647470Y-95359444D01*
X141655603Y-95374518D01*
X141667820Y-95401388D01*
X141680176Y-95415728D01*
X141684548Y-95420802D01*
X141695652Y-95435809D01*
X141709329Y-95457485D01*
X141721342Y-95468094D01*
X141731451Y-95477022D01*
X141743498Y-95489218D01*
X141756903Y-95504776D01*
X141756907Y-95504779D01*
X141762764Y-95511577D01*
X141770293Y-95516457D01*
X141770294Y-95516458D01*
X141784269Y-95525516D01*
X141799143Y-95536806D01*
X141818349Y-95553768D01*
X141845075Y-95566316D01*
X141860046Y-95574632D01*
X141884819Y-95590689D01*
X141893423Y-95593262D01*
X141893425Y-95593263D01*
X141909375Y-95598033D01*
X141926820Y-95604695D01*
X141941885Y-95611768D01*
X141941887Y-95611768D01*
X141950011Y-95615583D01*
X141958875Y-95616963D01*
X141958884Y-95616966D01*
X141979178Y-95620126D01*
X141995889Y-95623907D01*
X142015570Y-95629792D01*
X142015573Y-95629792D01*
X142024172Y-95632364D01*
X142033144Y-95632419D01*
X142033145Y-95632419D01*
X142056996Y-95632565D01*
X142059836Y-95632683D01*
X142061863Y-95632999D01*
X142127620Y-95632999D01*
X142128390Y-95633001D01*
X142169620Y-95633253D01*
X142170452Y-95633015D01*
X142170690Y-95632999D01*
X156127620Y-95632999D01*
X156128390Y-95633001D01*
X156169620Y-95633253D01*
X156178249Y-95630787D01*
X156198011Y-95625140D01*
X156214768Y-95621563D01*
X156235095Y-95618652D01*
X156235098Y-95618651D01*
X156243980Y-95617379D01*
X156252150Y-95613664D01*
X156252154Y-95613663D01*
X156267303Y-95606775D01*
X156284831Y-95600326D01*
X156300840Y-95595751D01*
X156300847Y-95595748D01*
X156309472Y-95593283D01*
X156334443Y-95577527D01*
X156349517Y-95569394D01*
X156376387Y-95557177D01*
X156395801Y-95540449D01*
X156410808Y-95529345D01*
X156432484Y-95515668D01*
X156452024Y-95493543D01*
X156464217Y-95481499D01*
X156479775Y-95468094D01*
X156479778Y-95468090D01*
X156486576Y-95462233D01*
X156493195Y-95452022D01*
X156500515Y-95440728D01*
X156511805Y-95425854D01*
X156522824Y-95413377D01*
X156528767Y-95406648D01*
X156541315Y-95379922D01*
X156549631Y-95364951D01*
X156565688Y-95340178D01*
X156568262Y-95331572D01*
X156573032Y-95315622D01*
X156579694Y-95298177D01*
X156586767Y-95283112D01*
X156586767Y-95283110D01*
X156590582Y-95274986D01*
X156591962Y-95266122D01*
X156591965Y-95266113D01*
X156595125Y-95245819D01*
X156598906Y-95229108D01*
X156604791Y-95209427D01*
X156604791Y-95209424D01*
X156607363Y-95200825D01*
X156607564Y-95168001D01*
X156607682Y-95165161D01*
X156607998Y-95163134D01*
X156607998Y-95097377D01*
X156608000Y-95096607D01*
X156608237Y-95057816D01*
X156608252Y-95055377D01*
X156608014Y-95054545D01*
X156607998Y-95054307D01*
X156607998Y-81097378D01*
X156608000Y-81096608D01*
X156608035Y-81090939D01*
X156608252Y-81055378D01*
X156601899Y-81033147D01*
X156600139Y-81026987D01*
X156596562Y-81010230D01*
X156593651Y-80989903D01*
X156593650Y-80989900D01*
X156592378Y-80981018D01*
X156588663Y-80972848D01*
X156588662Y-80972844D01*
X156581774Y-80957695D01*
X156575325Y-80940167D01*
X156570750Y-80924158D01*
X156570747Y-80924151D01*
X156568282Y-80915526D01*
X156552526Y-80890555D01*
X156544393Y-80875481D01*
X156532176Y-80848611D01*
X156515448Y-80829197D01*
X156504344Y-80814190D01*
X156490667Y-80792514D01*
X156468542Y-80772974D01*
X156456498Y-80760781D01*
X156443093Y-80745223D01*
X156443089Y-80745220D01*
X156437232Y-80738422D01*
X156426481Y-80731453D01*
X156415727Y-80724483D01*
X156400853Y-80713193D01*
X156396480Y-80709331D01*
X156381647Y-80696231D01*
X156354921Y-80683683D01*
X156339950Y-80675367D01*
X156315177Y-80659310D01*
X156306573Y-80656737D01*
X156306571Y-80656736D01*
X156290621Y-80651966D01*
X156273176Y-80645304D01*
X156258111Y-80638231D01*
X156258109Y-80638231D01*
X156249985Y-80634416D01*
X156241121Y-80633036D01*
X156241112Y-80633033D01*
X156220818Y-80629873D01*
X156204107Y-80626092D01*
X156184426Y-80620207D01*
X156184423Y-80620207D01*
X156175824Y-80617635D01*
X156166852Y-80617580D01*
X156166851Y-80617580D01*
X156143000Y-80617434D01*
X156140160Y-80617316D01*
X156138133Y-80617000D01*
X156072376Y-80617000D01*
X156071606Y-80616998D01*
X156071050Y-80616995D01*
X156030376Y-80616746D01*
X156029544Y-80616984D01*
X156029306Y-80617000D01*
X142072376Y-80617000D01*
X142071606Y-80616998D01*
X142071350Y-80616996D01*
X142030376Y-80616746D01*
X142021748Y-80619212D01*
X142021747Y-80619212D01*
X142001985Y-80624859D01*
X141985228Y-80628436D01*
X141964901Y-80631347D01*
X141964898Y-80631348D01*
X141956016Y-80632620D01*
X141947846Y-80636335D01*
X141947842Y-80636336D01*
X141932693Y-80643224D01*
X141915165Y-80649673D01*
X141899156Y-80654248D01*
X141899149Y-80654251D01*
X141890524Y-80656716D01*
X141865553Y-80672472D01*
X141850479Y-80680605D01*
X141823609Y-80692822D01*
X141810007Y-80704542D01*
X141804195Y-80709550D01*
X141789188Y-80720654D01*
X141767512Y-80734331D01*
X141761570Y-80741059D01*
X141747975Y-80756453D01*
X141735779Y-80768500D01*
X141720221Y-80781905D01*
X141720218Y-80781909D01*
X141713420Y-80787766D01*
X141708540Y-80795295D01*
X141708539Y-80795296D01*
X141699481Y-80809271D01*
X141688191Y-80824145D01*
X141671229Y-80843351D01*
X141658681Y-80870077D01*
X141650365Y-80885048D01*
X141634308Y-80909821D01*
X141631735Y-80918425D01*
X141631734Y-80918427D01*
X141626964Y-80934377D01*
X141620302Y-80951822D01*
X141613229Y-80966887D01*
X141609414Y-80975013D01*
X141608034Y-80983877D01*
X141608031Y-80983886D01*
X141604871Y-81004180D01*
X141601090Y-81020891D01*
X141595571Y-81039349D01*
X141592633Y-81049174D01*
X141592578Y-81058146D01*
X141592578Y-81058147D01*
X141592432Y-81081998D01*
X141592314Y-81084838D01*
X141591998Y-81086865D01*
X141591998Y-81152622D01*
X141591996Y-81153392D01*
X141591744Y-81194622D01*
X137207998Y-81194622D01*
X137207998Y-81072378D01*
X137208000Y-81071608D01*
X137208044Y-81064349D01*
X137208252Y-81030378D01*
X137202494Y-81010230D01*
X137200139Y-81001987D01*
X137196562Y-80985230D01*
X137193651Y-80964903D01*
X137193650Y-80964900D01*
X137192378Y-80956018D01*
X137188663Y-80947848D01*
X137188662Y-80947844D01*
X137181774Y-80932695D01*
X137175325Y-80915167D01*
X137170750Y-80899158D01*
X137170747Y-80899151D01*
X137168282Y-80890526D01*
X137152526Y-80865555D01*
X137144393Y-80850481D01*
X137132176Y-80823611D01*
X137115448Y-80804197D01*
X137104344Y-80789190D01*
X137090667Y-80767514D01*
X137068542Y-80747974D01*
X137056498Y-80735781D01*
X137043093Y-80720223D01*
X137043089Y-80720220D01*
X137037232Y-80713422D01*
X137015727Y-80699483D01*
X137000853Y-80688193D01*
X136988376Y-80677174D01*
X136981647Y-80671231D01*
X136954921Y-80658683D01*
X136939950Y-80650367D01*
X136915177Y-80634310D01*
X136906573Y-80631737D01*
X136906571Y-80631736D01*
X136890621Y-80626966D01*
X136873176Y-80620304D01*
X136858111Y-80613231D01*
X136858109Y-80613231D01*
X136849985Y-80609416D01*
X136841121Y-80608036D01*
X136841112Y-80608033D01*
X136820818Y-80604873D01*
X136804107Y-80601092D01*
X136784426Y-80595207D01*
X136784423Y-80595207D01*
X136775824Y-80592635D01*
X136766852Y-80592580D01*
X136766851Y-80592580D01*
X136743000Y-80592434D01*
X136740160Y-80592316D01*
X136738133Y-80592000D01*
X136672376Y-80592000D01*
X136671606Y-80591998D01*
X136671050Y-80591995D01*
X136630376Y-80591746D01*
X136629544Y-80591984D01*
X136629306Y-80592000D01*
X122672378Y-80592000D01*
X122671608Y-80591998D01*
X122671352Y-80591996D01*
X122630378Y-80591746D01*
X122621750Y-80594212D01*
X122621749Y-80594212D01*
X122601987Y-80599859D01*
X122585230Y-80603436D01*
X122564903Y-80606347D01*
X122564900Y-80606348D01*
X122556018Y-80607620D01*
X122547848Y-80611335D01*
X122547844Y-80611336D01*
X122532695Y-80618224D01*
X122515167Y-80624673D01*
X122499158Y-80629248D01*
X122499151Y-80629251D01*
X122490526Y-80631716D01*
X122465555Y-80647472D01*
X122450481Y-80655605D01*
X122423611Y-80667822D01*
X122409435Y-80680037D01*
X122404197Y-80684550D01*
X122389190Y-80695654D01*
X122367514Y-80709331D01*
X122349665Y-80729542D01*
X122347977Y-80731453D01*
X122335781Y-80743500D01*
X122320223Y-80756905D01*
X122320220Y-80756909D01*
X122313422Y-80762766D01*
X122308542Y-80770295D01*
X122308541Y-80770296D01*
X122299483Y-80784271D01*
X122288193Y-80799145D01*
X122271231Y-80818351D01*
X122258683Y-80845077D01*
X122250367Y-80860048D01*
X122234310Y-80884821D01*
X122231737Y-80893425D01*
X122231736Y-80893427D01*
X122226966Y-80909377D01*
X122220304Y-80926822D01*
X122209416Y-80950013D01*
X122208036Y-80958877D01*
X122208033Y-80958886D01*
X122204873Y-80979180D01*
X122201092Y-80995891D01*
X122195207Y-81015572D01*
X122192635Y-81024174D01*
X122192580Y-81033146D01*
X122192580Y-81033147D01*
X122192434Y-81056998D01*
X122192316Y-81059838D01*
X122192000Y-81061865D01*
X122192000Y-81127622D01*
X122191998Y-81128392D01*
X122191746Y-81169622D01*
X117808000Y-81169622D01*
X117808000Y-81072378D01*
X117808002Y-81071608D01*
X117808046Y-81064349D01*
X117808254Y-81030378D01*
X117802496Y-81010230D01*
X117800141Y-81001987D01*
X117796564Y-80985230D01*
X117793653Y-80964903D01*
X117793652Y-80964900D01*
X117792380Y-80956018D01*
X117788665Y-80947848D01*
X117788664Y-80947844D01*
X117781776Y-80932695D01*
X117775327Y-80915167D01*
X117770752Y-80899158D01*
X117770749Y-80899151D01*
X117768284Y-80890526D01*
X117752528Y-80865555D01*
X117744395Y-80850481D01*
X117732178Y-80823611D01*
X117715450Y-80804197D01*
X117704346Y-80789190D01*
X117690669Y-80767514D01*
X117668544Y-80747974D01*
X117656500Y-80735781D01*
X117643095Y-80720223D01*
X117643091Y-80720220D01*
X117637234Y-80713422D01*
X117615729Y-80699483D01*
X117600855Y-80688193D01*
X117588378Y-80677174D01*
X117581649Y-80671231D01*
X117554923Y-80658683D01*
X117539952Y-80650367D01*
X117515179Y-80634310D01*
X117506575Y-80631737D01*
X117506573Y-80631736D01*
X117490623Y-80626966D01*
X117473178Y-80620304D01*
X117458113Y-80613231D01*
X117458111Y-80613231D01*
X117449987Y-80609416D01*
X117441123Y-80608036D01*
X117441114Y-80608033D01*
X117420820Y-80604873D01*
X117404109Y-80601092D01*
X117384428Y-80595207D01*
X117384425Y-80595207D01*
X117375826Y-80592635D01*
X117366854Y-80592580D01*
X117366853Y-80592580D01*
X117343002Y-80592434D01*
X117340162Y-80592316D01*
X117338135Y-80592000D01*
X117272378Y-80592000D01*
X117271608Y-80591998D01*
X117271052Y-80591995D01*
X117230378Y-80591746D01*
X117229546Y-80591984D01*
X117229308Y-80592000D01*
X103272379Y-80592000D01*
X103271609Y-80591998D01*
X103271353Y-80591996D01*
X103230379Y-80591746D01*
X103221751Y-80594212D01*
X103221750Y-80594212D01*
X103201988Y-80599859D01*
X103185231Y-80603436D01*
X103164904Y-80606347D01*
X103164901Y-80606348D01*
X103156019Y-80607620D01*
X103147849Y-80611335D01*
X103147845Y-80611336D01*
X103132696Y-80618224D01*
X103115168Y-80624673D01*
X103099159Y-80629248D01*
X103099152Y-80629251D01*
X103090527Y-80631716D01*
X103065556Y-80647472D01*
X103050482Y-80655605D01*
X103023612Y-80667822D01*
X103009436Y-80680037D01*
X103004198Y-80684550D01*
X102989191Y-80695654D01*
X102967515Y-80709331D01*
X102949666Y-80729542D01*
X102947978Y-80731453D01*
X102935782Y-80743500D01*
X102920224Y-80756905D01*
X102920221Y-80756909D01*
X102913423Y-80762766D01*
X102908543Y-80770295D01*
X102908542Y-80770296D01*
X102899484Y-80784271D01*
X102888194Y-80799145D01*
X102871232Y-80818351D01*
X102858684Y-80845077D01*
X102850368Y-80860048D01*
X102834311Y-80884821D01*
X102831738Y-80893425D01*
X102831737Y-80893427D01*
X102826967Y-80909377D01*
X102820305Y-80926822D01*
X102809417Y-80950013D01*
X102808037Y-80958877D01*
X102808034Y-80958886D01*
X102804874Y-80979180D01*
X102801093Y-80995891D01*
X102795208Y-81015572D01*
X102792636Y-81024174D01*
X102792581Y-81033146D01*
X102792581Y-81033147D01*
X102792435Y-81056998D01*
X102792317Y-81059838D01*
X102792001Y-81061865D01*
X102792001Y-81127622D01*
X102791999Y-81128392D01*
X102791747Y-81169622D01*
X98408001Y-81169622D01*
X98408001Y-81072378D01*
X98408003Y-81071608D01*
X98408047Y-81064349D01*
X98408255Y-81030378D01*
X98402497Y-81010230D01*
X98400142Y-81001987D01*
X98396565Y-80985230D01*
X98393654Y-80964903D01*
X98393653Y-80964900D01*
X98392381Y-80956018D01*
X98388666Y-80947848D01*
X98388665Y-80947844D01*
X98381777Y-80932695D01*
X98375328Y-80915167D01*
X98370753Y-80899158D01*
X98370750Y-80899151D01*
X98368285Y-80890526D01*
X98352529Y-80865555D01*
X98344396Y-80850481D01*
X98332179Y-80823611D01*
X98315451Y-80804197D01*
X98304347Y-80789190D01*
X98290670Y-80767514D01*
X98268545Y-80747974D01*
X98256501Y-80735781D01*
X98243096Y-80720223D01*
X98243092Y-80720220D01*
X98237235Y-80713422D01*
X98215730Y-80699483D01*
X98200856Y-80688193D01*
X98188379Y-80677174D01*
X98181650Y-80671231D01*
X98154924Y-80658683D01*
X98139953Y-80650367D01*
X98115180Y-80634310D01*
X98106576Y-80631737D01*
X98106574Y-80631736D01*
X98090624Y-80626966D01*
X98073179Y-80620304D01*
X98058114Y-80613231D01*
X98058112Y-80613231D01*
X98049988Y-80609416D01*
X98041124Y-80608036D01*
X98041115Y-80608033D01*
X98020821Y-80604873D01*
X98004110Y-80601092D01*
X97984429Y-80595207D01*
X97984426Y-80595207D01*
X97975827Y-80592635D01*
X97966855Y-80592580D01*
X97966854Y-80592580D01*
X97943003Y-80592434D01*
X97940163Y-80592316D01*
X97938136Y-80592000D01*
X97872379Y-80592000D01*
X97871609Y-80591998D01*
X97871053Y-80591995D01*
X97830379Y-80591746D01*
X97829547Y-80591984D01*
X97829309Y-80592000D01*
X83872380Y-80592000D01*
X83871610Y-80591998D01*
X83871354Y-80591996D01*
X83830380Y-80591746D01*
X83821752Y-80594212D01*
X83821751Y-80594212D01*
X83801989Y-80599859D01*
X83785232Y-80603436D01*
X83764905Y-80606347D01*
X83764902Y-80606348D01*
X83756020Y-80607620D01*
X83747850Y-80611335D01*
X83747846Y-80611336D01*
X83732697Y-80618224D01*
X83715169Y-80624673D01*
X83699160Y-80629248D01*
X83699153Y-80629251D01*
X83690528Y-80631716D01*
X83665557Y-80647472D01*
X83650483Y-80655605D01*
X83623613Y-80667822D01*
X83609437Y-80680037D01*
X83604199Y-80684550D01*
X83589192Y-80695654D01*
X83567516Y-80709331D01*
X83549667Y-80729542D01*
X83547979Y-80731453D01*
X83535783Y-80743500D01*
X83520225Y-80756905D01*
X83520222Y-80756909D01*
X83513424Y-80762766D01*
X83508544Y-80770295D01*
X83508543Y-80770296D01*
X83499485Y-80784271D01*
X83488195Y-80799145D01*
X83471233Y-80818351D01*
X83458685Y-80845077D01*
X83450369Y-80860048D01*
X83434312Y-80884821D01*
X83431739Y-80893425D01*
X83431738Y-80893427D01*
X83426968Y-80909377D01*
X83420306Y-80926822D01*
X83409418Y-80950013D01*
X83408038Y-80958877D01*
X83408035Y-80958886D01*
X83404875Y-80979180D01*
X83401094Y-80995891D01*
X83395209Y-81015572D01*
X83392637Y-81024174D01*
X83392582Y-81033146D01*
X83392582Y-81033147D01*
X83392436Y-81056998D01*
X83392318Y-81059838D01*
X83392002Y-81061865D01*
X83392002Y-81127622D01*
X83392000Y-81128392D01*
X83391748Y-81169622D01*
X79008002Y-81169622D01*
X79008002Y-81072378D01*
X79008004Y-81071608D01*
X79008048Y-81064349D01*
X79008256Y-81030378D01*
X79002498Y-81010230D01*
X79000143Y-81001987D01*
X78996566Y-80985230D01*
X78993655Y-80964903D01*
X78993654Y-80964900D01*
X78992382Y-80956018D01*
X78988667Y-80947848D01*
X78988666Y-80947844D01*
X78981778Y-80932695D01*
X78975329Y-80915167D01*
X78970754Y-80899158D01*
X78970751Y-80899151D01*
X78968286Y-80890526D01*
X78952530Y-80865555D01*
X78944397Y-80850481D01*
X78932180Y-80823611D01*
X78915452Y-80804197D01*
X78904348Y-80789190D01*
X78890671Y-80767514D01*
X78868546Y-80747974D01*
X78856502Y-80735781D01*
X78843097Y-80720223D01*
X78843093Y-80720220D01*
X78837236Y-80713422D01*
X78815731Y-80699483D01*
X78800857Y-80688193D01*
X78788380Y-80677174D01*
X78781651Y-80671231D01*
X78754925Y-80658683D01*
X78739954Y-80650367D01*
X78715181Y-80634310D01*
X78706577Y-80631737D01*
X78706575Y-80631736D01*
X78690625Y-80626966D01*
X78673180Y-80620304D01*
X78658115Y-80613231D01*
X78658113Y-80613231D01*
X78649989Y-80609416D01*
X78641125Y-80608036D01*
X78641116Y-80608033D01*
X78620822Y-80604873D01*
X78604111Y-80601092D01*
X78584430Y-80595207D01*
X78584427Y-80595207D01*
X78575828Y-80592635D01*
X78566856Y-80592580D01*
X78566855Y-80592580D01*
X78543004Y-80592434D01*
X78540164Y-80592316D01*
X78538137Y-80592000D01*
X78472380Y-80592000D01*
X78471610Y-80591998D01*
X78471054Y-80591995D01*
X78430380Y-80591746D01*
X78429548Y-80591984D01*
X78429310Y-80592000D01*
X64472380Y-80592000D01*
X64471610Y-80591998D01*
X64471354Y-80591996D01*
X64430380Y-80591746D01*
X64421752Y-80594212D01*
X64421751Y-80594212D01*
X64401989Y-80599859D01*
X64385232Y-80603436D01*
X64364905Y-80606347D01*
X64364902Y-80606348D01*
X64356020Y-80607620D01*
X64347850Y-80611335D01*
X64347846Y-80611336D01*
X64332697Y-80618224D01*
X64315169Y-80624673D01*
X64299160Y-80629248D01*
X64299153Y-80629251D01*
X64290528Y-80631716D01*
X64265557Y-80647472D01*
X64250483Y-80655605D01*
X64223613Y-80667822D01*
X64209437Y-80680037D01*
X64204199Y-80684550D01*
X64189192Y-80695654D01*
X64167516Y-80709331D01*
X64149667Y-80729542D01*
X64147979Y-80731453D01*
X64135783Y-80743500D01*
X64120225Y-80756905D01*
X64120222Y-80756909D01*
X64113424Y-80762766D01*
X64108544Y-80770295D01*
X64108543Y-80770296D01*
X64099485Y-80784271D01*
X64088195Y-80799145D01*
X64071233Y-80818351D01*
X64058685Y-80845077D01*
X64050369Y-80860048D01*
X64034312Y-80884821D01*
X64031739Y-80893425D01*
X64031738Y-80893427D01*
X64026968Y-80909377D01*
X64020306Y-80926822D01*
X64009418Y-80950013D01*
X64008038Y-80958877D01*
X64008035Y-80958886D01*
X64004875Y-80979180D01*
X64001094Y-80995891D01*
X63995209Y-81015572D01*
X63992637Y-81024174D01*
X63992582Y-81033146D01*
X63992582Y-81033147D01*
X63992436Y-81056998D01*
X63992318Y-81059838D01*
X63992002Y-81061865D01*
X63992002Y-81127622D01*
X63992000Y-81128392D01*
X63991748Y-81169622D01*
X60000000Y-81169622D01*
X60000000Y-61769622D01*
X63991748Y-61769622D01*
X63991986Y-61770454D01*
X63992002Y-61770692D01*
X63992002Y-75727622D01*
X63992000Y-75728392D01*
X63991748Y-75769622D01*
X63994214Y-75778250D01*
X63994214Y-75778251D01*
X63999861Y-75798013D01*
X64003438Y-75814770D01*
X64004305Y-75820820D01*
X64007622Y-75843982D01*
X64011337Y-75852152D01*
X64011338Y-75852156D01*
X64018226Y-75867305D01*
X64024675Y-75884833D01*
X64029250Y-75900842D01*
X64029253Y-75900849D01*
X64031718Y-75909474D01*
X64047474Y-75934445D01*
X64055607Y-75949519D01*
X64067824Y-75976389D01*
X64084552Y-75995803D01*
X64095656Y-76010810D01*
X64109333Y-76032486D01*
X64121346Y-76043095D01*
X64131455Y-76052023D01*
X64143502Y-76064219D01*
X64156907Y-76079777D01*
X64156911Y-76079780D01*
X64162768Y-76086578D01*
X64170297Y-76091458D01*
X64170298Y-76091459D01*
X64184273Y-76100517D01*
X64199147Y-76111807D01*
X64218353Y-76128769D01*
X64245079Y-76141317D01*
X64260050Y-76149633D01*
X64284823Y-76165690D01*
X64293427Y-76168263D01*
X64293429Y-76168264D01*
X64309379Y-76173034D01*
X64326824Y-76179696D01*
X64341889Y-76186769D01*
X64341891Y-76186769D01*
X64350015Y-76190584D01*
X64358879Y-76191964D01*
X64358888Y-76191967D01*
X64379182Y-76195127D01*
X64395893Y-76198908D01*
X64415574Y-76204793D01*
X64415577Y-76204793D01*
X64424176Y-76207365D01*
X64433148Y-76207420D01*
X64433149Y-76207420D01*
X64457000Y-76207566D01*
X64459840Y-76207684D01*
X64461867Y-76208000D01*
X64527624Y-76208000D01*
X64528394Y-76208002D01*
X64569624Y-76208254D01*
X64570456Y-76208016D01*
X64570694Y-76208000D01*
X78527624Y-76208000D01*
X78528394Y-76208002D01*
X78569624Y-76208254D01*
X78578253Y-76205788D01*
X78598015Y-76200141D01*
X78614772Y-76196564D01*
X78635099Y-76193653D01*
X78635102Y-76193652D01*
X78643984Y-76192380D01*
X78652154Y-76188665D01*
X78652158Y-76188664D01*
X78667307Y-76181776D01*
X78684835Y-76175327D01*
X78700844Y-76170752D01*
X78700851Y-76170749D01*
X78709476Y-76168284D01*
X78734447Y-76152528D01*
X78749521Y-76144395D01*
X78776391Y-76132178D01*
X78795805Y-76115450D01*
X78810812Y-76104346D01*
X78832488Y-76090669D01*
X78852028Y-76068544D01*
X78864221Y-76056500D01*
X78879779Y-76043095D01*
X78879782Y-76043091D01*
X78886580Y-76037234D01*
X78900519Y-76015729D01*
X78911809Y-76000855D01*
X78922828Y-75988378D01*
X78928771Y-75981649D01*
X78941319Y-75954923D01*
X78949635Y-75939952D01*
X78965692Y-75915179D01*
X78968266Y-75906573D01*
X78973036Y-75890623D01*
X78979698Y-75873178D01*
X78986771Y-75858113D01*
X78986771Y-75858111D01*
X78990586Y-75849987D01*
X78991966Y-75841123D01*
X78991969Y-75841114D01*
X78995129Y-75820820D01*
X78998910Y-75804109D01*
X79004795Y-75784428D01*
X79004795Y-75784425D01*
X79007367Y-75775826D01*
X79007568Y-75743002D01*
X79007686Y-75740162D01*
X79008002Y-75738135D01*
X79008002Y-75672378D01*
X79008004Y-75671608D01*
X79008241Y-75632817D01*
X79008256Y-75630378D01*
X79008018Y-75629546D01*
X79008002Y-75629308D01*
X79008002Y-61672378D01*
X79008004Y-61671608D01*
X79008039Y-61665939D01*
X79008256Y-61630378D01*
X79004025Y-61615572D01*
X79000143Y-61601987D01*
X78996566Y-61585230D01*
X78993655Y-61564903D01*
X78993654Y-61564900D01*
X78992382Y-61556018D01*
X78988667Y-61547848D01*
X78988666Y-61547844D01*
X78981778Y-61532695D01*
X78975329Y-61515167D01*
X78970754Y-61499158D01*
X78970751Y-61499151D01*
X78968286Y-61490526D01*
X78952530Y-61465555D01*
X78944397Y-61450481D01*
X78932180Y-61423611D01*
X78915452Y-61404197D01*
X78904348Y-61389190D01*
X78890671Y-61367514D01*
X78868546Y-61347974D01*
X78856502Y-61335781D01*
X78843097Y-61320223D01*
X78843093Y-61320220D01*
X78837236Y-61313422D01*
X78815731Y-61299483D01*
X78800857Y-61288193D01*
X78788380Y-61277174D01*
X78781651Y-61271231D01*
X78754925Y-61258683D01*
X78739954Y-61250367D01*
X78715181Y-61234310D01*
X78706577Y-61231737D01*
X78706575Y-61231736D01*
X78690625Y-61226966D01*
X78673180Y-61220304D01*
X78658115Y-61213231D01*
X78658113Y-61213231D01*
X78649989Y-61209416D01*
X78641125Y-61208036D01*
X78641116Y-61208033D01*
X78620822Y-61204873D01*
X78604111Y-61201092D01*
X78584430Y-61195207D01*
X78584427Y-61195207D01*
X78575828Y-61192635D01*
X78566856Y-61192580D01*
X78566855Y-61192580D01*
X78543004Y-61192434D01*
X78540164Y-61192316D01*
X78538137Y-61192000D01*
X78472380Y-61192000D01*
X78471610Y-61191998D01*
X78471054Y-61191995D01*
X78430380Y-61191746D01*
X78429548Y-61191984D01*
X78429310Y-61192000D01*
X64472380Y-61192000D01*
X64471610Y-61191998D01*
X64471354Y-61191996D01*
X64430380Y-61191746D01*
X64421752Y-61194212D01*
X64421751Y-61194212D01*
X64401989Y-61199859D01*
X64385232Y-61203436D01*
X64364905Y-61206347D01*
X64364902Y-61206348D01*
X64356020Y-61207620D01*
X64347850Y-61211335D01*
X64347846Y-61211336D01*
X64332697Y-61218224D01*
X64315169Y-61224673D01*
X64299160Y-61229248D01*
X64299153Y-61229251D01*
X64290528Y-61231716D01*
X64265557Y-61247472D01*
X64250483Y-61255605D01*
X64223613Y-61267822D01*
X64204199Y-61284550D01*
X64189192Y-61295654D01*
X64167516Y-61309331D01*
X64161574Y-61316059D01*
X64147979Y-61331453D01*
X64135783Y-61343500D01*
X64120225Y-61356905D01*
X64120222Y-61356909D01*
X64113424Y-61362766D01*
X64108544Y-61370295D01*
X64108543Y-61370296D01*
X64099485Y-61384271D01*
X64088195Y-61399145D01*
X64071233Y-61418351D01*
X64058685Y-61445077D01*
X64050369Y-61460048D01*
X64034312Y-61484821D01*
X64031739Y-61493425D01*
X64031738Y-61493427D01*
X64026968Y-61509377D01*
X64020306Y-61526822D01*
X64009418Y-61550013D01*
X64008038Y-61558877D01*
X64008035Y-61558886D01*
X64004875Y-61579180D01*
X64001094Y-61595891D01*
X63995209Y-61615572D01*
X63992637Y-61624174D01*
X63992582Y-61633146D01*
X63992582Y-61633147D01*
X63992436Y-61656998D01*
X63992318Y-61659838D01*
X63992002Y-61661865D01*
X63992002Y-61727622D01*
X63992000Y-61728392D01*
X63991748Y-61769622D01*
X60000000Y-61769622D01*
X60000000Y-42344623D01*
X63991748Y-42344623D01*
X63991986Y-42345455D01*
X63992002Y-42345693D01*
X63992002Y-56302623D01*
X63992000Y-56303393D01*
X63991748Y-56344623D01*
X63994214Y-56353251D01*
X63994214Y-56353252D01*
X63999861Y-56373014D01*
X64003438Y-56389771D01*
X64004305Y-56395821D01*
X64007622Y-56418983D01*
X64011337Y-56427153D01*
X64011338Y-56427157D01*
X64018226Y-56442306D01*
X64024675Y-56459834D01*
X64029250Y-56475843D01*
X64029253Y-56475850D01*
X64031718Y-56484475D01*
X64047474Y-56509446D01*
X64055607Y-56524520D01*
X64067824Y-56551390D01*
X64084552Y-56570804D01*
X64095656Y-56585811D01*
X64109333Y-56607487D01*
X64121346Y-56618096D01*
X64131455Y-56627024D01*
X64143502Y-56639220D01*
X64156907Y-56654778D01*
X64156911Y-56654781D01*
X64162768Y-56661579D01*
X64170297Y-56666459D01*
X64170298Y-56666460D01*
X64184273Y-56675518D01*
X64199147Y-56686808D01*
X64218353Y-56703770D01*
X64245079Y-56716318D01*
X64260050Y-56724634D01*
X64284823Y-56740691D01*
X64293427Y-56743264D01*
X64293429Y-56743265D01*
X64309379Y-56748035D01*
X64326824Y-56754697D01*
X64341889Y-56761770D01*
X64341891Y-56761770D01*
X64350015Y-56765585D01*
X64358879Y-56766965D01*
X64358888Y-56766968D01*
X64379182Y-56770128D01*
X64395893Y-56773909D01*
X64415574Y-56779794D01*
X64415577Y-56779794D01*
X64424176Y-56782366D01*
X64433148Y-56782421D01*
X64433149Y-56782421D01*
X64457000Y-56782567D01*
X64459840Y-56782685D01*
X64461867Y-56783001D01*
X64527624Y-56783001D01*
X64528394Y-56783003D01*
X64569624Y-56783255D01*
X64570456Y-56783017D01*
X64570694Y-56783001D01*
X78527624Y-56783001D01*
X78528394Y-56783003D01*
X78569624Y-56783255D01*
X78578253Y-56780789D01*
X78598015Y-56775142D01*
X78614772Y-56771565D01*
X78635099Y-56768654D01*
X78635102Y-56768653D01*
X78643984Y-56767381D01*
X78652154Y-56763666D01*
X78652158Y-56763665D01*
X78667307Y-56756777D01*
X78684835Y-56750328D01*
X78700844Y-56745753D01*
X78700851Y-56745750D01*
X78709476Y-56743285D01*
X78734447Y-56727529D01*
X78749521Y-56719396D01*
X78776391Y-56707179D01*
X78795805Y-56690451D01*
X78810812Y-56679347D01*
X78832488Y-56665670D01*
X78852028Y-56643545D01*
X78864221Y-56631501D01*
X78879779Y-56618096D01*
X78879782Y-56618092D01*
X78886580Y-56612235D01*
X78900519Y-56590730D01*
X78911809Y-56575856D01*
X78922828Y-56563379D01*
X78928771Y-56556650D01*
X78941319Y-56529924D01*
X78949635Y-56514953D01*
X78965692Y-56490180D01*
X78968266Y-56481574D01*
X78973036Y-56465624D01*
X78979698Y-56448179D01*
X78986771Y-56433114D01*
X78986771Y-56433112D01*
X78990586Y-56424988D01*
X78991966Y-56416124D01*
X78991969Y-56416115D01*
X78995129Y-56395821D01*
X78998910Y-56379110D01*
X79004795Y-56359429D01*
X79004795Y-56359426D01*
X79007367Y-56350827D01*
X79007568Y-56318003D01*
X79007686Y-56315163D01*
X79008002Y-56313136D01*
X79008002Y-56247379D01*
X79008004Y-56246609D01*
X79008241Y-56207818D01*
X79008256Y-56205379D01*
X79008018Y-56204547D01*
X79008002Y-56204309D01*
X79008002Y-49194623D01*
X82268908Y-49194623D01*
X82269146Y-49195455D01*
X82269162Y-49195693D01*
X82269162Y-71152622D01*
X82269160Y-71153392D01*
X82268908Y-71194622D01*
X82271374Y-71203250D01*
X82271374Y-71203251D01*
X82277021Y-71223013D01*
X82280598Y-71239770D01*
X82281465Y-71245820D01*
X82284782Y-71268982D01*
X82288497Y-71277152D01*
X82288498Y-71277156D01*
X82295386Y-71292305D01*
X82301835Y-71309833D01*
X82306410Y-71325842D01*
X82306413Y-71325849D01*
X82308878Y-71334474D01*
X82324634Y-71359445D01*
X82332767Y-71374519D01*
X82344984Y-71401389D01*
X82361712Y-71420803D01*
X82372816Y-71435810D01*
X82386493Y-71457486D01*
X82398506Y-71468095D01*
X82408615Y-71477023D01*
X82420662Y-71489219D01*
X82434067Y-71504777D01*
X82434071Y-71504780D01*
X82439928Y-71511578D01*
X82447457Y-71516458D01*
X82447458Y-71516459D01*
X82461433Y-71525517D01*
X82476307Y-71536807D01*
X82495513Y-71553769D01*
X82522239Y-71566317D01*
X82537210Y-71574633D01*
X82561983Y-71590690D01*
X82570587Y-71593263D01*
X82570589Y-71593264D01*
X82586539Y-71598034D01*
X82603984Y-71604696D01*
X82619049Y-71611769D01*
X82619051Y-71611769D01*
X82627175Y-71615584D01*
X82636039Y-71616964D01*
X82636048Y-71616967D01*
X82656342Y-71620127D01*
X82673053Y-71623908D01*
X82692734Y-71629793D01*
X82692737Y-71629793D01*
X82701336Y-71632365D01*
X82710308Y-71632420D01*
X82710309Y-71632420D01*
X82734160Y-71632566D01*
X82737000Y-71632684D01*
X82739027Y-71633000D01*
X82804784Y-71633000D01*
X82805554Y-71633002D01*
X82846784Y-71633254D01*
X82847616Y-71633016D01*
X82847854Y-71633000D01*
X118304782Y-71633000D01*
X118305552Y-71633002D01*
X118346782Y-71633254D01*
X118355411Y-71630788D01*
X118375173Y-71625141D01*
X118391930Y-71621564D01*
X118412257Y-71618653D01*
X118412260Y-71618652D01*
X118421142Y-71617380D01*
X118429312Y-71613665D01*
X118429316Y-71613664D01*
X118444465Y-71606776D01*
X118461993Y-71600327D01*
X118478002Y-71595752D01*
X118478009Y-71595749D01*
X118486634Y-71593284D01*
X118511605Y-71577528D01*
X118526679Y-71569395D01*
X118553549Y-71557178D01*
X118572963Y-71540450D01*
X118587970Y-71529346D01*
X118609646Y-71515669D01*
X118629186Y-71493544D01*
X118641379Y-71481500D01*
X118656937Y-71468095D01*
X118656940Y-71468091D01*
X118663738Y-71462234D01*
X118677677Y-71440729D01*
X118688967Y-71425855D01*
X118699986Y-71413378D01*
X118705929Y-71406649D01*
X118718477Y-71379923D01*
X118726793Y-71364952D01*
X118742850Y-71340179D01*
X118745424Y-71331573D01*
X118750194Y-71315623D01*
X118756856Y-71298178D01*
X118763929Y-71283113D01*
X118763929Y-71283111D01*
X118767744Y-71274987D01*
X118769124Y-71266123D01*
X118769127Y-71266114D01*
X118772287Y-71245820D01*
X118776068Y-71229109D01*
X118781953Y-71209428D01*
X118781953Y-71209425D01*
X118784525Y-71200826D01*
X118784726Y-71168002D01*
X118784844Y-71165162D01*
X118785160Y-71163135D01*
X118785160Y-71097378D01*
X118785162Y-71096608D01*
X118785399Y-71057817D01*
X118785414Y-71055378D01*
X118785176Y-71054546D01*
X118785160Y-71054308D01*
X118785160Y-61769622D01*
X122191746Y-61769622D01*
X122191984Y-61770454D01*
X122192000Y-61770692D01*
X122192000Y-75727622D01*
X122191998Y-75728392D01*
X122191746Y-75769622D01*
X122194212Y-75778250D01*
X122194212Y-75778251D01*
X122199859Y-75798013D01*
X122203436Y-75814770D01*
X122204303Y-75820820D01*
X122207620Y-75843982D01*
X122211335Y-75852152D01*
X122211336Y-75852156D01*
X122218224Y-75867305D01*
X122224673Y-75884833D01*
X122229248Y-75900842D01*
X122229251Y-75900849D01*
X122231716Y-75909474D01*
X122247472Y-75934445D01*
X122255605Y-75949519D01*
X122267822Y-75976389D01*
X122284550Y-75995803D01*
X122295654Y-76010810D01*
X122309331Y-76032486D01*
X122321344Y-76043095D01*
X122331453Y-76052023D01*
X122343500Y-76064219D01*
X122356905Y-76079777D01*
X122356909Y-76079780D01*
X122362766Y-76086578D01*
X122370295Y-76091458D01*
X122370296Y-76091459D01*
X122384271Y-76100517D01*
X122399145Y-76111807D01*
X122418351Y-76128769D01*
X122445077Y-76141317D01*
X122460048Y-76149633D01*
X122484821Y-76165690D01*
X122493425Y-76168263D01*
X122493427Y-76168264D01*
X122509377Y-76173034D01*
X122526822Y-76179696D01*
X122541887Y-76186769D01*
X122541889Y-76186769D01*
X122550013Y-76190584D01*
X122558877Y-76191964D01*
X122558886Y-76191967D01*
X122579180Y-76195127D01*
X122595891Y-76198908D01*
X122615572Y-76204793D01*
X122615575Y-76204793D01*
X122624174Y-76207365D01*
X122633146Y-76207420D01*
X122633147Y-76207420D01*
X122656998Y-76207566D01*
X122659838Y-76207684D01*
X122661865Y-76208000D01*
X122727622Y-76208000D01*
X122728392Y-76208002D01*
X122769622Y-76208254D01*
X122770454Y-76208016D01*
X122770692Y-76208000D01*
X136727620Y-76208000D01*
X136728390Y-76208002D01*
X136769620Y-76208254D01*
X136778249Y-76205788D01*
X136798011Y-76200141D01*
X136814768Y-76196564D01*
X136835095Y-76193653D01*
X136835098Y-76193652D01*
X136843980Y-76192380D01*
X136852150Y-76188665D01*
X136852154Y-76188664D01*
X136867303Y-76181776D01*
X136884831Y-76175327D01*
X136900840Y-76170752D01*
X136900847Y-76170749D01*
X136909472Y-76168284D01*
X136934443Y-76152528D01*
X136949517Y-76144395D01*
X136976387Y-76132178D01*
X136995801Y-76115450D01*
X137010808Y-76104346D01*
X137032484Y-76090669D01*
X137052024Y-76068544D01*
X137064217Y-76056500D01*
X137079775Y-76043095D01*
X137079778Y-76043091D01*
X137086576Y-76037234D01*
X137100515Y-76015729D01*
X137111805Y-76000855D01*
X137122824Y-75988378D01*
X137128767Y-75981649D01*
X137141315Y-75954923D01*
X137149631Y-75939952D01*
X137165688Y-75915179D01*
X137168262Y-75906573D01*
X137173032Y-75890623D01*
X137179694Y-75873178D01*
X137186767Y-75858113D01*
X137186767Y-75858111D01*
X137190582Y-75849987D01*
X137191962Y-75841123D01*
X137191965Y-75841114D01*
X137195125Y-75820820D01*
X137198906Y-75804109D01*
X137204791Y-75784428D01*
X137204791Y-75784425D01*
X137207363Y-75775826D01*
X137207564Y-75743002D01*
X137207682Y-75740162D01*
X137207998Y-75738135D01*
X137207998Y-75672378D01*
X137208000Y-75671608D01*
X137208237Y-75632817D01*
X137208252Y-75630378D01*
X137208014Y-75629546D01*
X137207998Y-75629308D01*
X137207998Y-61769622D01*
X141591744Y-61769622D01*
X141591982Y-61770454D01*
X141591998Y-61770692D01*
X141591998Y-75727622D01*
X141591996Y-75728392D01*
X141591744Y-75769622D01*
X141594210Y-75778250D01*
X141594210Y-75778251D01*
X141599857Y-75798013D01*
X141603434Y-75814770D01*
X141604301Y-75820820D01*
X141607618Y-75843982D01*
X141611333Y-75852152D01*
X141611334Y-75852156D01*
X141618222Y-75867305D01*
X141624671Y-75884833D01*
X141629246Y-75900842D01*
X141629249Y-75900849D01*
X141631714Y-75909474D01*
X141647470Y-75934445D01*
X141655603Y-75949519D01*
X141667820Y-75976389D01*
X141684548Y-75995803D01*
X141695652Y-76010810D01*
X141709329Y-76032486D01*
X141721342Y-76043095D01*
X141731451Y-76052023D01*
X141743498Y-76064219D01*
X141756903Y-76079777D01*
X141756907Y-76079780D01*
X141762764Y-76086578D01*
X141770293Y-76091458D01*
X141770294Y-76091459D01*
X141784269Y-76100517D01*
X141799143Y-76111807D01*
X141818349Y-76128769D01*
X141845075Y-76141317D01*
X141860046Y-76149633D01*
X141884819Y-76165690D01*
X141893423Y-76168263D01*
X141893425Y-76168264D01*
X141909375Y-76173034D01*
X141926820Y-76179696D01*
X141941885Y-76186769D01*
X141941887Y-76186769D01*
X141950011Y-76190584D01*
X141958875Y-76191964D01*
X141958884Y-76191967D01*
X141979178Y-76195127D01*
X141995889Y-76198908D01*
X142015570Y-76204793D01*
X142015573Y-76204793D01*
X142024172Y-76207365D01*
X142033144Y-76207420D01*
X142033145Y-76207420D01*
X142056996Y-76207566D01*
X142059836Y-76207684D01*
X142061863Y-76208000D01*
X142127620Y-76208000D01*
X142128390Y-76208002D01*
X142169620Y-76208254D01*
X142170452Y-76208016D01*
X142170690Y-76208000D01*
X156127620Y-76208000D01*
X156128390Y-76208002D01*
X156169620Y-76208254D01*
X156178249Y-76205788D01*
X156198011Y-76200141D01*
X156214768Y-76196564D01*
X156235095Y-76193653D01*
X156235098Y-76193652D01*
X156243980Y-76192380D01*
X156252150Y-76188665D01*
X156252154Y-76188664D01*
X156267303Y-76181776D01*
X156284831Y-76175327D01*
X156300840Y-76170752D01*
X156300847Y-76170749D01*
X156309472Y-76168284D01*
X156334443Y-76152528D01*
X156349517Y-76144395D01*
X156376387Y-76132178D01*
X156395801Y-76115450D01*
X156410808Y-76104346D01*
X156432484Y-76090669D01*
X156452024Y-76068544D01*
X156464217Y-76056500D01*
X156479775Y-76043095D01*
X156479778Y-76043091D01*
X156486576Y-76037234D01*
X156500515Y-76015729D01*
X156511805Y-76000855D01*
X156522824Y-75988378D01*
X156528767Y-75981649D01*
X156541315Y-75954923D01*
X156549631Y-75939952D01*
X156565688Y-75915179D01*
X156568262Y-75906573D01*
X156573032Y-75890623D01*
X156579694Y-75873178D01*
X156586767Y-75858113D01*
X156586767Y-75858111D01*
X156590582Y-75849987D01*
X156591962Y-75841123D01*
X156591965Y-75841114D01*
X156595125Y-75820820D01*
X156598906Y-75804109D01*
X156604791Y-75784428D01*
X156604791Y-75784425D01*
X156607363Y-75775826D01*
X156607564Y-75743002D01*
X156607682Y-75740162D01*
X156607998Y-75738135D01*
X156607998Y-75672378D01*
X156608000Y-75671608D01*
X156608237Y-75632817D01*
X156608252Y-75630378D01*
X156608014Y-75629546D01*
X156607998Y-75629308D01*
X156607998Y-61672378D01*
X156608000Y-61671608D01*
X156608035Y-61665939D01*
X156608252Y-61630378D01*
X156604021Y-61615572D01*
X156600139Y-61601987D01*
X156596562Y-61585230D01*
X156593651Y-61564903D01*
X156593650Y-61564900D01*
X156592378Y-61556018D01*
X156588663Y-61547848D01*
X156588662Y-61547844D01*
X156581774Y-61532695D01*
X156575325Y-61515167D01*
X156570750Y-61499158D01*
X156570747Y-61499151D01*
X156568282Y-61490526D01*
X156552526Y-61465555D01*
X156544393Y-61450481D01*
X156532176Y-61423611D01*
X156515448Y-61404197D01*
X156504344Y-61389190D01*
X156490667Y-61367514D01*
X156468542Y-61347974D01*
X156456498Y-61335781D01*
X156443093Y-61320223D01*
X156443089Y-61320220D01*
X156437232Y-61313422D01*
X156415727Y-61299483D01*
X156400853Y-61288193D01*
X156388376Y-61277174D01*
X156381647Y-61271231D01*
X156354921Y-61258683D01*
X156339950Y-61250367D01*
X156315177Y-61234310D01*
X156306573Y-61231737D01*
X156306571Y-61231736D01*
X156290621Y-61226966D01*
X156273176Y-61220304D01*
X156258111Y-61213231D01*
X156258109Y-61213231D01*
X156249985Y-61209416D01*
X156241121Y-61208036D01*
X156241112Y-61208033D01*
X156220818Y-61204873D01*
X156204107Y-61201092D01*
X156184426Y-61195207D01*
X156184423Y-61195207D01*
X156175824Y-61192635D01*
X156166852Y-61192580D01*
X156166851Y-61192580D01*
X156143000Y-61192434D01*
X156140160Y-61192316D01*
X156138133Y-61192000D01*
X156072376Y-61192000D01*
X156071606Y-61191998D01*
X156071050Y-61191995D01*
X156030376Y-61191746D01*
X156029544Y-61191984D01*
X156029306Y-61192000D01*
X142072376Y-61192000D01*
X142071606Y-61191998D01*
X142071350Y-61191996D01*
X142030376Y-61191746D01*
X142021748Y-61194212D01*
X142021747Y-61194212D01*
X142001985Y-61199859D01*
X141985228Y-61203436D01*
X141964901Y-61206347D01*
X141964898Y-61206348D01*
X141956016Y-61207620D01*
X141947846Y-61211335D01*
X141947842Y-61211336D01*
X141932693Y-61218224D01*
X141915165Y-61224673D01*
X141899156Y-61229248D01*
X141899149Y-61229251D01*
X141890524Y-61231716D01*
X141865553Y-61247472D01*
X141850479Y-61255605D01*
X141823609Y-61267822D01*
X141804195Y-61284550D01*
X141789188Y-61295654D01*
X141767512Y-61309331D01*
X141761570Y-61316059D01*
X141747975Y-61331453D01*
X141735779Y-61343500D01*
X141720221Y-61356905D01*
X141720218Y-61356909D01*
X141713420Y-61362766D01*
X141708540Y-61370295D01*
X141708539Y-61370296D01*
X141699481Y-61384271D01*
X141688191Y-61399145D01*
X141671229Y-61418351D01*
X141658681Y-61445077D01*
X141650365Y-61460048D01*
X141634308Y-61484821D01*
X141631735Y-61493425D01*
X141631734Y-61493427D01*
X141626964Y-61509377D01*
X141620302Y-61526822D01*
X141609414Y-61550013D01*
X141608034Y-61558877D01*
X141608031Y-61558886D01*
X141604871Y-61579180D01*
X141601090Y-61595891D01*
X141595205Y-61615572D01*
X141592633Y-61624174D01*
X141592578Y-61633146D01*
X141592578Y-61633147D01*
X141592432Y-61656998D01*
X141592314Y-61659838D01*
X141591998Y-61661865D01*
X141591998Y-61727622D01*
X141591996Y-61728392D01*
X141591744Y-61769622D01*
X137207998Y-61769622D01*
X137207998Y-61672378D01*
X137208000Y-61671608D01*
X137208035Y-61665939D01*
X137208252Y-61630378D01*
X137204021Y-61615572D01*
X137200139Y-61601987D01*
X137196562Y-61585230D01*
X137193651Y-61564903D01*
X137193650Y-61564900D01*
X137192378Y-61556018D01*
X137188663Y-61547848D01*
X137188662Y-61547844D01*
X137181774Y-61532695D01*
X137175325Y-61515167D01*
X137170750Y-61499158D01*
X137170747Y-61499151D01*
X137168282Y-61490526D01*
X137152526Y-61465555D01*
X137144393Y-61450481D01*
X137132176Y-61423611D01*
X137115448Y-61404197D01*
X137104344Y-61389190D01*
X137090667Y-61367514D01*
X137068542Y-61347974D01*
X137056498Y-61335781D01*
X137043093Y-61320223D01*
X137043089Y-61320220D01*
X137037232Y-61313422D01*
X137015727Y-61299483D01*
X137000853Y-61288193D01*
X136988376Y-61277174D01*
X136981647Y-61271231D01*
X136954921Y-61258683D01*
X136939950Y-61250367D01*
X136915177Y-61234310D01*
X136906573Y-61231737D01*
X136906571Y-61231736D01*
X136890621Y-61226966D01*
X136873176Y-61220304D01*
X136858111Y-61213231D01*
X136858109Y-61213231D01*
X136849985Y-61209416D01*
X136841121Y-61208036D01*
X136841112Y-61208033D01*
X136820818Y-61204873D01*
X136804107Y-61201092D01*
X136784426Y-61195207D01*
X136784423Y-61195207D01*
X136775824Y-61192635D01*
X136766852Y-61192580D01*
X136766851Y-61192580D01*
X136743000Y-61192434D01*
X136740160Y-61192316D01*
X136738133Y-61192000D01*
X136672376Y-61192000D01*
X136671606Y-61191998D01*
X136671050Y-61191995D01*
X136630376Y-61191746D01*
X136629544Y-61191984D01*
X136629306Y-61192000D01*
X122672378Y-61192000D01*
X122671608Y-61191998D01*
X122671352Y-61191996D01*
X122630378Y-61191746D01*
X122621750Y-61194212D01*
X122621749Y-61194212D01*
X122601987Y-61199859D01*
X122585230Y-61203436D01*
X122564903Y-61206347D01*
X122564900Y-61206348D01*
X122556018Y-61207620D01*
X122547848Y-61211335D01*
X122547844Y-61211336D01*
X122532695Y-61218224D01*
X122515167Y-61224673D01*
X122499158Y-61229248D01*
X122499151Y-61229251D01*
X122490526Y-61231716D01*
X122465555Y-61247472D01*
X122450481Y-61255605D01*
X122423611Y-61267822D01*
X122404197Y-61284550D01*
X122389190Y-61295654D01*
X122367514Y-61309331D01*
X122361572Y-61316059D01*
X122347977Y-61331453D01*
X122335781Y-61343500D01*
X122320223Y-61356905D01*
X122320220Y-61356909D01*
X122313422Y-61362766D01*
X122308542Y-61370295D01*
X122308541Y-61370296D01*
X122299483Y-61384271D01*
X122288193Y-61399145D01*
X122271231Y-61418351D01*
X122258683Y-61445077D01*
X122250367Y-61460048D01*
X122234310Y-61484821D01*
X122231737Y-61493425D01*
X122231736Y-61493427D01*
X122226966Y-61509377D01*
X122220304Y-61526822D01*
X122209416Y-61550013D01*
X122208036Y-61558877D01*
X122208033Y-61558886D01*
X122204873Y-61579180D01*
X122201092Y-61595891D01*
X122195207Y-61615572D01*
X122192635Y-61624174D01*
X122192580Y-61633146D01*
X122192580Y-61633147D01*
X122192434Y-61656998D01*
X122192316Y-61659838D01*
X122192000Y-61661865D01*
X122192000Y-61727622D01*
X122191998Y-61728392D01*
X122191746Y-61769622D01*
X118785160Y-61769622D01*
X118785160Y-49097379D01*
X118785162Y-49096609D01*
X118785197Y-49090940D01*
X118785414Y-49055379D01*
X118781183Y-49040573D01*
X118777301Y-49026988D01*
X118773724Y-49010231D01*
X118770813Y-48989904D01*
X118770812Y-48989901D01*
X118769540Y-48981019D01*
X118765825Y-48972849D01*
X118765824Y-48972845D01*
X118758936Y-48957696D01*
X118752487Y-48940168D01*
X118747912Y-48924159D01*
X118747909Y-48924152D01*
X118745444Y-48915527D01*
X118729688Y-48890556D01*
X118721555Y-48875482D01*
X118709338Y-48848612D01*
X118692610Y-48829198D01*
X118681506Y-48814191D01*
X118667829Y-48792515D01*
X118645704Y-48772975D01*
X118633660Y-48760782D01*
X118620255Y-48745224D01*
X118620251Y-48745221D01*
X118614394Y-48738423D01*
X118592889Y-48724484D01*
X118578015Y-48713194D01*
X118565538Y-48702175D01*
X118558809Y-48696232D01*
X118532083Y-48683684D01*
X118517112Y-48675368D01*
X118492339Y-48659311D01*
X118483735Y-48656738D01*
X118483733Y-48656737D01*
X118467783Y-48651967D01*
X118450338Y-48645305D01*
X118435273Y-48638232D01*
X118435271Y-48638232D01*
X118427147Y-48634417D01*
X118418283Y-48633037D01*
X118418274Y-48633034D01*
X118397980Y-48629874D01*
X118381269Y-48626093D01*
X118361588Y-48620208D01*
X118361585Y-48620208D01*
X118352986Y-48617636D01*
X118344014Y-48617581D01*
X118344013Y-48617581D01*
X118320162Y-48617435D01*
X118317322Y-48617317D01*
X118315295Y-48617001D01*
X118249538Y-48617001D01*
X118248768Y-48616999D01*
X118248212Y-48616996D01*
X118207538Y-48616747D01*
X118206706Y-48616985D01*
X118206468Y-48617001D01*
X82749540Y-48617001D01*
X82748770Y-48616999D01*
X82748514Y-48616997D01*
X82707540Y-48616747D01*
X82698912Y-48619213D01*
X82698911Y-48619213D01*
X82679149Y-48624860D01*
X82662392Y-48628437D01*
X82642065Y-48631348D01*
X82642062Y-48631349D01*
X82633180Y-48632621D01*
X82625010Y-48636336D01*
X82625006Y-48636337D01*
X82609857Y-48643225D01*
X82592329Y-48649674D01*
X82576320Y-48654249D01*
X82576313Y-48654252D01*
X82567688Y-48656717D01*
X82542717Y-48672473D01*
X82527643Y-48680606D01*
X82500773Y-48692823D01*
X82481359Y-48709551D01*
X82466352Y-48720655D01*
X82444676Y-48734332D01*
X82438734Y-48741060D01*
X82425139Y-48756454D01*
X82412943Y-48768501D01*
X82397385Y-48781906D01*
X82397382Y-48781910D01*
X82390584Y-48787767D01*
X82385704Y-48795296D01*
X82385703Y-48795297D01*
X82376645Y-48809272D01*
X82365355Y-48824146D01*
X82348393Y-48843352D01*
X82335845Y-48870078D01*
X82327529Y-48885049D01*
X82311472Y-48909822D01*
X82308899Y-48918426D01*
X82308898Y-48918428D01*
X82304128Y-48934378D01*
X82297466Y-48951823D01*
X82286578Y-48975014D01*
X82285198Y-48983878D01*
X82285195Y-48983887D01*
X82282035Y-49004181D01*
X82278254Y-49020892D01*
X82272369Y-49040573D01*
X82269797Y-49049175D01*
X82269742Y-49058147D01*
X82269742Y-49058148D01*
X82269596Y-49081999D01*
X82269478Y-49084839D01*
X82269162Y-49086866D01*
X82269162Y-49152623D01*
X82269160Y-49153393D01*
X82268908Y-49194623D01*
X79008002Y-49194623D01*
X79008002Y-47688642D01*
X79486579Y-47688642D01*
X79504277Y-47869136D01*
X79561523Y-48041224D01*
X79655472Y-48196353D01*
X79781456Y-48326813D01*
X79787348Y-48330668D01*
X79787352Y-48330672D01*
X79819311Y-48351585D01*
X79933211Y-48426119D01*
X80103197Y-48489336D01*
X80110178Y-48490267D01*
X80110180Y-48490268D01*
X80159766Y-48496884D01*
X80282963Y-48513322D01*
X80289974Y-48512684D01*
X80289978Y-48512684D01*
X80430059Y-48499934D01*
X80463577Y-48496884D01*
X80470279Y-48494706D01*
X80470281Y-48494706D01*
X80629361Y-48443018D01*
X80629364Y-48443017D01*
X80636060Y-48440841D01*
X80791841Y-48347977D01*
X80923177Y-48222908D01*
X81023540Y-48071849D01*
X81087942Y-47902309D01*
X81113183Y-47722714D01*
X81113500Y-47700000D01*
X81093284Y-47519770D01*
X81033641Y-47348498D01*
X80937535Y-47194696D01*
X80928745Y-47185844D01*
X80814710Y-47071012D01*
X80809742Y-47066009D01*
X80656615Y-46968831D01*
X80485763Y-46907994D01*
X80478771Y-46907160D01*
X80478770Y-46907160D01*
X80395721Y-46897257D01*
X80305679Y-46886520D01*
X80298676Y-46887256D01*
X80298675Y-46887256D01*
X80132321Y-46904740D01*
X80132317Y-46904741D01*
X80125313Y-46905477D01*
X80118642Y-46907748D01*
X79960299Y-46961652D01*
X79960296Y-46961653D01*
X79953629Y-46963923D01*
X79799159Y-47058953D01*
X79669583Y-47185844D01*
X79571338Y-47338289D01*
X79549958Y-47397032D01*
X79511720Y-47502089D01*
X79511719Y-47502093D01*
X79509310Y-47508712D01*
X79486579Y-47688642D01*
X79008002Y-47688642D01*
X79008002Y-42344623D01*
X122141746Y-42344623D01*
X122141984Y-42345455D01*
X122142000Y-42345693D01*
X122142000Y-56302623D01*
X122141998Y-56303393D01*
X122141746Y-56344623D01*
X122144212Y-56353251D01*
X122144212Y-56353252D01*
X122149859Y-56373014D01*
X122153436Y-56389771D01*
X122154303Y-56395821D01*
X122157620Y-56418983D01*
X122161335Y-56427153D01*
X122161336Y-56427157D01*
X122168224Y-56442306D01*
X122174673Y-56459834D01*
X122179248Y-56475843D01*
X122179251Y-56475850D01*
X122181716Y-56484475D01*
X122197472Y-56509446D01*
X122205605Y-56524520D01*
X122217822Y-56551390D01*
X122234550Y-56570804D01*
X122245654Y-56585811D01*
X122259331Y-56607487D01*
X122271344Y-56618096D01*
X122281453Y-56627024D01*
X122293500Y-56639220D01*
X122306905Y-56654778D01*
X122306909Y-56654781D01*
X122312766Y-56661579D01*
X122320295Y-56666459D01*
X122320296Y-56666460D01*
X122334271Y-56675518D01*
X122349145Y-56686808D01*
X122368351Y-56703770D01*
X122395077Y-56716318D01*
X122410048Y-56724634D01*
X122434821Y-56740691D01*
X122443425Y-56743264D01*
X122443427Y-56743265D01*
X122459377Y-56748035D01*
X122476822Y-56754697D01*
X122491887Y-56761770D01*
X122491889Y-56761770D01*
X122500013Y-56765585D01*
X122508877Y-56766965D01*
X122508886Y-56766968D01*
X122529180Y-56770128D01*
X122545891Y-56773909D01*
X122565572Y-56779794D01*
X122565575Y-56779794D01*
X122574174Y-56782366D01*
X122583146Y-56782421D01*
X122583147Y-56782421D01*
X122606998Y-56782567D01*
X122609838Y-56782685D01*
X122611865Y-56783001D01*
X122677622Y-56783001D01*
X122678392Y-56783003D01*
X122719622Y-56783255D01*
X122720454Y-56783017D01*
X122720692Y-56783001D01*
X136677620Y-56783001D01*
X136678390Y-56783003D01*
X136719620Y-56783255D01*
X136728249Y-56780789D01*
X136748011Y-56775142D01*
X136764768Y-56771565D01*
X136785095Y-56768654D01*
X136785098Y-56768653D01*
X136793980Y-56767381D01*
X136802150Y-56763666D01*
X136802154Y-56763665D01*
X136817303Y-56756777D01*
X136834831Y-56750328D01*
X136850840Y-56745753D01*
X136850847Y-56745750D01*
X136859472Y-56743285D01*
X136884443Y-56727529D01*
X136899517Y-56719396D01*
X136926387Y-56707179D01*
X136945801Y-56690451D01*
X136960808Y-56679347D01*
X136982484Y-56665670D01*
X137002024Y-56643545D01*
X137014217Y-56631501D01*
X137029775Y-56618096D01*
X137029778Y-56618092D01*
X137036576Y-56612235D01*
X137050515Y-56590730D01*
X137061805Y-56575856D01*
X137072824Y-56563379D01*
X137078767Y-56556650D01*
X137091315Y-56529924D01*
X137099631Y-56514953D01*
X137115688Y-56490180D01*
X137118262Y-56481574D01*
X137123032Y-56465624D01*
X137129694Y-56448179D01*
X137136767Y-56433114D01*
X137136767Y-56433112D01*
X137140582Y-56424988D01*
X137141962Y-56416124D01*
X137141965Y-56416115D01*
X137145125Y-56395821D01*
X137148906Y-56379110D01*
X137154791Y-56359429D01*
X137154791Y-56359426D01*
X137157363Y-56350827D01*
X137157564Y-56318003D01*
X137157682Y-56315163D01*
X137157998Y-56313136D01*
X137157998Y-56247379D01*
X137158000Y-56246609D01*
X137158237Y-56207818D01*
X137158252Y-56205379D01*
X137158014Y-56204547D01*
X137157998Y-56204309D01*
X137157998Y-45988642D01*
X138786579Y-45988642D01*
X138804277Y-46169136D01*
X138806501Y-46175821D01*
X138806501Y-46175822D01*
X138823781Y-46227767D01*
X138861523Y-46341224D01*
X138865170Y-46347246D01*
X138865171Y-46347248D01*
X138951787Y-46490268D01*
X138955472Y-46496353D01*
X139081456Y-46626813D01*
X139087348Y-46630668D01*
X139087352Y-46630672D01*
X139119311Y-46651585D01*
X139233211Y-46726119D01*
X139403197Y-46789336D01*
X139410178Y-46790267D01*
X139410180Y-46790268D01*
X139459766Y-46796884D01*
X139582963Y-46813322D01*
X139589974Y-46812684D01*
X139589978Y-46812684D01*
X139730059Y-46799934D01*
X139763577Y-46796884D01*
X139770279Y-46794706D01*
X139770281Y-46794706D01*
X139929361Y-46743018D01*
X139929364Y-46743017D01*
X139936060Y-46740841D01*
X140091841Y-46647977D01*
X140223177Y-46522908D01*
X140323540Y-46371849D01*
X140387942Y-46202309D01*
X140413183Y-46022714D01*
X140413500Y-46000000D01*
X140393284Y-45819770D01*
X140333641Y-45648498D01*
X140297881Y-45591270D01*
X140241267Y-45500668D01*
X140241266Y-45500666D01*
X140237535Y-45494696D01*
X140228745Y-45485844D01*
X140114710Y-45371012D01*
X140109742Y-45366009D01*
X139956615Y-45268831D01*
X139785763Y-45207994D01*
X139778771Y-45207160D01*
X139778770Y-45207160D01*
X139649622Y-45191760D01*
X139605679Y-45186520D01*
X139598676Y-45187256D01*
X139598675Y-45187256D01*
X139432321Y-45204740D01*
X139432317Y-45204741D01*
X139425313Y-45205477D01*
X139418642Y-45207748D01*
X139260299Y-45261652D01*
X139260296Y-45261653D01*
X139253629Y-45263923D01*
X139099159Y-45358953D01*
X138969583Y-45485844D01*
X138965772Y-45491758D01*
X138965770Y-45491760D01*
X138954845Y-45508712D01*
X138871338Y-45638289D01*
X138855557Y-45681648D01*
X138811720Y-45802089D01*
X138811719Y-45802093D01*
X138809310Y-45808712D01*
X138786579Y-45988642D01*
X137157998Y-45988642D01*
X137157998Y-42344623D01*
X141591744Y-42344623D01*
X141591982Y-42345455D01*
X141591998Y-42345693D01*
X141591998Y-56302623D01*
X141591996Y-56303393D01*
X141591744Y-56344623D01*
X141594210Y-56353251D01*
X141594210Y-56353252D01*
X141599857Y-56373014D01*
X141603434Y-56389771D01*
X141604301Y-56395821D01*
X141607618Y-56418983D01*
X141611333Y-56427153D01*
X141611334Y-56427157D01*
X141618222Y-56442306D01*
X141624671Y-56459834D01*
X141629246Y-56475843D01*
X141629249Y-56475850D01*
X141631714Y-56484475D01*
X141647470Y-56509446D01*
X141655603Y-56524520D01*
X141667820Y-56551390D01*
X141684548Y-56570804D01*
X141695652Y-56585811D01*
X141709329Y-56607487D01*
X141721342Y-56618096D01*
X141731451Y-56627024D01*
X141743498Y-56639220D01*
X141756903Y-56654778D01*
X141756907Y-56654781D01*
X141762764Y-56661579D01*
X141770293Y-56666459D01*
X141770294Y-56666460D01*
X141784269Y-56675518D01*
X141799143Y-56686808D01*
X141818349Y-56703770D01*
X141845075Y-56716318D01*
X141860046Y-56724634D01*
X141884819Y-56740691D01*
X141893423Y-56743264D01*
X141893425Y-56743265D01*
X141909375Y-56748035D01*
X141926820Y-56754697D01*
X141941885Y-56761770D01*
X141941887Y-56761770D01*
X141950011Y-56765585D01*
X141958875Y-56766965D01*
X141958884Y-56766968D01*
X141979178Y-56770128D01*
X141995889Y-56773909D01*
X142015570Y-56779794D01*
X142015573Y-56779794D01*
X142024172Y-56782366D01*
X142033144Y-56782421D01*
X142033145Y-56782421D01*
X142056996Y-56782567D01*
X142059836Y-56782685D01*
X142061863Y-56783001D01*
X142127620Y-56783001D01*
X142128390Y-56783003D01*
X142169620Y-56783255D01*
X142170452Y-56783017D01*
X142170690Y-56783001D01*
X156127620Y-56783001D01*
X156128390Y-56783003D01*
X156169620Y-56783255D01*
X156178249Y-56780789D01*
X156198011Y-56775142D01*
X156214768Y-56771565D01*
X156235095Y-56768654D01*
X156235098Y-56768653D01*
X156243980Y-56767381D01*
X156252150Y-56763666D01*
X156252154Y-56763665D01*
X156267303Y-56756777D01*
X156284831Y-56750328D01*
X156300840Y-56745753D01*
X156300847Y-56745750D01*
X156309472Y-56743285D01*
X156334443Y-56727529D01*
X156349517Y-56719396D01*
X156376387Y-56707179D01*
X156395801Y-56690451D01*
X156410808Y-56679347D01*
X156432484Y-56665670D01*
X156452024Y-56643545D01*
X156464217Y-56631501D01*
X156479775Y-56618096D01*
X156479778Y-56618092D01*
X156486576Y-56612235D01*
X156500515Y-56590730D01*
X156511805Y-56575856D01*
X156522824Y-56563379D01*
X156528767Y-56556650D01*
X156541315Y-56529924D01*
X156549631Y-56514953D01*
X156565688Y-56490180D01*
X156568262Y-56481574D01*
X156573032Y-56465624D01*
X156579694Y-56448179D01*
X156586767Y-56433114D01*
X156586767Y-56433112D01*
X156590582Y-56424988D01*
X156591962Y-56416124D01*
X156591965Y-56416115D01*
X156595125Y-56395821D01*
X156598906Y-56379110D01*
X156604791Y-56359429D01*
X156604791Y-56359426D01*
X156607363Y-56350827D01*
X156607564Y-56318003D01*
X156607682Y-56315163D01*
X156607998Y-56313136D01*
X156607998Y-56247379D01*
X156608000Y-56246609D01*
X156608237Y-56207818D01*
X156608252Y-56205379D01*
X156608014Y-56204547D01*
X156607998Y-56204309D01*
X156607998Y-45688642D01*
X157786579Y-45688642D01*
X157804277Y-45869136D01*
X157861523Y-46041224D01*
X157955472Y-46196353D01*
X158081456Y-46326813D01*
X158087348Y-46330668D01*
X158087352Y-46330672D01*
X158119311Y-46351585D01*
X158233211Y-46426119D01*
X158403197Y-46489336D01*
X158410178Y-46490267D01*
X158410180Y-46490268D01*
X158459766Y-46496884D01*
X158582963Y-46513322D01*
X158589974Y-46512684D01*
X158589978Y-46512684D01*
X158730059Y-46499934D01*
X158763577Y-46496884D01*
X158770279Y-46494706D01*
X158770281Y-46494706D01*
X158929361Y-46443018D01*
X158929364Y-46443017D01*
X158936060Y-46440841D01*
X159091841Y-46347977D01*
X159223177Y-46222908D01*
X159323540Y-46071849D01*
X159387942Y-45902309D01*
X159413183Y-45722714D01*
X159413500Y-45700000D01*
X159393284Y-45519770D01*
X159333641Y-45348498D01*
X159247322Y-45210358D01*
X159241267Y-45200668D01*
X159241266Y-45200666D01*
X159237535Y-45194696D01*
X159228745Y-45185844D01*
X159114710Y-45071012D01*
X159109742Y-45066009D01*
X158956615Y-44968831D01*
X158785763Y-44907994D01*
X158778771Y-44907160D01*
X158778770Y-44907160D01*
X158695721Y-44897257D01*
X158605679Y-44886520D01*
X158598676Y-44887256D01*
X158598675Y-44887256D01*
X158432321Y-44904740D01*
X158432317Y-44904741D01*
X158425313Y-44905477D01*
X158418642Y-44907748D01*
X158260299Y-44961652D01*
X158260296Y-44961653D01*
X158253629Y-44963923D01*
X158099159Y-45058953D01*
X157969583Y-45185844D01*
X157965772Y-45191758D01*
X157965770Y-45191760D01*
X157920728Y-45261652D01*
X157871338Y-45338289D01*
X157865160Y-45355263D01*
X157811720Y-45502089D01*
X157811719Y-45502093D01*
X157809310Y-45508712D01*
X157786579Y-45688642D01*
X156607998Y-45688642D01*
X156607998Y-42247379D01*
X156608000Y-42246609D01*
X156608035Y-42240940D01*
X156608252Y-42205379D01*
X156604021Y-42190573D01*
X156600139Y-42176988D01*
X156596562Y-42160231D01*
X156593651Y-42139904D01*
X156593650Y-42139901D01*
X156592378Y-42131019D01*
X156588663Y-42122849D01*
X156588662Y-42122845D01*
X156581774Y-42107696D01*
X156575325Y-42090168D01*
X156570750Y-42074159D01*
X156570747Y-42074152D01*
X156568282Y-42065527D01*
X156552526Y-42040556D01*
X156544393Y-42025482D01*
X156532176Y-41998612D01*
X156515448Y-41979198D01*
X156504344Y-41964191D01*
X156490667Y-41942515D01*
X156468542Y-41922975D01*
X156456498Y-41910782D01*
X156443093Y-41895224D01*
X156443089Y-41895221D01*
X156437232Y-41888423D01*
X156415727Y-41874484D01*
X156400853Y-41863194D01*
X156388376Y-41852175D01*
X156381647Y-41846232D01*
X156354921Y-41833684D01*
X156339950Y-41825368D01*
X156315177Y-41809311D01*
X156306573Y-41806738D01*
X156306571Y-41806737D01*
X156290621Y-41801967D01*
X156273176Y-41795305D01*
X156258111Y-41788232D01*
X156258109Y-41788232D01*
X156249985Y-41784417D01*
X156241121Y-41783037D01*
X156241112Y-41783034D01*
X156220818Y-41779874D01*
X156204107Y-41776093D01*
X156184426Y-41770208D01*
X156184423Y-41770208D01*
X156175824Y-41767636D01*
X156166852Y-41767581D01*
X156166851Y-41767581D01*
X156143000Y-41767435D01*
X156140160Y-41767317D01*
X156138133Y-41767001D01*
X156072376Y-41767001D01*
X156071606Y-41766999D01*
X156071050Y-41766996D01*
X156030376Y-41766747D01*
X156029544Y-41766985D01*
X156029306Y-41767001D01*
X142072376Y-41767001D01*
X142071606Y-41766999D01*
X142071350Y-41766997D01*
X142030376Y-41766747D01*
X142021748Y-41769213D01*
X142021747Y-41769213D01*
X142001985Y-41774860D01*
X141985228Y-41778437D01*
X141964901Y-41781348D01*
X141964898Y-41781349D01*
X141956016Y-41782621D01*
X141947846Y-41786336D01*
X141947842Y-41786337D01*
X141932693Y-41793225D01*
X141915165Y-41799674D01*
X141899156Y-41804249D01*
X141899149Y-41804252D01*
X141890524Y-41806717D01*
X141865553Y-41822473D01*
X141850479Y-41830606D01*
X141823609Y-41842823D01*
X141804195Y-41859551D01*
X141789188Y-41870655D01*
X141767512Y-41884332D01*
X141761570Y-41891060D01*
X141747975Y-41906454D01*
X141735779Y-41918501D01*
X141720221Y-41931906D01*
X141720218Y-41931910D01*
X141713420Y-41937767D01*
X141708540Y-41945296D01*
X141708539Y-41945297D01*
X141699481Y-41959272D01*
X141688191Y-41974146D01*
X141671229Y-41993352D01*
X141658681Y-42020078D01*
X141650365Y-42035049D01*
X141634308Y-42059822D01*
X141631735Y-42068426D01*
X141631734Y-42068428D01*
X141626964Y-42084378D01*
X141620302Y-42101823D01*
X141609414Y-42125014D01*
X141608034Y-42133878D01*
X141608031Y-42133887D01*
X141604871Y-42154181D01*
X141601090Y-42170892D01*
X141595205Y-42190573D01*
X141592633Y-42199175D01*
X141592578Y-42208147D01*
X141592578Y-42208148D01*
X141592432Y-42231999D01*
X141592314Y-42234839D01*
X141591998Y-42236866D01*
X141591998Y-42302623D01*
X141591996Y-42303393D01*
X141591744Y-42344623D01*
X137157998Y-42344623D01*
X137157998Y-42247379D01*
X137158000Y-42246609D01*
X137158035Y-42240940D01*
X137158252Y-42205379D01*
X137154021Y-42190573D01*
X137150139Y-42176988D01*
X137146562Y-42160231D01*
X137143651Y-42139904D01*
X137143650Y-42139901D01*
X137142378Y-42131019D01*
X137138663Y-42122849D01*
X137138662Y-42122845D01*
X137131774Y-42107696D01*
X137125325Y-42090168D01*
X137120750Y-42074159D01*
X137120747Y-42074152D01*
X137118282Y-42065527D01*
X137102526Y-42040556D01*
X137094393Y-42025482D01*
X137082176Y-41998612D01*
X137065448Y-41979198D01*
X137054344Y-41964191D01*
X137040667Y-41942515D01*
X137018542Y-41922975D01*
X137006498Y-41910782D01*
X136993093Y-41895224D01*
X136993089Y-41895221D01*
X136987232Y-41888423D01*
X136965727Y-41874484D01*
X136950853Y-41863194D01*
X136938376Y-41852175D01*
X136931647Y-41846232D01*
X136904921Y-41833684D01*
X136889950Y-41825368D01*
X136865177Y-41809311D01*
X136856573Y-41806738D01*
X136856571Y-41806737D01*
X136840621Y-41801967D01*
X136823176Y-41795305D01*
X136808111Y-41788232D01*
X136808109Y-41788232D01*
X136799985Y-41784417D01*
X136791121Y-41783037D01*
X136791112Y-41783034D01*
X136770818Y-41779874D01*
X136754107Y-41776093D01*
X136734426Y-41770208D01*
X136734423Y-41770208D01*
X136725824Y-41767636D01*
X136716852Y-41767581D01*
X136716851Y-41767581D01*
X136693000Y-41767435D01*
X136690160Y-41767317D01*
X136688133Y-41767001D01*
X136622376Y-41767001D01*
X136621606Y-41766999D01*
X136621050Y-41766996D01*
X136580376Y-41766747D01*
X136579544Y-41766985D01*
X136579306Y-41767001D01*
X122622378Y-41767001D01*
X122621608Y-41766999D01*
X122621352Y-41766997D01*
X122580378Y-41766747D01*
X122571750Y-41769213D01*
X122571749Y-41769213D01*
X122551987Y-41774860D01*
X122535230Y-41778437D01*
X122514903Y-41781348D01*
X122514900Y-41781349D01*
X122506018Y-41782621D01*
X122497848Y-41786336D01*
X122497844Y-41786337D01*
X122482695Y-41793225D01*
X122465167Y-41799674D01*
X122449158Y-41804249D01*
X122449151Y-41804252D01*
X122440526Y-41806717D01*
X122415555Y-41822473D01*
X122400481Y-41830606D01*
X122373611Y-41842823D01*
X122354197Y-41859551D01*
X122339190Y-41870655D01*
X122317514Y-41884332D01*
X122311572Y-41891060D01*
X122297977Y-41906454D01*
X122285781Y-41918501D01*
X122270223Y-41931906D01*
X122270220Y-41931910D01*
X122263422Y-41937767D01*
X122258542Y-41945296D01*
X122258541Y-41945297D01*
X122249483Y-41959272D01*
X122238193Y-41974146D01*
X122221231Y-41993352D01*
X122208683Y-42020078D01*
X122200367Y-42035049D01*
X122184310Y-42059822D01*
X122181737Y-42068426D01*
X122181736Y-42068428D01*
X122176966Y-42084378D01*
X122170304Y-42101823D01*
X122159416Y-42125014D01*
X122158036Y-42133878D01*
X122158033Y-42133887D01*
X122154873Y-42154181D01*
X122151092Y-42170892D01*
X122145207Y-42190573D01*
X122142635Y-42199175D01*
X122142580Y-42208147D01*
X122142580Y-42208148D01*
X122142434Y-42231999D01*
X122142316Y-42234839D01*
X122142000Y-42236866D01*
X122142000Y-42302623D01*
X122141998Y-42303393D01*
X122141746Y-42344623D01*
X79008002Y-42344623D01*
X79008002Y-42247379D01*
X79008004Y-42246609D01*
X79008039Y-42240940D01*
X79008256Y-42205379D01*
X79004025Y-42190573D01*
X79000143Y-42176988D01*
X78996566Y-42160231D01*
X78993655Y-42139904D01*
X78993654Y-42139901D01*
X78992382Y-42131019D01*
X78988667Y-42122849D01*
X78988666Y-42122845D01*
X78981778Y-42107696D01*
X78975329Y-42090168D01*
X78970754Y-42074159D01*
X78970751Y-42074152D01*
X78968286Y-42065527D01*
X78952530Y-42040556D01*
X78944397Y-42025482D01*
X78932180Y-41998612D01*
X78915452Y-41979198D01*
X78904348Y-41964191D01*
X78890671Y-41942515D01*
X78868546Y-41922975D01*
X78856502Y-41910782D01*
X78843097Y-41895224D01*
X78843093Y-41895221D01*
X78837236Y-41888423D01*
X78815731Y-41874484D01*
X78800857Y-41863194D01*
X78788380Y-41852175D01*
X78781651Y-41846232D01*
X78754925Y-41833684D01*
X78739954Y-41825368D01*
X78715181Y-41809311D01*
X78706577Y-41806738D01*
X78706575Y-41806737D01*
X78690625Y-41801967D01*
X78673180Y-41795305D01*
X78658115Y-41788232D01*
X78658113Y-41788232D01*
X78649989Y-41784417D01*
X78641125Y-41783037D01*
X78641116Y-41783034D01*
X78620822Y-41779874D01*
X78604111Y-41776093D01*
X78584430Y-41770208D01*
X78584427Y-41770208D01*
X78575828Y-41767636D01*
X78566856Y-41767581D01*
X78566855Y-41767581D01*
X78543004Y-41767435D01*
X78540164Y-41767317D01*
X78538137Y-41767001D01*
X78472380Y-41767001D01*
X78471610Y-41766999D01*
X78471054Y-41766996D01*
X78430380Y-41766747D01*
X78429548Y-41766985D01*
X78429310Y-41767001D01*
X64472380Y-41767001D01*
X64471610Y-41766999D01*
X64471354Y-41766997D01*
X64430380Y-41766747D01*
X64421752Y-41769213D01*
X64421751Y-41769213D01*
X64401989Y-41774860D01*
X64385232Y-41778437D01*
X64364905Y-41781348D01*
X64364902Y-41781349D01*
X64356020Y-41782621D01*
X64347850Y-41786336D01*
X64347846Y-41786337D01*
X64332697Y-41793225D01*
X64315169Y-41799674D01*
X64299160Y-41804249D01*
X64299153Y-41804252D01*
X64290528Y-41806717D01*
X64265557Y-41822473D01*
X64250483Y-41830606D01*
X64223613Y-41842823D01*
X64204199Y-41859551D01*
X64189192Y-41870655D01*
X64167516Y-41884332D01*
X64161574Y-41891060D01*
X64147979Y-41906454D01*
X64135783Y-41918501D01*
X64120225Y-41931906D01*
X64120222Y-41931910D01*
X64113424Y-41937767D01*
X64108544Y-41945296D01*
X64108543Y-41945297D01*
X64099485Y-41959272D01*
X64088195Y-41974146D01*
X64071233Y-41993352D01*
X64058685Y-42020078D01*
X64050369Y-42035049D01*
X64034312Y-42059822D01*
X64031739Y-42068426D01*
X64031738Y-42068428D01*
X64026968Y-42084378D01*
X64020306Y-42101823D01*
X64009418Y-42125014D01*
X64008038Y-42133878D01*
X64008035Y-42133887D01*
X64004875Y-42154181D01*
X64001094Y-42170892D01*
X63995209Y-42190573D01*
X63992637Y-42199175D01*
X63992582Y-42208147D01*
X63992582Y-42208148D01*
X63992436Y-42231999D01*
X63992318Y-42234839D01*
X63992002Y-42236866D01*
X63992002Y-42302623D01*
X63992000Y-42303393D01*
X63991748Y-42344623D01*
X60000000Y-42344623D01*
X60000000Y-40126000D01*
X60020002Y-40057879D01*
X60073658Y-40011386D01*
X60126000Y-40000000D01*
X161874000Y-40000000D01*
X161942121Y-40020002D01*
G37*
%TD.AperFunction*%
M02*
