<?xml version="1.0" encoding="UTF-8" standalone="no"?>
<!-- Created with Inkscape (http://www.inkscape.org/) -->

<svg
   width="60.739056mm"
   height="35.382259mm"
   viewBox="0 0 60.739056 35.382259"
   version="1.1"
   id="svg5"
   inkscape:version="1.2.2 (b0a8486541, 2022-12-01)"
   sodipodi:docname="TestText.svg"
   xmlns:inkscape="http://www.inkscape.org/namespaces/inkscape"
   xmlns:sodipodi="http://sodipodi.sourceforge.net/DTD/sodipodi-0.dtd"
   xmlns="http://www.w3.org/2000/svg"
   xmlns:svg="http://www.w3.org/2000/svg">
  <sodipodi:namedview
     id="namedview7"
     pagecolor="#ffffff"
     bordercolor="#666666"
     borderopacity="1.0"
     inkscape:showpageshadow="2"
     inkscape:pageopacity="0.0"
     inkscape:pagecheckerboard="0"
     inkscape:deskcolor="#d1d1d1"
     inkscape:document-units="mm"
     showgrid="false"
     inkscape:zoom="2.043226"
     inkscape:cx="21.534573"
     inkscape:cy="68.763807"
     inkscape:window-width="1920"
     inkscape:window-height="1018"
     inkscape:window-x="1920"
     inkscape:window-y="0"
     inkscape:window-maximized="1"
     inkscape:current-layer="layer1" />
  <defs
     id="defs2" />
  <g
     inkscape:label="Layer 1"
     inkscape:groupmode="layer"
     id="layer1"
     transform="translate(-65.72017,-84.150332)">
    <g
       aria-label="Zoe is great
At 3d Printing"
       transform="scale(0.84821599,1.178945)"
       id="text290"
       style="font-size:13.5135px;line-height:1.25;stroke-width:0.337838">
      <path
         d="m 85.020998,76.634408 c 0.432432,0.756756 0.432432,0.756756 0.432432,1.135134 0,0.716216 -0.418918,1.067567 -1.310809,1.067567 -0.527027,0 -1.067567,-0.02703 -1.918917,-0.108108 -1.108107,-0.108108 -1.337837,-0.121622 -1.810809,-0.121622 h -0.22973 -0.256756 l -0.432432,0.06757 c 0.513513,-0.54054 1.270269,-1.324323 1.864863,-1.932431 1.216215,-1.256755 2.351349,-2.405403 3.621618,-3.662158 l 1.040539,-1.054053 -0.01351,-0.391892 c -0.472973,0.405405 -0.837837,0.554054 -1.337837,0.554054 -0.135135,0 -0.932431,-0.06757 -2.391889,-0.202703 -1.013513,-0.108108 -1.013513,-0.108108 -1.135134,-0.108108 -0.297297,0 -0.378378,0.06757 -0.594594,0.513513 -0.162162,0.337838 -0.594594,1.283783 -0.891891,1.945944 l 0.229729,0.337838 c 0.945945,-1.675674 1.013513,-1.756755 1.432431,-1.756755 0.09459,0 0.22973,0.01351 0.364865,0.02703 0.594594,0.08108 0.878377,0.09459 1.378377,0.09459 0.648648,0 0.918918,-0.02703 1.567566,-0.135135 l -4.581077,4.581077 -0.689188,0.675675 -0.77027,0.756756 c -0.06757,0.06757 -0.27027,0.256756 -0.58108,0.527026 v 0.5 c 0.445945,-0.324324 0.743242,-0.432432 1.256755,-0.432432 0.351351,0 0.824324,0.02703 1.337837,0.08108 1.689187,0.175675 2.945943,0.283783 3.28378,0.283783 0.378378,0 0.689189,-0.121621 0.945945,-0.364864 0.175676,-0.162162 0.256757,-0.27027 0.662162,-0.783783 0.148648,-0.189189 0.283783,-0.351351 0.31081,-0.391892 0.405405,-0.486486 0.486486,-0.689188 0.486486,-1.148647 0,-0.391892 -0.06757,-0.675675 -0.256756,-1.162161 z"
         style="font-family:Z003;-inkscape-font-specification:'Z003, Normal'"
         id="path475" />
      <path
         d="m 90.561534,74.147924 c -0.54054,0 -1.405404,0.391892 -2.202701,0.986486 -0.864864,0.648648 -1.472972,2.054052 -1.472972,3.405402 0,0.81081 0.459459,1.337836 1.175675,1.337836 0.378378,0 0.77027,-0.135135 1.378377,-0.459459 0.675675,-0.378378 1.121621,-0.716215 1.364864,-1.027026 0.54054,-0.743242 0.972972,-2.067565 0.972972,-2.999997 0,-0.729729 -0.5,-1.243242 -1.216215,-1.243242 z m -0.702702,0.635135 c 0.54054,0 0.878377,0.513513 0.878377,1.337836 0,0.581081 -0.189189,1.270269 -0.513513,1.932431 -0.391891,0.770269 -0.878377,1.189188 -1.39189,1.189188 -0.554054,0 -0.905405,-0.5 -0.905405,-1.270269 0,-1.567566 0.986486,-3.189186 1.932431,-3.189186 z"
         style="font-family:Z003;-inkscape-font-specification:'Z003, Normal'"
         id="path477" />
      <path
         d="m 96.250712,77.850623 c -1.08108,0.918918 -1.662161,1.256756 -2.175674,1.256756 -0.351351,0 -0.621621,-0.22973 -0.716215,-0.581081 -0.05405,-0.216216 -0.06757,-0.364864 -0.06757,-0.756756 0.621621,-0.391891 0.999999,-0.662161 1.797296,-1.256755 0.743242,-0.554054 1.013512,-0.999999 1.013512,-1.608107 0,-0.472972 -0.283783,-0.756756 -0.770269,-0.756756 -0.297297,0 -0.5,0.06757 -0.824324,0.243243 -0.513513,0.297297 -0.972972,0.662162 -1.243242,0.986486 -0.513513,0.621621 -0.972972,2.108106 -0.972972,3.202699 0,0.797297 0.418919,1.297296 1.108107,1.297296 0.797297,0 1.824323,-0.594594 2.837835,-1.635133 z m -2.918916,-0.567567 c 0.229729,-1.459458 0.837837,-2.567565 1.432431,-2.567565 0.216216,0 0.364864,0.216216 0.364864,0.554054 0,0.675675 -0.391891,1.108107 -1.797295,2.013511 z"
         style="font-family:Z003;-inkscape-font-specification:'Z003, Normal'"
         id="path479" />
      <path
         d="m 102.37232,71.377657 c -0.37838,0.297297 -0.68919,0.54054 -0.93243,0.702702 0.0946,0.283783 0.21621,0.513513 0.51351,0.945945 0.37838,-0.337838 0.41892,-0.378378 0.87838,-0.729729 -0.0405,-0.08108 -0.0676,-0.135135 -0.17568,-0.310811 -0.0811,-0.162162 -0.0946,-0.162162 -0.2027,-0.432432 z m 0.51351,6.75675 -0.22973,0.121621 c -0.93243,0.513513 -1.09459,0.581081 -1.25675,0.581081 -0.14865,0 -0.24325,-0.148649 -0.24325,-0.378378 0,-0.22973 0,-0.22973 0.44595,-2.013512 0.5,-2.054052 0.5,-2.054052 0.5,-2.16216 0,-0.08108 -0.0676,-0.135135 -0.16216,-0.135135 -0.22973,0 -1.02703,0.445946 -2.135135,1.189188 l -0.02703,0.378378 c 0.824322,-0.445945 0.864862,-0.459459 0.986482,-0.459459 0.10811,0 0.16217,0.08108 0.16217,0.22973 0,0.189189 -0.0405,0.378378 -0.24325,1.148647 -0.63513,2.351349 -0.63513,2.351349 -0.63513,2.7027 0,0.324324 0.12162,0.54054 0.32432,0.54054 0.22973,0 0.5946,-0.175675 1.31081,-0.635134 0.25676,-0.162162 0.51351,-0.324324 0.77027,-0.5 0.12162,-0.06757 0.21622,-0.135135 0.37838,-0.229729 z"
         style="font-family:Z003;-inkscape-font-specification:'Z003, Normal'"
         id="path481" />
      <path
         d="m 102.50745,78.580352 c -0.0135,0.121622 -0.027,0.22973 -0.027,0.310811 0,0.594594 0.4054,0.986485 1,0.986485 0.43243,0 0.99999,-0.162162 1.43243,-0.418918 0.81081,-0.459459 1.28378,-1.148648 1.28378,-1.824323 0,-0.499999 -0.0811,-0.608107 -0.85135,-1.08108 -0.45946,-0.297297 -0.64865,-0.554053 -0.64865,-0.905404 0,-0.459459 0.39189,-0.864864 0.85135,-0.864864 0.31081,0 0.55405,0.148648 0.83784,0.527026 0.45946,-0.445945 0.45946,-0.445945 0.63513,-0.702702 -0.27027,-0.324324 -0.52702,-0.459459 -0.9054,-0.459459 -0.98649,0 -2.25676,1.162161 -2.25676,2.067566 0,0.418918 0.21622,0.743242 0.72973,1.108107 0.67568,0.472972 0.77027,0.594594 0.77027,0.932431 0,0.486486 -0.62162,1.054053 -1.14865,1.054053 -0.29729,0 -0.52702,-0.162162 -0.66216,-0.459459 -0.0946,-0.202702 -0.12162,-0.405405 -0.13513,-0.878377 -0.14865,0.121621 -0.25676,0.189189 -0.31081,0.229729 -0.10811,0.06757 -0.22973,0.135135 -0.35135,0.216216 -0.0135,0 -0.13514,0.09459 -0.24325,0.162162 z"
         style="font-family:Z003;-inkscape-font-specification:'Z003, Normal'"
         id="path483" />
      <path
         d="m 114.58851,76.742516 c 0.0541,-0.297297 0.12162,-0.554053 0.17567,-0.770269 0.0676,-0.256757 0.13514,-0.513513 0.20271,-0.756756 l 0.0676,-0.297297 c 0.24325,-0.06757 0.25676,-0.06757 0.68919,-0.756756 -0.0676,0 -0.24324,0 -1.56756,0.02703 -0.82433,0.01351 -1.06757,0.05405 -1.45946,0.297297 -0.64865,0.391891 -1.10811,0.783783 -1.39189,1.148647 -0.40541,0.54054 -0.89189,2.148647 -0.89189,2.986484 0,0.337837 0.0811,0.58108 0.29729,0.878377 -0.82432,0.716216 -1.06756,0.918918 -1.55405,1.337837 -0.67567,0.594594 -0.98648,1.040539 -0.98648,1.418918 0,0.499999 0.58108,0.783783 1.62162,0.783783 1.24324,0 2.21621,-0.351351 3.12161,-1.135135 0.58108,-0.499999 0.71622,-0.783783 1,-2.121619 z m -1.77027,3.702699 c -0.17568,0.824324 -0.2973,1.121621 -0.54054,1.378377 -0.2973,0.351352 -0.85135,0.513514 -1.64865,0.513514 -0.87838,0 -1.35135,-0.22973 -1.35135,-0.675676 0,-0.554053 0.37838,-0.891891 4.12162,-3.770266 z m -1.02703,-1.770268 c -0.24324,-0.243243 -0.33783,-0.459459 -0.33783,-0.783783 0,-0.310811 0.0676,-0.648648 0.31081,-1.445945 0.24324,-0.81081 0.43243,-1.162161 0.74324,-1.35135 0.24324,-0.162162 0.54054,-0.189189 1.89189,-0.189189 h 0.43243 c -0.56757,0.418919 -0.63513,0.472973 -0.75676,0.675675 -0.1081,0.175676 -0.25675,0.689189 -0.55405,1.824323 -0.22973,0.148648 -0.27027,0.189189 -0.44594,0.31081 -0.32433,0.22973 -0.63514,0.472973 -0.93244,0.702702 z"
         style="font-family:Z003;-inkscape-font-specification:'Z003, Normal'"
         id="path485" />
      <path
         d="m 115.84526,79.837108 1.04054,-0.391892 1.01351,-3.851347 c 0.45946,-0.351351 0.77027,-0.472973 1.13513,-0.472973 0.2973,0 0.47298,0.108108 0.71622,0.418919 l 0.40541,-1.283783 c -0.24325,-0.08108 -0.36487,-0.108108 -0.5,-0.108108 -0.25676,0 -0.52703,0.121622 -0.8919,0.378378 -0.17567,0.135135 -0.35135,0.27027 -0.54054,0.391892 -0.0811,0.06757 -0.17567,0.135135 -0.25675,0.189189 l 0.16216,-0.81081 c 0,-0.08108 -0.0811,-0.148649 -0.17568,-0.148649 -0.17567,0 -1.36486,0.581081 -2.18918,1.067567 l -0.0405,0.364864 c 0.78378,-0.378378 0.79729,-0.391891 0.97297,-0.391891 0.17567,0 0.25676,0.09459 0.25676,0.283783 0,0.189189 -0.13514,0.81081 -0.2973,1.405404 z"
         style="font-family:Z003;-inkscape-font-specification:'Z003, Normal'"
         id="path487" />
      <path
         d="m 123.64253,77.850623 c -1.08108,0.918918 -1.66216,1.256756 -2.17567,1.256756 -0.35135,0 -0.62162,-0.22973 -0.71622,-0.581081 -0.0541,-0.216216 -0.0676,-0.364864 -0.0676,-0.756756 0.62163,-0.391891 1,-0.662161 1.7973,-1.256755 0.74324,-0.554054 1.01351,-0.999999 1.01351,-1.608107 0,-0.472972 -0.28378,-0.756756 -0.77027,-0.756756 -0.29729,0 -0.5,0.06757 -0.82432,0.243243 -0.51351,0.297297 -0.97297,0.662162 -1.24324,0.986486 -0.51352,0.621621 -0.97297,2.108106 -0.97297,3.202699 0,0.797297 0.41891,1.297296 1.1081,1.297296 0.7973,0 1.82432,-0.594594 2.83784,-1.635133 z m -2.91892,-0.567567 c 0.22973,-1.459458 0.83784,-2.567565 1.43244,-2.567565 0.21621,0 0.36486,0.216216 0.36486,0.554054 0,0.675675 -0.39189,1.108107 -1.7973,2.013511 z"
         style="font-family:Z003;-inkscape-font-specification:'Z003, Normal'"
         id="path489" />
      <path
         d="m 129.80469,77.931704 c -0.98649,0.675675 -1.21622,0.81081 -1.35135,0.81081 -0.0946,0 -0.16217,-0.108108 -0.16217,-0.27027 0,-0.364864 0.31081,-1.783782 0.81081,-3.635131 0.14865,-0.216216 0.17568,-0.243243 0.3919,-0.486486 -0.64865,-0.148649 -1.10811,-0.202703 -1.70271,-0.202703 -0.55405,0 -0.82432,0.05405 -1.16216,0.27027 -0.48648,0.283784 -1.05405,0.702702 -1.22972,0.891891 -0.51352,0.567567 -1.06757,2.39189 -1.06757,3.486483 0,0.648648 0.21621,1.08108 0.55405,1.08108 0.2973,0 0.74324,-0.27027 2.43243,-1.486485 -0.14865,0.689189 -0.2027,1.027026 -0.2027,1.202702 0,0.189189 0.0811,0.283783 0.21622,0.283783 0.17567,0 0.28378,-0.05405 1.24324,-0.689188 0.45946,-0.310811 0.71621,-0.486486 1.21621,-0.851351 z m -2.37838,-0.09459 c -0.47297,0.351351 -0.71622,0.527026 -0.72973,0.54054 -0.44594,0.283783 -0.7973,0.459459 -0.97297,0.459459 -0.22973,0 -0.35135,-0.243243 -0.35135,-0.675675 0,-0.689189 0.2027,-1.58108 0.55405,-2.364863 0.32433,-0.743242 0.62162,-1.027026 1.08108,-1.027026 0.24324,0 0.7027,0.06757 1.14865,0.175676 -0.27027,0.972972 -0.36487,1.337836 -0.37838,1.405404 -0.0811,0.337837 -0.14865,0.675675 -0.22973,1.027026 -0.0135,0.06757 -0.054,0.229729 -0.12162,0.459459 z"
         style="font-family:Z003;-inkscape-font-specification:'Z003, Normal'"
         id="path491" />
      <path
         d="m 133.73712,77.999272 c -1.02703,0.621621 -1.45946,0.837837 -1.64865,0.837837 -0.17568,0 -0.39189,-0.337838 -0.39189,-0.635135 0,-0.189189 0.0135,-0.229729 0.31081,-1.513512 0.0676,-0.243243 0.12162,-0.499999 0.17567,-0.756756 0.0135,-0.04054 0.0676,-0.256756 0.0946,-0.378378 0.45946,-0.01351 0.87837,-0.04054 1.33783,-0.06757 l 0.51352,-0.391892 h -1.72973 c 0.0676,-0.31081 0.0946,-0.405405 0.13513,-0.608107 0.0405,-0.135135 0.13514,-0.5 0.32433,-1.229729 l 0.0811,-0.351351 -0.22973,0.121622 c -0.0811,0.02703 -0.18919,0.08108 -0.33784,0.148648 -0.0946,0.05405 -0.2027,0.09459 -0.31081,0.148649 -0.0541,0.02703 -0.10811,0.05405 -0.18919,0.08108 l -0.12162,0.554053 -0.14865,0.648648 -0.10811,0.486486 c -0.12162,0.01351 -0.2027,0.01351 -0.24324,0.01351 h -0.32432 c -0.027,0 -0.0946,0 -0.20271,0.01351 -0.0676,0.04054 -0.12162,0.08108 -0.13513,0.08108 -0.0405,0.02703 -0.12162,0.09459 -0.25676,0.202703 -0.027,0.01351 -0.0946,0.08108 -0.2027,0.148648 h 0.32432 0.62163 0.29729 l -0.13513,0.594594 c -0.58108,2.39189 -0.58108,2.39189 -0.58108,2.824322 0,0.432432 0.28378,0.905404 0.54054,0.905404 0.29729,0 1.21621,-0.554053 2.51351,-1.540539 z"
         style="font-family:Z003;-inkscape-font-specification:'Z003, Normal'"
         id="path493" />
      <path
         d="m 77.480465,97.929998 c 0.310811,0.09459 0.459459,0.121622 0.716216,0.121622 0.918918,0 1.554052,-0.486486 3.324321,-2.513511 1.067566,0 1.864863,0.01351 2.391889,0.05405 -0.02703,0.162162 -0.05405,0.324324 -0.06757,0.486486 -0.02703,0.135135 -0.06757,0.418918 -0.108108,0.716215 -0.02703,0.256757 -0.06757,0.5 -0.08108,0.554054 -0.04054,0.229729 -0.06757,0.445945 -0.06757,0.58108 0,0.175676 0.135135,0.297297 0.310811,0.297297 0.05405,0 0.418918,-0.06757 1.094593,-0.189189 l 0.77027,-0.135135 c 0.09459,-0.01351 0.243243,-0.04054 0.472972,-0.08108 l 0.216216,-0.324324 c -0.554053,0.04054 -0.891891,0.06757 -0.999999,0.06757 -0.54054,0 -0.689188,-0.135135 -0.689188,-0.608108 0,-0.864864 0.527026,-4.648644 0.959458,-6.797291 L 85.534511,90.0246 c -0.405405,0.418919 -0.432432,0.432432 -0.716215,0.432432 -0.175676,0 -0.243243,-0.01351 -0.77027,-0.09459 -0.608107,-0.09459 -0.959458,-0.135135 -1.229728,-0.135135 -0.621621,0 -1.270269,0.31081 -1.905404,0.932431 -0.716215,0.689189 -1.027026,1.283783 -1.027026,1.999998 0,0.324324 0.04054,0.54054 0.189189,0.932432 l 0.999999,-0.54054 c -0.216216,-0.635135 -0.283783,-0.945945 -0.283783,-1.256756 0,-0.770269 0.58108,-1.229728 1.567566,-1.229728 0.148648,0 0.324324,0.01351 0.499999,0.02703 l 0.324324,0.04054 c 0.189189,0.01351 0.324324,0.02703 0.418919,0.04054 0.216216,0.02703 0.337837,0.02703 0.702702,0.05405 l -2.337836,3.027024 c -0.567567,0.729729 -1.445944,1.756755 -1.810809,2.108106 -0.54054,0.527027 -0.945945,0.716216 -1.567566,0.716216 -0.229729,0 -0.351351,-0.01351 -0.594594,-0.09459 z m 4.459455,-2.945943 2.608106,-3.418916 -0.554054,3.418916 z"
         style="font-family:Z003;-inkscape-font-specification:'Z003, Normal'"
         id="path495" />
      <path
         d="m 90.291287,96.348919 c -1.027026,0.621621 -1.459458,0.837837 -1.648647,0.837837 -0.175676,0 -0.391892,-0.337838 -0.391892,-0.635135 0,-0.189189 0.01351,-0.229729 0.310811,-1.513512 0.06757,-0.243243 0.121621,-0.5 0.175675,-0.756756 0.01351,-0.04054 0.06757,-0.256757 0.09459,-0.378378 0.459459,-0.01351 0.878377,-0.04054 1.337836,-0.06757 l 0.513513,-0.391891 H 88.95345 c 0.06757,-0.310811 0.09459,-0.405405 0.135135,-0.608108 0.04054,-0.135135 0.135135,-0.499999 0.324324,-1.229728 l 0.08108,-0.351351 -0.229729,0.121621 c -0.08108,0.02703 -0.189189,0.08108 -0.337838,0.148649 -0.09459,0.05405 -0.202702,0.09459 -0.31081,0.148648 -0.05405,0.02703 -0.108108,0.05405 -0.189189,0.08108 l -0.121622,0.554054 -0.148648,0.648648 -0.108108,0.486486 c -0.121622,0.01351 -0.202703,0.01351 -0.243243,0.01351 h -0.324324 c -0.02703,0 -0.09459,0 -0.202703,0.01351 -0.06757,0.04054 -0.121621,0.08108 -0.135135,0.08108 -0.04054,0.02703 -0.121621,0.09459 -0.256756,0.202702 -0.02703,0.01351 -0.09459,0.08108 -0.202703,0.148649 h 0.324324 0.621621 0.297297 l -0.135135,0.594594 c -0.58108,2.39189 -0.58108,2.39189 -0.58108,2.824322 0,0.432432 0.283783,0.905404 0.54054,0.905404 0.297297,0 1.216215,-0.554053 2.513511,-1.540539 z"
         style="font-family:Z003;-inkscape-font-specification:'Z003, Normal'"
         id="path497" />
      <path
         d="m 93.169649,97.700269 c 0.567567,0.31081 0.999999,0.432432 1.594593,0.432432 1.918917,0 3.918915,-1.837836 3.918915,-3.594592 0,-0.418918 -0.189189,-0.797296 -0.5,-1.013512 -0.216216,-0.148649 -0.405405,-0.216216 -0.878377,-0.283784 0.121621,-0.08108 0.216216,-0.148648 0.324324,-0.243243 l 0.418918,-0.31081 0.310811,-0.22973 c 0.351351,-0.445945 0.499999,-0.783783 0.499999,-1.202701 0,-0.581081 -0.459459,-0.972972 -1.135134,-0.972972 -0.189189,0 -0.351351,0.02703 -0.689188,0.121621 -0.175676,0.09459 -0.324324,0.175676 -0.378378,0.216216 -0.08108,0.04054 -0.27027,0.189189 -0.567567,0.391892 -0.05405,0.04054 -0.189189,0.135135 -0.391892,0.27027 l -0.01351,0.337837 c 0.554053,-0.351351 1.067566,-0.567567 1.378377,-0.567567 0.445945,0 0.756756,0.337838 0.756756,0.797297 0,0.824323 -0.797297,1.472971 -2.66216,2.189187 l -0.04054,0.351351 c 1.108107,-0.418919 1.108107,-0.418919 1.39189,-0.418919 0.662162,0 1.135134,0.527027 1.135134,1.297297 0,0.554053 -0.229729,1.148647 -0.608107,1.594593 -0.378378,0.445945 -0.891891,0.675675 -1.486485,0.675675 -0.513513,0 -0.756756,-0.06757 -1.756755,-0.527027 z"
         style="font-family:Z003;-inkscape-font-specification:'Z003, Normal'"
         id="path499" />
      <path
         d="m 105.34532,96.281351 -0.37838,0.243243 c -0.33784,0.22973 -0.56757,0.391892 -0.63513,0.432432 -0.28379,0.175676 -0.54054,0.297297 -0.60811,0.297297 -0.10811,0 -0.18919,-0.148648 -0.18919,-0.351351 0,-0.445945 1.12162,-5.337833 1.41892,-6.17567 0.2973,-0.81081 0.59459,-1.12162 1.08108,-1.12162 0.18919,0 0.31081,0.02703 0.62162,0.108108 l 0.47297,-0.756756 c -0.2027,-0.04054 -0.2973,-0.05405 -0.43243,-0.05405 -0.32432,0 -0.51351,0.05405 -0.81081,0.229729 -0.33784,0.189189 -0.7973,0.54054 -1.17567,0.891891 -0.66217,0.635135 -0.70271,0.729729 -1.05406,2.12162 -0.0135,0.05405 -0.0541,0.243243 -0.10811,0.432432 -0.24324,-0.05405 -0.43243,-0.08108 -0.55405,-0.08108 -0.41892,0 -1.58108,0.729729 -2.12162,1.324323 -0.45946,0.527026 -1.067565,2.43243 -1.067565,3.364862 0,0.513513 0.270265,1.040539 0.513515,1.040539 0.25675,0 0.87838,-0.378378 2.27027,-1.39189 -0.0676,0.364864 -0.10811,0.716215 -0.10811,0.972972 0,0.27027 0.0946,0.418918 0.29729,0.418918 0.21622,0 1.3919,-0.716215 2.51352,-1.527025 z m -2.64865,0.05405 c -1.14864,0.81081 -1.44594,0.986486 -1.63513,0.986486 -0.18919,0 -0.28378,-0.189189 -0.28378,-0.594594 0,-0.445946 0.0811,-0.945945 0.24324,-1.554053 0.37838,-1.364864 0.91892,-2.040539 1.60811,-2.040539 0.25675,0 0.43243,0.09459 0.7027,0.364865 z"
         style="font-family:Z003;-inkscape-font-specification:'Z003, Normal'"
         id="path501" />
      <path
         d="m 108.60207,97.484053 -0.55405,0.554053 h 0.94594 c 3.59459,0 3.71621,-0.01351 4.83784,-0.54054 l 0.027,-0.121621 c -0.75675,0.08108 -1.08108,0.09459 -2.27027,0.108108 0.0405,-0.175676 0.0811,-0.351351 0.12163,-0.513513 0.0541,-0.22973 0.1081,-0.459459 0.17567,-0.797297 0.17568,-0.729729 0.18919,-0.81081 0.33784,-1.364864 0.89189,-0.05405 1.63513,-0.27027 2.45946,-0.716215 0.97297,-0.527027 1.58108,-1.472972 1.58108,-2.472971 0,-0.932431 -0.74325,-1.364863 -2.33784,-1.364863 -0.14865,0 -0.28378,0 -0.56757,0.01351 l 0.0811,-0.337837 -0.9054,0.459459 c -1.06757,0.108108 -1.67567,0.283783 -2.33784,0.689188 -1.06756,0.648648 -1.64864,1.567566 -1.64864,2.635133 0,0.391891 0.0541,0.662161 0.22973,1.094593 l 1.01351,-0.608107 c -0.16216,-0.472973 -0.2027,-0.689189 -0.2027,-1.013513 0,-0.716215 0.31081,-1.405404 0.79729,-1.797295 0.45946,-0.351351 0.93243,-0.513513 1.82433,-0.608108 -0.45946,2.094593 -1.17568,4.972969 -1.67568,6.702697 z m 4.64864,-6.810805 c 0.20271,-0.01351 0.41892,-0.02703 0.52703,-0.02703 0.85135,0 1.31081,0.418919 1.31081,1.202702 0,1.432431 -0.95946,2.486484 -2.25675,2.486484 -0.16217,0 -0.25676,-0.01351 -0.47298,-0.05405 z"
         style="font-family:Z003;-inkscape-font-specification:'Z003, Normal'"
         id="path503" />
      <path
         d="m 116.06154,98.186755 1.04054,-0.391892 1.01351,-3.851348 c 0.45946,-0.351351 0.77027,-0.472972 1.13513,-0.472972 0.2973,0 0.47298,0.108108 0.71622,0.418918 l 0.4054,-1.283782 c -0.24324,-0.08108 -0.36486,-0.108108 -0.5,-0.108108 -0.25675,0 -0.52702,0.121621 -0.89189,0.378378 -0.17567,0.135135 -0.35135,0.27027 -0.54054,0.391891 -0.0811,0.06757 -0.17567,0.135135 -0.25675,0.189189 l 0.16216,-0.81081 c 0,-0.08108 -0.0811,-0.148648 -0.17568,-0.148648 -0.17567,0 -1.36486,0.58108 -2.18918,1.067566 l -0.0405,0.364865 c 0.78378,-0.378378 0.79729,-0.391892 0.97297,-0.391892 0.17567,0 0.25675,0.09459 0.25675,0.283784 0,0.189189 -0.13513,0.81081 -0.29729,1.405404 z"
         style="font-family:Z003;-inkscape-font-specification:'Z003, Normal'"
         id="path505" />
      <path
         d="m 122.84529,89.727303 c -0.37838,0.297297 -0.68919,0.54054 -0.93243,0.702702 0.0946,0.283784 0.21622,0.513513 0.51351,0.945945 0.37838,-0.337837 0.41892,-0.378378 0.87838,-0.729729 -0.0405,-0.08108 -0.0676,-0.135135 -0.17568,-0.31081 -0.0811,-0.162162 -0.0946,-0.162162 -0.2027,-0.432432 z m 0.51351,6.756751 -0.22973,0.121621 c -0.93243,0.513513 -1.09459,0.581081 -1.25675,0.581081 -0.14865,0 -0.24324,-0.148649 -0.24324,-0.378378 0,-0.22973 0,-0.22973 0.44594,-2.013512 0.5,-2.054052 0.5,-2.054052 0.5,-2.16216 0,-0.08108 -0.0676,-0.135135 -0.16216,-0.135135 -0.22973,0 -1.02703,0.445945 -2.13513,1.189188 l -0.027,0.378378 c 0.82432,-0.445946 0.86486,-0.459459 0.98648,-0.459459 0.10811,0 0.16217,0.08108 0.16217,0.229729 0,0.189189 -0.0405,0.378378 -0.24325,1.148648 -0.63513,2.351349 -0.63513,2.351349 -0.63513,2.7027 0,0.324324 0.12162,0.54054 0.32432,0.54054 0.22973,0 0.5946,-0.175675 1.31081,-0.635134 0.25676,-0.162162 0.51352,-0.324324 0.77027,-0.5 0.12162,-0.06757 0.21622,-0.135135 0.37838,-0.229729 z"
         style="font-family:Z003;-inkscape-font-specification:'Z003, Normal'"
         id="path507" />
      <path
         d="m 124.61556,97.794863 0.79729,-3.175673 0.33784,-0.216216 c 1.25676,-0.783783 1.4054,-0.864864 1.59459,-0.864864 0.0811,0 0.13514,0.06757 0.13514,0.175676 0,0.216216 -0.0946,0.608107 -0.5,2.256755 -0.2973,1.189188 -0.35135,1.432431 -0.35135,1.689187 0,0.189189 0.0541,0.351351 0.2027,0.608108 0.60811,-0.27027 1.55405,-0.864864 2.5,-1.567566 l 0.0946,-0.378378 c -1.31081,0.756756 -1.4054,0.797296 -1.54054,0.797296 -0.13513,0 -0.21621,-0.135135 -0.21621,-0.364864 0,-0.364865 0.054,-0.594594 0.64864,-2.743241 0.33784,-1.202702 0.33784,-1.202702 0.33784,-1.283783 0,-0.148648 -0.0946,-0.229729 -0.25675,-0.229729 -0.2973,0 -0.33784,0.02703 -1.7973,0.918918 -0.54054,0.337837 -0.89189,0.554053 -1.05405,0.662161 0.13513,-0.472972 0.32432,-1.297296 0.32432,-1.405404 0,-0.108108 -0.0676,-0.175675 -0.17567,-0.175675 -0.14865,0 -1.06757,0.472972 -2.12162,1.094593 l -0.0811,0.351351 c 0.86486,-0.391891 0.91891,-0.405405 1.04053,-0.405405 0.0946,0 0.16217,0.08108 0.16217,0.189189 0,0.297297 -0.24325,1.378377 -0.5946,2.635133 l -0.31081,1.094594 c -0.027,0.09459 -0.0946,0.351351 -0.18919,0.729729 z"
         style="font-family:Z003;-inkscape-font-specification:'Z003, Normal'"
         id="path509" />
      <path
         d="m 133.52094,96.348919 c -1.02703,0.621621 -1.45946,0.837837 -1.64865,0.837837 -0.17567,0 -0.39189,-0.337838 -0.39189,-0.635135 0,-0.189189 0.0135,-0.229729 0.31081,-1.513512 0.0676,-0.243243 0.12162,-0.5 0.17568,-0.756756 0.0135,-0.04054 0.0676,-0.256757 0.0946,-0.378378 0.45946,-0.01351 0.87838,-0.04054 1.33784,-0.06757 l 0.51351,-0.391891 h -1.72973 c 0.0676,-0.310811 0.0946,-0.405405 0.13514,-0.608108 0.0405,-0.135135 0.13513,-0.499999 0.32432,-1.229728 l 0.0811,-0.351351 -0.22973,0.121621 c -0.0811,0.02703 -0.18918,0.08108 -0.33783,0.148649 -0.0946,0.05405 -0.20271,0.09459 -0.31081,0.148648 -0.0541,0.02703 -0.10811,0.05405 -0.18919,0.08108 l -0.12162,0.554054 -0.14865,0.648648 -0.10811,0.486486 c -0.12162,0.01351 -0.2027,0.01351 -0.24324,0.01351 h -0.32433 c -0.027,0 -0.0946,0 -0.2027,0.01351 -0.0676,0.04054 -0.12162,0.08108 -0.13514,0.08108 -0.0405,0.02703 -0.12162,0.09459 -0.25675,0.202702 -0.027,0.01351 -0.0946,0.08108 -0.2027,0.148649 h 0.32432 0.62162 0.2973 l -0.13514,0.594594 c -0.58108,2.39189 -0.58108,2.39189 -0.58108,2.824322 0,0.432432 0.28379,0.905404 0.54054,0.905404 0.2973,0 1.21622,-0.554053 2.51351,-1.540539 z"
         style="font-family:Z003;-inkscape-font-specification:'Z003, Normal'"
         id="path511" />
      <path
         d="m 136.77769,89.727303 c -0.37838,0.297297 -0.68919,0.54054 -0.93243,0.702702 0.0946,0.283784 0.21621,0.513513 0.51351,0.945945 0.37838,-0.337837 0.41892,-0.378378 0.87838,-0.729729 -0.0405,-0.08108 -0.0676,-0.135135 -0.17568,-0.31081 -0.0811,-0.162162 -0.0946,-0.162162 -0.2027,-0.432432 z m 0.51351,6.756751 -0.22973,0.121621 c -0.93243,0.513513 -1.09459,0.581081 -1.25676,0.581081 -0.14864,0 -0.24324,-0.148649 -0.24324,-0.378378 0,-0.22973 0,-0.22973 0.44595,-2.013512 0.5,-2.054052 0.5,-2.054052 0.5,-2.16216 0,-0.08108 -0.0676,-0.135135 -0.16217,-0.135135 -0.22972,0 -1.02702,0.445945 -2.13513,1.189188 l -0.027,0.378378 c 0.82433,-0.445946 0.86487,-0.459459 0.98649,-0.459459 0.10811,0 0.16216,0.08108 0.16216,0.229729 0,0.189189 -0.0405,0.378378 -0.24324,1.148648 -0.63514,2.351349 -0.63514,2.351349 -0.63514,2.7027 0,0.324324 0.12163,0.54054 0.32433,0.54054 0.22973,0 0.59459,-0.175675 1.31081,-0.635134 0.25675,-0.162162 0.51351,-0.324324 0.77027,-0.5 0.12162,-0.06757 0.21621,-0.135135 0.37838,-0.229729 z"
         style="font-family:Z003;-inkscape-font-specification:'Z003, Normal'"
         id="path513" />
      <path
         d="m 138.54795,97.794863 0.7973,-3.175673 0.33784,-0.216216 c 1.25675,-0.783783 1.4054,-0.864864 1.59459,-0.864864 0.0811,0 0.13513,0.06757 0.13513,0.175676 0,0.216216 -0.0946,0.608107 -0.5,2.256755 -0.29729,1.189188 -0.35135,1.432431 -0.35135,1.689187 0,0.189189 0.0541,0.351351 0.20271,0.608108 0.6081,-0.27027 1.55405,-0.864864 2.49999,-1.567566 l 0.0946,-0.378378 c -1.31081,0.756756 -1.40541,0.797296 -1.54054,0.797296 -0.13514,0 -0.21622,-0.135135 -0.21622,-0.364864 0,-0.364865 0.0541,-0.594594 0.64865,-2.743241 0.33784,-1.202702 0.33784,-1.202702 0.33784,-1.283783 0,-0.148648 -0.0946,-0.229729 -0.25676,-0.229729 -0.2973,0 -0.33784,0.02703 -1.79729,0.918918 -0.54054,0.337837 -0.89189,0.554053 -1.05406,0.662161 0.13514,-0.472972 0.32433,-1.297296 0.32433,-1.405404 0,-0.108108 -0.0676,-0.175675 -0.17568,-0.175675 -0.14865,0 -1.06756,0.472972 -2.12162,1.094593 l -0.0811,0.351351 c 0.86487,-0.391891 0.91892,-0.405405 1.04054,-0.405405 0.0946,0 0.16216,0.08108 0.16216,0.189189 0,0.297297 -0.24324,1.378377 -0.59459,2.635133 l -0.31081,1.094594 c -0.027,0.09459 -0.0946,0.351351 -0.18919,0.729729 z"
         style="font-family:Z003;-inkscape-font-specification:'Z003, Normal'"
         id="path515" />
      <path
         d="m 147.95334,95.092163 c 0.054,-0.297297 0.12162,-0.554054 0.17567,-0.77027 0.0676,-0.256756 0.13514,-0.513513 0.20271,-0.756756 l 0.0676,-0.297297 c 0.24325,-0.06757 0.25676,-0.06757 0.68919,-0.756756 -0.0676,0 -0.24324,0 -1.56756,0.02703 -0.82433,0.01351 -1.06757,0.05405 -1.45946,0.297297 -0.64865,0.391892 -1.10811,0.783783 -1.39189,1.148648 -0.40541,0.54054 -0.89189,2.148647 -0.89189,2.986484 0,0.337837 0.0811,0.58108 0.29729,0.878377 -0.82432,0.716216 -1.06756,0.918918 -1.55405,1.337837 -0.67567,0.594594 -0.98648,1.040536 -0.98648,1.418916 0,0.5 0.58108,0.78378 1.62162,0.78378 1.24324,0 2.21621,-0.35135 3.12161,-1.13513 0.58108,-0.499999 0.71622,-0.783783 1,-2.121619 z m -1.77027,3.702699 c -0.17568,0.824324 -0.2973,1.121621 -0.54054,1.378378 -0.2973,0.35135 -0.85135,0.51351 -1.64865,0.51351 -0.87838,0 -1.35135,-0.22973 -1.35135,-0.67567 0,-0.554056 0.37838,-0.891894 4.12162,-3.770269 z m -1.02703,-1.770268 c -0.24324,-0.243243 -0.33783,-0.459459 -0.33783,-0.783783 0,-0.310811 0.0676,-0.648648 0.31081,-1.445945 0.24324,-0.81081 0.43243,-1.162161 0.74324,-1.35135 0.24324,-0.162162 0.54054,-0.189189 1.89189,-0.189189 h 0.43243 c -0.56757,0.418918 -0.63513,0.472972 -0.75676,0.675675 -0.1081,0.175675 -0.25675,0.689188 -0.55405,1.824323 -0.22973,0.148648 -0.27027,0.189189 -0.44594,0.31081 -0.32433,0.22973 -0.63514,0.472973 -0.93244,0.702702 z"
         style="font-family:Z003;-inkscape-font-specification:'Z003, Normal'"
         id="path517" />
    </g>
  </g>
</svg>
