%TF.GenerationSoftware,KiCad,Pcbnew,7.0.8*%
%TF.CreationDate,2023-12-07T15:10:25-06:00*%
%TF.ProjectId,MouseSensors,4d6f7573-6553-4656-9e73-6f72732e6b69,rev?*%
%TF.SameCoordinates,Original*%
%TF.FileFunction,Copper,L2,Bot*%
%TF.FilePolarity,Positive*%
%FSLAX46Y46*%
G04 Gerber Fmt 4.6, Leading zero omitted, Abs format (unit mm)*
G04 Created by KiCad (PCBNEW 7.0.8) date 2023-12-07 15:10:25*
%MOMM*%
%LPD*%
G01*
G04 APERTURE LIST*
%TA.AperFunction,ComponentPad*%
%ADD10C,1.200000*%
%TD*%
%TA.AperFunction,ComponentPad*%
%ADD11R,1.700000X1.700000*%
%TD*%
%TA.AperFunction,ComponentPad*%
%ADD12O,1.700000X1.700000*%
%TD*%
%TA.AperFunction,ComponentPad*%
%ADD13R,1.800000X1.800000*%
%TD*%
%TA.AperFunction,ComponentPad*%
%ADD14C,1.800000*%
%TD*%
%TA.AperFunction,ViaPad*%
%ADD15C,0.800000*%
%TD*%
%TA.AperFunction,Conductor*%
%ADD16C,0.250000*%
%TD*%
G04 APERTURE END LIST*
D10*
%TO.P,U1,1,SDIO*%
%TO.N,5050_SDIO*%
X147717500Y-97200000D03*
%TO.P,U1,2,XY_LED*%
%TO.N,Net-(D1-K)*%
X147717500Y-99200000D03*
%TO.P,U1,3,NReset*%
%TO.N,5050_Reset*%
X147717500Y-101200000D03*
%TO.P,U1,4,NCS*%
%TO.N,5050_NCS*%
X147717500Y-103200000D03*
%TO.P,U1,5,VCC*%
%TO.N,+5V*%
X160317500Y-102200000D03*
%TO.P,U1,6,VSS*%
%TO.N,VSS*%
X160317500Y-100200000D03*
%TO.P,U1,7,REG0*%
%TO.N,Net-(U1-REG0)*%
X160317500Y-98200000D03*
%TO.P,U1,8,SCLK*%
%TO.N,5050_SCLK*%
X160317500Y-96200000D03*
%TD*%
D11*
%TO.P,J1,1,Pin_1*%
%TO.N,+5V*%
X136225000Y-90500000D03*
D12*
%TO.P,J1,2,Pin_2*%
%TO.N,5050_SDIO*%
X136225000Y-93040000D03*
%TO.P,J1,3,Pin_3*%
%TO.N,5050_Reset*%
X136225000Y-95580000D03*
%TO.P,J1,4,Pin_4*%
%TO.N,5050_NCS*%
X136225000Y-98120000D03*
%TO.P,J1,5,Pin_5*%
%TO.N,5050_SCLK*%
X136225000Y-100660000D03*
%TO.P,J1,6,Pin_6*%
%TO.N,VSS*%
X136225000Y-103200000D03*
%TD*%
D13*
%TO.P,D1,1,K*%
%TO.N,Net-(D1-K)*%
X152725000Y-73000000D03*
D14*
%TO.P,D1,2,A*%
%TO.N,+5V*%
X155265000Y-73000000D03*
%TD*%
D15*
%TO.N,5050_SCLK*%
X138100000Y-108900000D03*
%TD*%
D16*
%TO.N,+5V*%
X159300000Y-111100000D02*
X160317500Y-110082500D01*
X141600000Y-111100000D02*
X159300000Y-111100000D01*
X136225000Y-90500000D02*
X134100000Y-92625000D01*
X160317500Y-110082500D02*
X160317500Y-102200000D01*
%TO.N,5050_SCLK*%
X159486396Y-111550000D02*
X140750000Y-111550000D01*
X161300000Y-97182500D02*
X161300000Y-109736396D01*
%TO.N,+5V*%
X134100000Y-92625000D02*
X134100000Y-103600000D01*
X134100000Y-103600000D02*
X141600000Y-111100000D01*
%TO.N,5050_SCLK*%
X160317500Y-96200000D02*
X161300000Y-97182500D01*
X140750000Y-111550000D02*
X138100000Y-108900000D01*
X161300000Y-109736396D02*
X159486396Y-111550000D01*
%TO.N,5050_SDIO*%
X140385000Y-97200000D02*
X136225000Y-93040000D01*
X147717500Y-97200000D02*
X140385000Y-97200000D01*
%TD*%
%TA.AperFunction,Conductor*%
%TO.N,VSS*%
G36*
X166028591Y-63016337D02*
G01*
X167713312Y-63979035D01*
X167761751Y-64029386D01*
X167766248Y-64038997D01*
X168989812Y-66975547D01*
X168990462Y-66977108D01*
X169000000Y-67024800D01*
X169000000Y-109970728D01*
X168986909Y-110026182D01*
X168971335Y-110057331D01*
X168971334Y-110057333D01*
X168946511Y-110106979D01*
X168927302Y-110145397D01*
X168882267Y-110235467D01*
X168870000Y-110260001D01*
X168869951Y-110260099D01*
X168868580Y-110262841D01*
X168803069Y-110393863D01*
X168780910Y-110438181D01*
X168772593Y-110454815D01*
X168027066Y-111945869D01*
X168026975Y-111946051D01*
X168014727Y-111970546D01*
X167972601Y-112018266D01*
X167969828Y-112020115D01*
X167948981Y-112034013D01*
X167879408Y-112080395D01*
X167755241Y-112163173D01*
X167754134Y-112163911D01*
X167740937Y-112172709D01*
X165031239Y-113979174D01*
X164964540Y-113999982D01*
X164962456Y-114000000D01*
X135044263Y-114000000D01*
X134977224Y-113980315D01*
X134965752Y-113971979D01*
X132272390Y-111768319D01*
X132238028Y-111723661D01*
X131011115Y-109024453D01*
X131000000Y-108973141D01*
X131000000Y-92605195D01*
X133469840Y-92605195D01*
X133474225Y-92651583D01*
X133474500Y-92657421D01*
X133474500Y-103517255D01*
X133472775Y-103532872D01*
X133473061Y-103532899D01*
X133472326Y-103540665D01*
X133474500Y-103609814D01*
X133474500Y-103639343D01*
X133474501Y-103639360D01*
X133475368Y-103646231D01*
X133475826Y-103652050D01*
X133477290Y-103698624D01*
X133477291Y-103698627D01*
X133482880Y-103717867D01*
X133486824Y-103736911D01*
X133489336Y-103756792D01*
X133506490Y-103800119D01*
X133508382Y-103805647D01*
X133521381Y-103850388D01*
X133531580Y-103867634D01*
X133540138Y-103885103D01*
X133547514Y-103903732D01*
X133574898Y-103941423D01*
X133578106Y-103946307D01*
X133601827Y-103986416D01*
X133601833Y-103986424D01*
X133615990Y-104000580D01*
X133628628Y-104015376D01*
X133640405Y-104031586D01*
X133640406Y-104031587D01*
X133676309Y-104061288D01*
X133680620Y-104065210D01*
X137593254Y-107977844D01*
X137626739Y-108039167D01*
X137621755Y-108108859D01*
X137579883Y-108164792D01*
X137578459Y-108165843D01*
X137494127Y-108227113D01*
X137367466Y-108367785D01*
X137272821Y-108531715D01*
X137272818Y-108531722D01*
X137214327Y-108711740D01*
X137214326Y-108711744D01*
X137194540Y-108900000D01*
X137214326Y-109088256D01*
X137214327Y-109088259D01*
X137272818Y-109268277D01*
X137272821Y-109268284D01*
X137367467Y-109432216D01*
X137494129Y-109572888D01*
X137647265Y-109684148D01*
X137647270Y-109684151D01*
X137820192Y-109761142D01*
X137820197Y-109761144D01*
X138005354Y-109800500D01*
X138064548Y-109800500D01*
X138131587Y-109820185D01*
X138152229Y-109836819D01*
X140249197Y-111933788D01*
X140259022Y-111946051D01*
X140259243Y-111945869D01*
X140264214Y-111951878D01*
X140284094Y-111970546D01*
X140314635Y-111999226D01*
X140335529Y-112020120D01*
X140341011Y-112024373D01*
X140345443Y-112028157D01*
X140379418Y-112060062D01*
X140396976Y-112069714D01*
X140413233Y-112080393D01*
X140429064Y-112092673D01*
X140448737Y-112101186D01*
X140471833Y-112111182D01*
X140477077Y-112113750D01*
X140517908Y-112136197D01*
X140530523Y-112139435D01*
X140537305Y-112141177D01*
X140555719Y-112147481D01*
X140574104Y-112155438D01*
X140620157Y-112162732D01*
X140625826Y-112163906D01*
X140670981Y-112175500D01*
X140691016Y-112175500D01*
X140710413Y-112177026D01*
X140730196Y-112180160D01*
X140776584Y-112175775D01*
X140782422Y-112175500D01*
X159403653Y-112175500D01*
X159419273Y-112177224D01*
X159419300Y-112176939D01*
X159427056Y-112177671D01*
X159427063Y-112177673D01*
X159496210Y-112175500D01*
X159525746Y-112175500D01*
X159532624Y-112174630D01*
X159538437Y-112174172D01*
X159585023Y-112172709D01*
X159604265Y-112167117D01*
X159623308Y-112163174D01*
X159643188Y-112160664D01*
X159686518Y-112143507D01*
X159692042Y-112141617D01*
X159695792Y-112140527D01*
X159736786Y-112128618D01*
X159754025Y-112118422D01*
X159771499Y-112109862D01*
X159790123Y-112102488D01*
X159790123Y-112102487D01*
X159790128Y-112102486D01*
X159827845Y-112075082D01*
X159832701Y-112071892D01*
X159872816Y-112048170D01*
X159886985Y-112033999D01*
X159901775Y-112021368D01*
X159917983Y-112009594D01*
X159947695Y-111973676D01*
X159951608Y-111969376D01*
X161683787Y-110237197D01*
X161696042Y-110227382D01*
X161695859Y-110227160D01*
X161701866Y-110222188D01*
X161701877Y-110222182D01*
X161732775Y-110189278D01*
X161749227Y-110171760D01*
X161759671Y-110161314D01*
X161770120Y-110150867D01*
X161774379Y-110145374D01*
X161778152Y-110140957D01*
X161810062Y-110106978D01*
X161819713Y-110089420D01*
X161830396Y-110073157D01*
X161842673Y-110057332D01*
X161861185Y-110014549D01*
X161863738Y-110009337D01*
X161886197Y-109968488D01*
X161891180Y-109949076D01*
X161897481Y-109930676D01*
X161905437Y-109912292D01*
X161912729Y-109866248D01*
X161913906Y-109860567D01*
X161925500Y-109815415D01*
X161925500Y-109795379D01*
X161927027Y-109775978D01*
X161927650Y-109772047D01*
X161930160Y-109756200D01*
X161925775Y-109709811D01*
X161925500Y-109703973D01*
X161925500Y-97265242D01*
X161927224Y-97249622D01*
X161926939Y-97249596D01*
X161927671Y-97241840D01*
X161927673Y-97241833D01*
X161925500Y-97172685D01*
X161925500Y-97143150D01*
X161924631Y-97136272D01*
X161924172Y-97130443D01*
X161922709Y-97083872D01*
X161917122Y-97064644D01*
X161913174Y-97045584D01*
X161910663Y-97025704D01*
X161893512Y-96982387D01*
X161891619Y-96976858D01*
X161878618Y-96932109D01*
X161878616Y-96932106D01*
X161868423Y-96914871D01*
X161859861Y-96897394D01*
X161852487Y-96878770D01*
X161852486Y-96878768D01*
X161825079Y-96841045D01*
X161821888Y-96836186D01*
X161816751Y-96827500D01*
X161798170Y-96796080D01*
X161798168Y-96796078D01*
X161798165Y-96796074D01*
X161784006Y-96781915D01*
X161771368Y-96767119D01*
X161761862Y-96754035D01*
X161759594Y-96750913D01*
X161723688Y-96721209D01*
X161719376Y-96717286D01*
X161445163Y-96443073D01*
X161411680Y-96381752D01*
X161409375Y-96343958D01*
X161422715Y-96200000D01*
X161403897Y-95996917D01*
X161348082Y-95800750D01*
X161257173Y-95618179D01*
X161142871Y-95466818D01*
X161134262Y-95455418D01*
X160983541Y-95318019D01*
X160983539Y-95318017D01*
X160810142Y-95210655D01*
X160810135Y-95210651D01*
X160691776Y-95164799D01*
X160619956Y-95136976D01*
X160419476Y-95099500D01*
X160215524Y-95099500D01*
X160015044Y-95136976D01*
X160015041Y-95136976D01*
X160015041Y-95136977D01*
X159824864Y-95210651D01*
X159824857Y-95210655D01*
X159651460Y-95318017D01*
X159651458Y-95318019D01*
X159500737Y-95455418D01*
X159377827Y-95618178D01*
X159286922Y-95800739D01*
X159286917Y-95800752D01*
X159231102Y-95996917D01*
X159212285Y-96199999D01*
X159212285Y-96200000D01*
X159231102Y-96403082D01*
X159286917Y-96599247D01*
X159286922Y-96599260D01*
X159377827Y-96781821D01*
X159500737Y-96944581D01*
X159589726Y-97025704D01*
X159651459Y-97081981D01*
X159671796Y-97094573D01*
X159718431Y-97146601D01*
X159729535Y-97215583D01*
X159701582Y-97279617D01*
X159671796Y-97305427D01*
X159651457Y-97318020D01*
X159500737Y-97455418D01*
X159377827Y-97618178D01*
X159286922Y-97800739D01*
X159286917Y-97800752D01*
X159231102Y-97996917D01*
X159212285Y-98199999D01*
X159212285Y-98200000D01*
X159231102Y-98403082D01*
X159286917Y-98599247D01*
X159286922Y-98599260D01*
X159377827Y-98781821D01*
X159500737Y-98944581D01*
X159651458Y-99081980D01*
X159651460Y-99081982D01*
X159684007Y-99102134D01*
X159730643Y-99154161D01*
X159741904Y-99221850D01*
X159736810Y-99265758D01*
X160273099Y-99802046D01*
X160192352Y-99814835D01*
X160079455Y-99872359D01*
X159989859Y-99961955D01*
X159932335Y-100074852D01*
X159919546Y-100155598D01*
X159380033Y-99616085D01*
X159378254Y-99618443D01*
X159287386Y-99800930D01*
X159287383Y-99800936D01*
X159231597Y-99997007D01*
X159231596Y-99997010D01*
X159212787Y-100199999D01*
X159212787Y-100200000D01*
X159231596Y-100402989D01*
X159231597Y-100402992D01*
X159287383Y-100599063D01*
X159287386Y-100599069D01*
X159378254Y-100781556D01*
X159378255Y-100781557D01*
X159380033Y-100783912D01*
X159919546Y-100244400D01*
X159932335Y-100325148D01*
X159989859Y-100438045D01*
X160079455Y-100527641D01*
X160192352Y-100585165D01*
X160273097Y-100597953D01*
X159736810Y-101134240D01*
X159741905Y-101178148D01*
X159730077Y-101247009D01*
X159684009Y-101297865D01*
X159651457Y-101318020D01*
X159500737Y-101455418D01*
X159377827Y-101618178D01*
X159286922Y-101800739D01*
X159286917Y-101800752D01*
X159231102Y-101996917D01*
X159212285Y-102199999D01*
X159212285Y-102200000D01*
X159231102Y-102403082D01*
X159286917Y-102599247D01*
X159286922Y-102599260D01*
X159377827Y-102781821D01*
X159500737Y-102944581D01*
X159651538Y-103082053D01*
X159687820Y-103141764D01*
X159692000Y-103173690D01*
X159692000Y-109772047D01*
X159672315Y-109839086D01*
X159655681Y-109859728D01*
X159149689Y-110365719D01*
X159088366Y-110399204D01*
X159018674Y-110394220D01*
X158962741Y-110352348D01*
X158938324Y-110286884D01*
X158938008Y-110277816D01*
X158938039Y-110260002D01*
X158938041Y-110260000D01*
X158938039Y-110259997D01*
X158938083Y-110235889D01*
X158938000Y-110235467D01*
X158938000Y-82784759D01*
X158938028Y-82784616D01*
X158938024Y-82784616D01*
X158938039Y-82760002D01*
X158938041Y-82760000D01*
X158937962Y-82759808D01*
X158937884Y-82759618D01*
X158937882Y-82759616D01*
X158937599Y-82759500D01*
X158937500Y-82759459D01*
X158912946Y-82759459D01*
X158912740Y-82759500D01*
X149112260Y-82759500D01*
X149112054Y-82759459D01*
X149087500Y-82759459D01*
X149087401Y-82759500D01*
X149087117Y-82759616D01*
X149087115Y-82759618D01*
X149086959Y-82759999D01*
X149086976Y-82784616D01*
X149086971Y-82784616D01*
X149087000Y-82784759D01*
X149087000Y-110235467D01*
X149086916Y-110235889D01*
X149086959Y-110260001D01*
X149087000Y-110260099D01*
X149087117Y-110260384D01*
X149089573Y-110262841D01*
X149123043Y-110324172D01*
X149118041Y-110393863D01*
X149076156Y-110449786D01*
X149010685Y-110474186D01*
X149001870Y-110474500D01*
X141910452Y-110474500D01*
X141843413Y-110454815D01*
X141822771Y-110438181D01*
X136011319Y-104626728D01*
X135977834Y-104565405D01*
X135975000Y-104539047D01*
X135975000Y-103635501D01*
X136082685Y-103684680D01*
X136189237Y-103700000D01*
X136260763Y-103700000D01*
X136367315Y-103684680D01*
X136475000Y-103635501D01*
X136475000Y-104530633D01*
X136688483Y-104473433D01*
X136688492Y-104473429D01*
X136902578Y-104373600D01*
X137096082Y-104238105D01*
X137263105Y-104071082D01*
X137398600Y-103877578D01*
X137498429Y-103663492D01*
X137498432Y-103663486D01*
X137555636Y-103450000D01*
X136658686Y-103450000D01*
X136684493Y-103409844D01*
X136725000Y-103271889D01*
X136725000Y-103128111D01*
X136684493Y-102990156D01*
X136658686Y-102950000D01*
X137555636Y-102950000D01*
X137555635Y-102949999D01*
X137498432Y-102736513D01*
X137498429Y-102736507D01*
X137398600Y-102522422D01*
X137398599Y-102522420D01*
X137263113Y-102328926D01*
X137263108Y-102328920D01*
X137096078Y-102161890D01*
X136910405Y-102031879D01*
X136866780Y-101977302D01*
X136859588Y-101907804D01*
X136891110Y-101845449D01*
X136910406Y-101828730D01*
X136950363Y-101800752D01*
X137096401Y-101698495D01*
X137263495Y-101531401D01*
X137399035Y-101337830D01*
X137498903Y-101123663D01*
X137560063Y-100895408D01*
X137580659Y-100660000D01*
X137560063Y-100424592D01*
X137511495Y-100243333D01*
X137498905Y-100196344D01*
X137498904Y-100196343D01*
X137498903Y-100196337D01*
X137399035Y-99982171D01*
X137372715Y-99944581D01*
X137263494Y-99788597D01*
X137096402Y-99621506D01*
X137096396Y-99621501D01*
X136910842Y-99491575D01*
X136867217Y-99436998D01*
X136860023Y-99367500D01*
X136891546Y-99305145D01*
X136910842Y-99288425D01*
X136977296Y-99241893D01*
X137096401Y-99158495D01*
X137263495Y-98991401D01*
X137399035Y-98797830D01*
X137498903Y-98583663D01*
X137560063Y-98355408D01*
X137580659Y-98120000D01*
X137560063Y-97884592D01*
X137511888Y-97704799D01*
X137498905Y-97656344D01*
X137498904Y-97656343D01*
X137498903Y-97656337D01*
X137399035Y-97442171D01*
X137371666Y-97403083D01*
X137263494Y-97248597D01*
X137096402Y-97081506D01*
X137096396Y-97081501D01*
X136910842Y-96951575D01*
X136867217Y-96896998D01*
X136860023Y-96827500D01*
X136891546Y-96765145D01*
X136910842Y-96748425D01*
X136949710Y-96721209D01*
X137096401Y-96618495D01*
X137263495Y-96451401D01*
X137399035Y-96257830D01*
X137498903Y-96043663D01*
X137560063Y-95815408D01*
X137580659Y-95580000D01*
X137580659Y-95579612D01*
X137580707Y-95579446D01*
X137581131Y-95574606D01*
X137582103Y-95574691D01*
X137600344Y-95512573D01*
X137653148Y-95466818D01*
X137722306Y-95456874D01*
X137785862Y-95485899D01*
X137792340Y-95491931D01*
X139884197Y-97583788D01*
X139894022Y-97596051D01*
X139894243Y-97595869D01*
X139899214Y-97601878D01*
X139925217Y-97626295D01*
X139949635Y-97649226D01*
X139970529Y-97670120D01*
X139976011Y-97674373D01*
X139980443Y-97678157D01*
X140014418Y-97710062D01*
X140031976Y-97719714D01*
X140048235Y-97730395D01*
X140064064Y-97742673D01*
X140106838Y-97761182D01*
X140112056Y-97763738D01*
X140152908Y-97786197D01*
X140172316Y-97791180D01*
X140190717Y-97797480D01*
X140209104Y-97805437D01*
X140252488Y-97812308D01*
X140255119Y-97812725D01*
X140260839Y-97813909D01*
X140305981Y-97825500D01*
X140326016Y-97825500D01*
X140345414Y-97827026D01*
X140365194Y-97830159D01*
X140365195Y-97830160D01*
X140365195Y-97830159D01*
X140365196Y-97830160D01*
X140411584Y-97825775D01*
X140417422Y-97825500D01*
X146749067Y-97825500D01*
X146816106Y-97845185D01*
X146848021Y-97874773D01*
X146900737Y-97944581D01*
X147030398Y-98062782D01*
X147051459Y-98081981D01*
X147071794Y-98094572D01*
X147071796Y-98094573D01*
X147118431Y-98146601D01*
X147129535Y-98215583D01*
X147101582Y-98279617D01*
X147071796Y-98305427D01*
X147051457Y-98318020D01*
X146900737Y-98455418D01*
X146777827Y-98618178D01*
X146686922Y-98800739D01*
X146686917Y-98800752D01*
X146631102Y-98996917D01*
X146612285Y-99199999D01*
X146612285Y-99200000D01*
X146631102Y-99403082D01*
X146686917Y-99599247D01*
X146686922Y-99599260D01*
X146777827Y-99781821D01*
X146900737Y-99944581D01*
X147030398Y-100062782D01*
X147051459Y-100081981D01*
X147071794Y-100094572D01*
X147071796Y-100094573D01*
X147118431Y-100146601D01*
X147129535Y-100215583D01*
X147101582Y-100279617D01*
X147071796Y-100305427D01*
X147051457Y-100318020D01*
X146900737Y-100455418D01*
X146777827Y-100618178D01*
X146686922Y-100800739D01*
X146686917Y-100800752D01*
X146631102Y-100996917D01*
X146612285Y-101199999D01*
X146612285Y-101200000D01*
X146631102Y-101403082D01*
X146686917Y-101599247D01*
X146686922Y-101599260D01*
X146777827Y-101781821D01*
X146900737Y-101944581D01*
X147030398Y-102062782D01*
X147051459Y-102081981D01*
X147071794Y-102094572D01*
X147071796Y-102094573D01*
X147118431Y-102146601D01*
X147129535Y-102215583D01*
X147101582Y-102279617D01*
X147071796Y-102305427D01*
X147051457Y-102318020D01*
X146900737Y-102455418D01*
X146777827Y-102618178D01*
X146686922Y-102800739D01*
X146686917Y-102800752D01*
X146631102Y-102996917D01*
X146612285Y-103199999D01*
X146612285Y-103200000D01*
X146631102Y-103403082D01*
X146686917Y-103599247D01*
X146686922Y-103599260D01*
X146777827Y-103781821D01*
X146900737Y-103944581D01*
X147051458Y-104081980D01*
X147051460Y-104081982D01*
X147150641Y-104143392D01*
X147224863Y-104189348D01*
X147415044Y-104263024D01*
X147615524Y-104300500D01*
X147615526Y-104300500D01*
X147819474Y-104300500D01*
X147819476Y-104300500D01*
X148019956Y-104263024D01*
X148210137Y-104189348D01*
X148383541Y-104081981D01*
X148511622Y-103965219D01*
X148534262Y-103944581D01*
X148565110Y-103903732D01*
X148657173Y-103781821D01*
X148748082Y-103599250D01*
X148803897Y-103403083D01*
X148822715Y-103200000D01*
X148803897Y-102996917D01*
X148748082Y-102800750D01*
X148740729Y-102785984D01*
X148678987Y-102661988D01*
X148657173Y-102618179D01*
X148534264Y-102455421D01*
X148534262Y-102455418D01*
X148383542Y-102318019D01*
X148372223Y-102311011D01*
X148363204Y-102305426D01*
X148316569Y-102253401D01*
X148305464Y-102184419D01*
X148333416Y-102120385D01*
X148363203Y-102094573D01*
X148383541Y-102081981D01*
X148498369Y-101977302D01*
X148534262Y-101944581D01*
X148609123Y-101845449D01*
X148657173Y-101781821D01*
X148748082Y-101599250D01*
X148803897Y-101403083D01*
X148822715Y-101200000D01*
X148815641Y-101123663D01*
X148803897Y-100996917D01*
X148775013Y-100895403D01*
X148748082Y-100800750D01*
X148657173Y-100618179D01*
X148534264Y-100455421D01*
X148534262Y-100455418D01*
X148383542Y-100318019D01*
X148372223Y-100311011D01*
X148363204Y-100305426D01*
X148316569Y-100253401D01*
X148305464Y-100184419D01*
X148333416Y-100120385D01*
X148363203Y-100094573D01*
X148383541Y-100081981D01*
X148476753Y-99997007D01*
X148534262Y-99944581D01*
X148534264Y-99944579D01*
X148657173Y-99781821D01*
X148748082Y-99599250D01*
X148803897Y-99403083D01*
X148822715Y-99200000D01*
X148818467Y-99154161D01*
X148803897Y-98996917D01*
X148789005Y-98944579D01*
X148748082Y-98800750D01*
X148657173Y-98618179D01*
X148534264Y-98455421D01*
X148534262Y-98455418D01*
X148383542Y-98318019D01*
X148372223Y-98311011D01*
X148363204Y-98305426D01*
X148316569Y-98253401D01*
X148305464Y-98184419D01*
X148333416Y-98120385D01*
X148363203Y-98094573D01*
X148383541Y-98081981D01*
X148534264Y-97944579D01*
X148657173Y-97781821D01*
X148748082Y-97599250D01*
X148803897Y-97403083D01*
X148822715Y-97200000D01*
X148811954Y-97083873D01*
X148803897Y-96996917D01*
X148789005Y-96944579D01*
X148748082Y-96800750D01*
X148745758Y-96796083D01*
X148703772Y-96711764D01*
X148657173Y-96618179D01*
X148534264Y-96455421D01*
X148534262Y-96455418D01*
X148383541Y-96318019D01*
X148383539Y-96318017D01*
X148210142Y-96210655D01*
X148210135Y-96210651D01*
X148115046Y-96173814D01*
X148019956Y-96136976D01*
X147819476Y-96099500D01*
X147615524Y-96099500D01*
X147415044Y-96136976D01*
X147415041Y-96136976D01*
X147415041Y-96136977D01*
X147224864Y-96210651D01*
X147224857Y-96210655D01*
X147051460Y-96318017D01*
X147051458Y-96318019D01*
X146900737Y-96455418D01*
X146848021Y-96525227D01*
X146791912Y-96566863D01*
X146749067Y-96574500D01*
X140695453Y-96574500D01*
X140628414Y-96554815D01*
X140607772Y-96538181D01*
X137565237Y-93495646D01*
X137531752Y-93434323D01*
X137533142Y-93375876D01*
X137560063Y-93275408D01*
X137580659Y-93040000D01*
X137560063Y-92804592D01*
X137506635Y-92605194D01*
X137498905Y-92576344D01*
X137498904Y-92576343D01*
X137498903Y-92576337D01*
X137399035Y-92362171D01*
X137358348Y-92304064D01*
X137263496Y-92168600D01*
X137219095Y-92124199D01*
X137141567Y-92046671D01*
X137108084Y-91985351D01*
X137113068Y-91915659D01*
X137154939Y-91859725D01*
X137185915Y-91842810D01*
X137317331Y-91793796D01*
X137432546Y-91707546D01*
X137518796Y-91592331D01*
X137569091Y-91457483D01*
X137575500Y-91397873D01*
X137575499Y-89602128D01*
X137569091Y-89542517D01*
X137518796Y-89407669D01*
X137518795Y-89407668D01*
X137518793Y-89407664D01*
X137432547Y-89292455D01*
X137432544Y-89292452D01*
X137317335Y-89206206D01*
X137317328Y-89206202D01*
X137182482Y-89155908D01*
X137182483Y-89155908D01*
X137122883Y-89149501D01*
X137122881Y-89149500D01*
X137122873Y-89149500D01*
X137122864Y-89149500D01*
X135327129Y-89149500D01*
X135327123Y-89149501D01*
X135267516Y-89155908D01*
X135132671Y-89206202D01*
X135132664Y-89206206D01*
X135017455Y-89292452D01*
X135017452Y-89292455D01*
X134931206Y-89407664D01*
X134931202Y-89407671D01*
X134880908Y-89542517D01*
X134874501Y-89602116D01*
X134874501Y-89602123D01*
X134874500Y-89602135D01*
X134874500Y-90914546D01*
X134854815Y-90981585D01*
X134838181Y-91002227D01*
X133716208Y-92124199D01*
X133703951Y-92134020D01*
X133704134Y-92134241D01*
X133698123Y-92139213D01*
X133650772Y-92189636D01*
X133629889Y-92210519D01*
X133629877Y-92210532D01*
X133625621Y-92216017D01*
X133621837Y-92220447D01*
X133589937Y-92254418D01*
X133589936Y-92254420D01*
X133580284Y-92271976D01*
X133569610Y-92288226D01*
X133557329Y-92304061D01*
X133557324Y-92304068D01*
X133538815Y-92346838D01*
X133536245Y-92352084D01*
X133513803Y-92392906D01*
X133508822Y-92412307D01*
X133502521Y-92430710D01*
X133494562Y-92449102D01*
X133494561Y-92449105D01*
X133487271Y-92495127D01*
X133486087Y-92500846D01*
X133474501Y-92545972D01*
X133474500Y-92545982D01*
X133474500Y-92566016D01*
X133472973Y-92585415D01*
X133469840Y-92605194D01*
X133469840Y-92605195D01*
X131000000Y-92605195D01*
X131000000Y-73947870D01*
X151324500Y-73947870D01*
X151324501Y-73947876D01*
X151330908Y-74007483D01*
X151381202Y-74142328D01*
X151381206Y-74142335D01*
X151467452Y-74257544D01*
X151467455Y-74257547D01*
X151582664Y-74343793D01*
X151582671Y-74343797D01*
X151717517Y-74394091D01*
X151717516Y-74394091D01*
X151724444Y-74394835D01*
X151777127Y-74400500D01*
X153672872Y-74400499D01*
X153732483Y-74394091D01*
X153867331Y-74343796D01*
X153982546Y-74257546D01*
X154068796Y-74142331D01*
X154097455Y-74065493D01*
X154139326Y-74009559D01*
X154204790Y-73985141D01*
X154273063Y-73999992D01*
X154304866Y-74024843D01*
X154312302Y-74032920D01*
X154313215Y-74033912D01*
X154313222Y-74033918D01*
X154496365Y-74176464D01*
X154496371Y-74176468D01*
X154496374Y-74176470D01*
X154700497Y-74286936D01*
X154814487Y-74326068D01*
X154920015Y-74362297D01*
X154920017Y-74362297D01*
X154920019Y-74362298D01*
X155148951Y-74400500D01*
X155148952Y-74400500D01*
X155381048Y-74400500D01*
X155381049Y-74400500D01*
X155609981Y-74362298D01*
X155829503Y-74286936D01*
X156033626Y-74176470D01*
X156216784Y-74033913D01*
X156373979Y-73863153D01*
X156500924Y-73668849D01*
X156594157Y-73456300D01*
X156651134Y-73231305D01*
X156670300Y-73000000D01*
X156670300Y-72999993D01*
X156651135Y-72768702D01*
X156651133Y-72768691D01*
X156594157Y-72543699D01*
X156500924Y-72331151D01*
X156373983Y-72136852D01*
X156373980Y-72136849D01*
X156373979Y-72136847D01*
X156216784Y-71966087D01*
X156216779Y-71966083D01*
X156216777Y-71966081D01*
X156033634Y-71823535D01*
X156033628Y-71823531D01*
X155829504Y-71713064D01*
X155829495Y-71713061D01*
X155609984Y-71637702D01*
X155419450Y-71605908D01*
X155381049Y-71599500D01*
X155148951Y-71599500D01*
X155110550Y-71605908D01*
X154920015Y-71637702D01*
X154700504Y-71713061D01*
X154700495Y-71713064D01*
X154496371Y-71823531D01*
X154496365Y-71823535D01*
X154313222Y-71966081D01*
X154313218Y-71966085D01*
X154304866Y-71975158D01*
X154244979Y-72011148D01*
X154175141Y-72009047D01*
X154117525Y-71969522D01*
X154097455Y-71934507D01*
X154068797Y-71857671D01*
X154068793Y-71857664D01*
X153982547Y-71742455D01*
X153982544Y-71742452D01*
X153867335Y-71656206D01*
X153867328Y-71656202D01*
X153732482Y-71605908D01*
X153732483Y-71605908D01*
X153672883Y-71599501D01*
X153672881Y-71599500D01*
X153672873Y-71599500D01*
X153672864Y-71599500D01*
X151777129Y-71599500D01*
X151777123Y-71599501D01*
X151717516Y-71605908D01*
X151582671Y-71656202D01*
X151582664Y-71656206D01*
X151467455Y-71742452D01*
X151467452Y-71742455D01*
X151381206Y-71857664D01*
X151381202Y-71857671D01*
X151330908Y-71992517D01*
X151324501Y-72052116D01*
X151324500Y-72052135D01*
X151324500Y-73947870D01*
X131000000Y-73947870D01*
X131000000Y-67026859D01*
X131011115Y-66975547D01*
X131087393Y-66807735D01*
X131590909Y-65700000D01*
X152501857Y-65700000D01*
X152509529Y-65792589D01*
X152509850Y-65796456D01*
X152510062Y-65801579D01*
X152510062Y-65824081D01*
X152513765Y-65846282D01*
X152514399Y-65851365D01*
X152522391Y-65947816D01*
X152522391Y-65947818D01*
X152546154Y-66041657D01*
X152547205Y-66046672D01*
X152550907Y-66068854D01*
X152550909Y-66068862D01*
X152558214Y-66090141D01*
X152559676Y-66095053D01*
X152583435Y-66188874D01*
X152583439Y-66188887D01*
X152622315Y-66277515D01*
X152624177Y-66282286D01*
X152631486Y-66303576D01*
X152631488Y-66303579D01*
X152642198Y-66323371D01*
X152644448Y-66327975D01*
X152683327Y-66416608D01*
X152736264Y-66497634D01*
X152738888Y-66502038D01*
X152749595Y-66521823D01*
X152749598Y-66521828D01*
X152763426Y-66539595D01*
X152766403Y-66543765D01*
X152819334Y-66624782D01*
X152819338Y-66624787D01*
X152884893Y-66696000D01*
X152888206Y-66699911D01*
X152902022Y-66717662D01*
X152918580Y-66732905D01*
X152922194Y-66736519D01*
X152987756Y-66807738D01*
X153064151Y-66867199D01*
X153068047Y-66870499D01*
X153074413Y-66876360D01*
X153084599Y-66885737D01*
X153103436Y-66898044D01*
X153107602Y-66901018D01*
X153183991Y-66960474D01*
X153269140Y-67006554D01*
X153273501Y-67009153D01*
X153292355Y-67021471D01*
X153312994Y-67030524D01*
X153317533Y-67032743D01*
X153402690Y-67078828D01*
X153494254Y-67110262D01*
X153498989Y-67112109D01*
X153519616Y-67121157D01*
X153541432Y-67126681D01*
X153546316Y-67128135D01*
X153617589Y-67152603D01*
X153637885Y-67159571D01*
X153671689Y-67165211D01*
X153733366Y-67175503D01*
X153738379Y-67176555D01*
X153760176Y-67182075D01*
X153760178Y-67182075D01*
X153760185Y-67182077D01*
X153782625Y-67183936D01*
X153787669Y-67184564D01*
X153883165Y-67200500D01*
X153883166Y-67200500D01*
X153979948Y-67200500D01*
X153985061Y-67200711D01*
X154000915Y-67202025D01*
X154007498Y-67202571D01*
X154007500Y-67202571D01*
X154007502Y-67202571D01*
X154014084Y-67202025D01*
X154029938Y-67200711D01*
X154035052Y-67200500D01*
X154131830Y-67200500D01*
X154131835Y-67200500D01*
X154227351Y-67184561D01*
X154232362Y-67183937D01*
X154254815Y-67182077D01*
X154276653Y-67176546D01*
X154281605Y-67175508D01*
X154377114Y-67159571D01*
X154468698Y-67128129D01*
X154473542Y-67126688D01*
X154495384Y-67121157D01*
X154516000Y-67112113D01*
X154520734Y-67110265D01*
X154612310Y-67078828D01*
X154697475Y-67032738D01*
X154702005Y-67030524D01*
X154722645Y-67021471D01*
X154741508Y-67009146D01*
X154745837Y-67006566D01*
X154831009Y-66960474D01*
X154907431Y-66900992D01*
X154911518Y-66898073D01*
X154930398Y-66885739D01*
X154946966Y-66870487D01*
X154950841Y-66867204D01*
X155027244Y-66807738D01*
X155092813Y-66736510D01*
X155096397Y-66732925D01*
X155112977Y-66717663D01*
X155126820Y-66699876D01*
X155130081Y-66696026D01*
X155195664Y-66624785D01*
X155248627Y-66543718D01*
X155251553Y-66539620D01*
X155265402Y-66521828D01*
X155276123Y-66502016D01*
X155278733Y-66497636D01*
X155331673Y-66416607D01*
X155370561Y-66327950D01*
X155372799Y-66323375D01*
X155372801Y-66323371D01*
X155383514Y-66303576D01*
X155390836Y-66282246D01*
X155392662Y-66277564D01*
X155431563Y-66188881D01*
X155455326Y-66095041D01*
X155456778Y-66090162D01*
X155464092Y-66068859D01*
X155467796Y-66046658D01*
X155468840Y-66041677D01*
X155492608Y-65947821D01*
X155500604Y-65851321D01*
X155501233Y-65846282D01*
X155504938Y-65824081D01*
X155505588Y-65792589D01*
X155505783Y-65788812D01*
X155513143Y-65700000D01*
X155505784Y-65611190D01*
X155505588Y-65607407D01*
X155504938Y-65575919D01*
X155501233Y-65553714D01*
X155500603Y-65548666D01*
X155492608Y-65452179D01*
X155468841Y-65358327D01*
X155467795Y-65353334D01*
X155464092Y-65331143D01*
X155464091Y-65331140D01*
X155456783Y-65309850D01*
X155455325Y-65304952D01*
X155431562Y-65211116D01*
X155392685Y-65122487D01*
X155392674Y-65122461D01*
X155390829Y-65117734D01*
X155383514Y-65096424D01*
X155372798Y-65076622D01*
X155370552Y-65072029D01*
X155331673Y-64983393D01*
X155331673Y-64983392D01*
X155278731Y-64902358D01*
X155276107Y-64897954D01*
X155265404Y-64878177D01*
X155265402Y-64878172D01*
X155251580Y-64860413D01*
X155248602Y-64856242D01*
X155195666Y-64775218D01*
X155195665Y-64775217D01*
X155195664Y-64775215D01*
X155165741Y-64742710D01*
X155130106Y-64703999D01*
X155126795Y-64700090D01*
X155112977Y-64682337D01*
X155112973Y-64682332D01*
X155096419Y-64667093D01*
X155092801Y-64663476D01*
X155027244Y-64592262D01*
X154950852Y-64532804D01*
X154946944Y-64529493D01*
X154930398Y-64514261D01*
X154911563Y-64501955D01*
X154907397Y-64498981D01*
X154831009Y-64439526D01*
X154831008Y-64439525D01*
X154831005Y-64439523D01*
X154831003Y-64439522D01*
X154745885Y-64393459D01*
X154741481Y-64390835D01*
X154722645Y-64378529D01*
X154702047Y-64369494D01*
X154697440Y-64367242D01*
X154612311Y-64321172D01*
X154612302Y-64321169D01*
X154520759Y-64289742D01*
X154515984Y-64287879D01*
X154515812Y-64287803D01*
X154495384Y-64278843D01*
X154495380Y-64278842D01*
X154495378Y-64278841D01*
X154473576Y-64273319D01*
X154468666Y-64271858D01*
X154377114Y-64240429D01*
X154281638Y-64224496D01*
X154276623Y-64223444D01*
X154254812Y-64217922D01*
X154254816Y-64217922D01*
X154232395Y-64216065D01*
X154227310Y-64215431D01*
X154131836Y-64199500D01*
X154131835Y-64199500D01*
X154035041Y-64199500D01*
X154029927Y-64199288D01*
X154014055Y-64197973D01*
X154007502Y-64197430D01*
X154007498Y-64197430D01*
X154000944Y-64197973D01*
X153985072Y-64199288D01*
X153979959Y-64199500D01*
X153883165Y-64199500D01*
X153787688Y-64215431D01*
X153782603Y-64216065D01*
X153760188Y-64217922D01*
X153760183Y-64217923D01*
X153738380Y-64223444D01*
X153733366Y-64224495D01*
X153637882Y-64240429D01*
X153546334Y-64271856D01*
X153541427Y-64273317D01*
X153519626Y-64278839D01*
X153519616Y-64278843D01*
X153499010Y-64287881D01*
X153494238Y-64289742D01*
X153402694Y-64321170D01*
X153402683Y-64321175D01*
X153317562Y-64367240D01*
X153312958Y-64369491D01*
X153292354Y-64378529D01*
X153292345Y-64378534D01*
X153273523Y-64390831D01*
X153269121Y-64393455D01*
X153183992Y-64439524D01*
X153183989Y-64439527D01*
X153107606Y-64498977D01*
X153103438Y-64501954D01*
X153084599Y-64514263D01*
X153068042Y-64529503D01*
X153064135Y-64532812D01*
X152987755Y-64592262D01*
X152922197Y-64663476D01*
X152918575Y-64667098D01*
X152902029Y-64682330D01*
X152902014Y-64682346D01*
X152888199Y-64700094D01*
X152884890Y-64704001D01*
X152819336Y-64775215D01*
X152766401Y-64856236D01*
X152763425Y-64860404D01*
X152749599Y-64878170D01*
X152749594Y-64878177D01*
X152738886Y-64897964D01*
X152736263Y-64902365D01*
X152683328Y-64983390D01*
X152644453Y-65072015D01*
X152642204Y-65076615D01*
X152631485Y-65096424D01*
X152624176Y-65117714D01*
X152622314Y-65122487D01*
X152596773Y-65180717D01*
X152583439Y-65211116D01*
X152583436Y-65211122D01*
X152559677Y-65304942D01*
X152558216Y-65309850D01*
X152550908Y-65331140D01*
X152547205Y-65353327D01*
X152546154Y-65358342D01*
X152522391Y-65452178D01*
X152522391Y-65452182D01*
X152514398Y-65548634D01*
X152513765Y-65553714D01*
X152510062Y-65575919D01*
X152510062Y-65598419D01*
X152509850Y-65603535D01*
X152501857Y-65700000D01*
X131590909Y-65700000D01*
X132230759Y-64292329D01*
X132276419Y-64239446D01*
X132292324Y-64230761D01*
X134975547Y-63011115D01*
X135026859Y-63000000D01*
X165967071Y-63000000D01*
X166028591Y-63016337D01*
G37*
%TD.AperFunction*%
%TD*%
M02*
