%TF.GenerationSoftware,KiCad,Pcbnew,7.0.8*%
%TF.CreationDate,2023-12-08T10:16:49-06:00*%
%TF.ProjectId,ADNS9800,41444e53-3938-4303-902e-6b696361645f,rev?*%
%TF.SameCoordinates,Original*%
%TF.FileFunction,Legend,Top*%
%TF.FilePolarity,Positive*%
%FSLAX46Y46*%
G04 Gerber Fmt 4.6, Leading zero omitted, Abs format (unit mm)*
G04 Created by KiCad (PCBNEW 7.0.8) date 2023-12-08 10:16:49*
%MOMM*%
%LPD*%
G01*
G04 APERTURE LIST*
%ADD10C,0.150000*%
%ADD11C,0.120000*%
G04 APERTURE END LIST*
D10*
X150488095Y-77769819D02*
X150488095Y-78579342D01*
X150488095Y-78579342D02*
X150535714Y-78674580D01*
X150535714Y-78674580D02*
X150583333Y-78722200D01*
X150583333Y-78722200D02*
X150678571Y-78769819D01*
X150678571Y-78769819D02*
X150869047Y-78769819D01*
X150869047Y-78769819D02*
X150964285Y-78722200D01*
X150964285Y-78722200D02*
X151011904Y-78674580D01*
X151011904Y-78674580D02*
X151059523Y-78579342D01*
X151059523Y-78579342D02*
X151059523Y-77769819D01*
X152059523Y-78769819D02*
X151488095Y-78769819D01*
X151773809Y-78769819D02*
X151773809Y-77769819D01*
X151773809Y-77769819D02*
X151678571Y-77912676D01*
X151678571Y-77912676D02*
X151583333Y-78007914D01*
X151583333Y-78007914D02*
X151488095Y-78055533D01*
X143092261Y-75700057D02*
X142997023Y-75652438D01*
X142997023Y-75652438D02*
X142901785Y-75557200D01*
X142901785Y-75557200D02*
X142758928Y-75414342D01*
X142758928Y-75414342D02*
X142663690Y-75366723D01*
X142663690Y-75366723D02*
X142568452Y-75366723D01*
X142616071Y-75604819D02*
X142520833Y-75557200D01*
X142520833Y-75557200D02*
X142425595Y-75461961D01*
X142425595Y-75461961D02*
X142377976Y-75271485D01*
X142377976Y-75271485D02*
X142377976Y-74938152D01*
X142377976Y-74938152D02*
X142425595Y-74747676D01*
X142425595Y-74747676D02*
X142520833Y-74652438D01*
X142520833Y-74652438D02*
X142616071Y-74604819D01*
X142616071Y-74604819D02*
X142806547Y-74604819D01*
X142806547Y-74604819D02*
X142901785Y-74652438D01*
X142901785Y-74652438D02*
X142997023Y-74747676D01*
X142997023Y-74747676D02*
X143044642Y-74938152D01*
X143044642Y-74938152D02*
X143044642Y-75271485D01*
X143044642Y-75271485D02*
X142997023Y-75461961D01*
X142997023Y-75461961D02*
X142901785Y-75557200D01*
X142901785Y-75557200D02*
X142806547Y-75604819D01*
X142806547Y-75604819D02*
X142616071Y-75604819D01*
X143997023Y-75604819D02*
X143425595Y-75604819D01*
X143711309Y-75604819D02*
X143711309Y-74604819D01*
X143711309Y-74604819D02*
X143616071Y-74747676D01*
X143616071Y-74747676D02*
X143520833Y-74842914D01*
X143520833Y-74842914D02*
X143425595Y-74890533D01*
X125416666Y-74754819D02*
X125416666Y-75469104D01*
X125416666Y-75469104D02*
X125369047Y-75611961D01*
X125369047Y-75611961D02*
X125273809Y-75707200D01*
X125273809Y-75707200D02*
X125130952Y-75754819D01*
X125130952Y-75754819D02*
X125035714Y-75754819D01*
X126416666Y-75754819D02*
X125845238Y-75754819D01*
X126130952Y-75754819D02*
X126130952Y-74754819D01*
X126130952Y-74754819D02*
X126035714Y-74897676D01*
X126035714Y-74897676D02*
X125940476Y-74992914D01*
X125940476Y-74992914D02*
X125845238Y-75040533D01*
X164833333Y-85179580D02*
X164785714Y-85227200D01*
X164785714Y-85227200D02*
X164642857Y-85274819D01*
X164642857Y-85274819D02*
X164547619Y-85274819D01*
X164547619Y-85274819D02*
X164404762Y-85227200D01*
X164404762Y-85227200D02*
X164309524Y-85131961D01*
X164309524Y-85131961D02*
X164261905Y-85036723D01*
X164261905Y-85036723D02*
X164214286Y-84846247D01*
X164214286Y-84846247D02*
X164214286Y-84703390D01*
X164214286Y-84703390D02*
X164261905Y-84512914D01*
X164261905Y-84512914D02*
X164309524Y-84417676D01*
X164309524Y-84417676D02*
X164404762Y-84322438D01*
X164404762Y-84322438D02*
X164547619Y-84274819D01*
X164547619Y-84274819D02*
X164642857Y-84274819D01*
X164642857Y-84274819D02*
X164785714Y-84322438D01*
X164785714Y-84322438D02*
X164833333Y-84370057D01*
X165309524Y-85274819D02*
X165500000Y-85274819D01*
X165500000Y-85274819D02*
X165595238Y-85227200D01*
X165595238Y-85227200D02*
X165642857Y-85179580D01*
X165642857Y-85179580D02*
X165738095Y-85036723D01*
X165738095Y-85036723D02*
X165785714Y-84846247D01*
X165785714Y-84846247D02*
X165785714Y-84465295D01*
X165785714Y-84465295D02*
X165738095Y-84370057D01*
X165738095Y-84370057D02*
X165690476Y-84322438D01*
X165690476Y-84322438D02*
X165595238Y-84274819D01*
X165595238Y-84274819D02*
X165404762Y-84274819D01*
X165404762Y-84274819D02*
X165309524Y-84322438D01*
X165309524Y-84322438D02*
X165261905Y-84370057D01*
X165261905Y-84370057D02*
X165214286Y-84465295D01*
X165214286Y-84465295D02*
X165214286Y-84703390D01*
X165214286Y-84703390D02*
X165261905Y-84798628D01*
X165261905Y-84798628D02*
X165309524Y-84846247D01*
X165309524Y-84846247D02*
X165404762Y-84893866D01*
X165404762Y-84893866D02*
X165595238Y-84893866D01*
X165595238Y-84893866D02*
X165690476Y-84846247D01*
X165690476Y-84846247D02*
X165738095Y-84798628D01*
X165738095Y-84798628D02*
X165785714Y-84703390D01*
X160383333Y-85179580D02*
X160335714Y-85227200D01*
X160335714Y-85227200D02*
X160192857Y-85274819D01*
X160192857Y-85274819D02*
X160097619Y-85274819D01*
X160097619Y-85274819D02*
X159954762Y-85227200D01*
X159954762Y-85227200D02*
X159859524Y-85131961D01*
X159859524Y-85131961D02*
X159811905Y-85036723D01*
X159811905Y-85036723D02*
X159764286Y-84846247D01*
X159764286Y-84846247D02*
X159764286Y-84703390D01*
X159764286Y-84703390D02*
X159811905Y-84512914D01*
X159811905Y-84512914D02*
X159859524Y-84417676D01*
X159859524Y-84417676D02*
X159954762Y-84322438D01*
X159954762Y-84322438D02*
X160097619Y-84274819D01*
X160097619Y-84274819D02*
X160192857Y-84274819D01*
X160192857Y-84274819D02*
X160335714Y-84322438D01*
X160335714Y-84322438D02*
X160383333Y-84370057D01*
X160954762Y-84703390D02*
X160859524Y-84655771D01*
X160859524Y-84655771D02*
X160811905Y-84608152D01*
X160811905Y-84608152D02*
X160764286Y-84512914D01*
X160764286Y-84512914D02*
X160764286Y-84465295D01*
X160764286Y-84465295D02*
X160811905Y-84370057D01*
X160811905Y-84370057D02*
X160859524Y-84322438D01*
X160859524Y-84322438D02*
X160954762Y-84274819D01*
X160954762Y-84274819D02*
X161145238Y-84274819D01*
X161145238Y-84274819D02*
X161240476Y-84322438D01*
X161240476Y-84322438D02*
X161288095Y-84370057D01*
X161288095Y-84370057D02*
X161335714Y-84465295D01*
X161335714Y-84465295D02*
X161335714Y-84512914D01*
X161335714Y-84512914D02*
X161288095Y-84608152D01*
X161288095Y-84608152D02*
X161240476Y-84655771D01*
X161240476Y-84655771D02*
X161145238Y-84703390D01*
X161145238Y-84703390D02*
X160954762Y-84703390D01*
X160954762Y-84703390D02*
X160859524Y-84751009D01*
X160859524Y-84751009D02*
X160811905Y-84798628D01*
X160811905Y-84798628D02*
X160764286Y-84893866D01*
X160764286Y-84893866D02*
X160764286Y-85084342D01*
X160764286Y-85084342D02*
X160811905Y-85179580D01*
X160811905Y-85179580D02*
X160859524Y-85227200D01*
X160859524Y-85227200D02*
X160954762Y-85274819D01*
X160954762Y-85274819D02*
X161145238Y-85274819D01*
X161145238Y-85274819D02*
X161240476Y-85227200D01*
X161240476Y-85227200D02*
X161288095Y-85179580D01*
X161288095Y-85179580D02*
X161335714Y-85084342D01*
X161335714Y-85084342D02*
X161335714Y-84893866D01*
X161335714Y-84893866D02*
X161288095Y-84798628D01*
X161288095Y-84798628D02*
X161240476Y-84751009D01*
X161240476Y-84751009D02*
X161145238Y-84703390D01*
X160533333Y-81929580D02*
X160485714Y-81977200D01*
X160485714Y-81977200D02*
X160342857Y-82024819D01*
X160342857Y-82024819D02*
X160247619Y-82024819D01*
X160247619Y-82024819D02*
X160104762Y-81977200D01*
X160104762Y-81977200D02*
X160009524Y-81881961D01*
X160009524Y-81881961D02*
X159961905Y-81786723D01*
X159961905Y-81786723D02*
X159914286Y-81596247D01*
X159914286Y-81596247D02*
X159914286Y-81453390D01*
X159914286Y-81453390D02*
X159961905Y-81262914D01*
X159961905Y-81262914D02*
X160009524Y-81167676D01*
X160009524Y-81167676D02*
X160104762Y-81072438D01*
X160104762Y-81072438D02*
X160247619Y-81024819D01*
X160247619Y-81024819D02*
X160342857Y-81024819D01*
X160342857Y-81024819D02*
X160485714Y-81072438D01*
X160485714Y-81072438D02*
X160533333Y-81120057D01*
X160866667Y-81024819D02*
X161533333Y-81024819D01*
X161533333Y-81024819D02*
X161104762Y-82024819D01*
X164833333Y-81929580D02*
X164785714Y-81977200D01*
X164785714Y-81977200D02*
X164642857Y-82024819D01*
X164642857Y-82024819D02*
X164547619Y-82024819D01*
X164547619Y-82024819D02*
X164404762Y-81977200D01*
X164404762Y-81977200D02*
X164309524Y-81881961D01*
X164309524Y-81881961D02*
X164261905Y-81786723D01*
X164261905Y-81786723D02*
X164214286Y-81596247D01*
X164214286Y-81596247D02*
X164214286Y-81453390D01*
X164214286Y-81453390D02*
X164261905Y-81262914D01*
X164261905Y-81262914D02*
X164309524Y-81167676D01*
X164309524Y-81167676D02*
X164404762Y-81072438D01*
X164404762Y-81072438D02*
X164547619Y-81024819D01*
X164547619Y-81024819D02*
X164642857Y-81024819D01*
X164642857Y-81024819D02*
X164785714Y-81072438D01*
X164785714Y-81072438D02*
X164833333Y-81120057D01*
X165690476Y-81024819D02*
X165500000Y-81024819D01*
X165500000Y-81024819D02*
X165404762Y-81072438D01*
X165404762Y-81072438D02*
X165357143Y-81120057D01*
X165357143Y-81120057D02*
X165261905Y-81262914D01*
X165261905Y-81262914D02*
X165214286Y-81453390D01*
X165214286Y-81453390D02*
X165214286Y-81834342D01*
X165214286Y-81834342D02*
X165261905Y-81929580D01*
X165261905Y-81929580D02*
X165309524Y-81977200D01*
X165309524Y-81977200D02*
X165404762Y-82024819D01*
X165404762Y-82024819D02*
X165595238Y-82024819D01*
X165595238Y-82024819D02*
X165690476Y-81977200D01*
X165690476Y-81977200D02*
X165738095Y-81929580D01*
X165738095Y-81929580D02*
X165785714Y-81834342D01*
X165785714Y-81834342D02*
X165785714Y-81596247D01*
X165785714Y-81596247D02*
X165738095Y-81501009D01*
X165738095Y-81501009D02*
X165690476Y-81453390D01*
X165690476Y-81453390D02*
X165595238Y-81405771D01*
X165595238Y-81405771D02*
X165404762Y-81405771D01*
X165404762Y-81405771D02*
X165309524Y-81453390D01*
X165309524Y-81453390D02*
X165261905Y-81501009D01*
X165261905Y-81501009D02*
X165214286Y-81596247D01*
X160383333Y-91679580D02*
X160335714Y-91727200D01*
X160335714Y-91727200D02*
X160192857Y-91774819D01*
X160192857Y-91774819D02*
X160097619Y-91774819D01*
X160097619Y-91774819D02*
X159954762Y-91727200D01*
X159954762Y-91727200D02*
X159859524Y-91631961D01*
X159859524Y-91631961D02*
X159811905Y-91536723D01*
X159811905Y-91536723D02*
X159764286Y-91346247D01*
X159764286Y-91346247D02*
X159764286Y-91203390D01*
X159764286Y-91203390D02*
X159811905Y-91012914D01*
X159811905Y-91012914D02*
X159859524Y-90917676D01*
X159859524Y-90917676D02*
X159954762Y-90822438D01*
X159954762Y-90822438D02*
X160097619Y-90774819D01*
X160097619Y-90774819D02*
X160192857Y-90774819D01*
X160192857Y-90774819D02*
X160335714Y-90822438D01*
X160335714Y-90822438D02*
X160383333Y-90870057D01*
X161288095Y-90774819D02*
X160811905Y-90774819D01*
X160811905Y-90774819D02*
X160764286Y-91251009D01*
X160764286Y-91251009D02*
X160811905Y-91203390D01*
X160811905Y-91203390D02*
X160907143Y-91155771D01*
X160907143Y-91155771D02*
X161145238Y-91155771D01*
X161145238Y-91155771D02*
X161240476Y-91203390D01*
X161240476Y-91203390D02*
X161288095Y-91251009D01*
X161288095Y-91251009D02*
X161335714Y-91346247D01*
X161335714Y-91346247D02*
X161335714Y-91584342D01*
X161335714Y-91584342D02*
X161288095Y-91679580D01*
X161288095Y-91679580D02*
X161240476Y-91727200D01*
X161240476Y-91727200D02*
X161145238Y-91774819D01*
X161145238Y-91774819D02*
X160907143Y-91774819D01*
X160907143Y-91774819D02*
X160811905Y-91727200D01*
X160811905Y-91727200D02*
X160764286Y-91679580D01*
X160333333Y-88429580D02*
X160285714Y-88477200D01*
X160285714Y-88477200D02*
X160142857Y-88524819D01*
X160142857Y-88524819D02*
X160047619Y-88524819D01*
X160047619Y-88524819D02*
X159904762Y-88477200D01*
X159904762Y-88477200D02*
X159809524Y-88381961D01*
X159809524Y-88381961D02*
X159761905Y-88286723D01*
X159761905Y-88286723D02*
X159714286Y-88096247D01*
X159714286Y-88096247D02*
X159714286Y-87953390D01*
X159714286Y-87953390D02*
X159761905Y-87762914D01*
X159761905Y-87762914D02*
X159809524Y-87667676D01*
X159809524Y-87667676D02*
X159904762Y-87572438D01*
X159904762Y-87572438D02*
X160047619Y-87524819D01*
X160047619Y-87524819D02*
X160142857Y-87524819D01*
X160142857Y-87524819D02*
X160285714Y-87572438D01*
X160285714Y-87572438D02*
X160333333Y-87620057D01*
X161190476Y-87858152D02*
X161190476Y-88524819D01*
X160952381Y-87477200D02*
X160714286Y-88191485D01*
X160714286Y-88191485D02*
X161333333Y-88191485D01*
X138083333Y-75929580D02*
X138035714Y-75977200D01*
X138035714Y-75977200D02*
X137892857Y-76024819D01*
X137892857Y-76024819D02*
X137797619Y-76024819D01*
X137797619Y-76024819D02*
X137654762Y-75977200D01*
X137654762Y-75977200D02*
X137559524Y-75881961D01*
X137559524Y-75881961D02*
X137511905Y-75786723D01*
X137511905Y-75786723D02*
X137464286Y-75596247D01*
X137464286Y-75596247D02*
X137464286Y-75453390D01*
X137464286Y-75453390D02*
X137511905Y-75262914D01*
X137511905Y-75262914D02*
X137559524Y-75167676D01*
X137559524Y-75167676D02*
X137654762Y-75072438D01*
X137654762Y-75072438D02*
X137797619Y-75024819D01*
X137797619Y-75024819D02*
X137892857Y-75024819D01*
X137892857Y-75024819D02*
X138035714Y-75072438D01*
X138035714Y-75072438D02*
X138083333Y-75120057D01*
X138416667Y-75024819D02*
X139035714Y-75024819D01*
X139035714Y-75024819D02*
X138702381Y-75405771D01*
X138702381Y-75405771D02*
X138845238Y-75405771D01*
X138845238Y-75405771D02*
X138940476Y-75453390D01*
X138940476Y-75453390D02*
X138988095Y-75501009D01*
X138988095Y-75501009D02*
X139035714Y-75596247D01*
X139035714Y-75596247D02*
X139035714Y-75834342D01*
X139035714Y-75834342D02*
X138988095Y-75929580D01*
X138988095Y-75929580D02*
X138940476Y-75977200D01*
X138940476Y-75977200D02*
X138845238Y-76024819D01*
X138845238Y-76024819D02*
X138559524Y-76024819D01*
X138559524Y-76024819D02*
X138464286Y-75977200D01*
X138464286Y-75977200D02*
X138416667Y-75929580D01*
X138083333Y-72429580D02*
X138035714Y-72477200D01*
X138035714Y-72477200D02*
X137892857Y-72524819D01*
X137892857Y-72524819D02*
X137797619Y-72524819D01*
X137797619Y-72524819D02*
X137654762Y-72477200D01*
X137654762Y-72477200D02*
X137559524Y-72381961D01*
X137559524Y-72381961D02*
X137511905Y-72286723D01*
X137511905Y-72286723D02*
X137464286Y-72096247D01*
X137464286Y-72096247D02*
X137464286Y-71953390D01*
X137464286Y-71953390D02*
X137511905Y-71762914D01*
X137511905Y-71762914D02*
X137559524Y-71667676D01*
X137559524Y-71667676D02*
X137654762Y-71572438D01*
X137654762Y-71572438D02*
X137797619Y-71524819D01*
X137797619Y-71524819D02*
X137892857Y-71524819D01*
X137892857Y-71524819D02*
X138035714Y-71572438D01*
X138035714Y-71572438D02*
X138083333Y-71620057D01*
X138464286Y-71620057D02*
X138511905Y-71572438D01*
X138511905Y-71572438D02*
X138607143Y-71524819D01*
X138607143Y-71524819D02*
X138845238Y-71524819D01*
X138845238Y-71524819D02*
X138940476Y-71572438D01*
X138940476Y-71572438D02*
X138988095Y-71620057D01*
X138988095Y-71620057D02*
X139035714Y-71715295D01*
X139035714Y-71715295D02*
X139035714Y-71810533D01*
X139035714Y-71810533D02*
X138988095Y-71953390D01*
X138988095Y-71953390D02*
X138416667Y-72524819D01*
X138416667Y-72524819D02*
X139035714Y-72524819D01*
X148083333Y-73929580D02*
X148035714Y-73977200D01*
X148035714Y-73977200D02*
X147892857Y-74024819D01*
X147892857Y-74024819D02*
X147797619Y-74024819D01*
X147797619Y-74024819D02*
X147654762Y-73977200D01*
X147654762Y-73977200D02*
X147559524Y-73881961D01*
X147559524Y-73881961D02*
X147511905Y-73786723D01*
X147511905Y-73786723D02*
X147464286Y-73596247D01*
X147464286Y-73596247D02*
X147464286Y-73453390D01*
X147464286Y-73453390D02*
X147511905Y-73262914D01*
X147511905Y-73262914D02*
X147559524Y-73167676D01*
X147559524Y-73167676D02*
X147654762Y-73072438D01*
X147654762Y-73072438D02*
X147797619Y-73024819D01*
X147797619Y-73024819D02*
X147892857Y-73024819D01*
X147892857Y-73024819D02*
X148035714Y-73072438D01*
X148035714Y-73072438D02*
X148083333Y-73120057D01*
X149035714Y-74024819D02*
X148464286Y-74024819D01*
X148750000Y-74024819D02*
X148750000Y-73024819D01*
X148750000Y-73024819D02*
X148654762Y-73167676D01*
X148654762Y-73167676D02*
X148559524Y-73262914D01*
X148559524Y-73262914D02*
X148464286Y-73310533D01*
%TO.C,kibuzzard-65734037*%
G36*
X150424838Y-99324970D02*
G01*
X150563839Y-99345589D01*
X150700150Y-99379733D01*
X150832458Y-99427074D01*
X150959489Y-99487155D01*
X151080019Y-99559398D01*
X151192888Y-99643107D01*
X151297008Y-99737476D01*
X151391377Y-99841596D01*
X151475086Y-99954465D01*
X151547329Y-100074995D01*
X151607410Y-100202026D01*
X151654751Y-100334334D01*
X151688895Y-100470645D01*
X151709514Y-100609647D01*
X151716409Y-100750000D01*
X151709514Y-100890353D01*
X151688895Y-101029355D01*
X151654751Y-101165666D01*
X151607410Y-101297974D01*
X151547329Y-101425005D01*
X151475086Y-101545535D01*
X151391377Y-101658404D01*
X151297008Y-101762524D01*
X151192888Y-101856893D01*
X151080019Y-101940602D01*
X150959489Y-102012845D01*
X150832458Y-102072926D01*
X150700150Y-102120267D01*
X150563839Y-102154411D01*
X150424838Y-102175030D01*
X150284484Y-102181925D01*
X150185266Y-102181925D01*
X149957856Y-102181925D01*
X148070716Y-102181925D01*
X147486119Y-102181925D01*
X145634697Y-102181925D01*
X144313103Y-102181925D01*
X142023531Y-102181925D01*
X140631691Y-102181925D01*
X138960053Y-102181925D01*
X138314734Y-102181925D01*
X138215516Y-102181925D01*
X138075163Y-102175030D01*
X137936161Y-102154411D01*
X137799850Y-102120267D01*
X137667542Y-102072926D01*
X137540511Y-102012845D01*
X137419981Y-101940602D01*
X137307112Y-101856893D01*
X137202992Y-101762524D01*
X137108623Y-101658404D01*
X137024914Y-101545535D01*
X136961996Y-101440562D01*
X138314734Y-101440562D01*
X138343309Y-101592963D01*
X138406413Y-101637611D01*
X138524284Y-101652494D01*
X138960053Y-101652494D01*
X139135447Y-101636271D01*
X139297298Y-101587605D01*
X139445605Y-101506493D01*
X139580369Y-101392937D01*
X139692362Y-101256685D01*
X139772357Y-101107485D01*
X139794296Y-101033369D01*
X139955416Y-101033369D01*
X139972084Y-101187092D01*
X140022091Y-101330760D01*
X140105434Y-101464375D01*
X140196815Y-101554565D01*
X140318556Y-101625109D01*
X140465301Y-101670651D01*
X140631691Y-101685831D01*
X140853593Y-101672586D01*
X141012095Y-101632848D01*
X141107197Y-101566620D01*
X141138897Y-101473900D01*
X141107941Y-101364362D01*
X140976972Y-101257206D01*
X140881722Y-101283400D01*
X140855528Y-101292925D01*
X140762064Y-101314356D01*
X140638834Y-101321500D01*
X140481672Y-101276256D01*
X140403091Y-101164337D01*
X140967447Y-101164337D01*
X141128181Y-101094091D01*
X141182652Y-101004794D01*
X141200809Y-100877397D01*
X141180569Y-100736605D01*
X141119847Y-100607125D01*
X141103352Y-100588075D01*
X141296059Y-100588075D01*
X141343684Y-100716662D01*
X141838984Y-101564387D01*
X141860416Y-101590581D01*
X141925900Y-101641778D01*
X142023531Y-101666781D01*
X142127116Y-101634634D01*
X142203316Y-101562006D01*
X142275518Y-101438181D01*
X143477284Y-101438181D01*
X143491572Y-101562006D01*
X143554675Y-101629872D01*
X143686834Y-101652494D01*
X144313103Y-101652494D01*
X144456375Y-101634634D01*
X144584566Y-101581056D01*
X144697675Y-101491759D01*
X144786178Y-101376004D01*
X144840550Y-101243051D01*
X144860791Y-101092900D01*
X144853279Y-101028606D01*
X144979853Y-101028606D01*
X145005154Y-101209284D01*
X145081056Y-101370316D01*
X145193868Y-101503070D01*
X145329897Y-101598916D01*
X145479916Y-101656959D01*
X145634697Y-101676306D01*
X145789181Y-101658149D01*
X145938306Y-101603678D01*
X146073740Y-101510809D01*
X146187147Y-101377459D01*
X146263942Y-101212855D01*
X146289541Y-101026225D01*
X146289395Y-101025034D01*
X146408603Y-101025034D01*
X146428182Y-101184181D01*
X146486920Y-101329834D01*
X146584816Y-101461994D01*
X146705598Y-101566504D01*
X146832995Y-101629210D01*
X146967006Y-101650113D01*
X147143516Y-101618561D01*
X147261091Y-101523906D01*
X147312288Y-101617966D01*
X147486119Y-101650113D01*
X147591787Y-101634634D01*
X147649234Y-101588200D01*
X147669475Y-101525097D01*
X147670044Y-101512000D01*
X147863547Y-101512000D01*
X147906409Y-101614394D01*
X148070716Y-101654875D01*
X148192159Y-101639397D01*
X148256453Y-101592963D01*
X148279075Y-101529859D01*
X148282647Y-101447706D01*
X148282647Y-101027416D01*
X148927966Y-101027416D01*
X148947545Y-101186430D01*
X149006282Y-101331686D01*
X149104178Y-101463184D01*
X149225887Y-101567033D01*
X149356062Y-101629343D01*
X149494703Y-101650113D01*
X149653652Y-101621538D01*
X149773309Y-101535812D01*
X149828971Y-101623323D01*
X149957856Y-101652494D01*
X150090909Y-101636420D01*
X150159072Y-101588200D01*
X150181694Y-101527478D01*
X150185266Y-101445325D01*
X150185266Y-100023719D01*
X150181694Y-99941566D01*
X150160263Y-99878462D01*
X150097159Y-99828456D01*
X149976906Y-99814169D01*
X149856653Y-99828456D01*
X149793550Y-99877272D01*
X149772119Y-99939184D01*
X149768547Y-100021338D01*
X149768547Y-100521400D01*
X149651270Y-100432103D01*
X149494703Y-100402337D01*
X149357252Y-100423240D01*
X149227474Y-100485946D01*
X149105369Y-100590456D01*
X149006812Y-100722616D01*
X148947677Y-100868269D01*
X148927966Y-101027416D01*
X148282647Y-101027416D01*
X148282647Y-100947644D01*
X148338606Y-100838106D01*
X148458859Y-100792862D01*
X148562444Y-100811912D01*
X148644597Y-100830962D01*
X148775566Y-100740475D01*
X148820809Y-100573787D01*
X148791044Y-100463059D01*
X148716034Y-100414244D01*
X148632691Y-100394003D01*
X148538631Y-100388050D01*
X148408853Y-100428531D01*
X148312413Y-100492825D01*
X148277884Y-100533306D01*
X148251691Y-100454725D01*
X148189183Y-100413648D01*
X148073097Y-100399956D01*
X147950463Y-100416030D01*
X147887359Y-100464250D01*
X147867119Y-100524972D01*
X147863547Y-100607125D01*
X147863547Y-101442944D01*
X147863547Y-101512000D01*
X147670044Y-101512000D01*
X147673047Y-101442944D01*
X147673047Y-100609506D01*
X147669475Y-100527353D01*
X147648044Y-100464250D01*
X147584941Y-100414244D01*
X147446828Y-100399956D01*
X147312883Y-100433294D01*
X147258709Y-100533306D01*
X147215847Y-100484491D01*
X147122978Y-100430912D01*
X146975341Y-100402337D01*
X146837890Y-100423107D01*
X146708112Y-100485417D01*
X146586006Y-100589266D01*
X146487449Y-100720764D01*
X146428315Y-100866020D01*
X146408603Y-101025034D01*
X146289395Y-101025034D01*
X146267580Y-100846970D01*
X146201699Y-100690204D01*
X146091897Y-100555928D01*
X145953520Y-100453402D01*
X145801914Y-100391886D01*
X145637078Y-100371381D01*
X145471978Y-100392019D01*
X145319578Y-100453931D01*
X145179878Y-100557119D01*
X145068753Y-100692056D01*
X145002078Y-100849219D01*
X144979853Y-101028606D01*
X144853279Y-101028606D01*
X144845180Y-100959285D01*
X144798349Y-100834667D01*
X144720297Y-100719044D01*
X144788163Y-100581527D01*
X144810784Y-100430912D01*
X144793587Y-100293329D01*
X144741993Y-100169504D01*
X144656003Y-100059437D01*
X144549641Y-99974771D01*
X144427403Y-99923971D01*
X144289291Y-99907037D01*
X143689216Y-99907037D01*
X143566581Y-99923111D01*
X143503478Y-99971331D01*
X143480856Y-100033244D01*
X143477284Y-100116587D01*
X143477284Y-101438181D01*
X142275518Y-101438181D01*
X142696234Y-100716662D01*
X142743859Y-100585694D01*
X142712903Y-100504731D01*
X142620034Y-100428531D01*
X142489066Y-100378525D01*
X142412866Y-100398766D01*
X142371194Y-100439247D01*
X142331903Y-100504731D01*
X142019959Y-101104806D01*
X141708016Y-100504731D01*
X141644913Y-100408291D01*
X141562759Y-100376144D01*
X141419884Y-100428531D01*
X141327016Y-100505327D01*
X141296059Y-100588075D01*
X141103352Y-100588075D01*
X141031443Y-100505029D01*
X140921013Y-100432103D01*
X140788556Y-100388348D01*
X140634072Y-100373762D01*
X140451113Y-100393739D01*
X140289584Y-100453667D01*
X140149488Y-100553547D01*
X140041670Y-100686765D01*
X139976979Y-100846705D01*
X139955416Y-101033369D01*
X139794296Y-101033369D01*
X139820354Y-100945337D01*
X139836353Y-100770241D01*
X139819982Y-100595814D01*
X139770869Y-100435675D01*
X139689013Y-100289823D01*
X139574416Y-100158259D01*
X139438238Y-100049392D01*
X139291642Y-99971629D01*
X139134629Y-99924971D01*
X138967197Y-99909419D01*
X138526666Y-99907037D01*
X138404031Y-99923111D01*
X138340928Y-99971331D01*
X138318306Y-100033244D01*
X138314734Y-100116587D01*
X138314734Y-101440562D01*
X136961996Y-101440562D01*
X136952671Y-101425005D01*
X136892590Y-101297974D01*
X136845249Y-101165666D01*
X136811105Y-101029355D01*
X136790486Y-100890353D01*
X136783591Y-100750000D01*
X136790486Y-100609647D01*
X136811105Y-100470645D01*
X136845249Y-100334334D01*
X136892590Y-100202026D01*
X136952671Y-100074995D01*
X137024914Y-99954465D01*
X137108623Y-99841596D01*
X137202992Y-99737476D01*
X137307112Y-99643107D01*
X137419981Y-99559398D01*
X137540511Y-99487155D01*
X137667542Y-99427074D01*
X137799850Y-99379733D01*
X137936161Y-99345589D01*
X138075163Y-99324970D01*
X138215516Y-99318075D01*
X138314734Y-99318075D01*
X150185266Y-99318075D01*
X150284484Y-99318075D01*
X150424838Y-99324970D01*
G37*
G36*
X139134182Y-100363345D02*
G01*
X139280331Y-100460678D01*
X139381237Y-100606232D01*
X139414872Y-100783337D01*
X139380344Y-100959848D01*
X139276759Y-101103616D01*
X139130313Y-101199163D01*
X138967197Y-101231013D01*
X138736216Y-101231013D01*
X138736216Y-100330900D01*
X138964816Y-100330900D01*
X139134182Y-100363345D01*
G37*
G36*
X144350013Y-100352331D02*
G01*
X144389303Y-100435675D01*
X144382159Y-100521400D01*
X144267859Y-100571406D01*
X144121413Y-100604744D01*
X144077359Y-100741666D01*
X144120222Y-100878588D01*
X144248809Y-100911925D01*
X144382159Y-100930975D01*
X144426213Y-100978600D01*
X144439309Y-101069087D01*
X144401805Y-101190531D01*
X144289291Y-101231013D01*
X143898766Y-101231013D01*
X143898766Y-100328519D01*
X144232141Y-100328519D01*
X144350013Y-100352331D01*
G37*
G36*
X145794241Y-100847631D02*
G01*
X145849605Y-100919664D01*
X145868059Y-101021462D01*
X145848414Y-101123856D01*
X145789478Y-101197675D01*
X145632316Y-101257206D01*
X145477534Y-101198866D01*
X145420384Y-101126237D01*
X145401334Y-101025034D01*
X145419789Y-100923534D01*
X145475153Y-100850012D01*
X145634697Y-100790481D01*
X145794241Y-100847631D01*
G37*
G36*
X147186081Y-100883350D02*
G01*
X147242041Y-101027416D01*
X147183700Y-101169100D01*
X147037253Y-101233394D01*
X146887234Y-101170291D01*
X146825322Y-101028606D01*
X146883663Y-100883350D01*
X147036063Y-100816675D01*
X147186081Y-100883350D01*
G37*
G36*
X149705444Y-100885731D02*
G01*
X149761403Y-101029797D01*
X149703063Y-101171481D01*
X149556616Y-101235775D01*
X149406597Y-101171481D01*
X149344684Y-101028606D01*
X149401834Y-100884541D01*
X149554234Y-100819056D01*
X149705444Y-100885731D01*
G37*
G36*
X140747181Y-100783337D02*
G01*
X140788853Y-100871444D01*
X140698366Y-100947644D01*
X140398328Y-100947644D01*
X140474528Y-100813103D01*
X140628119Y-100750000D01*
X140747181Y-100783337D01*
G37*
%TO.C,kibuzzard-65734027*%
G36*
X157854322Y-94172346D02*
G01*
X158081368Y-94206025D01*
X158304019Y-94261796D01*
X158520132Y-94339123D01*
X158727625Y-94437260D01*
X158924500Y-94555262D01*
X159108861Y-94691993D01*
X159278932Y-94846136D01*
X159433075Y-95016207D01*
X159569806Y-95200568D01*
X159687808Y-95397442D01*
X159785945Y-95604935D01*
X159863271Y-95821048D01*
X159919043Y-96043700D01*
X159952722Y-96270746D01*
X159963984Y-96500000D01*
X159952722Y-96729254D01*
X159919043Y-96956300D01*
X159863271Y-97178952D01*
X159785945Y-97395065D01*
X159687808Y-97602558D01*
X159569806Y-97799432D01*
X159433075Y-97983793D01*
X159278932Y-98153864D01*
X159108861Y-98308007D01*
X158924500Y-98444738D01*
X158727625Y-98562740D01*
X158520132Y-98660877D01*
X158304019Y-98738204D01*
X158081368Y-98793975D01*
X157854322Y-98827654D01*
X157625068Y-98838917D01*
X157459703Y-98838917D01*
X156356391Y-98838917D01*
X153943391Y-98838917D01*
X151578016Y-98838917D01*
X148724484Y-98838917D01*
X147811672Y-98838917D01*
X145323266Y-98838917D01*
X143656391Y-98838917D01*
X139751141Y-98838917D01*
X138014812Y-98838917D01*
X135540297Y-98838917D01*
X135374932Y-98838917D01*
X135145678Y-98827654D01*
X134918632Y-98793975D01*
X134695981Y-98738204D01*
X134479868Y-98660877D01*
X134272375Y-98562740D01*
X134075500Y-98444738D01*
X133891139Y-98308007D01*
X133721068Y-98153864D01*
X133566925Y-97983793D01*
X133430194Y-97799432D01*
X133353083Y-97670781D01*
X135540297Y-97670781D01*
X135597844Y-97805719D01*
X135770484Y-97924781D01*
X135982812Y-97992250D01*
X136109812Y-97954547D01*
X136181250Y-97881125D01*
X136242766Y-97766031D01*
X136449141Y-97337406D01*
X137548484Y-97337406D01*
X137754859Y-97766031D01*
X137816375Y-97885094D01*
X137887812Y-97960500D01*
X138014812Y-97996219D01*
X138227141Y-97928750D01*
X138399781Y-97806711D01*
X138457328Y-97670781D01*
X138433516Y-97599344D01*
X138675609Y-97599344D01*
X138723234Y-97853344D01*
X138828406Y-97927758D01*
X139024859Y-97952563D01*
X139751141Y-97952563D01*
X140043464Y-97925525D01*
X140313215Y-97844414D01*
X140560394Y-97709229D01*
X140686091Y-97603313D01*
X141469609Y-97603313D01*
X141475562Y-97742219D01*
X141513266Y-97849375D01*
X141616453Y-97929742D01*
X141814891Y-97956531D01*
X142019281Y-97929742D01*
X142124453Y-97849375D01*
X142162156Y-97746188D01*
X142168109Y-97607281D01*
X142168109Y-96301563D01*
X142279014Y-96446201D01*
X142423873Y-96636701D01*
X142602687Y-96873063D01*
X142815457Y-97155285D01*
X143062181Y-97483368D01*
X143342859Y-97857313D01*
X143442078Y-97932719D01*
X143656391Y-97956531D01*
X143860781Y-97929742D01*
X143965953Y-97849375D01*
X144003656Y-97746188D01*
X144009609Y-97607281D01*
X144009609Y-97319547D01*
X144267578Y-97319547D01*
X144370766Y-97547750D01*
X144406484Y-97591406D01*
X144521578Y-97712453D01*
X144700172Y-97837469D01*
X144970047Y-97950578D01*
X145141695Y-97984809D01*
X145323266Y-97996219D01*
X145561832Y-97972847D01*
X145790696Y-97902733D01*
X146009859Y-97785875D01*
X146160672Y-97656395D01*
X146279734Y-97482266D01*
X146357125Y-97270434D01*
X146376591Y-97087375D01*
X146581359Y-97087375D01*
X146601203Y-97269938D01*
X146689508Y-97371141D01*
X146867109Y-97404875D01*
X147811672Y-97404875D01*
X148010109Y-97369156D01*
X148079562Y-97271922D01*
X148101391Y-97091344D01*
X148077578Y-96908781D01*
X147992250Y-96810555D01*
X147815641Y-96777813D01*
X146871078Y-96777813D01*
X146680578Y-96813531D01*
X146605172Y-96908781D01*
X146581359Y-97087375D01*
X146376591Y-97087375D01*
X146382922Y-97027844D01*
X146357621Y-96790215D01*
X146281719Y-96593266D01*
X146168113Y-96442949D01*
X146029703Y-96345219D01*
X145871945Y-96279238D01*
X145700297Y-96224172D01*
X145528648Y-96181012D01*
X145370891Y-96150750D01*
X145118875Y-96059469D01*
X145050648Y-95940406D01*
X148299828Y-95940406D01*
X148330917Y-96150089D01*
X148424182Y-96345219D01*
X148579625Y-96525797D01*
X148778283Y-96670215D01*
X149001194Y-96756866D01*
X149248359Y-96785750D01*
X149546016Y-96718281D01*
X149526172Y-96773844D01*
X149447789Y-96912750D01*
X149307891Y-97067531D01*
X149071750Y-97202469D01*
X148756234Y-97258031D01*
X148526047Y-97281844D01*
X148412937Y-97387016D01*
X148375234Y-97607281D01*
X148403016Y-97808695D01*
X148486359Y-97920813D01*
X148700672Y-97960500D01*
X148724484Y-97960500D01*
X149008806Y-97940180D01*
X149268044Y-97879220D01*
X149502201Y-97777620D01*
X149711274Y-97635380D01*
X149895266Y-97452500D01*
X150049571Y-97239299D01*
X150160436Y-97023875D01*
X150522328Y-97023875D01*
X150558267Y-97303010D01*
X150666085Y-97542458D01*
X150845781Y-97742219D01*
X151070898Y-97892149D01*
X151314976Y-97982108D01*
X151578016Y-98012094D01*
X151841056Y-97981887D01*
X152085134Y-97891267D01*
X152310250Y-97740234D01*
X152489946Y-97539813D01*
X152597764Y-97301026D01*
X152633703Y-97023875D01*
X152611379Y-96858180D01*
X152544406Y-96694469D01*
X152418571Y-96503969D01*
X152832141Y-96503969D01*
X152844929Y-96782222D01*
X152883293Y-97040191D01*
X152947234Y-97277875D01*
X153033059Y-97477305D01*
X153139719Y-97646969D01*
X153279617Y-97789348D01*
X153465156Y-97906922D01*
X153688895Y-97985801D01*
X153943391Y-98012094D01*
X154196895Y-97986297D01*
X154417656Y-97908906D01*
X154599723Y-97791828D01*
X154737141Y-97646969D01*
X154872574Y-97418021D01*
X154969312Y-97151867D01*
X155027355Y-96848506D01*
X155046703Y-96507938D01*
X155046503Y-96503969D01*
X155245141Y-96503969D01*
X155257929Y-96782222D01*
X155296293Y-97040191D01*
X155360234Y-97277875D01*
X155446059Y-97477305D01*
X155552719Y-97646969D01*
X155692617Y-97789348D01*
X155878156Y-97906922D01*
X156101895Y-97985801D01*
X156356391Y-98012094D01*
X156609895Y-97986297D01*
X156830656Y-97908906D01*
X157012723Y-97791828D01*
X157150141Y-97646969D01*
X157285574Y-97418021D01*
X157382312Y-97151867D01*
X157440355Y-96848506D01*
X157459703Y-96507938D01*
X157446474Y-96245559D01*
X157406786Y-95992882D01*
X157340641Y-95749906D01*
X157257793Y-95549484D01*
X157152125Y-95376844D01*
X157013219Y-95230992D01*
X156830656Y-95110937D01*
X156608902Y-95030570D01*
X156352422Y-95003781D01*
X156094949Y-95031066D01*
X155870219Y-95112922D01*
X155685176Y-95234961D01*
X155546766Y-95382797D01*
X155437129Y-95573793D01*
X155338406Y-95825313D01*
X155286592Y-96025955D01*
X155255503Y-96252174D01*
X155245141Y-96503969D01*
X155046503Y-96503969D01*
X155033474Y-96245559D01*
X154993786Y-95992882D01*
X154927641Y-95749906D01*
X154844793Y-95549484D01*
X154739125Y-95376844D01*
X154600219Y-95230992D01*
X154417656Y-95110937D01*
X154195902Y-95030570D01*
X153939422Y-95003781D01*
X153681949Y-95031066D01*
X153457219Y-95112922D01*
X153272176Y-95234961D01*
X153133766Y-95382797D01*
X153024129Y-95573793D01*
X152925406Y-95825313D01*
X152873592Y-96025955D01*
X152842503Y-96252174D01*
X152832141Y-96503969D01*
X152418571Y-96503969D01*
X152401531Y-96478172D01*
X152312234Y-96396813D01*
X152371766Y-96333313D01*
X152488844Y-96146781D01*
X152546391Y-95904688D01*
X152514641Y-95653333D01*
X152419391Y-95433729D01*
X152260641Y-95245875D01*
X152058675Y-95102559D01*
X151833780Y-95016569D01*
X151585953Y-94987906D01*
X151337245Y-95016128D01*
X151109703Y-95100795D01*
X150903328Y-95241906D01*
X150740168Y-95426233D01*
X150642273Y-95640545D01*
X150609641Y-95884844D01*
X150675125Y-96160672D01*
X150780297Y-96333313D01*
X150847766Y-96396813D01*
X150764422Y-96472219D01*
X150603687Y-96700422D01*
X150542668Y-96859668D01*
X150522328Y-97023875D01*
X150160436Y-97023875D01*
X150169586Y-97006095D01*
X150255311Y-96752889D01*
X150306746Y-96479680D01*
X150323891Y-96186469D01*
X150294786Y-95858606D01*
X150207474Y-95573517D01*
X150061953Y-95331203D01*
X149858665Y-95147097D01*
X149598050Y-95036634D01*
X149280109Y-94999813D01*
X149021259Y-95029799D01*
X148789748Y-95119757D01*
X148585578Y-95269687D01*
X148426828Y-95464156D01*
X148331578Y-95687729D01*
X148299828Y-95940406D01*
X145050648Y-95940406D01*
X145017672Y-95882859D01*
X145103000Y-95712203D01*
X145317312Y-95650688D01*
X145529641Y-95702281D01*
X145591156Y-95753875D01*
X145636797Y-95793563D01*
X145843172Y-95872938D01*
X145984062Y-95823328D01*
X146120984Y-95674500D01*
X146216234Y-95456219D01*
X146093203Y-95261750D01*
X145993984Y-95186344D01*
X145722125Y-95061328D01*
X145515254Y-95015191D01*
X145287547Y-94999813D01*
X145009514Y-95028696D01*
X144773373Y-95115347D01*
X144579125Y-95259766D01*
X144434707Y-95442990D01*
X144348056Y-95646057D01*
X144319172Y-95868969D01*
X144344473Y-96104613D01*
X144420375Y-96303547D01*
X144533980Y-96459816D01*
X144672391Y-96567469D01*
X144829156Y-96645355D01*
X144997828Y-96712328D01*
X145166500Y-96765410D01*
X145323266Y-96801625D01*
X145575281Y-96890922D01*
X145676484Y-97043719D01*
X145635474Y-97211288D01*
X145512443Y-97311830D01*
X145307391Y-97345344D01*
X145116891Y-97283828D01*
X144958141Y-97154844D01*
X144781531Y-97006016D01*
X144648578Y-96956406D01*
X144438234Y-97051656D01*
X144310242Y-97201973D01*
X144267578Y-97319547D01*
X144009609Y-97319547D01*
X144009609Y-95404625D01*
X143985797Y-95202219D01*
X143936187Y-95118875D01*
X143833000Y-95071250D01*
X143650437Y-95051406D01*
X143461922Y-95075219D01*
X143348812Y-95168484D01*
X143311109Y-95388750D01*
X143311109Y-96730188D01*
X143201748Y-96586982D01*
X143061519Y-96400781D01*
X142890422Y-96171586D01*
X142688457Y-95899396D01*
X142455623Y-95584211D01*
X142191922Y-95226031D01*
X142100641Y-95122844D01*
X142003406Y-95073234D01*
X141814891Y-95051406D01*
X141620422Y-95075219D01*
X141507312Y-95168484D01*
X141469609Y-95388750D01*
X141469609Y-97603313D01*
X140686091Y-97603313D01*
X140785000Y-97519969D01*
X140971655Y-97292882D01*
X141104980Y-97044215D01*
X141184976Y-96773968D01*
X141211641Y-96482141D01*
X141184355Y-96191430D01*
X141102500Y-95924531D01*
X140966074Y-95681445D01*
X140775078Y-95462172D01*
X140548115Y-95280726D01*
X140303789Y-95151121D01*
X140042100Y-95073358D01*
X139763047Y-95047438D01*
X139028828Y-95043469D01*
X138824437Y-95070258D01*
X138719266Y-95150625D01*
X138681562Y-95253812D01*
X138675609Y-95392719D01*
X138675609Y-97599344D01*
X138433516Y-97599344D01*
X138389859Y-97468375D01*
X137318297Y-95253812D01*
X137187328Y-95099031D01*
X137000797Y-95047438D01*
X136812281Y-95103000D01*
X136679328Y-95249844D01*
X135607766Y-97468375D01*
X135540297Y-97670781D01*
X133353083Y-97670781D01*
X133312192Y-97602558D01*
X133214055Y-97395065D01*
X133136729Y-97178952D01*
X133080957Y-96956300D01*
X133047278Y-96729254D01*
X133036016Y-96500000D01*
X133047278Y-96270746D01*
X133080957Y-96043700D01*
X133136729Y-95821048D01*
X133214055Y-95604935D01*
X133312192Y-95397442D01*
X133430194Y-95200568D01*
X133566925Y-95016207D01*
X133721068Y-94846136D01*
X133891139Y-94691993D01*
X134075500Y-94555262D01*
X134272375Y-94437260D01*
X134479868Y-94339123D01*
X134695981Y-94261796D01*
X134918632Y-94206025D01*
X135145678Y-94172346D01*
X135374932Y-94161083D01*
X135540297Y-94161083D01*
X157459703Y-94161083D01*
X157625068Y-94161083D01*
X157854322Y-94172346D01*
G37*
G36*
X140041355Y-95803980D02*
G01*
X140284937Y-95966203D01*
X140453113Y-96208793D01*
X140509172Y-96503969D01*
X140451625Y-96798152D01*
X140278984Y-97037766D01*
X140034906Y-97197012D01*
X139763047Y-97250094D01*
X139378078Y-97250094D01*
X139378078Y-95749906D01*
X139759078Y-95749906D01*
X140041355Y-95803980D01*
G37*
G36*
X154116527Y-95756107D02*
G01*
X154243031Y-95905680D01*
X154318934Y-96154967D01*
X154344234Y-96503969D01*
X154344234Y-96527781D01*
X154318686Y-96868102D01*
X154242039Y-97111188D01*
X154114295Y-97257039D01*
X153935453Y-97305656D01*
X153760084Y-97255675D01*
X153634820Y-97105730D01*
X153559662Y-96855823D01*
X153534609Y-96505953D01*
X153559910Y-96156083D01*
X153635812Y-95906176D01*
X153762316Y-95756231D01*
X153939422Y-95706250D01*
X154116527Y-95756107D01*
G37*
G36*
X156529527Y-95756107D02*
G01*
X156656031Y-95905680D01*
X156731934Y-96154967D01*
X156757234Y-96503969D01*
X156757234Y-96527781D01*
X156731686Y-96868102D01*
X156655039Y-97111188D01*
X156527295Y-97257039D01*
X156348453Y-97305656D01*
X156173084Y-97255675D01*
X156047820Y-97105730D01*
X155972662Y-96855823D01*
X155947609Y-96505953D01*
X155972910Y-96156083D01*
X156048812Y-95906176D01*
X156175316Y-95756231D01*
X156352422Y-95706250D01*
X156529527Y-95756107D01*
G37*
G36*
X151841937Y-96837344D02*
G01*
X151931234Y-97041734D01*
X151843922Y-97246125D01*
X151581984Y-97341375D01*
X151316078Y-97246125D01*
X151224797Y-97039750D01*
X151316078Y-96835359D01*
X151580000Y-96742094D01*
X151841937Y-96837344D01*
G37*
G36*
X149549984Y-95741969D02*
G01*
X149591656Y-95831266D01*
X149601578Y-95946359D01*
X149520219Y-96093203D01*
X149284078Y-96166625D01*
X149059844Y-96087250D01*
X148990391Y-95916594D01*
X149066789Y-95717164D01*
X149295984Y-95650688D01*
X149549984Y-95741969D01*
G37*
G36*
X137262734Y-96750031D02*
G01*
X136734891Y-96750031D01*
X136996828Y-96206313D01*
X137262734Y-96750031D01*
G37*
G36*
X151776453Y-95732047D02*
G01*
X151843922Y-95880875D01*
X151778437Y-96031688D01*
X151583969Y-96103125D01*
X151385531Y-96031688D01*
X151316078Y-95878891D01*
X151379578Y-95730063D01*
X151576031Y-95662594D01*
X151776453Y-95732047D01*
G37*
%TO.C,kibuzzard-65734003*%
G36*
X133952160Y-93985709D02*
G01*
X133868154Y-93985709D01*
X133703113Y-93985709D01*
X132244002Y-93985709D01*
X131441302Y-93985709D01*
X130668981Y-93985709D01*
X129590631Y-93985709D01*
X128338414Y-93985709D01*
X127631846Y-93985709D01*
X127547840Y-93985709D01*
X127547840Y-92330113D01*
X127631846Y-92330113D01*
X127659591Y-92418897D01*
X128170096Y-93454704D01*
X128232059Y-93520367D01*
X128319918Y-93545337D01*
X128338414Y-93545337D01*
X128424423Y-93520367D01*
X128486387Y-93454704D01*
X128587121Y-93250317D01*
X129098623Y-93250317D01*
X129146714Y-93356672D01*
X129163361Y-93377018D01*
X129217001Y-93433433D01*
X129300235Y-93491697D01*
X129426012Y-93544412D01*
X129590631Y-93565683D01*
X129701816Y-93554791D01*
X129808480Y-93522114D01*
X129910622Y-93467652D01*
X129980909Y-93407306D01*
X130036398Y-93326153D01*
X130064104Y-93250317D01*
X130176972Y-93250317D01*
X130225063Y-93356672D01*
X130241710Y-93377018D01*
X130295350Y-93433433D01*
X130378585Y-93491697D01*
X130504361Y-93544412D01*
X130668981Y-93565683D01*
X130780166Y-93554791D01*
X130886829Y-93522114D01*
X130988971Y-93467652D01*
X131059258Y-93407306D01*
X131114748Y-93326153D01*
X131150816Y-93227427D01*
X131162839Y-93114367D01*
X131151047Y-93003619D01*
X131115673Y-92911830D01*
X131062726Y-92841774D01*
X130998220Y-92796226D01*
X130844698Y-92739812D01*
X130691177Y-92705593D01*
X130573723Y-92663051D01*
X130526557Y-92580741D01*
X130566325Y-92501206D01*
X130666206Y-92472537D01*
X130765163Y-92496582D01*
X130793833Y-92520628D01*
X130815104Y-92539124D01*
X130911286Y-92576117D01*
X130976948Y-92552997D01*
X131040762Y-92483635D01*
X131085153Y-92381903D01*
X131027814Y-92291270D01*
X130981573Y-92256127D01*
X130959308Y-92245888D01*
X130854871Y-92197863D01*
X130758458Y-92176360D01*
X130652334Y-92169193D01*
X130522755Y-92182654D01*
X130412701Y-92223039D01*
X130322170Y-92290345D01*
X130231306Y-92421902D01*
X130201018Y-92574268D01*
X130212809Y-92684091D01*
X130248184Y-92776805D01*
X130301130Y-92849635D01*
X130365637Y-92899807D01*
X130517309Y-92967320D01*
X130668981Y-93008937D01*
X130786434Y-93050554D01*
X130833600Y-93121766D01*
X130790596Y-93227196D01*
X130661582Y-93262340D01*
X130572799Y-93233670D01*
X130498812Y-93173556D01*
X130416503Y-93104194D01*
X130354539Y-93081073D01*
X130256507Y-93125465D01*
X130176972Y-93250317D01*
X130064104Y-93250317D01*
X130072467Y-93227427D01*
X130084489Y-93114367D01*
X130072698Y-93003619D01*
X130037323Y-92911830D01*
X129984377Y-92841774D01*
X129919870Y-92796226D01*
X129766349Y-92739812D01*
X129612827Y-92705593D01*
X129495374Y-92663051D01*
X129448208Y-92580741D01*
X129487975Y-92501206D01*
X129587857Y-92472537D01*
X129686813Y-92496582D01*
X129715483Y-92520628D01*
X129736754Y-92539124D01*
X129832936Y-92576117D01*
X129898599Y-92552997D01*
X129962412Y-92483635D01*
X130006804Y-92381903D01*
X129949465Y-92291270D01*
X129903223Y-92256127D01*
X129798395Y-92207921D01*
X129776522Y-92197863D01*
X129680108Y-92176360D01*
X129573984Y-92169193D01*
X129444406Y-92182654D01*
X129334351Y-92223039D01*
X129243821Y-92290345D01*
X129152956Y-92421902D01*
X129122668Y-92574268D01*
X129134460Y-92684091D01*
X129169835Y-92776805D01*
X129222781Y-92849635D01*
X129287288Y-92899807D01*
X129438960Y-92967320D01*
X129590631Y-93008937D01*
X129708084Y-93050554D01*
X129755251Y-93121766D01*
X129712246Y-93227196D01*
X129583233Y-93262340D01*
X129494449Y-93233670D01*
X129420463Y-93173556D01*
X129338153Y-93104194D01*
X129276190Y-93081073D01*
X129178158Y-93125465D01*
X129098623Y-93250317D01*
X128587121Y-93250317D01*
X128996892Y-92418897D01*
X129024637Y-92330113D01*
X128999447Y-92272903D01*
X128997354Y-92268150D01*
X128915507Y-92211735D01*
X128806377Y-92180291D01*
X128724992Y-92230232D01*
X128699097Y-92285721D01*
X128329166Y-93095871D01*
X128263503Y-92954372D01*
X128203389Y-92823740D01*
X128139576Y-92685247D01*
X128075994Y-92546754D01*
X128016574Y-92416122D01*
X127970102Y-92314391D01*
X127945362Y-92262601D01*
X127914843Y-92213585D01*
X127883399Y-92187690D01*
X127834383Y-92180291D01*
X127740975Y-92211735D01*
X127659128Y-92268150D01*
X127631846Y-92330113D01*
X127547840Y-92330113D01*
X127547840Y-90858239D01*
X127679119Y-90858239D01*
X127681933Y-90925755D01*
X127699750Y-90974517D01*
X127749449Y-91012496D01*
X127842285Y-91025155D01*
X127937934Y-91012496D01*
X127988571Y-90974517D01*
X128006388Y-90926693D01*
X128009201Y-90861990D01*
X128009201Y-90229958D01*
X128043897Y-90276610D01*
X128129231Y-90394061D01*
X128221598Y-90520420D01*
X128277393Y-90593798D01*
X128292397Y-90614428D01*
X128342096Y-90652875D01*
X128418990Y-90672568D01*
X128497760Y-90651000D01*
X128543709Y-90617241D01*
X128577467Y-90573168D01*
X128618259Y-90517607D01*
X128691871Y-90414691D01*
X128771109Y-90305211D01*
X128828780Y-90229958D01*
X128828780Y-90858239D01*
X128838157Y-90955763D01*
X128864413Y-90993272D01*
X128913175Y-91015778D01*
X128999447Y-91025155D01*
X129089469Y-91013902D01*
X129142920Y-90964671D01*
X129160737Y-90861990D01*
X129160737Y-90533783D01*
X129282642Y-90533783D01*
X129302569Y-90676084D01*
X129362349Y-90802912D01*
X129451200Y-90907470D01*
X129558335Y-90982957D01*
X129676490Y-91028672D01*
X129798395Y-91043910D01*
X129920066Y-91029609D01*
X130037517Y-90986708D01*
X130144184Y-90913565D01*
X130233503Y-90808539D01*
X130293987Y-90678897D01*
X130314148Y-90531908D01*
X130296852Y-90390727D01*
X130244964Y-90267259D01*
X130212928Y-90228082D01*
X130389167Y-90228082D01*
X130416361Y-90336859D01*
X130484815Y-90368742D01*
X130561709Y-90363116D01*
X130561709Y-90640685D01*
X130572962Y-90767174D01*
X130606720Y-90866574D01*
X130662984Y-90938884D01*
X130787703Y-91004994D01*
X130959308Y-91027030D01*
X131022136Y-91024217D01*
X131071836Y-91008276D01*
X131111221Y-90959045D01*
X131124349Y-90863865D01*
X131123705Y-90861990D01*
X131278137Y-90861990D01*
X131280950Y-90927631D01*
X131296892Y-90976393D01*
X131346123Y-91014371D01*
X131441302Y-91027030D01*
X131537420Y-91014840D01*
X131585713Y-90978268D01*
X131603530Y-90928569D01*
X131606343Y-90863865D01*
X131606343Y-90533783D01*
X131728249Y-90533783D01*
X131748175Y-90676084D01*
X131807956Y-90802912D01*
X131896806Y-90907470D01*
X132003942Y-90982957D01*
X132122096Y-91028672D01*
X132244002Y-91043910D01*
X132365672Y-91029609D01*
X132483123Y-90986708D01*
X132589790Y-90913565D01*
X132635247Y-90860114D01*
X132881660Y-90860114D01*
X132884473Y-90924818D01*
X132900414Y-90974517D01*
X132949645Y-91012496D01*
X133044825Y-91025155D01*
X133140943Y-91012496D01*
X133189236Y-90974517D01*
X133207053Y-90926693D01*
X133209866Y-90861990D01*
X133209866Y-90530032D01*
X133255815Y-90411878D01*
X133375845Y-90366867D01*
X133493999Y-90410002D01*
X133538072Y-90530032D01*
X133538072Y-90860114D01*
X133549325Y-90955763D01*
X133598087Y-91007807D01*
X133703113Y-91025155D01*
X133799700Y-91012496D01*
X133849400Y-90974517D01*
X133865341Y-90926693D01*
X133868154Y-90861990D01*
X133868154Y-90531908D01*
X133854297Y-90401354D01*
X133812724Y-90284763D01*
X133743436Y-90182133D01*
X133653309Y-90102426D01*
X133549221Y-90054602D01*
X133431171Y-90038660D01*
X133290511Y-90081796D01*
X133239874Y-90121181D01*
X133206115Y-90158690D01*
X133187360Y-90081796D01*
X133046701Y-90038660D01*
X132951521Y-90050382D01*
X132902290Y-90085547D01*
X132884473Y-90133371D01*
X132881660Y-90196199D01*
X132881660Y-90860114D01*
X132635247Y-90860114D01*
X132679109Y-90808539D01*
X132739593Y-90678897D01*
X132759754Y-90531908D01*
X132742458Y-90390727D01*
X132690571Y-90267259D01*
X132604091Y-90161503D01*
X132495105Y-90080754D01*
X132375701Y-90032305D01*
X132245877Y-90016155D01*
X132115845Y-90032409D01*
X132085224Y-90044849D01*
X131995815Y-90081171D01*
X131885788Y-90162441D01*
X131798266Y-90268717D01*
X131745753Y-90392498D01*
X131728249Y-90533783D01*
X131606343Y-90533783D01*
X131606343Y-90207452D01*
X131604468Y-90153064D01*
X131570710Y-90072419D01*
X131443178Y-90040536D01*
X131442240Y-90040654D01*
X131346591Y-90052726D01*
X131296892Y-90089298D01*
X131280950Y-90138998D01*
X131278137Y-90203701D01*
X131278137Y-90861990D01*
X131123705Y-90861990D01*
X131081213Y-90738209D01*
X131031513Y-90720392D01*
X130963997Y-90717579D01*
X130903982Y-90695073D01*
X130888040Y-90621930D01*
X130888040Y-90363116D01*
X131009945Y-90370618D01*
X131074649Y-90367804D01*
X131124349Y-90351863D01*
X131162327Y-90302632D01*
X131174986Y-90207452D01*
X131162796Y-90111335D01*
X131126224Y-90063041D01*
X131076524Y-90045224D01*
X131012759Y-90042411D01*
X130888040Y-90049913D01*
X130888040Y-89866118D01*
X130878663Y-89770469D01*
X130849736Y-89740461D01*
X131278137Y-89740461D01*
X131280950Y-89805165D01*
X131297829Y-89854865D01*
X131347529Y-89894250D01*
X131442240Y-89905502D01*
X131536951Y-89894250D01*
X131586651Y-89855803D01*
X131603530Y-89807040D01*
X131606343Y-89742337D01*
X131603530Y-89677633D01*
X131585713Y-89627933D01*
X131537889Y-89589955D01*
X131443178Y-89577296D01*
X131346591Y-89589955D01*
X131296892Y-89627933D01*
X131286382Y-89659463D01*
X131280950Y-89675758D01*
X131278137Y-89740461D01*
X130849736Y-89740461D01*
X130828494Y-89718425D01*
X130726750Y-89701077D01*
X130630633Y-89712798D01*
X130582339Y-89747963D01*
X130564523Y-89792974D01*
X130561709Y-89856740D01*
X130561709Y-90049913D01*
X130499819Y-90042411D01*
X130424800Y-90066792D01*
X130398544Y-90116492D01*
X130389167Y-90228082D01*
X130212928Y-90228082D01*
X130158484Y-90161503D01*
X130049499Y-90080754D01*
X130000627Y-90060924D01*
X129930094Y-90032305D01*
X129800270Y-90016155D01*
X129670238Y-90032409D01*
X129550208Y-90081171D01*
X129440181Y-90162441D01*
X129352659Y-90268717D01*
X129300146Y-90392498D01*
X129282642Y-90533783D01*
X129160737Y-90533783D01*
X129160737Y-89821106D01*
X129157924Y-89755465D01*
X129140107Y-89704828D01*
X129090641Y-89666849D01*
X129019192Y-89657416D01*
X128994758Y-89654190D01*
X128897468Y-89666849D01*
X128843783Y-89704828D01*
X128792546Y-89770319D01*
X128724354Y-89858766D01*
X128639208Y-89970168D01*
X128537107Y-90104527D01*
X128418053Y-90261841D01*
X127992322Y-89702952D01*
X127981069Y-89691699D01*
X127933245Y-89666381D01*
X127846036Y-89654190D01*
X127750387Y-89666381D01*
X127699750Y-89702952D01*
X127681933Y-89752652D01*
X127679119Y-89817355D01*
X127679119Y-90858239D01*
X127547840Y-90858239D01*
X127547840Y-88335694D01*
X127680181Y-88335694D01*
X127683034Y-88404166D01*
X127701103Y-88453618D01*
X127751506Y-88492134D01*
X127845655Y-88504972D01*
X127942658Y-88492134D01*
X127994012Y-88453618D01*
X128012081Y-88405117D01*
X128014934Y-88339498D01*
X128014934Y-87698522D01*
X128050121Y-87745835D01*
X128136662Y-87864948D01*
X128230336Y-87993095D01*
X128286921Y-88067511D01*
X128302137Y-88088433D01*
X128352540Y-88127424D01*
X128430522Y-88147395D01*
X128510406Y-88125522D01*
X128557005Y-88091286D01*
X128591241Y-88046589D01*
X128632610Y-87990242D01*
X128707264Y-87885870D01*
X128787623Y-87774840D01*
X128846110Y-87698522D01*
X128846110Y-88335694D01*
X128855620Y-88434598D01*
X128882248Y-88472638D01*
X128931700Y-88495462D01*
X129019192Y-88504972D01*
X129110489Y-88493560D01*
X129164696Y-88443633D01*
X129182765Y-88339498D01*
X129182765Y-87822153D01*
X129306395Y-87822153D01*
X129319055Y-87961712D01*
X129357036Y-88091286D01*
X129420337Y-88210875D01*
X129508959Y-88320478D01*
X129615649Y-88412012D01*
X129733157Y-88477393D01*
X129861483Y-88516622D01*
X130000627Y-88529698D01*
X130139473Y-88516444D01*
X130266907Y-88476680D01*
X130382930Y-88410407D01*
X130487540Y-88317625D01*
X130574081Y-88206001D01*
X130576295Y-88201602D01*
X130780449Y-88201602D01*
X130829901Y-88310968D01*
X130847019Y-88331890D01*
X130902177Y-88389901D01*
X130987767Y-88449814D01*
X131117104Y-88504021D01*
X131199365Y-88520426D01*
X131286382Y-88525894D01*
X131400714Y-88514694D01*
X131510396Y-88481091D01*
X131615429Y-88425088D01*
X131687705Y-88363035D01*
X131705099Y-88337596D01*
X131917848Y-88337596D01*
X131929260Y-88434598D01*
X131979663Y-88488805D01*
X132085224Y-88506874D01*
X132183177Y-88494036D01*
X132233580Y-88455520D01*
X132251649Y-88406068D01*
X132254502Y-88339498D01*
X132254502Y-87281983D01*
X132244992Y-87183079D01*
X132193163Y-87130298D01*
X132133147Y-87120341D01*
X132087126Y-87112705D01*
X131989173Y-87125543D01*
X131938770Y-87164059D01*
X131920701Y-87214462D01*
X131917848Y-87280081D01*
X131917848Y-88337596D01*
X131705099Y-88337596D01*
X131744765Y-88279585D01*
X131781854Y-88178065D01*
X131794217Y-88061805D01*
X131782092Y-87947923D01*
X131745716Y-87853536D01*
X131691271Y-87781497D01*
X131624939Y-87734660D01*
X131549334Y-87703039D01*
X131467072Y-87676649D01*
X131309206Y-87641462D01*
X131188429Y-87597716D01*
X131139928Y-87513077D01*
X131180821Y-87431291D01*
X131283529Y-87401809D01*
X131385286Y-87426536D01*
X131414767Y-87451262D01*
X131436640Y-87470282D01*
X131535545Y-87508322D01*
X131603066Y-87484547D01*
X131668685Y-87413222D01*
X131714333Y-87308611D01*
X131655371Y-87215413D01*
X131607821Y-87179275D01*
X131477533Y-87119362D01*
X131378391Y-87097251D01*
X131269264Y-87089881D01*
X131136018Y-87103723D01*
X131022849Y-87145250D01*
X130980387Y-87176819D01*
X130929756Y-87214462D01*
X130860544Y-87302271D01*
X130819017Y-87399590D01*
X130805175Y-87506420D01*
X130817300Y-87619351D01*
X130853676Y-87714689D01*
X130908121Y-87789581D01*
X130974453Y-87841173D01*
X131049582Y-87878499D01*
X131130418Y-87910596D01*
X131286382Y-87953391D01*
X131407159Y-87996186D01*
X131455660Y-88069413D01*
X131411439Y-88177827D01*
X131278774Y-88213965D01*
X131187478Y-88184484D01*
X131111398Y-88122669D01*
X131026758Y-88051344D01*
X130963041Y-88027569D01*
X130862235Y-88073217D01*
X130780449Y-88201602D01*
X130576295Y-88201602D01*
X130635896Y-88083203D01*
X130672985Y-87949230D01*
X130685348Y-87804083D01*
X130672391Y-87659472D01*
X130633519Y-87527104D01*
X130568732Y-87406981D01*
X130478030Y-87299101D01*
X130369735Y-87210064D01*
X130252167Y-87146465D01*
X130125327Y-87108306D01*
X129989215Y-87095587D01*
X129859878Y-87108901D01*
X129734346Y-87148843D01*
X129617848Y-87212085D01*
X129515616Y-87295297D01*
X129515079Y-87295952D01*
X129430025Y-87399670D01*
X129363455Y-87526391D01*
X129320660Y-87669279D01*
X129306395Y-87822153D01*
X129182765Y-87822153D01*
X129182765Y-87283885D01*
X129179912Y-87217315D01*
X129161843Y-87165961D01*
X129111677Y-87127445D01*
X129014437Y-87114607D01*
X128915771Y-87127445D01*
X128861326Y-87165961D01*
X128809363Y-87232379D01*
X128740206Y-87322077D01*
X128653855Y-87435057D01*
X128550310Y-87571316D01*
X128429571Y-87730856D01*
X128165529Y-87384229D01*
X127997816Y-87164059D01*
X127986404Y-87152647D01*
X127937903Y-87126970D01*
X127849459Y-87114607D01*
X127752457Y-87126970D01*
X127701103Y-87164059D01*
X127683034Y-87214462D01*
X127680181Y-87280081D01*
X127680181Y-88335694D01*
X127547840Y-88335694D01*
X127547840Y-85677064D01*
X127652333Y-85677064D01*
X127702495Y-85787999D01*
X127719859Y-85809222D01*
X127775809Y-85868066D01*
X127862628Y-85928839D01*
X127993821Y-85983824D01*
X128077263Y-86000464D01*
X128165529Y-86006011D01*
X128281502Y-85994650D01*
X128392758Y-85960565D01*
X128499299Y-85903758D01*
X128572613Y-85840814D01*
X128630492Y-85756166D01*
X128668113Y-85653189D01*
X128680654Y-85535260D01*
X128668354Y-85419743D01*
X128631456Y-85324001D01*
X128592816Y-85272875D01*
X128777119Y-85272875D01*
X128789901Y-85417814D01*
X128828246Y-85551659D01*
X128886366Y-85668382D01*
X128958474Y-85761954D01*
X129042640Y-85837679D01*
X129136935Y-85900864D01*
X129234847Y-85949579D01*
X129329865Y-85981895D01*
X129422954Y-85999982D01*
X129515079Y-86006011D01*
X129608409Y-85998294D01*
X129705115Y-85975142D01*
X129835343Y-85924980D01*
X129901905Y-85884465D01*
X129962678Y-85836232D01*
X129970863Y-85815010D01*
X130116058Y-85815010D01*
X130127633Y-85913404D01*
X130178760Y-85968390D01*
X130285836Y-85986718D01*
X130980387Y-85986718D01*
X131080711Y-85967425D01*
X131113509Y-85924980D01*
X131123155Y-85842985D01*
X131119864Y-85815010D01*
X131248560Y-85815010D01*
X131260136Y-85913404D01*
X131311263Y-85968390D01*
X131418339Y-85986718D01*
X131517699Y-85973695D01*
X131568825Y-85934627D01*
X131587154Y-85884465D01*
X131590047Y-85816939D01*
X131590047Y-85440724D01*
X132014495Y-85924980D01*
X132133147Y-86006011D01*
X132259517Y-85939450D01*
X132336689Y-85823692D01*
X132273022Y-85703110D01*
X132200552Y-85622923D01*
X132106619Y-85525131D01*
X131991223Y-85409735D01*
X131854362Y-85276733D01*
X131931535Y-85203420D01*
X132074732Y-85063652D01*
X132190490Y-84945321D01*
X132278810Y-84848427D01*
X132336689Y-84731704D01*
X132259517Y-84615946D01*
X132132183Y-84549385D01*
X132014495Y-84628486D01*
X131927194Y-84729654D01*
X131827352Y-84844086D01*
X131714970Y-84971782D01*
X131714647Y-84972147D01*
X131590047Y-85112742D01*
X131590047Y-84744245D01*
X131580401Y-84643921D01*
X131527827Y-84590383D01*
X131420269Y-84572537D01*
X131320909Y-84585559D01*
X131269783Y-84624628D01*
X131251454Y-84675754D01*
X131248560Y-84742315D01*
X131248560Y-85815010D01*
X131119864Y-85815010D01*
X131113509Y-85760989D01*
X131074923Y-85715650D01*
X130982316Y-85701181D01*
X130457545Y-85701181D01*
X130457545Y-84744245D01*
X130447898Y-84643921D01*
X130395325Y-84590383D01*
X130379698Y-84587790D01*
X130287766Y-84572537D01*
X130188407Y-84585559D01*
X130137280Y-84624628D01*
X130118951Y-84675754D01*
X130116058Y-84742315D01*
X130116058Y-85815010D01*
X129970863Y-85815010D01*
X129988723Y-85768706D01*
X129946279Y-85660665D01*
X129879235Y-85579634D01*
X129817015Y-85552624D01*
X129724408Y-85591210D01*
X129689681Y-85616291D01*
X129613473Y-85647160D01*
X129500609Y-85662595D01*
X129375686Y-85641372D01*
X129255587Y-85577705D01*
X129157192Y-85456159D01*
X129128253Y-85373922D01*
X129118606Y-85281557D01*
X129128253Y-85189191D01*
X129157192Y-85106954D01*
X129253658Y-84987337D01*
X129376169Y-84922223D01*
X129500609Y-84900519D01*
X129622155Y-84916918D01*
X129716691Y-84966115D01*
X129815086Y-85008560D01*
X129878753Y-84982514D01*
X129950137Y-84904377D01*
X129990653Y-84797301D01*
X129940491Y-84705659D01*
X129886470Y-84670931D01*
X129840167Y-84643921D01*
X129698363Y-84587006D01*
X129605515Y-84566025D01*
X129557589Y-84562358D01*
X129514114Y-84559031D01*
X129386994Y-84570607D01*
X129260303Y-84605335D01*
X129134041Y-84663214D01*
X129060409Y-84710241D01*
X129039264Y-84723746D01*
X128955580Y-84797301D01*
X128884437Y-84887978D01*
X128827281Y-84999878D01*
X128789660Y-85129383D01*
X128777119Y-85272875D01*
X128592816Y-85272875D01*
X128576230Y-85250929D01*
X128508945Y-85203420D01*
X128432256Y-85171345D01*
X128348813Y-85144576D01*
X128188681Y-85108884D01*
X128066170Y-85064510D01*
X128016972Y-84978655D01*
X128058452Y-84895695D01*
X128162635Y-84865791D01*
X128265853Y-84890872D01*
X128295757Y-84915953D01*
X128317944Y-84935246D01*
X128418268Y-84973832D01*
X128486758Y-84949716D01*
X128553319Y-84877367D01*
X128599623Y-84771255D01*
X128539814Y-84676719D01*
X128491582Y-84640062D01*
X128359424Y-84579289D01*
X128258859Y-84556861D01*
X128148165Y-84549385D01*
X128013007Y-84563426D01*
X127898213Y-84605549D01*
X127803784Y-84675754D01*
X127733579Y-84764824D01*
X127691456Y-84863540D01*
X127677414Y-84971903D01*
X127689714Y-85086455D01*
X127726612Y-85183162D01*
X127781838Y-85259128D01*
X127849123Y-85311461D01*
X127925330Y-85349323D01*
X128007326Y-85381880D01*
X128165529Y-85425290D01*
X128288040Y-85468699D01*
X128337237Y-85542978D01*
X128292381Y-85652948D01*
X128157812Y-85689605D01*
X128065205Y-85659701D01*
X127988033Y-85596998D01*
X127902179Y-85524649D01*
X127837547Y-85500533D01*
X127735294Y-85546836D01*
X127652333Y-85677064D01*
X127547840Y-85677064D01*
X127547840Y-83290395D01*
X127682397Y-83290395D01*
X127685333Y-83360862D01*
X127703928Y-83411754D01*
X127755800Y-83451392D01*
X127852691Y-83464604D01*
X127952519Y-83451392D01*
X128005368Y-83411754D01*
X128023964Y-83361841D01*
X128026900Y-83294310D01*
X128026900Y-82634665D01*
X128063112Y-82683356D01*
X128152174Y-82805938D01*
X128248576Y-82937818D01*
X128306808Y-83014402D01*
X128322468Y-83035933D01*
X128374339Y-83076060D01*
X128454592Y-83096613D01*
X128536803Y-83074102D01*
X128584760Y-83038869D01*
X128619993Y-82992870D01*
X128662566Y-82934882D01*
X128739395Y-82827470D01*
X128822095Y-82713206D01*
X128882285Y-82634665D01*
X128882285Y-83290395D01*
X128892072Y-83392180D01*
X128919476Y-83431328D01*
X128970368Y-83454817D01*
X129060409Y-83464604D01*
X129154364Y-83452860D01*
X129210150Y-83401478D01*
X129228745Y-83294310D01*
X129228745Y-83292353D01*
X129385337Y-83292353D01*
X129397082Y-83392180D01*
X129448953Y-83447966D01*
X129557589Y-83466562D01*
X129658395Y-83453349D01*
X129710266Y-83413712D01*
X129728862Y-83362819D01*
X129731798Y-83294310D01*
X129731798Y-83152399D01*
X129859029Y-83152399D01*
X129909921Y-83264949D01*
X129927538Y-83286481D01*
X129984303Y-83346181D01*
X130072386Y-83407840D01*
X130205489Y-83463626D01*
X130290147Y-83480508D01*
X130379698Y-83486136D01*
X130497360Y-83474609D01*
X130610237Y-83440028D01*
X130718329Y-83382393D01*
X130792710Y-83318533D01*
X130851432Y-83232652D01*
X130889602Y-83128176D01*
X130902325Y-83008529D01*
X130889846Y-82891330D01*
X130852411Y-82794194D01*
X130828002Y-82761897D01*
X131000195Y-82761897D01*
X131013224Y-82905521D01*
X131052311Y-83038869D01*
X131117456Y-83161941D01*
X131208658Y-83274736D01*
X131318456Y-83368936D01*
X131439387Y-83436222D01*
X131571451Y-83476593D01*
X131714647Y-83490051D01*
X131857537Y-83476410D01*
X131988683Y-83435488D01*
X132108085Y-83367285D01*
X132215742Y-83271800D01*
X132304804Y-83156925D01*
X132368420Y-83030550D01*
X132406589Y-82892676D01*
X132419312Y-82743301D01*
X132405977Y-82594478D01*
X132365973Y-82458255D01*
X132299299Y-82334632D01*
X132254099Y-82280873D01*
X132205955Y-82223611D01*
X132094505Y-82131980D01*
X131973513Y-82066529D01*
X131842979Y-82027259D01*
X131702903Y-82014169D01*
X131569799Y-82027871D01*
X131440611Y-82068976D01*
X131320720Y-82134060D01*
X131215509Y-82219696D01*
X131136789Y-82315691D01*
X131127426Y-82327109D01*
X131058917Y-82457521D01*
X131014875Y-82604570D01*
X131000195Y-82761897D01*
X130828002Y-82761897D01*
X130796380Y-82720057D01*
X130728116Y-82671856D01*
X130650309Y-82639314D01*
X130565651Y-82612155D01*
X130403187Y-82575943D01*
X130278892Y-82530923D01*
X130228978Y-82443819D01*
X130271062Y-82359650D01*
X130376762Y-82329311D01*
X130481483Y-82354757D01*
X130511823Y-82380203D01*
X130534333Y-82399777D01*
X130636118Y-82438925D01*
X130705606Y-82414458D01*
X130773136Y-82341055D01*
X130820114Y-82233398D01*
X130759434Y-82137485D01*
X130710499Y-82100294D01*
X130576417Y-82038636D01*
X130474388Y-82015881D01*
X130362082Y-82008297D01*
X130224955Y-82022542D01*
X130108489Y-82065279D01*
X130071123Y-82093060D01*
X130012685Y-82136506D01*
X129941457Y-82226873D01*
X129898721Y-82327027D01*
X129884475Y-82436968D01*
X129896954Y-82553189D01*
X129934389Y-82651303D01*
X129990420Y-82728376D01*
X130058684Y-82781471D01*
X130136002Y-82819885D01*
X130219191Y-82852916D01*
X130379698Y-82896957D01*
X130503993Y-82940999D01*
X130553907Y-83016359D01*
X130508397Y-83127931D01*
X130371869Y-83165122D01*
X130277913Y-83134782D01*
X130199617Y-83071166D01*
X130112513Y-82997764D01*
X130046940Y-82973296D01*
X129943197Y-83020274D01*
X129859029Y-83152399D01*
X129731798Y-83152399D01*
X129731798Y-82205994D01*
X129722011Y-82104209D01*
X129668672Y-82049891D01*
X129559546Y-82031785D01*
X129458740Y-82044998D01*
X129406869Y-82084635D01*
X129388274Y-82136506D01*
X129385337Y-82204037D01*
X129385337Y-83292353D01*
X129228745Y-83292353D01*
X129228745Y-82207952D01*
X129225809Y-82139443D01*
X129207214Y-82086593D01*
X129155587Y-82046955D01*
X129055515Y-82033743D01*
X128953975Y-82046955D01*
X128897944Y-82086593D01*
X128844468Y-82154945D01*
X128773297Y-82247256D01*
X128684431Y-82363526D01*
X128577870Y-82503754D01*
X128453614Y-82667941D01*
X128009283Y-82084635D01*
X127997539Y-82072891D01*
X127947625Y-82046466D01*
X127893112Y-82038846D01*
X127856606Y-82033743D01*
X127756778Y-82046466D01*
X127703928Y-82084635D01*
X127685333Y-82136506D01*
X127682397Y-82204037D01*
X127682397Y-83290395D01*
X127547840Y-83290395D01*
X127547840Y-80769622D01*
X128976655Y-80769622D01*
X128979634Y-80839144D01*
X128998505Y-80892775D01*
X129050149Y-80932998D01*
X129149466Y-80946405D01*
X129251762Y-80932998D01*
X129304399Y-80892775D01*
X129323269Y-80841130D01*
X129326249Y-80771608D01*
X129326249Y-80118106D01*
X129381756Y-80190497D01*
X129454257Y-80285840D01*
X129543752Y-80404137D01*
X129650241Y-80545388D01*
X129773725Y-80709591D01*
X129914203Y-80896747D01*
X129963861Y-80934487D01*
X130071123Y-80946405D01*
X130173419Y-80932998D01*
X130226057Y-80892775D01*
X130244927Y-80841130D01*
X130247906Y-80771608D01*
X130247906Y-80211463D01*
X130377018Y-80211463D01*
X130390177Y-80360686D01*
X130429655Y-80498488D01*
X130489494Y-80618661D01*
X130563733Y-80714998D01*
X130650386Y-80792961D01*
X130747468Y-80858014D01*
X130848274Y-80908169D01*
X130946101Y-80941440D01*
X131041942Y-80960061D01*
X131136789Y-80966269D01*
X131232878Y-80958323D01*
X131332442Y-80934487D01*
X131466520Y-80882843D01*
X131535048Y-80841130D01*
X131597617Y-80791472D01*
X131624433Y-80721950D01*
X131587367Y-80627599D01*
X131725736Y-80627599D01*
X131777380Y-80741813D01*
X131795257Y-80763663D01*
X131852861Y-80824246D01*
X131942246Y-80886816D01*
X132077316Y-80943426D01*
X132163225Y-80960558D01*
X132254099Y-80966269D01*
X132373500Y-80954571D01*
X132488045Y-80919480D01*
X132597735Y-80860993D01*
X132673215Y-80796189D01*
X132732805Y-80709039D01*
X132771538Y-80603019D01*
X132784450Y-80481604D01*
X132771787Y-80362673D01*
X132733798Y-80264101D01*
X132676939Y-80188869D01*
X132607666Y-80139955D01*
X132528710Y-80106933D01*
X132442801Y-80079372D01*
X132356892Y-80057771D01*
X132277935Y-80042625D01*
X132151803Y-79996940D01*
X132101152Y-79908548D01*
X132143858Y-79823136D01*
X132251120Y-79792348D01*
X132357389Y-79818170D01*
X132388177Y-79843992D01*
X132411020Y-79863856D01*
X132514309Y-79903582D01*
X132584823Y-79878753D01*
X132653352Y-79804266D01*
X132701024Y-79695018D01*
X132639448Y-79597687D01*
X132589789Y-79559947D01*
X132453726Y-79497378D01*
X132350188Y-79474287D01*
X132236223Y-79466590D01*
X132097069Y-79481046D01*
X131978882Y-79524414D01*
X131881663Y-79596694D01*
X131809382Y-79688396D01*
X131766014Y-79790030D01*
X131751558Y-79901596D01*
X131764221Y-80019534D01*
X131802209Y-80119099D01*
X131859068Y-80197311D01*
X131928341Y-80251190D01*
X132006801Y-80290172D01*
X132091220Y-80323691D01*
X132175639Y-80350258D01*
X132254099Y-80368383D01*
X132380231Y-80413076D01*
X132430883Y-80489550D01*
X132384701Y-80602770D01*
X132246154Y-80640511D01*
X132150810Y-80609723D01*
X132071357Y-80545167D01*
X131982965Y-80470679D01*
X131916423Y-80445850D01*
X131811148Y-80493522D01*
X131747089Y-80568754D01*
X131725736Y-80627599D01*
X131587367Y-80627599D01*
X131580734Y-80610716D01*
X131511709Y-80527290D01*
X131447649Y-80499481D01*
X131352306Y-80539208D01*
X131316552Y-80565030D01*
X131238092Y-80596811D01*
X131121891Y-80612702D01*
X130993276Y-80590852D01*
X130869627Y-80525303D01*
X130768325Y-80400165D01*
X130738530Y-80315497D01*
X130728598Y-80220402D01*
X130738530Y-80125306D01*
X130768325Y-80040639D01*
X130867641Y-79917487D01*
X130993773Y-79850448D01*
X131121891Y-79828102D01*
X131247030Y-79844985D01*
X131344360Y-79895637D01*
X131445663Y-79939336D01*
X131511212Y-79912521D01*
X131584706Y-79832074D01*
X131626419Y-79721833D01*
X131574775Y-79627482D01*
X131519157Y-79591728D01*
X131471485Y-79563920D01*
X131373247Y-79524491D01*
X131325490Y-79505323D01*
X131229898Y-79483722D01*
X131135796Y-79476521D01*
X131004919Y-79488439D01*
X130874483Y-79524193D01*
X130744489Y-79583783D01*
X130646910Y-79646104D01*
X130560753Y-79721833D01*
X130487507Y-79815191D01*
X130428662Y-79930398D01*
X130389929Y-80063730D01*
X130377018Y-80211463D01*
X130247906Y-80211463D01*
X130247906Y-79669195D01*
X130235988Y-79567892D01*
X130211159Y-79526179D01*
X130159514Y-79502344D01*
X130068143Y-79492412D01*
X130004298Y-79500477D01*
X129973793Y-79504330D01*
X129917182Y-79551009D01*
X129898312Y-79661250D01*
X129898312Y-80332629D01*
X129843578Y-80260956D01*
X129773394Y-80167764D01*
X129687761Y-80053054D01*
X129586679Y-79916824D01*
X129470148Y-79759077D01*
X129338167Y-79579810D01*
X129292481Y-79528166D01*
X129243816Y-79503337D01*
X129149466Y-79492412D01*
X129052135Y-79504330D01*
X128995525Y-79551009D01*
X128976655Y-79661250D01*
X128976655Y-80769622D01*
X127547840Y-80769622D01*
X127547840Y-80477632D01*
X127701431Y-80477632D01*
X127770953Y-80573969D01*
X127893112Y-80632565D01*
X128007326Y-80537221D01*
X128033148Y-80513386D01*
X128071882Y-80505440D01*
X128133458Y-80537221D01*
X128230788Y-80599791D01*
X128361886Y-80630579D01*
X128494970Y-80609723D01*
X128591307Y-80563044D01*
X128656856Y-80503454D01*
X128694596Y-80456775D01*
X128722405Y-80411090D01*
X128742268Y-80348520D01*
X128648910Y-80231327D01*
X128547608Y-80195573D01*
X128436373Y-80286944D01*
X128430414Y-80294889D01*
X128404502Y-80303526D01*
X128364865Y-80316739D01*
X128267535Y-80255163D01*
X128191061Y-80214443D01*
X128080820Y-80195573D01*
X127958661Y-80212457D01*
X127854378Y-80263108D01*
X127788830Y-80319718D01*
X127730233Y-80399172D01*
X127701431Y-80477632D01*
X127547840Y-80477632D01*
X127547840Y-77099639D01*
X127634343Y-77099639D01*
X127664585Y-77196413D01*
X128221035Y-78325443D01*
X128288575Y-78397015D01*
X128384341Y-78424233D01*
X128404502Y-78424233D01*
X128498252Y-78397015D01*
X128565792Y-78325443D01*
X128883764Y-77680283D01*
X129233130Y-77680283D01*
X129246487Y-77831744D01*
X129286557Y-77971613D01*
X129347293Y-78093589D01*
X129422646Y-78191371D01*
X129510599Y-78270504D01*
X129609137Y-78336532D01*
X129711455Y-78387439D01*
X129810750Y-78421209D01*
X129908028Y-78440110D01*
X130004298Y-78446410D01*
X130101828Y-78438346D01*
X130202886Y-78414152D01*
X130338974Y-78361733D01*
X130408531Y-78319395D01*
X130472039Y-78268991D01*
X130499256Y-78198427D01*
X130454902Y-78085524D01*
X130384841Y-78000847D01*
X130319821Y-77972621D01*
X130223047Y-78012944D01*
X130186757Y-78039153D01*
X130107120Y-78071411D01*
X129989177Y-78087540D01*
X129858633Y-78065363D01*
X129733129Y-77998831D01*
X129630306Y-77871815D01*
X129600065Y-77785878D01*
X129589984Y-77689356D01*
X129590932Y-77680283D01*
X130602079Y-77680283D01*
X130615436Y-77831744D01*
X130655506Y-77971613D01*
X130716242Y-78093589D01*
X130791594Y-78191371D01*
X130879548Y-78270504D01*
X130978086Y-78336532D01*
X131080404Y-78387439D01*
X131179699Y-78421209D01*
X131276977Y-78440110D01*
X131373247Y-78446410D01*
X131470777Y-78438346D01*
X131571835Y-78414152D01*
X131707923Y-78361733D01*
X131777480Y-78319395D01*
X131840988Y-78268991D01*
X131868205Y-78198427D01*
X131823850Y-78085524D01*
X131753790Y-78000847D01*
X131688770Y-77972621D01*
X131591996Y-78012944D01*
X131555706Y-78039153D01*
X131476069Y-78071411D01*
X131358126Y-78087540D01*
X131227581Y-78065363D01*
X131102078Y-77998831D01*
X130999255Y-77871815D01*
X130969013Y-77785878D01*
X130958933Y-77689356D01*
X130969013Y-77592834D01*
X130999255Y-77506896D01*
X131100062Y-77381896D01*
X131228086Y-77313852D01*
X131358126Y-77291171D01*
X131485141Y-77308308D01*
X131583932Y-77359719D01*
X131686754Y-77404074D01*
X131753286Y-77376856D01*
X131827883Y-77295203D01*
X131870221Y-77183308D01*
X131817802Y-77087542D01*
X131761351Y-77051252D01*
X131712964Y-77023026D01*
X131564778Y-76963551D01*
X131467752Y-76941625D01*
X131372238Y-76934317D01*
X131239398Y-76946413D01*
X131107006Y-76982704D01*
X130975062Y-77043187D01*
X130876020Y-77106443D01*
X130788570Y-77183308D01*
X130714226Y-77278066D01*
X130654498Y-77395001D01*
X130615184Y-77530334D01*
X130602079Y-77680283D01*
X129590932Y-77680283D01*
X129600065Y-77592834D01*
X129630306Y-77506896D01*
X129731113Y-77381896D01*
X129859137Y-77313852D01*
X129989177Y-77291171D01*
X130116193Y-77308308D01*
X130214983Y-77359719D01*
X130317805Y-77404074D01*
X130384337Y-77376856D01*
X130458934Y-77295203D01*
X130501272Y-77183308D01*
X130448853Y-77087542D01*
X130392402Y-77051252D01*
X130344015Y-77023026D01*
X130195830Y-76963551D01*
X130098804Y-76941625D01*
X130003290Y-76934317D01*
X129870449Y-76946413D01*
X129738057Y-76982704D01*
X129606113Y-77043187D01*
X129507071Y-77106443D01*
X129419621Y-77183308D01*
X129345277Y-77278066D01*
X129285549Y-77395001D01*
X129246235Y-77530334D01*
X129233130Y-77680283D01*
X128883764Y-77680283D01*
X129122243Y-77196413D01*
X129152485Y-77099639D01*
X129122747Y-77032099D01*
X129033533Y-76970607D01*
X128914582Y-76936333D01*
X128825873Y-76990768D01*
X128797647Y-77051252D01*
X128394422Y-77934315D01*
X128372496Y-77887692D01*
X128322849Y-77780081D01*
X128257325Y-77637692D01*
X128187769Y-77486735D01*
X128118465Y-77335778D01*
X128053697Y-77193389D01*
X128003042Y-77082502D01*
X127976076Y-77026050D01*
X127942810Y-76972623D01*
X127908536Y-76944397D01*
X127855108Y-76936333D01*
X127753294Y-76970607D01*
X127664081Y-77032099D01*
X127634343Y-77099639D01*
X127547840Y-77099639D01*
X127547840Y-76514291D01*
X127631846Y-76514291D01*
X133868154Y-76514291D01*
X133952160Y-76514291D01*
X133952160Y-93985709D01*
G37*
G36*
X131841144Y-82387543D02*
G01*
X131960301Y-82468286D01*
X132044714Y-82593560D01*
X132072852Y-82754067D01*
X132044959Y-82914085D01*
X131961280Y-83037890D01*
X131842857Y-83117165D01*
X131710732Y-83143590D01*
X131578363Y-83116431D01*
X131459206Y-83034954D01*
X131374793Y-82909925D01*
X131346655Y-82752110D01*
X131374548Y-82594294D01*
X131458227Y-82469265D01*
X131576650Y-82387788D01*
X131708775Y-82360629D01*
X131841144Y-82387543D01*
G37*
G36*
X130123544Y-87458394D02*
G01*
X130239328Y-87536852D01*
X130321352Y-87658580D01*
X130348694Y-87814545D01*
X130321590Y-87970033D01*
X130240279Y-88090335D01*
X130125208Y-88167366D01*
X129996823Y-88193043D01*
X129868200Y-88166653D01*
X129752415Y-88087482D01*
X129670391Y-87965992D01*
X129643050Y-87812642D01*
X129670153Y-87659293D01*
X129751464Y-87537803D01*
X129866535Y-87458632D01*
X129994921Y-87432242D01*
X130123544Y-87458394D01*
G37*
G36*
X129924051Y-90391248D02*
G01*
X129982191Y-90528157D01*
X129966718Y-90608802D01*
X129920300Y-90666941D01*
X129796520Y-90713828D01*
X129674614Y-90667879D01*
X129614599Y-90530970D01*
X129672739Y-90393123D01*
X129798395Y-90346237D01*
X129924051Y-90391248D01*
G37*
G36*
X132369658Y-90391248D02*
G01*
X132427797Y-90528157D01*
X132412325Y-90608802D01*
X132365907Y-90666941D01*
X132242126Y-90713828D01*
X132120221Y-90667879D01*
X132060206Y-90530970D01*
X132118345Y-90393123D01*
X132244002Y-90346237D01*
X132369658Y-90391248D01*
G37*
%TO.C,U1*%
X140250000Y-79515000D02*
X140250000Y-80315000D01*
X140250000Y-79515000D02*
X140450000Y-80115000D01*
X140250000Y-79515000D02*
X140600000Y-80115000D01*
X140250000Y-79915000D02*
X140450000Y-79715000D01*
X140250000Y-80115000D02*
X141050000Y-79915000D01*
X140250000Y-80315000D02*
X140650000Y-79715000D01*
X140250000Y-80315000D02*
X141250000Y-79915000D01*
X140450000Y-79715000D02*
X140250000Y-79515000D01*
X140450000Y-79715000D02*
X140250000Y-79715000D01*
X140450000Y-79715000D02*
X140450000Y-80115000D01*
X140450000Y-80115000D02*
X140250000Y-79915000D01*
X140450000Y-80115000D02*
X140750000Y-80115000D01*
X140600000Y-80115000D02*
X140850000Y-79915000D01*
X140650000Y-79715000D02*
X140250000Y-79515000D01*
X140725000Y-80015000D02*
X140250000Y-80115000D01*
X140750000Y-79715000D02*
X140450000Y-79715000D01*
X140750000Y-80115000D02*
X140750000Y-79715000D01*
X141050000Y-79915000D02*
X140450000Y-79715000D01*
X141250000Y-79915000D02*
X140250000Y-79515000D01*
X141250000Y-79915000D02*
X140250000Y-79915000D01*
D11*
%TO.C,Q1*%
X143187500Y-74310000D02*
X142537500Y-74310000D01*
X143187500Y-71190000D02*
X142537500Y-71190000D01*
X143187500Y-74310000D02*
X144862500Y-74310000D01*
X143187500Y-71190000D02*
X143837500Y-71190000D01*
%TO.C,J1*%
X124420000Y-78900000D02*
X127080000Y-78900000D01*
X124420000Y-78900000D02*
X124420000Y-94200000D01*
X124420000Y-76300000D02*
X125750000Y-76300000D01*
X124420000Y-94200000D02*
X127080000Y-94200000D01*
X124420000Y-77630000D02*
X124420000Y-76300000D01*
X127080000Y-78900000D02*
X127080000Y-94200000D01*
%TO.C,C9*%
X164738748Y-87235000D02*
X165261252Y-87235000D01*
X164738748Y-85765000D02*
X165261252Y-85765000D01*
%TO.C,C8*%
X160288748Y-87235000D02*
X160811252Y-87235000D01*
X160288748Y-85765000D02*
X160811252Y-85765000D01*
%TO.C,C7*%
X160438748Y-83985000D02*
X160961252Y-83985000D01*
X160438748Y-82515000D02*
X160961252Y-82515000D01*
%TO.C,C6*%
X164738748Y-83985000D02*
X165261252Y-83985000D01*
X164738748Y-82515000D02*
X165261252Y-82515000D01*
%TO.C,C5*%
X160288748Y-93735000D02*
X160811252Y-93735000D01*
X160288748Y-92265000D02*
X160811252Y-92265000D01*
%TO.C,C4*%
X160238748Y-90485000D02*
X160761252Y-90485000D01*
X160238748Y-89015000D02*
X160761252Y-89015000D01*
%TO.C,C3*%
X137988748Y-77985000D02*
X138511252Y-77985000D01*
X137988748Y-76515000D02*
X138511252Y-76515000D01*
%TO.C,C2*%
X137988748Y-74485000D02*
X138511252Y-74485000D01*
X137988748Y-73015000D02*
X138511252Y-73015000D01*
%TO.C,C1*%
X147988748Y-75985000D02*
X148511252Y-75985000D01*
X147988748Y-74515000D02*
X148511252Y-74515000D01*
%TD*%
M02*
