%TF.GenerationSoftware,KiCad,Pcbnew,7.0.8*%
%TF.CreationDate,2023-12-08T10:16:49-06:00*%
%TF.ProjectId,ADNS9800,41444e53-3938-4303-902e-6b696361645f,rev?*%
%TF.SameCoordinates,Original*%
%TF.FileFunction,Copper,L1,Top*%
%TF.FilePolarity,Positive*%
%FSLAX46Y46*%
G04 Gerber Fmt 4.6, Leading zero omitted, Abs format (unit mm)*
G04 Created by KiCad (PCBNEW 7.0.8) date 2023-12-08 10:16:49*
%MOMM*%
%LPD*%
G01*
G04 APERTURE LIST*
G04 Aperture macros list*
%AMRoundRect*
0 Rectangle with rounded corners*
0 $1 Rounding radius*
0 $2 $3 $4 $5 $6 $7 $8 $9 X,Y pos of 4 corners*
0 Add a 4 corners polygon primitive as box body*
4,1,4,$2,$3,$4,$5,$6,$7,$8,$9,$2,$3,0*
0 Add four circle primitives for the rounded corners*
1,1,$1+$1,$2,$3*
1,1,$1+$1,$4,$5*
1,1,$1+$1,$6,$7*
1,1,$1+$1,$8,$9*
0 Add four rect primitives between the rounded corners*
20,1,$1+$1,$2,$3,$4,$5,0*
20,1,$1+$1,$4,$5,$6,$7,0*
20,1,$1+$1,$6,$7,$8,$9,0*
20,1,$1+$1,$8,$9,$2,$3,0*%
G04 Aperture macros list end*
%TA.AperFunction,ComponentPad*%
%ADD10C,1.200000*%
%TD*%
%TA.AperFunction,SMDPad,CuDef*%
%ADD11RoundRect,0.150000X0.587500X0.150000X-0.587500X0.150000X-0.587500X-0.150000X0.587500X-0.150000X0*%
%TD*%
%TA.AperFunction,ComponentPad*%
%ADD12R,1.700000X1.700000*%
%TD*%
%TA.AperFunction,ComponentPad*%
%ADD13O,1.700000X1.700000*%
%TD*%
%TA.AperFunction,SMDPad,CuDef*%
%ADD14RoundRect,0.250000X-0.250000X-0.475000X0.250000X-0.475000X0.250000X0.475000X-0.250000X0.475000X0*%
%TD*%
%TA.AperFunction,ViaPad*%
%ADD15C,0.800000*%
%TD*%
%TA.AperFunction,Conductor*%
%ADD16C,0.250000*%
%TD*%
G04 APERTURE END LIST*
D10*
%TO.P,U1,1,+VCSEL*%
%TO.N,Net-(Q1-D)*%
X142250000Y-79915000D03*
%TO.P,U1,2,LASER_NEN*%
%TO.N,Net-(Q1-G)*%
X142250000Y-81695000D03*
%TO.P,U1,3,NCS*%
%TO.N,~NCS*%
X142250000Y-83475000D03*
%TO.P,U1,4,MISO*%
%TO.N,MISO*%
X142250000Y-85255000D03*
%TO.P,U1,5,SCLK*%
%TO.N,SCLK*%
X142250000Y-87035000D03*
%TO.P,U1,6,MOSI*%
%TO.N,MOSI*%
X142250000Y-88815000D03*
%TO.P,U1,7,MOTION*%
%TO.N,Motion*%
X142250000Y-90595000D03*
%TO.P,U1,8,XYLASER*%
%TO.N,Net-(U1--VCSEL)*%
X142250000Y-92375000D03*
%TO.P,U1,9,VCC*%
%TO.N,VCC*%
X154850000Y-92375000D03*
%TO.P,U1,10,PWR_OPT*%
X154850000Y-90595000D03*
%TO.P,U1,11,VSS*%
%TO.N,VSS*%
X154850000Y-88815000D03*
%TO.P,U1,12,VCC*%
%TO.N,VCC*%
X154850000Y-87035000D03*
%TO.P,U1,13,REFA*%
%TO.N,Net-(U1-REFA)*%
X154850000Y-85255000D03*
%TO.P,U1,14,DGND*%
%TO.N,Net-(U1-DGND)*%
X154850000Y-83475000D03*
%TO.P,U1,15,VCC*%
%TO.N,VCC*%
X154850000Y-81695000D03*
%TO.P,U1,16,-VCSEL*%
%TO.N,Net-(U1--VCSEL)*%
X154850000Y-79915000D03*
%TD*%
D11*
%TO.P,Q1,1,G*%
%TO.N,Net-(Q1-G)*%
X144125000Y-73700000D03*
%TO.P,Q1,2,S*%
%TO.N,VCC*%
X144125000Y-71800000D03*
%TO.P,Q1,3,D*%
%TO.N,Net-(Q1-D)*%
X142250000Y-72750000D03*
%TD*%
D12*
%TO.P,J1,1,Pin_1*%
%TO.N,VCC*%
X125750000Y-77630000D03*
D13*
%TO.P,J1,2,Pin_2*%
%TO.N,~NCS*%
X125750000Y-80170000D03*
%TO.P,J1,3,Pin_3*%
%TO.N,MISO*%
X125750000Y-82710000D03*
%TO.P,J1,4,Pin_4*%
%TO.N,SCLK*%
X125750000Y-85250000D03*
%TO.P,J1,5,Pin_5*%
%TO.N,MOSI*%
X125750000Y-87790000D03*
%TO.P,J1,6,Pin_6*%
%TO.N,Motion*%
X125750000Y-90330000D03*
%TO.P,J1,7,Pin_7*%
%TO.N,VSS*%
X125750000Y-92870000D03*
%TD*%
D14*
%TO.P,C9,1*%
%TO.N,Net-(U1-REFA)*%
X164050000Y-86500000D03*
%TO.P,C9,2*%
%TO.N,VSS*%
X165950000Y-86500000D03*
%TD*%
%TO.P,C8,1*%
%TO.N,Net-(U1-REFA)*%
X159600000Y-86500000D03*
%TO.P,C8,2*%
%TO.N,VSS*%
X161500000Y-86500000D03*
%TD*%
%TO.P,C7,1*%
%TO.N,VCC*%
X159750000Y-83250000D03*
%TO.P,C7,2*%
%TO.N,Net-(U1-DGND)*%
X161650000Y-83250000D03*
%TD*%
%TO.P,C6,1*%
%TO.N,VCC*%
X164050000Y-83250000D03*
%TO.P,C6,2*%
%TO.N,Net-(U1-DGND)*%
X165950000Y-83250000D03*
%TD*%
%TO.P,C5,1*%
%TO.N,VCC*%
X159600000Y-93000000D03*
%TO.P,C5,2*%
%TO.N,VSS*%
X161500000Y-93000000D03*
%TD*%
%TO.P,C4,1*%
%TO.N,VCC*%
X159550000Y-89750000D03*
%TO.P,C4,2*%
%TO.N,VSS*%
X161450000Y-89750000D03*
%TD*%
%TO.P,C3,1*%
%TO.N,VCC*%
X137300000Y-77250000D03*
%TO.P,C3,2*%
%TO.N,VSS*%
X139200000Y-77250000D03*
%TD*%
%TO.P,C2,1*%
%TO.N,VCC*%
X137300000Y-73750000D03*
%TO.P,C2,2*%
%TO.N,VSS*%
X139200000Y-73750000D03*
%TD*%
%TO.P,C1,1*%
%TO.N,Net-(Q1-D)*%
X147300000Y-75250000D03*
%TO.P,C1,2*%
%TO.N,Net-(U1--VCSEL)*%
X149200000Y-75250000D03*
%TD*%
D15*
%TO.N,VSS*%
X151800000Y-78400000D03*
X153800000Y-75400000D03*
X122600000Y-78800000D03*
X133200000Y-69400000D03*
X132800000Y-75600000D03*
X157600000Y-71400000D03*
X160400000Y-79000000D03*
X139000000Y-92800000D03*
X137600000Y-81600000D03*
X157000000Y-89800000D03*
%TO.N,Net-(U1--VCSEL)*%
X151092500Y-76157500D03*
%TO.N,Net-(Q1-D)*%
X144142188Y-78225000D03*
%TD*%
D16*
%TO.N,VCC*%
X137300000Y-73750000D02*
X137300000Y-72350000D01*
X144125000Y-71800000D02*
X136750000Y-71800000D01*
X136750000Y-71800000D02*
X131580000Y-71800000D01*
X137300000Y-72350000D02*
X136750000Y-71800000D01*
X137300000Y-77250000D02*
X137300000Y-73750000D01*
%TO.N,Net-(U1--VCSEL)*%
X151092500Y-76157500D02*
X154850000Y-79915000D01*
X150185000Y-75250000D02*
X151092500Y-76157500D01*
%TO.N,Net-(Q1-D)*%
X144325000Y-78225000D02*
X144142188Y-78225000D01*
X147300000Y-75250000D02*
X144325000Y-78225000D01*
%TO.N,Net-(Q1-G)*%
X143175000Y-80770000D02*
X142250000Y-81695000D01*
X144125000Y-73700000D02*
X143175000Y-74650000D01*
X143175000Y-74650000D02*
X143175000Y-80770000D01*
%TO.N,Motion*%
X126015000Y-90595000D02*
X125750000Y-90330000D01*
X142250000Y-90595000D02*
X126015000Y-90595000D01*
%TO.N,MOSI*%
X126775000Y-88815000D02*
X125750000Y-87790000D01*
X142250000Y-88815000D02*
X126775000Y-88815000D01*
%TO.N,SCLK*%
X142250000Y-87035000D02*
X127535000Y-87035000D01*
X127535000Y-87035000D02*
X125750000Y-85250000D01*
%TO.N,MISO*%
X128295000Y-85255000D02*
X125750000Y-82710000D01*
X142250000Y-85255000D02*
X128295000Y-85255000D01*
%TO.N,~NCS*%
X129055000Y-83475000D02*
X125750000Y-80170000D01*
X142250000Y-83475000D02*
X129055000Y-83475000D01*
%TO.N,VCC*%
X153925000Y-86110000D02*
X153925000Y-82620000D01*
X154850000Y-87035000D02*
X153925000Y-86110000D01*
X153925000Y-82620000D02*
X154850000Y-81695000D01*
X153925000Y-89670000D02*
X153925000Y-87960000D01*
X153925000Y-87960000D02*
X154850000Y-87035000D01*
X154850000Y-90595000D02*
X153925000Y-89670000D01*
X159550000Y-92950000D02*
X159600000Y-93000000D01*
X159550000Y-89750000D02*
X159550000Y-92950000D01*
X154850000Y-92375000D02*
X154850000Y-90595000D01*
X159600000Y-93000000D02*
X155475000Y-93000000D01*
X155475000Y-93000000D02*
X154850000Y-92375000D01*
%TO.N,Net-(U1-REFA)*%
X163000000Y-85450000D02*
X164050000Y-86500000D01*
X159600000Y-86500000D02*
X160650000Y-85450000D01*
X160650000Y-85450000D02*
X163000000Y-85450000D01*
X156095000Y-86500000D02*
X154850000Y-85255000D01*
X159600000Y-86500000D02*
X156095000Y-86500000D01*
%TO.N,Net-(U1-DGND)*%
X155675000Y-84300000D02*
X154850000Y-83475000D01*
X160238174Y-84300000D02*
X155675000Y-84300000D01*
X161288174Y-83250000D02*
X160238174Y-84300000D01*
X161650000Y-83250000D02*
X161288174Y-83250000D01*
X164900000Y-84300000D02*
X162700000Y-84300000D01*
X162700000Y-84300000D02*
X161650000Y-83250000D01*
X165950000Y-83250000D02*
X164900000Y-84300000D01*
%TO.N,VCC*%
X163000000Y-82200000D02*
X164050000Y-83250000D01*
X160800000Y-82200000D02*
X163000000Y-82200000D01*
X159750000Y-83250000D02*
X160800000Y-82200000D01*
X159055000Y-83250000D02*
X157500000Y-81695000D01*
X159750000Y-83250000D02*
X159055000Y-83250000D01*
X157500000Y-81695000D02*
X158055000Y-81695000D01*
X154850000Y-81695000D02*
X157500000Y-81695000D01*
%TO.N,Net-(U1--VCSEL)*%
X149200000Y-75250000D02*
X150185000Y-75250000D01*
%TO.N,VCC*%
X152300000Y-71800000D02*
X144125000Y-71800000D01*
X158055000Y-77555000D02*
X152300000Y-71800000D01*
X158055000Y-81695000D02*
X158055000Y-77555000D01*
X131580000Y-71800000D02*
X125750000Y-77630000D01*
%TO.N,Net-(Q1-D)*%
X142250000Y-79915000D02*
X142250000Y-72750000D01*
%TD*%
%TA.AperFunction,Conductor*%
%TO.N,VSS*%
G36*
X136506587Y-72445185D02*
G01*
X136527229Y-72461819D01*
X136576840Y-72511430D01*
X136610325Y-72572753D01*
X136605341Y-72642445D01*
X136576840Y-72686792D01*
X136457289Y-72806342D01*
X136365187Y-72955663D01*
X136365185Y-72955668D01*
X136339919Y-73031917D01*
X136310001Y-73122203D01*
X136310001Y-73122204D01*
X136310000Y-73122204D01*
X136299500Y-73224983D01*
X136299500Y-74275001D01*
X136299501Y-74275019D01*
X136310000Y-74377796D01*
X136310001Y-74377799D01*
X136334505Y-74451745D01*
X136365186Y-74544334D01*
X136457096Y-74693345D01*
X136457289Y-74693657D01*
X136581345Y-74817713D01*
X136615594Y-74838837D01*
X136662320Y-74890784D01*
X136674500Y-74944377D01*
X136674500Y-76055621D01*
X136654815Y-76122660D01*
X136615599Y-76161158D01*
X136581346Y-76182285D01*
X136457289Y-76306342D01*
X136365187Y-76455663D01*
X136365185Y-76455668D01*
X136338013Y-76537669D01*
X136310001Y-76622203D01*
X136310001Y-76622204D01*
X136310000Y-76622204D01*
X136299500Y-76724983D01*
X136299500Y-77775001D01*
X136299501Y-77775019D01*
X136310000Y-77877796D01*
X136310001Y-77877799D01*
X136365115Y-78044119D01*
X136365186Y-78044334D01*
X136457288Y-78193656D01*
X136581344Y-78317712D01*
X136730666Y-78409814D01*
X136897203Y-78464999D01*
X136999991Y-78475500D01*
X137600008Y-78475499D01*
X137600016Y-78475498D01*
X137600019Y-78475498D01*
X137656302Y-78469748D01*
X137702797Y-78464999D01*
X137869334Y-78409814D01*
X138018656Y-78317712D01*
X138142712Y-78193656D01*
X138144752Y-78190347D01*
X138146745Y-78188555D01*
X138147193Y-78187989D01*
X138147289Y-78188065D01*
X138196694Y-78143623D01*
X138265656Y-78132395D01*
X138329740Y-78160234D01*
X138355829Y-78190339D01*
X138357681Y-78193341D01*
X138357683Y-78193344D01*
X138481654Y-78317315D01*
X138630875Y-78409356D01*
X138630880Y-78409358D01*
X138797302Y-78464505D01*
X138797309Y-78464506D01*
X138900019Y-78474999D01*
X138949999Y-78474998D01*
X138950000Y-78474998D01*
X138950000Y-77500000D01*
X139450000Y-77500000D01*
X139450000Y-78474999D01*
X139499972Y-78474999D01*
X139499986Y-78474998D01*
X139602697Y-78464505D01*
X139769119Y-78409358D01*
X139769124Y-78409356D01*
X139918345Y-78317315D01*
X140042315Y-78193345D01*
X140134356Y-78044124D01*
X140134358Y-78044119D01*
X140189505Y-77877697D01*
X140189506Y-77877690D01*
X140199999Y-77774986D01*
X140200000Y-77774973D01*
X140200000Y-77500000D01*
X139450000Y-77500000D01*
X138950000Y-77500000D01*
X138950000Y-76025000D01*
X139450000Y-76025000D01*
X139450000Y-77000000D01*
X140199999Y-77000000D01*
X140199999Y-76725028D01*
X140199998Y-76725013D01*
X140189505Y-76622302D01*
X140134358Y-76455880D01*
X140134356Y-76455875D01*
X140042315Y-76306654D01*
X139918345Y-76182684D01*
X139769124Y-76090643D01*
X139769119Y-76090641D01*
X139602697Y-76035494D01*
X139602690Y-76035493D01*
X139499986Y-76025000D01*
X139450000Y-76025000D01*
X138950000Y-76025000D01*
X138949999Y-76024999D01*
X138900029Y-76025000D01*
X138900011Y-76025001D01*
X138797302Y-76035494D01*
X138630880Y-76090641D01*
X138630875Y-76090643D01*
X138481654Y-76182684D01*
X138357683Y-76306655D01*
X138357679Y-76306660D01*
X138355826Y-76309665D01*
X138354018Y-76311290D01*
X138353202Y-76312323D01*
X138353025Y-76312183D01*
X138303874Y-76356385D01*
X138234911Y-76367601D01*
X138170831Y-76339752D01*
X138144753Y-76309653D01*
X138144737Y-76309628D01*
X138142712Y-76306344D01*
X138018656Y-76182288D01*
X138018653Y-76182285D01*
X137984401Y-76161158D01*
X137937678Y-76109210D01*
X137925500Y-76055621D01*
X137925500Y-74944377D01*
X137945185Y-74877338D01*
X137984406Y-74838837D01*
X138018654Y-74817713D01*
X138018653Y-74817713D01*
X138018656Y-74817712D01*
X138142712Y-74693656D01*
X138144752Y-74690347D01*
X138146745Y-74688555D01*
X138147193Y-74687989D01*
X138147289Y-74688065D01*
X138196694Y-74643623D01*
X138265656Y-74632395D01*
X138329740Y-74660234D01*
X138355829Y-74690339D01*
X138357681Y-74693341D01*
X138357683Y-74693344D01*
X138481654Y-74817315D01*
X138630875Y-74909356D01*
X138630880Y-74909358D01*
X138797302Y-74964505D01*
X138797309Y-74964506D01*
X138900019Y-74974999D01*
X138949999Y-74974998D01*
X138950000Y-74974998D01*
X138950000Y-74000000D01*
X139450000Y-74000000D01*
X139450000Y-74974999D01*
X139499972Y-74974999D01*
X139499986Y-74974998D01*
X139602697Y-74964505D01*
X139769119Y-74909358D01*
X139769124Y-74909356D01*
X139918345Y-74817315D01*
X140042315Y-74693345D01*
X140134356Y-74544124D01*
X140134358Y-74544119D01*
X140189505Y-74377697D01*
X140189506Y-74377690D01*
X140199999Y-74274986D01*
X140200000Y-74274973D01*
X140200000Y-74000000D01*
X139450000Y-74000000D01*
X138950000Y-74000000D01*
X138950000Y-73624000D01*
X138969685Y-73556961D01*
X139022489Y-73511206D01*
X139074000Y-73500000D01*
X140199999Y-73500000D01*
X140199999Y-73225028D01*
X140199998Y-73225013D01*
X140189505Y-73122302D01*
X140134358Y-72955880D01*
X140134356Y-72955875D01*
X140042315Y-72806654D01*
X139918345Y-72682684D01*
X139873525Y-72655039D01*
X139826801Y-72603091D01*
X139815578Y-72534128D01*
X139843422Y-72470046D01*
X139901490Y-72431190D01*
X139938622Y-72425500D01*
X140888000Y-72425500D01*
X140955039Y-72445185D01*
X141000794Y-72497989D01*
X141012000Y-72549500D01*
X141012000Y-72965696D01*
X141014901Y-73002567D01*
X141014902Y-73002573D01*
X141060754Y-73160393D01*
X141060755Y-73160396D01*
X141144417Y-73301862D01*
X141144423Y-73301870D01*
X141260629Y-73418076D01*
X141260633Y-73418079D01*
X141260635Y-73418081D01*
X141402102Y-73501744D01*
X141535097Y-73540383D01*
X141593980Y-73577988D01*
X141623187Y-73641460D01*
X141624500Y-73659458D01*
X141624500Y-78941309D01*
X141604815Y-79008348D01*
X141584038Y-79032946D01*
X141433237Y-79170418D01*
X141310327Y-79333178D01*
X141219422Y-79515739D01*
X141219417Y-79515752D01*
X141163602Y-79711917D01*
X141144785Y-79914999D01*
X141144785Y-79915000D01*
X141163602Y-80118082D01*
X141219417Y-80314247D01*
X141219422Y-80314260D01*
X141310327Y-80496821D01*
X141433235Y-80659578D01*
X141492234Y-80713363D01*
X141528515Y-80773075D01*
X141526754Y-80842922D01*
X141492234Y-80896637D01*
X141433235Y-80950421D01*
X141310327Y-81113178D01*
X141219422Y-81295739D01*
X141219417Y-81295752D01*
X141163602Y-81491917D01*
X141144785Y-81694999D01*
X141144785Y-81695000D01*
X141163602Y-81898082D01*
X141219417Y-82094247D01*
X141219422Y-82094260D01*
X141310327Y-82276821D01*
X141433235Y-82439578D01*
X141492234Y-82493363D01*
X141528515Y-82553075D01*
X141526754Y-82622922D01*
X141492234Y-82676637D01*
X141433235Y-82730421D01*
X141380521Y-82800227D01*
X141324412Y-82841863D01*
X141281567Y-82849500D01*
X129365452Y-82849500D01*
X129298413Y-82829815D01*
X129277771Y-82813181D01*
X127090237Y-80625646D01*
X127056752Y-80564323D01*
X127058142Y-80505876D01*
X127085063Y-80405408D01*
X127105659Y-80170000D01*
X127085063Y-79934592D01*
X127023903Y-79706337D01*
X126924035Y-79492171D01*
X126869731Y-79414617D01*
X126788496Y-79298600D01*
X126753997Y-79264101D01*
X126666567Y-79176671D01*
X126633084Y-79115351D01*
X126638068Y-79045659D01*
X126679939Y-78989725D01*
X126710915Y-78972810D01*
X126842331Y-78923796D01*
X126957546Y-78837546D01*
X127043796Y-78722331D01*
X127094091Y-78587483D01*
X127100500Y-78527873D01*
X127100499Y-77215450D01*
X127120184Y-77148412D01*
X127136813Y-77127775D01*
X131802772Y-72461819D01*
X131864095Y-72428334D01*
X131890453Y-72425500D01*
X136439548Y-72425500D01*
X136506587Y-72445185D01*
G37*
%TD.AperFunction*%
%TA.AperFunction,Conductor*%
G36*
X148329451Y-76160713D02*
G01*
X148355537Y-76190817D01*
X148357288Y-76193656D01*
X148481344Y-76317712D01*
X148630666Y-76409814D01*
X148797203Y-76464999D01*
X148899991Y-76475500D01*
X149500008Y-76475499D01*
X149500016Y-76475498D01*
X149500019Y-76475498D01*
X149556302Y-76469748D01*
X149602797Y-76464999D01*
X149769334Y-76409814D01*
X149918656Y-76317712D01*
X149992927Y-76243440D01*
X150054246Y-76209958D01*
X150123938Y-76214942D01*
X150179872Y-76256813D01*
X150203925Y-76318158D01*
X150206826Y-76345756D01*
X150206826Y-76345758D01*
X150206827Y-76345760D01*
X150265318Y-76525777D01*
X150265321Y-76525784D01*
X150359967Y-76689716D01*
X150486629Y-76830388D01*
X150639765Y-76941648D01*
X150639770Y-76941651D01*
X150812692Y-77018642D01*
X150812697Y-77018644D01*
X150997854Y-77058000D01*
X151057048Y-77058000D01*
X151124087Y-77077685D01*
X151144729Y-77094319D01*
X153253187Y-79202778D01*
X153286672Y-79264101D01*
X153285698Y-79277719D01*
X153292280Y-79276778D01*
X153355817Y-79305846D01*
X153362232Y-79311823D01*
X153722333Y-79671924D01*
X153755818Y-79733247D01*
X153758123Y-79771045D01*
X153744785Y-79914998D01*
X153744785Y-79915000D01*
X153763602Y-80118082D01*
X153819417Y-80314247D01*
X153819422Y-80314260D01*
X153910327Y-80496821D01*
X154033235Y-80659578D01*
X154092234Y-80713363D01*
X154128515Y-80773075D01*
X154126754Y-80842922D01*
X154092234Y-80896637D01*
X154033235Y-80950421D01*
X153910327Y-81113178D01*
X153819422Y-81295739D01*
X153819417Y-81295752D01*
X153763602Y-81491917D01*
X153744785Y-81694999D01*
X153744785Y-81695001D01*
X153758123Y-81838953D01*
X153744708Y-81907522D01*
X153722333Y-81938074D01*
X153541208Y-82119199D01*
X153528951Y-82129020D01*
X153529134Y-82129241D01*
X153523123Y-82134213D01*
X153475772Y-82184636D01*
X153454889Y-82205519D01*
X153454877Y-82205532D01*
X153450621Y-82211017D01*
X153446837Y-82215447D01*
X153414937Y-82249418D01*
X153414936Y-82249420D01*
X153405284Y-82266976D01*
X153394610Y-82283226D01*
X153382324Y-82299066D01*
X153381228Y-82300921D01*
X153379990Y-82302075D01*
X153377551Y-82305222D01*
X153377043Y-82304828D01*
X153330156Y-82348602D01*
X153261414Y-82361102D01*
X153196826Y-82334452D01*
X153156899Y-82277114D01*
X153150500Y-82237794D01*
X153150500Y-79439759D01*
X153150528Y-79439619D01*
X153150524Y-79439619D01*
X153150541Y-79414459D01*
X153125446Y-79414459D01*
X153125240Y-79414500D01*
X143974760Y-79414500D01*
X143974554Y-79414459D01*
X143925339Y-79414459D01*
X143925339Y-79410372D01*
X143902418Y-79412824D01*
X143839956Y-79381516D01*
X143804335Y-79321408D01*
X143800500Y-79290806D01*
X143800500Y-79226116D01*
X143820185Y-79159077D01*
X143872989Y-79113322D01*
X143942147Y-79103378D01*
X143950260Y-79104822D01*
X144047542Y-79125500D01*
X144047543Y-79125500D01*
X144236832Y-79125500D01*
X144236834Y-79125500D01*
X144421991Y-79086144D01*
X144594918Y-79009151D01*
X144748059Y-78897888D01*
X144874721Y-78757216D01*
X144969367Y-78593284D01*
X145021805Y-78431894D01*
X145052053Y-78382535D01*
X146922772Y-76511816D01*
X146984093Y-76478333D01*
X147010441Y-76475499D01*
X147600008Y-76475499D01*
X147600016Y-76475498D01*
X147600019Y-76475498D01*
X147656302Y-76469748D01*
X147702797Y-76464999D01*
X147869334Y-76409814D01*
X148018656Y-76317712D01*
X148142712Y-76193656D01*
X148144461Y-76190819D01*
X148146169Y-76189283D01*
X148147193Y-76187989D01*
X148147414Y-76188163D01*
X148196406Y-76144096D01*
X148265368Y-76132872D01*
X148329451Y-76160713D01*
G37*
%TD.AperFunction*%
%TA.AperFunction,Conductor*%
G36*
X152056587Y-72445185D02*
G01*
X152077229Y-72461819D01*
X157393181Y-77777771D01*
X157426666Y-77839094D01*
X157429500Y-77865452D01*
X157429500Y-80945500D01*
X157409815Y-81012539D01*
X157357011Y-81058294D01*
X157305500Y-81069500D01*
X155818433Y-81069500D01*
X155751394Y-81049815D01*
X155719479Y-81020227D01*
X155666762Y-80950419D01*
X155607766Y-80896637D01*
X155571484Y-80836926D01*
X155573245Y-80767079D01*
X155607766Y-80713363D01*
X155622853Y-80699608D01*
X155666764Y-80659579D01*
X155789673Y-80496821D01*
X155880582Y-80314250D01*
X155936397Y-80118083D01*
X155955215Y-79915000D01*
X155936397Y-79711917D01*
X155880582Y-79515750D01*
X155842673Y-79439619D01*
X155813742Y-79381516D01*
X155789673Y-79333179D01*
X155671486Y-79176674D01*
X155666762Y-79170418D01*
X155516041Y-79033019D01*
X155516039Y-79033017D01*
X155342642Y-78925655D01*
X155342635Y-78925651D01*
X155247546Y-78888814D01*
X155152456Y-78851976D01*
X154951976Y-78814500D01*
X154748024Y-78814500D01*
X154748018Y-78814500D01*
X154716278Y-78820433D01*
X154646763Y-78813400D01*
X154605816Y-78786225D01*
X152031460Y-76211869D01*
X151997975Y-76150546D01*
X151995823Y-76137168D01*
X151978174Y-75969244D01*
X151919679Y-75789216D01*
X151825033Y-75625284D01*
X151698371Y-75484612D01*
X151698370Y-75484611D01*
X151545234Y-75373351D01*
X151545229Y-75373348D01*
X151372307Y-75296357D01*
X151372302Y-75296355D01*
X151226501Y-75265365D01*
X151187146Y-75257000D01*
X151187145Y-75257000D01*
X151127953Y-75257000D01*
X151060914Y-75237315D01*
X151040272Y-75220681D01*
X150685803Y-74866212D01*
X150675980Y-74853950D01*
X150675759Y-74854134D01*
X150670786Y-74848123D01*
X150620364Y-74800773D01*
X150604940Y-74785349D01*
X150599475Y-74779883D01*
X150593986Y-74775625D01*
X150589561Y-74771847D01*
X150555582Y-74739938D01*
X150555580Y-74739936D01*
X150555577Y-74739935D01*
X150538029Y-74730288D01*
X150521763Y-74719604D01*
X150505933Y-74707325D01*
X150463168Y-74688818D01*
X150457922Y-74686248D01*
X150417093Y-74663803D01*
X150417092Y-74663802D01*
X150397693Y-74658822D01*
X150379281Y-74652518D01*
X150360898Y-74644562D01*
X150360892Y-74644560D01*
X150314874Y-74637272D01*
X150309152Y-74636087D01*
X150256463Y-74622560D01*
X150256854Y-74621033D01*
X150201076Y-74596699D01*
X150162965Y-74540621D01*
X150161705Y-74536819D01*
X150134814Y-74455666D01*
X150042712Y-74306344D01*
X149918656Y-74182288D01*
X149769334Y-74090186D01*
X149602797Y-74035001D01*
X149602795Y-74035000D01*
X149500010Y-74024500D01*
X148899998Y-74024500D01*
X148899980Y-74024501D01*
X148797203Y-74035000D01*
X148797200Y-74035001D01*
X148630668Y-74090185D01*
X148630663Y-74090187D01*
X148481342Y-74182289D01*
X148357285Y-74306346D01*
X148355537Y-74309182D01*
X148353829Y-74310717D01*
X148352807Y-74312011D01*
X148352585Y-74311836D01*
X148303589Y-74355905D01*
X148234626Y-74367126D01*
X148170544Y-74339282D01*
X148144463Y-74309182D01*
X148142714Y-74306346D01*
X148018657Y-74182289D01*
X148018656Y-74182288D01*
X147869334Y-74090186D01*
X147702797Y-74035001D01*
X147702795Y-74035000D01*
X147600010Y-74024500D01*
X146999998Y-74024500D01*
X146999980Y-74024501D01*
X146897203Y-74035000D01*
X146897200Y-74035001D01*
X146730668Y-74090185D01*
X146730663Y-74090187D01*
X146581342Y-74182289D01*
X146457289Y-74306342D01*
X146365187Y-74455663D01*
X146365185Y-74455668D01*
X146337349Y-74539670D01*
X146310001Y-74622203D01*
X146310001Y-74622204D01*
X146310000Y-74622204D01*
X146299500Y-74724983D01*
X146299500Y-75314546D01*
X146279815Y-75381585D01*
X146263181Y-75402227D01*
X144370272Y-77295135D01*
X144308949Y-77328620D01*
X144256815Y-77328745D01*
X144236839Y-77324500D01*
X144236834Y-77324500D01*
X144047542Y-77324500D01*
X144047540Y-77324500D01*
X143950280Y-77345173D01*
X143880613Y-77339857D01*
X143824880Y-77297719D01*
X143800775Y-77232139D01*
X143800500Y-77223883D01*
X143800500Y-74960452D01*
X143820185Y-74893413D01*
X143836819Y-74872771D01*
X144172772Y-74536819D01*
X144234095Y-74503334D01*
X144260453Y-74500500D01*
X144778196Y-74500500D01*
X144796631Y-74499049D01*
X144815069Y-74497598D01*
X144815071Y-74497597D01*
X144815073Y-74497597D01*
X144856691Y-74485505D01*
X144972898Y-74451744D01*
X145114365Y-74368081D01*
X145230581Y-74251865D01*
X145314244Y-74110398D01*
X145360098Y-73952569D01*
X145363000Y-73915694D01*
X145363000Y-73484306D01*
X145360098Y-73447431D01*
X145351571Y-73418082D01*
X145314245Y-73289606D01*
X145314244Y-73289603D01*
X145314244Y-73289602D01*
X145230581Y-73148135D01*
X145230579Y-73148133D01*
X145230576Y-73148129D01*
X145114370Y-73031923D01*
X145114362Y-73031917D01*
X145020925Y-72976659D01*
X144972898Y-72948256D01*
X144972897Y-72948255D01*
X144972896Y-72948255D01*
X144972893Y-72948254D01*
X144815073Y-72902402D01*
X144815067Y-72902401D01*
X144778196Y-72899500D01*
X144778194Y-72899500D01*
X143612000Y-72899500D01*
X143544961Y-72879815D01*
X143499206Y-72827011D01*
X143488000Y-72775500D01*
X143488000Y-72724500D01*
X143507685Y-72657461D01*
X143560489Y-72611706D01*
X143612000Y-72600500D01*
X144778196Y-72600500D01*
X144796631Y-72599049D01*
X144815069Y-72597598D01*
X144815071Y-72597597D01*
X144815073Y-72597597D01*
X144900585Y-72572753D01*
X144972898Y-72551744D01*
X145114365Y-72468081D01*
X145114370Y-72468076D01*
X145120628Y-72461819D01*
X145181951Y-72428334D01*
X145208309Y-72425500D01*
X151989548Y-72425500D01*
X152056587Y-72445185D01*
G37*
%TD.AperFunction*%
%TA.AperFunction,Conductor*%
G36*
X162615677Y-67819685D02*
G01*
X162636319Y-67836319D01*
X169763681Y-74963681D01*
X169797166Y-75025004D01*
X169800000Y-75051362D01*
X169800000Y-94949657D01*
X169780315Y-95016696D01*
X169764907Y-95036095D01*
X162836805Y-102162143D01*
X162775960Y-102196488D01*
X162747201Y-102199703D01*
X127250953Y-102000286D01*
X127184026Y-101980225D01*
X127163969Y-101963969D01*
X120636319Y-95436319D01*
X120602834Y-95374996D01*
X120600000Y-95348638D01*
X120600000Y-90330000D01*
X124394341Y-90330000D01*
X124414936Y-90565403D01*
X124414938Y-90565413D01*
X124476094Y-90793655D01*
X124476096Y-90793659D01*
X124476097Y-90793663D01*
X124530046Y-90909356D01*
X124575965Y-91007830D01*
X124575967Y-91007834D01*
X124684281Y-91162521D01*
X124711505Y-91201401D01*
X124878599Y-91368495D01*
X124990828Y-91447079D01*
X125064594Y-91498730D01*
X125108219Y-91553307D01*
X125115413Y-91622805D01*
X125083890Y-91685160D01*
X125064595Y-91701880D01*
X124878922Y-91831890D01*
X124878920Y-91831891D01*
X124711891Y-91998920D01*
X124711886Y-91998926D01*
X124576400Y-92192420D01*
X124576399Y-92192422D01*
X124476570Y-92406507D01*
X124476567Y-92406513D01*
X124419364Y-92619999D01*
X124419364Y-92620000D01*
X125316314Y-92620000D01*
X125290507Y-92660156D01*
X125250000Y-92798111D01*
X125250000Y-92941889D01*
X125290507Y-93079844D01*
X125316314Y-93120000D01*
X124419364Y-93120000D01*
X124476567Y-93333486D01*
X124476570Y-93333492D01*
X124576399Y-93547578D01*
X124711894Y-93741082D01*
X124878917Y-93908105D01*
X125072421Y-94043600D01*
X125286507Y-94143429D01*
X125286516Y-94143433D01*
X125500000Y-94200634D01*
X125500000Y-93305501D01*
X125607685Y-93354680D01*
X125714237Y-93370000D01*
X125785763Y-93370000D01*
X125892315Y-93354680D01*
X126000000Y-93305501D01*
X126000000Y-94200633D01*
X126213483Y-94143433D01*
X126213492Y-94143429D01*
X126427578Y-94043600D01*
X126621082Y-93908105D01*
X126788105Y-93741082D01*
X126923600Y-93547578D01*
X127023429Y-93333492D01*
X127023432Y-93333486D01*
X127080636Y-93120000D01*
X126183686Y-93120000D01*
X126209493Y-93079844D01*
X126250000Y-92941889D01*
X126250000Y-92798111D01*
X126209493Y-92660156D01*
X126183686Y-92620000D01*
X127080636Y-92620000D01*
X127080635Y-92619999D01*
X127023432Y-92406513D01*
X127023429Y-92406507D01*
X126923600Y-92192422D01*
X126923599Y-92192420D01*
X126788113Y-91998926D01*
X126788108Y-91998920D01*
X126621078Y-91831890D01*
X126435405Y-91701879D01*
X126391780Y-91647302D01*
X126384588Y-91577804D01*
X126416110Y-91515449D01*
X126435406Y-91498730D01*
X126443562Y-91493019D01*
X126621401Y-91368495D01*
X126733077Y-91256819D01*
X126794400Y-91223334D01*
X126820758Y-91220500D01*
X141281567Y-91220500D01*
X141348606Y-91240185D01*
X141380521Y-91269773D01*
X141433235Y-91339578D01*
X141492234Y-91393363D01*
X141528515Y-91453075D01*
X141526754Y-91522922D01*
X141492234Y-91576637D01*
X141433235Y-91630421D01*
X141310327Y-91793178D01*
X141219422Y-91975739D01*
X141219417Y-91975752D01*
X141163602Y-92171917D01*
X141144785Y-92374999D01*
X141144785Y-92375000D01*
X141163602Y-92578082D01*
X141219417Y-92774247D01*
X141219422Y-92774260D01*
X141310327Y-92956821D01*
X141433237Y-93119581D01*
X141583958Y-93256980D01*
X141583960Y-93256982D01*
X141645284Y-93294952D01*
X141757363Y-93364348D01*
X141947544Y-93438024D01*
X142148024Y-93475500D01*
X142148026Y-93475500D01*
X142351974Y-93475500D01*
X142351976Y-93475500D01*
X142552456Y-93438024D01*
X142742637Y-93364348D01*
X142916041Y-93256981D01*
X143066764Y-93119579D01*
X143189673Y-92956821D01*
X143280582Y-92774250D01*
X143336397Y-92578083D01*
X143355215Y-92375000D01*
X143336397Y-92171917D01*
X143280582Y-91975750D01*
X143189673Y-91793179D01*
X143066764Y-91630421D01*
X143007766Y-91576637D01*
X142971484Y-91516926D01*
X142973245Y-91447079D01*
X143007766Y-91393363D01*
X143035041Y-91368498D01*
X143066764Y-91339579D01*
X143189673Y-91176821D01*
X143280582Y-90994250D01*
X143336397Y-90798083D01*
X143355215Y-90595000D01*
X143352472Y-90565403D01*
X143336397Y-90391917D01*
X143332349Y-90377690D01*
X143280582Y-90195750D01*
X143189673Y-90013179D01*
X143066764Y-89850421D01*
X143040844Y-89826792D01*
X143007766Y-89796637D01*
X142971484Y-89736926D01*
X142973245Y-89667079D01*
X143007766Y-89613363D01*
X143044388Y-89579977D01*
X143066764Y-89559579D01*
X143189673Y-89396821D01*
X143280582Y-89214250D01*
X143336397Y-89018083D01*
X143355215Y-88815000D01*
X143336397Y-88611917D01*
X143280582Y-88415750D01*
X143189673Y-88233179D01*
X143066764Y-88070421D01*
X143017393Y-88025413D01*
X143007766Y-88016637D01*
X142971484Y-87956926D01*
X142973245Y-87887079D01*
X143007766Y-87833363D01*
X143022853Y-87819608D01*
X143066764Y-87779579D01*
X143189673Y-87616821D01*
X143280582Y-87434250D01*
X143336397Y-87238083D01*
X143355215Y-87035000D01*
X143354288Y-87025001D01*
X143336397Y-86831917D01*
X143280582Y-86635750D01*
X143270730Y-86615965D01*
X143233694Y-86541586D01*
X143189673Y-86453179D01*
X143066764Y-86290421D01*
X143034717Y-86261206D01*
X143007766Y-86236637D01*
X142971484Y-86176926D01*
X142973245Y-86107079D01*
X143007766Y-86053363D01*
X143022853Y-86039608D01*
X143066764Y-85999579D01*
X143189673Y-85836821D01*
X143280582Y-85654250D01*
X143336397Y-85458083D01*
X143355215Y-85255000D01*
X143336397Y-85051917D01*
X143280582Y-84855750D01*
X143265636Y-84825735D01*
X143212671Y-84719365D01*
X143189673Y-84673179D01*
X143066764Y-84510421D01*
X143031565Y-84478333D01*
X143007766Y-84456637D01*
X142971484Y-84396926D01*
X142973245Y-84327079D01*
X143007766Y-84273363D01*
X143022853Y-84259608D01*
X143066764Y-84219579D01*
X143189673Y-84056821D01*
X143280582Y-83874250D01*
X143336397Y-83678083D01*
X143355215Y-83475000D01*
X143336397Y-83271917D01*
X143280582Y-83075750D01*
X143189673Y-82893179D01*
X143066764Y-82730421D01*
X143060809Y-82724992D01*
X143007766Y-82676637D01*
X142971484Y-82616926D01*
X142973245Y-82547079D01*
X143007766Y-82493363D01*
X143028352Y-82474596D01*
X143066764Y-82439579D01*
X143189673Y-82276821D01*
X143280582Y-82094250D01*
X143336397Y-81898083D01*
X143355215Y-81695000D01*
X143341875Y-81551042D01*
X143355290Y-81482476D01*
X143377662Y-81451926D01*
X143558786Y-81270802D01*
X143571048Y-81260980D01*
X143570865Y-81260759D01*
X143576867Y-81255792D01*
X143576877Y-81255786D01*
X143624241Y-81205348D01*
X143645120Y-81184470D01*
X143649373Y-81178986D01*
X143653150Y-81174563D01*
X143685062Y-81140582D01*
X143694714Y-81123023D01*
X143705389Y-81106772D01*
X143717674Y-81090936D01*
X143717677Y-81090928D01*
X143718765Y-81089090D01*
X143719999Y-81087937D01*
X143722458Y-81084768D01*
X143722968Y-81085164D01*
X143769832Y-81041404D01*
X143838573Y-81028897D01*
X143903164Y-81055540D01*
X143943097Y-81112874D01*
X143949500Y-81152206D01*
X143949500Y-92850467D01*
X143949416Y-92850889D01*
X143949459Y-92875001D01*
X143949500Y-92875099D01*
X143949616Y-92875382D01*
X143949618Y-92875384D01*
X143949808Y-92875462D01*
X143950000Y-92875541D01*
X143950002Y-92875539D01*
X143974616Y-92875524D01*
X143974616Y-92875528D01*
X143974760Y-92875500D01*
X153125240Y-92875500D01*
X153125383Y-92875528D01*
X153125384Y-92875524D01*
X153149997Y-92875539D01*
X153150000Y-92875541D01*
X153150383Y-92875383D01*
X153150500Y-92875099D01*
X153150541Y-92875000D01*
X153150540Y-92874997D01*
X153150583Y-92850889D01*
X153150500Y-92850467D01*
X153150500Y-90049788D01*
X153170185Y-89982749D01*
X153222989Y-89936994D01*
X153292147Y-89927050D01*
X153355703Y-89956075D01*
X153374816Y-89976901D01*
X153391599Y-90000000D01*
X153399898Y-90011423D01*
X153403106Y-90016307D01*
X153426827Y-90056416D01*
X153426833Y-90056424D01*
X153440990Y-90070580D01*
X153453628Y-90085376D01*
X153465405Y-90101586D01*
X153465406Y-90101587D01*
X153501309Y-90131288D01*
X153505620Y-90135210D01*
X153645383Y-90274973D01*
X153722333Y-90351923D01*
X153755818Y-90413246D01*
X153758123Y-90451044D01*
X153744785Y-90594998D01*
X153744785Y-90595000D01*
X153763602Y-90798082D01*
X153819417Y-90994247D01*
X153819422Y-90994260D01*
X153910327Y-91176821D01*
X154033235Y-91339578D01*
X154092234Y-91393363D01*
X154128515Y-91453075D01*
X154126754Y-91522922D01*
X154092234Y-91576637D01*
X154033235Y-91630421D01*
X153910327Y-91793178D01*
X153819422Y-91975739D01*
X153819417Y-91975752D01*
X153763602Y-92171917D01*
X153744785Y-92374999D01*
X153744785Y-92375000D01*
X153763602Y-92578082D01*
X153819417Y-92774247D01*
X153819422Y-92774260D01*
X153910327Y-92956821D01*
X154033237Y-93119581D01*
X154183958Y-93256980D01*
X154183960Y-93256982D01*
X154245284Y-93294952D01*
X154357363Y-93364348D01*
X154547544Y-93438024D01*
X154748024Y-93475500D01*
X154748026Y-93475500D01*
X154951975Y-93475500D01*
X154951976Y-93475500D01*
X154986591Y-93469029D01*
X155056106Y-93476059D01*
X155094259Y-93500522D01*
X155104418Y-93510062D01*
X155121976Y-93519714D01*
X155138235Y-93530395D01*
X155154064Y-93542673D01*
X155196838Y-93561182D01*
X155202056Y-93563738D01*
X155242908Y-93586197D01*
X155262316Y-93591180D01*
X155280717Y-93597480D01*
X155299104Y-93605437D01*
X155342488Y-93612308D01*
X155345119Y-93612725D01*
X155350839Y-93613909D01*
X155395981Y-93625500D01*
X155416016Y-93625500D01*
X155435414Y-93627026D01*
X155455194Y-93630159D01*
X155455195Y-93630160D01*
X155455195Y-93630159D01*
X155455196Y-93630160D01*
X155501584Y-93625775D01*
X155507422Y-93625500D01*
X158519699Y-93625500D01*
X158586738Y-93645185D01*
X158632493Y-93697989D01*
X158637403Y-93710492D01*
X158665186Y-93794334D01*
X158757288Y-93943656D01*
X158881344Y-94067712D01*
X159030666Y-94159814D01*
X159197203Y-94214999D01*
X159299991Y-94225500D01*
X159900008Y-94225499D01*
X159900016Y-94225498D01*
X159900019Y-94225498D01*
X159956302Y-94219748D01*
X160002797Y-94214999D01*
X160169334Y-94159814D01*
X160318656Y-94067712D01*
X160442712Y-93943656D01*
X160444752Y-93940347D01*
X160446745Y-93938555D01*
X160447193Y-93937989D01*
X160447289Y-93938065D01*
X160496694Y-93893623D01*
X160565656Y-93882395D01*
X160629740Y-93910234D01*
X160655829Y-93940339D01*
X160657681Y-93943341D01*
X160657683Y-93943344D01*
X160781654Y-94067315D01*
X160930875Y-94159356D01*
X160930880Y-94159358D01*
X161097302Y-94214505D01*
X161097309Y-94214506D01*
X161200019Y-94224999D01*
X161249999Y-94224998D01*
X161250000Y-94224998D01*
X161250000Y-93250000D01*
X161750000Y-93250000D01*
X161750000Y-94224999D01*
X161799972Y-94224999D01*
X161799986Y-94224998D01*
X161902697Y-94214505D01*
X162069119Y-94159358D01*
X162069124Y-94159356D01*
X162218345Y-94067315D01*
X162342315Y-93943345D01*
X162434356Y-93794124D01*
X162434358Y-93794119D01*
X162489505Y-93627697D01*
X162489506Y-93627690D01*
X162499999Y-93524986D01*
X162500000Y-93524973D01*
X162500000Y-93250000D01*
X161750000Y-93250000D01*
X161250000Y-93250000D01*
X161250000Y-91775000D01*
X161750000Y-91775000D01*
X161750000Y-92750000D01*
X162499999Y-92750000D01*
X162499999Y-92475028D01*
X162499998Y-92475013D01*
X162489505Y-92372302D01*
X162434358Y-92205880D01*
X162434356Y-92205875D01*
X162342315Y-92056654D01*
X162218345Y-91932684D01*
X162069124Y-91840643D01*
X162069119Y-91840641D01*
X161902697Y-91785494D01*
X161902690Y-91785493D01*
X161799986Y-91775000D01*
X161750000Y-91775000D01*
X161250000Y-91775000D01*
X161249999Y-91774999D01*
X161200029Y-91775000D01*
X161200011Y-91775001D01*
X161097302Y-91785494D01*
X160930880Y-91840641D01*
X160930875Y-91840643D01*
X160781654Y-91932684D01*
X160657683Y-92056655D01*
X160657679Y-92056660D01*
X160655826Y-92059665D01*
X160654018Y-92061290D01*
X160653202Y-92062323D01*
X160653025Y-92062183D01*
X160603874Y-92106385D01*
X160534911Y-92117601D01*
X160470831Y-92089752D01*
X160444753Y-92059653D01*
X160444737Y-92059628D01*
X160442712Y-92056344D01*
X160318656Y-91932288D01*
X160318652Y-91932285D01*
X160234403Y-91880319D01*
X160187678Y-91828371D01*
X160175500Y-91774781D01*
X160175500Y-90944377D01*
X160195185Y-90877338D01*
X160234406Y-90838837D01*
X160268654Y-90817713D01*
X160268653Y-90817713D01*
X160268656Y-90817712D01*
X160392712Y-90693656D01*
X160394752Y-90690347D01*
X160396745Y-90688555D01*
X160397193Y-90687989D01*
X160397289Y-90688065D01*
X160446694Y-90643623D01*
X160515656Y-90632395D01*
X160579740Y-90660234D01*
X160605829Y-90690339D01*
X160607681Y-90693341D01*
X160607683Y-90693344D01*
X160731654Y-90817315D01*
X160880875Y-90909356D01*
X160880880Y-90909358D01*
X161047302Y-90964505D01*
X161047309Y-90964506D01*
X161150019Y-90974999D01*
X161199999Y-90974998D01*
X161200000Y-90974998D01*
X161200000Y-90000000D01*
X161700000Y-90000000D01*
X161700000Y-90974999D01*
X161749972Y-90974999D01*
X161749986Y-90974998D01*
X161852697Y-90964505D01*
X162019119Y-90909358D01*
X162019124Y-90909356D01*
X162168345Y-90817315D01*
X162292315Y-90693345D01*
X162384356Y-90544124D01*
X162384358Y-90544119D01*
X162439505Y-90377697D01*
X162439506Y-90377690D01*
X162449999Y-90274986D01*
X162450000Y-90274973D01*
X162450000Y-90000000D01*
X161700000Y-90000000D01*
X161200000Y-90000000D01*
X161200000Y-88525000D01*
X161700000Y-88525000D01*
X161700000Y-89500000D01*
X162449999Y-89500000D01*
X162449999Y-89225028D01*
X162449998Y-89225013D01*
X162439505Y-89122302D01*
X162384358Y-88955880D01*
X162384356Y-88955875D01*
X162292315Y-88806654D01*
X162168345Y-88682684D01*
X162019124Y-88590643D01*
X162019119Y-88590641D01*
X161852697Y-88535494D01*
X161852690Y-88535493D01*
X161749986Y-88525000D01*
X161700000Y-88525000D01*
X161200000Y-88525000D01*
X161199999Y-88524999D01*
X161150029Y-88525000D01*
X161150011Y-88525001D01*
X161047302Y-88535494D01*
X160880880Y-88590641D01*
X160880875Y-88590643D01*
X160731654Y-88682684D01*
X160607683Y-88806655D01*
X160607679Y-88806660D01*
X160605826Y-88809665D01*
X160604018Y-88811290D01*
X160603202Y-88812323D01*
X160603025Y-88812183D01*
X160553874Y-88856385D01*
X160484911Y-88867601D01*
X160420831Y-88839752D01*
X160394753Y-88809653D01*
X160394737Y-88809628D01*
X160392712Y-88806344D01*
X160268656Y-88682288D01*
X160119334Y-88590186D01*
X159952797Y-88535001D01*
X159952795Y-88535000D01*
X159850010Y-88524500D01*
X159249998Y-88524500D01*
X159249980Y-88524501D01*
X159147203Y-88535000D01*
X159147200Y-88535001D01*
X158980668Y-88590185D01*
X158980663Y-88590187D01*
X158831342Y-88682289D01*
X158707289Y-88806342D01*
X158615187Y-88955663D01*
X158615185Y-88955668D01*
X158596187Y-89013002D01*
X158560001Y-89122203D01*
X158560001Y-89122204D01*
X158560000Y-89122204D01*
X158549500Y-89224983D01*
X158549500Y-90275001D01*
X158549501Y-90275019D01*
X158560000Y-90377796D01*
X158560001Y-90377799D01*
X158615185Y-90544331D01*
X158615187Y-90544336D01*
X158646436Y-90594998D01*
X158707096Y-90693345D01*
X158707289Y-90693657D01*
X158831345Y-90817713D01*
X158865594Y-90838837D01*
X158912320Y-90890784D01*
X158924500Y-90944377D01*
X158924500Y-91838132D01*
X158904815Y-91905171D01*
X158885616Y-91926346D01*
X158886451Y-91927181D01*
X158757289Y-92056342D01*
X158665187Y-92205663D01*
X158665185Y-92205668D01*
X158637405Y-92289504D01*
X158597632Y-92346949D01*
X158533116Y-92373772D01*
X158519699Y-92374500D01*
X156068210Y-92374500D01*
X156001171Y-92354815D01*
X155955416Y-92302011D01*
X155944739Y-92261941D01*
X155936397Y-92171918D01*
X155936397Y-92171917D01*
X155880582Y-91975750D01*
X155789673Y-91793179D01*
X155666764Y-91630421D01*
X155607766Y-91576637D01*
X155571484Y-91516926D01*
X155573245Y-91447079D01*
X155607766Y-91393363D01*
X155635041Y-91368498D01*
X155666764Y-91339579D01*
X155789673Y-91176821D01*
X155880582Y-90994250D01*
X155936397Y-90798083D01*
X155955215Y-90595000D01*
X155952472Y-90565403D01*
X155936397Y-90391917D01*
X155932349Y-90377690D01*
X155880582Y-90195750D01*
X155789673Y-90013179D01*
X155683692Y-89872837D01*
X155666762Y-89850418D01*
X155516041Y-89713019D01*
X155516039Y-89713017D01*
X155342640Y-89605653D01*
X155342628Y-89605648D01*
X155276365Y-89579977D01*
X155233479Y-89552032D01*
X154894400Y-89212953D01*
X154975148Y-89200165D01*
X155088045Y-89142641D01*
X155177641Y-89053045D01*
X155235165Y-88940148D01*
X155247953Y-88859400D01*
X155787465Y-89398912D01*
X155789247Y-89396552D01*
X155789249Y-89396550D01*
X155880113Y-89214069D01*
X155880116Y-89214063D01*
X155935902Y-89017992D01*
X155935903Y-89017989D01*
X155954713Y-88815000D01*
X155954713Y-88814999D01*
X155935903Y-88612010D01*
X155935902Y-88612007D01*
X155880116Y-88415936D01*
X155880113Y-88415930D01*
X155789244Y-88233441D01*
X155787466Y-88231086D01*
X155787465Y-88231085D01*
X155247953Y-88770598D01*
X155235165Y-88689852D01*
X155177641Y-88576955D01*
X155088045Y-88487359D01*
X154975148Y-88429835D01*
X154894400Y-88417046D01*
X155233479Y-88077966D01*
X155276365Y-88050021D01*
X155342637Y-88024348D01*
X155516041Y-87916981D01*
X155666764Y-87779579D01*
X155789673Y-87616821D01*
X155880582Y-87434250D01*
X155936397Y-87238083D01*
X155936397Y-87238073D01*
X155937451Y-87232446D01*
X155939603Y-87232848D01*
X155961834Y-87176852D01*
X156018631Y-87136160D01*
X156067338Y-87131793D01*
X156067398Y-87129915D01*
X156075188Y-87130158D01*
X156075196Y-87130160D01*
X156121584Y-87125775D01*
X156127422Y-87125500D01*
X158519699Y-87125500D01*
X158586738Y-87145185D01*
X158632493Y-87197989D01*
X158637403Y-87210492D01*
X158665186Y-87294334D01*
X158757288Y-87443656D01*
X158881344Y-87567712D01*
X159030666Y-87659814D01*
X159197203Y-87714999D01*
X159299991Y-87725500D01*
X159900008Y-87725499D01*
X159900016Y-87725498D01*
X159900019Y-87725498D01*
X159956302Y-87719748D01*
X160002797Y-87714999D01*
X160169334Y-87659814D01*
X160318656Y-87567712D01*
X160442712Y-87443656D01*
X160444752Y-87440347D01*
X160446745Y-87438555D01*
X160447193Y-87437989D01*
X160447289Y-87438065D01*
X160496694Y-87393623D01*
X160565656Y-87382395D01*
X160629740Y-87410234D01*
X160655829Y-87440339D01*
X160657681Y-87443341D01*
X160657683Y-87443344D01*
X160781654Y-87567315D01*
X160930875Y-87659356D01*
X160930880Y-87659358D01*
X161097302Y-87714505D01*
X161097309Y-87714506D01*
X161200019Y-87724999D01*
X161249999Y-87724998D01*
X161250000Y-87724998D01*
X161250000Y-86750000D01*
X161750000Y-86750000D01*
X161750000Y-87724999D01*
X161799972Y-87724999D01*
X161799986Y-87724998D01*
X161902697Y-87714505D01*
X162069119Y-87659358D01*
X162069124Y-87659356D01*
X162218345Y-87567315D01*
X162342315Y-87443345D01*
X162434356Y-87294124D01*
X162434358Y-87294119D01*
X162489505Y-87127697D01*
X162489506Y-87127690D01*
X162499999Y-87024986D01*
X162500000Y-87024973D01*
X162500000Y-86750000D01*
X161750000Y-86750000D01*
X161250000Y-86750000D01*
X161250000Y-86374000D01*
X161269685Y-86306961D01*
X161322489Y-86261206D01*
X161374000Y-86250000D01*
X162499999Y-86250000D01*
X162499999Y-86199500D01*
X162519684Y-86132461D01*
X162572488Y-86086706D01*
X162623999Y-86075500D01*
X162689548Y-86075500D01*
X162756587Y-86095185D01*
X162777229Y-86111819D01*
X163013181Y-86347771D01*
X163046666Y-86409094D01*
X163049500Y-86435452D01*
X163049500Y-87025001D01*
X163049501Y-87025019D01*
X163060000Y-87127796D01*
X163060001Y-87127799D01*
X163096546Y-87238082D01*
X163115186Y-87294334D01*
X163207288Y-87443656D01*
X163331344Y-87567712D01*
X163480666Y-87659814D01*
X163647203Y-87714999D01*
X163749991Y-87725500D01*
X164350008Y-87725499D01*
X164350016Y-87725498D01*
X164350019Y-87725498D01*
X164406302Y-87719748D01*
X164452797Y-87714999D01*
X164619334Y-87659814D01*
X164768656Y-87567712D01*
X164892712Y-87443656D01*
X164894752Y-87440347D01*
X164896745Y-87438555D01*
X164897193Y-87437989D01*
X164897289Y-87438065D01*
X164946694Y-87393623D01*
X165015656Y-87382395D01*
X165079740Y-87410234D01*
X165105829Y-87440339D01*
X165107681Y-87443341D01*
X165107683Y-87443344D01*
X165231654Y-87567315D01*
X165380875Y-87659356D01*
X165380880Y-87659358D01*
X165547302Y-87714505D01*
X165547309Y-87714506D01*
X165650019Y-87724999D01*
X165699999Y-87724998D01*
X165700000Y-87724998D01*
X165700000Y-86750000D01*
X166200000Y-86750000D01*
X166200000Y-87724999D01*
X166249972Y-87724999D01*
X166249986Y-87724998D01*
X166352697Y-87714505D01*
X166519119Y-87659358D01*
X166519124Y-87659356D01*
X166668345Y-87567315D01*
X166792315Y-87443345D01*
X166884356Y-87294124D01*
X166884358Y-87294119D01*
X166939505Y-87127697D01*
X166939506Y-87127690D01*
X166949999Y-87024986D01*
X166950000Y-87024973D01*
X166950000Y-86750000D01*
X166200000Y-86750000D01*
X165700000Y-86750000D01*
X165700000Y-85275000D01*
X166200000Y-85275000D01*
X166200000Y-86250000D01*
X166949999Y-86250000D01*
X166949999Y-85975028D01*
X166949998Y-85975013D01*
X166939505Y-85872302D01*
X166884358Y-85705880D01*
X166884356Y-85705875D01*
X166792315Y-85556654D01*
X166668345Y-85432684D01*
X166519124Y-85340643D01*
X166519119Y-85340641D01*
X166352697Y-85285494D01*
X166352690Y-85285493D01*
X166249986Y-85275000D01*
X166200000Y-85275000D01*
X165700000Y-85275000D01*
X165699999Y-85274999D01*
X165650029Y-85275000D01*
X165650011Y-85275001D01*
X165547302Y-85285494D01*
X165380880Y-85340641D01*
X165380875Y-85340643D01*
X165231654Y-85432684D01*
X165107683Y-85556655D01*
X165107679Y-85556660D01*
X165105826Y-85559665D01*
X165104018Y-85561290D01*
X165103202Y-85562323D01*
X165103025Y-85562183D01*
X165053874Y-85606385D01*
X164984911Y-85617601D01*
X164920831Y-85589752D01*
X164894753Y-85559653D01*
X164894737Y-85559628D01*
X164892712Y-85556344D01*
X164768656Y-85432288D01*
X164619334Y-85340186D01*
X164452797Y-85285001D01*
X164452795Y-85285000D01*
X164350016Y-85274500D01*
X163760453Y-85274500D01*
X163693414Y-85254815D01*
X163672772Y-85238181D01*
X163571772Y-85137181D01*
X163538287Y-85075858D01*
X163543271Y-85006166D01*
X163585143Y-84950233D01*
X163650607Y-84925816D01*
X163659453Y-84925500D01*
X164817257Y-84925500D01*
X164832877Y-84927224D01*
X164832904Y-84926939D01*
X164840660Y-84927671D01*
X164840667Y-84927673D01*
X164909814Y-84925500D01*
X164939350Y-84925500D01*
X164946228Y-84924630D01*
X164952041Y-84924172D01*
X164998627Y-84922709D01*
X165017869Y-84917117D01*
X165036912Y-84913174D01*
X165056792Y-84910664D01*
X165100122Y-84893507D01*
X165105646Y-84891617D01*
X165109396Y-84890527D01*
X165150390Y-84878618D01*
X165167629Y-84868422D01*
X165185103Y-84859862D01*
X165203727Y-84852488D01*
X165203727Y-84852487D01*
X165203732Y-84852486D01*
X165241449Y-84825082D01*
X165246305Y-84821892D01*
X165286420Y-84798170D01*
X165300589Y-84783999D01*
X165315379Y-84771368D01*
X165331587Y-84759594D01*
X165361299Y-84723676D01*
X165365212Y-84719376D01*
X165572772Y-84511816D01*
X165634093Y-84478333D01*
X165660441Y-84475499D01*
X166250008Y-84475499D01*
X166250016Y-84475498D01*
X166250019Y-84475498D01*
X166306302Y-84469748D01*
X166352797Y-84464999D01*
X166519334Y-84409814D01*
X166668656Y-84317712D01*
X166792712Y-84193656D01*
X166884814Y-84044334D01*
X166939999Y-83877797D01*
X166950500Y-83775009D01*
X166950499Y-82724992D01*
X166948967Y-82709999D01*
X166939999Y-82622203D01*
X166939998Y-82622200D01*
X166937910Y-82615899D01*
X166884814Y-82455666D01*
X166792712Y-82306344D01*
X166668656Y-82182288D01*
X166519334Y-82090186D01*
X166352797Y-82035001D01*
X166352795Y-82035000D01*
X166250010Y-82024500D01*
X165649998Y-82024500D01*
X165649980Y-82024501D01*
X165547203Y-82035000D01*
X165547200Y-82035001D01*
X165380668Y-82090185D01*
X165380663Y-82090187D01*
X165231342Y-82182289D01*
X165107285Y-82306346D01*
X165105537Y-82309182D01*
X165103829Y-82310717D01*
X165102807Y-82312011D01*
X165102585Y-82311836D01*
X165053589Y-82355905D01*
X164984626Y-82367126D01*
X164920544Y-82339282D01*
X164894463Y-82309182D01*
X164892714Y-82306346D01*
X164768657Y-82182289D01*
X164768656Y-82182288D01*
X164619334Y-82090186D01*
X164452797Y-82035001D01*
X164452795Y-82035000D01*
X164350016Y-82024500D01*
X163760453Y-82024500D01*
X163693414Y-82004815D01*
X163672772Y-81988181D01*
X163500803Y-81816212D01*
X163490980Y-81803950D01*
X163490759Y-81804134D01*
X163485786Y-81798123D01*
X163467159Y-81780631D01*
X163435364Y-81750773D01*
X163424919Y-81740328D01*
X163414475Y-81729883D01*
X163408986Y-81725625D01*
X163404561Y-81721847D01*
X163370582Y-81689938D01*
X163370580Y-81689936D01*
X163370577Y-81689935D01*
X163353029Y-81680288D01*
X163336763Y-81669604D01*
X163320933Y-81657325D01*
X163278168Y-81638818D01*
X163272922Y-81636248D01*
X163232093Y-81613803D01*
X163232092Y-81613802D01*
X163212693Y-81608822D01*
X163194281Y-81602518D01*
X163175898Y-81594562D01*
X163175892Y-81594560D01*
X163129874Y-81587272D01*
X163124152Y-81586087D01*
X163079021Y-81574500D01*
X163079019Y-81574500D01*
X163058984Y-81574500D01*
X163039586Y-81572973D01*
X163032162Y-81571797D01*
X163019805Y-81569840D01*
X163019804Y-81569840D01*
X162973416Y-81574225D01*
X162967578Y-81574500D01*
X160882737Y-81574500D01*
X160867120Y-81572776D01*
X160867093Y-81573062D01*
X160859331Y-81572327D01*
X160790203Y-81574500D01*
X160760650Y-81574500D01*
X160759929Y-81574590D01*
X160753757Y-81575369D01*
X160747945Y-81575826D01*
X160701373Y-81577290D01*
X160701372Y-81577290D01*
X160682129Y-81582881D01*
X160663079Y-81586825D01*
X160643211Y-81589334D01*
X160643209Y-81589335D01*
X160599884Y-81606488D01*
X160594357Y-81608380D01*
X160549610Y-81621381D01*
X160549609Y-81621382D01*
X160532367Y-81631579D01*
X160514899Y-81640137D01*
X160496269Y-81647513D01*
X160496267Y-81647514D01*
X160458576Y-81674898D01*
X160453694Y-81678105D01*
X160413579Y-81701830D01*
X160399408Y-81716000D01*
X160384623Y-81728628D01*
X160368412Y-81740407D01*
X160338709Y-81776310D01*
X160334777Y-81780631D01*
X160127226Y-81988181D01*
X160065903Y-82021666D01*
X160039545Y-82024500D01*
X159449998Y-82024500D01*
X159449980Y-82024501D01*
X159347203Y-82035000D01*
X159347200Y-82035001D01*
X159180668Y-82090185D01*
X159180663Y-82090187D01*
X159031333Y-82182295D01*
X159028841Y-82184266D01*
X159026813Y-82185083D01*
X159025198Y-82186080D01*
X159025027Y-82185803D01*
X158964042Y-82210398D01*
X158895402Y-82197349D01*
X158864262Y-82174671D01*
X158688992Y-81999402D01*
X158655507Y-81938079D01*
X158654869Y-81888488D01*
X158665378Y-81833394D01*
X158666218Y-81829640D01*
X158680500Y-81774019D01*
X158680500Y-81765844D01*
X158682697Y-81742606D01*
X158684227Y-81734588D01*
X158680621Y-81677275D01*
X158680500Y-81673403D01*
X158680500Y-77637738D01*
X158682224Y-77622124D01*
X158681938Y-77622097D01*
X158682672Y-77614334D01*
X158680500Y-77545203D01*
X158680500Y-77515651D01*
X158680500Y-77515650D01*
X158679629Y-77508759D01*
X158679172Y-77502945D01*
X158679079Y-77500000D01*
X158677709Y-77456373D01*
X158672122Y-77437144D01*
X158668174Y-77418084D01*
X158665663Y-77398204D01*
X158648512Y-77354887D01*
X158646619Y-77349358D01*
X158633618Y-77304609D01*
X158633616Y-77304606D01*
X158623423Y-77287371D01*
X158614861Y-77269894D01*
X158607487Y-77251270D01*
X158607486Y-77251268D01*
X158580079Y-77213545D01*
X158576888Y-77208686D01*
X158553172Y-77168583D01*
X158553165Y-77168574D01*
X158539006Y-77154415D01*
X158526368Y-77139619D01*
X158514594Y-77123413D01*
X158478688Y-77093709D01*
X158474376Y-77089786D01*
X152800803Y-71416212D01*
X152790980Y-71403950D01*
X152790759Y-71404134D01*
X152785786Y-71398123D01*
X152767159Y-71380631D01*
X152735364Y-71350773D01*
X152724919Y-71340328D01*
X152714475Y-71329883D01*
X152708986Y-71325625D01*
X152704561Y-71321847D01*
X152670582Y-71289938D01*
X152670580Y-71289936D01*
X152670577Y-71289935D01*
X152653029Y-71280288D01*
X152636763Y-71269604D01*
X152620933Y-71257325D01*
X152578168Y-71238818D01*
X152572922Y-71236248D01*
X152532093Y-71213803D01*
X152532092Y-71213802D01*
X152512693Y-71208822D01*
X152494281Y-71202518D01*
X152475898Y-71194562D01*
X152475892Y-71194560D01*
X152429874Y-71187272D01*
X152424152Y-71186087D01*
X152379021Y-71174500D01*
X152379019Y-71174500D01*
X152358984Y-71174500D01*
X152339586Y-71172973D01*
X152331333Y-71171666D01*
X152319805Y-71169840D01*
X152319804Y-71169840D01*
X152273416Y-71174225D01*
X152267578Y-71174500D01*
X145208309Y-71174500D01*
X145141270Y-71154815D01*
X145120628Y-71138181D01*
X145114370Y-71131923D01*
X145114362Y-71131917D01*
X144972896Y-71048255D01*
X144972893Y-71048254D01*
X144815073Y-71002402D01*
X144815067Y-71002401D01*
X144778196Y-70999500D01*
X144778194Y-70999500D01*
X143471806Y-70999500D01*
X143471804Y-70999500D01*
X143434932Y-71002401D01*
X143434926Y-71002402D01*
X143277106Y-71048254D01*
X143277103Y-71048255D01*
X143135637Y-71131917D01*
X143135629Y-71131923D01*
X143129372Y-71138181D01*
X143068049Y-71171666D01*
X143041691Y-71174500D01*
X136808984Y-71174500D01*
X136789586Y-71172973D01*
X136781333Y-71171666D01*
X136769805Y-71169840D01*
X136769804Y-71169840D01*
X136723416Y-71174225D01*
X136717578Y-71174500D01*
X131662738Y-71174500D01*
X131647121Y-71172776D01*
X131647094Y-71173062D01*
X131639332Y-71172327D01*
X131570204Y-71174500D01*
X131540650Y-71174500D01*
X131539929Y-71174590D01*
X131533757Y-71175369D01*
X131527945Y-71175826D01*
X131481373Y-71177290D01*
X131481372Y-71177290D01*
X131462129Y-71182881D01*
X131443079Y-71186825D01*
X131423211Y-71189334D01*
X131379884Y-71206488D01*
X131374358Y-71208379D01*
X131329614Y-71221379D01*
X131329610Y-71221381D01*
X131312366Y-71231579D01*
X131294905Y-71240133D01*
X131276274Y-71247510D01*
X131276262Y-71247517D01*
X131238570Y-71274902D01*
X131233687Y-71278109D01*
X131193580Y-71301829D01*
X131179414Y-71315995D01*
X131164624Y-71328627D01*
X131148414Y-71340404D01*
X131148411Y-71340407D01*
X131118710Y-71376309D01*
X131114777Y-71380631D01*
X126252226Y-76243181D01*
X126190903Y-76276666D01*
X126164545Y-76279500D01*
X124852129Y-76279500D01*
X124852123Y-76279501D01*
X124792516Y-76285908D01*
X124657671Y-76336202D01*
X124657664Y-76336206D01*
X124542455Y-76422452D01*
X124542452Y-76422455D01*
X124456206Y-76537664D01*
X124456202Y-76537671D01*
X124405908Y-76672517D01*
X124399501Y-76732116D01*
X124399500Y-76732135D01*
X124399500Y-78527870D01*
X124399501Y-78527876D01*
X124405908Y-78587483D01*
X124456202Y-78722328D01*
X124456206Y-78722335D01*
X124542452Y-78837544D01*
X124542455Y-78837547D01*
X124657664Y-78923793D01*
X124657671Y-78923797D01*
X124789081Y-78972810D01*
X124845015Y-79014681D01*
X124869432Y-79080145D01*
X124854580Y-79148418D01*
X124833430Y-79176673D01*
X124711503Y-79298600D01*
X124575965Y-79492169D01*
X124575964Y-79492171D01*
X124476098Y-79706335D01*
X124476094Y-79706344D01*
X124414938Y-79934586D01*
X124414936Y-79934596D01*
X124394341Y-80169999D01*
X124394341Y-80170000D01*
X124414936Y-80405403D01*
X124414938Y-80405413D01*
X124476094Y-80633655D01*
X124476096Y-80633659D01*
X124476097Y-80633663D01*
X124538310Y-80767079D01*
X124575965Y-80847830D01*
X124575967Y-80847834D01*
X124711501Y-81041395D01*
X124711506Y-81041402D01*
X124878597Y-81208493D01*
X124878603Y-81208498D01*
X125064158Y-81338425D01*
X125107783Y-81393002D01*
X125114977Y-81462500D01*
X125083454Y-81524855D01*
X125064158Y-81541575D01*
X124878597Y-81671505D01*
X124711505Y-81838597D01*
X124575965Y-82032169D01*
X124575964Y-82032171D01*
X124476098Y-82246335D01*
X124476094Y-82246344D01*
X124414938Y-82474586D01*
X124414936Y-82474596D01*
X124394341Y-82709999D01*
X124394341Y-82710000D01*
X124414936Y-82945403D01*
X124414938Y-82945413D01*
X124476094Y-83173655D01*
X124476096Y-83173659D01*
X124476097Y-83173663D01*
X124521914Y-83271917D01*
X124575965Y-83387830D01*
X124575967Y-83387834D01*
X124630383Y-83465547D01*
X124709362Y-83578341D01*
X124711501Y-83581395D01*
X124711506Y-83581402D01*
X124878597Y-83748493D01*
X124878603Y-83748498D01*
X125064158Y-83878425D01*
X125107783Y-83933002D01*
X125114977Y-84002500D01*
X125083454Y-84064855D01*
X125064158Y-84081575D01*
X124878597Y-84211505D01*
X124711505Y-84378597D01*
X124575965Y-84572169D01*
X124575964Y-84572171D01*
X124476098Y-84786335D01*
X124476094Y-84786344D01*
X124414938Y-85014586D01*
X124414936Y-85014596D01*
X124394341Y-85249999D01*
X124394341Y-85250000D01*
X124414936Y-85485403D01*
X124414938Y-85485412D01*
X124476094Y-85713655D01*
X124476096Y-85713659D01*
X124476097Y-85713663D01*
X124544539Y-85860437D01*
X124575965Y-85927830D01*
X124575967Y-85927834D01*
X124711501Y-86121395D01*
X124711506Y-86121402D01*
X124878597Y-86288493D01*
X124878603Y-86288498D01*
X125064158Y-86418425D01*
X125107783Y-86473002D01*
X125114977Y-86542500D01*
X125083454Y-86604855D01*
X125064158Y-86621575D01*
X124878597Y-86751505D01*
X124711505Y-86918597D01*
X124575965Y-87112169D01*
X124575964Y-87112171D01*
X124476098Y-87326335D01*
X124476094Y-87326344D01*
X124414938Y-87554586D01*
X124414936Y-87554596D01*
X124394341Y-87789999D01*
X124394341Y-87790000D01*
X124414936Y-88025403D01*
X124414938Y-88025413D01*
X124476094Y-88253655D01*
X124476096Y-88253659D01*
X124476097Y-88253663D01*
X124551680Y-88415750D01*
X124575965Y-88467830D01*
X124575967Y-88467834D01*
X124711501Y-88661395D01*
X124711506Y-88661402D01*
X124878597Y-88828493D01*
X124878603Y-88828498D01*
X125064158Y-88958425D01*
X125107783Y-89013002D01*
X125114977Y-89082500D01*
X125083454Y-89144855D01*
X125064158Y-89161575D01*
X124878597Y-89291505D01*
X124711505Y-89458597D01*
X124575965Y-89652169D01*
X124575964Y-89652171D01*
X124476098Y-89866335D01*
X124476094Y-89866344D01*
X124414938Y-90094586D01*
X124414936Y-90094596D01*
X124394341Y-90329999D01*
X124394341Y-90330000D01*
X120600000Y-90330000D01*
X120600000Y-74852388D01*
X120619685Y-74785349D01*
X120637562Y-74763481D01*
X120671704Y-74730288D01*
X127763904Y-67835092D01*
X127825693Y-67802475D01*
X127850342Y-67800000D01*
X162548638Y-67800000D01*
X162615677Y-67819685D01*
G37*
%TD.AperFunction*%
%TD*%
M02*
