M48
; DRILL file {KiCad 7.0.8} date Fri Dec  8 10:16:52 2023
; FORMAT={-:-/ absolute / inch / decimal}
; #@! TF.CreationDate,2023-12-08T10:16:52-06:00
; #@! TF.GenerationSoftware,Kicad,Pcbnew,7.0.8
; #@! TF.FileFunction,MixedPlating,1,2
FMAT,2
INCH
; #@! TA.AperFunction,Plated,PTH,ViaDrill
T1C0.0157
; #@! TA.AperFunction,Plated,PTH,ComponentDrill
T2C0.0315
; #@! TA.AperFunction,Plated,PTH,ComponentDrill
T3C0.0394
%
G90
G05
T1
X4.8268Y-3.1024
X5.2283Y-2.9764
X5.2441Y-2.7323
X5.4173Y-3.2126
X5.4724Y-3.6535
X5.6749Y-3.0797
X5.9485Y-2.9983
X5.9764Y-3.0866
X6.0551Y-2.9685
X6.1811Y-3.5354
X6.2047Y-2.811
X6.315Y-3.1102
T2
X5.6004Y-3.1463
X5.6004Y-3.2163
X5.6004Y-3.2864
X5.6004Y-3.3565
X5.6004Y-3.4266
X5.6004Y-3.4967
X5.6004Y-3.5667
X5.6004Y-3.6368
X6.0965Y-3.1463
X6.0965Y-3.2163
X6.0965Y-3.2864
X6.0965Y-3.3565
X6.0965Y-3.4266
X6.0965Y-3.4967
X6.0965Y-3.5667
X6.0965Y-3.6368
T3
X4.9508Y-3.0563
X4.9508Y-3.1563
X4.9508Y-3.2563
X4.9508Y-3.3563
X4.9508Y-3.4563
X4.9508Y-3.5563
X4.9508Y-3.6563
T0
M30
