G04 #@! TF.GenerationSoftware,KiCad,Pcbnew,(5.99.0-9526-g5c17ff0595)*
G04 #@! TF.CreationDate,2021-07-11T19:27:32-05:00*
G04 #@! TF.ProjectId,SDtoSAOadapter,5344746f-5341-44f6-9164-61707465722e,rev?*
G04 #@! TF.SameCoordinates,Original*
G04 #@! TF.FileFunction,Copper,L1,Top*
G04 #@! TF.FilePolarity,Positive*
%FSLAX46Y46*%
G04 Gerber Fmt 4.6, Leading zero omitted, Abs format (unit mm)*
G04 Created by KiCad (PCBNEW (5.99.0-9526-g5c17ff0595)) date 2021-07-11 19:27:32*
%MOMM*%
%LPD*%
G01*
G04 APERTURE LIST*
G04 #@! TA.AperFunction,ComponentPad*
%ADD10O,1.700000X1.700000*%
G04 #@! TD*
G04 #@! TA.AperFunction,ComponentPad*
%ADD11R,1.700000X1.700000*%
G04 #@! TD*
G04 #@! TA.AperFunction,SMDPad,CuDef*
%ADD12R,2.900000X0.800000*%
G04 #@! TD*
G04 #@! TA.AperFunction,SMDPad,CuDef*
%ADD13R,3.200000X0.800000*%
G04 #@! TD*
G04 #@! TA.AperFunction,Conductor*
%ADD14C,0.250000*%
G04 #@! TD*
G04 #@! TA.AperFunction,Conductor*
%ADD15C,0.400000*%
G04 #@! TD*
G04 APERTURE END LIST*
D10*
X123784340Y-57165000D03*
X123784340Y-54625000D03*
X126324340Y-57165000D03*
X126324340Y-54625000D03*
X128864340Y-57165000D03*
D11*
X128864340Y-54625000D03*
D12*
X103430000Y-59800000D03*
X103430000Y-58700000D03*
X103430000Y-57600000D03*
D13*
X103280000Y-56500000D03*
D12*
X103430000Y-55400000D03*
D13*
X103280000Y-54300000D03*
D12*
X103430000Y-53200000D03*
X103430000Y-52100000D03*
D14*
X122949989Y-55800011D02*
X122600011Y-55800011D01*
X122600011Y-55800011D02*
X108949989Y-55800011D01*
X127689329Y-55800011D02*
X122600011Y-55800011D01*
X124735020Y-52950000D02*
X129474360Y-52950000D01*
X103280000Y-54300000D02*
X109450000Y-54300000D01*
X109450000Y-54300000D02*
X110800000Y-52950000D01*
X110800000Y-52950000D02*
X129474360Y-52950000D01*
X129474360Y-52950000D02*
X130489340Y-53964980D01*
X130489340Y-53964980D02*
X130489340Y-55540000D01*
X130489340Y-55540000D02*
X128864340Y-57165000D01*
X128864340Y-54625000D02*
X127689329Y-55800011D01*
X108949989Y-55800011D02*
X108250000Y-56500000D01*
X108250000Y-56500000D02*
X105480000Y-56500000D01*
D15*
X103280000Y-56500000D02*
X105480000Y-56500000D01*
M02*
