G04 #@! TF.GenerationSoftware,KiCad,Pcbnew,(5.99.0-9526-g5c17ff0595)*
G04 #@! TF.CreationDate,2021-07-11T19:27:33-05:00*
G04 #@! TF.ProjectId,SDtoSAOadapter,5344746f-5341-44f6-9164-61707465722e,rev?*
G04 #@! TF.SameCoordinates,Original*
G04 #@! TF.FileFunction,Legend,Top*
G04 #@! TF.FilePolarity,Positive*
%FSLAX46Y46*%
G04 Gerber Fmt 4.6, Leading zero omitted, Abs format (unit mm)*
G04 Created by KiCad (PCBNEW (5.99.0-9526-g5c17ff0595)) date 2021-07-11 19:27:33*
%MOMM*%
%LPD*%
G01*
G04 APERTURE LIST*
%ADD10C,0.150000*%
%ADD11C,0.120000*%
G04 APERTURE END LIST*
D10*
X106470477Y-58338095D02*
X106470477Y-59138095D01*
X106280001Y-59138095D01*
X106165715Y-59100000D01*
X106089524Y-59023809D01*
X106051429Y-58947619D01*
X106013334Y-58795238D01*
X106013334Y-58680952D01*
X106051429Y-58528571D01*
X106089524Y-58452380D01*
X106165715Y-58376190D01*
X106280001Y-58338095D01*
X106470477Y-58338095D01*
X105746667Y-59138095D02*
X105251429Y-59138095D01*
X105518096Y-58833333D01*
X105403810Y-58833333D01*
X105327620Y-58795238D01*
X105289524Y-58757142D01*
X105251429Y-58680952D01*
X105251429Y-58490476D01*
X105289524Y-58414285D01*
X105327620Y-58376190D01*
X105403810Y-58338095D01*
X105632381Y-58338095D01*
X105708572Y-58376190D01*
X105746667Y-58414285D01*
X106889523Y-57314285D02*
X106927619Y-57276190D01*
X107041904Y-57238095D01*
X107118095Y-57238095D01*
X107232380Y-57276190D01*
X107308571Y-57352380D01*
X107346666Y-57428571D01*
X107384761Y-57580952D01*
X107384761Y-57695238D01*
X107346666Y-57847619D01*
X107308571Y-57923809D01*
X107232380Y-58000000D01*
X107118095Y-58038095D01*
X107041904Y-58038095D01*
X106927619Y-58000000D01*
X106889523Y-57961904D01*
X106546666Y-57238095D02*
X106546666Y-58038095D01*
X106280000Y-57466666D01*
X106013333Y-58038095D01*
X106013333Y-57238095D01*
X105632380Y-57238095D02*
X105632380Y-58038095D01*
X105441904Y-58038095D01*
X105327619Y-58000000D01*
X105251428Y-57923809D01*
X105213333Y-57847619D01*
X105175238Y-57695238D01*
X105175238Y-57580952D01*
X105213333Y-57428571D01*
X105251428Y-57352380D01*
X105327619Y-57276190D01*
X105441904Y-57238095D01*
X105632380Y-57238095D01*
X107346666Y-56938095D02*
X107080000Y-56138095D01*
X106813333Y-56938095D01*
X106089523Y-56214285D02*
X106127619Y-56176190D01*
X106241904Y-56138095D01*
X106318095Y-56138095D01*
X106432380Y-56176190D01*
X106508571Y-56252380D01*
X106546666Y-56328571D01*
X106584761Y-56480952D01*
X106584761Y-56595238D01*
X106546666Y-56747619D01*
X106508571Y-56823809D01*
X106432380Y-56900000D01*
X106318095Y-56938095D01*
X106241904Y-56938095D01*
X106127619Y-56900000D01*
X106089523Y-56861904D01*
X105289523Y-56214285D02*
X105327619Y-56176190D01*
X105441904Y-56138095D01*
X105518095Y-56138095D01*
X105632380Y-56176190D01*
X105708571Y-56252380D01*
X105746666Y-56328571D01*
X105784761Y-56480952D01*
X105784761Y-56595238D01*
X105746666Y-56747619D01*
X105708571Y-56823809D01*
X105632380Y-56900000D01*
X105518095Y-56938095D01*
X105441904Y-56938095D01*
X105327619Y-56900000D01*
X105289523Y-56861904D01*
X106756191Y-55114285D02*
X106794286Y-55076190D01*
X106908572Y-55038095D01*
X106984762Y-55038095D01*
X107099048Y-55076190D01*
X107175239Y-55152380D01*
X107213334Y-55228571D01*
X107251429Y-55380952D01*
X107251429Y-55495238D01*
X107213334Y-55647619D01*
X107175239Y-55723809D01*
X107099048Y-55800000D01*
X106984762Y-55838095D01*
X106908572Y-55838095D01*
X106794286Y-55800000D01*
X106756191Y-55761904D01*
X106032381Y-55038095D02*
X106413334Y-55038095D01*
X106413334Y-55838095D01*
X105765715Y-55038095D02*
X105765715Y-55838095D01*
X105308572Y-55038095D02*
X105651429Y-55495238D01*
X105308572Y-55838095D02*
X105765715Y-55380952D01*
X105270476Y-54700000D02*
X105346666Y-54738095D01*
X105460952Y-54738095D01*
X105575238Y-54700000D01*
X105651428Y-54623809D01*
X105689523Y-54547619D01*
X105727619Y-54395238D01*
X105727619Y-54280952D01*
X105689523Y-54128571D01*
X105651428Y-54052380D01*
X105575238Y-53976190D01*
X105460952Y-53938095D01*
X105384761Y-53938095D01*
X105270476Y-53976190D01*
X105232380Y-54014285D01*
X105232380Y-54280952D01*
X105384761Y-54280952D01*
X106470477Y-52838095D02*
X106470477Y-53638095D01*
X106280001Y-53638095D01*
X106165715Y-53600000D01*
X106089524Y-53523809D01*
X106051429Y-53447619D01*
X106013334Y-53295238D01*
X106013334Y-53180952D01*
X106051429Y-53028571D01*
X106089524Y-52952380D01*
X106165715Y-52876190D01*
X106280001Y-52838095D01*
X106470477Y-52838095D01*
X105518096Y-53638095D02*
X105441905Y-53638095D01*
X105365715Y-53600000D01*
X105327620Y-53561904D01*
X105289524Y-53485714D01*
X105251429Y-53333333D01*
X105251429Y-53142857D01*
X105289524Y-52990476D01*
X105327620Y-52914285D01*
X105365715Y-52876190D01*
X105441905Y-52838095D01*
X105518096Y-52838095D01*
X105594286Y-52876190D01*
X105632381Y-52914285D01*
X105670477Y-52990476D01*
X105708572Y-53142857D01*
X105708572Y-53333333D01*
X105670477Y-53485714D01*
X105632381Y-53561904D01*
X105594286Y-53600000D01*
X105518096Y-53638095D01*
X106470477Y-51738095D02*
X106470477Y-52538095D01*
X106280001Y-52538095D01*
X106165715Y-52500000D01*
X106089524Y-52423809D01*
X106051429Y-52347619D01*
X106013334Y-52195238D01*
X106013334Y-52080952D01*
X106051429Y-51928571D01*
X106089524Y-51852380D01*
X106165715Y-51776190D01*
X106280001Y-51738095D01*
X106470477Y-51738095D01*
X105251429Y-51738095D02*
X105708572Y-51738095D01*
X105480001Y-51738095D02*
X105480001Y-52538095D01*
X105556191Y-52423809D01*
X105632381Y-52347619D01*
X105708572Y-52309523D01*
X106470477Y-59438095D02*
X106470477Y-60238095D01*
X106280001Y-60238095D01*
X106165715Y-60200000D01*
X106089524Y-60123809D01*
X106051429Y-60047619D01*
X106013334Y-59895238D01*
X106013334Y-59780952D01*
X106051429Y-59628571D01*
X106089524Y-59552380D01*
X106165715Y-59476190D01*
X106280001Y-59438095D01*
X106470477Y-59438095D01*
X105708572Y-60161904D02*
X105670477Y-60200000D01*
X105594286Y-60238095D01*
X105403810Y-60238095D01*
X105327620Y-60200000D01*
X105289524Y-60161904D01*
X105251429Y-60085714D01*
X105251429Y-60009523D01*
X105289524Y-59895238D01*
X105746667Y-59438095D01*
X105251429Y-59438095D01*
G36*
X111236895Y-54799672D02*
G01*
X120673302Y-54799672D01*
X119863105Y-57500328D01*
X110426698Y-57500328D01*
X110717211Y-56531953D01*
X111749525Y-56531953D01*
X111777147Y-56596723D01*
X111860015Y-56653872D01*
X111961932Y-56686258D01*
X112022892Y-56668160D01*
X112057182Y-56632918D01*
X112086710Y-56577673D01*
X112185770Y-56371933D01*
X112713455Y-56371933D01*
X112812515Y-56577673D01*
X112842042Y-56634823D01*
X112876332Y-56671018D01*
X112937292Y-56688163D01*
X113039210Y-56655778D01*
X113122077Y-56597199D01*
X113149700Y-56531953D01*
X113117315Y-56434798D01*
X112987806Y-56167145D01*
X113235425Y-56167145D01*
X113251088Y-56294357D01*
X113298078Y-56410562D01*
X113376395Y-56515760D01*
X113473762Y-56598839D01*
X113577902Y-56648687D01*
X113688815Y-56665303D01*
X113815974Y-56642443D01*
X113911700Y-56573863D01*
X113956229Y-56643871D01*
X114059337Y-56667208D01*
X114165779Y-56654349D01*
X114220310Y-56615773D01*
X114238407Y-56567195D01*
X114241265Y-56501473D01*
X114241265Y-56165240D01*
X114365090Y-56165240D01*
X114380753Y-56292558D01*
X114427743Y-56409080D01*
X114506060Y-56514808D01*
X114602686Y-56598416D01*
X114704603Y-56648581D01*
X114811812Y-56665303D01*
X114953021Y-56640061D01*
X115047080Y-56564338D01*
X115088037Y-56639585D01*
X115227102Y-56665303D01*
X115311637Y-56652920D01*
X115357595Y-56615773D01*
X115373787Y-56565290D01*
X115376645Y-56499568D01*
X115376645Y-55832817D01*
X115376479Y-55829007D01*
X115529045Y-55829007D01*
X115529045Y-56941528D01*
X115531902Y-57006298D01*
X115549047Y-57053923D01*
X115598578Y-57092023D01*
X115692875Y-57103453D01*
X115786220Y-57092023D01*
X115834798Y-57052970D01*
X115851943Y-57004393D01*
X115854800Y-56939623D01*
X115854800Y-56554813D01*
X115946716Y-56620535D01*
X116081495Y-56642443D01*
X116183624Y-56626144D01*
X116281732Y-56577249D01*
X116375818Y-56495758D01*
X116452547Y-56392676D01*
X116498584Y-56279011D01*
X116513930Y-56154763D01*
X116498478Y-56030514D01*
X116452123Y-55916849D01*
X116407704Y-55857582D01*
X116590130Y-55857582D01*
X116617753Y-55968072D01*
X116687285Y-56000457D01*
X116765390Y-55994742D01*
X116765390Y-56276683D01*
X116776820Y-56405164D01*
X116811110Y-56506129D01*
X116868260Y-56579578D01*
X116947423Y-56629319D01*
X117047753Y-56659164D01*
X117169250Y-56669113D01*
X117233068Y-56666255D01*
X117283550Y-56650062D01*
X117323555Y-56600056D01*
X117336890Y-56503378D01*
X117293075Y-56375743D01*
X117242593Y-56357645D01*
X117174013Y-56354788D01*
X117113053Y-56331928D01*
X117096860Y-56257633D01*
X117096860Y-56171908D01*
X117464525Y-56171908D01*
X117477860Y-56294886D01*
X117517865Y-56409821D01*
X117584540Y-56516713D01*
X117657644Y-56588864D01*
X117755038Y-56645300D01*
X117872433Y-56681733D01*
X118005545Y-56693878D01*
X118183067Y-56683281D01*
X118309869Y-56651491D01*
X118385950Y-56598508D01*
X118411310Y-56524333D01*
X118386545Y-56436703D01*
X118281770Y-56350978D01*
X118205570Y-56371933D01*
X118184615Y-56379553D01*
X118109844Y-56396698D01*
X118011260Y-56402412D01*
X117885530Y-56366218D01*
X117822665Y-56276683D01*
X118274150Y-56276683D01*
X118402738Y-56220485D01*
X118446314Y-56149047D01*
X118460840Y-56047130D01*
X118444648Y-55934497D01*
X118396070Y-55830912D01*
X118584665Y-55830912D01*
X118584665Y-56554813D01*
X118618955Y-56636728D01*
X118750400Y-56669113D01*
X118847555Y-56656730D01*
X118898990Y-56619583D01*
X118917088Y-56569100D01*
X118919945Y-56503378D01*
X118919945Y-56103327D01*
X118964713Y-56015697D01*
X119060915Y-55979502D01*
X119143783Y-55994742D01*
X119209505Y-56009982D01*
X119314280Y-55937592D01*
X119350475Y-55804242D01*
X119326663Y-55715660D01*
X119266655Y-55676607D01*
X119199980Y-55660415D01*
X119124733Y-55655652D01*
X119020910Y-55688037D01*
X118943758Y-55739472D01*
X118916135Y-55771857D01*
X118895180Y-55708992D01*
X118845174Y-55676131D01*
X118752305Y-55665177D01*
X118654198Y-55678036D01*
X118603715Y-55716612D01*
X118587523Y-55765190D01*
X118584665Y-55830912D01*
X118396070Y-55830912D01*
X118325347Y-55749236D01*
X118237003Y-55690895D01*
X118131037Y-55655891D01*
X118007450Y-55644222D01*
X117861083Y-55660203D01*
X117731860Y-55708146D01*
X117619783Y-55788050D01*
X117533528Y-55894624D01*
X117481776Y-56022577D01*
X117464525Y-56171908D01*
X117096860Y-56171908D01*
X117096860Y-55994742D01*
X117220685Y-56002362D01*
X117286408Y-55999505D01*
X117336890Y-55983312D01*
X117375466Y-55933306D01*
X117388325Y-55836627D01*
X117375943Y-55738996D01*
X117338795Y-55689942D01*
X117288313Y-55671845D01*
X117223543Y-55668987D01*
X117096860Y-55676607D01*
X117096860Y-55489917D01*
X117087335Y-55392762D01*
X117036376Y-55339899D01*
X116933030Y-55322277D01*
X116835399Y-55334184D01*
X116786345Y-55369902D01*
X116768248Y-55415622D01*
X116765390Y-55480392D01*
X116765390Y-55676607D01*
X116702525Y-55668987D01*
X116626325Y-55693752D01*
X116599655Y-55744235D01*
X116590130Y-55857582D01*
X116407704Y-55857582D01*
X116374865Y-55813767D01*
X116280356Y-55732276D01*
X116182248Y-55683381D01*
X116080543Y-55667082D01*
X115946002Y-55691847D01*
X115852895Y-55766142D01*
X115811938Y-55690895D01*
X115675730Y-55665177D01*
X115593339Y-55678036D01*
X115548095Y-55716612D01*
X115531902Y-55764237D01*
X115529045Y-55829007D01*
X115376479Y-55829007D01*
X115373787Y-55767095D01*
X115356642Y-55716612D01*
X115306160Y-55676607D01*
X115195670Y-55665177D01*
X115088514Y-55691847D01*
X115045175Y-55771857D01*
X115010885Y-55732805D01*
X114936590Y-55689942D01*
X114818480Y-55667082D01*
X114708519Y-55683698D01*
X114604697Y-55733546D01*
X114507012Y-55816625D01*
X114428167Y-55921823D01*
X114380859Y-56038028D01*
X114365090Y-56165240D01*
X114241265Y-56165240D01*
X114241265Y-55364187D01*
X114238407Y-55298465D01*
X114221262Y-55247982D01*
X114170780Y-55207977D01*
X114074577Y-55196547D01*
X113978375Y-55207977D01*
X113927892Y-55247030D01*
X113910747Y-55296560D01*
X113907890Y-55362282D01*
X113907890Y-55762332D01*
X113814069Y-55690895D01*
X113688815Y-55667082D01*
X113578854Y-55683804D01*
X113475032Y-55733969D01*
X113377347Y-55817577D01*
X113298502Y-55923305D01*
X113251194Y-56039827D01*
X113235425Y-56167145D01*
X112987806Y-56167145D01*
X112602965Y-55371807D01*
X112540100Y-55297512D01*
X112450565Y-55272747D01*
X112360077Y-55299417D01*
X112296260Y-55369902D01*
X111781910Y-56434798D01*
X111749525Y-56531953D01*
X110717211Y-56531953D01*
X111236895Y-54799672D01*
G37*
G36*
X114987072Y-56051892D02*
G01*
X115031840Y-56167145D01*
X114985167Y-56280493D01*
X114868010Y-56331928D01*
X114747995Y-56281445D01*
X114698465Y-56168098D01*
X114745137Y-56051892D01*
X114867057Y-55998552D01*
X114987072Y-56051892D01*
G37*
G36*
X113857407Y-56053797D02*
G01*
X113902175Y-56169050D01*
X113855502Y-56282398D01*
X113738345Y-56333833D01*
X113618330Y-56282398D01*
X113568800Y-56168098D01*
X113614520Y-56052845D01*
X113736440Y-56000457D01*
X113857407Y-56053797D01*
G37*
G36*
X116142455Y-56043320D02*
G01*
X116188175Y-56156668D01*
X116139598Y-56269063D01*
X116021488Y-56318593D01*
X115907188Y-56268110D01*
X115862420Y-56156668D01*
X115906235Y-56044272D01*
X116023393Y-55992837D01*
X116142455Y-56043320D01*
G37*
G36*
X112576295Y-56089992D02*
G01*
X112322930Y-56089992D01*
X112448660Y-55829007D01*
X112576295Y-56089992D01*
G37*
G36*
X118097938Y-55971882D02*
G01*
X118131275Y-56042367D01*
X118058885Y-56103327D01*
X117818855Y-56103327D01*
X117879815Y-55995695D01*
X118002688Y-55945212D01*
X118097938Y-55971882D01*
G37*
G36*
X110355832Y-52232082D02*
G01*
X121414918Y-52232082D01*
X120744168Y-54467918D01*
X109685082Y-54467918D01*
X109902728Y-53742430D01*
X110868462Y-53742430D01*
X110917992Y-53851968D01*
X110935137Y-53872922D01*
X110990382Y-53931025D01*
X111076107Y-53991033D01*
X111205647Y-54045325D01*
X111288039Y-54061756D01*
X111375192Y-54067233D01*
X111489704Y-54056014D01*
X111599559Y-54022359D01*
X111704757Y-53966268D01*
X111777147Y-53904117D01*
X111834297Y-53820535D01*
X111871445Y-53718856D01*
X111883827Y-53602412D01*
X111871683Y-53488351D01*
X111835250Y-53393815D01*
X111780719Y-53321663D01*
X111714282Y-53274752D01*
X111638559Y-53243082D01*
X111556167Y-53216650D01*
X111473776Y-53195933D01*
X111398052Y-53181407D01*
X111277085Y-53137592D01*
X111228507Y-53052820D01*
X111269465Y-52970905D01*
X111372335Y-52941377D01*
X111474252Y-52966142D01*
X111503780Y-52990907D01*
X111525688Y-53009957D01*
X111624747Y-53048057D01*
X111692375Y-53024245D01*
X111758097Y-52952807D01*
X111803817Y-52848032D01*
X111784534Y-52817552D01*
X112007652Y-52817552D01*
X112007652Y-53876733D01*
X112030512Y-53998653D01*
X112080995Y-54034371D01*
X112175292Y-54046278D01*
X112523907Y-54046278D01*
X112664223Y-54033300D01*
X112793703Y-53994366D01*
X112912349Y-53929477D01*
X113020160Y-53838633D01*
X113109755Y-53729631D01*
X113173751Y-53610271D01*
X113212148Y-53480552D01*
X113224947Y-53340475D01*
X113215203Y-53236652D01*
X113783112Y-53236652D01*
X113810735Y-53347142D01*
X113880267Y-53379528D01*
X113958372Y-53373813D01*
X113958372Y-53655753D01*
X113969802Y-53784234D01*
X114004092Y-53885199D01*
X114061242Y-53958648D01*
X114140406Y-54008389D01*
X114240736Y-54038234D01*
X114362232Y-54048183D01*
X114426050Y-54045325D01*
X114476532Y-54029133D01*
X114516537Y-53979126D01*
X114529872Y-53882448D01*
X114486057Y-53754813D01*
X114435575Y-53736715D01*
X114366995Y-53733858D01*
X114306035Y-53710998D01*
X114289842Y-53636703D01*
X114289842Y-53547168D01*
X114657507Y-53547168D01*
X114677748Y-53691709D01*
X114738470Y-53820535D01*
X114828719Y-53926739D01*
X114937542Y-54003415D01*
X115057557Y-54049849D01*
X115181382Y-54065328D01*
X115304969Y-54050802D01*
X115424270Y-54007225D01*
X115532617Y-53932930D01*
X115623343Y-53826250D01*
X115662449Y-53742430D01*
X116282473Y-53742430D01*
X116332003Y-53851968D01*
X116349148Y-53872922D01*
X116404393Y-53931025D01*
X116490118Y-53991033D01*
X116619658Y-54045325D01*
X116702049Y-54061756D01*
X116789203Y-54067233D01*
X116903714Y-54056014D01*
X117013569Y-54022359D01*
X117118768Y-53966268D01*
X117183114Y-53911023D01*
X117374038Y-53911023D01*
X117401660Y-53975793D01*
X117484528Y-54032943D01*
X117586445Y-54065328D01*
X117647405Y-54047230D01*
X117681695Y-54011988D01*
X117711223Y-53956743D01*
X117810283Y-53751003D01*
X118337968Y-53751003D01*
X118437028Y-53956743D01*
X118466555Y-54013893D01*
X118500845Y-54050088D01*
X118561805Y-54067233D01*
X118663723Y-54034848D01*
X118746590Y-53976269D01*
X118774213Y-53911023D01*
X118741828Y-53813868D01*
X118523368Y-53362383D01*
X118850413Y-53362383D01*
X118863093Y-53502162D01*
X118901133Y-53631940D01*
X118964534Y-53751717D01*
X119053295Y-53861493D01*
X119160154Y-53953171D01*
X119277847Y-54018655D01*
X119406375Y-54057946D01*
X119545738Y-54071043D01*
X119684803Y-54057767D01*
X119812438Y-54017941D01*
X119928643Y-53951563D01*
X120033418Y-53858635D01*
X120120095Y-53746835D01*
X120182008Y-53623844D01*
X120219155Y-53489660D01*
X120231538Y-53344285D01*
X120218560Y-53199445D01*
X120179626Y-53066869D01*
X120114737Y-52946557D01*
X120023893Y-52838507D01*
X119915427Y-52749330D01*
X119797674Y-52685631D01*
X119670634Y-52647412D01*
X119534308Y-52634672D01*
X119404768Y-52648007D01*
X119279038Y-52688012D01*
X119162356Y-52751354D01*
X119059963Y-52834697D01*
X118974238Y-52939234D01*
X118907563Y-53066155D01*
X118864700Y-53209268D01*
X118850413Y-53362383D01*
X118523368Y-53362383D01*
X118227478Y-52750877D01*
X118164613Y-52676582D01*
X118075078Y-52651817D01*
X117984590Y-52678487D01*
X117920773Y-52748972D01*
X117406423Y-53813868D01*
X117374038Y-53911023D01*
X117183114Y-53911023D01*
X117191158Y-53904117D01*
X117248308Y-53820535D01*
X117285455Y-53718856D01*
X117297838Y-53602412D01*
X117285693Y-53488351D01*
X117249260Y-53393815D01*
X117194729Y-53321663D01*
X117128293Y-53274752D01*
X117052569Y-53243082D01*
X116970178Y-53216650D01*
X116887786Y-53195933D01*
X116812063Y-53181407D01*
X116691095Y-53137592D01*
X116642518Y-53052820D01*
X116683475Y-52970905D01*
X116786345Y-52941377D01*
X116888263Y-52966142D01*
X116917790Y-52990907D01*
X116939698Y-53009957D01*
X117038758Y-53048057D01*
X117106385Y-53024245D01*
X117172108Y-52952807D01*
X117217828Y-52848032D01*
X117158773Y-52754687D01*
X117111148Y-52718492D01*
X116980655Y-52658485D01*
X116881357Y-52636339D01*
X116772058Y-52628957D01*
X116638602Y-52642822D01*
X116525254Y-52684414D01*
X116432015Y-52753735D01*
X116362694Y-52841682D01*
X116321102Y-52939155D01*
X116307238Y-53046152D01*
X116319382Y-53159262D01*
X116355815Y-53254750D01*
X116410346Y-53329759D01*
X116476783Y-53381433D01*
X116552030Y-53418818D01*
X116632993Y-53450965D01*
X116713955Y-53476444D01*
X116789203Y-53493828D01*
X116910170Y-53536690D01*
X116958748Y-53610033D01*
X116939063Y-53690466D01*
X116880008Y-53738726D01*
X116781583Y-53754813D01*
X116690143Y-53725285D01*
X116613943Y-53663373D01*
X116529170Y-53591935D01*
X116465353Y-53568123D01*
X116364388Y-53613843D01*
X116302951Y-53685994D01*
X116282473Y-53742430D01*
X115662449Y-53742430D01*
X115684779Y-53694567D01*
X115705258Y-53545263D01*
X115687689Y-53401858D01*
X115634984Y-53276446D01*
X115547142Y-53169025D01*
X115436441Y-53087004D01*
X115315156Y-53037792D01*
X115183287Y-53021387D01*
X115051207Y-53037897D01*
X114929287Y-53087427D01*
X114817527Y-53169977D01*
X114728627Y-53277927D01*
X114675287Y-53403658D01*
X114657507Y-53547168D01*
X114289842Y-53547168D01*
X114289842Y-53373813D01*
X114413667Y-53381433D01*
X114479390Y-53378575D01*
X114529872Y-53362383D01*
X114568449Y-53312376D01*
X114581307Y-53215697D01*
X114568925Y-53118066D01*
X114531777Y-53069012D01*
X114481295Y-53050915D01*
X114416525Y-53048057D01*
X114289842Y-53055677D01*
X114289842Y-52868987D01*
X114280317Y-52771832D01*
X114229359Y-52718969D01*
X114126012Y-52701347D01*
X114028381Y-52713254D01*
X113979327Y-52748972D01*
X113961230Y-52794692D01*
X113958372Y-52859462D01*
X113958372Y-53055677D01*
X113895507Y-53048057D01*
X113819307Y-53072822D01*
X113792637Y-53123305D01*
X113783112Y-53236652D01*
X113215203Y-53236652D01*
X113211851Y-53200934D01*
X113172560Y-53072822D01*
X113107076Y-52956141D01*
X113015397Y-52850890D01*
X112906455Y-52763796D01*
X112789179Y-52701586D01*
X112663568Y-52664260D01*
X112529622Y-52651817D01*
X112177197Y-52649912D01*
X112079090Y-52662771D01*
X112028607Y-52701347D01*
X112010510Y-52750877D01*
X112007652Y-52817552D01*
X111784534Y-52817552D01*
X111744762Y-52754687D01*
X111697137Y-52718492D01*
X111566645Y-52658485D01*
X111467347Y-52636339D01*
X111358047Y-52628957D01*
X111224592Y-52642822D01*
X111111244Y-52684414D01*
X111018005Y-52753735D01*
X110948684Y-52841682D01*
X110907092Y-52939155D01*
X110893227Y-53046152D01*
X110905372Y-53159262D01*
X110941805Y-53254750D01*
X110996336Y-53329759D01*
X111062772Y-53381433D01*
X111138020Y-53418818D01*
X111218982Y-53450965D01*
X111299945Y-53476444D01*
X111375192Y-53493828D01*
X111496160Y-53536690D01*
X111544738Y-53610033D01*
X111525053Y-53690466D01*
X111465997Y-53738726D01*
X111367572Y-53754813D01*
X111276132Y-53725285D01*
X111199932Y-53663373D01*
X111115160Y-53591935D01*
X111051342Y-53568123D01*
X110950377Y-53613843D01*
X110888941Y-53685994D01*
X110868462Y-53742430D01*
X109902728Y-53742430D01*
X110355832Y-52232082D01*
G37*
G36*
X119668848Y-52998051D02*
G01*
X119784815Y-53076632D01*
X119845669Y-53154102D01*
X119882182Y-53246812D01*
X119894353Y-53354763D01*
X119882288Y-53462501D01*
X119846093Y-53554576D01*
X119785768Y-53630988D01*
X119670515Y-53708140D01*
X119541928Y-53733858D01*
X119413102Y-53707426D01*
X119297135Y-53628130D01*
X119236281Y-53550554D01*
X119199768Y-53458797D01*
X119187598Y-53352858D01*
X119199663Y-53246918D01*
X119235858Y-53155161D01*
X119296183Y-53077585D01*
X119411435Y-52998289D01*
X119540023Y-52971857D01*
X119668848Y-52998051D01*
G37*
G36*
X112663211Y-53014958D02*
G01*
X112780130Y-53092825D01*
X112860854Y-53209268D01*
X112887762Y-53350953D01*
X112860140Y-53492161D01*
X112777272Y-53607175D01*
X112660115Y-53683613D01*
X112529622Y-53709093D01*
X112344837Y-53709093D01*
X112344837Y-52989002D01*
X112527717Y-52989002D01*
X112663211Y-53014958D01*
G37*
G36*
X115309017Y-53402388D02*
G01*
X115353309Y-53460014D01*
X115368072Y-53541453D01*
X115352356Y-53623368D01*
X115305207Y-53682423D01*
X115179477Y-53730048D01*
X115055652Y-53683375D01*
X115009932Y-53625273D01*
X114994692Y-53544310D01*
X115009456Y-53463109D01*
X115053747Y-53404293D01*
X115181382Y-53356668D01*
X115309017Y-53402388D01*
G37*
G36*
X118200808Y-53469063D02*
G01*
X117947443Y-53469063D01*
X118073173Y-53208077D01*
X118200808Y-53469063D01*
G37*
G36*
X112914787Y-61791853D02*
G01*
X112779022Y-61771714D01*
X112645884Y-61738365D01*
X112516657Y-61692126D01*
X112392583Y-61633444D01*
X112274859Y-61562883D01*
X112164618Y-61481123D01*
X112062922Y-61388951D01*
X111970750Y-61287255D01*
X111888990Y-61177014D01*
X111818429Y-61059290D01*
X111759747Y-60935216D01*
X111713508Y-60805989D01*
X111680159Y-60672851D01*
X111660020Y-60537086D01*
X111653285Y-60400000D01*
X111653402Y-60397619D01*
X113564503Y-60397619D01*
X113572176Y-60564571D01*
X113595195Y-60719352D01*
X113633559Y-60861963D01*
X113685054Y-60981620D01*
X113749050Y-61083419D01*
X113832989Y-61168846D01*
X113944312Y-61239391D01*
X114078555Y-61286718D01*
X114231253Y-61302494D01*
X114383355Y-61287016D01*
X114515812Y-61240581D01*
X114625052Y-61170334D01*
X114707503Y-61083419D01*
X114788763Y-60946050D01*
X114846806Y-60786358D01*
X114881632Y-60604341D01*
X114893241Y-60400000D01*
X114885303Y-60242573D01*
X114882913Y-60227359D01*
X114988491Y-60227359D01*
X115074216Y-60373806D01*
X115338534Y-60640506D01*
X115074216Y-60907206D01*
X114988491Y-61053653D01*
X115075406Y-61198909D01*
X115220662Y-61283444D01*
X115364728Y-61197719D01*
X115629047Y-60933400D01*
X115890984Y-61197719D01*
X116036241Y-61283444D01*
X116181497Y-61198909D01*
X116267222Y-61053653D01*
X116181497Y-60907206D01*
X115917178Y-60640506D01*
X116167337Y-60388094D01*
X116362472Y-60388094D01*
X116378248Y-60566985D01*
X116425575Y-60732184D01*
X116497310Y-60876250D01*
X116586309Y-60991741D01*
X116690191Y-61085205D01*
X116806575Y-61163191D01*
X116927423Y-61223317D01*
X117044700Y-61263203D01*
X117159595Y-61285527D01*
X117273300Y-61292969D01*
X117388493Y-61283444D01*
X117507853Y-61254869D01*
X117668587Y-61192956D01*
X117750741Y-61142950D01*
X117807748Y-61097706D01*
X117955528Y-61097706D01*
X117990056Y-61178669D01*
X118093641Y-61250106D01*
X118221037Y-61290588D01*
X118297237Y-61267966D01*
X118340100Y-61223913D01*
X118377009Y-61154856D01*
X118500834Y-60897681D01*
X119160441Y-60897681D01*
X119284266Y-61154856D01*
X119321175Y-61226294D01*
X119364037Y-61271538D01*
X119440237Y-61292969D01*
X119567634Y-61252488D01*
X119671219Y-61179264D01*
X119705747Y-61097706D01*
X119665266Y-60976263D01*
X119063808Y-59733250D01*
X119836716Y-59733250D01*
X119836716Y-61057225D01*
X119851003Y-61178669D01*
X119914106Y-61246534D01*
X120046266Y-61269156D01*
X120168900Y-61253083D01*
X120232003Y-61204863D01*
X120254625Y-61142950D01*
X120258197Y-61059606D01*
X120258197Y-60609550D01*
X120724922Y-60609550D01*
X120846366Y-60597644D01*
X120914231Y-60532755D01*
X120936853Y-60400000D01*
X120921375Y-60276770D01*
X120874941Y-60211881D01*
X120811837Y-60189259D01*
X120727303Y-60185687D01*
X120258197Y-60185687D01*
X120258197Y-59945181D01*
X120986859Y-59945181D01*
X121071394Y-59941609D01*
X121134497Y-59920178D01*
X121184503Y-59857075D01*
X121198791Y-59735631D01*
X121198511Y-59733250D01*
X121353572Y-59733250D01*
X121353572Y-61057225D01*
X121367859Y-61178669D01*
X121430962Y-61246534D01*
X121563122Y-61269156D01*
X122506097Y-61269156D01*
X122629922Y-61254869D01*
X122696002Y-61191766D01*
X122718028Y-61059606D01*
X122701955Y-60936972D01*
X122653734Y-60873869D01*
X122590631Y-60851247D01*
X122508478Y-60847675D01*
X121775053Y-60847675D01*
X121775053Y-60607169D01*
X122241778Y-60607169D01*
X122365603Y-60592881D01*
X122433469Y-60529778D01*
X122456091Y-60397619D01*
X122440017Y-60274984D01*
X122391797Y-60211881D01*
X122328694Y-60189259D01*
X122246541Y-60185687D01*
X121775053Y-60185687D01*
X121775053Y-59945181D01*
X122506097Y-59945181D01*
X122629922Y-59930894D01*
X122696002Y-59867791D01*
X122718028Y-59735631D01*
X122717404Y-59730869D01*
X122872809Y-59730869D01*
X122872809Y-61052463D01*
X122887097Y-61176288D01*
X122950200Y-61244153D01*
X123082359Y-61266775D01*
X123708628Y-61266775D01*
X123851900Y-61248916D01*
X123980091Y-61195338D01*
X124093200Y-61106041D01*
X124099573Y-61097706D01*
X124351566Y-61097706D01*
X124386094Y-61178669D01*
X124489678Y-61250106D01*
X124617075Y-61290588D01*
X124693275Y-61267966D01*
X124736137Y-61223913D01*
X124773047Y-61154856D01*
X124896872Y-60897681D01*
X125556478Y-60897681D01*
X125680303Y-61154856D01*
X125717212Y-61226294D01*
X125760075Y-61271538D01*
X125836275Y-61292969D01*
X125963672Y-61252488D01*
X126067256Y-61179264D01*
X126101784Y-61097706D01*
X126061303Y-60976263D01*
X125458694Y-59730869D01*
X126232753Y-59730869D01*
X126232753Y-61052463D01*
X126247041Y-61176288D01*
X126310144Y-61244153D01*
X126442303Y-61266775D01*
X127068572Y-61266775D01*
X127211844Y-61248916D01*
X127340034Y-61195338D01*
X127453144Y-61106041D01*
X127541647Y-60990285D01*
X127596019Y-60857332D01*
X127616259Y-60707181D01*
X127600649Y-60573567D01*
X127553818Y-60448948D01*
X127475766Y-60333325D01*
X127543631Y-60195808D01*
X127566253Y-60045194D01*
X127549055Y-59907610D01*
X127497461Y-59783785D01*
X127457981Y-59733250D01*
X127771041Y-59733250D01*
X127771041Y-61057225D01*
X127785328Y-61178669D01*
X127848431Y-61246534D01*
X127980591Y-61269156D01*
X128923566Y-61269156D01*
X129047391Y-61254869D01*
X129113470Y-61191766D01*
X129135497Y-61059606D01*
X129119423Y-60936972D01*
X129071203Y-60873869D01*
X129008100Y-60851247D01*
X128925947Y-60847675D01*
X128192522Y-60847675D01*
X128192522Y-60607169D01*
X128659247Y-60607169D01*
X128783072Y-60592881D01*
X128850937Y-60529778D01*
X128873559Y-60397619D01*
X128857486Y-60274984D01*
X128809266Y-60211881D01*
X128746162Y-60189259D01*
X128664009Y-60185687D01*
X128192522Y-60185687D01*
X128192522Y-59945181D01*
X128923566Y-59945181D01*
X129047391Y-59930894D01*
X129113470Y-59867791D01*
X129135497Y-59735631D01*
X129119423Y-59612997D01*
X129071203Y-59549894D01*
X129008100Y-59527272D01*
X128925947Y-59523700D01*
X127987734Y-59523700D01*
X127816284Y-59567753D01*
X127771041Y-59733250D01*
X127457981Y-59733250D01*
X127411472Y-59673719D01*
X127305109Y-59589052D01*
X127182872Y-59538252D01*
X127044759Y-59521319D01*
X126444684Y-59521319D01*
X126322050Y-59537392D01*
X126258947Y-59585612D01*
X126236325Y-59647525D01*
X126232753Y-59730869D01*
X125458694Y-59730869D01*
X125418366Y-59647525D01*
X125339784Y-59554656D01*
X125227866Y-59523700D01*
X125114756Y-59557037D01*
X125034984Y-59645144D01*
X124392047Y-60976263D01*
X124351566Y-61097706D01*
X124099573Y-61097706D01*
X124181703Y-60990285D01*
X124236075Y-60857332D01*
X124256316Y-60707181D01*
X124240705Y-60573567D01*
X124193874Y-60448948D01*
X124115822Y-60333325D01*
X124183687Y-60195808D01*
X124206309Y-60045194D01*
X124189111Y-59907610D01*
X124137518Y-59783785D01*
X124051528Y-59673719D01*
X123945166Y-59589052D01*
X123822928Y-59538252D01*
X123684816Y-59521319D01*
X123084741Y-59521319D01*
X122962106Y-59537392D01*
X122899003Y-59585612D01*
X122876381Y-59647525D01*
X122872809Y-59730869D01*
X122717404Y-59730869D01*
X122701955Y-59612997D01*
X122653734Y-59549894D01*
X122590631Y-59527272D01*
X122508478Y-59523700D01*
X121570266Y-59523700D01*
X121398816Y-59567753D01*
X121353572Y-59733250D01*
X121198511Y-59733250D01*
X121184503Y-59614187D01*
X121135687Y-59549894D01*
X121073775Y-59527272D01*
X120991622Y-59523700D01*
X120053409Y-59523700D01*
X119881959Y-59567753D01*
X119836716Y-59733250D01*
X119063808Y-59733250D01*
X119022328Y-59647525D01*
X118943747Y-59554656D01*
X118831828Y-59523700D01*
X118718719Y-59557037D01*
X118638947Y-59645144D01*
X117996009Y-60976263D01*
X117955528Y-61097706D01*
X117807748Y-61097706D01*
X117825750Y-61083419D01*
X117857897Y-61000075D01*
X117805509Y-60866725D01*
X117722761Y-60766713D01*
X117645966Y-60733375D01*
X117531666Y-60781000D01*
X117488803Y-60811956D01*
X117394744Y-60850056D01*
X117255441Y-60869106D01*
X117101255Y-60842913D01*
X116953022Y-60764331D01*
X116831578Y-60614313D01*
X116795859Y-60512812D01*
X116783953Y-60398809D01*
X116795859Y-60284807D01*
X116831578Y-60183306D01*
X116950641Y-60035669D01*
X117101850Y-59955302D01*
X117255441Y-59928512D01*
X117405459Y-59948753D01*
X117522141Y-60009475D01*
X117643584Y-60061862D01*
X117722166Y-60029716D01*
X117810272Y-59933275D01*
X117860278Y-59801116D01*
X117798366Y-59688006D01*
X117731691Y-59645144D01*
X117674541Y-59611806D01*
X117499519Y-59541559D01*
X117384921Y-59515663D01*
X117272109Y-59507031D01*
X117115211Y-59521319D01*
X116958843Y-59564181D01*
X116803003Y-59635619D01*
X116686024Y-59710330D01*
X116582737Y-59801116D01*
X116494929Y-59913034D01*
X116424384Y-60051147D01*
X116377950Y-60210988D01*
X116362472Y-60388094D01*
X116167337Y-60388094D01*
X116181497Y-60373806D01*
X116267222Y-60227359D01*
X116181497Y-60080912D01*
X116036241Y-59995187D01*
X115890984Y-60080912D01*
X115629047Y-60347612D01*
X115364728Y-60080912D01*
X115220662Y-59995187D01*
X115075406Y-60080912D01*
X114988491Y-60227359D01*
X114882913Y-60227359D01*
X114861491Y-60090967D01*
X114821803Y-59945181D01*
X114772095Y-59824928D01*
X114708694Y-59721344D01*
X114625350Y-59633833D01*
X114515812Y-59561800D01*
X114382760Y-59513580D01*
X114228872Y-59497506D01*
X114074388Y-59513877D01*
X113939550Y-59562991D01*
X113828524Y-59636214D01*
X113745478Y-59724916D01*
X113679696Y-59839513D01*
X113620462Y-59990425D01*
X113589374Y-60110810D01*
X113570721Y-60246542D01*
X113564503Y-60397619D01*
X111653402Y-60397619D01*
X111660020Y-60262914D01*
X111680159Y-60127149D01*
X111713508Y-59994011D01*
X111759747Y-59864784D01*
X111818429Y-59740710D01*
X111888990Y-59622986D01*
X111970750Y-59512745D01*
X112062922Y-59411049D01*
X112164618Y-59318877D01*
X112274859Y-59237117D01*
X112392583Y-59166556D01*
X112516657Y-59107874D01*
X112645884Y-59061635D01*
X112779022Y-59028286D01*
X112914787Y-59008147D01*
X113051873Y-59001412D01*
X129648127Y-59001412D01*
X129785213Y-59008147D01*
X129920978Y-59028286D01*
X130054116Y-59061635D01*
X130183343Y-59107874D01*
X130307417Y-59166556D01*
X130425141Y-59237117D01*
X130535382Y-59318877D01*
X130637078Y-59411049D01*
X130729250Y-59512745D01*
X130811010Y-59622986D01*
X130881571Y-59740710D01*
X130940253Y-59864784D01*
X130986492Y-59994011D01*
X131019841Y-60127149D01*
X131039980Y-60262914D01*
X131046715Y-60400000D01*
X131039980Y-60537086D01*
X131019841Y-60672851D01*
X130986492Y-60805989D01*
X130940253Y-60935216D01*
X130881571Y-61059290D01*
X130811010Y-61177014D01*
X130729250Y-61287255D01*
X130637078Y-61388951D01*
X130535382Y-61481123D01*
X130425141Y-61562883D01*
X130307417Y-61633444D01*
X130183343Y-61692126D01*
X130054116Y-61738365D01*
X129920978Y-61771714D01*
X129785213Y-61791853D01*
X129648127Y-61798588D01*
X113051873Y-61798588D01*
X112914787Y-61791853D01*
G37*
G36*
X114335135Y-59948902D02*
G01*
X114411037Y-60038645D01*
X114456579Y-60188218D01*
X114471759Y-60397619D01*
X114471759Y-60411906D01*
X114456430Y-60616098D01*
X114410442Y-60761950D01*
X114333796Y-60849461D01*
X114226491Y-60878631D01*
X114121269Y-60848642D01*
X114046111Y-60758676D01*
X114001016Y-60608731D01*
X113985984Y-60398809D01*
X114001165Y-60188887D01*
X114046706Y-60038943D01*
X114122609Y-59948976D01*
X114228872Y-59918987D01*
X114335135Y-59948902D01*
G37*
G36*
X127105481Y-59966612D02*
G01*
X127144772Y-60049956D01*
X127137628Y-60135681D01*
X127023328Y-60185687D01*
X126876881Y-60219025D01*
X126832828Y-60355947D01*
X126875691Y-60492869D01*
X127004278Y-60526206D01*
X127137628Y-60545256D01*
X127181681Y-60592881D01*
X127194778Y-60683369D01*
X127157273Y-60804813D01*
X127044759Y-60845294D01*
X126654234Y-60845294D01*
X126654234Y-59942800D01*
X126987609Y-59942800D01*
X127105481Y-59966612D01*
G37*
G36*
X123745537Y-59966612D02*
G01*
X123784828Y-60049956D01*
X123777684Y-60135681D01*
X123663384Y-60185687D01*
X123516937Y-60219025D01*
X123472884Y-60355947D01*
X123515747Y-60492869D01*
X123644334Y-60526206D01*
X123777684Y-60545256D01*
X123821737Y-60592881D01*
X123834834Y-60683369D01*
X123797330Y-60804813D01*
X123684816Y-60845294D01*
X123294291Y-60845294D01*
X123294291Y-59942800D01*
X123627666Y-59942800D01*
X123745537Y-59966612D01*
G37*
G36*
X118988991Y-60545256D02*
G01*
X118672284Y-60545256D01*
X118829447Y-60219025D01*
X118988991Y-60545256D01*
G37*
G36*
X125385028Y-60545256D02*
G01*
X125068322Y-60545256D01*
X125225484Y-60219025D01*
X125385028Y-60545256D01*
G37*
D11*
X130194340Y-53295000D02*
X130194340Y-54625000D01*
X128864340Y-53295000D02*
X130194340Y-53295000D01*
X130194340Y-55895000D02*
X130194340Y-58495000D01*
X127594340Y-55895000D02*
X130194340Y-55895000D01*
X127594340Y-53295000D02*
X127594340Y-55895000D01*
X130194340Y-58495000D02*
X122454340Y-58495000D01*
X127594340Y-53295000D02*
X122454340Y-53295000D01*
X122454340Y-53295000D02*
X122454340Y-58495000D01*
M02*
